<svg id="图层_1" data-name="图层 1" xmlns="http://www.w3.org/2000/svg" viewBox="0 0 350.46 352.07"><title>bone_logo</title><path d="M178.88,33.75A149.7,149.7,0,0,1,284.73,289.31,149.7,149.7,0,1,1,73,77.6,148.74,148.74,0,0,1,178.88,33.75m0-.25a150,150,0,1,0,150,150,150,150,0,0,0-149.95-150Z" transform="translate(-7.02 -7.96)"/><path d="M179.55,40.39c41.44,0,80.4,15.43,109.7,43.45s45.41,65.22,45.41,104.81-16.13,76.82-45.41,104.82S221,336.92,179.55,336.92s-80.4-15.43-109.7-43.45S24.44,228.24,24.44,188.65,40.57,111.84,69.85,83.84s68.26-43.45,109.7-43.45m0-1.5c-86.49,0-156.61,67.05-156.61,149.76S93.06,338.42,179.55,338.42s156.61-67.05,156.61-149.77S266,38.89,179.55,38.89Z" transform="translate(-7.02 -7.96)"/><path d="M180.41,28.29a151.19,151.19,0,0,1,107,43.88,148.73,148.73,0,0,1,0,211.86,152.45,152.45,0,0,1-214,0,148.73,148.73,0,0,1,0-211.86,151.15,151.15,0,0,1,107-43.88m0-.5c-83.87,0-151.85,67.3-151.85,150.31s68,150.31,151.85,150.31,151.85-67.3,151.85-150.31-68-150.31-151.85-150.31Z" transform="translate(-7.02 -7.96)"/><path d="M186.94,30.5a152.26,152.26,0,0,1,106.75,43c28.49,27.68,44.18,64.47,44.18,103.61S322.18,253,293.69,280.66a154.14,154.14,0,0,1-213.5,0C51.7,253,36,216.19,36,177.06S51.7,101.13,80.19,73.45A152.26,152.26,0,0,1,186.94,30.5m0-2C102.48,28.5,34,95,34,177.06s68.48,148.55,152.94,148.55S339.87,259.1,339.87,177.06,271.4,28.5,186.94,28.5Z" transform="translate(-7.02 -7.96)"/><circle cx="44.9" cy="249.24" r="5.93"/><circle cx="43.06" cy="270.92" r="3.39"/><circle cx="66.88" cy="264.65" r="1.69"/><circle cx="204.64" cy="321.24" r="2.97"/><circle cx="235.3" cy="314.68" r="3.6"/><circle cx="123.41" cy="44.68" r="5.93"/><circle cx="37.74" cy="97.21" r="3.39"/><circle cx="55.08" cy="79.71" r="1.69"/><circle cx="75.69" cy="69.82" r="5.72"/><circle cx="94.8" cy="41.17" r="3.6"/><circle cx="323.74" cy="101.25" r="8.11"/><circle cx="16.66" cy="227.99" r="8.11"/><circle cx="272.6" cy="42.03" r="8.11"/><circle cx="301.01" cy="76.49" r="1.69"/><circle cx="279.65" cy="66.72" r="2.97"/><circle cx="286.48" cy="84.41" r="3.6"/><circle cx="211.57" cy="307.32" r="5.93"/><circle cx="311.93" cy="264.37" r="8.55"/><circle cx="223.2" cy="21.9" r="5.93"/><circle cx="71.34" cy="55.01" r="9.22"/><circle cx="255.51" cy="289.24" r="5.93"/><circle cx="169.03" cy="335.76" r="5.93"/><circle cx="137.84" cy="304.84" r="5.93"/><circle cx="71.95" cy="295.56" r="5.93"/><circle cx="318.61" cy="160.15" r="3.39"/><circle cx="316.91" cy="184.73" r="1.69"/><circle cx="312.41" cy="206.73" r="5.81"/><circle cx="336.93" cy="180.69" r="5.08"/><circle cx="319.67" cy="237.48" r="3.6"/><circle cx="134.84" cy="314.68" r="3.6"/><circle cx="79.53" cy="289.93" r="3.6"/><circle cx="230.13" cy="37.75" r="3.6"/><circle cx="319.67" cy="124.4" r="3.6"/><circle cx="226.27" cy="46.84" r="5.93"/><circle cx="12.11" cy="155.18" r="5.93"/><circle cx="202.61" cy="19.37" r="3.39"/><circle cx="178.92" cy="1.7" r="1.69"/><circle cx="178.92" cy="28.25" r="2.97"/><circle cx="151.02" cy="35.69" r="3.6"/><circle cx="43.85" cy="116.35" r="5.93"/><circle cx="27.47" cy="120.32" r="3.39"/><circle cx="25.16" cy="144.89" r="1.69"/><circle cx="32.65" cy="154.54" r="2.97"/><circle cx="12.93" cy="192.18" r="3.6"/><circle cx="337.97" cy="137.27" r="2.64"/><circle cx="319.88" cy="210.63" r="3.17"/><circle cx="59.96" cy="274.31" r="2.15"/><circle cx="216.91" cy="29.01" r="0.82"/><circle cx="57.67" cy="104.66" r="0.57"/><circle cx="188.73" cy="24.02" r="0.67"/><circle cx="75.69" cy="306.23" r="0.97"/><circle cx="74.69" cy="284.16" r="1.85"/><circle cx="144.89" cy="324.21" r="1.36"/><circle cx="203.54" cy="41.33" r="0.7"/><circle cx="35.62" cy="75.4" r="0.58"/><circle cx="215.38" cy="47.49" r="0.57"/><circle cx="88.36" cy="313.79" r="0.67"/><circle cx="157.13" cy="306.21" r="0.7"/><circle cx="47.48" cy="225.74" r="0.58"/><circle cx="60.66" cy="241.43" r="0.57"/><circle cx="46.8" cy="102.45" r="0.82"/><circle cx="13.2" cy="107.64" r="1.92"/><circle cx="7.7" cy="262.95" r="0.67"/><circle cx="33.42" cy="114.77" r="0.7"/><circle cx="32.07" cy="105.24" r="0.58"/><circle cx="45.26" cy="120.93" r="0.57"/><circle cx="122.03" cy="284.74" r="0.82"/><circle cx="235.3" cy="326.45" r="0.57"/><circle cx="93.85" cy="279.74" r="0.67"/><circle cx="163.3" cy="297.57" r="0.7"/><circle cx="120.49" cy="303.21" r="0.57"/><circle cx="300.47" cy="151.57" r="0.82"/><circle cx="137.44" cy="59.57" r="0.57"/><circle cx="133.69" cy="47.59" r="0.67"/><circle cx="156.43" cy="46.14" r="0.7"/><circle cx="56.21" cy="289.63" r="0.58"/><circle cx="168.46" cy="40.36" r="0.57"/><circle cx="331.06" cy="201.11" r="0.82"/><circle cx="314.42" cy="169.31" r="0.57"/><circle cx="316.91" cy="69.82" r="0.67"/><circle cx="273.19" cy="255.17" r="0.7"/><circle cx="325.78" cy="191.85" r="0.58"/><circle cx="329.75" cy="237.56" r="0.82"/><circle cx="313.85" cy="137.94" r="0.67"/><circle cx="311.58" cy="219.41" r="0.7"/><circle cx="322.25" cy="224.59" r="0.58"/><circle cx="241.26" cy="51.71" r="0.82"/><circle cx="349.89" cy="210.63" r="0.57"/><circle cx="226.27" cy="6.92" r="0.67"/><circle cx="322.97" cy="129.91" r="0.7"/><circle cx="301.06" cy="68.54" r="0.58"/><circle cx="337.69" cy="160.15" r="0.82"/><circle cx="250.99" cy="67.51" r="0.67"/><circle cx="293.19" cy="109.84" r="0.7"/><circle cx="69.97" cy="102.45" r="0.58"/><circle cx="296.94" cy="308.12" r="0.82"/><circle cx="12.68" cy="134.39" r="0.57"/><circle cx="23.83" cy="140.15" r="0.67"/><circle cx="98.4" cy="30.92" r="0.7"/><circle cx="18.1" cy="154.6" r="0.58"/><circle cx="14.84" cy="204.31" r="0.82"/><circle cx="39.43" cy="134.63" r="0.57"/><circle cx="0.7" cy="192.88" r="0.7"/><circle cx="12.62" cy="173.99" r="0.58"/><circle cx="256.72" cy="313.25" r="0.82"/><circle cx="257.39" cy="306.23" r="0.67"/><circle cx="230.99" cy="302.63" r="0.7"/><circle cx="241.85" cy="306.23" r="0.58"/><circle cx="194.44" cy="321.53" r="0.82"/><circle cx="222.58" cy="299.25" r="0.57"/><circle cx="221.33" cy="311.74" r="0.67"/><circle cx="199.85" cy="304.17" r="0.7"/><circle cx="262.86" cy="65.27" r="0.58"/><circle cx="89.98" cy="60.37" r="0.82"/><circle cx="91.17" cy="24.5" r="0.57"/><circle cx="43.06" cy="206.73" r="0.67"/><circle cx="80.23" cy="45.02" r="0.7"/><circle cx="70.89" cy="91.45" r="0.82"/><circle cx="72.07" cy="55.58" r="0.57"/><circle cx="61.13" cy="76.1" r="0.7"/><circle cx="70.75" cy="76.47" r="0.58"/><circle cx="287.61" cy="277.9" r="0.82"/><circle cx="285.48" cy="257.58" r="0.57"/><circle cx="293.03" cy="257.01" r="0.67"/><circle cx="285.48" cy="268.96" r="0.7"/><circle cx="301.77" cy="272.84" r="0.58"/><circle cx="270.45" cy="269.66" r="2.15"/><circle cx="162.33" cy="11.11" r="0.97"/><circle cx="101.54" cy="49.59" r="1.95"/><circle cx="138.2" cy="17.6" r="1.36"/><circle cx="57.67" cy="69.36" r="1.85"/><circle cx="57.81" cy="89.81" r="1.6"/><circle cx="173.81" cy="19.08" r="1.36"/><circle cx="116.04" cy="33.19" r="1.67"/><circle cx="130.18" cy="37.32" r="1.39"/><circle cx="212.23" cy="38.71" r="2.15"/><circle cx="144.89" cy="349.29" r="0.97"/><circle cx="298.89" cy="99.16" r="1.95"/><circle cx="287.88" cy="69.82" r="1.36"/><circle cx="255.84" cy="30.15" r="1.85"/><circle cx="81.41" cy="267.51" r="1.36"/><circle cx="313.85" cy="86.08" r="1.67"/><circle cx="325.51" cy="221.5" r="1.39"/><circle cx="265.01" cy="303.33" r="2.15"/><circle cx="275.29" cy="291.43" r="0.97"/><circle cx="207.99" cy="332.16" r="1.95"/><circle cx="246.03" cy="298.55" r="1.36"/><circle cx="296.29" cy="293.22" r="1.85"/><circle cx="285.48" cy="258.15" r="1.6"/><circle cx="281.54" cy="304.84" r="1.36"/><circle cx="223.2" cy="316.41" r="1.67"/><circle cx="199.21" cy="350.68" r="1.39"/><circle cx="118.97" cy="311.64" r="2.15"/><circle cx="103.26" cy="312.28" r="0.97"/><circle cx="175.17" cy="307.15" r="1.95"/><circle cx="130.85" cy="326.53" r="1.36"/><circle cx="90.21" cy="295.74" r="1.85"/><circle cx="53.2" cy="244.2" r="3.03"/><circle cx="116.48" cy="295.56" r="1.36"/><circle cx="151.03" cy="319.78" r="1.39"/><circle cx="30.65" cy="207.69" r="2.15"/><circle cx="28.31" cy="192.62" r="0.97"/><circle cx="26.36" cy="271.26" r="1.95"/><circle cx="306.6" cy="239.38" r="1.85"/><circle cx="46.45" cy="225.83" r="1.6"/><circle cx="181.98" cy="44.32" r="1.36"/><circle cx="21.29" cy="249.96" r="1.67"/><circle cx="32.8" cy="240.77" r="1.39"/><path d="M295.49,149.05a25.79,25.79,0,0,1-10.63,4.4l-1.93-2a21.28,21.28,0,0,0,5.12-1.4,26.2,26.2,0,0,0,4.54-2.4q5.6-3.6,5.6-8.2,0-9-13.72-15a54.76,54.76,0,0,0-21.06-4.6q-10.83,0-27.06,7c1.42,1.74,2.9,3.5,4.44,5.3s3.22,3.77,5,5.9q5.22,7.6,5.22,15.4a28.11,28.11,0,0,1-7.15,19.4,58.26,58.26,0,0,1-6.58,6.1,72.68,72.68,0,0,1-10,6.7q9.27,11.81,9.27,30.8,10.25-3.6,20.87-13.4l1.55,1.6a85.8,85.8,0,0,1-23.58,15.2,50,50,0,0,1-7.92,14.3,49.19,49.19,0,0,1-11.6,10.6,51.92,51.92,0,0,1-14.3,6.5,53.22,53.22,0,0,1-16,2q-13.14-.39-13.14-9.4,0-12.6,17.39-18.6a82.16,82.16,0,0,1,26.09-4q6.38-6,6.38-22.2a68.87,68.87,0,0,0-1.16-12.2,16.15,16.15,0,0,1-2.22.3c-.84.07-1.77.1-2.8.1a9.33,9.33,0,0,1-5.13-1.7,4.87,4.87,0,0,1-2.61-4.1q0-4.39,6.19-4.4,4.44,0,9.28,4.4,15.45-15,15.46-28,0-19.59-7.73-24-7.35,3.81-21.65,24A40.92,40.92,0,0,0,205,163q-2.32,6.11-4.83,15.1-5.22,18.4-9.67,25.8-15.64,25.2-32.46,36.4-20.12,13-49.67,13-25.14,0-41.17-15.2Q51,222.85,51,197.25q0-28.8,20.09-50.8,20.3-22,48.32-22,10.44,0,24,5.8,15.84-9.39,18.94-10.8,12.75-5.19,31.31-5.2,14.69,0,25.12,4,2.33,1,5.8,2.6c2.32,1.07,5,2.34,8.12,3.8,2.06-.66,4.06-1.4,6-2.2l5.8-2.4a63.45,63.45,0,0,1,18.94-2.6q10.81,0,23,5.2,14.7,6.6,14.69,16.8Q301.09,144.85,295.49,149.05Zm-102.05-32.8q-16.23,0-27.83,4.2-8.7,3.21-20.48,11.4,27.63,17.81,27.63,46c0,.14-.09.77-.29,1.9s-.42,2.84-.67,5.1l3.86-6.8a17.4,17.4,0,0,0,2.13-7.2q.19-4.2-4.06-13.4l2.13-.6c.9,1.74,1.57,3,2,3.8a8.93,8.93,0,0,0,.87,1.4,22.88,22.88,0,0,1,1.54,8.6q.19,9.4-10.43,20.4a46.46,46.46,0,0,1-5.71,11.4,41.54,41.54,0,0,1-8.31,9,37.22,37.22,0,0,1-10.34,5.9,33.27,33.27,0,0,1-11.79,2.1v-2.8q6.57,1,15.66-4A30.62,30.62,0,0,0,165,194.25q-9.08,3-13.72,3-12.94,0-20.68-9.2-7.16-8.6-7.15-22.2a38.75,38.75,0,0,1,7.34-22.8q1.56-2,10.25-10.8a43.71,43.71,0,0,0-21.84-5.8q-26.49,0-46.39,21.6-19.9,21.4-19.9,49.2,0,24.6,16,39.4,15.27,14,39.23,14,12.57,0,26.29-7.4A89.3,89.3,0,0,0,156.43,226a94.41,94.41,0,0,0,16.72-26.1q.39-.79,2.13-5.5t5-13.5a103.4,103.4,0,0,1,19.13-32q13.33-15.39,29.38-22A62.85,62.85,0,0,0,193.44,116.25Zm-50.05,17q-4.45,4.41-7.54,7.9a43,43,0,0,0-4.64,6.1,34.61,34.61,0,0,0-5.41,18.8q0,12.6,6.76,20.6t18.94,8a22.85,22.85,0,0,0,16.24-6.6q2.89-6.8,2.9-10.2Q170.64,148.86,143.39,133.25Zm45.8,94.8q-14.49,5.2-14.49,15.8,0,5.61,8.11,5.8,11,.4,22.42-11.8l10.05-13.6A77.66,77.66,0,0,0,189.19,228.05Zm25.32-48.4c-1.55,0-2.32.6-2.32,1.8q0,2.81,3.87,2.8a13.47,13.47,0,0,0,4.44-.8Q217.41,179.65,214.51,179.65Z" transform="translate(-7.02 -7.96)"/></svg>