<svg id="Layer_1" data-name="Layer 1" xmlns="http://www.w3.org/2000/svg" viewBox="0 0 406 408"><title>dots_B_bw_clearSpace4</title><path d="M199.8,59.2A144.1,144.1,0,1,1,97.7,101.4,144,144,0,0,1,199.8,59.2m0-.2A144.6,144.6,0,1,0,344.3,203.6,144.5,144.5,0,0,0,199.8,59Z"/><path d="M200.4,65.6c39.8,0,77.4,14.8,105.6,41.8s43.8,62.8,43.8,101-15.5,74-43.8,101-65.8,41.8-105.6,41.8-77.5-14.9-105.7-41.8S50.9,246.6,50.9,208.5s15.5-74,43.8-101,65.8-41.9,105.7-41.9m0-1.4C117,64.2,49.5,128.8,49.5,208.5S117,352.8,200.4,352.8s150.8-64.6,150.8-144.3S283.7,64.2,200.4,64.2Z"/><path d="M201.2,53.9A145.9,145.9,0,0,1,304.3,96.2a143.3,143.3,0,0,1,0,204.1,146.8,146.8,0,0,1-206.2,0,143.1,143.1,0,0,1,0-204.1A146.1,146.1,0,0,1,201.2,53.9m0-.4C120.4,53.5,55,118.3,55,198.3s65.5,144.8,146.2,144.8,146.3-64.8,146.3-144.7S282.1,53.5,201.2,53.5Z"/><path d="M207.5,56.2A147,147,0,0,1,310.3,97.5c27.4,26.7,42.6,62.1,42.6,99.8s-15.2,73.1-42.6,99.8a148.3,148.3,0,0,1-205.6,0C77.2,270.4,62.1,235,62.1,197.3s15.1-73.1,42.6-99.8,64-41.3,102.8-41.3m0-2c-81.4,0-147.3,64.1-147.3,143.2s66,143.2,147.3,143.2,147.4-64.2,147.4-143.3S288.9,54.2,207.5,54.2Z"/><circle cx="77.4" cy="274.6" r="5.7"/><circle cx="75.7" cy="295.4" r="3.3"/><circle cx="98.6" cy="289.4" r="1.6"/><circle cx="231.3" cy="343.9" r="2.9"/><circle cx="260.9" cy="337.6" r="3.5"/><circle cx="153" cy="77.4" r="5.7"/><circle cx="70.5" cy="128" r="3.3"/><circle cx="87.2" cy="111.2" r="1.6"/><circle cx="107.1" cy="101.6" r="5.5"/><circle cx="125.5" cy="74.1" r="3.5"/><circle cx="346" cy="132" r="7.8"/><circle cx="50.2" cy="254.1" r="7.8"/><circle cx="296.8" cy="74.9" r="7.8"/><circle cx="324.2" cy="108.1" r="1.6"/><circle cx="303.6" cy="98.6" r="2.9"/><circle cx="310.2" cy="115.7" r="3.5"/><circle cx="238" cy="330.5" r="5.7"/><circle cx="334.7" cy="289.1" r="8.2"/><circle cx="249.2" cy="55.5" r="5.7"/><circle cx="102.8" cy="87.4" r="8.9"/><circle cx="280.3" cy="313.1" r="5.7"/><circle cx="197" cy="357.9" r="5.7"/><circle cx="166.9" cy="328.1" r="5.7"/><circle cx="103.5" cy="319.2" r="5.7"/><circle cx="341.1" cy="188.7" r="3.3"/><circle cx="339.5" cy="212.3" r="1.6"/><circle cx="335.1" cy="233.5" r="5.6"/><circle cx="358.7" cy="208.5" r="4.9"/><circle cx="342.2" cy="263.2" r="3.5"/><circle cx="164" cy="337.6" r="3.5"/><circle cx="110.7" cy="313.7" r="3.5"/><circle cx="255.8" cy="70.8" r="3.5"/><circle cx="342.2" cy="154.2" r="3.5"/><circle cx="252.2" cy="79.6" r="5.7"/><circle cx="45.8" cy="183.9" r="5.7"/><circle cx="229.4" cy="53.1" r="3.3"/><circle cx="206.5" cy="36" r="1.6"/><circle cx="206.5" cy="61.6" r="2.9"/><circle cx="179.6" cy="68.8" r="3.5"/><circle cx="76.4" cy="146.5" r="5.7"/><circle cx="60.6" cy="150.3" r="3.3"/><circle cx="58.4" cy="174" r="1.6"/><circle cx="65.7" cy="183.3" r="2.9"/><circle cx="46.6" cy="219.6" r="3.5"/><circle cx="359.8" cy="166.7" r="2.5"/><circle cx="342.4" cy="237.3" r="3.1"/><circle cx="92" cy="298.7" r="2"/><circle cx="243.1" cy="62.3" r="0.8"/><circle cx="89.7" cy="135.3" r="0.6"/><circle cx="216" cy="57.5" r="0.7"/><circle cx="107.1" cy="329.4" r="1"/><circle cx="106.1" cy="308.2" r="1.7"/><circle cx="173.8" cy="346.7" r="1.3"/><circle cx="230.2" cy="74.3" r="0.7"/><circle cx="68.4" cy="107" r="0.6"/><circle cx="241.7" cy="80.1" r="0.6"/><circle cx="119.3" cy="336.7" r="0.7"/><circle cx="185.5" cy="329.4" r="0.7"/><circle cx="79.9" cy="251.9" r="0.6"/><circle cx="92.6" cy="267" r="0.6"/><circle cx="79.2" cy="133.1" r="0.8"/><circle cx="46.9" cy="138.1" r="1.8"/><circle cx="41.6" cy="287.8" r="0.7"/><circle cx="66.3" cy="145" r="0.7"/><circle cx="65.1" cy="135.8" r="0.6"/><circle cx="77.8" cy="150.9" r="0.6"/><circle cx="151.7" cy="308.8" r="0.8"/><circle cx="260.9" cy="349" r="0.6"/><circle cx="124.6" cy="304" r="0.7"/><circle cx="191.5" cy="321.1" r="0.7"/><circle cx="150.2" cy="326.5" r="0.6"/><circle cx="323.7" cy="180.4" r="0.8"/><circle cx="166.5" cy="91.8" r="0.6"/><circle cx="163" cy="80.2" r="0.7"/><circle cx="184.8" cy="78.9" r="0.7"/><circle cx="88.3" cy="313.4" r="0.6"/><circle cx="196.5" cy="73.3" r="0.6"/><circle cx="353.2" cy="228.1" r="0.8"/><circle cx="337.1" cy="197.5" r="0.6"/><circle cx="339.5" cy="101.6" r="0.7"/><circle cx="297.4" cy="280.3" r="0.7"/><circle cx="348.1" cy="219.3" r="0.6"/><circle cx="351.9" cy="263.3" r="0.8"/><circle cx="336.6" cy="167.3" r="0.7"/><circle cx="334.4" cy="245.8" r="0.7"/><circle cx="344.7" cy="250.8" r="0.6"/><circle cx="266.6" cy="84.2" r="0.8"/><circle cx="371.3" cy="237.3" r="0.6"/><circle cx="252.2" cy="41" r="0.7"/><circle cx="345.4" cy="159.5" r="0.7"/><circle cx="324.3" cy="100.5" r="0.6"/><circle cx="359.5" cy="188.7" r="0.8"/><circle cx="276" cy="99.4" r="0.7"/><circle cx="316.6" cy="140.3" r="0.7"/><circle cx="101.6" cy="133.1" r="0.6"/><circle cx="320.2" cy="331.2" r="0.8"/><circle cx="46.4" cy="163.9" r="0.6"/><circle cx="57.1" cy="169.5" r="0.7"/><circle cx="129" cy="64.2" r="0.7"/><circle cx="51.6" cy="183.3" r="0.6"/><circle cx="48.5" cy="231.2" r="0.8"/><circle cx="72.1" cy="164.1" r="0.6"/><circle cx="34.8" cy="220.2" r="0.7"/><circle cx="46.3" cy="202" r="0.6"/><circle cx="281.5" cy="336.2" r="0.8"/><circle cx="282.1" cy="329.4" r="0.7"/><circle cx="256.7" cy="325.9" r="0.7"/><circle cx="267.2" cy="329.4" r="0.6"/><circle cx="221.5" cy="344.1" r="0.8"/><circle cx="248.6" cy="322.7" r="0.6"/><circle cx="247.4" cy="334.8" r="0.7"/><circle cx="226.7" cy="327.5" r="0.7"/><circle cx="287.4" cy="97.3" r="0.6"/><circle cx="120.9" cy="92.6" r="0.8"/><circle cx="122" cy="58" r="0.6"/><circle cx="75.7" cy="233.5" r="0.7"/><circle cx="111.4" cy="77.7" r="0.7"/><circle cx="102.5" cy="122.5" r="0.8"/><circle cx="103.6" cy="87.9" r="0.6"/><circle cx="93" cy="107.7" r="0.7"/><circle cx="102.4" cy="108.1" r="0.6"/><circle cx="311.2" cy="302.1" r="0.8"/><circle cx="309.2" cy="282.6" r="0.6"/><circle cx="316.4" cy="282" r="0.7"/><circle cx="309.2" cy="293.6" r="0.7"/><circle cx="324.9" cy="297.3" r="0.6"/><circle cx="294.8" cy="294.2" r="2"/><circle cx="190.5" cy="45.1" r="1"/><circle cx="131.9" cy="82.2" r="1.8"/><circle cx="167.3" cy="51.3" r="1.3"/><circle cx="89.7" cy="101.2" r="1.7"/><circle cx="89.8" cy="120.9" r="1.5"/><circle cx="201.6" cy="52.8" r="1.3"/><circle cx="145.9" cy="66.4" r="1.6"/><circle cx="159.6" cy="70.3" r="1.3"/><circle cx="238.6" cy="71.7" r="2"/><circle cx="173.8" cy="370.9" r="1"/><circle cx="322.1" cy="130" r="1.8"/><circle cx="311.5" cy="101.6" r="1.3"/><circle cx="280.6" cy="63.5" r="1.7"/><circle cx="112.6" cy="292.1" r="1.3"/><circle cx="336.6" cy="117.3" r="1.6"/><circle cx="347.8" cy="247.8" r="1.3"/><circle cx="289.5" cy="326.6" r="2"/><circle cx="299.4" cy="315.1" r="1"/><circle cx="234.6" cy="354.4" r="1.8"/><circle cx="271.2" cy="322.1" r="1.3"/><circle cx="319.6" cy="316.9" r="1.7"/><circle cx="309.2" cy="283.1" r="1.5"/><circle cx="305.4" cy="328.1" r="1.3"/><circle cx="249.2" cy="339.2" r="1.6"/><circle cx="226.1" cy="372.3" r="1.3"/><circle cx="148.8" cy="334.7" r="2"/><circle cx="133.7" cy="335.3" r="1"/><circle cx="203" cy="330.4" r="1.8"/><circle cx="160.3" cy="349" r="1.3"/><circle cx="121.1" cy="319.4" r="1.7"/><circle cx="85.4" cy="269.7" r="2.9"/><circle cx="146.4" cy="319.2" r="1.3"/><circle cx="179.6" cy="342.5" r="1.3"/><circle cx="63.7" cy="234.5" r="2"/><circle cx="61.4" cy="219.9" r="1"/><circle cx="59.6" cy="295.8" r="1.8"/><circle cx="329.6" cy="265" r="1.7"/><circle cx="79" cy="251.9" r="1.5"/><circle cx="209.5" cy="77.1" r="1.3"/><circle cx="54.7" cy="275.2" r="1.6"/><circle cx="65.8" cy="266.4" r="1.3"/><path d="M312.1,170.3a25.6,25.6,0,0,1-10.2,4.3l-1.8-2a20.9,20.9,0,0,0,4.9-1.3,43.4,43.4,0,0,0,4.3-2.3c3.6-2.3,5.4-4.9,5.4-7.9,0-5.8-4.4-10.6-13.2-14.5a51.7,51.7,0,0,0-20.3-4.4c-7,0-15.6,2.2-26.1,6.7,1.3,1.7,2.8,3.4,4.2,5.1l4.8,5.7a25.9,25.9,0,0,1,5,14.9,27,27,0,0,1-6.9,18.7,55.1,55.1,0,0,1-6.4,5.8,66.4,66.4,0,0,1-9.6,6.5c6,7.6,9,17.4,9,29.7,6.5-2.3,13.3-6.7,20.1-12.9l1.5,1.5A79.8,79.8,0,0,1,254,238.5a47.2,47.2,0,0,1-18.8,24,51.7,51.7,0,0,1-13.7,6.3,54,54,0,0,1-15.5,1.9q-12.6-.4-12.6-9,0-12.1,16.8-18a78.1,78.1,0,0,1,25.1-3.8c4.2-3.9,6.2-11,6.2-21.4a62.2,62.2,0,0,0-1.2-11.8l-2.1.3h-2.7a8.6,8.6,0,0,1-4.9-1.6,4.9,4.9,0,0,1-2.5-4q0-4.2,6-4.2c2.9,0,5.8,1.4,8.9,4.2,10-9.6,15-18.6,15-26.9,0-12.7-2.5-20.4-7.5-23.2-4.7,2.5-11.6,10.2-20.8,23.2a40.2,40.2,0,0,0-4.6,9.1c-1.4,4-3.1,8.8-4.6,14.6-3.4,11.8-6.5,20.1-9.4,24.8-10,16.2-20.5,27.9-31.3,35.1-12.9,8.4-28.9,12.5-47.9,12.5-16.1,0-29.3-4.9-39.7-14.6s-15.6-22.9-15.6-39.3q0-27.7,19.4-49t46.5-21.2c6.8,0,14.4,1.9,23.2,5.6,10.2-6.1,16.2-9.5,18.2-10.4,8.2-3.4,18.2-5,30.1-5,9.5,0,17.6,1.2,24.2,3.9,1.5.6,3.4,1.4,5.6,2.5l7.8,3.6c2-.7,4-1.3,5.8-2.1l5.6-2.3a59.8,59.8,0,0,1,18.2-2.5,55.3,55.3,0,0,1,22.1,5c9.5,4.2,14.2,9.6,14.2,16.2C317.5,164.5,315.7,167.6,312.1,170.3Zm-98.4-31.6c-10.4,0-19.3,1.4-26.7,4.1-5.6,2-12.2,5.7-19.8,11q26.6,17.1,26.6,44.3l-.3,1.8c-.2,1.1-.4,2.7-.7,4.9l3.8-6.5a16.9,16.9,0,0,0,2-7c.1-2.7-1.1-7-3.9-12.9l2-.6,1.9,3.7c.5.8.7,1.3.9,1.4a23.5,23.5,0,0,1,1.4,8.2c.1,6.1-3.2,12.7-10,19.7a45.3,45.3,0,0,1-5.5,11,41.1,41.1,0,0,1-8,8.6,34,34,0,0,1-9.9,5.7,31.2,31.2,0,0,1-11.4,2.1v-2.7c4.3.6,9.3-.7,15.2-3.9a29.3,29.3,0,0,0,15.1-17.7c-5.9,1.9-10.2,2.9-13.2,2.9-8.3,0-15-3-20-8.9s-6.9-12.6-6.9-21.4a37.4,37.4,0,0,1,7-22c1-1.2,4.3-4.7,9.9-10.4a42.2,42.2,0,0,0-21-5.5c-17.1,0-31.9,6.9-44.7,20.8s-19.2,29.5-19.2,47.4c0,15.8,5.1,28.4,15.4,37.9s22.4,13.5,37.8,13.5c8.1,0,16.4-2.4,25.3-7.1a84,84,0,0,0,21.1-16.7A88.1,88.1,0,0,0,194,219.3a41.5,41.5,0,0,0,2-5.3c1.2-3,2.7-7.4,4.8-13a103.4,103.4,0,0,1,18.4-30.9c8.6-9.9,18.1-16.9,28.4-21.2A59.3,59.3,0,0,0,213.7,138.7Zm-48.1,16.4c-2.9,2.8-5.3,5.4-7.3,7.6a40.4,40.4,0,0,0-4.4,5.9,33.2,33.2,0,0,0-5.2,18.1c0,8.1,2.2,14.7,6.6,19.9s10.4,7.7,18.2,7.7a22.3,22.3,0,0,0,15.6-6.4c1.8-4.3,2.8-7.6,2.8-9.8C191.8,179.5,183,165.1,165.6,155.1Zm44.1,91.3c-9.3,3.4-14,8.4-14,15.3,0,3.5,2.6,5.5,7.8,5.6q10.6.3,21.6-11.4l9.7-13.1A74,74,0,0,0,209.7,246.4Zm24.4-46.6c-1.5,0-2.2.6-2.2,1.7s1.2,2.7,3.7,2.7a13.3,13.3,0,0,0,4.3-.7C237.8,201.1,235.9,199.8,234.1,199.8Z"/></svg>