<svg id="Layer_1" data-name="Layer 1" xmlns="http://www.w3.org/2000/svg" viewBox="0 0 406 408"><title>dots_B_bw_clearSpace2</title><path d="M200.5,51.6A149.5,149.5,0,1,1,94.6,95.4,149.1,149.1,0,0,1,200.5,51.6m0-.2a150,150,0,1,0,150,150,150,150,0,0,0-150-150Z"/><path d="M201.1,58.2c41.4,0,80.4,15.4,109.7,43.4s45.4,65.2,45.4,104.8-16.1,76.8-45.4,104.8-68.3,43.4-109.7,43.4-80.4-15.4-109.7-43.4S46,246.1,46,206.5s16.1-76.8,45.4-104.8,68.3-43.5,109.7-43.5m0-1.5c-86.5,0-156.6,67.1-156.6,149.8s70.1,149.8,156.6,149.8,156.6-67.1,156.6-149.8S287.6,56.7,201.1,56.7Z"/><path d="M202,46.1A151.2,151.2,0,0,1,309,90a148.7,148.7,0,0,1,0,211.8,152.3,152.3,0,0,1-214,0A148.5,148.5,0,0,1,95,90,151.2,151.2,0,0,1,202,46.1m0-.5c-83.9,0-151.8,67.3-151.8,150.3s68,150.3,151.8,150.3S353.8,279,353.8,196,285.9,45.6,202,45.6Z"/><path d="M208.5,48.4A152.5,152.5,0,0,1,315.2,91.3c28.5,27.7,44.2,64.5,44.2,103.6s-15.7,75.9-44.2,103.6-66.4,42.9-106.7,42.9a152.5,152.5,0,0,1-106.7-42.9C73.3,270.8,57.6,234,57.6,194.9S73.3,119,101.8,91.3s66.4-42.9,106.7-42.9m0-2C124,46.4,55.6,112.9,55.6,195s68.5,148.6,152.9,148.6,153-66.6,153-148.7S293,46.4,208.5,46.4Z"/><circle cx="73.5" cy="275.1" r="5.9"/><circle cx="71.7" cy="296.7" r="3.4"/><circle cx="95.5" cy="290.5" r="1.7"/><circle cx="233.2" cy="347.1" r="3"/><circle cx="263.9" cy="340.5" r="3.6"/><circle cx="152" cy="70.5" r="5.9"/><circle cx="66.3" cy="123" r="3.4"/><circle cx="83.7" cy="105.5" r="1.7"/><circle cx="104.3" cy="95.6" r="5.7"/><circle cx="123.4" cy="67" r="3.6"/><circle cx="352.3" cy="127.1" r="8.1"/><circle cx="45.3" cy="253.8" r="8.1"/><circle cx="301.2" cy="67.9" r="8.1"/><circle cx="329.6" cy="102.3" r="1.7"/><circle cx="308.3" cy="92.5" r="3"/><circle cx="315.1" cy="110.2" r="3.6"/><circle cx="240.2" cy="333.1" r="5.9"/><circle cx="340.5" cy="290.2" r="8.5"/><circle cx="251.8" cy="47.7" r="5.9"/><circle cx="99.9" cy="80.8" r="9.2"/><circle cx="284.1" cy="315.1" r="5.9"/><circle cx="197.6" cy="361.6" r="5.9"/><circle cx="166.4" cy="330.7" r="5.9"/><circle cx="100.6" cy="321.4" r="5.9"/><circle cx="347.2" cy="186" r="3.4"/><circle cx="345.5" cy="210.5" r="1.7"/><circle cx="341" cy="232.5" r="5.8"/><circle cx="365.5" cy="206.5" r="5.1"/><circle cx="348.3" cy="263.3" r="3.6"/><circle cx="163.4" cy="340.5" r="3.6"/><circle cx="108.1" cy="315.7" r="3.6"/><circle cx="258.7" cy="63.6" r="3.6"/><circle cx="348.3" cy="150.2" r="3.6"/><circle cx="254.9" cy="72.7" r="5.9"/><circle cx="40.7" cy="181" r="5.9"/><circle cx="231.2" cy="45.2" r="3.4"/><circle cx="207.5" cy="27.5" r="1.7"/><circle cx="207.5" cy="54.1" r="3"/><circle cx="179.6" cy="61.5" r="3.6"/><circle cx="72.5" cy="142.2" r="5.9"/><circle cx="56.1" cy="146.1" r="3.4"/><circle cx="53.8" cy="170.7" r="1.7"/><circle cx="61.3" cy="180.4" r="3"/><circle cx="41.5" cy="218" r="3.6"/><circle cx="366.6" cy="163.1" r="2.6"/><circle cx="348.5" cy="236.4" r="3.2"/><circle cx="88.6" cy="300.1" r="2.1"/><circle cx="245.5" cy="54.8" r="0.8"/><circle cx="86.3" cy="130.5" r="0.6"/><circle cx="217.3" cy="49.8" r="0.7"/><circle cx="104.3" cy="332" r="1"/><circle cx="103.3" cy="310" r="1.8"/><circle cx="173.5" cy="350" r="1.4"/><circle cx="232.1" cy="67.2" r="0.7"/><circle cx="64.2" cy="101.2" r="0.6"/><circle cx="244" cy="73.3" r="0.6"/><circle cx="117" cy="339.6" r="0.7"/><circle cx="185.7" cy="332" r="0.7"/><circle cx="76.1" cy="251.6" r="0.6"/><circle cx="89.3" cy="267.2" r="0.6"/><circle cx="75.4" cy="128.3" r="0.8"/><circle cx="41.8" cy="133.5" r="1.9"/><circle cx="36.3" cy="288.8" r="0.7"/><circle cx="62" cy="140.6" r="0.7"/><circle cx="60.7" cy="131.1" r="0.6"/><circle cx="73.9" cy="146.7" r="0.6"/><circle cx="150.6" cy="310.6" r="0.8"/><circle cx="263.9" cy="352.3" r="0.6"/><circle cx="122.5" cy="305.6" r="0.7"/><circle cx="191.9" cy="323.4" r="0.7"/><circle cx="149.1" cy="329" r="0.6"/><circle cx="329.1" cy="177.4" r="0.8"/><circle cx="166" cy="85.4" r="0.6"/><circle cx="162.3" cy="73.4" r="0.7"/><circle cx="185" cy="72" r="0.7"/><circle cx="84.8" cy="315.4" r="0.6"/><circle cx="197.1" cy="66.2" r="0.6"/><circle cx="359.7" cy="226.9" r="0.8"/><circle cx="343" cy="195.1" r="0.6"/><circle cx="345.5" cy="95.6" r="0.7"/><circle cx="301.8" cy="281" r="0.7"/><circle cx="354.4" cy="217.7" r="0.6"/><circle cx="358.4" cy="263.4" r="0.8"/><circle cx="342.5" cy="163.8" r="0.7"/><circle cx="340.2" cy="245.2" r="0.7"/><circle cx="350.9" cy="250.4" r="0.6"/><circle cx="269.9" cy="77.5" r="0.8"/><circle cx="378.5" cy="236.4" r="0.6"/><circle cx="254.9" cy="32.7" r="0.7"/><circle cx="351.6" cy="155.7" r="0.7"/><circle cx="329.7" cy="94.4" r="0.6"/><circle cx="366.3" cy="186" r="0.8"/><circle cx="279.6" cy="93.3" r="0.7"/><circle cx="321.8" cy="135.7" r="0.7"/><circle cx="98.6" cy="128.3" r="0.6"/><circle cx="325.5" cy="333.9" r="0.8"/><circle cx="41.3" cy="160.2" r="0.6"/><circle cx="52.4" cy="166" r="0.7"/><circle cx="127" cy="56.7" r="0.7"/><circle cx="46.7" cy="180.4" r="0.6"/><circle cx="43.5" cy="230.1" r="0.8"/><circle cx="68" cy="160.4" r="0.6"/><circle cx="29.3" cy="218.7" r="0.7"/><circle cx="41.2" cy="199.8" r="0.6"/><circle cx="285.3" cy="339.1" r="0.8"/><circle cx="286" cy="332" r="0.7"/><circle cx="259.6" cy="328.4" r="0.7"/><circle cx="270.5" cy="332" r="0.6"/><circle cx="223" cy="347.3" r="0.8"/><circle cx="251.2" cy="325.1" r="0.6"/><circle cx="249.9" cy="337.6" r="0.7"/><circle cx="228.5" cy="330" r="0.7"/><circle cx="291.5" cy="91.1" r="0.6"/><circle cx="118.6" cy="86.2" r="0.8"/><circle cx="119.8" cy="50.3" r="0.6"/><circle cx="71.7" cy="232.5" r="0.7"/><circle cx="108.8" cy="70.8" r="0.7"/><circle cx="99.5" cy="117.3" r="0.8"/><circle cx="100.7" cy="81.4" r="0.6"/><circle cx="89.7" cy="101.9" r="0.7"/><circle cx="99.4" cy="102.3" r="0.6"/><circle cx="316.2" cy="303.7" r="0.8"/><circle cx="314.1" cy="283.4" r="0.6"/><circle cx="321.6" cy="282.8" r="0.7"/><circle cx="314.1" cy="294.8" r="0.7"/><circle cx="330.4" cy="298.7" r="0.6"/><circle cx="299.1" cy="295.5" r="2.1"/><circle cx="190.9" cy="36.9" r="1"/><circle cx="130.1" cy="75.4" r="1.9"/><circle cx="166.8" cy="43.4" r="1.4"/><circle cx="86.3" cy="95.2" r="1.8"/><circle cx="86.4" cy="115.6" r="1.6"/><circle cx="202.4" cy="44.9" r="1.4"/><circle cx="144.6" cy="59" r="1.7"/><circle cx="158.8" cy="63.1" r="1.4"/><circle cx="240.8" cy="64.5" r="2.1"/><circle cx="173.5" cy="375.1" r="1"/><circle cx="327.5" cy="125" r="1.9"/><circle cx="316.5" cy="95.6" r="1.4"/><circle cx="284.4" cy="56" r="1.8"/><circle cx="110" cy="293.3" r="1.4"/><circle cx="342.5" cy="111.9" r="1.7"/><circle cx="354.1" cy="247.3" r="1.4"/><circle cx="293.6" cy="329.1" r="2.1"/><circle cx="303.9" cy="317.2" r="1"/><circle cx="236.6" cy="358" r="1.9"/><circle cx="274.6" cy="324.4" r="1.4"/><circle cx="324.9" cy="319" r="1.8"/><circle cx="314.1" cy="284" r="1.6"/><circle cx="310.1" cy="330.7" r="1.4"/><circle cx="251.8" cy="342.2" r="1.7"/><circle cx="227.8" cy="376.5" r="1.4"/><circle cx="147.6" cy="337.5" r="2.1"/><circle cx="131.9" cy="338.1" r="1"/><circle cx="203.8" cy="333" r="1.9"/><circle cx="159.5" cy="352.3" r="1.4"/><circle cx="118.8" cy="321.6" r="1.8"/><circle cx="81.8" cy="270" r="3"/><circle cx="145.1" cy="321.4" r="1.4"/><circle cx="179.6" cy="345.6" r="1.4"/><circle cx="59.3" cy="233.5" r="2.1"/><circle cx="56.9" cy="218.4" r="1"/><circle cx="55" cy="297.1" r="1.9"/><circle cx="335.2" cy="265.2" r="1.8"/><circle cx="75.1" cy="251.6" r="1.6"/><circle cx="210.6" cy="70.1" r="1.4"/><circle cx="49.9" cy="275.8" r="1.7"/><circle cx="61.4" cy="266.6" r="1.4"/><path d="M317.1,166.9a26,26,0,0,1-10.6,4.4l-1.9-2a21.3,21.3,0,0,0,5.1-1.4,32.1,32.1,0,0,0,4.5-2.4c3.7-2.4,5.6-5.1,5.6-8.2,0-6-4.6-11-13.7-15a54,54,0,0,0-21.1-4.6c-7.2,0-16.2,2.3-27.1,7l4.4,5.3,5,5.9c3.5,5.1,5.2,10.2,5.2,15.4a27.9,27.9,0,0,1-7.2,19.4,58.5,58.5,0,0,1-6.6,6.1,82.3,82.3,0,0,1-10,6.7c6.2,7.9,9.3,18.1,9.3,30.8,6.8-2.4,13.8-6.9,20.9-13.4l1.5,1.6a84.3,84.3,0,0,1-23.6,15.2,49.4,49.4,0,0,1-19.5,24.9,52.9,52.9,0,0,1-14.3,6.5,53.6,53.6,0,0,1-16,2c-8.8-.3-13.1-3.4-13.1-9.4q0-12.6,17.4-18.6a81.1,81.1,0,0,1,26.1-4c4.3-4,6.4-11.4,6.4-22.2a66.3,66.3,0,0,0-1.2-12.2l-2.2.3h-2.8a9.4,9.4,0,0,1-5.1-1.7,4.9,4.9,0,0,1-2.6-4.1c0-2.9,2.1-4.4,6.2-4.4s6.1,1.5,9.3,4.4c10.3-10,15.5-19.3,15.5-28,0-13.1-2.6-21.1-7.7-24q-7.3,3.8-21.6,24a37.9,37.9,0,0,0-4.8,9.5c-1.5,4.1-3.2,9.1-4.8,15.1-3.5,12.3-6.7,20.9-9.7,25.8-10.4,16.8-21.3,28.9-32.5,36.4q-20.1,13-49.7,13c-16.8,0-30.5-5.1-41.2-15.2s-16.2-23.7-16.2-40.8q0-28.8,20.1-50.8t48.3-22c7,0,14.9,1.9,24,5.8q15.9-9.4,18.9-10.8c8.5-3.5,18.9-5.2,31.3-5.2,9.8,0,18.2,1.3,25.1,4l5.8,2.6,8.1,3.8c2.1-.7,4.1-1.4,6-2.2l5.8-2.4a64.4,64.4,0,0,1,18.9-2.6,58.1,58.1,0,0,1,23,5.2q14.7,6.6,14.7,16.8C322.7,160.9,320.8,164.1,317.1,166.9ZM215,134.1c-10.8,0-20.1,1.4-27.8,4.2-5.8,2.1-12.6,5.9-20.5,11.4q27.6,17.9,27.6,46c0,.1-.1.8-.3,1.9s-.4,2.8-.7,5.1l3.9-6.8a16,16,0,0,0,2.1-7.2c.1-2.8-1.2-7.3-4.1-13.4l2.1-.6,2,3.8c.5.8.7,1.3.9,1.4a23.1,23.1,0,0,1,1.5,8.6c.1,6.3-3.4,13.1-10.4,20.4a46.8,46.8,0,0,1-5.7,11.4,42.1,42.1,0,0,1-8.3,9,39.3,39.3,0,0,1-10.3,5.9,33.3,33.3,0,0,1-11.8,2.1v-2.8c4.4.7,9.6-.7,15.7-4a30.7,30.7,0,0,0,15.7-18.4c-6.1,2-10.6,3-13.7,3-8.6,0-15.5-3.1-20.7-9.2s-7.2-13.1-7.2-22.2a38.5,38.5,0,0,1,7.3-22.8q1.5-2,10.2-10.8a43.2,43.2,0,0,0-21.8-5.8c-17.7,0-33.1,7.2-46.4,21.6s-19.9,30.7-19.9,49.2c0,16.4,5.3,29.5,16,39.4s23.3,14,39.2,14c8.4,0,17.1-2.5,26.3-7.4a88.5,88.5,0,0,0,21.9-17.3,93.7,93.7,0,0,0,16.7-26.1,56.5,56.5,0,0,0,2.1-5.5c1.2-3.1,2.8-7.6,5-13.5a105.4,105.4,0,0,1,19.1-32c8.9-10.3,18.7-17.6,29.4-22A61,61,0,0,0,215,134.1Zm-50,17c-3,2.9-5.5,5.6-7.5,7.9a37.3,37.3,0,0,0-4.6,6.1,34.6,34.6,0,0,0-5.4,18.8c0,8.4,2.3,15.3,6.8,20.6s10.8,8,18.9,8a22.7,22.7,0,0,0,16.2-6.6c1.9-4.5,2.9-7.9,2.9-10.2Q192.1,166.8,165,151.1Zm45.8,94.8c-9.7,3.5-14.5,8.7-14.5,15.8,0,3.7,2.7,5.7,8.1,5.8,7.3.3,14.8-3.7,22.4-11.8l10.1-13.6A77,77,0,0,0,210.8,245.9Zm25.3-48.4c-1.5,0-2.3.6-2.3,1.8s1.3,2.8,3.9,2.8a14.1,14.1,0,0,0,4.4-.8C240,198.8,238,197.5,236.1,197.5Z"/></svg>