<svg id="Layer_1" data-name="Layer 1" xmlns="http://www.w3.org/2000/svg" viewBox="0 0 406 408"><title>dots_B_bw_clearSpace5</title><path d="M199.8,61.7A141.7,141.7,0,1,1,99.6,103.2,141.2,141.2,0,0,1,199.8,61.7m0-.1a142,142,0,1,0,142,142,142,142,0,0,0-142-142Z"/><path d="M200.4,68c39.2,0,76.1,14.6,103.9,41.1s42.9,61.7,42.9,99.2S332,281,304.3,307.5s-64.7,41.1-103.9,41.1S124.3,334,96.5,307.5s-43-61.6-43-99.1,15.3-72.7,43-99.2A149.8,149.8,0,0,1,200.4,68m0-1.4c-81.9,0-148.3,63.5-148.3,141.8s66.4,141.8,148.3,141.8,148.3-63.5,148.3-141.8S282.3,66.6,200.4,66.6Z"/><path d="M201.2,56.5A143.3,143.3,0,0,1,302.6,98.1a140.9,140.9,0,0,1,0,200.5,144.3,144.3,0,0,1-202.7,0,140.6,140.6,0,0,1,0-200.5A143.2,143.2,0,0,1,201.2,56.5m0-.4c-79.4,0-143.7,63.7-143.7,142.3s64.4,142.3,143.7,142.3S345,277,345,198.5,280.7,56.1,201.2,56.1Z"/><path d="M207.4,58.7a144.4,144.4,0,0,1,101,40.6c27,26.3,41.9,61.1,41.9,98.1s-14.9,71.9-41.9,98.1a145.9,145.9,0,0,1-202,0c-27-26.2-41.9-61.1-41.9-98.1s14.9-71.8,41.9-98.1a144,144,0,0,1,101-40.6m0-1.9c-80,0-144.8,63-144.8,140.7s64.9,140.7,144.8,140.7,144.9-63,144.9-140.8S287.4,56.8,207.4,56.8Z"/><circle cx="79.6" cy="273.4" r="5.6"/><circle cx="77.9" cy="293.8" r="3.2"/><circle cx="100.4" cy="287.9" r="1.6"/><circle cx="230.8" cy="341.5" r="2.8"/><circle cx="259.9" cy="335.3" r="3.4"/><circle cx="153.9" cy="79.6" r="5.6"/><circle cx="72.8" cy="129.3" r="3.2"/><circle cx="89.2" cy="112.8" r="1.6"/><circle cx="108.7" cy="103.4" r="5.4"/><circle cx="126.8" cy="76.3" r="3.4"/><circle cx="343.6" cy="133.2" r="7.7"/><circle cx="52.9" cy="253.2" r="7.7"/><circle cx="295.2" cy="77.2" r="7.7"/><circle cx="322.1" cy="109.7" r="1.6"/><circle cx="301.9" cy="100.5" r="2.8"/><circle cx="308.3" cy="117.2" r="3.4"/><circle cx="237.4" cy="328.3" r="5.6"/><circle cx="332.4" cy="287.6" r="8"/><circle cx="248.4" cy="58.1" r="5.6"/><circle cx="104.6" cy="89.4" r="8.7"/><circle cx="279" cy="311.2" r="5.6"/><circle cx="197.1" cy="355.2" r="5.6"/><circle cx="167.5" cy="326" r="5.6"/><circle cx="105.2" cy="317.2" r="5.6"/><circle cx="338.7" cy="189" r="3.2"/><circle cx="337.1" cy="212.2" r="1.6"/><circle cx="332.9" cy="233" r="5.5"/><circle cx="356" cy="208.4" r="4.8"/><circle cx="339.8" cy="262.2" r="3.4"/><circle cx="164.7" cy="335.3" r="3.4"/><circle cx="112.3" cy="311.8" r="3.4"/><circle cx="254.9" cy="73.1" r="3.4"/><circle cx="339.8" cy="155.1" r="3.4"/><circle cx="251.3" cy="81.7" r="5.6"/><circle cx="48.5" cy="184.3" r="5.6"/><circle cx="228.9" cy="55.7" r="3.2"/><circle cx="206.5" cy="38.9" r="1.6"/><circle cx="206.5" cy="64.1" r="2.8"/><circle cx="180" cy="71.1" r="3.4"/><circle cx="78.6" cy="147.5" r="5.6"/><circle cx="63.1" cy="151.2" r="3.2"/><circle cx="60.9" cy="174.5" r="1.6"/><circle cx="68" cy="183.7" r="2.8"/><circle cx="49.3" cy="219.3" r="3.4"/><circle cx="357.1" cy="167.3" r="2.5"/><circle cx="340" cy="236.7" r="3"/><circle cx="93.9" cy="297" r="2"/><circle cx="242.4" cy="64.8" r="0.8"/><circle cx="91.7" cy="136.4" r="0.6"/><circle cx="215.7" cy="60" r="0.7"/><circle cx="108.7" cy="327.2" r="0.9"/><circle cx="107.8" cy="306.4" r="1.7"/><circle cx="174.3" cy="344.3" r="1.3"/><circle cx="229.7" cy="76.5" r="0.7"/><circle cx="70.8" cy="108.7" r="0.6"/><circle cx="241" cy="82.3" r="0.6"/><circle cx="120.8" cy="334.4" r="0.7"/><circle cx="185.8" cy="327.2" r="0.7"/><circle cx="82" cy="251.1" r="0.6"/><circle cx="94.5" cy="265.9" r="0.6"/><circle cx="81.4" cy="134.4" r="0.8"/><circle cx="49.6" cy="139.3" r="1.8"/><circle cx="44.4" cy="286.3" r="0.7"/><circle cx="68.7" cy="146" r="0.7"/><circle cx="67.5" cy="137" r="0.6"/><circle cx="80" cy="151.8" r="0.6"/><circle cx="152.6" cy="307" r="0.8"/><circle cx="259.9" cy="346.4" r="0.6"/><circle cx="126" cy="302.2" r="0.7"/><circle cx="191.7" cy="319.1" r="0.7"/><circle cx="151.2" cy="324.4" r="0.6"/><circle cx="321.6" cy="180.9" r="0.8"/><circle cx="167.2" cy="93.7" r="0.6"/><circle cx="163.7" cy="82.4" r="0.7"/><circle cx="185.2" cy="81.1" r="0.7"/><circle cx="90.3" cy="311.5" r="0.6"/><circle cx="196.6" cy="75.6" r="0.6"/><circle cx="350.6" cy="227.7" r="0.8"/><circle cx="334.7" cy="197.6" r="0.6"/><circle cx="337.1" cy="103.4" r="0.7"/><circle cx="295.7" cy="278.9" r="0.7"/><circle cx="345.5" cy="219" r="0.6"/><circle cx="349.3" cy="262.3" r="0.8"/><circle cx="334.3" cy="168" r="0.7"/><circle cx="332.1" cy="245" r="0.7"/><circle cx="342.2" cy="250" r="0.6"/><circle cx="265.5" cy="86.3" r="0.8"/><circle cx="368.4" cy="236.7" r="0.6"/><circle cx="251.3" cy="43.9" r="0.7"/><circle cx="342.9" cy="160.3" r="0.7"/><circle cx="322.2" cy="102.3" r="0.6"/><circle cx="356.8" cy="189" r="0.8"/><circle cx="274.7" cy="101.2" r="0.7"/><circle cx="314.7" cy="141.4" r="0.7"/><circle cx="103.4" cy="134.4" r="0.6"/><circle cx="318.2" cy="329" r="0.8"/><circle cx="49.1" cy="164.6" r="0.6"/><circle cx="59.6" cy="170.1" r="0.7"/><circle cx="130.2" cy="66.6" r="0.7"/><circle cx="54.2" cy="183.7" r="0.6"/><circle cx="51.2" cy="230.7" r="0.8"/><circle cx="74.4" cy="164.8" r="0.6"/><circle cx="37.7" cy="220" r="0.7"/><circle cx="49" cy="202.1" r="0.6"/><circle cx="280.1" cy="333.9" r="0.8"/><circle cx="280.8" cy="327.2" r="0.7"/><circle cx="255.8" cy="323.8" r="0.7"/><circle cx="266.1" cy="327.2" r="0.6"/><circle cx="221.1" cy="341.7" r="0.8"/><circle cx="247.8" cy="320.7" r="0.6"/><circle cx="246.6" cy="332.5" r="0.7"/><circle cx="226.3" cy="325.3" r="0.7"/><circle cx="286" cy="99.1" r="0.6"/><circle cx="122.3" cy="94.5" r="0.8"/><circle cx="123.4" cy="60.5" r="0.6"/><circle cx="77.9" cy="233" r="0.7"/><circle cx="113" cy="79.9" r="0.7"/><circle cx="104.2" cy="123.9" r="0.8"/><circle cx="105.3" cy="90" r="0.6"/><circle cx="94.9" cy="109.4" r="0.7"/><circle cx="104.1" cy="109.7" r="0.6"/><circle cx="309.4" cy="300.4" r="0.8"/><circle cx="307.4" cy="281.2" r="0.6"/><circle cx="314.5" cy="280.6" r="0.7"/><circle cx="307.4" cy="292" r="0.7"/><circle cx="322.8" cy="295.7" r="0.6"/><circle cx="293.2" cy="292.7" r="2"/><circle cx="190.7" cy="47.8" r="0.9"/><circle cx="133.2" cy="84.3" r="1.8"/><circle cx="167.9" cy="54" r="1.3"/><circle cx="91.7" cy="103" r="1.7"/><circle cx="91.8" cy="122.3" r="1.5"/><circle cx="201.6" cy="55.4" r="1.3"/><circle cx="146.9" cy="68.8" r="1.6"/><circle cx="160.3" cy="72.6" r="1.3"/><circle cx="238" cy="74" r="2"/><circle cx="174.3" cy="368" r="0.9"/><circle cx="320.1" cy="131.2" r="1.8"/><circle cx="309.7" cy="103.4" r="1.3"/><circle cx="279.3" cy="65.9" r="1.7"/><circle cx="114.1" cy="290.6" r="1.3"/><circle cx="334.3" cy="118.8" r="1.6"/><circle cx="345.3" cy="247" r="1.3"/><circle cx="288" cy="324.5" r="2"/><circle cx="297.7" cy="313.2" r="0.9"/><circle cx="234" cy="351.8" r="1.8"/><circle cx="270" cy="320" r="1.3"/><circle cx="317.6" cy="314.9" r="1.7"/><circle cx="307.4" cy="281.8" r="1.5"/><circle cx="303.6" cy="326" r="1.3"/><circle cx="248.4" cy="336.9" r="1.6"/><circle cx="225.7" cy="369.4" r="1.3"/><circle cx="149.7" cy="332.4" r="2"/><circle cx="134.9" cy="333" r="0.9"/><circle cx="203" cy="328.2" r="1.8"/><circle cx="161" cy="346.4" r="1.3"/><circle cx="122.5" cy="317.4" r="1.7"/><circle cx="87.4" cy="268.5" r="2.8"/><circle cx="147.4" cy="317.2" r="1.3"/><circle cx="180" cy="340.1" r="1.3"/><circle cx="66.1" cy="234" r="2"/><circle cx="63.9" cy="219.7" r="0.9"/><circle cx="62.1" cy="294.2" r="1.8"/><circle cx="327.4" cy="264" r="1.7"/><circle cx="81.1" cy="251.1" r="1.5"/><circle cx="209.4" cy="79.3" r="1.3"/><circle cx="57.2" cy="274" r="1.6"/><circle cx="68.1" cy="265.3" r="1.3"/><path d="M310.2,170.9a24.6,24.6,0,0,1-10,4.2l-1.8-1.9a24.2,24.2,0,0,0,4.8-1.3,43.4,43.4,0,0,0,4.3-2.3c3.5-2.3,5.3-4.8,5.3-7.8,0-5.7-4.4-10.4-13-14.2a51.5,51.5,0,0,0-20-4.3c-6.8,0-15.3,2.1-25.6,6.6l4.1,5,4.8,5.6a25.6,25.6,0,0,1,4.9,14.6,26.4,26.4,0,0,1-6.8,18.3,53.3,53.3,0,0,1-6.3,5.8,72.5,72.5,0,0,1-9.4,6.4c5.8,7.4,8.8,17.1,8.8,29.1,6.4-2.2,13-6.5,19.8-12.7l1.4,1.6a79.9,79.9,0,0,1-22.4,14.3,48.2,48.2,0,0,1-7.4,13.6,49.4,49.4,0,0,1-11,10,47.9,47.9,0,0,1-13.6,6.2,50.9,50.9,0,0,1-15.1,1.9c-8.3-.3-12.4-3.3-12.4-8.9,0-8,5.5-13.9,16.5-17.6a75.3,75.3,0,0,1,24.7-3.8c4-3.8,6-10.8,6-21.1a68.6,68.6,0,0,0-1.1-11.5l-2.1.3H235a9.2,9.2,0,0,1-4.9-1.6,4.7,4.7,0,0,1-2.4-3.9c0-2.8,2-4.2,5.8-4.2s5.8,1.4,8.8,4.2c9.8-9.5,14.7-18.3,14.7-26.5,0-12.4-2.4-20-7.3-22.7-4.6,2.3-11.4,9.9-20.4,22.7a35.6,35.6,0,0,0-4.6,9c-1.4,3.9-3,8.6-4.5,14.3-3.3,11.6-6.4,19.8-9.2,24.4-9.8,15.9-20.2,27.4-30.8,34.5-12.7,8.2-28.4,12.3-47,12.3-15.9,0-28.9-4.9-39-14.4s-15.4-22.5-15.4-38.7q0-27.1,19.1-48.1c12.7-13.9,28-20.8,45.7-20.8,6.6,0,14.1,1.8,22.7,5.5,10-6,16-9.4,17.9-10.2,8.1-3.3,17.9-4.9,29.6-4.9,9.3,0,17.3,1.2,23.8,3.7l5.5,2.5,7.7,3.6c2-.7,3.8-1.3,5.6-2.1l5.5-2.2a58.2,58.2,0,0,1,17.9-2.5,55.5,55.5,0,0,1,21.8,4.9c9.3,4.2,13.9,9.5,13.9,15.9C315.5,165.2,313.7,168.3,310.2,170.9Zm-96.6-31q-15.4,0-26.4,3.9c-5.5,2-11.9,5.6-19.4,10.8,17.4,11.3,26.2,25.8,26.2,43.6q0,.2-.3,1.8c-.2,1-.4,2.6-.7,4.8l3.7-6.4a16,16,0,0,0,2-6.9c.1-2.6-1.1-6.9-3.9-12.6l2-.6c.9,1.6,1.5,2.8,1.9,3.6s.7,1.2.8,1.3a21,21,0,0,1,1.5,8.2c.1,5.9-3.3,12.4-9.9,19.3A42.5,42.5,0,0,1,177.9,230a40,40,0,0,1-9.8,5.6,32.2,32.2,0,0,1-11.2,2v-2.7c4.2.7,9.1-.7,14.9-3.8a29.1,29.1,0,0,0,14.9-17.4c-5.8,1.9-10.1,2.8-13,2.8-8.1,0-14.7-2.9-19.6-8.7s-6.8-12.4-6.8-21a37,37,0,0,1,6.9-21.6c.9-1.2,4.2-4.6,9.7-10.2a41.1,41.1,0,0,0-20.7-5.5q-25,0-43.9,20.5T80.4,216.5c0,15.6,5.1,28,15.2,37.3s22,13.3,37.1,13.3c8,0,16.2-2.4,24.9-7a83.7,83.7,0,0,0,20.7-16.4A85.3,85.3,0,0,0,194.1,219a44.2,44.2,0,0,0,2-5.2c1.2-2.9,2.7-7.2,4.8-12.8A97.6,97.6,0,0,1,219,170.7c8.4-9.7,17.7-16.6,27.8-20.8A57.9,57.9,0,0,0,213.6,139.9ZM166.2,156c-2.8,2.7-5.2,5.3-7.1,7.4a32.7,32.7,0,0,0-4.3,5.8,33,33,0,0,0-5.2,17.8c0,8,2.2,14.5,6.5,19.5s10.2,7.6,17.9,7.6a21.2,21.2,0,0,0,15.3-6.3c1.8-4.2,2.8-7.4,2.8-9.6Q192,170.8,166.2,156Zm43.4,89.7c-9.2,3.3-13.7,8.2-13.7,15,0,3.5,2.5,5.4,7.6,5.5,6.9.2,14-3.5,21.2-11.2l9.6-12.9A71.6,71.6,0,0,0,209.6,245.7Zm23.9-45.8c-1.4,0-2.1.5-2.1,1.7s1.2,2.6,3.6,2.6a12.3,12.3,0,0,0,4.2-.7Q236.2,199.9,233.5,199.9Z"/></svg>