<svg id="Layer_1" data-name="Layer 1" xmlns="http://www.w3.org/2000/svg" viewBox="0 0 406 408"><title>dots_B_bw_clearSpace3</title><path d="M199.7,56.8A146.5,146.5,0,1,1,96,99.7,146.4,146.4,0,0,1,199.7,56.8m0-.2a147,147,0,0,0,0,293.9c81.1,0,147-65.7,147-146.9a147,147,0,0,0-147-147Z"/><path d="M200.3,63.3c40.6,0,78.8,15,107.5,42.5s44.5,63.9,44.5,102.7-15.8,75.2-44.5,102.6-66.9,42.6-107.5,42.6-78.8-15.1-107.5-42.6S48.3,247.4,48.3,208.6s15.8-75.3,44.5-102.7,66.9-42.6,107.5-42.6m0-1.5c-84.7,0-153.4,65.7-153.4,146.8s68.7,146.7,153.4,146.7,153.4-65.7,153.4-146.7S285.1,61.8,200.3,61.8Z"/><path d="M201.2,51.4A148.1,148.1,0,0,1,306,94.4a145.7,145.7,0,0,1,0,207.5,149.2,149.2,0,0,1-209.6,0,145.5,145.5,0,0,1,0-207.5,148.1,148.1,0,0,1,104.8-43m0-.5c-82.2,0-148.7,66-148.7,147.3s66.6,147.2,148.7,147.2,148.7-65.8,148.7-147.1S283.4,50.9,201.2,50.9Z"/><path d="M207.6,53.7a149.2,149.2,0,0,1,104.5,42c27.9,27.1,43.3,63.2,43.3,101.5S340,271.6,312.1,298.7a151.1,151.1,0,0,1-209.1,0c-27.9-27.1-43.3-63.2-43.3-101.5S75.1,122.8,103,95.7s65.1-42,104.6-42m0-2c-82.8,0-149.8,65.2-149.8,145.6s67.1,145.6,149.8,145.6,149.9-65.3,149.9-145.7S290.3,51.7,207.6,51.7Z"/><circle cx="75.3" cy="275.8" r="5.8"/><circle cx="73.5" cy="296.9" r="3.3"/><circle cx="96.8" cy="290.9" r="1.7"/><circle cx="231.8" cy="346.3" r="2.9"/><circle cx="261.8" cy="339.8" r="3.5"/><circle cx="152.2" cy="75.3" r="5.8"/><circle cx="68.2" cy="126.7" r="3.3"/><circle cx="85.3" cy="109.6" r="1.7"/><circle cx="105.5" cy="99.9" r="5.6"/><circle cx="124.2" cy="71.9" r="3.5"/><circle cx="348.4" cy="130.8" r="7.9"/><circle cx="47.7" cy="254.9" r="7.9"/><circle cx="298.4" cy="72.8" r="7.9"/><circle cx="326.2" cy="106.5" r="1.7"/><circle cx="305.3" cy="96.9" r="2.9"/><circle cx="312" cy="114.2" r="3.5"/><circle cx="238.6" cy="332.6" r="5.8"/><circle cx="336.9" cy="290.6" r="8.3"/><circle cx="250" cy="53" r="5.8"/><circle cx="101.2" cy="85.4" r="9"/><circle cx="281.6" cy="315" r="5.8"/><circle cx="196.9" cy="360.5" r="5.8"/><circle cx="166.3" cy="330.2" r="5.8"/><circle cx="101.8" cy="321.1" r="5.8"/><circle cx="343.4" cy="188.5" r="3.3"/><circle cx="341.8" cy="212.5" r="1.7"/><circle cx="337.4" cy="234" r="5.7"/><circle cx="361.4" cy="208.6" r="5"/><circle cx="344.5" cy="264.2" r="3.5"/><circle cx="163.4" cy="339.8" r="3.5"/><circle cx="109.2" cy="315.5" r="3.5"/><circle cx="256.7" cy="68.6" r="3.5"/><circle cx="344.5" cy="153.4" r="3.5"/><circle cx="253" cy="77.5" r="5.8"/><circle cx="43.2" cy="183.6" r="5.8"/><circle cx="229.8" cy="50.5" r="3.3"/><circle cx="206.6" cy="33.2" r="1.7"/><circle cx="206.6" cy="59.2" r="2.9"/><circle cx="179.2" cy="66.5" r="3.5"/><circle cx="74.3" cy="145.6" r="5.8"/><circle cx="58.2" cy="149.4" r="3.3"/><circle cx="56" cy="173.5" r="1.7"/><circle cx="63.3" cy="183" r="2.9"/><circle cx="43.9" cy="219.8" r="3.5"/><circle cx="362.5" cy="166" r="2.5"/><circle cx="344.7" cy="237.9" r="3.1"/><circle cx="90.1" cy="300.3" r="2.1"/><circle cx="243.8" cy="59.9" r="0.8"/><circle cx="87.8" cy="134.1" r="0.6"/><circle cx="216.2" cy="55" r="0.7"/><circle cx="105.5" cy="331.5" r="1"/><circle cx="104.5" cy="310" r="1.8"/><circle cx="173.3" cy="349.1" r="1.4"/><circle cx="230.7" cy="72.1" r="0.7"/><circle cx="66.2" cy="105.4" r="0.6"/><circle cx="242.3" cy="78.1" r="0.6"/><circle cx="117.9" cy="339" r="0.7"/><circle cx="185.2" cy="331.5" r="0.7"/><circle cx="77.8" cy="252.7" r="0.6"/><circle cx="90.8" cy="268" r="0.6"/><circle cx="77.2" cy="131.9" r="0.8"/><circle cx="44.2" cy="137" r="1.9"/><circle cx="38.8" cy="289.2" r="0.7"/><circle cx="64" cy="144" r="0.7"/><circle cx="62.7" cy="134.7" r="0.6"/><circle cx="75.7" cy="150" r="0.6"/><circle cx="150.8" cy="310.5" r="0.8"/><circle cx="261.8" cy="351.4" r="0.6"/><circle cx="123.3" cy="305.6" r="0.7"/><circle cx="191.3" cy="323.1" r="0.7"/><circle cx="149.4" cy="328.6" r="0.6"/><circle cx="325.7" cy="180" r="0.8"/><circle cx="165.9" cy="89.9" r="0.6"/><circle cx="162.3" cy="78.2" r="0.7"/><circle cx="184.5" cy="76.8" r="0.7"/><circle cx="86.4" cy="315.2" r="0.6"/><circle cx="196.4" cy="71.1" r="0.6"/><circle cx="355.7" cy="228.5" r="0.8"/><circle cx="339.3" cy="197.4" r="0.6"/><circle cx="341.8" cy="99.9" r="0.7"/><circle cx="299" cy="281.5" r="0.7"/><circle cx="350.5" cy="219.5" r="0.6"/><circle cx="354.4" cy="264.3" r="0.8"/><circle cx="338.8" cy="166.7" r="0.7"/><circle cx="336.6" cy="246.5" r="0.7"/><circle cx="347.1" cy="251.6" r="0.6"/><circle cx="267.7" cy="82.2" r="0.8"/><circle cx="374.1" cy="237.9" r="0.6"/><circle cx="253" cy="38.3" r="0.7"/><circle cx="347.8" cy="158.8" r="0.7"/><circle cx="326.3" cy="98.7" r="0.6"/><circle cx="362.2" cy="188.5" r="0.8"/><circle cx="277.2" cy="97.6" r="0.7"/><circle cx="318.6" cy="139.2" r="0.7"/><circle cx="99.9" cy="131.9" r="0.6"/><circle cx="322.2" cy="333.4" r="0.8"/><circle cx="43.7" cy="163.2" r="0.6"/><circle cx="54.6" cy="168.9" r="0.7"/><circle cx="127.7" cy="61.8" r="0.7"/><circle cx="49" cy="183" r="0.6"/><circle cx="45.9" cy="231.7" r="0.8"/><circle cx="69.9" cy="163.4" r="0.6"/><circle cx="32" cy="220.5" r="0.7"/><circle cx="43.6" cy="202" r="0.6"/><circle cx="282.8" cy="338.5" r="0.8"/><circle cx="283.5" cy="331.5" r="0.7"/><circle cx="257.6" cy="328" r="0.7"/><circle cx="268.3" cy="331.5" r="0.6"/><circle cx="221.8" cy="346.5" r="0.8"/><circle cx="249.4" cy="324.8" r="0.6"/><circle cx="248.1" cy="337" r="0.7"/><circle cx="227.2" cy="329.6" r="0.7"/><circle cx="288.9" cy="95.5" r="0.6"/><circle cx="119.5" cy="90.7" r="0.8"/><circle cx="120.7" cy="55.5" r="0.6"/><circle cx="73.5" cy="234" r="0.7"/><circle cx="109.9" cy="75.6" r="0.7"/><circle cx="100.8" cy="121.2" r="0.8"/><circle cx="101.9" cy="86" r="0.6"/><circle cx="91.2" cy="106.1" r="0.7"/><circle cx="100.7" cy="106.5" r="0.6"/><circle cx="313.1" cy="303.8" r="0.8"/><circle cx="311" cy="283.9" r="0.6"/><circle cx="318.4" cy="283.3" r="0.7"/><circle cx="311" cy="295.1" r="0.7"/><circle cx="327" cy="298.9" r="0.6"/><circle cx="296.3" cy="295.8" r="2.1"/><circle cx="190.3" cy="42.4" r="1"/><circle cx="130.7" cy="80.1" r="1.9"/><circle cx="166.7" cy="48.8" r="1.4"/><circle cx="87.8" cy="99.5" r="1.8"/><circle cx="87.9" cy="119.5" r="1.6"/><circle cx="201.6" cy="50.2" r="1.4"/><circle cx="145" cy="64" r="1.7"/><circle cx="158.9" cy="68.1" r="1.4"/><circle cx="239.2" cy="69.4" r="2.1"/><circle cx="173.3" cy="373.7" r="1"/><circle cx="324.1" cy="128.7" r="1.9"/><circle cx="313.4" cy="99.9" r="1.4"/><circle cx="281.9" cy="61.1" r="1.8"/><circle cx="111.1" cy="293.6" r="1.4"/><circle cx="338.8" cy="115.9" r="1.7"/><circle cx="350.2" cy="248.5" r="1.4"/><circle cx="290.9" cy="328.7" r="2.1"/><circle cx="301" cy="317" r="1"/><circle cx="235.1" cy="357" r="1.9"/><circle cx="272.3" cy="324.1" r="1.4"/><circle cx="321.6" cy="318.8" r="1.8"/><circle cx="311" cy="284.5" r="1.6"/><circle cx="307.1" cy="330.2" r="1.4"/><circle cx="250" cy="341.5" r="1.7"/><circle cx="226.5" cy="375.1" r="1.4"/><circle cx="147.9" cy="336.9" r="2.1"/><circle cx="132.5" cy="337.5" r="1"/><circle cx="203" cy="332.5" r="1.9"/><circle cx="159.5" cy="351.4" r="1.4"/><circle cx="119.7" cy="321.3" r="1.8"/><circle cx="83.4" cy="270.8" r="2.9"/><circle cx="145.4" cy="321.1" r="1.4"/><circle cx="179.2" cy="344.8" r="1.4"/><circle cx="61.4" cy="235" r="2.1"/><circle cx="59" cy="220.2" r="1"/><circle cx="57.2" cy="297.3" r="1.9"/><circle cx="331.7" cy="266.1" r="1.8"/><circle cx="76.9" cy="252.7" r="1.6"/><circle cx="209.6" cy="74.9" r="1.4"/><circle cx="52.2" cy="276.5" r="1.7"/><circle cx="63.4" cy="267.4" r="1.4"/><path d="M314,169.8a27.1,27.1,0,0,1-10.4,4.3l-1.9-2a20.5,20.5,0,0,0,5-1.4,23,23,0,0,0,4.4-2.3c3.6-2.4,5.5-5,5.5-8,0-5.9-4.5-10.8-13.4-14.7a52.2,52.2,0,0,0-20.7-4.6c-7,0-15.9,2.3-26.5,6.9,1.3,1.7,2.8,3.4,4.3,5.2s3.1,3.7,4.9,5.8c3.4,5,5.1,10,5.1,15.1a27.5,27.5,0,0,1-7.1,19,67.4,67.4,0,0,1-6.5,6,72.3,72.3,0,0,1-9.8,6.5c6.1,7.8,9.2,17.7,9.2,30.2,6.6-2.4,13.5-6.8,20.4-13.1l1.5,1.5a82.3,82.3,0,0,1-23.1,14.9,49,49,0,0,1-7.8,14,48.4,48.4,0,0,1-11.3,10.4,50.8,50.8,0,0,1-14,6.4,51.6,51.6,0,0,1-15.7,1.9c-8.6-.2-12.8-3.3-12.8-9.2,0-8.2,5.6-14.3,17-18.2a80.8,80.8,0,0,1,25.6-3.9c4.2-3.9,6.2-11.2,6.2-21.8a72.2,72.2,0,0,0-1.1-11.9l-2.2.3h-2.7a8.8,8.8,0,0,1-5-1.7c-1.7-1.1-2.6-2.4-2.6-4s2.1-4.3,6.1-4.3,6,1.5,9.1,4.3c10.1-9.8,15.2-18.9,15.2-27.4,0-12.9-2.6-20.7-7.5-23.5-4.9,2.4-11.9,10.2-21.2,23.5a36.3,36.3,0,0,0-4.7,9.3,138.8,138.8,0,0,0-4.7,14.8c-3.4,12-6.6,20.4-9.5,25.2-10.2,16.5-20.9,28.4-31.9,35.7-13.1,8.5-29.4,12.7-48.7,12.7-16.4,0-29.8-4.9-40.3-14.8s-15.9-23.3-15.9-40q0-28.2,19.7-49.8c13.2-14.4,29-21.5,47.3-21.5,6.9,0,14.6,1.8,23.5,5.6,10.4-6.1,16.6-9.7,18.6-10.5,8.3-3.5,18.5-5.1,30.6-5.1,9.6,0,17.8,1.2,24.6,3.9l5.7,2.5,7.9,3.8,5.9-2.2,5.7-2.4a65.2,65.2,0,0,1,18.5-2.5,57,57,0,0,1,22.5,5.1q14.4,6.4,14.4,16.5C319.4,163.9,317.6,167,314,169.8ZM213.9,137.6c-10.6,0-19.7,1.4-27.2,4.1-5.7,2.1-12.4,5.8-20.1,11.2q27,17.5,27,45.1c0,.1-.1.8-.3,1.8s-.3,2.8-.6,5l3.8-6.6a15.6,15.6,0,0,0,2-7.1c.1-2.7-1.1-7.1-4-13.1l2.1-.6c.9,1.7,1.6,2.9,1.9,3.7s.7,1.3.9,1.4a22.1,22.1,0,0,1,1.5,8.4c.1,6.2-3.3,12.9-10.2,20a47,47,0,0,1-5.6,11.2,42.6,42.6,0,0,1-8.1,8.8,40.7,40.7,0,0,1-10.1,5.8,34.1,34.1,0,0,1-11.6,2V236c4.3.7,9.4-.7,15.4-3.9A29.6,29.6,0,0,0,186.1,214c-6,2-10.4,3-13.4,3-8.4,0-15.2-3.1-20.3-9s-7.1-12.9-7.1-21.8a37.6,37.6,0,0,1,7.2-22.3c1-1.3,4.3-4.8,10-10.6a42.6,42.6,0,0,0-21.4-5.7q-25.9,0-45.4,21.2c-13.1,14-19.5,30.1-19.5,48.2,0,16,5.2,28.9,15.6,38.6s22.9,13.7,38.5,13.7c8.2,0,16.7-2.4,25.7-7.3a84.9,84.9,0,0,0,21.5-16.9,93.7,93.7,0,0,0,16.3-25.6,49.9,49.9,0,0,0,2.1-5.4c1.2-3,2.7-7.4,4.9-13.2a104.1,104.1,0,0,1,18.7-31.3q13-15.2,28.8-21.6A60.1,60.1,0,0,0,213.9,137.6Zm-49,16.7c-2.9,2.8-5.4,5.5-7.3,7.7a35.7,35.7,0,0,0-4.5,6,34.3,34.3,0,0,0-5.3,18.4c0,8.2,2.2,15,6.7,20.2s10.5,7.8,18.5,7.8a22.1,22.1,0,0,0,15.8-6.4c1.9-4.4,2.9-7.8,2.9-10Q191.6,169.6,164.9,154.3Zm44.9,92.9c-9.5,3.4-14.2,8.5-14.2,15.4,0,3.7,2.6,5.6,7.9,5.7,7.2.3,14.5-3.6,22-11.5l9.9-13.4A74.4,74.4,0,0,0,209.8,247.2Zm24.8-47.5c-1.5,0-2.3.6-2.3,1.8s1.3,2.7,3.9,2.7a13.8,13.8,0,0,0,4.3-.7C238.4,201,236.5,199.7,234.6,199.7Z"/></svg>