<svg id="Layer_1" data-name="Layer 1" xmlns="http://www.w3.org/2000/svg" viewBox="0 0 812 408"><defs><style>.cls-1{isolation:isolate;}</style></defs><title>fontLogo</title><g class="cls-1"><path d="M204.6,164.1a18.2,18.2,0,0,1-7.4,2.9l-1.3-1.3a14,14,0,0,0,3.5-1,13.7,13.7,0,0,0,3.2-1.6c2.5-1.6,3.8-3.4,3.8-5.4,0-4-3.1-7.4-9.4-10a38,38,0,0,0-14.6-3.1c-4.9,0-11.2,1.6-18.6,4.7l3,3.5,3.5,3.9a17.7,17.7,0,0,1,3.6,10.3,18.1,18.1,0,0,1-4.9,12.9,39.8,39.8,0,0,1-4.6,4.1,41.3,41.3,0,0,1-6.9,4.5c4.3,5.2,6.4,12.1,6.4,20.5,4.7-1.6,9.5-4.6,14.4-8.9l1.1,1a58.8,58.8,0,0,1-16.3,10.2,33.3,33.3,0,0,1-5.5,9.5,31.9,31.9,0,0,1-8,7.1,37,37,0,0,1-20.9,5.6c-6-.1-9.1-2.2-9.1-6.2,0-5.6,4-9.8,12-12.4a57.6,57.6,0,0,1,18-2.7c3-2.7,4.4-7.6,4.4-14.8a38.3,38.3,0,0,0-.8-8.1l-1.5.2h-1.9a6.3,6.3,0,0,1-3.6-1.1,3.3,3.3,0,0,1-1.8-2.7c0-2,1.5-3,4.3-3s4.2,1,6.4,3c7.1-6.7,10.7-12.9,10.7-18.7,0-8.7-1.8-14-5.4-16-3.3,1.7-8.3,7-14.9,16a22.9,22.9,0,0,0-3.3,6.3c-1.1,2.7-2.2,6.1-3.4,10.1-2.4,8.2-4.6,13.9-6.6,17.2-7.2,11.2-14.7,19.3-22.4,24.3-9.3,5.7-20.7,8.6-34.3,8.6-11.5,0-21-3.3-28.4-10.1s-11.2-15.8-11.2-27.2,4.6-24.1,13.9-33.9,20.4-14.6,33.3-14.6c4.8,0,10.3,1.3,16.5,3.8l13.1-7.2c5.9-2.3,13.1-3.4,21.6-3.4a51.7,51.7,0,0,1,17.3,2.6l4,1.8,5.6,2.5a29.9,29.9,0,0,0,4.2-1.5l4-1.6a46.6,46.6,0,0,1,13-1.7,42,42,0,0,1,15.9,3.5c6.8,2.9,10.1,6.6,10.1,11.2C208.4,160.1,207.1,162.2,204.6,164.1Zm-70.4-21.9c-7.5,0-13.9.9-19.2,2.8s-8.7,4-14.2,7.6c12.7,7.9,19.1,18.1,19.1,30.7,0,.1-.1.5-.2,1.2s-.3,1.9-.5,3.4l2.7-4.5a11.3,11.3,0,0,0,1.5-4.8c.1-1.9-.9-4.8-2.8-8.9l1.4-.4c.7,1.1,1.1,2,1.4,2.5l.6.9a15,15,0,0,1,1.1,5.8c.1,4.1-2.3,8.7-7.2,13.6a34.1,34.1,0,0,1-3.9,7.6,30,30,0,0,1-5.8,6,23.4,23.4,0,0,1-7.1,3.9A24.6,24.6,0,0,1,93,211v-1.9c3,.5,6.6-.4,10.8-2.6a21,21,0,0,0,10.8-12.3c-4.2,1.3-7.4,2-9.5,2-5.9,0-10.7-2-14.3-6.1a22.6,22.6,0,0,1-4.9-14.8A25.1,25.1,0,0,1,91,160.1c.7-.9,3-3.3,7-7.2A30.5,30.5,0,0,0,83,149c-12.2,0-22.9,4.8-32,14.4s-13.8,20.4-13.8,32.8,3.7,19.7,11.1,26.3,16.1,9.3,27.1,9.3a38.8,38.8,0,0,0,18.1-4.9,61.2,61.2,0,0,0,26.7-29l1.4-3.6,3.5-9a67.1,67.1,0,0,1,13.2-21.4,53.8,53.8,0,0,1,20.3-14.6A44.6,44.6,0,0,0,134.2,142.2ZM99.6,153.5l-5.2,5.3a39.4,39.4,0,0,0-3.2,4.1,23.1,23.1,0,0,0-3.7,12.5c0,5.6,1.6,10.2,4.7,13.7s7.4,5.4,13,5.4a16.1,16.1,0,0,0,11.2-4.4c1.4-3.1,2-5.3,2-6.8C118.4,170.4,112.2,160.5,99.6,153.5Zm31.6,63.2c-6.6,2.3-10,5.9-10,10.6,0,2.5,1.9,3.7,5.6,3.8s10.3-2.4,15.5-7.8l6.9-9.1A57.6,57.6,0,0,0,131.2,216.7Zm17.5-32.2c-1.1,0-1.6.4-1.6,1.2s.9,1.8,2.7,1.8a8.2,8.2,0,0,0,3-.5C151.4,185.3,150,184.5,148.7,184.5Z"/><path d="M212.3,213.4l-6,2a44.5,44.5,0,0,1-9.7,10.4c-5.7,4.2-11.3,6.3-16.7,6.3a8.1,8.1,0,0,1-4.1-1.1,13.5,13.5,0,0,1-3.2-2.7,12.2,12.2,0,0,1-2.1-3.9,14.3,14.3,0,0,1-.7-4.6q0-11.4,9.3-20.4c6.2-6.1,13.2-9.2,20.8-9.2a9.5,9.5,0,0,1,7.9,3.7,14.3,14.3,0,0,1,2.9,8.8,16.3,16.3,0,0,1-1.2,6.2,17.8,17.8,0,0,0-.8,1.8l-1.2,2.7a16,16,0,0,0,4-1.5,43.5,43.5,0,0,0,7.9-4.6,82.7,82.7,0,0,0,8.2-7.1l1.1.9C225.7,204.9,220.2,209,212.3,213.4Zm-12.8-21.6c-4.2,0-9,4.7-14.4,14s-7.7,15.4-7.7,20.1c0,3,.8,4.4,2.5,4.4,4.6,0,10.1-5.3,16.5-16-4.9-1.6-7.3-3.7-7.3-6.5s1.4-4.3,4.1-4.3a2.5,2.5,0,0,1,2.8,2.8q0,2.3-3.6,2.7c.7,2.2,2.3,3.6,5.1,4,3.5-7.3,5.2-13.2,5.2-17.9C202.7,192.9,201.6,191.8,199.5,191.8Z"/><path d="M274.2,207.8l-14.7,16.4c-5,5.3-9.5,8-13.5,8s-7.4-2.7-7.7-8c-.2-2.3.7-5,2.8-8.1l11.1-17c1.2-1.9,1.8-3.3,1.8-4s-.6-1.2-2-1.2c-3.4,0-7.9,3.1-13.3,9.4-2,2.3-3.7,4.6-5.3,6.8s-3.2,4.6-4.6,6.9-1.4,2.7-2,4l-2.1,3.9c-2.4,4-4.2,6-5.3,6a7.8,7.8,0,0,1-2.6-.6,12.6,12.6,0,0,0-2.4-.5c-.7,0-2.3,1.3-4.9,3.9l20.4-39.1c1.1-2.1,2.5-3.2,4-3.2a9.2,9.2,0,0,1,2.5.5,6.6,6.6,0,0,0,2.2.6c.3,0,1.1-.6,2.2-1.8a10.5,10.5,0,0,1,2.7-2.1l-6.8,12.8c8.5-7.5,15.2-11.2,20-11.2s6.1,2,6.1,6.1a12.8,12.8,0,0,1-2.5,7.2l-12.4,19.4c-1.6,2.5-2.4,4.1-2.4,4.5s.9,2.4,2.8,2.4,6.3-2.7,11.1-8L279,200.2l1,.9C279.5,201.8,277.5,204,274.2,207.8Z"/><path d="M305.5,219.1c-9.4,8.7-17.4,13-23.7,13a11.4,11.4,0,0,1-8.3-3.4,11.8,11.8,0,0,1-3.3-8.5c0-8.4,3.7-15.8,11.3-22s12.8-8,19-8a7.6,7.6,0,0,1,5.4,2.1,7,7,0,0,1,2.2,5.2c0,5.6-4,10.3-12.1,14-6.2,2.9-11.4,4.3-15.4,4.3a22.9,22.9,0,0,0-2.4,9.3c0,3.3,1.2,5,3.6,5,5.8,0,13.3-4,22.3-12a84.4,84.4,0,0,0,9.5-9.3,63.5,63.5,0,0,0,6.4-8.6l1.1.9Q316.5,209.1,305.5,219.1Zm-6.8-27.2q-6.4,0-16.8,20.7c3.2,0,7.3-2.1,12.2-6.4s7.4-8.1,7.4-11.2S300.5,191.9,298.7,191.9Z"/><path d="M338.1,220.5a31.2,31.2,0,0,1-12.9,4.6c-4.2,4.8-9.1,7.2-14.8,7.2s-10.5-3.1-10.5-9.3a8.5,8.5,0,0,1,1.7-5.2,5.7,5.7,0,0,1,4.7-2.3c1.4,0,3,.8,4.9,2.4a22.4,22.4,0,0,0,4.5,3.5,9.7,9.7,0,0,0,3.6-5.3,16.8,16.8,0,0,0,1.4-6.4,23.2,23.2,0,0,0-1.4-5.9,29.7,29.7,0,0,1-1.2-7.1,23.1,23.1,0,0,1,1.5-8c1.3-3.2,3.2-4.8,5.6-4.8s3.3.8,3.3,2.4-1.3,5.4-4.1,10.3c2.7,6.1,4,11,4,14.5,0,5.6-.8,9.7-2.4,12.2,5.3-1.2,9.4-2.9,12.5-5.2,4.6-3.4,9.4-9.4,14.6-17.9l1,.9C348.5,210.6,343.2,217,338.1,220.5Zm-27.4-.6c-1.8-1.3-3-2-3.5-2s-2.4.9-2.4,2.7,1.4,3.2,4.3,3.7,4.4,0,5.3-1.6A16.8,16.8,0,0,1,310.7,219.9Zm14.6-34.8c-1.5.1-2.3,2-2.5,5.6a6.4,6.4,0,0,0,.8,4.3q3.3-4.6,3.3-8.4C326.9,185.5,326.4,185,325.3,185.1Z"/><path d="M423.1,213.4l-6,2a43,43,0,0,1-9.8,10.4c-5.7,4.2-11.2,6.3-16.6,6.3a8.1,8.1,0,0,1-4.1-1.1,11.8,11.8,0,0,1-3.2-2.7,12.2,12.2,0,0,1-2.1-3.9,14.4,14.4,0,0,1-.8-4.6c0-7.6,3.1-14.4,9.4-20.4s13.1-9.2,20.8-9.2a9.2,9.2,0,0,1,7.8,3.7,13.8,13.8,0,0,1,3,8.8,16.3,16.3,0,0,1-1.2,6.2,17.8,17.8,0,0,0-.8,1.8q-.6,1.2-1.2,2.7a16,16,0,0,0,4-1.5,42.9,42.9,0,0,0,7.8-4.6,73.2,73.2,0,0,0,8.3-7.1l1.1.9C436.4,204.9,431,209,423.1,213.4Zm-12.8-21.6c-4.2,0-9,4.7-14.4,14s-7.8,15.4-7.8,20.1c0,3,.9,4.4,2.6,4.4,4.6,0,10.1-5.3,16.5-16-4.9-1.6-7.3-3.7-7.3-6.5s1.3-4.3,4.1-4.3a2.5,2.5,0,0,1,2.8,2.8q0,2.3-3.6,2.7c.6,2.2,2.3,3.6,5.1,4,3.4-7.3,5.2-13.2,5.2-17.9C413.5,192.9,412.4,191.8,410.3,191.8Z"/><path d="M473.9,178.2A81.4,81.4,0,0,1,452.7,195H460l-1.3,2.4h-9.5c-3,6-6,11.9-8.9,17.8s-5.9,11.8-8.8,17.8c-8.1,15.2-15.2,26.1-21.4,32.8s-13.3,10.7-20.2,10.7a13.7,13.7,0,0,1-9.4-3.4,10.7,10.7,0,0,1-3.8-8.6,14,14,0,0,1,3.7-9.6,11.2,11.2,0,0,1,8.9-4.4,5.9,5.9,0,0,1,4.6,2,6.9,6.9,0,0,1,2,4.8,5.6,5.6,0,0,1-2.3,4.5,8.5,8.5,0,0,1-5.1,1.7c-1.6,0-3-1.1-4.4-3.4,2.8-.4,4.2-1.1,4.2-2.2s-1-3.4-2.8-3.4-3.5,1.4-5,4.4a15.2,15.2,0,0,0-2,6.8,7.9,7.9,0,0,0,3.8,6.8,12.6,12.6,0,0,0,7.6,2.5c5,0,10.1-3.6,15-10.7,3.2-4.6,8.1-13.9,14.6-27.8,4.1-8.7,7.7-16.2,10.9-22.7s6-12,8.4-16.4h-7.9l1.4-2.4h8c2.9-5.1,5.8-9.8,8.8-14.3s6-8.6,9-12.5c9.6-12.3,17.1-18.4,22.6-18.4a5.2,5.2,0,0,1,3.5,1.5,4.8,4.8,0,0,1,1.7,3.4C485.9,161.8,481.9,169.6,473.9,178.2Zm4.5-26.3c-2.1,0-6.9,6-14.1,18A219,219,0,0,0,450.7,195c10.2-7.6,18-15.4,23.6-23.6,4.2-6.2,6.4-11.4,6.4-15.6C480.7,153.2,479.9,151.9,478.4,151.9Z"/><path d="M588.8,163.4c-4.8,5.8-7.6,8.7-8.3,8.7,2.1,13.5,3.2,22.6,3.2,27.3a29.8,29.8,0,0,1-10,22.8,33.2,33.2,0,0,1-23.6,9.3,28.7,28.7,0,0,1-21-8.4,28.2,28.2,0,0,1-8.7-20.9c0-7.9,3.1-15.7,9.2-23.3a21.4,21.4,0,0,1-2.3-3.8,47.2,47.2,0,0,1-1.6-4.5,30.5,30.5,0,0,0-6.3,4.3,43,43,0,0,0-5.4,5.8c-5.5,7.4-8.3,16.3-8.3,26.6A41.7,41.7,0,0,0,518,237.4a40.8,40.8,0,0,0,30,12.5c10.1,0,19.8-3.8,29.2-11.6v1.1c-8.3,8-18,12-29.2,12s-22.2-4.4-30.9-13.1a42.1,42.1,0,0,1-12.8-31q0-16.5,9-27.9A60.7,60.7,0,0,1,525.5,169q-.2-14.1,13.5-24.3a45.9,45.9,0,0,1,27.9-9.3c8.9,0,15.2,2.4,18.8,7.1a7.1,7.1,0,0,1,6.3-1.6q4.8.8,4.8,7.2C596.8,151.9,594.1,157,588.8,163.4Zm-12.4,11.2-3.9,2.5-6.7,3.8a23.3,23.3,0,0,1,2.6,11.3c0,4.1-1.9,7.8-5.9,11.1s-8,4.9-12.2,4.9a10.3,10.3,0,0,1-7.1-2.7,8.4,8.4,0,0,1-3-6.6,9.5,9.5,0,0,1,2.4-6.5,7.2,7.2,0,0,1,5.8-2.7c2,0,4,1.6,6,4.9q-7.5.6-7.5,4.8c0,3.7,2,5.6,6,5.6a12.5,12.5,0,0,0,9.6-4.5,15.3,15.3,0,0,0,4-10.4,18.6,18.6,0,0,0-2.1-8.4c-5.9,2.7-11.4,4.1-16.4,4.1-8.5,0-14.3-1.9-17.6-5.7-6.1,7.5-8.9,14.9-8.7,22.1.1,5,1.8,10,5.1,15.2,4.3,6.9,10.4,10.4,18.1,10.4,9.4,0,17.3-5.7,23.6-17.1a60.1,60.1,0,0,0,7.9-29.7Zm-9.5-38.1c-8.5,0-16.9,2.7-25.1,8.1s-14.6,14.4-14.9,24c6.2-4.4,14.2-7.1,24-8.4,4.8-.6,9.4-1.1,13.7-1.3s8.6-.4,12.7-.4a23.2,23.2,0,0,1,1.9-8.7c1.4-3.5,3.2-5.8,5.3-6.8C580.7,138.7,574.8,136.5,566.9,136.5Zm-15.3,24.9a50.4,50.4,0,0,0-17.9,4.8,29.5,29.5,0,0,1-2.7,1.5l-3.9,2.2a20.1,20.1,0,0,0,3.7,7.9,27.3,27.3,0,0,1,17.6-6.4,19.9,19.9,0,0,1,9.2,1.9,18.2,18.2,0,0,1,3.3,2.3,34.5,34.5,0,0,1,4,3.8,76.1,76.1,0,0,0,11.6-6.8l.7-12.8C569,160,560.5,160.5,551.6,161.4Zm-3.2,11.2c-6.9,0-12.4,2.1-16.7,6.4,3.1,3.6,8.5,5.5,16.3,5.5a32.3,32.3,0,0,0,15.3-4.3C559.4,175.1,554.4,172.6,548.4,172.6Zm41.3-30.1a3.8,3.8,0,0,0-1.7.6l-1.5.7a9,9,0,0,1,1.3,4.9,11.3,11.3,0,0,1-.6,3.6,12.6,12.6,0,0,1-1.6,3.3,10.1,10.1,0,0,1-2.4,2.7,9.9,9.9,0,0,1-3.1,1.5l.3,10c8.5-7.8,12.8-15.4,12.8-22.8C593.2,144,592,142.5,589.7,142.5Zm-9.6,15.6c1.6-.1,3.1-1.4,4.5-3.8a11.6,11.6,0,0,0,1.6-5.8,8.6,8.6,0,0,0-.9-3.9C581.8,149.1,580.1,153.5,580.1,158.1Z"/><path d="M632.6,222.3c-9.2,6.5-18.4,9.8-27.6,9.8s-13.3-4-13.3-11.9,3.4-16.8,10.1-22.5a30.3,30.3,0,0,1,19.9-7.5,8.4,8.4,0,0,1,5.5,1.9,6,6,0,0,1,2.5,5,7.3,7.3,0,0,1-2.5,5.5,7.5,7.5,0,0,1-5.5,2.4c-3.2,0-4.8-1.2-4.8-3.5a8,8,0,0,1,1.3-4.5,6.5,6.5,0,0,0,3.9,1.7,3.9,3.9,0,0,0,2.7-1.6,4.6,4.6,0,0,0,1.4-2.8c0-1.8-1.5-2.8-4.5-2.8s-8.8,4.6-14.5,13.6-8.2,15.5-8.2,20.4c0,3.3,2,5,6,5,8.8,0,17.7-3.3,26.8-9.8a80.1,80.1,0,0,0,11-9.2,135.6,135.6,0,0,0,9.6-11.3l1,.9A84,84,0,0,1,632.6,222.3Z"/><path d="M678.9,219.1c-9.4,8.7-17.3,13-23.7,13a11.4,11.4,0,0,1-8.3-3.4,11.8,11.8,0,0,1-3.3-8.5c0-8.4,3.7-15.8,11.3-22s12.8-8,19.1-8a7.6,7.6,0,0,1,5.3,2.1,7.1,7.1,0,0,1,2.3,5.2c0,5.6-4.1,10.3-12.2,14-6.2,2.9-11.3,4.3-15.4,4.3a22.9,22.9,0,0,0-2.4,9.3c0,3.3,1.2,5,3.6,5,5.8,0,13.3-4,22.4-12a82.9,82.9,0,0,0,9.4-9.3,63.5,63.5,0,0,0,6.4-8.6l1.1.9Q689.8,209.1,678.9,219.1Zm-6.8-27.2q-6.5,0-16.8,20.7c3.2,0,7.3-2.1,12.3-6.4s7.3-8.1,7.3-11.2S674,191.9,672.1,191.9Z"/><path d="M740.1,207.8l-14.7,16.4c-5,5.3-9.4,8-13.4,8s-7.4-2.7-7.8-8c-.1-2.3.8-5,2.8-8.1l11.1-17c1.2-1.9,1.9-3.3,1.9-4s-.7-1.2-2-1.2c-3.5,0-8,3.1-13.4,9.4-1.9,2.3-3.7,4.6-5.3,6.8s-3.1,4.6-4.5,6.9l-2.1,4-2.1,3.9c-2.4,4-4.1,6-5.3,6a8.4,8.4,0,0,1-2.6-.6l-2.3-.5c-.7,0-2.4,1.3-5,3.9l20.4-39.1c1.2-2.1,2.5-3.2,4-3.2a9.8,9.8,0,0,1,2.6.5,6.2,6.2,0,0,0,2.1.6c.4,0,1.1-.6,2.3-1.8a13.4,13.4,0,0,1,2.6-2.1l-6.8,12.8c8.6-7.5,15.2-11.2,20-11.2s6.2,2,6.2,6.1a13,13,0,0,1-2.6,7.2l-12.4,19.4c-1.6,2.5-2.4,4.1-2.4,4.5s1,2.4,2.8,2.4,6.3-2.7,11.1-8l19.6-21.6,1.1.9Z"/><path d="M773.1,207.2c-2.1,2.8-4.8,6.4-8.2,10.7-7.3,9.5-15.1,14.2-23.3,14.2a6.2,6.2,0,0,1-5.2-2.8,9.9,9.9,0,0,1-1.9-5.9c0-2.4.9-5.5,2.8-9.2L747.7,193H738l2.1-2h10.7a53,53,0,0,0,11.8-10.5c1-1.3,2.3-3,3.8-5.2s3.4-4.8,5.4-7.9h1.5L759.8,191h10l-.8,2H759l-13.8,24.3c-2,3.5-3,5.9-3,7a6.8,6.8,0,0,0,1.1,3.3q1.1,1.8,2.4,1.8c2.5,0,5.8-1.6,9.9-4.7a54.6,54.6,0,0,0,4.4-3.8,44.8,44.8,0,0,0,3.6-4l5-6.5q3-4.2,7.8-10.2l1,.9C776.6,202.4,775.2,204.4,773.1,207.2Z"/></g></svg>