<?xml version="1.0" encoding="utf-8"?>
<!-- Generator: Adobe Illustrator 22.1.0, SVG Export Plug-In . SVG Version: 6.00 Build 0)  -->
<svg version="1.1" id="Layer_1" xmlns="http://www.w3.org/2000/svg" xmlns:xlink="http://www.w3.org/1999/xlink" x="0px" y="0px"
	 viewBox="0 0 289 64" style="enable-background:new 0 0 289 64;" xml:space="preserve">
<g>
	<path d="M67.3,16.1c-0.8,0.6-1.8,0.9-2.8,1.1l-0.5-0.5c0.5-0.1,0.9-0.2,1.3-0.3c0.4-0.2,0.8-0.4,1.2-0.6c1-0.6,1.5-1.3,1.5-2.1
		c0-1.5-1.2-2.8-3.6-3.8c-1.9-0.8-3.7-1.1-5.4-1.1c-1.9,0-4.2,0.6-7,1.8c0.4,0.4,0.8,0.9,1.1,1.3c0.4,0.4,0.8,0.9,1.3,1.5
		c0.9,1.3,1.4,2.5,1.4,3.8c0,1.9-0.6,3.5-1.9,4.9c-0.4,0.5-1,1-1.7,1.5c-0.7,0.6-1.6,1.1-2.6,1.7c1.6,2,2.4,4.5,2.4,7.7
		c1.8-0.6,3.6-1.7,5.4-3.3l0.4,0.4c-1.8,1.6-3.9,2.9-6.1,3.8c-0.5,1.3-1.2,2.5-2.1,3.6c-0.9,1-1.9,1.9-3,2.6
		c-1.1,0.7-2.4,1.3-3.7,1.6c-1.3,0.4-2.7,0.5-4.2,0.5c-2.3-0.1-3.4-0.9-3.4-2.4c0-2.1,1.5-3.6,4.5-4.6c2.1-0.7,4.3-1,6.8-1
		c1.1-1,1.6-2.9,1.6-5.5c0-1-0.1-2-0.3-3.1c-0.2,0-0.4,0.1-0.6,0.1c-0.2,0-0.5,0-0.7,0c-0.4,0-0.9-0.1-1.3-0.4s-0.7-0.6-0.7-1
		c0-0.7,0.5-1.1,1.6-1.1c0.8,0,1.6,0.4,2.4,1.1c2.7-2.5,4-4.8,4-7c0-3.3-0.7-5.3-2-6c-1.3,0.6-3.1,2.6-5.6,6
		c-0.4,0.6-0.9,1.4-1.2,2.4c-0.4,1-0.8,2.3-1.2,3.8c-0.9,3.1-1.7,5.2-2.5,6.4c-2.7,4.2-5.5,7.2-8.4,9.1c-3.5,2.2-7.8,3.2-12.9,3.2
		c-4.3,0-7.9-1.3-10.6-3.8c-2.8-2.5-4.2-5.9-4.2-10.2c0-4.8,1.7-9,5.2-12.7c3.5-3.7,7.7-5.5,12.5-5.5c1.8,0,3.9,0.5,6.2,1.5
		c2.7-1.6,4.4-2.5,4.9-2.7c2.2-0.9,4.9-1.3,8.1-1.3c2.5,0,4.7,0.3,6.5,1c0.4,0.2,0.9,0.4,1.5,0.6c0.6,0.3,1.3,0.6,2.1,1
		c0.5-0.2,1-0.4,1.5-0.6c0.5-0.2,1-0.4,1.5-0.6c1.4-0.4,3.1-0.7,4.9-0.7c1.9,0,3.8,0.4,5.9,1.3c2.5,1.1,3.8,2.5,3.8,4.2
		C68.8,14.6,68.3,15.4,67.3,16.1z M40.9,7.9c-2.8,0-5.2,0.4-7.2,1c-1.5,0.5-3.3,1.5-5.3,2.9c4.8,3,7.1,6.8,7.1,11.5
		c0,0,0,0.2-0.1,0.5c0,0.3-0.1,0.7-0.2,1.3l1-1.7c0.3-0.5,0.5-1.1,0.5-1.8c0-0.7-0.3-1.8-1-3.4l0.5-0.1c0.2,0.4,0.4,0.8,0.5,1
		c0.1,0.2,0.2,0.3,0.2,0.4c0.3,0.6,0.4,1.3,0.4,2.1c0,1.6-0.9,3.3-2.7,5.1c-0.4,1-0.9,2-1.5,2.8c-0.6,0.9-1.3,1.6-2.1,2.2
		c-0.8,0.6-1.7,1.1-2.7,1.5c-1,0.4-2,0.5-3.1,0.5V33c1.1,0.2,2.5-0.2,4.1-1c2-1,3.4-2.6,4-4.6c-1.6,0.5-2.8,0.8-3.5,0.8
		c-2.2,0-4-0.8-5.4-2.3c-1.2-1.4-1.9-3.3-1.9-5.6c0-2.1,0.6-4,1.9-5.7c0.3-0.3,1.1-1.2,2.6-2.7c-1.8-1-3.6-1.5-5.6-1.5
		c-4.6,0-8.6,1.8-12,5.4c-3.4,3.6-5.1,7.7-5.1,12.3c0,4.1,1.4,7.4,4.1,9.9c2.6,2.3,6,3.5,10.1,3.5c2.2,0,4.4-0.6,6.8-1.9
		c2.1-1.1,4-2.6,5.7-4.3c1.7-1.8,3.1-3.9,4.3-6.5c0.1-0.1,0.2-0.6,0.5-1.4c0.3-0.8,0.7-1.9,1.3-3.4c1.1-2.9,2.8-5.6,4.9-8
		c2.3-2.6,4.8-4.4,7.6-5.5C47.3,8.8,44.3,7.9,40.9,7.9z M28,12.2c-0.8,0.7-1.4,1.4-1.9,2c-0.5,0.6-0.9,1.1-1.2,1.5
		c-0.9,1.4-1.4,3-1.4,4.7c0,2.1,0.6,3.8,1.8,5.1c1.2,1.3,2.8,2,4.9,2c1.6,0,3-0.6,4.2-1.6c0.5-1.1,0.8-2,0.8-2.6
		C35,18.5,32.7,14.8,28,12.2z M39.8,35.9c-2.5,0.9-3.8,2.2-3.8,3.9c0,0.9,0.7,1.4,2.1,1.5c1.9,0.1,3.8-0.9,5.8-3l2.6-3.4
		C44.1,34.9,41.9,35.2,39.8,35.9z M46.4,23.8c-0.4,0-0.6,0.1-0.6,0.4c0,0.5,0.3,0.7,1,0.7c0.4,0,0.8-0.1,1.1-0.2
		C47.4,24.1,46.9,23.8,46.4,23.8z"/>
	<path d="M70.2,34.6c-0.5,0.2-1.2,0.4-2.2,0.8c-0.9,1.4-2.1,2.7-3.7,3.9c-2.1,1.6-4.2,2.4-6.2,2.4c-0.6,0-1.1-0.1-1.5-0.4
		c-0.4-0.3-0.9-0.6-1.2-1c-0.4-0.4-0.6-0.9-0.8-1.4c-0.2-0.6-0.3-1.1-0.3-1.7c0-2.9,1.2-5.4,3.5-7.6c2.3-2.3,4.9-3.5,7.8-3.5
		c1.2,0,2.2,0.5,3,1.4c0.7,0.9,1.1,2,1.1,3.3c0,0.8-0.1,1.6-0.5,2.3c-0.1,0.2-0.2,0.4-0.3,0.7c-0.1,0.3-0.3,0.6-0.5,1
		c0.3,0,0.8-0.2,1.5-0.6c1-0.4,2-1,3-1.8c1-0.7,2-1.6,3.1-2.6l0.4,0.4C75.2,31.4,73.2,33,70.2,34.6z M65.4,26.5
		c-1.6,0-3.4,1.8-5.4,5.2c-1.9,3.3-2.9,5.8-2.9,7.5c0,1.1,0.3,1.6,0.9,1.6c1.7,0,3.8-2,6.2-6c-1.8-0.6-2.8-1.4-2.8-2.4
		c0-1.1,0.5-1.6,1.5-1.6c0.7,0,1.1,0.4,1.1,1c0,0.6-0.5,0.9-1.4,1c0.2,0.8,0.9,1.3,1.9,1.5c1.3-2.7,2-5,2-6.7
		C66.6,27,66.2,26.5,65.4,26.5z"/>
	<path d="M93.4,32.5c-1.3,1.4-3.1,3.5-5.5,6.1c-1.9,2-3.6,3-5.1,3c-1.8,0-2.8-1-2.9-3c-0.1-0.9,0.3-1.9,1-3l4.2-6.4
		c0.5-0.7,0.7-1.2,0.7-1.5c0-0.3-0.2-0.5-0.8-0.5c-1.3,0-3,1.2-5,3.5c-0.7,0.9-1.4,1.7-2,2.6S77,35.1,76.4,36
		c-0.3,0.5-0.5,1-0.8,1.5s-0.5,1-0.8,1.5c-0.9,1.5-1.6,2.2-2,2.2c-0.2,0-0.6-0.1-1-0.2c-0.4-0.1-0.7-0.2-0.9-0.2
		c-0.3,0-0.9,0.5-1.8,1.4l7.6-14.6c0.4-0.8,0.9-1.2,1.5-1.2c0.3,0,0.6,0.1,0.9,0.2c0.4,0.1,0.6,0.2,0.8,0.2c0.1,0,0.4-0.2,0.9-0.6
		c0.5-0.5,0.9-0.8,1-0.8l-2.6,4.8c3.2-2.8,5.7-4.2,7.5-4.2c1.5,0,2.3,0.8,2.3,2.3c0,0.8-0.3,1.7-1,2.7l-4.6,7.2
		c-0.6,1-0.9,1.5-0.9,1.7c0,0.6,0.3,0.9,1,0.9c1,0,2.4-1,4.1-3l7.4-8.1l0.4,0.4C95.4,30.3,94.7,31.1,93.4,32.5z"/>
	<path d="M105.2,36.8c-3.5,3.2-6.5,4.9-8.9,4.9c-1.2,0-2.3-0.4-3.1-1.3c-0.8-0.8-1.2-1.9-1.2-3.2c0-3.2,1.4-5.9,4.2-8.2
		c2.4-2,4.8-3,7.1-3c0.8,0,1.4,0.3,2,0.8c0.6,0.5,0.9,1.2,0.9,2c0,2.1-1.5,3.9-4.5,5.2c-2.3,1.1-4.3,1.6-5.8,1.6
		c-0.6,1.3-0.9,2.5-0.9,3.5c0,1.2,0.5,1.9,1.4,1.9c2.2,0,5-1.5,8.4-4.5c1.4-1.2,2.6-2.4,3.6-3.5c1-1.1,1.8-2.2,2.4-3.2L111,30
		C109.9,32,107.9,34.3,105.2,36.8z M102.6,26.6c-1.6,0-3.7,2.6-6.3,7.8c1.2,0,2.7-0.8,4.6-2.4c1.8-1.6,2.8-3,2.8-4.2
		C103.7,27,103.3,26.6,102.6,26.6z"/>
	<path d="M117.4,37.3c-1.3,0.9-2.9,1.4-4.9,1.8c-1.6,1.8-3.4,2.7-5.5,2.7c-2.6,0-4-1.2-4-3.5c0-0.7,0.2-1.4,0.6-1.9
		c0.4-0.6,1-0.9,1.8-0.9c0.5,0,1.2,0.3,1.9,0.9c0.9,0.8,1.4,1.2,1.7,1.3c0.6-0.4,1-1.1,1.4-2c0.3-0.8,0.5-1.6,0.5-2.4
		c0-0.4-0.2-1.2-0.5-2.2c-0.3-1.1-0.5-2-0.5-2.6c0-1,0.2-2,0.5-3c0.5-1.2,1.2-1.8,2.1-1.8c0.8,0,1.2,0.3,1.2,0.9
		c0,0.7-0.5,2-1.5,3.9c1,2.3,1.5,4.1,1.5,5.5c0,2.1-0.3,3.6-0.9,4.5c2-0.4,3.5-1.1,4.7-1.9c1.7-1.3,3.5-3.5,5.5-6.7l0.4,0.4
		C121.3,33.6,119.3,36,117.4,37.3z M107.1,37.1c-0.7-0.5-1.1-0.8-1.3-0.8c-0.6,0-0.9,0.3-0.9,1c0,0.7,0.5,1.2,1.6,1.4
		c1,0.2,1.7,0,2-0.6C108.3,38,107.8,37.7,107.1,37.1z M112.6,24c-0.6,0-0.9,0.7-1,2.1c-0.1,0.7,0,1.2,0.3,1.6
		c0.8-1.2,1.2-2.2,1.2-3.1C113.2,24.2,113,24,112.6,24z"/>
	<path d="M149.3,34.6c-0.5,0.2-1.2,0.4-2.2,0.8c-0.9,1.4-2.1,2.7-3.7,3.9c-2.1,1.6-4.2,2.4-6.2,2.4c-0.6,0-1.1-0.1-1.5-0.4
		c-0.4-0.3-0.9-0.6-1.2-1c-0.4-0.4-0.6-0.9-0.8-1.4c-0.2-0.6-0.3-1.1-0.3-1.7c0-2.9,1.2-5.4,3.5-7.6c2.3-2.3,4.9-3.5,7.8-3.5
		c1.2,0,2.2,0.5,3,1.4c0.7,0.9,1.1,2,1.1,3.3c0,0.8-0.1,1.6-0.5,2.3c-0.1,0.2-0.2,0.4-0.3,0.7c-0.1,0.3-0.3,0.6-0.5,1
		c0.3,0,0.8-0.2,1.5-0.6c1-0.4,2-1,3-1.8c1-0.7,2-1.6,3.1-2.6l0.4,0.4C154.3,31.4,152.2,33,149.3,34.6z M144.5,26.5
		c-1.6,0-3.4,1.8-5.4,5.2c-1.9,3.3-2.9,5.8-2.9,7.5c0,1.1,0.3,1.6,0.9,1.6c1.7,0,3.8-2,6.2-6c-1.8-0.6-2.8-1.4-2.8-2.4
		c0-1.1,0.5-1.6,1.5-1.6c0.7,0,1.1,0.4,1.1,1c0,0.6-0.5,0.9-1.4,1c0.2,0.8,0.9,1.3,1.9,1.5c1.3-2.7,2-5,2-6.7
		C145.7,27,145.3,26.5,144.5,26.5z"/>
	<path d="M168.3,21.4c-2.6,2.8-5.2,4.9-7.9,6.3h2.8l-0.5,0.9h-3.6c-1.1,2.2-2.2,4.5-3.3,6.7c-1.1,2.2-2.2,4.4-3.3,6.7
		c-3,5.7-5.7,9.8-8,12.3c-2.5,2.7-5,4-7.6,4c-1.4,0-2.6-0.4-3.5-1.2c-0.9-0.8-1.4-1.9-1.4-3.2c0-1.3,0.5-2.5,1.4-3.6
		c0.9-1.1,2-1.6,3.4-1.6c0.7,0,1.2,0.3,1.7,0.8c0.5,0.5,0.7,1.1,0.7,1.8c0,0.7-0.3,1.3-0.8,1.7c-0.6,0.4-1.2,0.6-1.9,0.6
		c-0.6,0-1.1-0.4-1.6-1.3c1-0.1,1.6-0.4,1.6-0.8c0-0.9-0.4-1.3-1.1-1.3c-0.7,0-1.3,0.5-1.9,1.6c-0.5,1-0.8,1.8-0.8,2.5
		c0,1.1,0.5,1.9,1.4,2.6c0.8,0.6,1.8,0.9,2.8,0.9c1.9,0,3.8-1.3,5.7-4c1.2-1.7,3-5.2,5.4-10.4c1.5-3.2,2.9-6.1,4.1-8.5
		c1.2-2.4,2.2-4.5,3.1-6.1h-2.9l0.5-0.9h3c1.1-1.9,2.2-3.7,3.3-5.3c1.1-1.7,2.2-3.2,3.4-4.7c3.6-4.6,6.4-6.9,8.5-6.9
		c0.5,0,0.9,0.2,1.3,0.6c0.4,0.4,0.6,0.8,0.6,1.3C172.8,15.3,171.3,18.2,168.3,21.4z M170,11.6c-0.8,0-2.6,2.2-5.3,6.8
		c-2.3,3.9-4,7-5.1,9.4c3.8-2.8,6.8-5.8,8.9-8.8c1.6-2.3,2.4-4.3,2.4-5.9C170.9,12.1,170.6,11.6,170,11.6z"/>
	<path d="M211.4,15.9c-1.8,2.2-2.8,3.2-3.1,3.2c0.8,5.1,1.2,8.5,1.2,10.2c0,3.4-1.2,6.2-3.8,8.5c-2.5,2.3-5.4,3.5-8.9,3.5
		c-3.1,0-5.8-1-7.9-3.1c-2.2-2.2-3.2-4.8-3.2-7.9c0-3,1.1-5.9,3.5-8.8c-0.3-0.4-0.6-0.9-0.9-1.4c-0.2-0.5-0.4-1.1-0.6-1.7
		c-0.9,0.4-1.7,1-2.4,1.6c-0.7,0.6-1.4,1.4-2,2.2c-2.1,2.8-3.1,6.1-3.1,9.9c0,4.4,1.5,8.1,4.6,11.3c3.1,3.1,6.9,4.7,11.2,4.7
		c3.8,0,7.5-1.4,11-4.4v0.4c-3.1,3-6.8,4.5-11,4.5c-4.5,0-8.3-1.6-11.6-4.9c-3.2-3.2-4.8-7.1-4.8-11.6c0-4.1,1.1-7.6,3.4-10.4
		c1.1-1.3,2.6-2.6,4.5-3.9c0-3.5,1.7-6.6,5.1-9.1c3.1-2.3,6.6-3.5,10.5-3.5c3.3,0,5.7,0.9,7,2.6c0.7-0.6,1.5-0.8,2.4-0.6
		c1.2,0.2,1.8,1.1,1.8,2.7C214.4,11.6,213.4,13.5,211.4,15.9z M206.8,20.1c-0.3,0.2-0.8,0.5-1.5,0.9c-0.6,0.4-1.5,0.9-2.5,1.4
		c0.7,1.3,1,2.7,1,4.2c0,1.5-0.7,2.9-2.2,4.1c-1.5,1.2-3,1.9-4.6,1.9c-1,0-1.9-0.3-2.7-1c-0.7-0.7-1.1-1.5-1.1-2.5
		c0-0.9,0.3-1.7,0.9-2.4c0.6-0.7,1.3-1,2.2-1c0.8,0,1.5,0.6,2.2,1.9c-1.9,0.2-2.8,0.8-2.8,1.8c0,1.4,0.8,2.1,2.2,2.1
		c1.4,0,2.6-0.6,3.6-1.7c1-1.1,1.5-2.4,1.5-3.9c0-1-0.3-2.1-0.8-3.2c-2.2,1-4.2,1.6-6.1,1.6c-3.2,0-5.4-0.7-6.6-2.1
		c-2.3,2.8-3.4,5.6-3.2,8.3c0,1.9,0.7,3.8,1.9,5.7c1.6,2.6,3.9,3.9,6.8,3.9c3.5,0,6.5-2.1,8.9-6.4c2-3.6,2.9-7.3,2.9-11.2V20.1z
		 M203.2,5.8c-3.2,0-6.3,1-9.4,3c-3.6,2.4-5.5,5.4-5.6,9c2.3-1.6,5.3-2.7,9-3.1c1.8-0.2,3.5-0.4,5.1-0.5c1.6-0.1,3.2-0.1,4.8-0.1
		c0-1,0.2-2.1,0.7-3.2c0.5-1.3,1.2-2.2,2-2.6C208.4,6.6,206.2,5.8,203.2,5.8z M197.5,15.1c-2.6,0.3-4.9,0.9-6.7,1.8
		c-0.3,0.2-0.6,0.4-1,0.6c-0.4,0.2-0.9,0.5-1.5,0.8c0.4,1.3,0.8,2.3,1.4,3c2-1.6,4.2-2.4,6.6-2.4c1.4,0,2.5,0.2,3.5,0.7
		c0.4,0.2,0.8,0.5,1.2,0.9c0.5,0.4,1,0.9,1.5,1.4c1.1-0.5,2.6-1.4,4.4-2.6l0.2-4.8C204,14.6,200.8,14.8,197.5,15.1z M196.3,19.3
		c-2.6,0-4.6,0.8-6.2,2.4c1.2,1.4,3.2,2.1,6.1,2.1c1.9,0,3.8-0.5,5.8-1.6C200.4,20.3,198.5,19.3,196.3,19.3z M211.8,8
		c-0.2,0-0.4,0.1-0.6,0.2c-0.3,0.1-0.5,0.2-0.5,0.3c0.3,0.5,0.5,1.1,0.5,1.9c0,0.4-0.1,0.9-0.2,1.3c-0.1,0.5-0.4,0.9-0.6,1.2
		c-0.2,0.4-0.6,0.7-0.9,1c-0.4,0.3-0.8,0.5-1.2,0.6l0.1,3.8c3.2-2.9,4.8-5.8,4.8-8.6C213.1,8.6,212.6,8,211.8,8z M208.2,13.9
		c0.6,0,1.2-0.5,1.7-1.4c0.4-0.7,0.6-1.5,0.6-2.2c0-0.5-0.1-1-0.4-1.5C208.8,10.5,208.2,12.2,208.2,13.9z"/>
	<path d="M227.9,38c-3.5,2.4-6.9,3.7-10.4,3.7c-3.3,0-5-1.5-5-4.5c0-3.5,1.3-6.3,3.8-8.5c2.2-1.9,4.7-2.8,7.4-2.8
		c0.8,0,1.5,0.2,2.1,0.7c0.6,0.5,0.9,1.1,0.9,1.9c0,0.8-0.3,1.4-0.9,2c-0.6,0.6-1.3,0.9-2.1,0.9c-1.2,0-1.8-0.4-1.8-1.3
		c0-0.7,0.2-1.3,0.5-1.7c0.5,0.4,1,0.7,1.4,0.7c0.3,0,0.6-0.2,1-0.6c0.4-0.4,0.6-0.8,0.6-1.1c0-0.7-0.6-1-1.7-1
		c-1.5,0-3.3,1.7-5.4,5.1c-2,3.2-3.1,5.8-3.1,7.6c0,1.2,0.8,1.9,2.2,1.9c3.3,0,6.6-1.2,10.1-3.6c1.5-1,2.8-2.2,4.1-3.5
		c1.3-1.3,2.5-2.7,3.6-4.2l0.4,0.4C233.4,33.3,230.8,36,227.9,38z"/>
	<path d="M245.2,36.8c-3.5,3.2-6.5,4.9-8.9,4.9c-1.2,0-2.3-0.4-3.1-1.3c-0.8-0.8-1.2-1.9-1.2-3.2c0-3.2,1.4-5.9,4.2-8.2
		c2.4-2,4.8-3,7.1-3c0.8,0,1.4,0.3,2,0.8c0.6,0.5,0.9,1.2,0.9,2c0,2.1-1.5,3.9-4.5,5.2c-2.3,1.1-4.3,1.6-5.8,1.6
		c-0.6,1.3-0.9,2.5-0.9,3.5c0,1.2,0.5,1.9,1.4,1.9c2.2,0,5-1.5,8.4-4.5c1.4-1.2,2.6-2.4,3.6-3.5c1-1.1,1.8-2.2,2.4-3.2l0.4,0.4
		C249.9,32,247.9,34.3,245.2,36.8z M242.7,26.6c-1.6,0-3.7,2.6-6.3,7.8c1.2,0,2.7-0.8,4.6-2.4c1.8-1.6,2.8-3,2.8-4.2
		C243.7,27,243.4,26.6,242.7,26.6z"/>
	<path d="M268.2,32.5c-1.3,1.4-3.1,3.5-5.5,6.1c-1.9,2-3.6,3-5.1,3c-1.8,0-2.8-1-2.9-3c-0.1-0.9,0.3-1.9,1-3l4.2-6.4
		c0.5-0.7,0.7-1.2,0.7-1.5c0-0.3-0.2-0.5-0.8-0.5c-1.3,0-3,1.2-5,3.5c-0.7,0.9-1.4,1.7-2,2.6s-1.2,1.7-1.7,2.6
		c-0.3,0.5-0.5,1-0.8,1.5s-0.5,1-0.8,1.5c-0.9,1.5-1.6,2.2-2,2.2c-0.2,0-0.6-0.1-1-0.2c-0.4-0.1-0.7-0.2-0.9-0.2
		c-0.3,0-0.9,0.5-1.8,1.4l7.6-14.6c0.4-0.8,0.9-1.2,1.5-1.2c0.3,0,0.6,0.1,0.9,0.2c0.4,0.1,0.6,0.2,0.8,0.2c0.1,0,0.4-0.2,0.9-0.6
		c0.5-0.5,0.9-0.8,1-0.8l-2.6,4.8c3.2-2.8,5.7-4.2,7.5-4.2c1.5,0,2.3,0.8,2.3,2.3c0,0.8-0.3,1.7-1,2.7l-4.6,7.2
		c-0.6,1-0.9,1.5-0.9,1.7c0,0.6,0.3,0.9,1,0.9c1,0,2.4-1,4.1-3l7.4-8.1l0.4,0.4C270.2,30.3,269.4,31.1,268.2,32.5z"/>
	<path d="M280.5,32.3c-0.8,1-1.8,2.4-3.1,4c-2.7,3.5-5.7,5.3-8.8,5.3c-0.8,0-1.5-0.4-2-1.1c-0.5-0.7-0.7-1.4-0.7-2.2
		c0-0.9,0.4-2.1,1.1-3.5l3.9-8h-3.6l0.8-0.8h4c1.6-1,3.1-2.3,4.5-3.9c0.4-0.5,0.8-1.1,1.4-1.9c0.6-0.8,1.3-1.8,2-3h0.5l-5,8.8h3.8
		L279,27h-3.8l-5.2,9.1c-0.7,1.3-1.1,2.2-1.1,2.6c0,0.4,0.1,0.8,0.4,1.2c0.3,0.5,0.6,0.7,0.9,0.7c0.9,0,2.2-0.6,3.7-1.8
		c0.6-0.5,1.1-0.9,1.6-1.4c0.5-0.5,0.9-1,1.4-1.5c0.5-0.6,1.1-1.4,1.9-2.4c0.8-1.1,1.8-2.3,2.9-3.8l0.4,0.4
		C281.9,30.5,281.3,31.3,280.5,32.3z"/>
</g>
</svg>
