<svg id="Layer_1" data-name="Layer 1" xmlns="http://www.w3.org/2000/svg" viewBox="0 0 577 96"><defs><style>.cls-1{fill:#231f20;}.cls-2,.cls-3,.cls-4,.cls-5{fill:#414b59;}.cls-11,.cls-15,.cls-19,.cls-23,.cls-3,.cls-7{opacity:0.85;}.cls-12,.cls-16,.cls-20,.cls-24,.cls-4,.cls-8{opacity:0.7;}.cls-13,.cls-17,.cls-21,.cls-25,.cls-5,.cls-9{opacity:0.55;}.cls-6,.cls-7,.cls-8,.cls-9{fill:#738b8b;}.cls-10,.cls-11,.cls-12,.cls-13{fill:#a8bab9;}.cls-14,.cls-15,.cls-16,.cls-17{fill:#c2c1c0;}.cls-18,.cls-19,.cls-20,.cls-21{fill:#919191;}.cls-22,.cls-23,.cls-24,.cls-25{fill:#d6b229;}</style></defs><title>colorFiveB</title><path class="cls-1" d="M31,82.9H29.7v-.6h1.4l.3-1.9H30.1v-.6h1.3l.4-2.7h.6l-.3,2.7h1.6l.4-2.7h.6l-.4,2.7h1.3v.6H34.3L34,82.3h1.3v.6H33.9l-.3,2.7h-.7l.4-2.7H31.6l-.3,2.7h-.7Zm2.6-2.5H32l-.3,1.9h1.7Z"/><path class="cls-1" d="M39.7,83.5H36.1v-.8l3.4-5.6h1v5.8h1.3v.6H40.5v2.1h-.8Zm0-5.6h0l-3,5h3Z"/><path class="cls-1" d="M45.2,78.1h0l-1.6,1.3-.4-.6,2.1-1.7h.6v8.5h-.7Z"/><path class="cls-1" d="M52.2,83.5H48.6v-.8l3.3-5.6h1v5.8h1.3v.6H52.9v2.1h-.7Zm0-5.6h0l-3,5h3Z"/><path class="cls-1" d="M55.3,76.5H56V81h.1l.4-.5.5-.3.6-.2h.7l1.2.2.9.6.6,1a3.6,3.6,0,0,1,.2,1.1A4.3,4.3,0,0,1,61,84a3.5,3.5,0,0,1-.6.9,2.4,2.4,0,0,1-.9.6,2.5,2.5,0,0,1-1.2.2h-.7l-.6-.2-.5-.4a1,1,0,0,1-.4-.5H56v1h-.7Zm.7,6.3a2.8,2.8,0,0,0,.1.9l.5.7.8.5.9.2.9-.2a1.8,1.8,0,0,0,.7-.5,1.6,1.6,0,0,0,.4-.7,2.1,2.1,0,0,0,0-1.8,2.5,2.5,0,0,0-.4-.7l-.7-.5H57.4l-.8.5-.5.7A2.8,2.8,0,0,0,56,82.8Z"/><path class="cls-1" d="M67.2,77.8H63.7v2.7l.6-.2h.6l1.1.2.9.6a4.1,4.1,0,0,1,.5.9,4.3,4.3,0,0,1,.2,1.1,2.1,2.1,0,0,1-.3,1.2,1.8,1.8,0,0,1-.6.9,2.6,2.6,0,0,1-.9.5h-.9a3.8,3.8,0,0,1-1.6-.3,3.6,3.6,0,0,1-1-1.1l.8-.4.3.5.4.4.5.2h1.2l.6-.4.5-.6a2.1,2.1,0,0,0,0-1.8,1.6,1.6,0,0,0-.4-.7,1.8,1.8,0,0,0-.7-.5H63.8l-.8.4V77.1h4.1Z"/><path class="cls-1" d="M72.3,81.9h0l-.6.2H71L70,82l-.8-.5a2.4,2.4,0,0,1-.6-.9,3,3,0,0,1-.2-1,4.3,4.3,0,0,1,.2-1.1l.6-.8.9-.5a3.1,3.1,0,0,1,2.2,0,1.9,1.9,0,0,1,.9.5l.6.8a4.3,4.3,0,0,1,.2,1.1,1.3,1.3,0,0,1-.1.6,1.4,1.4,0,0,1-.2.6c-.1.2-.1.4-.2.5l-.3.5-2.3,3.8H70Zm-1.1-.3.8-.2.6-.4.4-.6a2.4,2.4,0,0,0,.2-.8,1.9,1.9,0,0,0-.1-.8,1,1,0,0,0-.5-.6.7.7,0,0,0-.6-.4l-.8-.2-.8.2a.8.8,0,0,0-.6.4.9.9,0,0,0-.4.6,1.9,1.9,0,0,0-.2.8,2.4,2.4,0,0,0,.2.8,2.1,2.1,0,0,0,.4.6l.6.4Z"/><path class="cls-1" d="M125.7,82.9h-1.3v-.6h1.4l.2-1.9h-1.2v-.6h1.3l.4-2.7h.6l-.4,2.7h1.7l.4-2.7h.6l-.4,2.7h1.3v.6H129l-.3,1.9H130v.6h-1.4l-.3,2.7h-.7l.4-2.7h-1.7l-.3,2.7h-.7Zm2.6-2.5h-1.6l-.3,1.9h1.7Z"/><path class="cls-1" d="M135.8,77.8l-3.4,7.8h-.8l3.5-7.8H131v-.7h4.8Z"/><path class="cls-1" d="M138,83.8a3.6,3.6,0,0,0,.7,1,1.6,1.6,0,0,0,1.1.3h.8a1.5,1.5,0,0,0,.6-.4,2.1,2.1,0,0,0,.4-.6c0-.3.1-.5.1-.8a2.4,2.4,0,0,0-.2-.8,1.2,1.2,0,0,0-.5-.5l-.7-.3h-1.2v-.7h1.1l.6-.3a1,1,0,0,0,.4-.5,1.4,1.4,0,0,0,.2-.7,1.4,1.4,0,0,0-1.6-1.6,1.4,1.4,0,0,0-.9.3,2.3,2.3,0,0,0-.7.7l-.7-.4a2.8,2.8,0,0,1,1-.9,2.8,2.8,0,0,1,1.3-.3h.9a2,2,0,0,1,.8.4,1.8,1.8,0,0,1,.5.7,2.9,2.9,0,0,1,.2.9,2.8,2.8,0,0,1-.4,1.3,2.1,2.1,0,0,1-1.1.7h0l.7.3.6.5c.1.2.3.4.3.6a2.4,2.4,0,0,1,.2.8,3.6,3.6,0,0,1-.2,1,1.8,1.8,0,0,1-.5.7l-.8.6h-1.2a2.9,2.9,0,0,1-1.6-.4,2,2,0,0,1-1-1.2Z"/><path class="cls-1" d="M143.8,79.2a2.2,2.2,0,0,1,.1-.9l.5-.7.8-.5H147a1.8,1.8,0,0,1,.7.5,1.2,1.2,0,0,1,.5.7c.2.2.2.5.2.9a1.3,1.3,0,0,1-.1.6c0,.2-.1.3-.2.5l-.5.5-.5.2h0l.7.2.5.5.3.7a1.7,1.7,0,0,1,.1.7,2,2,0,0,1-.2,1.1,3.5,3.5,0,0,1-.5.8l-.9.5H145l-.8-.5a3.5,3.5,0,0,1-.5-.8,2,2,0,0,1-.2-1.1,1.7,1.7,0,0,1,.1-.7,1.1,1.1,0,0,1,.3-.7l.5-.5.7-.2h0l-.5-.2c-.2-.2-.4-.3-.5-.5s-.2-.3-.2-.5A1.3,1.3,0,0,1,143.8,79.2Zm.5,4a2.2,2.2,0,0,0,.1.8,2.9,2.9,0,0,0,.9.9l.8.2.7-.2a.9.9,0,0,0,.6-.4,1,1,0,0,0,.4-.5,2.2,2.2,0,0,0,.1-.8,1.7,1.7,0,0,0-.1-.7.9.9,0,0,0-.4-.6l-.6-.4h-1.4a1.3,1.3,0,0,0-.6.4.9.9,0,0,0-.4.6A1.7,1.7,0,0,0,144.3,83.2Zm.3-4a1.3,1.3,0,0,0,.1.6c0,.2.1.3.3.5l.5.3h1.2l.5-.3.3-.5a1.3,1.3,0,0,0,.1-.6,1.6,1.6,0,0,0-.4-1.2,2.1,2.1,0,0,0-1.1-.4,1.8,1.8,0,0,0-1.1.4A1.6,1.6,0,0,0,144.6,79.2Z"/><path class="cls-1" d="M150,76.5h.7V81h.1l.4-.5.5-.3.6-.2h.7l1.1.2,1,.6.6,1a3.6,3.6,0,0,1,.2,1.1,4.3,4.3,0,0,1-.2,1.2,3.5,3.5,0,0,1-.6.9,2.1,2.1,0,0,1-1,.6,2,2,0,0,1-1.1.2h-.7l-.6-.2a2.9,2.9,0,0,1-.9-.9h-.1v1H150Zm.7,6.3a2.8,2.8,0,0,0,.1.9l.5.7.8.5.9.2.9-.2a1.8,1.8,0,0,0,.7-.5,1.6,1.6,0,0,0,.4-.7,2.1,2.1,0,0,0,0-1.8,2.5,2.5,0,0,0-.4-.7l-.7-.5h-1.8l-.8.5-.5.7A2.8,2.8,0,0,0,150.7,82.8Z"/><path class="cls-1" d="M157.3,79.2a2,2,0,0,1,.2-.9,1.8,1.8,0,0,1,.5-.7l.7-.5h1.9a2.6,2.6,0,0,1,1.2,1.2,2,2,0,0,1,.2.9,1.3,1.3,0,0,1-.1.6l-.3.5-.4.5-.6.2h0l.7.2.6.5.3.7a1.7,1.7,0,0,1,.1.7,3.6,3.6,0,0,1-.2,1.1,2.1,2.1,0,0,1-.6.8l-.8.5h-2.1l-.8-.5-.6-.8a3.6,3.6,0,0,1-.2-1.1c0-.2.1-.5.1-.7a2.5,2.5,0,0,1,.4-.7l.5-.5.7-.2h0l-.6-.2-.4-.5-.3-.5C157.4,79.6,157.3,79.4,157.3,79.2Zm.5,4a2.4,2.4,0,0,0,.2.8.9.9,0,0,0,.3.5l.6.4.8.2.7-.2.6-.4a1,1,0,0,0,.4-.5,2.2,2.2,0,0,0,.1-.8c0-.2-.1-.5-.1-.7a1.5,1.5,0,0,0-.4-.6l-.6-.4h-1.5a1,1,0,0,0-.5.4.9.9,0,0,0-.4.6A1.9,1.9,0,0,0,157.8,83.2Zm.3-4c0,.2.1.4.1.6l.3.5.5.3h1.3l.5-.3.3-.5a1.3,1.3,0,0,0,.1-.6,2.1,2.1,0,0,0-.4-1.2,2.1,2.1,0,0,0-1.1-.4,1.8,1.8,0,0,0-1.1.4A1.7,1.7,0,0,0,158.1,79.2Z"/><path class="cls-1" d="M163.6,76.5h.7V81h0l.4-.5.6-.3.6-.2h.6l1.2.2.9.6a2.1,2.1,0,0,1,.6,1,2,2,0,0,1,.3,1.1,2.4,2.4,0,0,1-.3,1.2,2.8,2.8,0,0,1-1.5,1.5,2.2,2.2,0,0,1-1.2.2h-.6l-.6-.2-.6-.4-.4-.5h0v1h-.7Zm.6,6.3a2.9,2.9,0,0,0,.2.9,1.8,1.8,0,0,0,.5.7l.7.5.9.2,1-.2.7-.5a4.3,4.3,0,0,0,.4-.7,4.1,4.1,0,0,0,0-1.8l-.4-.7-.7-.5h-1.9l-.7.5-.5.7A2.9,2.9,0,0,0,164.2,82.8Z"/><path class="cls-1" d="M218.4,82.9h-1.3v-.6h1.3l.3-1.9h-1.3v-.6h1.4l.4-2.7h.6l-.4,2.7h1.7l.3-2.7h.7l-.4,2.7H223v.6h-1.4l-.2,1.9h1.3v.6h-1.4l-.4,2.7h-.6l.4-2.7H219l-.4,2.7H218Zm2.6-2.5h-1.7l-.2,1.9h1.6Z"/><path class="cls-1" d="M228.4,83.3v1.3a1.1,1.1,0,0,1,.1.5v.5h-.6a2.8,2.8,0,0,1-.1-.9h0a2,2,0,0,1-.8.8,2.2,2.2,0,0,1-1.2.2h-.7l-.6-.3-.5-.5a2.2,2.2,0,0,1-.1-.8,1.5,1.5,0,0,1,.3-1,2.4,2.4,0,0,1,.8-.6l1-.2h1.8v-.3a1.1,1.1,0,0,0-.5-1,1.8,1.8,0,0,0-1.1-.3,2.7,2.7,0,0,0-1.7.6l-.4-.5a2.1,2.1,0,0,1,1-.6l1.1-.2a2.5,2.5,0,0,1,1.6.5,1.8,1.8,0,0,1,.6,1.5Zm-1.4-.5h-.9l-.8.2a1,1,0,0,0-.5.4c-.2.1-.2.3-.2.6a.6.6,0,0,0,.1.4l.3.3a.5.5,0,0,0,.4.2h.4l1-.2.6-.4.3-.6c0-.3.1-.5.1-.7v-.4Z"/><path class="cls-1" d="M230.2,79.2c0-.4,0-.7.2-.9a1.6,1.6,0,0,1,.4-.7l.8-.5h1.8l.8.5a1.6,1.6,0,0,1,.4.7c.2.2.2.5.2.9a1.3,1.3,0,0,1-.1.6c0,.2-.1.3-.2.5l-.5.5-.5.2h0l.7.2.5.5.3.7a1.7,1.7,0,0,1,.1.7,2,2,0,0,1-.2,1.1,3.5,3.5,0,0,1-.5.8l-.9.5h-2l-.9-.5a3.5,3.5,0,0,1-.5-.8,2,2,0,0,1-.2-1.1,1.7,1.7,0,0,1,.1-.7l.3-.7.5-.5.7-.2h0l-.5-.2-.5-.5c-.1-.2-.2-.3-.2-.5A1.3,1.3,0,0,1,230.2,79.2Zm.5,4a2.2,2.2,0,0,0,.1.8,2.9,2.9,0,0,0,.9.9l.8.2.8-.2a2.9,2.9,0,0,0,.9-.9,2.2,2.2,0,0,0,.1-.8,1.7,1.7,0,0,0-.1-.7.9.9,0,0,0-.4-.6l-.6-.4h-1.4l-.6.4a.9.9,0,0,0-.4.6A1.7,1.7,0,0,0,230.7,83.2Zm.3-4a1.3,1.3,0,0,0,.1.6l.3.5.5.3h1.2l.5-.3.3-.5a1.3,1.3,0,0,0,.1-.6,1.6,1.6,0,0,0-.4-1.2,1.7,1.7,0,0,0-2.2,0A1.6,1.6,0,0,0,231,79.2Z"/><path class="cls-1" d="M236.4,76.5h.7V81h.1l.4-.5.5-.3.7-.2h.6l1.2.2.9.6.6,1a3.6,3.6,0,0,1,.2,1.1,4.3,4.3,0,0,1-.2,1.2,3.5,3.5,0,0,1-.6.9,2.4,2.4,0,0,1-.9.6,2.5,2.5,0,0,1-1.2.2h-.6l-.7-.2-.5-.4a1,1,0,0,1-.4-.5h-.1v1h-.7Zm.7,6.3a1.5,1.5,0,0,0,.2.9,1.6,1.6,0,0,0,.4.7l.8.5.9.2.9-.2a1.8,1.8,0,0,0,.7-.5,1.6,1.6,0,0,0,.4-.7,2.1,2.1,0,0,0,0-1.8,2.5,2.5,0,0,0-.4-.7l-.7-.5h-1.8l-.8.5a2.5,2.5,0,0,0-.4.7A1.5,1.5,0,0,0,237.1,82.8Z"/><path class="cls-1" d="M248.2,83.3v1.3a1.1,1.1,0,0,1,.1.5v.5h-.6a2.8,2.8,0,0,1-.1-.9h0a2,2,0,0,1-.8.8,2.2,2.2,0,0,1-1.2.2h-.7l-.6-.3-.5-.5a2.2,2.2,0,0,1-.1-.8,1.5,1.5,0,0,1,.3-1,2.4,2.4,0,0,1,.8-.6l1-.2h1.8v-.3a1.1,1.1,0,0,0-.5-1,1.8,1.8,0,0,0-1.1-.3,2.7,2.7,0,0,0-1.7.6l-.4-.5a2.1,2.1,0,0,1,1-.6l1.1-.2a2.5,2.5,0,0,1,1.6.5,1.8,1.8,0,0,1,.6,1.5Zm-1.4-.5h-.9l-.8.2a1,1,0,0,0-.5.4c-.2.1-.2.3-.2.6a.6.6,0,0,0,.1.4c.1.1.2.3.3.3l.4.2h.4l1-.2.6-.4.3-.6c0-.3.1-.5.1-.7v-.4Z"/><path class="cls-1" d="M250,76.5h.7V81h0l.4-.5.6-.3.6-.2h.6l1.2.2.9.6a2.1,2.1,0,0,1,.6,1,2,2,0,0,1,.3,1.1,2.4,2.4,0,0,1-.3,1.2,2.8,2.8,0,0,1-1.5,1.5,2.2,2.2,0,0,1-1.2.2h-.6l-.6-.2-.6-.4-.4-.5h0v1H250Zm.6,6.3a2.9,2.9,0,0,0,.2.9,1.8,1.8,0,0,0,.5.7l.7.5.9.2,1-.2.7-.5a4.3,4.3,0,0,0,.4-.7,4.1,4.1,0,0,0,0-1.8l-.4-.7-.7-.5H252l-.7.5-.5.7A2.9,2.9,0,0,0,250.6,82.8Z"/><path class="cls-1" d="M260.7,81.9h0l-.6.2h-.6l-1.1-.2-.8-.5a4.7,4.7,0,0,1-.6-.9,3,3,0,0,1-.2-1,2.3,2.3,0,0,1,.3-1.1,2.2,2.2,0,0,1,.5-.8l.9-.5a2.2,2.2,0,0,1,1.1-.2,2,2,0,0,1,1.1.2,1.9,1.9,0,0,1,.9.5,1.6,1.6,0,0,1,.6.8,4.3,4.3,0,0,1,.2,1.1,1.3,1.3,0,0,1-.1.6c0,.2-.1.4-.1.6l-.3.5-.3.5-2.3,3.8h-.9Zm-1.1-.3.8-.2a.9.9,0,0,0,.6-.4l.5-.6a2.2,2.2,0,0,0,.1-.8,1.9,1.9,0,0,0-.1-.8,1.5,1.5,0,0,0-.4-.6,1,1,0,0,0-.7-.4l-.8-.2-.8.2c-.2,0-.4.2-.6.4a.9.9,0,0,0-.4.6,1.9,1.9,0,0,0-.2.8,2.4,2.4,0,0,0,.2.8l.4.6.7.4Z"/><path class="cls-1" d="M311,82.9h-1.3v-.6h1.4l.3-1.9h-1.3v-.6h1.3l.4-2.7h.6l-.3,2.7h1.6l.4-2.7h.6l-.4,2.7h1.3v.6h-1.3l-.3,1.9h1.3v.6h-1.4l-.3,2.7h-.7l.4-2.7h-1.7l-.3,2.7h-.7Zm2.6-2.5H312l-.3,1.9h1.7Z"/><path class="cls-1" d="M321.4,84.8a2.8,2.8,0,0,1-.9.7,3.4,3.4,0,0,1-2.3,0,2.8,2.8,0,0,1-1.5-1.5,2.4,2.4,0,0,1-.3-1.2,2,2,0,0,1,.3-1.1,2.1,2.1,0,0,1,.6-1l.9-.6,1.2-.2a2.3,2.3,0,0,1,1.1.3,2,2,0,0,1,.9.7l-.6.4-.6-.5a1.3,1.3,0,0,0-.8-.2h-1c-.2.2-.5.3-.6.5l-.5.7a4.1,4.1,0,0,0,0,1.8,1.8,1.8,0,0,0,.5.7,1.5,1.5,0,0,0,.6.5l1,.2.8-.2c.2-.2.5-.3.6-.6Z"/><path class="cls-1" d="M322.1,84.8l3.1-3.4.5-.5.4-.5.3-.6c0-.2.1-.4.1-.6A1.7,1.7,0,0,0,326,78a1.6,1.6,0,0,0-1.2-.4,1.4,1.4,0,0,0-1.1.4,1.7,1.7,0,0,0-.6,1h-.9a3.8,3.8,0,0,1,.9-1.5,3.3,3.3,0,0,1,1.7-.4h.9l.8.4.6.7a2.9,2.9,0,0,1,.2.9,3.7,3.7,0,0,1-.6,1.7l-.6.8-.6.6L322.9,85h4.4v.6h-5.2Z"/><path class="cls-1" d="M333.4,84.8a2.8,2.8,0,0,1-.9.7,2.2,2.2,0,0,1-1.1.2,2.3,2.3,0,0,1-1.2-.2,2.8,2.8,0,0,1-1.5-1.5,2.3,2.3,0,0,1-.2-1.2,2,2,0,0,1,.2-1.1,2.1,2.1,0,0,1,.6-1l.9-.6,1.2-.2a2,2,0,0,1,1.1.3,1.6,1.6,0,0,1,.9.7l-.5.4-.7-.5a1.2,1.2,0,0,0-.8-.2h-.9l-.7.5-.5.7a4.1,4.1,0,0,0,0,1.8,2.6,2.6,0,0,0,1.2,1.2l.9.2.8-.2a2,2,0,0,0,.7-.6Z"/><path class="cls-1" d="M336.7,78.1h0l-1.5,1.3-.5-.6,2.1-1.7h.6v8.5h-.7Z"/><path class="cls-1" d="M345.4,84.8a2,2,0,0,1-.9.7,2,2,0,0,1-1.1.2,2.5,2.5,0,0,1-1.2-.2,2.8,2.8,0,0,1-1.5-1.5,2.3,2.3,0,0,1-.2-1.2,2,2,0,0,1,.2-1.1,2.1,2.1,0,0,1,.6-1l.9-.6,1.2-.2a2,2,0,0,1,1.1.3,1.6,1.6,0,0,1,.9.7l-.5.4-.7-.5a1.2,1.2,0,0,0-.8-.2h-.9l-.7.5-.5.7a4.1,4.1,0,0,0,0,1.8,2.6,2.6,0,0,0,1.2,1.2l.9.2.8-.2a2,2,0,0,0,.7-.6Z"/><path class="cls-1" d="M345.9,81.4v-1c.1-.4.1-.7.2-1l.3-.9a2.2,2.2,0,0,1,.5-.8l.8-.5a1.6,1.6,0,0,1,1-.2,1.5,1.5,0,0,1,1,.2l.8.5a2.2,2.2,0,0,1,.5.8l.3.9c.1.3.1.6.2,1v1.9c-.1.4-.1.7-.2,1l-.3.9a2.2,2.2,0,0,1-.5.8l-.8.5a1.5,1.5,0,0,1-1,.2,1.6,1.6,0,0,1-1-.2l-.8-.5a2.2,2.2,0,0,1-.5-.8l-.3-.9c-.1-.3-.1-.6-.2-1Zm.8,0v.7c0,.3.1.5.1.8s.1.6.2.8a1.6,1.6,0,0,0,.4.7l.5.5.8.2.8-.2.5-.5a1.6,1.6,0,0,0,.4-.7,1.9,1.9,0,0,0,.2-.8,2.2,2.2,0,0,0,.1-.8V80.6a2.2,2.2,0,0,0-.1-.8,2.4,2.4,0,0,0-.2-.8,1.6,1.6,0,0,0-.4-.7l-.5-.5-.8-.2-.8.2-.5.5a1.6,1.6,0,0,0-.4.7c-.1.3-.1.5-.2.8s-.1.5-.1.8Z"/><path class="cls-1" d="M403.2,82.9h-1.3v-.6h1.4l.3-1.9h-1.3v-.6h1.3l.4-2.7h.6l-.4,2.7h1.7l.4-2.7h.6l-.4,2.7h1.3v.6h-1.3l-.3,1.9h1.3v.6h-1.4l-.3,2.7h-.7l.4-2.7h-1.7l-.3,2.7h-.7Zm2.6-2.5h-1.6l-.3,1.9h1.7Z"/><path class="cls-1" d="M412.2,81.9h0l-.6.2h-.7l-1-.2-.8-.5a2.4,2.4,0,0,1-.6-.9,3,3,0,0,1-.2-1,4.3,4.3,0,0,1,.2-1.1l.6-.8.9-.5a3.1,3.1,0,0,1,2.2,0,1.9,1.9,0,0,1,.9.5,2.4,2.4,0,0,1,.6.8,4.3,4.3,0,0,1,.2,1.1,1.3,1.3,0,0,1-.1.6,1.4,1.4,0,0,1-.2.6.8.8,0,0,1-.2.5l-.3.5-2.3,3.8h-.9Zm-1.1-.3.8-.2.6-.4.4-.6a1.2,1.2,0,0,0,.2-.8,1.9,1.9,0,0,0-.1-.8,1.5,1.5,0,0,0-.4-.6,1,1,0,0,0-.7-.4l-.8-.2-.8.2a.8.8,0,0,0-.6.4.9.9,0,0,0-.4.6,1.9,1.9,0,0,0-.2.8,2.4,2.4,0,0,0,.2.8l.4.6.6.4Z"/><path class="cls-1" d="M417.4,78.1h0l-1.6,1.3-.4-.6,2.1-1.7h.6v8.5h-.7Z"/><path class="cls-1" d="M424.7,81.9h0l-.6.2h-.7l-1-.2a2.6,2.6,0,0,1-.9-.5,4.1,4.1,0,0,1-.5-.9,3,3,0,0,1-.2-1,4.3,4.3,0,0,1,.2-1.1l.6-.8a1.9,1.9,0,0,1,.9-.5,3.1,3.1,0,0,1,2.2,0l.9.5.6.8a4.3,4.3,0,0,1,.2,1.1,1.3,1.3,0,0,1-.1.6,1.4,1.4,0,0,1-.2.6l-.2.5-.3.5-2.3,3.8h-.9Zm-1.1-.3.8-.2.6-.4.4-.6a2.4,2.4,0,0,0,.2-.8,1.9,1.9,0,0,0-.2-.8.9.9,0,0,0-.4-.6.8.8,0,0,0-.6-.4l-.8-.2-.8.2a.7.7,0,0,0-.6.4,1,1,0,0,0-.5.6,1.9,1.9,0,0,0-.1.8,2.4,2.4,0,0,0,.2.8l.4.6.6.4Z"/><path class="cls-1" d="M429.8,78.1h0l-1.5,1.3-.4-.6,2.1-1.7h.6v8.5h-.8Z"/><path class="cls-1" d="M437.2,81.9h0l-.6.2h-.7l-1.1-.2-.8-.5a4.1,4.1,0,0,1-.5-.9,3,3,0,0,1-.2-1,4.3,4.3,0,0,1,.2-1.1,1.6,1.6,0,0,1,.6-.8,1.9,1.9,0,0,1,.9-.5,2,2,0,0,1,1.1-.2,2.2,2.2,0,0,1,1.1.2l.9.5a2.2,2.2,0,0,1,.5.8,2.3,2.3,0,0,1,.3,1.1c0,.2-.1.4-.1.6s-.1.4-.2.6l-.3.5-.2.5-2.3,3.8h-.9Zm-1.1-.3.7-.2.7-.4.4-.6a2.4,2.4,0,0,0,.2-.8,1.9,1.9,0,0,0-.2-.8.9.9,0,0,0-.4-.6c-.2-.2-.4-.4-.6-.4l-.8-.2-.8.2a1,1,0,0,0-.7.4,1.5,1.5,0,0,0-.4.6,1.9,1.9,0,0,0-.1.8,2.2,2.2,0,0,0,.1.8l.5.6c.1.2.4.3.6.4Z"/><path class="cls-1" d="M442.3,78.1h0l-1.5,1.3-.5-.6,2.1-1.7h.6v8.5h-.7Z"/><path class="cls-1" d="M496.8,82.9h-1.3v-.6h1.4l.3-1.9h-1.3v-.6h1.3l.4-2.7h.6l-.3,2.7h1.6l.4-2.7h.6l-.4,2.7h1.3v.6h-1.3l-.3,1.9h1.3v.6h-1.4l-.3,2.7h-.7l.4-2.7h-1.7l-.3,2.7h-.7Zm2.6-2.5h-1.6l-.3,1.9h1.7Z"/><path class="cls-1" d="M507.4,84.6h0l-.4.5-.6.4-.6.2h-.6a2.2,2.2,0,0,1-1.2-.2,2.8,2.8,0,0,1-1.5-1.5,2.4,2.4,0,0,1-.3-1.2,2,2,0,0,1,.3-1.1,2.1,2.1,0,0,1,.6-1l.9-.6,1.2-.2h.6l.6.2.6.3.4.5h0V76.5h.7v9.1h-.7Zm.1-1.8a2.9,2.9,0,0,0-.2-.9l-.5-.7-.7-.5h-1.9c-.2.2-.5.3-.6.5l-.5.7a4.1,4.1,0,0,0,0,1.8,1.8,1.8,0,0,0,.5.7,1.5,1.5,0,0,0,.6.5l1,.2.9-.2a2.6,2.6,0,0,0,1.2-1.2A2.9,2.9,0,0,0,507.5,82.8Z"/><path class="cls-1" d="M510.9,80.8h.1l.5-.2h.7l1.1.2.8.5a4.1,4.1,0,0,1,.5.9,1.6,1.6,0,0,1,.2,1,2.2,2.2,0,0,1-.2,1.1,1.6,1.6,0,0,1-.6.8l-.8.5a2.5,2.5,0,0,1-1.2.2,2.2,2.2,0,0,1-1.1-.2l-.8-.5a1.6,1.6,0,0,1-.6-.8,2.2,2.2,0,0,1-.2-1.1v-.6c.1-.2.1-.4.2-.6l.3-.5c.1-.2.2-.3.2-.5l2.3-3.8h1Zm1.1.3-.7.2-.7.4-.4.6a2.2,2.2,0,0,0-.1.8,1.9,1.9,0,0,0,.1.8.9.9,0,0,0,.4.6l.6.5h1.7l.6-.5a.9.9,0,0,0,.4-.6,1.9,1.9,0,0,0,.1-.8,2.2,2.2,0,0,0-.1-.8l-.4-.6-.7-.4Z"/><path class="cls-1" d="M516,76.5h.7V81h0l.4-.5.6-.3.6-.2h.6l1.2.2.9.6a2.1,2.1,0,0,1,.6,1,2,2,0,0,1,.3,1.1,2.4,2.4,0,0,1-.3,1.2,2.8,2.8,0,0,1-1.5,1.5,2.2,2.2,0,0,1-1.2.2h-.6l-.6-.2-.6-.4-.4-.5h0v1H516Zm.6,6.3a2.9,2.9,0,0,0,.2.9,2.6,2.6,0,0,0,1.2,1.2l.9.2.9-.2a1.3,1.3,0,0,0,.7-.5,1.8,1.8,0,0,0,.5-.7,4.1,4.1,0,0,0,0-1.8l-.5-.7c-.1-.2-.4-.3-.7-.5H518l-.7.5-.5.7A2.9,2.9,0,0,0,516.6,82.8Z"/><path class="cls-1" d="M523,84.8l3.2-3.4.4-.5a1,1,0,0,0,.4-.5l.3-.6a1.3,1.3,0,0,0,.1-.6,1.7,1.7,0,0,0-.5-1.2,1.6,1.6,0,0,0-1.2-.4,1.5,1.5,0,0,0-1.1.4,1.7,1.7,0,0,0-.6,1h-.8a2.4,2.4,0,0,1,.9-1.5,2.7,2.7,0,0,1,1.6-.4h1l.8.4a1.8,1.8,0,0,1,.5.7,2.9,2.9,0,0,1,.2.9,3.7,3.7,0,0,1-.6,1.7,3.5,3.5,0,0,1-.5.8l-.7.6L523.8,85h4.4v.6H523Z"/><path class="cls-1" d="M529.2,84.8l3.2-3.4.5-.5.3-.5a.9.9,0,0,0,.3-.6,1.3,1.3,0,0,0,.1-.6,1.6,1.6,0,0,0-.4-1.2,2,2,0,0,0-1.3-.4,1.5,1.5,0,0,0-1.1.4,1.7,1.7,0,0,0-.6,1h-.8a2.4,2.4,0,0,1,.9-1.5A3.1,3.1,0,0,1,532,77h.9l.8.4a1.8,1.8,0,0,1,.5.7,1.5,1.5,0,0,1,.2.9,2.2,2.2,0,0,1-.1.9,5.9,5.9,0,0,1-.4.8l-.6.8-.6.6L530,85h4.5v.6h-5.3Z"/><path class="cls-1" d="M539.2,81.9h0l-.6.2h-.7l-1-.2-.9-.5a4.1,4.1,0,0,1-.5-.9,3,3,0,0,1-.2-1,4.3,4.3,0,0,1,.2-1.1l.6-.8.9-.5a3.1,3.1,0,0,1,2.2,0,2.6,2.6,0,0,1,.9.5l.6.8a4.3,4.3,0,0,1,.2,1.1,1.3,1.3,0,0,1-.1.6,1.4,1.4,0,0,1-.2.6c-.1.2-.1.4-.2.5l-.3.5-2.3,3.8h-.9Zm-1.1-.3.8-.2.6-.4a2.1,2.1,0,0,0,.4-.6,2.4,2.4,0,0,0,.2-.8,1.9,1.9,0,0,0-.2-.8,1.8,1.8,0,0,0-1-1l-.8-.2-.8.2a1.8,1.8,0,0,0-1,1,1.9,1.9,0,0,0-.2.8,2.4,2.4,0,0,0,.2.8l.4.6.6.4Z"/><rect class="cls-2" x="14" y="47.9" width="85" height="13.78"/><rect class="cls-3" x="14" y="36.8" width="85" height="11.78"/><rect class="cls-4" x="14" y="25.1" width="85" height="11.78"/><rect class="cls-5" x="14" y="13.3" width="85" height="11.78"/><rect class="cls-6" x="106.4" y="47.9" width="85" height="13.78"/><rect class="cls-7" x="106.4" y="36.8" width="85" height="11.78"/><rect class="cls-8" x="106.4" y="25.1" width="85" height="11.78"/><rect class="cls-9" x="106.4" y="13.3" width="85" height="11.78"/><rect class="cls-10" x="198.7" y="47.9" width="85" height="13.78"/><rect class="cls-11" x="198.7" y="36.8" width="85" height="11.78"/><rect class="cls-12" x="198.7" y="25.1" width="85" height="11.78"/><rect class="cls-13" x="198.7" y="13.3" width="85" height="11.78"/><rect class="cls-14" x="291.1" y="47.9" width="85" height="13.78"/><rect class="cls-15" x="291.1" y="36.8" width="85" height="11.78"/><rect class="cls-16" x="291.1" y="25.1" width="85" height="11.78"/><rect class="cls-17" x="291.1" y="13.3" width="85" height="11.78"/><rect class="cls-18" x="383.4" y="47.9" width="85" height="13.78"/><rect class="cls-19" x="383.4" y="36.8" width="85" height="11.78"/><rect class="cls-20" x="383.4" y="25.1" width="85" height="11.78"/><rect class="cls-21" x="383.4" y="13.3" width="85" height="11.78"/><rect class="cls-22" x="475.8" y="47.9" width="85" height="13.78"/><rect class="cls-23" x="475.8" y="36.8" width="85" height="11.78"/><rect class="cls-24" x="475.8" y="25.1" width="85" height="11.78"/><rect class="cls-25" x="475.8" y="13.3" width="85" height="11.78"/></svg>