<svg xmlns="http://www.w3.org/2000/svg" viewBox="0 0 352 130"><defs><style>.cls-1{fill:#231f20;}</style></defs><title>groupA</title><g id="Layer_3" data-name="Layer 3"><path class="cls-1" d="M21.5,18V6.6h.3v11h5.7V18Z"/><path class="cls-1" d="M36.1,14.3a4.4,4.4,0,0,1-.2,1.6,8.3,8.3,0,0,1-.8,1.2,5.7,5.7,0,0,1-1.3.8,3.3,3.3,0,0,1-1.5.3,4.1,4.1,0,0,1-1.6-.3l-1.2-.8a8.3,8.3,0,0,1-.8-1.2,4.5,4.5,0,0,1-.3-1.6,4.1,4.1,0,0,1,.3-1.6,3.6,3.6,0,0,1,.8-1.2,3.8,3.8,0,0,1,2.8-1.1,3.3,3.3,0,0,1,1.5.3,3.5,3.5,0,0,1,1.3.8,3.6,3.6,0,0,1,.8,1.2A4.1,4.1,0,0,1,36.1,14.3Zm-.3,0a5.9,5.9,0,0,0-.2-1.4,4.7,4.7,0,0,0-.7-1.2,4.1,4.1,0,0,0-1.1-.7l-1.5-.3a3.7,3.7,0,0,0-1.5.3,4.1,4.1,0,0,0-1.1.7,4.7,4.7,0,0,0-.7,1.2,5.9,5.9,0,0,0-.2,1.4,6.8,6.8,0,0,0,.2,1.4,4.1,4.1,0,0,0,.7,1.1l1.1.8a3.7,3.7,0,0,0,1.5.3,4,4,0,0,0,1.5-.3l1.1-.8a4.1,4.1,0,0,0,.7-1.1A6.8,6.8,0,0,0,35.8,14.3Z"/><path class="cls-1" d="M45.2,16h-.1a2.6,2.6,0,0,1-.5.9l-.8.7-1,.4-1,.2a4,4,0,0,1-1.5-.3l-1.1-.8a3.5,3.5,0,0,1-.8-1.3,3.3,3.3,0,0,1-.3-1.5,3.3,3.3,0,0,1,.3-1.5,3.5,3.5,0,0,1,.8-1.3,2.8,2.8,0,0,1,1.1-.8l1.5-.3a4.6,4.6,0,0,1,2,.5,4.5,4.5,0,0,1,1.3,1.7h.1v-2h.3v6.9a4.7,4.7,0,0,1-.2,1.7,3,3,0,0,1-.6,1.4,2.7,2.7,0,0,1-1.1,1,4.3,4.3,0,0,1-1.7.4,5.8,5.8,0,0,1-1.9-.4,4.5,4.5,0,0,1-1.4-1l.3-.3a2.8,2.8,0,0,0,1.4,1,2.9,2.9,0,0,0,1.6.4,3.8,3.8,0,0,0,1.6-.4,2.2,2.2,0,0,0,1-.9,5,5,0,0,0,.5-1.3,7.8,7.8,0,0,0,.2-1.6Zm-6.7-1.7a6.8,6.8,0,0,0,.2,1.4,4.1,4.1,0,0,0,.7,1.1,2.5,2.5,0,0,0,1,.8,3.4,3.4,0,0,0,2.8,0,2.5,2.5,0,0,0,1-.8,2.6,2.6,0,0,0,.7-1.1,3.5,3.5,0,0,0,.3-1.4,3.2,3.2,0,0,0-.3-1.4,2.6,2.6,0,0,0-.7-1.1,2.5,2.5,0,0,0-1-.8,3.4,3.4,0,0,0-2.8,0,2.5,2.5,0,0,0-1,.8,4.1,4.1,0,0,0-.7,1.1A6.8,6.8,0,0,0,38.5,14.3Z"/><path class="cls-1" d="M55.8,14.3a8.8,8.8,0,0,1-.2,1.6l-.8,1.2a5.7,5.7,0,0,1-1.3.8,3.7,3.7,0,0,1-1.5.3,4.1,4.1,0,0,1-1.6-.3l-1.2-.8-.8-1.2a4.5,4.5,0,0,1-.3-1.6,4.1,4.1,0,0,1,.3-1.6,3.6,3.6,0,0,1,.8-1.2A3.8,3.8,0,0,1,52,10.4a3.7,3.7,0,0,1,1.5.3,3.5,3.5,0,0,1,1.3.8,3.6,3.6,0,0,1,.8,1.2A7.8,7.8,0,0,1,55.8,14.3Zm-.3,0a3.2,3.2,0,0,0-.3-1.4,2.7,2.7,0,0,0-.6-1.2L53.4,11a3.2,3.2,0,0,0-1.4-.3,3.7,3.7,0,0,0-1.5.3,4.1,4.1,0,0,0-1.1.7,4.7,4.7,0,0,0-.7,1.2,5.9,5.9,0,0,0-.2,1.4,6.8,6.8,0,0,0,.2,1.4,4.1,4.1,0,0,0,.7,1.1l1.1.8a3.7,3.7,0,0,0,1.5.3,3.2,3.2,0,0,0,1.4-.3,5,5,0,0,0,1.2-.8,2.4,2.4,0,0,0,.6-1.1A3.5,3.5,0,0,0,55.5,14.3Z"/><path class="cls-1" d="M64.9,7V18h-.3V7H60.7V6.6h8.1V7Z"/><path class="cls-1" d="M70.4,20.4a3,3,0,0,1-.7,1.1,2,2,0,0,1-1.1.3h-.7v-.3h1.2l.4-.3.3-.5c.1-.2.2-.3.2-.5l.7-1.9-2.9-7.6h.4L71,17.8l2.6-7.2H74Z"/><path class="cls-1" d="M76.4,12.6a4.7,4.7,0,0,1,1.4-1.7,4.2,4.2,0,0,1,2-.5,3.2,3.2,0,0,1,1.4.3,2.5,2.5,0,0,1,1.2.8,5,5,0,0,1,.8,1.2,7.8,7.8,0,0,1,.2,1.6,6.1,6.1,0,0,1-.2,1.5,5.7,5.7,0,0,1-.8,1.3,3.6,3.6,0,0,1-1.2.8,3.2,3.2,0,0,1-1.4.3L78.7,18l-.9-.4a2.7,2.7,0,0,1-.8-.7,7,7,0,0,1-.6-.9h0v5.8H76V10.6h.4v2Zm6.7,1.7a3.5,3.5,0,0,0-.3-1.4,2.4,2.4,0,0,0-.6-1.1,2.8,2.8,0,0,0-1.1-.8,2.8,2.8,0,0,0-1.3-.3,3.2,3.2,0,0,0-1.4.3,2.8,2.8,0,0,0-1.1.8,4.1,4.1,0,0,0-.7,1.1,5.9,5.9,0,0,0-.2,1.4,6.8,6.8,0,0,0,.2,1.4,4.1,4.1,0,0,0,.7,1.1l1.1.8a3.2,3.2,0,0,0,1.4.3,2.8,2.8,0,0,0,1.3-.3l1.1-.8a2.4,2.4,0,0,0,.6-1.1A3.5,3.5,0,0,0,83.1,14.3Z"/><path class="cls-1" d="M85.8,14.2a2.7,2.7,0,0,0,.2,1.3,2.3,2.3,0,0,0,.6,1.2,2,2,0,0,0,1,.8,2.4,2.4,0,0,0,1.5.4,2.6,2.6,0,0,0,1.5-.4,2.8,2.8,0,0,0,1.2-1l.2.3a3.8,3.8,0,0,1-1.2,1,3.3,3.3,0,0,1-1.7.4,3.3,3.3,0,0,1-1.5-.3,3.6,3.6,0,0,1-1.2-.8,3.3,3.3,0,0,1-.7-1.3,4.1,4.1,0,0,1-.3-1.6,3.7,3.7,0,0,1,.3-1.5,3.5,3.5,0,0,1,.7-1.2,2.1,2.1,0,0,1,1.1-.8,3.5,3.5,0,0,1,1.4-.3,3.3,3.3,0,0,1,1.5.3,3.1,3.1,0,0,1,1.1.8,2.4,2.4,0,0,1,.6,1.1,3,3,0,0,1,.2,1.3v.3Zm6.2-.3a2.8,2.8,0,0,0-.3-1.3,2.1,2.1,0,0,0-.6-1l-1-.7-1.2-.2a2.9,2.9,0,0,0-1.4.3,4.3,4.3,0,0,0-1,.9,4.7,4.7,0,0,0-.5,1,2,2,0,0,0-.2,1Z"/><path class="cls-1" d="M97.8,6H96.4c-.2.2-.4.3-.5.5a1.4,1.4,0,0,0-.2.6,2,2,0,0,0-.1.7v2.7h2v.3h-2V18h-.4V10.9H93.7v-.3h1.5V8a3.7,3.7,0,0,1,.2-1.2,4.3,4.3,0,0,1,.4-.7l.7-.3h1.4Z"/><path class="cls-1" d="M104.5,16.3a2.8,2.8,0,0,0,.1.9V18h-.3v-.4a.9.9,0,0,1-.1-.5v-.9h-.1a2.5,2.5,0,0,1-1.1,1.5,3.4,3.4,0,0,1-1.7.5h-.8l-.8-.4a1.3,1.3,0,0,1-.6-.7,2.4,2.4,0,0,1-.2-.9,1.8,1.8,0,0,1,.4-1.3,2.3,2.3,0,0,1,1-.7l1.3-.4h2.6v-.5a2.2,2.2,0,0,0-.7-1.8,2.4,2.4,0,0,0-1.7-.6l-1.2.2a2.6,2.6,0,0,0-1,.7l-.2-.3a4.1,4.1,0,0,1,1.1-.7l1.3-.2a3.2,3.2,0,0,1,2,.6,2.7,2.7,0,0,1,.7,2.1Zm-.3-2.4h-2.5l-1.2.3a2.2,2.2,0,0,0-.9.7,1.6,1.6,0,0,0-.4,1.1,1.9,1.9,0,0,0,.2.8l.5.6.7.3h.7a2.9,2.9,0,0,0,1.4-.3,2.4,2.4,0,0,0,.9-.8,4.2,4.2,0,0,0,.4-1,5.2,5.2,0,0,0,.2-1.1Z"/><path class="cls-1" d="M112.9,11.6l-1-.7-1.1-.2a3.7,3.7,0,0,0-1.5.3,2.5,2.5,0,0,0-1,.8,4.1,4.1,0,0,0-.7,1.1,3.4,3.4,0,0,0-.2,1.4,3.4,3.4,0,0,0,.2,1.4,4.1,4.1,0,0,0,.7,1.1,3.9,3.9,0,0,0,1,.8,3.7,3.7,0,0,0,1.5.3l1.1-.2,1.1-.6.2.2a4.1,4.1,0,0,1-1.1.7l-1.3.2a3.3,3.3,0,0,1-1.5-.3,3.6,3.6,0,0,1-1.2-.8,3.2,3.2,0,0,1-.8-1.2,4.4,4.4,0,0,1,0-3.2,3.2,3.2,0,0,1,.8-1.2,2.5,2.5,0,0,1,1.2-.8,3.3,3.3,0,0,1,1.5-.3l1.3.2a2.8,2.8,0,0,1,1.1.8Z"/><path class="cls-1" d="M115,14.2a5.1,5.1,0,0,0,.2,1.3,6.7,6.7,0,0,0,.6,1.2,2.8,2.8,0,0,0,1.1.8,2.4,2.4,0,0,0,1.5.4,2.8,2.8,0,0,0,1.5-.4,3.5,3.5,0,0,0,1.2-1l.2.3a4.1,4.1,0,0,1-1.3,1,2.7,2.7,0,0,1-1.6.4,3.3,3.3,0,0,1-1.5-.3,3.6,3.6,0,0,1-1.2-.8,3.3,3.3,0,0,1-.7-1.3,4.1,4.1,0,0,1-.3-1.6,3.7,3.7,0,0,1,.3-1.5,2.4,2.4,0,0,1,.7-1.2,2.1,2.1,0,0,1,1.1-.8,3.2,3.2,0,0,1,1.4-.3,3.3,3.3,0,0,1,1.5.3l1.1.8a2.4,2.4,0,0,1,.6,1.1,5.9,5.9,0,0,1,.2,1.3v.3Zm6.3-.3a2.8,2.8,0,0,0-.3-1.3,3.3,3.3,0,0,0-.6-1l-1-.7-1.2-.2a2.6,2.6,0,0,0-1.4.3c-.4.3-.8.5-1,.9a2.7,2.7,0,0,0-.6,1,3.8,3.8,0,0,0-.1,1Z"/><path class="cls-1" d="M27.7,35.2a2.5,2.5,0,0,1-.2,1.3,3.9,3.9,0,0,1-.8,1,2.4,2.4,0,0,1-1.1.6l-1.3.2a4.1,4.1,0,0,1-1.9-.4,4,4,0,0,1-1.5-1l.3-.2a4.2,4.2,0,0,0,1.4.9,3.5,3.5,0,0,0,1.7.4l1.2-.2,1-.5a2.4,2.4,0,0,0,.6-.9,2.1,2.1,0,0,0,.3-1.2,2,2,0,0,0-.3-1.1,2.3,2.3,0,0,0-.7-.7l-1-.6-1.1-.4L23,32l-1-.6a2.4,2.4,0,0,1-.6-.9,2.1,2.1,0,0,1-.3-1.2,2.8,2.8,0,0,1,.3-1.3,3.4,3.4,0,0,1,.8-.9,3.9,3.9,0,0,1,1.1-.6l1.3-.2a5.1,5.1,0,0,1,1.7.3,4,4,0,0,1,1.2,1l-.2.2a3.8,3.8,0,0,0-1.2-.9,3.3,3.3,0,0,0-1.5-.3l-1.1.2a3.1,3.1,0,0,0-1,.5,1.8,1.8,0,0,0-.7.8,2.1,2.1,0,0,0-.3,1.2,3.6,3.6,0,0,0,.2,1.1,2.7,2.7,0,0,0,.7.8,1.9,1.9,0,0,0,.9.5l1,.4,1.3.5a2,2,0,0,1,1.1.6,2,2,0,0,1,.8.8A2.5,2.5,0,0,1,27.7,35.2Z"/><path class="cls-1" d="M30.7,27.8h-.3a1,1,0,0,1-.1-.3v-.3H31v.3a1,1,0,0,1-.1.3ZM30.5,38V30.6h.4V38Z"/><path class="cls-1" d="M40.5,36h0a1.8,1.8,0,0,1-.6.9,4.6,4.6,0,0,1-.7.7l-1,.4-1,.2a4,4,0,0,1-1.5-.3l-1.2-.8a5.4,5.4,0,0,1-.7-1.3,3.9,3.9,0,0,1,0-3,5.4,5.4,0,0,1,.7-1.3,4.2,4.2,0,0,1,1.2-.8,4,4,0,0,1,1.5-.3,4.1,4.1,0,0,1,1.9.5,3.9,3.9,0,0,1,1.4,1.7h0v-2h.4v6.9a8.8,8.8,0,0,1-.2,1.7,3,3,0,0,1-.6,1.4,3.5,3.5,0,0,1-1.1,1,4.7,4.7,0,0,1-1.7.4,5.8,5.8,0,0,1-1.9-.4,4.5,4.5,0,0,1-1.4-1l.3-.3a3.1,3.1,0,0,0,1.3,1,3.5,3.5,0,0,0,1.7.4,4.2,4.2,0,0,0,1.6-.4,2.8,2.8,0,0,0,1-.9,5,5,0,0,0,.5-1.3,8.1,8.1,0,0,0,.1-1.6Zm-6.6-1.7a3.4,3.4,0,0,0,.2,1.4,2.6,2.6,0,0,0,.7,1.1,2,2,0,0,0,1,.8,3.2,3.2,0,0,0,1.4.3,2.8,2.8,0,0,0,1.3-.3,2.8,2.8,0,0,0,1.1-.8,4.1,4.1,0,0,0,.7-1.1,3.5,3.5,0,0,0,.3-1.4,3.2,3.2,0,0,0-.3-1.4,4.1,4.1,0,0,0-.7-1.1,2.8,2.8,0,0,0-1.1-.8,2.8,2.8,0,0,0-1.3-.3,3.2,3.2,0,0,0-1.4.3,2,2,0,0,0-1,.8,2.6,2.6,0,0,0-.7,1.1A3.4,3.4,0,0,0,33.9,34.3Z"/><path class="cls-1" d="M45,31.6l.7-.7.9-.4h.9a2.8,2.8,0,0,1,1.3.3,1.8,1.8,0,0,1,.8.7,3,3,0,0,1,.4,1,4.1,4.1,0,0,1,.1,1.1V38h-.3V33.5a3.1,3.1,0,0,0-.1-.9,1.9,1.9,0,0,0-.4-.9,1.6,1.6,0,0,0-.7-.7,2,2,0,0,0-1.1-.3l-1.2.2-.9.7a4.5,4.5,0,0,0-.6,1.2,3.4,3.4,0,0,0-.2,1.5V38h-.4V31c0-.2-.1-.3-.1-.4h.4v1.9h.1A3.6,3.6,0,0,1,45,31.6Z"/><path class="cls-1" d="M60,29.5a2.4,2.4,0,0,1-.3,1.2,2.2,2.2,0,0,1-.7.9,2.4,2.4,0,0,1-1.1.6l-1.2.2h-3V38h-.3V26.6h3l1.3.2,1.1.4a2.4,2.4,0,0,1,.8.9A2.9,2.9,0,0,1,60,29.5Zm-.4,0a2.1,2.1,0,0,0-.3-1.2,1.9,1.9,0,0,0-.7-.8l-.9-.4-1.1-.2H53.7v5.2h3l1-.2a1.8,1.8,0,0,0,1-.4,1.6,1.6,0,0,0,.6-.8A2.7,2.7,0,0,0,59.6,29.5Z"/><path class="cls-1" d="M66.6,36.3v.9c0,.3.1.6.1.8h-.3a.6.6,0,0,1-.1-.4v-.5a.9.9,0,0,1-.1-.5v-.4h0a2.5,2.5,0,0,1-1.1,1.5,3.4,3.4,0,0,1-1.7.5h-.9l-.8-.4-.6-.7a2.4,2.4,0,0,1-.2-.9,2.5,2.5,0,0,1,.4-1.3,2.1,2.1,0,0,1,1.1-.7l1.3-.4h2.5v-.5a2.2,2.2,0,0,0-.6-1.8,2.8,2.8,0,0,0-1.8-.6l-1.2.2-1,.7-.2-.3,1.2-.7,1.2-.2a3,3,0,0,1,2,.6,2.7,2.7,0,0,1,.8,2.1Zm-.4-2.4H63.8l-1.2.3-1,.7a1.6,1.6,0,0,0-.3,1.1,1.1,1.1,0,0,0,.2.8c.1.3.3.4.5.6l.7.3h.7a3.2,3.2,0,0,0,1.4-.3,3,3,0,0,0,.8-.8,4.7,4.7,0,0,0,.5-1,4.5,4.5,0,0,0,.1-1.1Z"/><path class="cls-1" d="M69.9,27.8h-.3c-.1,0-.1-.2-.1-.3a.4.4,0,0,1,.1-.3h.5a.4.4,0,0,1,.1.3c0,.1,0,.3-.1.3ZM69.7,38V30.6H70V38Z"/><path class="cls-1" d="M74.2,31.6a4.6,4.6,0,0,1,.7-.7l.8-.4h.9a2.3,2.3,0,0,1,1.3.3,1.4,1.4,0,0,1,.8.7,3.1,3.1,0,0,1,.5,1,4.1,4.1,0,0,1,.1,1.1V38h-.4V33.5a3.1,3.1,0,0,0-.1-.9,1.2,1.2,0,0,0-.3-.9l-.7-.7a2.1,2.1,0,0,0-1.2-.3l-1.1.2a2.2,2.2,0,0,0-.9.7,4.7,4.7,0,0,0-.7,1.2,6.1,6.1,0,0,0-.2,1.5V38h-.3V32a.7.7,0,0,1-.1-.5v-.9h.3c0,.1.1.2.1.4v1.5h0A4.1,4.1,0,0,1,74.2,31.6Z"/><path class="cls-1" d="M84.8,38.1h-.4a1.7,1.7,0,0,1-1.3-.5,2.8,2.8,0,0,1-.3-1.3V30.9H81.2v-.3h1.5V28.4h.4v2.2h2.1v.3H83.1v5.5a1.2,1.2,0,0,0,.4,1.1,1.3,1.3,0,0,0,.9.4l.8-.2V38Z"/><path class="cls-1" d="M87,34.2a5.1,5.1,0,0,0,.2,1.3,6.7,6.7,0,0,0,.6,1.2,2.8,2.8,0,0,0,1.1.8,2.4,2.4,0,0,0,1.5.4,2.8,2.8,0,0,0,1.5-.4,3.5,3.5,0,0,0,1.2-1l.2.3a4.1,4.1,0,0,1-1.3,1,2.7,2.7,0,0,1-1.6.4,3.3,3.3,0,0,1-1.5-.3,3.6,3.6,0,0,1-1.2-.8,3.3,3.3,0,0,1-.7-1.3,4.1,4.1,0,0,1-.3-1.6,3.7,3.7,0,0,1,.3-1.5,2.4,2.4,0,0,1,.7-1.2,2.1,2.1,0,0,1,1.1-.8,3.2,3.2,0,0,1,1.4-.3,3.3,3.3,0,0,1,1.5.3l1.1.8a2.4,2.4,0,0,1,.6,1.1,5.9,5.9,0,0,1,.2,1.3v.3Zm6.3-.3a2.8,2.8,0,0,0-.3-1.3,3.3,3.3,0,0,0-.6-1l-1-.7-1.2-.2a2.6,2.6,0,0,0-1.4.3c-.4.3-.8.5-1,.9a2.7,2.7,0,0,0-.6,1,3.8,3.8,0,0,0-.1,1Z"/><path class="cls-1" d="M97.7,30.9a2,2,0,0,1,1.5-.5h.3v.3h-.2a2.1,2.1,0,0,0-1.2.3,3.4,3.4,0,0,0-.9.8,3.6,3.6,0,0,0-.4,1.1,5.9,5.9,0,0,0-.2,1.3V38h-.3V32a1.1,1.1,0,0,0-.1-.5v-.9h.3c.1.1.1.2.1.4v1.5h0A3.3,3.3,0,0,1,97.7,30.9Z"/><path class="cls-1" d="M22.3,81.3c-.7,1.1-1.2,2.2-1.7,3.1a.2.2,0,0,1-.4.1,3,3,0,0,1,.1-2.3,6.7,6.7,0,0,0,.6-1.2,1.6,1.6,0,0,1-.7-.8c-.1-.3-.1-.3.3-.3h.9c1.8-3,4.8-7.3,7.2-9.3.3-.2.5-.2.7.1a2.3,2.3,0,0,1,.6.9,2.2,2.2,0,0,1,0,1.6,52.7,52.7,0,0,0-1.7,6.4c.7.2,1,.6,1,1.1s0,.3-.2.2h-.9c-.2,1.1-.3,2.3-.4,3.5s-.1.3-.3.2-.8-.8-.8-2a10.9,10.9,0,0,1,.1-1.7Zm4.5-1.7a37.5,37.5,0,0,1,1.7-6.8,62.5,62.5,0,0,0-5.4,7.1Z"/><path class="cls-1" d="M37.4,75.9c.2-.3.4-.4.6-.2a2.5,2.5,0,0,1-.1,2.5c-.5,1-1.6,2.6-2.1,3.8s-.6,2.2.2,2.1,2.1-1.5,2.9-3,.2-.3.3-.1a1.9,1.9,0,0,1-.2,1.4,4,4,0,0,1-3.1,2.4A1.7,1.7,0,0,1,34.1,83a3.8,3.8,0,0,1-2.8,1.7c-2,0-2.5-2.8-.6-5.5s3.5-3.6,4.6-3.6a1.3,1.3,0,0,1,1.3,1.6Zm-1.7.9c-.7-.1-2.3,1.3-3.6,3.3s-1.4,3.8-.6,3.8,2.1-1.3,3.2-3.3S36.3,76.8,35.7,76.8Z"/><path class="cls-1" d="M46.5,72.2c-.1-.2-.1-.3.2-.3s3.5-1.2,5-1.3a2.3,2.3,0,0,1,2.6,1.8,3.8,3.8,0,0,1-.8,3.6,8.9,8.9,0,0,1-3.4,2.6,3.5,3.5,0,0,1,1.1,1,2.6,2.6,0,0,1-.6,3,7.4,7.4,0,0,1-3.8,2,2.4,2.4,0,0,1-1.9-.1,3.5,3.5,0,0,1-1.1-1c-.3-.5-.5-.8,0-2.2A39.8,39.8,0,0,1,48,73.1,1.4,1.4,0,0,1,46.5,72.2Zm1.2,7.1a2.4,2.4,0,0,1-1.3-.2,19.7,19.7,0,0,0-1.5,3.4c-.2.8,0,1.1.7,1a7.6,7.6,0,0,0,4.3-2.3c.8-1,.8-2-1.2-2.1Zm5.8-6.7c-.5-1.2-2.6-.2-4.2.3a4,4,0,0,1-.6,2.2L47,78C51.3,77,54,74,53.5,72.6Z"/><path class="cls-1" d="M55.8,84.6A2.3,2.3,0,0,1,53.5,83l-.6,1.5a.2.2,0,0,1-.4.1,2.8,2.8,0,0,1-.1-2.5,94.4,94.4,0,0,1,6.4-12q.3-.4.6,0c.3.6.3,1.6-.6,3.2s-1.3,2.2-2,3.4a3.2,3.2,0,0,1,1.9-.9c1.9,0,2,2.6.8,5.2S57.1,84.6,55.8,84.6Zm1-7.1a24.3,24.3,0,0,0-2.9,4.6,1.8,1.8,0,0,0,1,1.5c.7.2,1.7-.5,3-3.1s1-3.8.5-3.8S57.5,76.9,56.8,77.5Z"/><path class="cls-1" d="M74.2,79.9c.6,1.5-.9,3.1-1.8,3.8a3.9,3.9,0,0,1-6.5-3.3c-.1-4.6,3.9-8.6,6.3-9.6s2.3-.5,3,.1a4.5,4.5,0,0,1,1.2,1.6,2.5,2.5,0,0,1-.2,1.9,12.8,12.8,0,0,0-.9,2.2c-.1.2-.2.3-.5.2a1.8,1.8,0,0,1-.5-2.2c.3-1.1,1.1-2.4.6-2.9S71,72.8,69,76.1s-1.7,6.5-.7,7.3,3.8-.3,5.4-3.6C73.9,79.6,74.1,79.6,74.2,79.9Z"/><path class="cls-1" d="M82,77.1c.5.9-.4,2.1-.8,3.3s-.2.3-.5.1-.8-.9-.5-1.9.9-1.7.6-2-2.1,1.1-3.1,3.1-.7,4.4.6,4.4,3.4-1.8,4.3-3.1a.2.2,0,0,1,.4,0c.1.2,0,.7-.4,1.3a5.2,5.2,0,0,1-4.2,2.4c-2.8,0-3.8-2.7-2.3-5.5s3.6-4,4.7-3.3A2.3,2.3,0,0,1,82,77.1Z"/><path class="cls-1" d="M90.2,72.4c0-.2,0-.4.3-.4s2.6-1.1,4-1.3a3.2,3.2,0,0,1,3.3,1.9c2.1,3.6-1.9,10-7.8,11.9a1.2,1.2,0,0,1-1.4-.1,4.7,4.7,0,0,1-.9-1c-.4-.5-.5-.9-.1-2.3a42.1,42.1,0,0,1,4.1-7.8A1.7,1.7,0,0,1,90.2,72.4Zm2.1,3a57,57,0,0,0-3.6,6.9c-.2,1-.1,1.3.6,1,6-2.3,8.8-8.5,7.5-10.6s-2.4-.1-4,.4A3.6,3.6,0,0,1,92.3,75.4Z"/><path class="cls-1" d="M103.7,84.1c.9,0,2.1-1.5,2.8-3s.3-.2.4,0a1.7,1.7,0,0,1-.2,1.3c-.6,1.2-1.9,2.4-3.1,2.3a1.6,1.6,0,0,1-1.8-1.7A3.8,3.8,0,0,1,99,84.7c-2,0-2.4-2.8-.6-5.5s3.5-3.5,4.6-3.5,1.3.7,1.3,1.5a70.5,70.5,0,0,1,3.7-6.4c.2-.3.4-.3.5,0s.2,1.7-.7,3.3-3.1,5.6-4.2,7.9S102.9,84.2,103.7,84.1Zm-3.8-4c-1.2,1.9-1.5,3.8-.6,3.8s2.1-1.2,3.1-3.2,1.6-3.9,1-3.9S101.1,78.2,99.9,80.1Z"/><path class="cls-1" d="M115,71.7c-.1-.2,0-.3.2-.3,1.9.1,4.3-.5,5.5-.5a1.6,1.6,0,0,1,1.7,1.1c.1.1,0,.3-.3.2a29.2,29.2,0,0,0-4.4.6c-.9,1.4-2,3.3-3.1,5.2h1.6c1.1-.1,1.6.3,1.8.9s.1.4-.2.4a19.3,19.3,0,0,0-4.1.6L112,83.3a11.5,11.5,0,0,1,3.4-.7c1.1-.1,1.7.3,1.9,1s0,.3-.2.3a22.1,22.1,0,0,0-4.9.9.7.7,0,0,1-.9-.3,5.6,5.6,0,0,1-.5-.8c-.2-.3-.2-.6.1-1.2a64.1,64.1,0,0,1,5-9.7A1.4,1.4,0,0,1,115,71.7Z"/><path class="cls-1" d="M121.6,84.1c1.8.1,3.4-1.7,4.3-3.1s.3-.2.4,0a1.6,1.6,0,0,1-.4,1.3,5.3,5.3,0,0,1-4.3,2.4c-2.8.1-3.7-2.7-2.3-5.5s3.7-4,4.8-3.4a7.4,7.4,0,0,1,1.3,1.2c.4.5.2,1.8-.7,3s-2.6,1.9-4.1.6C119.9,82.6,120.4,84,121.6,84.1Zm1.8-5.1c.7-.9,1.2-2,.9-2.3s-2.3,1-3.3,3l-.2.4C121.9,80.8,122.8,79.9,123.4,79Z"/><path class="cls-1" d="M134.3,71.7c-.1-.2,0-.3.2-.3,1.9.1,4.2-.5,5.4-.5a1.7,1.7,0,0,1,1.8,1.1c.1.2,0,.3-.2.3a30.2,30.2,0,0,0-4.6.6l-2.9,5h1.5a1.6,1.6,0,0,1,1.9,1c0,.2,0,.4-.3.4a14.4,14.4,0,0,0-4,.6,40.5,40.5,0,0,0-2.3,4.7c-.1.2-.2.2-.4.1s-.6-1-.2-2.4a72.7,72.7,0,0,1,4.9-9.4A1.5,1.5,0,0,1,134.3,71.7Z"/><path class="cls-1" d="M141.2,82.9v.7a7.4,7.4,0,0,0,2.3-2.8c.1-.2.3-.3.4,0a1.8,1.8,0,0,1-.2,1.4,5.5,5.5,0,0,1-2.6,2.3,13.8,13.8,0,0,1-2.4,5.9c-.7,1-1.3,1.1-2,.5a3.2,3.2,0,0,1-.9-3.2c.6-4.9,5.7-13.3,8.1-17a.3.3,0,0,1,.6,0c.2.8.1,1.7-.8,3.3s-2.4,4-3.6,6.3C140.9,80.6,141.3,81.4,141.2,82.9ZM137,90c.5.7,2.1-2.4,2.9-5.4a1.6,1.6,0,0,1-1.4-.9C137.3,86.7,136.5,89.4,137,90Zm3.2-7.6c0-.8-.2-1.5-.4-1.4s-.4,1.2-.4,1.7.2,1.2.6,1.3A10,10,0,0,0,140.2,82.4Z"/><path class="cls-1" d="M153.8,84.5a3.7,3.7,0,0,1-5.1-3.8c0-4.8,4.4-8.9,6.9-9.8a3.1,3.1,0,0,1,3,.2,3.1,3.1,0,0,1,1.1,1.5,2.8,2.8,0,0,1-.2,2c-.2.5-.6,1.4-.8,2.1s-.2.3-.5.1a2,2,0,0,1-.6-2.1c.3-1.1,1.2-2.3.7-2.8s-4.3,1.1-6.4,4.3-2,6.5-1.1,7.3,3.8-.5,5.1-3.2l-1.9.3a1.9,1.9,0,0,1-2.1-1c-.1-.3-.1-.4.2-.4s3.4-.6,4.7-.6a2,2,0,0,1,2,1.1c.1.3.1.4-.2.4h-1.5C157.6,82.2,154.9,84.2,153.8,84.5Z"/><path class="cls-1" d="M163.9,85.3c-1.3,2.9-2.8,6.4-4.6,7.1A1,1,0,0,1,158,92a3.2,3.2,0,0,1-.4-2.8c.6-2,2.5-3.3,4.7-4.1l.6-1.5a3.3,3.3,0,0,1-2.2,1.1c-2,0-2.4-2.8-.6-5.4s3.5-3.6,4.6-3.6,1.3.7,1.3,1.5l.7-1.2c.2-.3.4-.4.6-.2a2.3,2.3,0,0,1-.1,2.4c-.6,1.4-2,4-3,6.2a12.6,12.6,0,0,0,4-3.3.2.2,0,0,1,.4,0,2.6,2.6,0,0,1-.5,1.3A8.3,8.3,0,0,1,163.9,85.3Zm-5.4,5.9c.2.4,2-1.9,3.4-5.2C159.1,87.6,158.1,90.7,158.5,91.2ZM165,76.8c-.7,0-2.3,1.4-3.5,3.3s-1.4,3.8-.5,3.9,2-1.4,3.1-3.3S165.7,76.9,165,76.8Z"/><path class="cls-1" d="M182.5,78.5a1.3,1.3,0,0,1,.8,1c.1.2,0,.3-.2.2a5.6,5.6,0,0,0-1.3,0c-.7,1.4-1.5,3-2.2,4.6s-.2.3-.4.1-.5-1.1,0-2.5a9.8,9.8,0,0,1,.9-2.1c-1.6.2-3.3.5-4.3.5s-1.4,2.8-2,4.3-.3.3-.4.1-.5-1.1-.2-2.4l1-2.3a1.4,1.4,0,0,1-.8-.7q-.2-.3.3-.3h1a65.3,65.3,0,0,1,4.3-8c.2-.3.4-.3.5,0s.3,1.7-.5,3.2-1.6,2.8-2.5,4.7c1.5-.2,2.9-.6,4.3-.7a67.5,67.5,0,0,1,4.3-7.5c.2-.3.4-.3.5,0s.3,1.7-.7,3.3S183.4,76.8,182.5,78.5Z"/><path class="cls-1" d="M188.9,84.7c-1.8,0-2.3-1.3-1.6-3.2s2.6-4.5,2.2-4.7-2.7,1.4-3.9,3.5a32.3,32.3,0,0,0-2.2,4.1c-.1.2-.2.3-.3.1s-.6-1-.1-2.3,5.3-10,7.1-12.2c.2-.2.4-.2.5,0a3.7,3.7,0,0,1-.6,3.2l-2.6,4.1c.9-.9,2-1.6,2.6-1.5a1.6,1.6,0,0,1,.9,2.3,40.7,40.7,0,0,0-2.1,3.7c-.5,1.3-.4,2.3.4,2.3s2.1-1.7,2.8-3.1a.2.2,0,0,1,.4,0,1.9,1.9,0,0,1-.2,1.4A4.3,4.3,0,0,1,188.9,84.7Z"/><path class="cls-1" d="M203,70.8c.3.7.3,1.7-.7,3.4a105.1,105.1,0,0,0-5.4,10.3q-.2.3-.3,0c-.3-.3-.6-1.1-.1-2.4a75.7,75.7,0,0,1,5.9-11.3C202.6,70.5,202.8,70.6,203,70.8Z"/><path class="cls-1" d="M200.3,81.5a34.3,34.3,0,0,1,2.9-5.4c.2-.2.3-.3.5-.1a2.4,2.4,0,0,1,0,2.4c-.5,1-1.4,2.5-1.9,3.6s-.5,2.1.2,2.1,2.2-1.5,2.9-3.1.3-.1.4,0a1.8,1.8,0,0,1-.2,1.4,3.9,3.9,0,0,1-3.3,2.3C200.2,84.7,199.7,83.3,200.3,81.5Zm5-5.8a.8.8,0,0,1-1.3-.3,1.5,1.5,0,0,1,.1-1.6c.4-.4,1-.1,1.3.5A1.4,1.4,0,0,1,205.3,75.7Z"/><path class="cls-1" d="M211.3,79.8c-1,3.1-.2,4.1.5,4.2s3.6-2.8,5.1-5.9,3.1-6.2,3.8-7.3.3-.2.5,0a3.1,3.1,0,0,1-.2,2.8,86.1,86.1,0,0,1-4,8.1c-1.7,2.8-3.6,3.3-5.3,3s-2.6-1.8-2.1-3.7a2.3,2.3,0,0,1,1.4-1.7C211.3,79.3,211.5,79.4,211.3,79.8Z"/><path class="cls-1" d="M223.3,81a.2.2,0,0,1,.4,0,2.2,2.2,0,0,1-.4,1.3c-.8,1.5-2.6,2.6-4.5,3.4-1.3,2.9-2.9,6.5-4.7,7.2a.9.9,0,0,1-1.2-.5,2.4,2.4,0,0,1-.5-2.7c.7-2,2.6-3.3,4.8-4.2a69,69,0,0,1,4.6-9.4c.2-.3.4-.4.5-.2a2.4,2.4,0,0,1,0,2.5c-.6,1.2-2.2,4.2-3.1,6.4A10.9,10.9,0,0,0,223.3,81Zm-10,10.7c.3.4,2.1-2,3.5-5.2C213.9,88.1,212.9,91.1,213.3,91.7Zm10.6-16c-.3.3-.9.2-1.2-.4a1.2,1.2,0,0,1,.1-1.6c.3-.4,1-.1,1.2.5A1.3,1.3,0,0,1,223.9,75.7Z"/><path class="cls-1" d="M228.2,84.6c-.1.2-.2.2-.4,0a2.6,2.6,0,0,1-.1-2.4A84.5,84.5,0,0,1,233.4,71c.2-.3.4-.2.5.1s.4,1.5-.5,3.2l-2.1,3.8a64.6,64.6,0,0,0,8.1-7.2c.2-.2.3-.2.4,0s.1,1.3-.7,2.4a38.1,38.1,0,0,1-6.9,6.1,16,16,0,0,1,1.5,2.7c.6,1.3.4,2,0,2.5s-.2.1-.4-.1-1.8-3.2-2.8-4.8C229.7,81.2,228.9,82.9,228.2,84.6Z"/><path class="cls-1" d="M242.3,75.5q1.2-.4,1.8.9a2,2,0,0,1-.5,2.6,6.7,6.7,0,0,1-3,1.8c.1,1.8.7,3.1,1.5,3.1s2.1-1.6,2.8-2.9.3-.3.4,0,.1.7-.2,1.3-1.6,2.3-3.3,2.3-2.8-1.3-2.8-4.2c0-.4,0-.5.5-.6,2.7-.9,4.1-2.8,3.8-3.4s-1.2-.2-2.4.7-2.6,3.2-4.3,7.3c-.1.1-.2.2-.4,0s-.4-1.1,0-2.4a68.4,68.4,0,0,1,6.2-11.9q.3-.4.6,0c.3.6.3,1.5-.7,3.1l-2,3.5A4.8,4.8,0,0,1,242.3,75.5Z"/><path class="cls-1" d="M253.8,82.5c1.1-.1,1.7.3,1.9,1s.1.3-.2.3a30.8,30.8,0,0,0-4.8.9c-.5.1-.7.1-1-.2l-.5-1a1.3,1.3,0,0,1,0-1.2A79.5,79.5,0,0,1,255.3,71c.2-.3.4-.3.5,0s.3,1.5-.6,3.1-3.1,5.5-4.7,9Z"/><path class="cls-1" d="M258.4,84c1,.1,2.6-1.5,3.4-3.2.2-.2.4-.3.5,0a2.4,2.4,0,0,1-.2,1.4,4.9,4.9,0,0,1-3.7,2.5c-1.5-.1-2.3-1.1-1.8-3.5A22.5,22.5,0,0,1,262.2,71c.3-.3.6-.4.9-.1a2.1,2.1,0,0,1,.5,2.4,12.9,12.9,0,0,1-5.1,6.7C257.6,82.1,257.4,83.9,258.4,84Zm4.5-11.1c-.3-.2-1.9,2.2-3.5,5.1-.2.3-.3.7-.5,1C261.9,76.6,263.2,73.1,262.9,72.9Z"/><path class="cls-1" d="M266.5,84.6c-.1.3-.3.3-.4.1a2.3,2.3,0,0,1-.1-2.4,79.8,79.8,0,0,1,6.8-11.2c.2-.3.4-.4.7-.2s1.1,1.6.5,3.3-1.5,4.7-2.3,7.8c2.4-3.9,5.6-7.2,8-11,.2-.3.4-.3.7-.1a2.9,2.9,0,0,1,0,3.3,89.5,89.5,0,0,0-4.8,10.4c-.1.3-.2.3-.4.1s-.6-.9-.2-2.4a37.9,37.9,0,0,1,3.2-7.1,65.2,65.2,0,0,0-6.7,9.3c-.1.2-.2.3-.4.2a2.6,2.6,0,0,1-.8-2.7,52.6,52.6,0,0,1,1.9-7.2A70.9,70.9,0,0,0,266.5,84.6Z"/><path class="cls-1" d="M285.5,75.7c.7,0,1.1,1.2.8,2.2,1.1-1.1,2.6-2.1,3.3-2.1s.9,1.3.5,2.4-1.5,2.5-2,3.6-.3,2.3.5,2.2,1.9-1.4,2.7-3a.2.2,0,0,1,.4,0,1.9,1.9,0,0,1-.2,1.4,4.2,4.2,0,0,1-3.3,2.3c-1.9,0-2.6-1.5-1.8-3.3s2.8-4.3,2.5-4.4-1,.2-2.4,1.6a18.4,18.4,0,0,0-3.8,6c-.2.3-.3.3-.5.1s-.7-1.2-.1-2.8,3.1-4.8,2.7-5-1.4.5-2.8,2.1a19.4,19.4,0,0,0-3.2,5.5c-.1.2-.2.3-.4.1s-.6-1.2-.2-2.3a29.3,29.3,0,0,1,3.4-6.5c.2-.3.3-.3.5,0a2.6,2.6,0,0,1,0,2.3C283,77,284.7,75.7,285.5,75.7Z"/><path class="cls-1" d="M296.3,84.5c0,.2-.2.3-.3.1a2.5,2.5,0,0,1-.2-2.5A97.3,97.3,0,0,1,301.5,71c.2-.3.4-.3.6-.2s1,1.2.8,2.7a71.6,71.6,0,0,0-.8,8,103.3,103.3,0,0,1,5.7-10.6c.2-.2.4-.2.5.1s.3,1.5-.7,3.2a98.2,98.2,0,0,0-5.3,10.3c-.1.2-.2.3-.5.2a2.5,2.5,0,0,1-1.1-2.3,45.1,45.1,0,0,1,.4-7.5A78,78,0,0,0,296.3,84.5Z"/><path class="cls-1" d="M312.3,75.7a1.6,1.6,0,0,1,.9,2.4c-.5.9-1.5,2.6-2,3.7s-.5,2.3.3,2.3,2-1.5,2.8-3.1a.2.2,0,0,1,.4,0c.2.3.1.8-.2,1.4a4.3,4.3,0,0,1-3.3,2.4c-1.8,0-2.3-1.4-1.6-3.3s2.6-4.5,2.2-4.7-1.5.5-2.9,2.1a22.9,22.9,0,0,0-3.2,5.6c-.1.2-.2.3-.4.1a2.2,2.2,0,0,1-.2-2.3,32.8,32.8,0,0,1,3.5-6.5c.2-.2.3-.2.5,0a2.6,2.6,0,0,1,0,2.1C310.1,76.8,311.6,75.6,312.3,75.7Z"/><path class="cls-1" d="M30.7,106.2c-1.8,3.3-4.5,5.8-7.5,4.7s-2.5-2.3-2.5-4.1c0-4.7,4.1-8.7,6.6-9.6a3.1,3.1,0,0,1,3,.4C33,98.8,32.4,103.2,30.7,106.2Zm-.9-8c-1.1-.4-3.9,1.1-5.9,4.3s-2.2,7-.7,7.6,4.1-1.1,5.9-4.5S31,98.6,29.8,98.2Z"/><path class="cls-1" d="M38.5,106.3c-.4,1.9-1.8,4.1-3.5,4.7a2.6,2.6,0,0,1-2.7-1c-1-1.3-.7-3.2.3-5s2.2-2.7,3.5-2.8a1.3,1.3,0,0,1,1.5.7c.5.7,1.2.9,1.1,2.5a.7.7,0,0,0-.1.5H39c.2,0,.2.1.1.2A.7.7,0,0,1,38.5,106.3Zm-1.8-.5a3.3,3.3,0,0,1-1.1-2,9.2,9.2,0,0,0-1.7,2.1c-.9,1.7-1.2,3.7-.6,4.2s1.9-.3,3-2.3a14.2,14.2,0,0,0,.8-1.8A.5.5,0,0,1,36.7,105.8Zm.7-2c-.1-.7-.6-.6-.7.1a1.8,1.8,0,0,0,.5,1.5A3.2,3.2,0,0,0,37.4,103.8Z"/><path class="cls-1" d="M46.9,98.6c-.1-.2-.1-.3.2-.4s3.5-1.1,5-1.1a2.3,2.3,0,0,1,2.6,1.8,3.8,3.8,0,0,1-.7,3.7,9.7,9.7,0,0,1-6.3,4,1.7,1.7,0,0,1-1.4-.3c-.6,1.3-1.3,2.7-2,4.5s-.2.3-.4.1-.5-1-.2-2.2a48.4,48.4,0,0,1,4.6-9.1A1.6,1.6,0,0,1,46.9,98.6Zm6.8.5c-.4-1.2-2.6-.1-4.1.3a5.4,5.4,0,0,1-.8,2.5l-1.9,3.2C51.9,104.2,54.3,100.6,53.7,99.1Z"/><path class="cls-1" d="M61,107.5c.1-.3.4-.3.4,0a2.2,2.2,0,0,1-.3,1.4,4.6,4.6,0,0,1-3.9,2.4,3.8,3.8,0,0,1-3.1-.8,2.8,2.8,0,0,1-.8-1.5c-1,1.9-2.1,4.1-3.2,6.6q-.1.3-.3,0c-.4-.5-.5-1.1-.1-2.4a72.5,72.5,0,0,1,5.8-11c.2-.3.4-.2.5.1a1.3,1.3,0,0,1,.1.9c1-.8,2.3-1.4,3.3-.4s.5,3.1-.3,4.9a6.8,6.8,0,0,1-2.3,3A5.1,5.1,0,0,0,61,107.5ZM54.5,110c.7.6,2.2-1,3.2-3.2s1.1-3.5.6-3.8-1.9.8-3,2.5-.5.8-.7,1.3S53.9,109.5,54.5,110Z"/><path class="cls-1" d="M75.3,112.7c.4,0,.4.1.2.3a3,3,0,0,1-3.3.6c-2.3-.8-3.7-2.8-6.6-2.2-.2.1-.3-.1-.2-.2a3.1,3.1,0,0,1,2.4-.9H68a4.2,4.2,0,0,1-1.6-3.5c0-4.7,4.1-8.7,6.5-9.5a2.8,2.8,0,0,1,3.1.4c2.6,1.2,2,5.5.4,8.5s-3.5,4.8-5.8,4.9C72.2,112,73.8,113,75.3,112.7Zm.2-14.5c-1.1-.5-3.8,1.1-5.9,4.3s-2.1,6.9-.7,7.6,4.1-1.2,5.9-4.5S76.7,98.7,75.5,98.2Z"/><path class="cls-1" d="M78.9,111.1c-2,0-2.5-2.8-.6-5.5s3.5-3.5,4.6-3.5a1.3,1.3,0,0,1,1.3,1.6,7.3,7.3,0,0,1,1-1.4c.2-.3.4-.2.5,0a3.2,3.2,0,0,1-.4,2.9,98.3,98.3,0,0,0-5.7,11c-.2.3-.3.3-.4.1s-.6-.7-.2-2a22.4,22.4,0,0,1,1.5-3.8A2.5,2.5,0,0,1,78.9,111.1Zm4.4-7.9c-.7,0-2.3,1.4-3.6,3.3s-1.4,3.9-.5,3.9,2-1.4,3.1-3.3S83.9,103.3,83.3,103.2Z"/><path class="cls-1" d="M91,110.8c-.1.3-.2.3-.3.1s-.5-1-.2-2.2,2.6-6.1,4.5-9.2a1.6,1.6,0,0,1-1.4-.9q-.1-.3.3-.3c1.8-.3,3.5-1.2,4.9-1.2a2.4,2.4,0,0,1,2.7,1.8,4.1,4.1,0,0,1-.7,3.7,11.3,11.3,0,0,1-6,3.6,23.7,23.7,0,0,1,2.1,3A1.9,1.9,0,0,1,97,111c-.1.2-.2.2-.4,0a43.7,43.7,0,0,0-3.6-4.5C92.4,107.6,91.8,109,91,110.8Zm4.5-8.9c-.5,1-1.1,2-1.7,3,4.9-1,7.4-4.3,6.7-5.8s-2.7-.1-4.1.3A5.8,5.8,0,0,1,95.5,101.9Z"/><path class="cls-1" d="M105.9,102.8c.3-.2.4-.2.6,0a1.6,1.6,0,0,1,.3,2.1,10.2,10.2,0,0,0-2.4,3.7c-.4,1.1-.1,2,.5,2s2-1.3,2.7-2.9.2-.2.3,0a2,2,0,0,1-.1,1.3,3.4,3.4,0,0,1-3,2.2c-1.6-.1-2.2-1.5-1.7-3.2a14.1,14.1,0,0,1,2.7-4,5.1,5.1,0,0,1-2.6.8c-.8,1.6-2.9,4.7-3.4,6.7,0,.2-.1.3-.3.1a2.2,2.2,0,0,1-.1-2.8c.5-1,2-3,2.8-4.2-1.2-.8.7-3.4,1.5-3.4s.5,1.2-.1,2.6A5,5,0,0,0,105.9,102.8Z"/><path class="cls-1" d="M113.6,108.3c.9.7,2.4,1.8,3.8,1.8a2,2,0,0,0,1.4-.4c.4-.4.2-.8-.1-1.1s-4.6-2.4-4.6-4.6,3.4-5.6,5.4-6.5,2.1-.6,2.8.1a4.9,4.9,0,0,1,1.1,1.8,2.9,2.9,0,0,1-.6,2.2,20.2,20.2,0,0,0-1.6,2.5c-.1.2-.2.3-.4,0a1.7,1.7,0,0,1-.3-2.1c.5-1,2.1-2.9,1.6-3.4s-6.1,2.6-6.2,5.3,2.7,2.6,3.9,3.5.8,1.6-.2,2.7-5.2,2-8.3-1.8c-.2-.3-.1-.4.1-.5A2.5,2.5,0,0,1,113.6,108.3Z"/><path class="cls-1" d="M125,103.4a3,3,0,0,1,.8-1.7,1.1,1.1,0,0,1,1.2-.4c.2.3.1.5-.2,1a.8.8,0,0,1-.2.4c-.1,2.1.3,3.8.2,5.3a2.5,2.5,0,0,1-1,2.3,5.7,5.7,0,0,0,3-3.1c.1-.2.3-.1.4,0a2.5,2.5,0,0,1-.3,1.5,4.7,4.7,0,0,1-3.9,2.4,3.3,3.3,0,0,1-3.3-1.6,2.8,2.8,0,0,1,.3-3.1c.3-.2.4-.1.5.2v.6C123.4,105.9,124.4,104.5,125,103.4Zm-2.3,4.9c.3,1.3,1,2.2,1.7,2s.7-3.8.6-5.5A35,35,0,0,1,122.7,108.3Z"/><path class="cls-1" d="M137.9,99.4c-1.3,0-2.3-.5-2.5-1.3s0-.3.2-.3c2,.2,5.6-.6,6.9-.6a2.2,2.2,0,0,1,2.1,1.1c0,.2,0,.4-.3.4a15.8,15.8,0,0,0-3.7.3,5.1,5.1,0,0,1-.8,2.3,99.6,99.6,0,0,0-4.9,9.5c-.1.3-.2.3-.3.1a1.9,1.9,0,0,1-.3-2,51.6,51.6,0,0,1,4.9-9.7Z"/><path class="cls-1" d="M142,101.6c-.2-.3-.1-.4.3-.4h1.8l1.6-2.7c.2-.3.5-.3.6,0a3.4,3.4,0,0,1-.3,2.5,1.4,1.4,0,0,1,1.4.6c.1.3,0,.4-.3.4h-1.7c-.9,1.5-2.1,3.6-3,5.5s-.5,3,.5,3,2.2-1.5,3-3.2c.2-.2.4-.3.5,0a2.1,2.1,0,0,1-.2,1.3c-.3.6-1.8,2.6-3.5,2.5s-2.7-1.7-1.6-4.2,1.4-3,2.3-4.7A1.7,1.7,0,0,1,142,101.6Z"/><path class="cls-1" d="M150.4,107.1c.6-2.5,3.1-6.7,5.1-9.7.2-.3.4-.2.5,0s.5,1.4-.4,3.1-3.3,5.4-3.8,7.7-.2,1.9.4,2.2,3.1-1.4,4.7-4.4,3.6-6.7,4.8-8.6c.2-.3.4-.2.5,0a3,3,0,0,1-.3,2.7,74.1,74.1,0,0,1-5,8.8c-1.5,2.2-3.5,2.7-5,2.1S149.8,109.5,150.4,107.1Z"/><path class="cls-1" d="M160.8,111.1c-1.5-.2-1.6-1.8-1.1-3.2a24,24,0,0,1,3-5.6c.2-.3.4-.3.6-.1s.4,1.7-.4,3a20.5,20.5,0,0,0-1.7,3.2c-.5,1.1-.4,1.9.1,1.9s2-1.4,3.2-3.3,2.1-3.8,2.8-4.7.3-.4.5-.2a2.7,2.7,0,0,1,0,2.5c-.5,1-1.6,2.6-2.1,3.7s-.5,2.2.3,2.2,2.1-1.5,2.9-3.1a.2.2,0,0,1,.4,0,1.9,1.9,0,0,1-.2,1.4,4.3,4.3,0,0,1-3.3,2.4A1.7,1.7,0,0,1,164,109C163.2,110,162,111.1,160.8,111.1Z"/><path class="cls-1" d="M184.3,97.4c.2-.3.5-.2.5.1s-.1,1.7-1.2,3.1S178.5,107,176,111c-.2.2-.3.3-.6.1s-1.2-1.4-1-3a51.6,51.6,0,0,1,2.2-10.6c.2-.3.3-.4.5-.1s.6,1.4.2,3.1-1.1,5.2-1.7,8.5A94.4,94.4,0,0,1,184.3,97.4Z"/><path class="cls-1" d="M189.5,102.1c.3-.2.4-.2.4.1s-.2,1.1-.9,1.9a59.3,59.3,0,0,0-5.2,6.9c-.1.2-.2.3-.4.2a1.7,1.7,0,0,1-1.1-2,37.5,37.5,0,0,1,1.4-7,.4.4,0,0,1,.5-.2c.7.6.8,1.5.5,2.8s-.8,2.9-1.2,5.3A72.3,72.3,0,0,1,189.5,102.1Z"/><path class="cls-1" d="M195.8,111a.5.5,0,0,1-.7.1c-.8-.7-.9-1.5-.6-3a57.6,57.6,0,0,1,3.7-10.5c.1-.3.4-.4.5-.1s.4,1.4-.2,3.1-1.8,4.9-2.7,8a88.9,88.9,0,0,1,7.7-10.7c.1-.2.3-.3.5,0s.6,1.2,0,2.9-1.6,4.7-2.5,7.9A102.3,102.3,0,0,1,210,97.3c.2-.2.5-.2.5.1s-.2,1.7-1.3,3.2-4.8,6.2-7.5,10.3c-.2.2-.4.4-.7.1s-1-1.5-.6-3.1a55.5,55.5,0,0,1,1.8-6.1A106.7,106.7,0,0,0,195.8,111Z"/><path class="cls-1" d="M217.7,102c.3,0,.4.3.3.8a13.6,13.6,0,0,1-1.9,4.2c-1.5,2.5-3.1,4.2-4.5,4.1a1.5,1.5,0,0,1-1.4-1.8c-.7.9-1.7,1.8-2.7,1.7s-1.6-1.5-1.1-3.1a24.9,24.9,0,0,1,3.1-5.6c.2-.3.4-.3.5-.1s.4,1.7-.4,3-1.3,2.3-1.8,3.3-.4,1.9.1,1.9,1.7-1.5,2.9-3.4,2-3.8,2.8-4.7.3-.4.5-.2a2.7,2.7,0,0,1,0,2.5c-.5,1-1.6,2.6-2.2,3.8s-.5,2,.2,2,2-1.4,3.2-3.5S217.2,102.1,217.7,102Z"/><path class="cls-1" d="M233.3,97.3c.2-.3.4-.2.5.1s-.1,1.8-1.5,3.1-2.4,2.2-3.8,3.7c.4,2.5.8,5.2,1.6,6.5s.1.4-.2.4-1.7-.6-2.2-2.8l-.6-2.7a54.8,54.8,0,0,0-4.7,5.4c-.1.2-.2.1-.3-.1a2.5,2.5,0,0,1,.5-2.3c.6-.9,2.3-2.8,4.2-4.9a57,57,0,0,0-1.1-6.2.3.3,0,0,1,.3-.3c.6.1,1.3.5,1.7,2a24.9,24.9,0,0,1,.5,3.1Z"/><path class="cls-1" d="M233.4,103.1c-.2-.1-1.1.8-1.8,2.2s-.3.3-.3.1a2.6,2.6,0,0,1,.1-1.2c.4-1.1,1.7-2.2,2.8-2s1,.6,1.2,1.5l.3,1.9a16.7,16.7,0,0,0,3.3-3.2c.2-.3.4-.3.4,0a3.5,3.5,0,0,1-1.2,2.3,20.5,20.5,0,0,1-2.4,2.1c.2.9.3,1.8.4,2.4s.4,1.1.7,1.2,1.8-1.6,2.4-2.9.3-.3.3-.1a1.3,1.3,0,0,1-.2,1.4,3.7,3.7,0,0,1-2.9,2.3c-1.1,0-1.7-.7-2-2.5,0-.1-.1-.4-.1-.6a17,17,0,0,0-3,3c-.2.2-.6.3-.5-.1a3.9,3.9,0,0,1,1.3-2.3l2.1-1.8C234,105.2,233.7,103.1,233.4,103.1Z"/><path class="cls-1" d="M245.6,111c-.1.2-.2.2-.4.1a2.1,2.1,0,0,1-.2-2.2,17.9,17.9,0,0,1,1.3-3.2,50.2,50.2,0,0,1,.7-8.2c0-.3.2-.4.4-.2s.9.9.8,2.5-.2,2.7-.3,4.3a87.2,87.2,0,0,1,6.9-6.8c.2-.2.4-.1.4.1s0,1.6-1.3,2.9-3.5,3.2-6.2,6.1A42.9,42.9,0,0,0,245.6,111Z"/><path class="cls-1" d="M254.9,111.6c-1.2,2.9-2.8,6.5-4.6,7.2a1,1,0,0,1-1.2-.5,2.6,2.6,0,0,1-.5-2.7c.7-2,2.5-3.3,4.7-4.2.2-.5.5-1,.7-1.6a3.6,3.6,0,0,1-2.4,1.3c-1.6-.2-1.6-1.8-1.1-3.2a22.3,22.3,0,0,1,3-5.6c.2-.2.4-.2.5,0s.4,1.6-.4,2.9a20.5,20.5,0,0,0-1.7,3.2c-.4,1.1-.4,1.9.1,1.9s2-1.3,3.1-3.2,1.9-3.6,2.7-4.8.3-.3.5-.1a2.3,2.3,0,0,1-.1,2.4c-.6,1.3-2,4-2.9,6.1a12,12,0,0,0,3.9-3.4c.1-.1.3-.2.4.1a2.7,2.7,0,0,1-.4,1.2C258.3,110,256.8,110.8,254.9,111.6Zm-5.4,6c.3.4,2.1-2,3.5-5.2C250.1,114,249.1,117,249.5,117.6Z"/><path class="cls-1" d="M268.8,108.9a1.7,1.7,0,0,1,2,1c.1.2,0,.3-.2.3a24.7,24.7,0,0,0-5.2.9c-.6.2-.9.2-1.1-.2l-.6-.9a1.3,1.3,0,0,1,.1-1.2,56.3,56.3,0,0,1,10.5-10.1l-3.4.6c-1.5.2-2.1-.4-2.4-1.1s0-.3.3-.3,3.9-.6,5.1-.6a.9.9,0,0,1,1,.3,7.1,7.1,0,0,1,.8,1.5c.1.4,0,.6-.5,1a62.1,62.1,0,0,0-10.3,9.6A27,27,0,0,1,268.8,108.9Z"/><path class="cls-1" d="M275.4,109.6c-.3-.4-1.6-.3-2.7.5s-.3.1-.4,0a1.7,1.7,0,0,1,.9-2.1c3.3-1.9,4.7-4.1,4.1-4.8s-3.5.8-5.2,2.9c-.2.2-.3.1-.4,0a2.9,2.9,0,0,1,.9-2.4,5.7,5.7,0,0,1,3.2-1.6,1.9,1.9,0,0,1,2.2.8,2.6,2.6,0,0,1-.1,2.9,10.2,10.2,0,0,1-3.2,2.9,2.4,2.4,0,0,1,1.4.5,1.9,1.9,0,0,1,.5,1.1,7,7,0,0,0,2.7-2.9.2.2,0,0,1,.4,0,3.1,3.1,0,0,1-.3,1.4,6.8,6.8,0,0,1-2.7,2.1c0,2.3-2.3,5.7-3.7,6.4s-.9.4-1.5-.3a2.4,2.4,0,0,1-.5-2.6c.8-1.9,2.7-2.9,4.5-3.7C275.6,110.2,275.6,109.8,275.4,109.6Zm-3.5,6.7c.4.4,2.7-2.7,3.4-4.9C272.4,113.1,271.5,115.8,271.9,116.3Z"/></g></svg>