<svg xmlns="http://www.w3.org/2000/svg" viewBox="0 0 352 130"><defs><style>.cls-1{fill:#231f20;}</style></defs><title>groupA</title><g id="Layer_3" data-name="Layer 3"><path class="cls-1" d="M21.3,26.5V15.8h.4V26.2h5.2v.3Z"/><path class="cls-1" d="M35.1,23a3.7,3.7,0,0,1-.3,1.5,3.7,3.7,0,0,1-.7,1.2,3.5,3.5,0,0,1-1.2.7,3.2,3.2,0,0,1-1.4.3,3.7,3.7,0,0,1-1.5-.3,4.1,4.1,0,0,1-1.1-.7l-.8-1.2a6.8,6.8,0,0,1-.2-1.5,7.7,7.7,0,0,1,.2-1.5,4.4,4.4,0,0,1,.8-1.1l1.1-.8,1.5-.2,1.4.2a3.6,3.6,0,0,1,1.2.8,2.6,2.6,0,0,1,.7,1.1A4,4,0,0,1,35.1,23Zm-.3,0a2.8,2.8,0,0,0-.3-1.3,2.4,2.4,0,0,0-.6-1.1,3,3,0,0,0-1.1-.7,2.8,2.8,0,0,0-1.3-.3,3.2,3.2,0,0,0-1.4.3l-1,.7a4.1,4.1,0,0,0-.7,1.1,4.3,4.3,0,0,0,0,2.6,4.1,4.1,0,0,0,.7,1.1,2.3,2.3,0,0,0,1,.7,3.2,3.2,0,0,0,1.4.3,2.8,2.8,0,0,0,1.3-.3,2.1,2.1,0,0,0,1.1-.7,2.4,2.4,0,0,0,.6-1.1A2.8,2.8,0,0,0,34.8,23Z"/><path class="cls-1" d="M43.6,24.6h-.1a1.9,1.9,0,0,1-.5.9l-.7.7-.9.4h-1a3.2,3.2,0,0,1-1.4-.3,2.8,2.8,0,0,1-1.1-.8,4.1,4.1,0,0,1-.7-1.1A3.6,3.6,0,0,1,37,23a3.2,3.2,0,0,1,.2-1.4,3.5,3.5,0,0,1,.7-1.2l1.1-.8,1.4-.2a2.7,2.7,0,0,1,1.8.5,3.2,3.2,0,0,1,1.3,1.5h.1V19.6h.3v6.5a8.8,8.8,0,0,1-.2,1.6,5,5,0,0,1-.5,1.3,3.1,3.1,0,0,1-1.1.9,3.8,3.8,0,0,1-1.6.3,5.2,5.2,0,0,1-1.8-.3,3.1,3.1,0,0,1-1.3-1l.3-.2a3.2,3.2,0,0,0,1.3,1,3.6,3.6,0,0,0,1.5.2,3.3,3.3,0,0,0,1.5-.3,2,2,0,0,0,.9-.9,2.2,2.2,0,0,0,.5-1.2,6.8,6.8,0,0,0,.2-1.4ZM37.3,23a5.1,5.1,0,0,0,.2,1.3,3.9,3.9,0,0,0,.6,1.1,2.3,2.3,0,0,0,1,.7,3,3,0,0,0,2.6,0,2.3,2.3,0,0,0,1-.7,2.4,2.4,0,0,0,.6-1.1,2.8,2.8,0,0,0,.3-1.3,3.1,3.1,0,0,0-.3-1.3,3,3,0,0,0-.6-1.1l-1-.7a3,3,0,0,0-2.6,0,3.9,3.9,0,0,0-1,.8,3.3,3.3,0,0,0-.6,1A6.9,6.9,0,0,0,37.3,23Z"/><path class="cls-1" d="M53.6,23a3.7,3.7,0,0,1-.3,1.5,7.5,7.5,0,0,1-.7,1.2,3.5,3.5,0,0,1-1.2.7,3.2,3.2,0,0,1-1.4.3,3.3,3.3,0,0,1-1.5-.3,4.1,4.1,0,0,1-1.1-.7,4.2,4.2,0,0,1-.8-1.2,3.6,3.6,0,0,1-.2-1.5,3.9,3.9,0,0,1,.2-1.5,2.8,2.8,0,0,1,.8-1.1l1.1-.8,1.5-.2,1.4.2a3.6,3.6,0,0,1,1.2.8,4.1,4.1,0,0,1,.7,1.1A4,4,0,0,1,53.6,23Zm-.3,0a2.8,2.8,0,0,0-.3-1.3,2.4,2.4,0,0,0-.6-1.1,4.1,4.1,0,0,0-1.1-.7,2.8,2.8,0,0,0-1.3-.3,3.2,3.2,0,0,0-1.4.3l-1,.7a4.1,4.1,0,0,0-.7,1.1,4.3,4.3,0,0,0,0,2.6,4.1,4.1,0,0,0,.7,1.1,2.3,2.3,0,0,0,1,.7,3.2,3.2,0,0,0,1.4.3,2.8,2.8,0,0,0,1.3-.3,2.6,2.6,0,0,0,1.1-.7,2.4,2.4,0,0,0,.6-1.1A2.8,2.8,0,0,0,53.3,23Z"/><path class="cls-1" d="M62.1,16.1V26.5h-.3V16.1H58.2v-.3h7.5v.3Z"/><path class="cls-1" d="M67.2,28.8a3.3,3.3,0,0,1-.6,1,1.7,1.7,0,0,1-1,.3h-.7v-.3h1.1l.4-.3.3-.4a1.7,1.7,0,0,0,.2-.5l.7-1.8-2.8-7.1h.4l2.5,6.7,2.5-6.7h.3Z"/><path class="cls-1" d="M72.9,21.4a3.8,3.8,0,0,1,1.3-1.5,3.1,3.1,0,0,1,1.8-.5l1.4.2a3.1,3.1,0,0,1,1.1.8,2.4,2.4,0,0,1,.7,1.2,3.2,3.2,0,0,1,.3,1.4,3.7,3.7,0,0,1-.3,1.5,2.6,2.6,0,0,1-.7,1.1,2.8,2.8,0,0,1-1.1.8,3.2,3.2,0,0,1-1.4.3h-.9l-.9-.4-.7-.7a2,2,0,0,1-.6-.9h0v5.5h-.4V19.6h.4v1.8ZM79.1,23a3.2,3.2,0,0,0-.2-1.3,2.1,2.1,0,0,0-.6-1,3.9,3.9,0,0,0-1-.8,2.8,2.8,0,0,0-1.3-.3,2.4,2.4,0,0,0-1.2.3,2.6,2.6,0,0,0-1,.7l-.7,1.1a3,3,0,0,0-.2,1.3,2.7,2.7,0,0,0,.2,1.3,4.1,4.1,0,0,0,.7,1.1,1.8,1.8,0,0,0,1,.7,2.4,2.4,0,0,0,1.2.3,2.8,2.8,0,0,0,1.3-.3,2.3,2.3,0,0,0,1-.7,2.4,2.4,0,0,0,.6-1.1A2.7,2.7,0,0,0,79.1,23Z"/><path class="cls-1" d="M81.7,23a2.5,2.5,0,0,0,.2,1.2,3.7,3.7,0,0,0,.5,1.1,3.9,3.9,0,0,0,1,.8,2.9,2.9,0,0,0,1.4.3,3.2,3.2,0,0,0,1.4-.3,3.5,3.5,0,0,0,1.1-1l.3.2a3.5,3.5,0,0,1-1.2,1,2.9,2.9,0,0,1-1.6.4,3.2,3.2,0,0,1-1.4-.3,2.8,2.8,0,0,1-1.1-.8,4.1,4.1,0,0,1-.7-1.1,4,4,0,0,1-.3-1.5,3.3,3.3,0,0,1,.3-1.5,4.1,4.1,0,0,1,.7-1.1,2.5,2.5,0,0,1,1-.8,3,3,0,0,1,1.3-.2l1.5.2a3.9,3.9,0,0,1,1,.8,3.7,3.7,0,0,1,.5,1.1,2.5,2.5,0,0,1,.2,1.2V23Zm5.8-.3a5.1,5.1,0,0,0-.2-1.3,7,7,0,0,0-.6-.9,2.4,2.4,0,0,0-.9-.6,2.7,2.7,0,0,0-1.2-.3,2.5,2.5,0,0,0-1.3.4,1.8,1.8,0,0,0-.9.8,1.9,1.9,0,0,0-.5,1,1.5,1.5,0,0,0-.2.9Z"/><path class="cls-1" d="M93,15.3h-.6l-.7.2a1,1,0,0,0-.5.4,1.4,1.4,0,0,0-.2.6,1.5,1.5,0,0,0-.1.7v2.5h1.9v.3H90.9v6.6h-.3V19.9H89.1v-.3h1.5V17.1a3.7,3.7,0,0,1,.1-1.1l.4-.6.6-.4H93Z"/><path class="cls-1" d="M99.3,24.9v.9c0,.2.1.5.1.7h-.3c0-.1-.1-.2-.1-.4V24.8h-.1a2.2,2.2,0,0,1-1,1.4,3,3,0,0,1-1.6.5h-.8l-.8-.4-.5-.6a2.9,2.9,0,0,1-.2-.9,1.6,1.6,0,0,1,.4-1.2,2.2,2.2,0,0,1,.9-.7,5.3,5.3,0,0,1,1.2-.3h2.4v-.5a2.1,2.1,0,0,0-.6-1.7,2.1,2.1,0,0,0-1.6-.6,2,2,0,0,0-1.1.3,2.1,2.1,0,0,0-1,.6l-.2-.3a3,3,0,0,1,1.1-.6,2.5,2.5,0,0,1,1.2-.2,2.9,2.9,0,0,1,1.9.6,2.6,2.6,0,0,1,.7,1.9Zm-.4-2.2H96.7a2.7,2.7,0,0,0-1.2.3,1.6,1.6,0,0,0-.8.6,1.2,1.2,0,0,0-.4,1,1.9,1.9,0,0,0,.2.8,1.2,1.2,0,0,0,.5.5l.6.3h.7a2.8,2.8,0,0,0,1.3-.3,2.7,2.7,0,0,0,.8-.7,3,3,0,0,0,.4-1,3.4,3.4,0,0,0,.1-1Z"/><path class="cls-1" d="M107.1,20.5a1.5,1.5,0,0,0-.9-.6,2,2,0,0,0-1.1-.3,2.8,2.8,0,0,0-1.3.3,3.9,3.9,0,0,0-1,.8,2.1,2.1,0,0,0-.6,1,3.5,3.5,0,0,0-.3,1.3,2.8,2.8,0,0,0,.3,1.3,2.4,2.4,0,0,0,.6,1.1,2.3,2.3,0,0,0,1,.7,2.8,2.8,0,0,0,1.3.3l1.1-.2a2.1,2.1,0,0,0,1-.6l.2.2a2.3,2.3,0,0,1-1,.7l-1.3.2a3.5,3.5,0,0,1-1.4-.3,4.1,4.1,0,0,1-1.1-.7,4.7,4.7,0,0,1-.7-1.2,3.3,3.3,0,0,1-.3-1.5,3.2,3.2,0,0,1,.3-1.4,3.5,3.5,0,0,1,.7-1.2l1.1-.8,1.4-.2a2.7,2.7,0,0,1,1.3.2l1,.7Z"/><path class="cls-1" d="M109.2,23a4.9,4.9,0,0,0,.1,1.2l.6,1.1a3.9,3.9,0,0,0,1,.8,2.9,2.9,0,0,0,1.4.3,3.2,3.2,0,0,0,1.4-.3,3.5,3.5,0,0,0,1.1-1l.2.2a2.3,2.3,0,0,1-1.2,1,2.4,2.4,0,0,1-1.5.4,3.2,3.2,0,0,1-1.4-.3,2.3,2.3,0,0,1-1.1-.8,2.6,2.6,0,0,1-.7-1.1,4,4,0,0,1-.3-1.5,3.3,3.3,0,0,1,.3-1.5,4.1,4.1,0,0,1,.7-1.1,2.5,2.5,0,0,1,1-.8,3,3,0,0,1,1.3-.2l1.4.2a2.7,2.7,0,0,1,1,.8,2.4,2.4,0,0,1,.6,1.1,2.5,2.5,0,0,1,.2,1.2V23Zm5.8-.3a5.1,5.1,0,0,0-.2-1.3,7,7,0,0,0-.6-.9,2.4,2.4,0,0,0-.9-.6,2.7,2.7,0,0,0-1.2-.3,2.5,2.5,0,0,0-1.3.4,1.8,1.8,0,0,0-.9.8,2.1,2.1,0,0,0-.6,1,2.8,2.8,0,0,0-.1.9Z"/><path class="cls-1" d="M29.1,45.3l-1.3-3.1H21.7l-1.3,3.1H20l4.6-10.7H25l4.5,10.7ZM24.8,34.8l-3,7.1h5.9Z"/><path class="cls-1" d="M33.2,45.3h-.5l-2.7-7h.4l2.5,6.6H33l2.4-6.6h.4Z"/><path class="cls-1" d="M37.4,41.7a5.9,5.9,0,0,0,.2,1.3,2.4,2.4,0,0,0,.6,1.1,3.4,3.4,0,0,0,.9.8,3.2,3.2,0,0,0,1.4.3,2.4,2.4,0,0,0,1.5-.4,3.1,3.1,0,0,0,1.1-.9l.2.2a2.3,2.3,0,0,1-1.2,1,3.8,3.8,0,0,1-1.6.4,3.5,3.5,0,0,1-1.4-.3L38,44.4a3.5,3.5,0,0,1-.7-1.2,6.1,6.1,0,0,1-.2-1.5,5.9,5.9,0,0,1,.2-1.4,12.7,12.7,0,0,1,.7-1.2,4.1,4.1,0,0,1,1.1-.7,2.8,2.8,0,0,1,1.3-.3,3.2,3.2,0,0,1,1.4.3,3.9,3.9,0,0,1,1,.8,2.1,2.1,0,0,1,.6,1,5,5,0,0,1,.2,1.2v.3Zm5.9-.3a2.7,2.7,0,0,0-.3-1.2,1.5,1.5,0,0,0-.6-.9,2.2,2.2,0,0,0-.9-.7l-1.1-.2a2.9,2.9,0,0,0-1.4.3l-.9.8-.5,1a5.1,5.1,0,0,0-.2.9Z"/><path class="cls-1" d="M46.9,39.3c.2-.2.4-.5.6-.6l.8-.4.9-.2a2.7,2.7,0,0,1,1.2.3,2.3,2.3,0,0,1,.7.7,1.5,1.5,0,0,1,.4.9,4.3,4.3,0,0,1,.2,1.1v4.2h-.4V41.1a2.8,2.8,0,0,0-.1-.9,1.6,1.6,0,0,0-.3-.9l-.7-.6a1.5,1.5,0,0,0-1-.3,2,2,0,0,0-1.1.3,2.4,2.4,0,0,0-.9.6l-.6,1.1a5.9,5.9,0,0,0-.2,1.4v3.5h-.3V39.2a.9.9,0,0,0-.1-.5v-.4h.3a.6.6,0,0,1,.1.4v1.5h0A2.6,2.6,0,0,1,46.9,39.3Z"/><path class="cls-1" d="M54.8,35.7c-.1,0-.2,0-.2-.1s-.1-.1-.1-.2,0-.2.1-.3.1-.1.2-.1.2,0,.2.1.1.1.1.3,0,.2-.1.2S54.9,35.7,54.8,35.7Zm-.2,9.6v-7H55v7Z"/><path class="cls-1" d="M59.4,38.6a2.4,2.4,0,0,1,1.4-.5h.3v.2h-.2a1.8,1.8,0,0,0-1.1.3,2,2,0,0,0-.8.8,3.1,3.1,0,0,0-.5,1c0,.4-.1.8-.1,1.2v3.6h-.3V39.2a.9.9,0,0,1-.1-.5v-.4h.3a.6.6,0,0,0,.1.4v1.5h0A2.4,2.4,0,0,1,59.4,38.6Z"/><path class="cls-1" d="M74.6,45.3,67,35h-.1V45.3h-.3V34.6h.5l7.6,10.2h.1V34.6h.3V45.3Z"/><path class="cls-1" d="M77.9,41.7a5.9,5.9,0,0,0,.2,1.3,3.2,3.2,0,0,0,1.6,1.9,2.9,2.9,0,0,0,1.4.3,2.3,2.3,0,0,0,1.4-.4,3.1,3.1,0,0,0,1.1-.9l.2.2a2.3,2.3,0,0,1-1.2,1,3.3,3.3,0,0,1-1.5.4,2.9,2.9,0,0,1-1.4-.3,3.1,3.1,0,0,1-1.1-.8,2.4,2.4,0,0,1-.7-1.2,3.3,3.3,0,0,1-.3-1.5,3.2,3.2,0,0,1,.3-1.4,2.9,2.9,0,0,1,.7-1.2l1-.7a3.1,3.1,0,0,1,1.3-.3,2.9,2.9,0,0,1,1.4.3,2.7,2.7,0,0,1,1,.8,2.1,2.1,0,0,1,.6,1,2.5,2.5,0,0,1,.2,1.2v.3Zm5.9-.3a5,5,0,0,0-.2-1.2,3.5,3.5,0,0,0-.6-.9l-.9-.7-1.2-.2a2.5,2.5,0,0,0-1.3.3l-1,.8-.5,1a3.4,3.4,0,0,0-.1.9Z"/><path class="cls-1" d="M88.3,41.8l-2.5,3.5h-.4l2.7-3.7-2.4-3.3h.4l2.2,3.1,2.2-3.1h.4l-2.4,3.3,2.8,3.7h-.4Z"/><path class="cls-1" d="M95.5,45.4H95a1.2,1.2,0,0,1-1.1-.4,2.1,2.1,0,0,1-.4-1.2V38.6H92v-.3h1.5v-2h.4v2h2v.3h-2v5.2a1.3,1.3,0,0,0,.3,1,1.2,1.2,0,0,0,.9.3h.8v.3Z"/><path class="cls-1" d="M101,41.6v-.3h2.7v.3Z"/><path class="cls-1" d="M109.9,45.3V34.6h.3V45h5.3v.3Z"/><path class="cls-1" d="M117.5,35.7c-.1,0-.2,0-.2-.1a.2.2,0,0,1-.2-.2c0-.2.1-.2.2-.3s.1-.1.2-.1.2,0,.2.1.1.1.1.3,0,.2-.1.2S117.6,35.7,117.5,35.7Zm-.2,9.6v-7h.4v7Z"/><path class="cls-1" d="M126.7,43.4h0a4.1,4.1,0,0,1-.5.9c-.3.2-.5.5-.8.6a1.9,1.9,0,0,1-.9.4l-.9.2a3.2,3.2,0,0,1-1.4-.3l-1.1-.8a2.6,2.6,0,0,1-.7-1.1,4,4,0,0,1-.3-1.5,3.2,3.2,0,0,1,.3-1.4,2.4,2.4,0,0,1,.7-1.2l1.1-.8a3.2,3.2,0,0,1,3.2.3,2.8,2.8,0,0,1,1.3,1.5h0V38.3h.4v6.6a7.7,7.7,0,0,1-.2,1.5,3.5,3.5,0,0,1-.6,1.4,4.5,4.5,0,0,1-1,.9,4.1,4.1,0,0,1-1.6.3,4.8,4.8,0,0,1-1.8-.3l-1.3-1,.2-.2a3.8,3.8,0,0,0,1.3.9,4.1,4.1,0,0,0,1.6.3,3.3,3.3,0,0,0,1.5-.3,2,2,0,0,0,.9-.9,4.3,4.3,0,0,0,.5-1.2,7.6,7.6,0,0,0,.1-1.5Zm-6.2-1.6a2.7,2.7,0,0,0,.2,1.3,2.4,2.4,0,0,0,.6,1.1l1,.7a2.8,2.8,0,0,0,1.3.3,2.4,2.4,0,0,0,1.2-.3,2.6,2.6,0,0,0,1-.7,4.1,4.1,0,0,0,.7-1.1,2.7,2.7,0,0,0,.2-1.3,2.7,2.7,0,0,0-.2-1.3,4.1,4.1,0,0,0-.7-1.1,2.6,2.6,0,0,0-1-.7,2.4,2.4,0,0,0-1.2-.3,2.8,2.8,0,0,0-1.3.3l-1,.7a3,3,0,0,0-.6,1.1A3,3,0,0,0,120.5,41.8Z"/><path class="cls-1" d="M130.5,40.2a2.5,2.5,0,0,1,.4-.9c.2-.2.4-.5.7-.6l.7-.4.9-.2a2.1,2.1,0,0,1,1.2.3,2.7,2.7,0,0,1,.8.7,2.5,2.5,0,0,1,.4.9,4.1,4.1,0,0,1,.1,1.1v4.2h-.3V41.1c0-.3-.1-.6-.1-.9a3.6,3.6,0,0,0-.4-.9c-.1-.2-.4-.4-.6-.6a2,2,0,0,0-1.1-.3,2.3,2.3,0,0,0-1.1.3,1.6,1.6,0,0,0-.8.6,2.4,2.4,0,0,0-.6,1.1,3.2,3.2,0,0,0-.2,1.4v3.5h-.4V33.9h.4v6.3Z"/><path class="cls-1" d="M140.9,45.4h-.5a1.2,1.2,0,0,1-1.1-.4,2.1,2.1,0,0,1-.4-1.2V38.6h-1.5v-.3h1.5v-2h.4v2h2v.3h-2v5.2a1.3,1.3,0,0,0,.3,1,1.2,1.2,0,0,0,.9.3h.8v.3Z"/><path class="cls-1" d="M30.3,87.5l-1.4-3.4h-7l-1.5,3.4H20l5.2-12h.5l5,12ZM25.4,75.8,22,83.7h6.7Z"/><path class="cls-1" d="M38,85.7c0,.3.1.6.1,1a1.9,1.9,0,0,0,.1.8h-.4v-.4c0-.2-.1-.3-.1-.5v-1h-.1a2.7,2.7,0,0,1-1.1,1.6,3.1,3.1,0,0,1-1.8.5h-.9l-.9-.4-.6-.7a3,3,0,0,1-.2-1,1.8,1.8,0,0,1,.4-1.3,2.8,2.8,0,0,1,1.1-.8L35,83h2.7v-.6a2.6,2.6,0,0,0-.7-1.9,3,3,0,0,0-3.1-.3,3.9,3.9,0,0,0-1.1.6l-.2-.2a4.2,4.2,0,0,1,1.2-.8l1.4-.2a2.8,2.8,0,0,1,2.1.7,2.5,2.5,0,0,1,.7,2.1Zm-.3-2.4H35.1l-1.3.3-1,.7a2.1,2.1,0,0,0-.3,1.2c0,.4,0,.7.2.9s.3.4.5.6l.7.3h.8a2.6,2.6,0,0,0,1.4-.3,3.9,3.9,0,0,0,1-.8,4.9,4.9,0,0,0,.4-1.1,5,5,0,0,0,.2-1.2Z"/><path class="cls-1" d="M53.2,84.3a3.8,3.8,0,0,1-.4,1.6,2.8,2.8,0,0,1-.9,1l-1.3.5h-5v-12h3.3l1.4.2,1.1.4a2,2,0,0,1,.9.9,2.6,2.6,0,0,1,.3,1.4,3.6,3.6,0,0,1-.2,1.1,2.2,2.2,0,0,1-.5.8l-.8.5a1.6,1.6,0,0,1-.9.3h0l1,.2.9.6a3.4,3.4,0,0,1,.8.9A3.2,3.2,0,0,1,53.2,84.3Zm-1-5.9a3.7,3.7,0,0,0-.2-1.2,3,3,0,0,0-.8-.8L50.1,76H46V81h4.1l1.1-.5a2.7,2.7,0,0,0,.7-.8A2.1,2.1,0,0,0,52.2,78.4Zm.6,6a2.9,2.9,0,0,0-.3-1.4,4.3,4.3,0,0,0-.9-1l-1.1-.5H46v5.8h3.1l1.5-.2a4.3,4.3,0,0,0,1.2-.5,2.2,2.2,0,0,0,.7-.9A2.1,2.1,0,0,0,52.8,84.4Z"/><path class="cls-1" d="M56.4,81.8a3.9,3.9,0,0,1,1.4-1.7,3.7,3.7,0,0,1,2.1-.6,4,4,0,0,1,1.5.3,3.8,3.8,0,0,1,1.3.9,4.1,4.1,0,0,1,.8,1.3,7.8,7.8,0,0,1,.2,1.6,4.7,4.7,0,0,1-.3,1.7,2.6,2.6,0,0,1-.8,1.3,3.6,3.6,0,0,1-1.2.8l-1.5.3H58.8a3.1,3.1,0,0,1-1-.5,2.7,2.7,0,0,1-.8-.7,2.1,2.1,0,0,1-.6-1h-.1v2.1h-.4V74.7h.4v7.1Zm7,1.8a3.2,3.2,0,0,0-.3-1.4,3.5,3.5,0,0,0-.7-1.2,3.1,3.1,0,0,0-1.1-.9,3.2,3.2,0,0,0-1.4-.3,3.7,3.7,0,0,0-1.5.3l-1.1.8a3.7,3.7,0,0,0-.7,1.2,3.9,3.9,0,0,0,0,3,3.7,3.7,0,0,0,.7,1.2l1.1.8a3.7,3.7,0,0,0,1.5.3,3.2,3.2,0,0,0,1.4-.3l1.1-.8a7.5,7.5,0,0,0,.7-1.2A4,4,0,0,0,63.4,83.6Z"/><path class="cls-1" d="M78.7,87.4a6.7,6.7,0,0,1-2.4.4,6.1,6.1,0,0,1-2.4-.4,9.9,9.9,0,0,1-2-1.3,8.2,8.2,0,0,1-1.2-2,7.5,7.5,0,0,1-.5-2.6,7,7,0,0,1,.5-2.5,5.6,5.6,0,0,1,1.2-2,5.3,5.3,0,0,1,2-1.3,6,6,0,0,1,2.4-.5,5.4,5.4,0,0,1,2.2.4,4.2,4.2,0,0,1,1.8,1.1l-.2.3a4.7,4.7,0,0,0-.9-.6l-.9-.5-1-.3h-1A5.9,5.9,0,0,0,74,76a4.6,4.6,0,0,0-1.8,1.3A5.2,5.2,0,0,0,71,79.2a5.9,5.9,0,0,0-.4,2.3,6.4,6.4,0,0,0,.4,2.4,7.6,7.6,0,0,0,1.2,1.9A5.7,5.7,0,0,0,74,87a5.6,5.6,0,0,0,2.3.5,5.4,5.4,0,0,0,2.2-.4,5.9,5.9,0,0,0,1.8-1.3l.3.2A5.2,5.2,0,0,1,78.7,87.4Z"/><path class="cls-1" d="M88.5,80.8a2.3,2.3,0,0,0-1-.7,2.8,2.8,0,0,0-1.3-.3l-1.5.3a3.1,3.1,0,0,0-1.1.9,3.5,3.5,0,0,0-.7,1.2,3.2,3.2,0,0,0-.2,1.4,3.9,3.9,0,0,0,.2,1.5,7.5,7.5,0,0,0,.7,1.2l1.1.8a4,4,0,0,0,1.5.3l1.3-.2a4.1,4.1,0,0,0,1.1-.7l.2.3a2.4,2.4,0,0,1-1.2.7,3.2,3.2,0,0,1-1.4.2,3.7,3.7,0,0,1-1.5-.3,3.3,3.3,0,0,1-2.1-2.1,4.7,4.7,0,0,1-.3-1.7,4.3,4.3,0,0,1,1.1-2.9,3.8,3.8,0,0,1,1.3-.9,3.7,3.7,0,0,1,1.5-.3,3.2,3.2,0,0,1,1.4.3,2.4,2.4,0,0,1,1.2.7Z"/><path class="cls-1" d="M105.3,81.5a5.7,5.7,0,0,1-.5,2.7,5.2,5.2,0,0,1-1.4,1.9,6.8,6.8,0,0,1-2.1,1,6.9,6.9,0,0,1-2.5.4H95.4v-12h3.4a10.1,10.1,0,0,1,2.5.4,5.3,5.3,0,0,1,2.1,1.1,4.9,4.9,0,0,1,1.4,1.8A5.9,5.9,0,0,1,105.3,81.5Zm-9.6-5.6V87.2h3a6.4,6.4,0,0,0,2.4-.4,4.2,4.2,0,0,0,2-1,3.9,3.9,0,0,0,1.4-1.7,6.7,6.7,0,0,0,.5-2.6,6.2,6.2,0,0,0-.5-2.5,5.1,5.1,0,0,0-3.4-2.8,9.3,9.3,0,0,0-2.4-.3Z"/><path class="cls-1" d="M115.1,74.7h.3V87.5h-.3V85.4H115a3.4,3.4,0,0,1-1.4,1.7,3.9,3.9,0,0,1-2.1.6,3.7,3.7,0,0,1-1.5-.3,3.3,3.3,0,0,1-2.1-2.1,4.7,4.7,0,0,1-.3-1.7,4.3,4.3,0,0,1,1.1-2.9,3.8,3.8,0,0,1,1.3-.9,3.7,3.7,0,0,1,1.5-.3,3.7,3.7,0,0,1,3.5,2.3h.1ZM108,83.6a7.7,7.7,0,0,0,.2,1.5,7.5,7.5,0,0,0,.7,1.2,3.6,3.6,0,0,0,1.2.8,3.4,3.4,0,0,0,2.8,0,5,5,0,0,0,1.2-.8,7.5,7.5,0,0,0,.7-1.2,3.9,3.9,0,0,0,0-3,7.5,7.5,0,0,0-.7-1.2,5,5,0,0,0-1.2-.8,3.4,3.4,0,0,0-2.8,0,2.7,2.7,0,0,0-1.2.9,3.5,3.5,0,0,0-.7,1.2A5.9,5.9,0,0,0,108,83.6Z"/><path class="cls-1" d="M123.2,87.5v-12h7v.4h-6.7v5.2h6.3v.4h-6.3v5.7h6.9v.3Z"/><path class="cls-1" d="M132.8,83.5a3.2,3.2,0,0,0,.2,1.4,3.1,3.1,0,0,0,.6,1.3l1.1.9a4.1,4.1,0,0,0,1.6.3,3.6,3.6,0,0,0,2.8-1.4l.3.2a3,3,0,0,1-1.4,1.1,3.3,3.3,0,0,1-1.7.4,4.1,4.1,0,0,1-1.6-.3,3.6,3.6,0,0,1-1.2-.8,3.9,3.9,0,0,1-.8-1.4,4.7,4.7,0,0,1-.3-1.7,4.1,4.1,0,0,1,.3-1.6,3.5,3.5,0,0,1,.8-1.3,3.6,3.6,0,0,1,1.2-.8,3.2,3.2,0,0,1,1.4-.3,4.1,4.1,0,0,1,1.6.3,2.4,2.4,0,0,1,1.1.9,4.1,4.1,0,0,1,.7,1.1,6.8,6.8,0,0,1,.2,1.4v.3Zm6.5-.3a5.9,5.9,0,0,0-.2-1.4,4.1,4.1,0,0,0-.7-1.1,2.1,2.1,0,0,0-1-.6,2.8,2.8,0,0,0-1.3-.3,2.4,2.4,0,0,0-1.5.4,2.2,2.2,0,0,0-1,.9,2.4,2.4,0,0,0-.6,1.1,2,2,0,0,0-.2,1Z"/><path class="cls-1" d="M147.1,75.9v5.2h6v.4h-6v6h-.3v-12h6.8v.4Z"/><path class="cls-1" d="M159.2,74.9h-.7l-.8.2-.5.5-.3.7c0,.2-.1.5-.1.7v2.8h2.1V80h-2.1v7.5h-.3V80h-1.7v-.3h1.7V76.9a3.7,3.7,0,0,1,.1-1.1,2.8,2.8,0,0,1,.5-.8l.7-.4h1.4Z"/><path class="cls-1" d="M173.9,87.5a10.1,10.1,0,0,1-2.5.3,5.3,5.3,0,0,1-2.6-.5,4.6,4.6,0,0,1-2-1.3,5.3,5.3,0,0,1-1.3-2,7,7,0,0,1-.5-2.5,6.6,6.6,0,0,1,.5-2.5,4.6,4.6,0,0,1,1.3-2,5,5,0,0,1,1.9-1.3,7.5,7.5,0,0,1,2.6-.5,5.4,5.4,0,0,1,2.2.4,5.2,5.2,0,0,1,1.8,1l-.3.3a1.6,1.6,0,0,0-.8-.6l-.9-.4-1-.3h-1a6,6,0,0,0-2.4.5,4.3,4.3,0,0,0-1.9,1.3,5.2,5.2,0,0,0-1.2,1.9,8.5,8.5,0,0,0-.4,2.3,5.9,5.9,0,0,0,.4,2.3,6.2,6.2,0,0,0,1.2,1.9,4.3,4.3,0,0,0,1.9,1.3,6.2,6.2,0,0,0,2.5.5,6.6,6.6,0,0,0,2.1-.3,4.8,4.8,0,0,0,1.8-.6V81.9h-3.1v-.3h3.5v5.2A7.5,7.5,0,0,1,173.9,87.5Z"/><path class="cls-1" d="M185.7,85.4h0l-.6,1a2.7,2.7,0,0,1-.8.7l-1,.5h-1.1a4.1,4.1,0,0,1-1.6-.3,5,5,0,0,1-1.2-.8,5.7,5.7,0,0,1-.8-1.3,4.7,4.7,0,0,1-.3-1.7,4.3,4.3,0,0,1,1.1-2.9,3.4,3.4,0,0,1,1.2-.9,4.1,4.1,0,0,1,1.6-.3,3.6,3.6,0,0,1,2,.6,3.5,3.5,0,0,1,1.5,1.7h0V79.7h.4v7.4a8.8,8.8,0,0,1-.2,1.7,3.4,3.4,0,0,1-.6,1.5,2.9,2.9,0,0,1-1.2,1,3.4,3.4,0,0,1-1.8.4,4.2,4.2,0,0,1-2-.4,4.9,4.9,0,0,1-1.5-1l.3-.3a3.3,3.3,0,0,0,1.5,1.1,4.7,4.7,0,0,0,1.7.3A3.1,3.1,0,0,0,184,91a1.9,1.9,0,0,0,1-1,3.1,3.1,0,0,0,.6-1.3,9.7,9.7,0,0,0,.1-1.7Zm-7-1.8a7.7,7.7,0,0,0,.2,1.5,7.5,7.5,0,0,0,.7,1.2l1.1.8a4,4,0,0,0,1.5.3,3.2,3.2,0,0,0,1.4-.3,3.1,3.1,0,0,0,1.1-.8,4.2,4.2,0,0,0,.8-1.2,3.9,3.9,0,0,0,0-3,4.2,4.2,0,0,0-.8-1.2,3.1,3.1,0,0,0-1.1-.8,3.2,3.2,0,0,0-1.4-.3l-1.5.3a3.1,3.1,0,0,0-1.1.9,3.5,3.5,0,0,0-.7,1.2A5.9,5.9,0,0,0,178.7,83.6Z"/><path class="cls-1" d="M202.3,87.5v-6h-8.1v6h-.3v-12h.3v5.6h8.1V75.5h.3v12Z"/><path class="cls-1" d="M206.6,81.8a3,3,0,0,1,.4-1,2.7,2.7,0,0,1,.8-.7l.8-.5h1a2.9,2.9,0,0,1,1.4.3,2.7,2.7,0,0,1,.8.7,5.4,5.4,0,0,1,.5,1.1,4.9,4.9,0,0,1,.1,1.2v4.7h-.3V82.8a4.4,4.4,0,0,0-.2-1,1.9,1.9,0,0,0-.3-1,2.7,2.7,0,0,0-.8-.7,2.1,2.1,0,0,0-1.2-.3,2.7,2.7,0,0,0-1.2.3,2.3,2.3,0,0,0-1,.7,4.5,4.5,0,0,0-.6,1.2,4.1,4.1,0,0,0-.3,1.6v3.9h-.3V74.7h.3v7.1Z"/><path class="cls-1" d="M220.1,87.5v-12h.3v12Z"/><path class="cls-1" d="M224.1,76.8h-.2l-.2-.3c0-.2.1-.3.2-.3l.2-.2.3.2c.1,0,.1.1.1.3a.4.4,0,0,1-.1.3Zm-.2,10.7V79.7h.4v7.8Z"/><path class="cls-1" d="M235.7,86.8a2.6,2.6,0,0,1-2.3,1,3.5,3.5,0,0,1-1.8-.5,2.6,2.6,0,0,1-1-1.4h.3a2.3,2.3,0,0,0,1,1.2,2.5,2.5,0,0,0,1.5.5,2.1,2.1,0,0,0,1.2-.3c.4-.1.6-.4.9-.7a3,3,0,0,0,.4-1,5.1,5.1,0,0,0,.2-1.3V75.5h.3v8.7A4,4,0,0,1,235.7,86.8Z"/><path class="cls-1" d="M240.3,89.1c0,.4-.1.8-.1,1.1l-.3.7a1,1,0,0,1-.6.5l-.9.2h-.5v-.3h1.2c.2-.2.4-.3.5-.5a6.4,6.4,0,0,0,.2-.7V79.7h.4Zm-.2-12.3h-.3a.4.4,0,0,1-.1-.3c0-.2,0-.3.1-.3l.3-.2.3.2a.4.4,0,0,1,.1.3l-.2.3Z"/><path class="cls-1" d="M248.4,81l6-5.5h.6L248.9,81l6.4,6.5h-.6l-6.3-6.4h0v6.4H248v-12h.4V81Z"/><path class="cls-1" d="M257.9,83.3l4-3.6h.5l-4.1,3.6,4.6,4.2h-.6l-4.4-4.1h0v4.1h-.4V74.7h.4v8.6Z"/><path class="cls-1" d="M269.3,87.5v-12h.4V87.2h5.9v.3Z"/><path class="cls-1" d="M277.6,87.5V74.7h.4V87.5Z"/><path class="cls-1" d="M297.1,87.5V76H297l-5.2,11.5h-.4L286.2,76h-.1V87.5h-.3v-12h.6L291.6,87l5.2-11.5h.7v12Z"/><path class="cls-1" d="M306.9,81.9a4.1,4.1,0,0,1,1.2-1.8,2.8,2.8,0,0,1,1.8-.6,2.3,2.3,0,0,1,1.3.3,2.2,2.2,0,0,1,.9.7,4.9,4.9,0,0,1,.4,1.1,5,5,0,0,1,.2,1.2v4.7h-.4V82.8a3.8,3.8,0,0,0-.1-1,4.2,4.2,0,0,0-.4-1,2.3,2.3,0,0,0-.7-.7,2.1,2.1,0,0,0-1.2-.3,2.3,2.3,0,0,0-1.1.3,1.6,1.6,0,0,0-.9.7,4.7,4.7,0,0,0-.7,1.2,7.8,7.8,0,0,0-.2,1.6v3.9h-.4V82.8a3.8,3.8,0,0,0-.1-1,1.9,1.9,0,0,0-.3-1,2.3,2.3,0,0,0-.7-.7,2.1,2.1,0,0,0-1.2-.3,2.3,2.3,0,0,0-1.1.3,1.6,1.6,0,0,0-.9.7,4.7,4.7,0,0,0-.7,1.2,7.8,7.8,0,0,0-.2,1.6v3.9H301V79.7h.3v2.1h0a3.1,3.1,0,0,1,.5-1l.7-.7.8-.5h.9l1.1.2.8.5a1.6,1.6,0,0,1,.4.7,1.7,1.7,0,0,1,.3,1Z"/><path class="cls-1" d="M329.3,87.5,320.7,76h0V87.5h-.4v-12h.5L329.4,87h.1V75.5h.4v12Z"/><path class="cls-1" d="M334.3,80.8a4.6,4.6,0,0,1,.7-.7l.9-.5h1a2.5,2.5,0,0,1,1.3.3,2.2,2.2,0,0,1,.9.7,5.4,5.4,0,0,1,.5,1.1c0,.4.1.8.1,1.2v4.7h-.4V82.8a3.8,3.8,0,0,0-.1-1,2.1,2.1,0,0,0-.4-1,1.6,1.6,0,0,0-.7-.7,2.1,2.1,0,0,0-1.2-.3l-1.2.3a2.3,2.3,0,0,0-1,.7A4.7,4.7,0,0,0,334,82a7.8,7.8,0,0,0-.2,1.6v3.9h-.4V79.7h.4v.4a1.3,1.3,0,0,0,.1.6v1.1h0A3.1,3.1,0,0,1,334.3,80.8Z"/><path class="cls-1" d="M33.2,105a6.6,6.6,0,0,1-.4,2.5,5.8,5.8,0,0,1-1.3,2,4.6,4.6,0,0,1-2,1.3,6,6,0,0,1-2.4.5,7,7,0,0,1-2.5-.5,5,5,0,0,1-1.9-1.3,4.6,4.6,0,0,1-1.3-2,6.6,6.6,0,0,1-.5-2.5,7.5,7.5,0,0,1,.5-2.6,6.3,6.3,0,0,1,1.3-2,9.1,9.1,0,0,1,1.9-1.3,6.9,6.9,0,0,1,2.5-.4,6.9,6.9,0,0,1,2.5.4,9.1,9.1,0,0,1,1.9,1.3,8.6,8.6,0,0,1,1.3,2A7.5,7.5,0,0,1,33.2,105Zm-.3,0a10,10,0,0,0-.4-2.4,7.6,7.6,0,0,0-1.2-1.9,7.6,7.6,0,0,0-1.9-1.2,5.5,5.5,0,0,0-4.6,0,6.2,6.2,0,0,0-1.9,1.2,7.6,7.6,0,0,0-1.2,1.9,10,10,0,0,0-.4,2.4,8.5,8.5,0,0,0,.4,2.3,5.2,5.2,0,0,0,1.2,1.9,4.6,4.6,0,0,0,1.8,1.3,6,6,0,0,0,4.8,0,4.6,4.6,0,0,0,1.8-1.3,5.2,5.2,0,0,0,1.2-1.9A8.5,8.5,0,0,0,32.9,105Z"/><path class="cls-1" d="M43.6,107.1a4.1,4.1,0,0,1-.3,1.6,2.9,2.9,0,0,1-.8,1.3,3.8,3.8,0,0,1-1.3.9,4.1,4.1,0,0,1-1.6.3,4.7,4.7,0,0,1-1.7-.3,3.8,3.8,0,0,1-1.3-.9,4.3,4.3,0,0,1-1.1-2.9,4.7,4.7,0,0,1,.3-1.7,5.7,5.7,0,0,1,.8-1.3,3.5,3.5,0,0,1,1.3-.8,4.7,4.7,0,0,1,1.7-.3,4.1,4.1,0,0,1,1.6.3,3.3,3.3,0,0,1,2.1,2.1A4.7,4.7,0,0,1,43.6,107.1Zm-.3,0a3.7,3.7,0,0,0-.3-1.5,3.5,3.5,0,0,0-.7-1.2,2.5,2.5,0,0,0-1.2-.8,3.7,3.7,0,0,0-1.5-.3,4.1,4.1,0,0,0-1.6.3,2.8,2.8,0,0,0-1.1.8,3.6,3.6,0,0,0-.8,1.2,6.8,6.8,0,0,0-.2,1.5,5.9,5.9,0,0,0,.2,1.4,5.7,5.7,0,0,0,.8,1.3l1.1.8a4.1,4.1,0,0,0,1.6.3,3.7,3.7,0,0,0,1.5-.3,3.6,3.6,0,0,0,1.2-.8,5.4,5.4,0,0,0,.7-1.3A3.2,3.2,0,0,0,43.3,107.1Z"/><path class="cls-1" d="M57.6,102a2.7,2.7,0,0,1-.2,1.3,3.2,3.2,0,0,1-1.9,1.6l-1.3.2H51.1V111h-.4V99h4.5a3.3,3.3,0,0,1,1.2.5l.9.9A3.3,3.3,0,0,1,57.6,102Zm-.3,0a2.5,2.5,0,0,0-.3-1.3,3,3,0,0,0-.8-.8,1.8,1.8,0,0,0-1-.4l-1.1-.2h-3v5.5h3.1l1.1-.2a3.1,3.1,0,0,0,1-.5,2.7,2.7,0,0,0,.7-.8A2.8,2.8,0,0,0,57.3,102Z"/><path class="cls-1" d="M60.7,105.3a3.5,3.5,0,0,1,3.5-2.3,4.1,4.1,0,0,1,1.6.3,3.6,3.6,0,0,1,1.2.8,3.5,3.5,0,0,1,.8,1.3,4.7,4.7,0,0,1,.3,1.7,4.1,4.1,0,0,1-.3,1.6A2.9,2.9,0,0,1,67,110a2.7,2.7,0,0,1-1.2.9,4.1,4.1,0,0,1-1.6.3H63.1l-.9-.5-.9-.7-.6-1h0V115h-.4V103.2h.4v2.1Zm7,1.8a3.9,3.9,0,0,0-.2-1.5,7.5,7.5,0,0,0-.7-1.2l-1.1-.8a3.3,3.3,0,0,0-1.5-.3,3.2,3.2,0,0,0-1.4.3l-1.1.8a3.6,3.6,0,0,0-.8,1.2,7.7,7.7,0,0,0-.2,1.5,5.9,5.9,0,0,0,.2,1.4,5.7,5.7,0,0,0,.8,1.3l1.1.8a3.2,3.2,0,0,0,1.4.3,3.3,3.3,0,0,0,1.5-.3l1.1-.8a5.4,5.4,0,0,0,.7-1.3A3.2,3.2,0,0,0,67.7,107.1Z"/><path class="cls-1" d="M86.9,104.9a6.3,6.3,0,0,1-.3,1.9,4.6,4.6,0,0,1-.9,1.7,6.2,6.2,0,0,1-1.4,1.4,4.6,4.6,0,0,1-1.6.7h4.8v.4H80.7a6.9,6.9,0,0,1-2.4-.5,7.6,7.6,0,0,1-1.9-1.2,5,5,0,0,1-1.3-1.9,7,7,0,0,1-.5-2.5,5.1,5.1,0,0,1,.5-2.5,6.7,6.7,0,0,1,1.2-2,6.9,6.9,0,0,1,2-1.3,6.4,6.4,0,0,1,2.4-.4,6.6,6.6,0,0,1,2.5.4,7,7,0,0,1,1.9,1.3,5.3,5.3,0,0,1,1.3,2A7,7,0,0,1,86.9,104.9Zm-.4,0a5.9,5.9,0,0,0-.4-2.3,7.6,7.6,0,0,0-1.2-1.9,5.7,5.7,0,0,0-1.8-1.2,6,6,0,0,0-2.4-.5,5.9,5.9,0,0,0-2.3.5,5.7,5.7,0,0,0-1.8,1.2,6.2,6.2,0,0,0-1.2,1.9,5.9,5.9,0,0,0-.4,2.3,5.4,5.4,0,0,0,.4,2.2,5.7,5.7,0,0,0,1.2,1.8,4.6,4.6,0,0,0,1.8,1.3,6.1,6.1,0,0,0,2.4.4,4.6,4.6,0,0,0,2.3-.5,5.2,5.2,0,0,0,1.9-1.2,7.2,7.2,0,0,0,1.1-1.9A5.2,5.2,0,0,0,86.5,104.9Z"/><path class="cls-1" d="M96.8,103.2h.4V115h-.4v-6.1h-.1a2.1,2.1,0,0,1-.6,1,2.7,2.7,0,0,1-.8.7l-1,.5H93.2a3.7,3.7,0,0,1-1.5-.3,3.8,3.8,0,0,1-1.3-.9,4.3,4.3,0,0,1-1.1-2.9,4.7,4.7,0,0,1,.3-1.7,3.3,3.3,0,0,1,2.1-2.1,3.7,3.7,0,0,1,1.5-.3,4.6,4.6,0,0,1,2.1.5,3.7,3.7,0,0,1,1.4,1.8h.1Zm-7.1,3.9a3.2,3.2,0,0,0,.3,1.4,3.3,3.3,0,0,0,.7,1.3,3.1,3.1,0,0,0,1.1.8,3.2,3.2,0,0,0,1.4.3,4,4,0,0,0,1.5-.3l1.1-.8a5.4,5.4,0,0,0,.7-1.3,3.2,3.2,0,0,0,.3-1.4,4,4,0,0,0-.3-1.5,3.5,3.5,0,0,0-.7-1.2l-1.1-.8-1.5-.3a3.2,3.2,0,0,0-1.4.3,3.1,3.1,0,0,0-1.1.8,3.7,3.7,0,0,0-.7,1.2A4,4,0,0,0,89.7,107.1Z"/><path class="cls-1" d="M111.7,111l-3.6-6.1h-2.8V111h-.4V99h4.6a2.2,2.2,0,0,1,1.2.5,2,2,0,0,1,.9.9,3.3,3.3,0,0,1,.4,1.5,3.3,3.3,0,0,1-.4,1.4l-.8.9-1.1.5h-1.2l3.6,6.1Zm-.1-9a2.3,2.3,0,0,0-.3-1.3,2,2,0,0,0-.8-.8,4.3,4.3,0,0,0-1.2-.5h-4v5.3h2.9a3.7,3.7,0,0,0,2.5-.7A2.2,2.2,0,0,0,111.6,102Z"/><path class="cls-1" d="M116.4,103.5a2.4,2.4,0,0,1,1.6-.5h.3v.3h-.2a2.8,2.8,0,0,0-1.3.3,3.8,3.8,0,0,0-.9.9,3.3,3.3,0,0,0-.5,1.2,4.9,4.9,0,0,0-.1,1.2V111h-.4v-7.4a.8.8,0,0,1-.1-.4h.4v1a4.3,4.3,0,0,0,.1.5v.5h0A2.7,2.7,0,0,1,116.4,103.5Z"/><path class="cls-1" d="M131.1,108.1a3.2,3.2,0,0,1-.3,1.4,2.5,2.5,0,0,1-.8,1,3.9,3.9,0,0,1-1.1.6l-1.4.2a4.5,4.5,0,0,1-2-.4,3.8,3.8,0,0,1-1.6-1.1l.3-.2a5,5,0,0,0,3.3,1.4l1.2-.2a3.9,3.9,0,0,0,1.1-.6,2.2,2.2,0,0,0,.7-.9,2.5,2.5,0,0,0,0-2.4,3,3,0,0,0-.8-.8l-1-.5-1.2-.5-1.3-.5a2.9,2.9,0,0,1-1.1-.6l-.7-.9a2.7,2.7,0,0,1-.2-1.3,5.1,5.1,0,0,1,.2-1.3,2.2,2.2,0,0,1,.9-1,2.4,2.4,0,0,1,1.1-.6,3.4,3.4,0,0,1,1.4-.2,5.7,5.7,0,0,1,1.8.3,3.2,3.2,0,0,1,1.3,1l-.3.3a4,4,0,0,0-1.2-1,4.1,4.1,0,0,0-1.6-.3l-1.2.2a3.1,3.1,0,0,0-1,.5,2.4,2.4,0,0,0-.8.9,2.1,2.1,0,0,0-.3,1.2,2.4,2.4,0,0,0,.3,1.2,1.8,1.8,0,0,0,.7.8l.9.5,1.1.4,1.4.6a2.7,2.7,0,0,1,1.2.6,2.4,2.4,0,0,1,.8.9A5.1,5.1,0,0,1,131.1,108.1Z"/><path class="cls-1" d="M138.4,108.9a1.6,1.6,0,0,1-.2,1,1.8,1.8,0,0,1-.5.7,2,2,0,0,1-.8.4l-1,.2a2.9,2.9,0,0,1-1.6-.4,3.1,3.1,0,0,1-1.1-.9l.3-.2a2.8,2.8,0,0,0,2.4,1.1h.8l.7-.3.5-.6a2.4,2.4,0,0,0,.2-.8,1.2,1.2,0,0,0-.3-.9,1,1,0,0,0-.6-.5l-.8-.4-.8-.2-.8-.3-.7-.3-.4-.6a1.9,1.9,0,0,1-.2-.8,2,2,0,0,1,.2-.9c.2-.3.3-.5.6-.6l.7-.4h.9a2.7,2.7,0,0,1,2.4,1.1l-.3.2a3.2,3.2,0,0,0-.9-.8l-1.2-.2h-.7l-.6.2c-.2.2-.4.3-.5.6a1.4,1.4,0,0,0-.2.7,1.7,1.7,0,0,0,.1.8l.5.5a.9.9,0,0,0,.7.3l.9.3.9.3.7.4a1.7,1.7,0,0,1,.6.6A1.9,1.9,0,0,1,138.4,108.9Z"/><path class="cls-1" d="M147.9,99.3V111h-.3V99.3h-4.1V99H152v.3Z"/><path class="cls-1" d="M156.5,111.1H156a1.7,1.7,0,0,1-1.3-.5,2.8,2.8,0,0,1-.4-1.3v-5.9h-1.7v-.3h1.7v-2.3h.4v2.3H157v.3h-2.3v5.9a1.2,1.2,0,0,0,.4,1.1,1.5,1.5,0,0,0,1,.3h.9v.3Z"/><path class="cls-1" d="M172.2,108.3a4.8,4.8,0,0,1-.8,1.6,3.6,3.6,0,0,1-1.4,1,4.8,4.8,0,0,1-2.2.4,4.6,4.6,0,0,1-2.1-.4,3.6,3.6,0,0,1-1.4-1,4.8,4.8,0,0,1-.8-1.6,11.1,11.1,0,0,1-.2-1.9V99h.4v7.4a8.6,8.6,0,0,0,.1,1.5,4.7,4.7,0,0,0,.6,1.5,3.6,3.6,0,0,0,1.3,1.1,4.1,4.1,0,0,0,2.1.5,4.5,4.5,0,0,0,2.2-.5,3.5,3.5,0,0,0,1.3-1.1,3.9,3.9,0,0,0,.6-1.5,7.6,7.6,0,0,0,.1-1.5V99h.4v7.4A11.1,11.1,0,0,1,172.2,108.3Z"/><path class="cls-1" d="M181,109.9a2.3,2.3,0,0,1-.7.7l-.9.5h-1a2.5,2.5,0,0,1-1.3-.3,2.2,2.2,0,0,1-.9-.7,2.5,2.5,0,0,1-.4-1.1,5,5,0,0,1-.2-1.2v-4.7h.4v4.7a3.8,3.8,0,0,0,.1,1,4.2,4.2,0,0,0,.4,1l.7.7a2.6,2.6,0,0,0,2.4,0l1-.7a7.5,7.5,0,0,0,.7-1.2,7.8,7.8,0,0,0,.2-1.6v-3.9h.4v7.3a1.1,1.1,0,0,1,.1.5h-.4v-1c0-.2-.1-.4-.1-.6v-.5h0A3.1,3.1,0,0,1,181,109.9Z"/><path class="cls-1" d="M193,111h-.6l-4.5-12h.4l4.4,11.6h0L197.1,99h.5Z"/><path class="cls-1" d="M201.8,111h-.5l-3-7.8h.4l2.9,7.4h0l2.8-7.4h.4Z"/><path class="cls-1" d="M221.3,111h-.6l-3.4-11.6h-.1L213.8,111h-.5l-3.6-12h.4l3.4,11.6h.1L217,99h.5l3.5,11.6h.1L224.5,99h.4Z"/><path class="cls-1" d="M234.3,111h-.5l-2.5-7.4h-.1l-2.5,7.4h-.5l-2.3-7.8h.4l2.2,7.4h0l2.5-7.4h.5l2.5,7.4h.1l2.1-7.4h.4Z"/><path class="cls-1" d="M250.2,111l-4-6-4,6h-.5l4.2-6.3L242.1,99h.5l3.6,5.4,3.6-5.4h.4l-3.8,5.7,4.2,6.3Z"/><path class="cls-1" d="M254.9,107.1l-2.8,3.9h-.5l3.1-4.1-2.7-3.7h.5l2.5,3.4,2.4-3.4h.5l-2.7,3.7,3.1,4.1h-.5Z"/><path class="cls-1" d="M267.3,105.7V111H267v-5.3L262.9,99h.4l3.9,6.4L271,99h.4Z"/><path class="cls-1" d="M274.7,113.5a3.5,3.5,0,0,1-.7,1.2,2.1,2.1,0,0,1-1.2.4h-.7v-.3h1.2a1,1,0,0,0,.5-.4l.3-.4a1.4,1.4,0,0,0,.2-.6l.8-2-3.1-8h.4l2.9,7.6,2.7-7.6h.4Z"/><path class="cls-1" d="M284.1,111v-.5l7.8-11.2h-7.6V99h8v.5l-7.9,11.1h8.1v.4Z"/><path class="cls-1" d="M294,111v-.4l5.2-7.1h-4.9v-.3h5.2v.4l-5.1,7h5.3v.4Z"/></g></svg>