<svg id="Layer_1" data-name="Layer 1" xmlns="http://www.w3.org/2000/svg" viewBox="0 0 283.5 283.5"><defs><style>.cls-1,.cls-2{fill:#231f20;}.cls-2{font-size:7.53px;font-family:AvenirNext-Regular, Avenir Next;letter-spacing:0.1em;}</style></defs><title>groupA</title><path class="cls-1" d="M94,88.6c-1.7,3.5-3.3,7.1-4.8,10.6a27.7,27.7,0,0,0-.3-5.6c-1.1-8-5-14.6-6.8-17.5a24.7,24.7,0,0,0-3.5,11.4,31.2,31.2,0,0,0,2.2,12.2,42.3,42.3,0,0,0,4.4,8.4c-2.1,4.6-4.2,9.1-6.3,13.3l-1.6,3.3a26.8,26.8,0,0,0,0-8.5c-1.2-8.5-5.7-15.2-8-18.3a21.9,21.9,0,0,0-5.1,6.3c-2,3.8-3.1,8.7-1,15.5a38,38,0,0,0,1.8,4.7c.7,1.5,1.5,3,2.2,4.3a61.2,61.2,0,0,0,4.1,6.4,21.3,21.3,0,0,1-1.6,2.5q-2.4,3.5-4.8,6.3a54.9,54.9,0,0,1-4.9,4.8,31,31,0,0,1-8.8,5.6,23.2,23.2,0,0,1-6.2,1.5l-2.2.2.4,6.4,2.5-.9a60.7,60.7,0,0,0,6.6-3,47.6,47.6,0,0,0,9.5-6.8,49.6,49.6,0,0,0,4.9-5.2,17.1,17.1,0,0,0,5.1,1.5,14.5,14.5,0,0,0,3,.1,18,18,0,0,0,3.2-.6,13.6,13.6,0,0,0,7.6-6c-2.3-.7-7.6-2-12.4-1.2l-2.3.6.9-1.4a105.1,105.1,0,0,0,5.8-10h0a22.1,22.1,0,0,0,12.8-2.4,20.1,20.1,0,0,0,7.1-6.7,19.8,19.8,0,0,0,2.6-5.6,22.2,22.2,0,0,0-10,.7,17,17,0,0,0-8.2,5.5c1.7-3.6,3.3-7.3,5-11.1H88a36.9,36.9,0,0,0,17.6-2.6,25.5,25.5,0,0,0,13.3-12.2,27.4,27.4,0,0,0,2.9-9.7c-4.3-.8-12.3-1.4-20,2.4a25.6,25.6,0,0,0-7.5,5.5c2.2-4.9,4.6-10,7.1-14.9A66.1,66.1,0,0,0,114.7,80a58.6,58.6,0,0,0,12.1-.8l-2.6-2.1a64,64,0,0,1-19.1.1c5.1-1,10-2.2,14.8-3.5l-1.1-.9a152.1,152.1,0,0,1-15.5,3.5,55.9,55.9,0,0,1,10.3-7.5l-1-.8a56.1,56.1,0,0,0-8.3,5.7,30.8,30.8,0,0,1,6.3-7.3l-3.8-3c-3.3,5.8-6.3,11.6-9.2,17.5a50,50,0,0,0,1-17.2c-.3-2.6-.7-5.2-1.2-7.7l-2.3-1.8a76.2,76.2,0,0,1,1.6,9,48.4,48.4,0,0,1-1.5,19.7,125.4,125.4,0,0,0-.2-15c-.3-5-.8-10.1-1.4-14.9l-1.1-.9c.6,5.4,1.1,11,1.5,16.7a116.1,116.1,0,0,1-.1,16.7l-.6-.7C88.4,73.4,87,62.3,89.8,50l-1-.8a54.7,54.7,0,0,0,1.7,31.1,40.6,40.6,0,0,1-4.7-13.8,32.7,32.7,0,0,1,2.3-17.8l-1.6-1.3A34.6,34.6,0,0,0,84,67.7C85.8,77.6,91,84.8,94,88.6Zm4.5,18.6a42.4,42.4,0,0,0,11.9-7.2,48.2,48.2,0,0,0,7.9-8.8,24.9,24.9,0,0,1-8.2,10.7A31.6,31.6,0,0,1,98.5,107.2Zm-5.9.7a120.9,120.9,0,0,0,13.4-9c4.6-3.3,8.9-6.7,11.8-9.2a42.6,42.6,0,0,1-9.7,10.5A39.6,39.6,0,0,1,92.6,107.9Zm-2.4-.1c2.4-4.1,7.6-9.2,13.2-13.3s11.7-7,15.8-7.7a157.9,157.9,0,0,1-13,10.5C100.8,101.4,94.8,105.6,90.2,107.8Zm9.2-15.9a27.4,27.4,0,0,1,16.1-5.3,50.9,50.9,0,0,0-13.8,7.7,58.6,58.6,0,0,0-11.5,11.2A26.7,26.7,0,0,1,99.4,91.9ZM81.1,127.7l8.1-5.8a60.9,60.9,0,0,1,8.2-5.2h0a18.9,18.9,0,0,1-7.1,8A20.1,20.1,0,0,1,81.1,127.7Zm4.3-7.7a18.5,18.5,0,0,1,9.4-3.2c-2.2,1.3-5,3.2-7.6,5.1l-6.8,4.8A15.3,15.3,0,0,1,85.4,120ZM67.6,145.9l7.4-1.4,3.7-.8,3.3-.6a15.3,15.3,0,0,1-2.3,1.7,14.2,14.2,0,0,1-3.3,1.3l-2.4.5H71.7A23.3,23.3,0,0,1,67.6,145.9Zm1.5-2.4a11.2,11.2,0,0,1,4.5-1.6,21.4,21.4,0,0,1,7.2.2c-3.7.6-8.8,1.8-12.5,2.4ZM65.2,107a27.2,27.2,0,0,0-.3,9.4c.2,1.4.4,2.8.7,4.2l1.2,3.9a32.6,32.6,0,0,1-2.6-8A15.7,15.7,0,0,1,65.2,107Zm3.2-4.8a63,63,0,0,0-1,12.3A55.3,55.3,0,0,0,70,130.2a45.3,45.3,0,0,1-3.7-11.6,29.2,29.2,0,0,1,1.1-15.3Zm1.1.1c5,13.9,4.4,23,2.3,30.3a52,52,0,0,1-3.3-17.1A70.9,70.9,0,0,1,69.5,102.3Zm4.1,27.8c1.3-6.5,1.4-14.3-2.2-25.4a36.3,36.3,0,0,1,4.2,12.8A21.3,21.3,0,0,1,73.6,130.1Zm8.3-48.4c.1,2.9.4,6.8.8,10.7a86.3,86.3,0,0,0,1.8,11.3,34.2,34.2,0,0,1-3.8-14.2A23.7,23.7,0,0,1,81.9,81.7Zm4.6,23.5-.4.8a92.2,92.2,0,0,1-2.2-12.7A103,103,0,0,1,83,80.9a42.8,42.8,0,0,1,4.2,12.6A28.9,28.9,0,0,1,86.5,105.2Z"/><path class="cls-1" d="M140.3,54.4a20.9,20.9,0,0,0,5.2-4.3,32.3,32.3,0,0,0,2.5-2.9,22.3,22.3,0,0,0,1.7-2.5,50.4,50.4,0,0,0-5.3-3.1,56.2,56.2,0,0,0-7.1-3,12.4,12.4,0,0,0-5.3-.5c-3.6.5-5.9,2.6-9.2,6a21.1,21.1,0,0,0-2.1,2.4l-1.5,2a84.6,84.6,0,0,0,9.8,4.7,34.8,34.8,0,0,0,6.1,1.7A9,9,0,0,0,140.3,54.4Zm-18.2-7a26.5,26.5,0,0,1,13-3.7,41.7,41.7,0,0,1,11.1,1.2l-1.2.8c-2,1.3-3.7,2.6-6.9,3s-7.8-.1-16.1-1.2A.1.1,0,0,0,122.1,47.4Zm2,1.5c7.4,1,11.7,1.3,14.7.9a13,13,0,0,0,6.6-2.8,22.4,22.4,0,0,1-3.1,3,18.8,18.8,0,0,1-3.1,2.1c-1.9.9-4.6.6-7.3-.1A50.7,50.7,0,0,1,124.1,48.9Zm20.3-5.5a25.8,25.8,0,0,0-4.3-.7,26.1,26.1,0,0,0-4.9-.2,28.7,28.7,0,0,0-10.4,2l1.3-1.1,2-1.6,1.6-1.1a7.9,7.9,0,0,1,3.3-1c1.6-.1,3.8.6,7.9,2.2Z"/><path class="cls-1" d="M124.2,77.1l2.6,2.1a30.2,30.2,0,0,0,11.7-4.6,15.8,15.8,0,0,0,1.8-1.3l1.9-2a22,22,0,0,0,3.5-6.2h.3l-.5-.2c-1.1-.7-2.5-1.6-4.2-2.5a50.8,50.8,0,0,0-6.1-2.6,28.5,28.5,0,0,0-15.5-1A24.8,24.8,0,0,0,109,64.3l.3-.3c1.2-2.3,2.5-4.3,3.8-6.3s1.9-2.6,2.9-4.3l1.7-2.8v-.2c2.7-3.9,5.2-7.1,7.3-9.8s3.7-4.7,4.8-6.1l.3-.3c5.2,0,8.7-.8,11.2-1.9a15.4,15.4,0,0,0,4.9-3.6l2.3-3.2,1.2-1.9,1.2-2,2.2-3.6,1.4-2.5c1-1.6,1.8-2.9,2.3-3.9L154,10.3a14.1,14.1,0,0,0-2.2-.6l-2.7-.4a14.3,14.3,0,0,0-6,.7,16,16,0,0,0-6.5,3.7,23.2,23.2,0,0,0-6.4,10.6,25.2,25.2,0,0,0-1.1,5,32.8,32.8,0,0,0-.3,3.9c-1.3,1.3-3,3.2-5.2,5.7l-1.6,2a10.5,10.5,0,0,0,.5-1.9,84.8,84.8,0,0,0,1.9-19.7c-.1-3.1-.2-5.7-.3-7.7a30.2,30.2,0,0,0-8.8,6.7A34.9,34.9,0,0,0,107,36a45.8,45.8,0,0,0,2.5,22.9q-1.1,1.6-2.1,3.6l-.6.9,3.8,3a24.8,24.8,0,0,1,7.5-4.4,25.9,25.9,0,0,1,11.5-1.3,28.2,28.2,0,0,1,5.2.9l4.3,1.4a31.2,31.2,0,0,0-5.5-.5,34.4,34.4,0,0,0-6.3.3A44.2,44.2,0,0,0,112.6,68l1,.8a42.3,42.3,0,0,1,16.8-5.2,37.4,37.4,0,0,1,12.4,1.3,250.3,250.3,0,0,1-24,7.9l1.1.9q12.3-3.5,22.8-7.5a17.5,17.5,0,0,1-4.4,5,25.1,25.1,0,0,1-8.7,4.6A35.3,35.3,0,0,1,124.2,77.1ZM119.9,17a62.5,62.5,0,0,0-7.3,15.1,54.5,54.5,0,0,0-3,19.8,40.4,40.4,0,0,1,.6-19.7,31.1,31.1,0,0,1,4.5-9.5c.4-.7.9-1.2,1.3-1.8s.9-1.1,1.4-1.5A13.9,13.9,0,0,1,119.9,17Zm-8,38-.8,1.3a39.3,39.3,0,0,1-.2-11.9,62.3,62.3,0,0,1,11.3-28.7c0,.2.1.4.1.7-.9,4.9-2.5,12-4.3,19.1S114.3,49.7,111.9,55Zm7.4-10.6c-1.1,1.3-2.1,2.8-3.2,4.3L115,50.4c1.6-4.7,2.9-9.9,4.2-15.1s2.5-10.4,3.4-14.7a77,77,0,0,1-.6,13.3A48.3,48.3,0,0,1,119.3,44.4ZM151,11.7a24.3,24.3,0,0,0-10.4,4.7A32.3,32.3,0,0,0,131,27.6a24,24,0,0,1,6.7-11.7,16.8,16.8,0,0,1,7.1-3.9,22.1,22.1,0,0,1,3.3-.5Zm-20.1,19a31.7,31.7,0,0,1,10.9-13.5,21.4,21.4,0,0,1,12-4.4c-3.7,3.1-7.6,6.2-11.5,9.3S134.5,28.1,130.9,30.7Zm.6,1.2,10.1-7.7c3.5-2.7,7-5.4,10.4-8.2l-.7,1.1c-2.3,3.7-4.7,7.9-7.8,10.6a14.6,14.6,0,0,1-4.2,2.6,20,20,0,0,1-3.4,1l-2.1.4Z"/><path class="cls-1" d="M92.9,46.5c.2,2.1.5,4.3.7,6.5l-1.1-.9c-.4-2.9-.7-5.7-1-8.3A52.4,52.4,0,0,0,89.8,50l-1-.8c.3-1.2.6-2.4,1-3.7a31,31,0,0,0-1.7,3.2l-1.6-1.3a30.4,30.4,0,0,1,5.7-8.6A107.6,107.6,0,0,1,97.4,56l-2.3-1.8C94.4,51.3,93.6,48.7,92.9,46.5Z"/><text class="cls-2" transform="translate(125.9 209.4)">DESIGN</text><path class="cls-1" d="M128,141.2a11.4,11.4,0,0,1-3.7,4.7c3.1-.5,5.5-3,6.7-5.2s1.3-.7,1.5.1a3.5,3.5,0,0,1-.6,2.5c-1.8,3.1-5.3,4.1-8.8,4.1s-5.3-1-6.2-3c-1.8,3.1-3.6,6.3-5.4,10-.3.7-.8.8-1.2.4a2.9,2.9,0,0,1-.8-2.1,6.8,6.8,0,0,1,.5-2.4c1.2-3.6,8-15.3,10.6-18.4.7-.8,1.3-.7,1.6-.3a2.3,2.3,0,0,1,.4,1.4,6.8,6.8,0,0,1,3.4-1.1,3.6,3.6,0,0,1,3.6,3.9A11.5,11.5,0,0,1,128,141.2Zm-8.3-1.5c-1.3,2.4-1,5.1.1,5.1s3.1-2,4.8-5.2a10.5,10.5,0,0,0,1.5-4.9q0-1-.3-1.2c-.7-.3-3,1.4-4.8,4.2Z"/><path class="cls-1" d="M133.5,147.1c-2.5,0-3.6-1.3-3.6-3.2a9.2,9.2,0,0,1,.5-2.5,45.2,45.2,0,0,1,5.2-8.9c.6-.8,1.1-.9,1.7-.3a3.5,3.5,0,0,1,0,4.2c-.8,1.7-2.7,4.5-3.4,6a5.6,5.6,0,0,0-.6,2.3q0,.9.6.9c1.7,0,3.9-2.5,5.1-5.1.4-.7.9-.6,1.3.1a2.5,2.5,0,0,1-.2,2.5A7.9,7.9,0,0,1,133.5,147.1Zm5.3-19.2a2.7,2.7,0,0,1,2.3,2.4c0,1.1-.6,1.9-1.6,1.9a2.4,2.4,0,0,1-2.5-2.3A2.1,2.1,0,0,1,138.8,127.9Z"/><path class="cls-1" d="M146.3,133.7v.7c1.8-1.5,3.8-2.7,5.2-2.7a2.7,2.7,0,0,1,2.4,2.7c0,.8-.8,2-2.1,4.2s-2.7,4.4-2.7,5.8.3,1.2.8,1.2,3.6-2.4,5-4.9c.5-.8,1-.7,1.4-.2a2.7,2.7,0,0,1-.2,2.6,8.8,8.8,0,0,1-6.7,4.1c-2.7,0-3.9-1.3-3.9-3.2s1.9-5.5,3.5-7.9,1.5-2.2,1.2-2.2-2.4,1.1-4.7,3.4-4.1,5.9-5.8,9.3c-.3.6-.8.8-1.5.2a2.6,2.6,0,0,1-.9-2.1,5,5,0,0,1,.4-1.9,63.9,63.9,0,0,1,6.5-10.9c.6-.7,1.2-.7,1.6,0A3.1,3.1,0,0,1,146.3,133.7Z"/><path class="cls-1" d="M167.6,134c.6,1.3,0,2.7-.8,4.1l-.8,1.6c-.3.7-.6.8-1.5.4a2.5,2.5,0,0,1-1.4-2.1,6.5,6.5,0,0,1,1-2.8c.4-.8.7-1.5.5-1.6s-3.2,2.1-4.9,5.1a9.7,9.7,0,0,0-1.2,4.2c0,1.7.7,2.7,1.9,2.7,3.1.1,5.9-2.8,7.6-5.1.4-.6,1-.7,1.2-.1a3.1,3.1,0,0,1-.5,2.6,10.8,10.8,0,0,1-8.2,4.1c-3.8,0-5.9-2.2-5.9-5.2a8.5,8.5,0,0,1,1.3-4.4c2.1-3.8,5.4-5.9,7.8-5.9A5.2,5.2,0,0,1,167.6,134Z"/><path class="cls-1" d="M181,139.1c-.9,3.1-3.5,6.8-6.7,7.8l-1.5.2a5.1,5.1,0,0,1-4-1.9,5.2,5.2,0,0,1-1.2-3.3,11.3,11.3,0,0,1,1.7-5.3c1.9-3,4.5-4.9,7.3-4.9a3.3,3.3,0,0,1,2.7,1.4c1.1,1.3,2.3,1.5,1.9,4.7,1.1,0,1.2.4.9.8A2.2,2.2,0,0,1,181,139.1Zm-9.2,6.1c1.1,0,2.8-1.4,4.3-4a17.6,17.6,0,0,0,1.4-2.7,4.8,4.8,0,0,1-2.6-3,13.2,13.2,0,0,0-2.3,2.8,11.5,11.5,0,0,0-1.8,5.3C170.8,144.7,171.2,145.2,171.8,145.2Zm6.9-10.4c0-.5-.3-.8-.6-.8s-.6.3-.6.9a4,4,0,0,0,.6,2.2A6.5,6.5,0,0,0,178.7,134.8Z"/><path class="cls-1" d="M107.3,181c-2.5,0-3.7-1.3-3.7-3.2a9.2,9.2,0,0,1,.5-2.5,55.8,55.8,0,0,1,5.2-9c.7-.7,1.2-.8,1.7-.2s1.1,2.3,0,4.2-2.6,4.5-3.3,6a5.2,5.2,0,0,0-.6,2.2c0,.6.1,1,.6,1s3.8-2.5,5.1-5.1c.3-.7.9-.6,1.2.1a2.3,2.3,0,0,1-.2,2.5A7.8,7.8,0,0,1,107.3,181Zm5.3-19.2a2.7,2.7,0,0,1,2.3,2.4,1.8,1.8,0,0,1-1.7,1.9,2.4,2.4,0,0,1-2.4-2.3A2,2,0,0,1,112.6,161.8Z"/><path class="cls-1" d="M120.2,167.5a3.8,3.8,0,0,1-.1,1c1.8-1.6,4.1-3,5.4-3s2.2,1.4,2.2,2.9c1.9-1.5,4.1-2.7,5.4-2.7A2.1,2.1,0,0,1,135,168c0,1.3-.9,3-2.6,5.4s-2.2,3.3-2.2,4.6.4,1.4,1.1,1.4,3.3-2.6,4.8-4.9c.4-.6.8-.6,1.2-.3a3,3,0,0,1,0,2.8,8.5,8.5,0,0,1-6.7,4c-2.8,0-4.4-1.4-4.4-3.4a5.6,5.6,0,0,1,.7-2.5,49.2,49.2,0,0,1,2.9-4.6c1-1.3,2-2.4,1.6-2.4s-1.2.4-3.6,2.6-5.2,6.5-7,10a.9.9,0,0,1-1.6.2,2.1,2.1,0,0,1-.9-2,8.2,8.2,0,0,1,.7-2.8,28.5,28.5,0,0,1,3.1-5c1.1-1.7,2.2-3.1,1.9-3.1s-2,.8-4.5,3.3a32.2,32.2,0,0,0-5.8,9.2c-.3.6-.7.8-1.5.2a2.5,2.5,0,0,1-.9-2,6.3,6.3,0,0,1,.4-2,68.6,68.6,0,0,1,6.4-11,.9.9,0,0,1,1.6,0A4.1,4.1,0,0,1,120.2,167.5Z"/><path class="cls-1" d="M146.9,165.4a2.5,2.5,0,0,1,2.7,1.7l.8-1.2a1,1,0,0,1,1.7-.3c.7.8,1.1,2.4,0,4.4s-4.5,6.2-4.5,8.7c0,.5.1.9.6.9s3.5-2.6,4.9-5q.6-1.2,1.2,0a2.8,2.8,0,0,1-.1,2.4,7.9,7.9,0,0,1-6.3,4.1c-2.1,0-3.3-1-3.6-2.4a7.9,7.9,0,0,1-4.7,2.2,3.5,3.5,0,0,1-3.8-3.8,10.2,10.2,0,0,1,2.2-5.6C141.4,167.2,144.8,165.4,146.9,165.4Zm-1.5,8.4c1.6-2.5,2.4-4.4,2.4-5.4s-.1-.7-.5-.7-3.7,2.4-5.8,5.5a9.8,9.8,0,0,0-2,5c0,.6.2,1.1.6,1.1S143.4,177,145.4,173.8Z"/><path class="cls-1" d="M170.2,177c-1.6,2.2-4.4,3.7-7.8,4.8-2.2,4.9-5.2,10.6-8.6,12.1a2.6,2.6,0,0,1-2.9-.9,5,5,0,0,1-1.2-2.9c0-3.4,4-7.3,9.1-8.9l.5-1.2a6.6,6.6,0,0,1-3.1.9,3.5,3.5,0,0,1-3.7-3.8c0-5.4,7-11.6,11.1-11.6a2.7,2.7,0,0,1,2.6,1.6l.7-1.1c.5-.8,1.2-.8,1.7-.2a2.7,2.7,0,0,1,.7,1.9c0,1-.4,2-1.5,3.9s-3,5.1-4.3,8a19.5,19.5,0,0,0,6.2-5.1c.6-.6,1.3-.6,1.3.2A4.2,4.2,0,0,1,170.2,177Zm-16.5,10.5c-1.2,1.8-1.7,3.6-1.3,3.9s1.4-.8,2.7-2.9a35.1,35.1,0,0,0,2.5-4.8A14.2,14.2,0,0,0,153.7,187.5Zm8.3-13.6q2.4-3.9,2.4-5.4c0-.4-.1-.7-.4-.7s-7.8,6-7.8,10.3c0,.7.1,1.2.5,1.2S160,177.1,162,173.9Z"/><path class="cls-1" d="M176.6,175.3a6,6,0,0,1-2.9-.8,5.7,5.7,0,0,0-.4,2.2c0,1.6.7,2.8,2,2.8,3.1,0,5.9-2.8,7.6-5.1.4-.6,1-.7,1.3.1a2.8,2.8,0,0,1-.6,2.4,10.8,10.8,0,0,1-8.2,4.1c-3.9.1-6-2.2-6-5.3a8.5,8.5,0,0,1,1.3-4.3c2.1-4,5.5-6,7.9-6a2.9,2.9,0,0,1,1.4.3,6.9,6.9,0,0,1,2.6,2,2.1,2.1,0,0,1,.4,1.4C183,171.3,180.2,175.3,176.6,175.3Zm-2.4-2.3.9.3c1,0,2.4-1.1,3.2-2.1s2.1-3.3,1.6-3.6S176.2,169.4,174.2,173Z"/><polygon class="cls-1" points="240.7 155.9 142.7 31.9 142.3 32.3 240.1 156.1 147.4 273.6 54.5 155.9 54.1 156.3 147.2 274.2 147.4 274.1 147.6 274.2 240.7 156.3 240.5 156.1 240.7 155.9"/><polygon class="cls-1" points="233.2 155.9 135.2 31.9 134.7 32.3 232.6 156.1 139.9 273.6 47 155.9 46.6 156.3 139.7 274.2 139.9 274.1 140.1 274.2 233.2 156.3 233 156.1 233.2 155.9"/></svg>