<svg id="Layer_1" data-name="Layer 1" xmlns="http://www.w3.org/2000/svg" viewBox="0 0 283.5 283.5"><defs><style>.cls-1{fill:#231f20;}</style></defs><title>groupA</title><path class="cls-1" d="M173.1,119.6a5,5,0,0,0,.6-5.6c-1.1-2.3-3.6-3.3-4.9-1.9a5.2,5.2,0,0,0-.4,6.3C169.6,120.6,172,120.8,173.1,119.6Z"/><path class="cls-1" d="M220.1,140.4a8.4,8.4,0,0,0-1.8-1.5c-1.5-.8-2.8-.7-4.9-.5h-1.3l-1,.3a32,32,0,0,0,2.6,3.9,12.1,12.1,0,0,0,1.9,2,3.9,3.9,0,0,0,2,1.2,10.6,10.6,0,0,0,3,.1l1.6-.2,1.2-.3a20.2,20.2,0,0,0-1.3-2.3A18.7,18.7,0,0,0,220.1,140.4Zm-5.3-1.4h2a3.9,3.9,0,0,1,1.5.6,11.3,11.3,0,0,1,2.5,2.7,10.1,10.1,0,0,1,.9,1.3l-1.4-1.3-1.8-1.3a14.8,14.8,0,0,0-4.4-2.1Zm4.6,6.1h-1.6a6.1,6.1,0,0,1-2.8-1.9l-2.2-3a35.9,35.9,0,0,0,5.4,4.1,7.9,7.9,0,0,0,3.1.8A5.9,5.9,0,0,1,219.4,145.1Zm2-.5a9.7,9.7,0,0,1-3.3-.9,46.9,46.9,0,0,1-5.8-4.5h.1a13.3,13.3,0,0,1,5.7,2.2,26.3,26.3,0,0,1,4,3.2Z"/><path class="cls-1" d="M233,136.3l-.7-.8-.9-.8a11.7,11.7,0,0,0-2.5-1.4,10.2,10.2,0,0,0-3.2-.5,9.8,9.8,0,0,0-4.9,1.5l-1.6,1.2-1,1.1-3.3.4-1,.2.6-.4a28.6,28.6,0,0,0,5.3-5.5c.7-.9,1.2-1.7,1.6-2.3a12.7,12.7,0,0,0-4.8-.3,13.1,13.1,0,0,0-7.2,3.2,14.3,14.3,0,0,0-4.4,7.5l-1.6.5H203c-2.6.9-5.1,1.9-7.5,2.9a16.5,16.5,0,0,0,4.3-4.9,15.8,15.8,0,0,0,1.3-2.6,28.2,28.2,0,0,0,2-6.5A16.6,16.6,0,0,0,199,130a11.6,11.6,0,0,0-5.6,5.4,16.8,16.8,0,0,0-1.1,8.9l-4.2,1.9a12.5,12.5,0,0,0,1.2-1.7,14,14,0,0,0,1.4-7,8.4,8.4,0,0,0-3.9,2.5,9.6,9.6,0,0,0-2,4.2,16.7,16.7,0,0,0-.3,3.6l-5.4,2.4-1.4.6a10.4,10.4,0,0,0,2-2.5,13.4,13.4,0,0,0,1.2-7.6,10.3,10.3,0,0,0-3.4.6,6.3,6.3,0,0,0-3.9,4.4,11.6,11.6,0,0,0-.4,1.8,13.7,13.7,0,0,0-.2,1.9,26.3,26.3,0,0,0,.1,3l-1.2.3-3.3.6a14.6,14.6,0,0,1-2.9.2,6.6,6.6,0,0,1-2-.1h0a5.8,5.8,0,0,1-4.4-2.1,2.5,2.5,0,0,1-.8-1.8v-.4h0a15.3,15.3,0,0,1,1.4-5.4c1.8-4.2,5.3-10,7.1-13.7s1.4-7.9.1-9.2-1.3-.5-2,.5c-3.2,4.4-8.8,14.4-10.9,20.6-.2.5-.3,1-.5,1.5-2.9,4.7-7.6,8.8-14.3,9.2,3.2-1.9,6.3-6,8.9-11.6s5-14.5.9-18.8-8.7-1.4-12.4,1.8a9,9,0,0,0-.5-3.8c-.4-1-1.2-1.2-2-.1a132.3,132.3,0,0,0-7.2,11.6c-8.5,9.8-25.9,6.6-37.1,5.2s-31.1-.8-40,10.1c-1.1,1.4,1,2.3,2.1,2.4a5.6,5.6,0,0,0,4.8-2.1c-.9,1.2,0,.1.3-.2l1.6-1.3a25.2,25.2,0,0,1,7.7-3.4c12.6-3.5,24.6.9,37.1,1a50,50,0,0,0,19-3.4c-4.7,8.9-9.1,18.1-10.5,22.3s-1.1,7.6.1,9.3,1.1.6,1.5-.1c4-9.4,8.4-18.1,12.3-25.4a9,9,0,0,0,2.9,5.7c3,2.7,6.6,3.5,12,3.1a18.5,18.5,0,0,0,12.5-5.5c.5,2.7,2.3,4.4,5.4,4.8l1.8.4a19.5,19.5,0,0,0,5.1.4l3-.3a8.3,8.3,0,0,0,1.6,1.7l1.1.9,1.3.6a7.2,7.2,0,0,0,4.3.2,15.9,15.9,0,0,0-4.4-3.6l-1-.4.6-.2,4.6-1.5h-.1a11.8,11.8,0,0,0,5.4,2.6,9.6,9.6,0,0,0,4.2-.1,9.9,9.9,0,0,0,2.3-1.1,13,13,0,0,0-3.9-2.3,7.9,7.9,0,0,0-4.4-.5l4.4-2,.4.2h0a21.9,21.9,0,0,0,7.2,3.7,12.1,12.1,0,0,0,7.9-.2,9.4,9.4,0,0,0,3.3-2.2,18.3,18.3,0,0,0-8.1-4.4,15,15,0,0,0-4.1-.3l6.1-2.6a44.7,44.7,0,0,0,4.7,3.8,34.2,34.2,0,0,0,4.7,2.9,17.6,17.6,0,0,0,5.5,1.7h2.1a6.8,6.8,0,0,0,2.8-1h.2l-.2-.2c-.2-.5-.6-1.1-1-1.9a26.8,26.8,0,0,0-1.7-2.3,15.7,15.7,0,0,0-5.6-4.3,11.8,11.8,0,0,0-5.3-1h.2l2.8-.9,2.1-.5,1.3-.4h.1l5-1.1,3.2-.6h.2a16.3,16.3,0,0,0,4.7,2.3,6.3,6.3,0,0,0,2.6.2l1.7-.4.8-.2.9-.3,1.7-.5,1.1-.4,1.8-.6A5.9,5.9,0,0,0,233,136.3ZM130.6,149.9c-2.3-1.9-1.9-7,.2-12.4,1-1.7,1.9-3.3,2.9-4.8l.9-1.4.8-1.2c3.7-5,7.8-8,9.6-7.1s1.1,8-2.2,14.8S133.3,152.1,130.6,149.9Zm43.4,7.5-1.5-.4-1.1-.5-.8-.6a8.9,8.9,0,0,1-1.4-1.3l3.1,1.5,1.6.7,1.4.7Zm-1.6-2.4a10.9,10.9,0,0,1,2.6,1.9l-5.2-2.5h.5A7.4,7.4,0,0,1,172.4,155Zm2.3-10a5,5,0,0,1,2.6-2.6,8.3,8.3,0,0,0-2.3,2.7,10.1,10.1,0,0,0-.7,1.5,12.1,12.1,0,0,0-.5,1.4A11.4,11.4,0,0,1,174.7,145Zm.3,1.1a9.3,9.3,0,0,1,3.9-4.3h.7a21.6,21.6,0,0,0-3.3,3.4,17,17,0,0,0-2.6,5.4A14.8,14.8,0,0,1,175,146.1Zm1.5-.3a18,18,0,0,1,3.5-3.7c-1.4,5.4-3.7,8-6.1,9.6A15.3,15.3,0,0,1,176.5,145.8Zm-1.4,5.7c2-1.6,3.8-4,5-8.2a12.4,12.4,0,0,1-1.3,4.9A7.9,7.9,0,0,1,175.1,151.5Zm12,2.1a8.8,8.8,0,0,1-4.5.5,11.5,11.5,0,0,1-4.1-1.4l4.3.3a29.5,29.5,0,0,1,4.3.6Zm-5.2-2.1a9.5,9.5,0,0,1,4.2,1.4l-4-.4-3.7-.3A6.3,6.3,0,0,1,181.9,151.5Zm5.2-10.4a9.9,9.9,0,0,1,2.3-2,25.1,25.1,0,0,0-2.2,3.4l-1.9,3.8A11.2,11.2,0,0,1,187.1,141.1Zm-1.7,6.4a27.6,27.6,0,0,1,2-4.4c.9-1.5,1.9-3,2.6-4a11.9,11.9,0,0,1-1.4,4.9,8.9,8.9,0,0,1-2.9,3.3Zm10,4.9a16.5,16.5,0,0,1-5.7-1.4,23.8,23.8,0,0,0,6.2.9,18.5,18.5,0,0,0,5-.6A11.1,11.1,0,0,1,195.4,152.4Zm-.4-1a21.8,21.8,0,0,1-7.6-1.7,66.7,66.7,0,0,0,7.1.8l6.6.2A19,19,0,0,1,195,151.4Zm-.1-1.4a61.8,61.8,0,0,1-8.4-.9c1.8-.7,5-.8,8-.6a23.2,23.2,0,0,1,7.7,1.7A67.1,67.1,0,0,1,194.9,150Zm-1.3-3.3a14.7,14.7,0,0,1,7.3,2.5,27.5,27.5,0,0,0-7-1.2,21.6,21.6,0,0,0-6.9.4A10.3,10.3,0,0,1,193.6,146.7Zm.7-11.2a11.5,11.5,0,0,1,5-4.7l1.4-.5-1.2.8a17.5,17.5,0,0,0-6.6,9.8A14.9,14.9,0,0,1,194.3,135.5ZM193,143a16.8,16.8,0,0,1,6.7-11.4l2-1.4-1.5,2.7a60,60,0,0,1-3.3,5.4,39.2,39.2,0,0,1-3.9,5Zm4.5-4.7c1-1.6,2-3.2,2.9-4.8l1.2-2.1a22.2,22.2,0,0,1-.9,2.8,23,23,0,0,1-1.5,3.2,16.2,16.2,0,0,1-5.1,5.5A54.8,54.8,0,0,0,197.5,138.3ZM213,150.5a13.7,13.7,0,0,1-4.3-.9l-2.4-1a40.3,40.3,0,0,1-7.2-4.9l6.4,2.8c3.6,1.4,7.1,2.6,10.3,3.6A9.3,9.3,0,0,1,213,150.5Zm3.2-.8c-3.5-1-7.1-2.3-10.9-3.8-2.2-.9-4.4-1.8-6.6-2.9a25,25,0,0,1,5.6.4,21.3,21.3,0,0,1,7.5,2.8A18.7,18.7,0,0,1,216.2,149.7Zm-8.7-7.2a13.3,13.3,0,0,1,4.7,2.6,12.9,12.9,0,0,1,1.7,1.6l1.3,1.5-1.9-1.6-2.5-1.5a22.9,22.9,0,0,0-6.7-2.2,21.2,21.2,0,0,0-4.4-.4,11.2,11.2,0,0,1,4-.6A13.1,13.1,0,0,1,207.5,142.5Zm3.9-10.9a11.9,11.9,0,0,1,3.9-1.7l.9-.2.9-.2h1.5a25.1,25.1,0,0,0-6.2,2.6,18,18,0,0,0-5.7,5.2A12.2,12.2,0,0,1,211.4,131.6Zm-4.6,7.2-.6.2a11.4,11.4,0,0,1,2.7-3.6,18.8,18.8,0,0,1,3.9-2.9,20.4,20.4,0,0,1,7-2.8l-.2.2a61.1,61.1,0,0,1-6,4.6A34.7,34.7,0,0,1,206.8,138.8Zm3-.8-.7.2,5-3.4,4.7-3.5a28,28,0,0,1-3.3,3.8,13.7,13.7,0,0,1-3.5,2.4Zm15.7-4.3a9.6,9.6,0,0,1,3.6.7l1.4.7,1,.8a13.5,13.5,0,0,0-5-1.3,15.3,15.3,0,0,0-6.2.9A10.3,10.3,0,0,1,225.5,133.7Zm4.9,3.9a21,21,0,0,1-5.4,1.2l-2.2-.3-1.5-.6-.8-.4-1-.6a51.2,51.2,0,0,0,5.6.3l5.8.3Zm-4.5-.8-6.3-.4a14.1,14.1,0,0,1,7.2-1.2,11.1,11.1,0,0,1,5.5,1.8Z"/><path class="cls-1" d="M134.2,268.7l-127-127,127-127,127,127ZM8.4,141.7,134.2,267.6,260.1,141.7,134.2,15.8Z"/><path class="cls-1" d="M149.2,268.7l-127-127,127-127,127,127ZM23.3,141.7,149.2,267.6,275.1,141.7,149.2,15.8Z"/><path class="cls-1" d="M133.1,90.1h4.8v1h-6.1V82.7h5.9v1.1h-4.6v2.5h4.3v1h-4.3Z"/><path class="cls-1" d="M144.2,84.3l-.7-.6-1.1-.2h-.6l-.6.2-.4.5a.8.8,0,0,0-.2.6.8.8,0,0,0,.2.5.8.8,0,0,0,.4.4l.6.3.7.2.9.3a1.9,1.9,0,0,1,.9.5,1.2,1.2,0,0,1,.6.6,2.2,2.2,0,0,1,0,2.2,1.8,1.8,0,0,1-.7.8l-1,.5H142a5.1,5.1,0,0,1-1.7-.3,3,3,0,0,1-1.3-.9l1-.8a1.6,1.6,0,0,0,.9.7,2,2,0,0,0,1.1.3h.7l.6-.2a1,1,0,0,0,.4-.5,1.1,1.1,0,0,0,.2-.6.8.8,0,0,0-.2-.6,1.2,1.2,0,0,0-.5-.5l-.7-.3-.8-.2-.9-.3a1.8,1.8,0,0,1-.7-.5c-.3-.1-.4-.4-.6-.6a3,3,0,0,1-.2-1,2,2,0,0,1,.3-1.1,2.3,2.3,0,0,1,.7-.7l1-.4,1.2-.2a4,4,0,0,1,1.5.3,4.1,4.1,0,0,1,1.1.7Z"/><path class="cls-1" d="M150,91.1h-1.3V83.8h-2.9V82.7H153v1.1h-3Z"/><path class="cls-1" d="M133,195.1h-6V194l3.7-3.3.7-.8a1.7,1.7,0,0,0,.3-1,1.3,1.3,0,0,0-.1-.6.8.8,0,0,0-.4-.4.5.5,0,0,0-.5-.3h-.6a1.6,1.6,0,0,0-1.2.4,1.2,1.2,0,0,0-.5,1l-1.3-.2a2,2,0,0,1,.4-.8,1.6,1.6,0,0,1,.6-.8l.9-.4,1.1-.2,1.1.2a2.5,2.5,0,0,1,.9.4,2.7,2.7,0,0,1,.7.8,3,3,0,0,1,.2,1,1.5,1.5,0,0,1-.1.7l-.3.7-.5.6-.6.5-3,2.7H133Z"/><path class="cls-1" d="M137.9,186.5a2.3,2.3,0,0,1,1.4.4,2.8,2.8,0,0,1,1,.9,5.8,5.8,0,0,1,.5,1.4,7.3,7.3,0,0,1,0,3.4,4.6,4.6,0,0,1-.5,1.4l-1,1a3.2,3.2,0,0,1-1.4.3,2.9,2.9,0,0,1-1.4-.3,3.2,3.2,0,0,1-1-1,3,3,0,0,1-.6-1.4,7.3,7.3,0,0,1,0-3.4,3.5,3.5,0,0,1,.6-1.4,2.2,2.2,0,0,1,1-.9A2.1,2.1,0,0,1,137.9,186.5Zm0,1a1.7,1.7,0,0,0-1,.3,1.9,1.9,0,0,0-.5.9,2,2,0,0,0-.3,1.1,4.5,4.5,0,0,0-.1,1.1,4.1,4.1,0,0,0,.1,1.1,2.7,2.7,0,0,0,.3,1.2,2.2,2.2,0,0,0,.5.8,1.7,1.7,0,0,0,1,.3l.9-.3.6-.8a5,5,0,0,0,.2-1.2,4.1,4.1,0,0,0,.1-1.1,4.5,4.5,0,0,0-.1-1.1,3.6,3.6,0,0,0-.2-1.1l-.6-.9A1.6,1.6,0,0,0,137.9,187.5Z"/><path class="cls-1" d="M146.6,195.1h-1.2v-7l-1.7,1.3-.8-.7,2.6-2h1.1Z"/><path class="cls-1" d="M156.2,187.8l-3.7,7.3H151l3.9-7.4h-4.6v-1h5.9Z"/></svg>