<svg id="Layer_1" data-name="Layer 1" xmlns="http://www.w3.org/2000/svg" viewBox="0 0 283.5 283.5"><defs><style>.cls-1,.cls-2{fill:#231f20;}.cls-2{stroke:#231f20;stroke-miterlimit:10;stroke-width:0.5px;}</style></defs><title>groupA</title><path class="cls-1" d="M188.9,113.3a7.8,7.8,0,0,0,.8-8.6c-1.6-3.4-5.3-4.9-7.3-2.8a8,8,0,0,0-.7,9.5C183.6,114.7,187.2,115,188.9,113.3Z"/><path class="cls-1" d="M259.5,144.5a9.8,9.8,0,0,0-2.8-2.3c-2.2-1.2-4.2-1.1-7.3-.8l-2,.2-1.5.4a53.1,53.1,0,0,0,3.9,5.8,17,17,0,0,0,2.8,3.1,8.7,8.7,0,0,0,3.1,1.9,23.7,23.7,0,0,0,4.5.1l2.4-.4,1.8-.5a34.4,34.4,0,0,0-1.9-3.4A33.8,33.8,0,0,0,259.5,144.5Zm-8-2.2h3a8.3,8.3,0,0,1,2.2.8c1,.6,2,1.8,3.8,4.1l1.4,2-2.2-2a31.6,31.6,0,0,0-2.7-2,26.6,26.6,0,0,0-6.6-3.1Zm6.9,9.3a19,19,0,0,1-2.5-.3,8.9,8.9,0,0,1-4.1-2.9,42,42,0,0,1-3.3-4.4c3.9,3.3,6.2,5.2,8,6.1a10.5,10.5,0,0,0,4.7,1.3Zm3-.9a11.1,11.1,0,0,1-4.9-1.4c-2-1-4.4-3-8.7-6.7h.1a21.7,21.7,0,0,1,8.6,3.3,33,33,0,0,1,5.9,4.9Z"/><path class="cls-1" d="M278.8,138.2l-1.1-1.1-1.3-1.2a16.3,16.3,0,0,0-3.7-2.1,13.6,13.6,0,0,0-12.2,1.5,12.5,12.5,0,0,0-2.4,1.8l-1.5,1.7a42.3,42.3,0,0,0-4.9.6l-1.6.2.9-.6a38.3,38.3,0,0,0,7.9-8.2c1.1-1.4,1.9-2.6,2.5-3.5a18.5,18.5,0,0,0-7.2-.4,18.9,18.9,0,0,0-10.9,4.7,21.9,21.9,0,0,0-6.5,11.3l-2.4.8-.7.2h0c-3.8,1.3-7.6,2.8-11.3,4.3a22.3,22.3,0,0,0,6.6-7.4c.7-1.3,1.4-2.6,2-3.9a56.3,56.3,0,0,0,3-9.8,21.5,21.5,0,0,0-6.2,1.7,17,17,0,0,0-8.4,8.2c-2.5,5.1-2,10.4-1.7,13.2l-6.3,2.9a12.1,12.1,0,0,0,1.7-2.5,22.6,22.6,0,0,0,2.3-10.6,13.2,13.2,0,0,0-6,3.8,15.6,15.6,0,0,0-3,6.4,28.4,28.4,0,0,0-.4,5.4l-8.1,3.6-2.1.8a12.7,12.7,0,0,0,3-3.7,21.7,21.7,0,0,0,1.8-11.4,15.1,15.1,0,0,0-5.1.9,9.3,9.3,0,0,0-5.9,6.5,15,15,0,0,0-.6,2.9,13.1,13.1,0,0,0-.3,2.7,31,31,0,0,0,.1,4.5l-1.7.5c-1.7.4-3.4.8-4.9,1l-4.5.3-3-.2h.1a9,9,0,0,1-6.7-3.2,3.8,3.8,0,0,1-1.2-2.7v-.7a21.5,21.5,0,0,1,2.1-8.1c2.7-6.4,8-15,10.7-20.6s2-11.9.1-13.9-1.9-.8-3,.8c-4.8,6.6-13.2,21.6-16.3,30.9-.3.8-.5,1.6-.7,2.3-4.5,7-11.4,13.3-21.6,13.9,4.8-3,9.5-9.1,13.3-17.5,4.8-10.4,7.6-21.7,1.4-28.2s-12.9-2.2-18.6,2.6a13.2,13.2,0,0,0-.7-5.7c-.7-1.5-1.8-1.8-3.1-.1a203,203,0,0,0-10.7,17.4c-12.9,14.7-38.9,9.9-55.8,7.9-18.8-2.3-46.7-1.3-60,15.1-1.8,2.1,1.5,3.5,3.1,3.6a8.6,8.6,0,0,0,7.3-3.1c-1.5,1.7,0,.1.4-.3a15.9,15.9,0,0,1,2.4-2,38.2,38.2,0,0,1,11.5-5.1c18.9-5.3,36.9,1.3,55.8,1.5a76.3,76.3,0,0,0,28.4-5.1c-7,13.4-13.6,27.1-15.6,33.5s-1.8,11.3.1,14,1.7.9,2.2-.2c6.1-14.2,12.6-27.2,18.6-38.1a13,13,0,0,0,4.3,8.5c4.5,4.1,9.8,5.2,18,4.7s13.8-3.1,18.7-8.3c.8,4,3.5,6.7,8.1,7.2l2.7.6a34.8,34.8,0,0,0,7.7.6,35.8,35.8,0,0,0,4.5-.4,18.4,18.4,0,0,0,2.4,2.6l1.7,1.2a12.4,12.4,0,0,0,2,1,10,10,0,0,0,6.4.2,23.8,23.8,0,0,0-6.7-5.3l-1.4-.6,1-.3a66.6,66.6,0,0,0,6.7-2.3h0a18.6,18.6,0,0,0,8,3.8,13.4,13.4,0,0,0,6.4-.2,10.8,10.8,0,0,0,3.4-1.6,21.4,21.4,0,0,0-5.9-3.5,13.1,13.1,0,0,0-6.6-.7l6.7-3.1.5.4h.1a31.9,31.9,0,0,0,10.8,5.7c5.2,1.3,9,.7,11.8-.4a16.1,16.1,0,0,0,5-3.2,26.1,26.1,0,0,0-12.2-6.7,18.6,18.6,0,0,0-6.1-.4l9.2-4a71.7,71.7,0,0,0,7,5.8,66.9,66.9,0,0,0,7.1,4.3,26.8,26.8,0,0,0,8.2,2.5,7.5,7.5,0,0,0,1.5,0h1.7a13,13,0,0,0,4.2-1.4h.2l-.2-.3-1.5-2.8a33.1,33.1,0,0,0-2.5-3.5,22.7,22.7,0,0,0-8.5-6.4,18.8,18.8,0,0,0-7.9-1.7h.2l4.3-1.4a20.3,20.3,0,0,0,3.1-.8l2-.6h.1l7.5-1.6,4.9-.9h.2a21,21,0,0,0,7.1,3.4,9.5,9.5,0,0,0,3.9.3l2.5-.5,1.3-.4,1.4-.4,2.4-.8,1.7-.6,2.7-.9A14.4,14.4,0,0,0,278.8,138.2ZM125.1,158.7c-3.6-2.9-3-10.5.2-18.6l4.3-7.2,1.4-2.1,1.3-1.8c5.5-7.6,11.6-12.1,14.3-10.8s1.8,12.1-3.2,22.3C137.4,152.7,129.1,162,125.1,158.7ZM190.2,170l-2.3-.6-1.5-.8-1.4-.9a12.3,12.3,0,0,1-2-1.9l4.6,2.2,2.4,1.1,2.1,1Zm-2.5-3.7a22.7,22.7,0,0,1,4.1,2.9l-7.9-3.7.8-.2A9.5,9.5,0,0,1,187.7,166.3Zm3.5-15a8.1,8.1,0,0,1,3.9-3.9,13.1,13.1,0,0,0-3.4,4.1l-1.1,2.2a18.7,18.7,0,0,0-.7,2.2A15.9,15.9,0,0,1,191.2,151.3Zm.5,1.7a14.3,14.3,0,0,1,5.9-6.4h.9a40.4,40.4,0,0,0-4.8,5.1,24.4,24.4,0,0,0-3.9,8.1A22.2,22.2,0,0,1,191.7,153Zm2.3-.5a27.9,27.9,0,0,1,5.2-5.5c-2,8.2-5.5,12-9.2,14.5A24.1,24.1,0,0,1,194,152.5Zm-2.2,8.6c3-2.4,5.8-6,7.6-12.3a17.5,17.5,0,0,1-2,7.4A10.9,10.9,0,0,1,191.8,161.1Zm18.1,3.1a11.9,11.9,0,0,1-6.7.9,20,20,0,0,1-6.3-2.2l6.6.5a58,58,0,0,1,6.4.8Zm-7.9-3.1a15.1,15.1,0,0,1,6.4,2.1l-6-.6-5.5-.4A8.4,8.4,0,0,1,202,161.1Zm7.9-15.6a13.7,13.7,0,0,1,3.4-3.1c-1,1.4-2.2,3.3-3.3,5.2a43.7,43.7,0,0,0-2.8,5.8A15.6,15.6,0,0,1,209.9,145.5Zm-2.6,9.5a37.5,37.5,0,0,1,3.1-6.5,64.5,64.5,0,0,1,3.8-6,20.1,20.1,0,0,1-2,7.3,12.5,12.5,0,0,1-4.5,5Zm15,7.5a27.9,27.9,0,0,1-8.5-2.1,35.3,35.3,0,0,0,9.3,1.3,28.6,28.6,0,0,0,7.5-.9A15.6,15.6,0,0,1,222.3,162.5Zm-.6-1.5a33.4,33.4,0,0,1-11.4-2.6,99.6,99.6,0,0,0,10.7,1.2c3.7.2,7.3.4,9.8.4A30.9,30.9,0,0,1,221.7,161Zm-.1-2.1a86.9,86.9,0,0,1-12.7-1.5c2.8-.9,7.5-1.2,12.1-.8a33.2,33.2,0,0,1,11.6,2.6C230.3,159.3,226.1,159.2,221.6,158.9Zm-2-5.1a22.6,22.6,0,0,1,11,3.9,38.6,38.6,0,0,0-10.5-1.9,41.1,41.1,0,0,0-10.3.6A16.7,16.7,0,0,1,219.6,153.8Zm1.2-16.7a15.7,15.7,0,0,1,7.5-7.1l2-.8a14,14,0,0,0-1.8,1.3,25.5,25.5,0,0,0-9.8,14.6A18.7,18.7,0,0,1,220.8,137.1Zm-2.1,11.2a25.6,25.6,0,0,1,10-17.1,32.8,32.8,0,0,1,3.1-2l-2.3,4c-1.5,2.7-3.1,5.5-4.9,8.1a48.8,48.8,0,0,1-5.9,7.5Zm6.8-7c1.5-2.4,3-4.8,4.4-7.2l1.8-3.2c-.4,1.3-.8,2.7-1.4,4.3a39.2,39.2,0,0,1-2.2,4.7,23.6,23.6,0,0,1-7.7,8.2A70.9,70.9,0,0,0,225.5,141.3Zm23.3,18.3a23.9,23.9,0,0,1-6.5-1.3l-3.5-1.5a50.9,50.9,0,0,1-10.8-7.4l9.5,4.2c5.4,2.1,10.6,3.9,15.5,5.4A14.5,14.5,0,0,1,248.8,159.6Zm4.8-1.1c-5.2-1.6-10.7-3.5-16.4-5.8-3.3-1.3-6.6-2.7-10-4.4a45.4,45.4,0,0,1,8.5.6,33.2,33.2,0,0,1,11.2,4.2A30.7,30.7,0,0,1,253.6,158.5Zm-13-10.9a21.5,21.5,0,0,1,7,3.9,14.2,14.2,0,0,1,2.5,2.4,20.5,20.5,0,0,1,2,2.3,24.7,24.7,0,0,0-2.9-2.4,39.9,39.9,0,0,0-3.7-2.3,37.4,37.4,0,0,0-10.1-3.3,35.5,35.5,0,0,0-6.7-.6,20.1,20.1,0,0,1,11.9,0Zm5.8-16.5a19.7,19.7,0,0,1,5.9-2.5l1.3-.3,1.3-.2h2.3a41,41,0,0,0-9.4,4c-3.4,2.1-6.6,4.7-8.5,7.7A19.3,19.3,0,0,1,246.4,131.1Zm-6.9,11-.9.2a18.5,18.5,0,0,1,4-5.4,27.7,27.7,0,0,1,5.8-4.4,35.6,35.6,0,0,1,10.5-4.1v.3c-2.3,1.9-5.6,4.4-9.1,6.9A59.5,59.5,0,0,1,239.5,142.1Zm4.5-1.2-1.1.3c2.4-1.5,5-3.3,7.6-5.2l6.9-5.3a40.8,40.8,0,0,1-4.9,5.8,22.2,22.2,0,0,1-5.2,3.6Zm23.6-6.5a14.4,14.4,0,0,1,5.4,1l2,1.1,1.6,1.2a19.6,19.6,0,0,0-7.5-1.9,21.7,21.7,0,0,0-9.3,1.3A14.7,14.7,0,0,1,267.6,134.4Zm7.3,5.8c-2.6.8-5.4,1.8-8.1,1.8a11.9,11.9,0,0,1-3.2-.5,12.7,12.7,0,0,1-2.3-.8L260,140l-1.4-.8,8.3.5,8.8.3Zm-6.8-1.2-9.5-.5a21.1,21.1,0,0,1,10.9-1.9,17.3,17.3,0,0,1,8.3,2.7Z"/><path class="cls-1" d="M53.2,51.3a1.8,1.8,0,0,0-1.3.6,2.7,2.7,0,0,0-1,1.9,1.1,1.1,0,0,1,.8-.2.9.9,0,0,1,.6.3.8.8,0,0,1,.3.8,1.3,1.3,0,0,1-.4.7c-.3.3-.5.4-.8.3a1.1,1.1,0,0,1-.8-.3,1.7,1.7,0,0,1-.2-1.6,3.4,3.4,0,0,1,.6-1.2,3.5,3.5,0,0,1,1-1.2l1.1-.9,1.1-.3a2,2,0,0,1,1.1.3l1.2,1,3.4,3.7a.9.9,0,0,0,.6.3c.1.1.3,0,.4-.1a.5.5,0,0,0,.3-.4.7.7,0,0,0,.1-.5h.4c-.1.2-.1.5-.2.6a.8.8,0,0,1-.2.5l-.5.6a1.7,1.7,0,0,1-1.2.6,2.4,2.4,0,0,1-1.1-.6,2.7,2.7,0,0,1-.2,1.8,3.4,3.4,0,0,1-.9,1.4,2.6,2.6,0,0,1-1.1.7,2,2,0,0,1-1.1.2,2.1,2.1,0,0,1-1-.6,2.4,2.4,0,0,1-.6-1.1,5.9,5.9,0,0,1,.2-1.3,12.6,12.6,0,0,1,.8-1.8,3.1,3.1,0,0,1,.4-.9,2.4,2.4,0,0,0,.4-1.2.6.6,0,0,0-.2-.7l-.7-.8A1.9,1.9,0,0,0,53.2,51.3ZM55.7,54l-.6,1.4a6.9,6.9,0,0,0-.4,1,1.7,1.7,0,0,0,0,1,4.7,4.7,0,0,0,.5,1,1.7,1.7,0,0,0,1.2.6,2.7,2.7,0,0,0,1.1-.5,2.8,2.8,0,0,0,.7-2.6l-2.4-2.5A3.5,3.5,0,0,0,55.7,54Z"/><path class="cls-1" d="M81.2,40.2h.6l.8-.4.2.3-2.1,1.3-1.8,1.2-.2-.3c.3-.2.5-.3.6-.5a.7.7,0,0,0,.1-.6,1.3,1.3,0,0,0-.3-.7l-2.8-4.4-.7-.8a1,1,0,0,0-.7-.4l-1,.3a3.1,3.1,0,0,0-.9,1.1,2.6,2.6,0,0,0-.2,1.5,4.4,4.4,0,0,0,.6,1.6l2.2,3.4a1.7,1.7,0,0,0,.6.6.6.6,0,0,0,.6,0l.8-.3.2.3-2,1.2L73.9,46l-.2-.3a1.7,1.7,0,0,0,.6-.6.4.4,0,0,0,.1-.5,1.1,1.1,0,0,0-.3-.7l-2.8-4.4-.7-.9a.9.9,0,0,0-.7-.3,1.1,1.1,0,0,0-1,.3,2,2,0,0,0-.9,1.1,2.5,2.5,0,0,0-.2,1.5,5.2,5.2,0,0,0,.6,1.6l2.2,3.3.5.6a.7.7,0,0,0,.6.1l.7-.3.2.3L70.7,48l-1.9,1.3-.2-.3a1.7,1.7,0,0,0,.6-.6c.2-.2.2-.3.2-.6a1.3,1.3,0,0,0-.3-.7L66,42.4a1.9,1.9,0,0,0-.9-.9c-.3-.1-.7.1-1.2.4l-.2-.4a6,6,0,0,0,1.1-.6,7.5,7.5,0,0,0,1.6-1.3l1.1,1.8a3.6,3.6,0,0,1,.3-2.1,2.7,2.7,0,0,1,1.3-1.5,2.9,2.9,0,0,1,2.1-.6,3.1,3.1,0,0,1,1.3.9,3,3,0,0,1,.2-2.1,4,4,0,0,1,1.4-1.5,2.8,2.8,0,0,1,2.1-.5,1.4,1.4,0,0,1,.9.5,3.5,3.5,0,0,1,.9,1.1l2.6,4A1.7,1.7,0,0,0,81.2,40.2Z"/><path class="cls-1" d="M87.6,28a3.7,3.7,0,0,1,2.2.8A5.8,5.8,0,0,1,91.5,31a4.8,4.8,0,0,1,.6,2.7,3.2,3.2,0,0,1-.7,2.2,4.5,4.5,0,0,1-1.9,1.4,4.6,4.6,0,0,1-2.3.6,3.7,3.7,0,0,1-2.1-.8,5.6,5.6,0,0,1-1.7-2.2,6.1,6.1,0,0,1-.7-2.8,3.8,3.8,0,0,1,.7-2.1,5.8,5.8,0,0,1,1.9-1.5A5,5,0,0,1,87.6,28Zm-3.4,2.7a7.8,7.8,0,0,0,.9,3.4,7,7,0,0,0,2.1,2.7,2,2,0,0,0,2.2.2,2,2,0,0,0,1.2-1.8,6.4,6.4,0,0,0-.9-3.4A5.9,5.9,0,0,0,87.6,29a2.3,2.3,0,0,0-2.1-.2A2.4,2.4,0,0,0,84.2,30.7Z"/><path class="cls-1" d="M110.6,28.1a.9.9,0,0,0,.6.3l.9-.2v.4l-2.3.6-2.1.8v-.4l.7-.3c.2-.1.2-.3.3-.5a1.3,1.3,0,0,0-.2-.8l-1.6-4.9a6.6,6.6,0,0,0-.4-1.1,1,1,0,0,0-.6-.5,1.5,1.5,0,0,0-1.1.1,2.1,2.1,0,0,0-1.1.8,3.5,3.5,0,0,0-.6,1.4,5.2,5.2,0,0,0,.2,1.7l1.3,3.8c.1.3.2.6.4.7l.5.2h.9v.3l-2.3.7-2,.8-.2-.4c.3-.1.6-.2.7-.4a.5.5,0,0,0,.3-.5,2,2,0,0,0-.1-.7l-1.6-5a4.6,4.6,0,0,0-.5-1c-.1-.3-.3-.4-.6-.6a1.9,1.9,0,0,0-1,.1,2.5,2.5,0,0,0-1.2.8,2.5,2.5,0,0,0-.5,1.5,3.5,3.5,0,0,0,.2,1.7l1.2,3.8a1.6,1.6,0,0,0,.4.7l.5.2h.8v.3l-2.2.7a16.4,16.4,0,0,0-2.2.8v-.4A2,2,0,0,0,97,33a.5.5,0,0,0,.3-.5,1.2,1.2,0,0,0-.1-.8l-1.7-5.3a1.9,1.9,0,0,0-.7-1.1,1.4,1.4,0,0,0-1.3,0V25l1.2-.4a4.8,4.8,0,0,0,1.9-.9l.6,2.1a4,4,0,0,1,.8-2,3.9,3.9,0,0,1,1.7-1.1,2.6,2.6,0,0,1,2.1,0,2,2,0,0,1,1,1.2,4,4,0,0,1,.8-2,3.9,3.9,0,0,1,1.7-1.1,3.3,3.3,0,0,1,2.2,0l.8.7a4.6,4.6,0,0,1,.5,1.4l1.5,4.5A1.4,1.4,0,0,0,110.6,28.1Z"/><path class="cls-1" d="M122.2,25.8a3.8,3.8,0,0,1-1.1,1.1,4.4,4.4,0,0,1-1.6.6,4.2,4.2,0,0,1-2.5-.1,3.6,3.6,0,0,1-1.9-1.3,5.3,5.3,0,0,1-.9-2.3,6.6,6.6,0,0,1,0-2.8,3.7,3.7,0,0,1,1.2-2,5.1,5.1,0,0,1,2.2-1.1,3.9,3.9,0,0,1,2.9.5,4.4,4.4,0,0,1,1.5,2.7l-6.1,1.2c0,.3.1.7.1,1.1a5.3,5.3,0,0,0,.9,2,2.8,2.8,0,0,0,1.3,1.1,2.6,2.6,0,0,0,1.5.2,3,3,0,0,0,2.6-2.3h.4A11.2,11.2,0,0,1,122.2,25.8Zm-2.6-6.2a3.3,3.3,0,0,0-.9-1.1,1.4,1.4,0,0,0-1.1-.2,2.4,2.4,0,0,0-1.1.6,3.4,3.4,0,0,0-.6,1.2,5.6,5.6,0,0,0-.1,1.9l4.2-.8A6.2,6.2,0,0,0,119.6,19.6Z"/><path class="cls-1" d="M130,16.7a3.4,3.4,0,0,1,2-.6,2.4,2.4,0,0,1,2.1.5,1.6,1.6,0,0,1,.6.8,3.3,3.3,0,0,1,.3,1.5l.4,4.8a1.4,1.4,0,0,0,.2.7,1,1,0,0,0,.5.4h.9v.4h-2.3l-2.2.3v-.4a1.5,1.5,0,0,0,.8-.2.8.8,0,0,0,.4-.4,2.1,2.1,0,0,0,0-.8l-.4-5.2a3.6,3.6,0,0,0-.2-1.1,1.5,1.5,0,0,0-.5-.6,1.3,1.3,0,0,0-1.1-.2,2.4,2.4,0,0,0-1.4.5,3.8,3.8,0,0,0-.9,1.3,8.8,8.8,0,0,0-.2,1.7l.4,4a1.2,1.2,0,0,0,.2.7.8.8,0,0,0,.4.4h.8v.4h-2.2l-2.4.3v-.4l.9-.2.4-.4a1.9,1.9,0,0,0,.1-.8l-.5-5.6a1.9,1.9,0,0,0-.4-1.2,2.1,2.1,0,0,0-1.2-.3v-.3h1.2a8.8,8.8,0,0,0,2-.4l.2,2.1A4.1,4.1,0,0,1,130,16.7Z"/><path class="cls-1" d="M145.8,16v.4h-2.9v7a1.7,1.7,0,0,0,.3,1.2,1.9,1.9,0,0,0,.9.4,1.6,1.6,0,0,0,1.1-.5,3.5,3.5,0,0,0,.7-1.5h.4c-.3,1.7-1.2,2.5-2.6,2.5l-1.1-.2-.8-.4-.6-1a6.6,6.6,0,0,1-.1-1.5V16.3h-1.9V16h1.9V13.2l1.7-.2v3Z"/><path class="cls-1" d="M161.9,17.5v.4l-2.9-.4-.9,6.9a1.6,1.6,0,0,0,.2,1.2c.1.3.4.4.9.5a2.3,2.3,0,0,0,1.1-.3,4.2,4.2,0,0,0,.9-1.4h.4c-.6,1.6-1.5,2.4-2.9,2.2l-1.1-.3a1.3,1.3,0,0,1-.7-.6,1.9,1.9,0,0,1-.5-1,10.4,10.4,0,0,1,.1-1.6l.7-5.9-1.8-.3v-.4l1.9.3.3-2.7h1.8l-.3,3Z"/><path class="cls-1" d="M172.2,19.8a4.5,4.5,0,0,1,1.2,2,5.4,5.4,0,0,1-.1,2.8,5.3,5.3,0,0,1-1.1,2.5,3.8,3.8,0,0,1-1.9,1.3,4.9,4.9,0,0,1-2.4,0,6.4,6.4,0,0,1-2.2-1,6.2,6.2,0,0,1-1.2-1.9,5.8,5.8,0,0,1,.1-2.9,5.3,5.3,0,0,1,1.1-2.5,3.8,3.8,0,0,1,1.9-1.3,4.9,4.9,0,0,1,2.4,0A5,5,0,0,1,172.2,19.8Zm-4.3.1a6.9,6.9,0,0,0-1.5,3.1,6.7,6.7,0,0,0,0,3.5A2,2,0,0,0,168,28a2,2,0,0,0,2.1-.7,6.9,6.9,0,0,0,1.4-3.1,6.8,6.8,0,0,0,0-3.5,1.9,1.9,0,0,0-1.6-1.5A1.9,1.9,0,0,0,167.9,19.9Z"/><path class="cls-1" d="M183.8,31a2.3,2.3,0,0,0,.4,1.4,2.2,2.2,0,0,0,1.3.9h.8l.8-.2a1.5,1.5,0,0,0,.6-.9,1.4,1.4,0,0,0,.1-.9,3.6,3.6,0,0,0-.4-.9l-.9-1.2a9.2,9.2,0,0,1-1.1-1.4,3.7,3.7,0,0,1-.5-1.1,2,2,0,0,1,.1-1.3,2.1,2.1,0,0,1,.8-1,2,2,0,0,1,1.3-.4,4,4,0,0,1,1.5.3l1.1.6.7.8.2.3c.2.1.5-.1.7-.6l.5.2a17.3,17.3,0,0,0-1.2,2.8l-.4-.2a4.8,4.8,0,0,0-.1-2.1,2.3,2.3,0,0,0-1.5-1.4,1.7,1.7,0,0,0-1.2-.1c-.4.1-.6.4-.8.8a1.4,1.4,0,0,0,.1,1.1,7.5,7.5,0,0,0,.7,1.2l.7.8a7.7,7.7,0,0,1,1,1.5,1.8,1.8,0,0,1,.5,1.2,1.7,1.7,0,0,1-.1,1.2,2.7,2.7,0,0,1-.9,1.2,3.3,3.3,0,0,1-1.5.3,4.5,4.5,0,0,1-1.6-.3,3.7,3.7,0,0,1-1.4-.8l-.6-.8h-.1c-.2-.1-.4.1-.7.5l-.4-.2a35.7,35.7,0,0,0,1.4-3.3l.4.2A6.7,6.7,0,0,0,183.8,31Z"/><path class="cls-1" d="M199.7,29.8a3.5,3.5,0,0,1,2,.5,3,3,0,0,1,1.6,1.5,4.1,4.1,0,0,1,.1,1.1,7.3,7.3,0,0,1-.6,1.4l-2.1,4.2a1.3,1.3,0,0,0-.2.8.7.7,0,0,0,.2.6l.7.5v.3l-2.1-1.1-2-1v-.3l.8.3.5-.2c.2-.1.3-.4.5-.7l2.3-4.6a2.6,2.6,0,0,0,.4-1,1.4,1.4,0,0,0-.1-.9,1.9,1.9,0,0,0-.8-.7,2.2,2.2,0,0,0-1.4-.2,2.4,2.4,0,0,0-1.4.5,3.8,3.8,0,0,0-1.1,1.4l-1.8,3.6a1.3,1.3,0,0,0-.3.7,1.4,1.4,0,0,0,.2.6l.7.4-.2.4-2-1.1-2.1-1,.2-.3.8.3.6-.2c.2-.1.3-.3.5-.6l4.6-9.2a2.1,2.1,0,0,0,.3-1.2,1.9,1.9,0,0,0-.9-.9v-.3l1.1.6a6.9,6.9,0,0,0,2,.7l-3.1,6A4.5,4.5,0,0,1,199.7,29.8Z"/><path class="cls-1" d="M212.7,37.5a3.3,3.3,0,0,0-1-1.1,2.7,2.7,0,0,0-2-.5,1.6,1.6,0,0,1,.4.7.8.8,0,0,1-.2.7,1.3,1.3,0,0,1-.6.5,1.6,1.6,0,0,1-.9-.3c-.3-.1-.4-.4-.5-.6a1.5,1.5,0,0,1,.2-.9q.3-.6,1.5-.6a7,7,0,0,1,1.2.3,5.1,5.1,0,0,1,1.5.7l1.1.9a2,2,0,0,1,.5.9,2.4,2.4,0,0,1,0,1.2,4.5,4.5,0,0,1-.7,1.4L210.5,45a2.1,2.1,0,0,0-.2.6c0,.2.1.3.3.4l.4.2h.5v.4h-1.3l-.6-.3a2.2,2.2,0,0,1-.9-1.1,2.7,2.7,0,0,1,.3-1.2,2.9,2.9,0,0,1-1.8.3,4.4,4.4,0,0,1-1.6-.6,2.8,2.8,0,0,1-1-.9,3,3,0,0,1-.4-1,1.5,1.5,0,0,1,.4-1.1,1.4,1.4,0,0,1,.9-.8,2.7,2.7,0,0,1,1.3-.2l2,.3.9.2a3.1,3.1,0,0,0,1.3.1.6.6,0,0,0,.6-.3l.6-.9A1.9,1.9,0,0,0,212.7,37.5Zm-2,3.1-1.6-.2H208a1.5,1.5,0,0,0-.9.2,1.8,1.8,0,0,0-.8.7,1.7,1.7,0,0,0-.3,1.3,1.4,1.4,0,0,0,.8.9,2.6,2.6,0,0,0,2.6.1l1.9-3Z"/><path class="cls-1" d="M221.3,44.3a3.3,3.3,0,0,1,1.4-.1,1.6,1.6,0,0,1,1.1.5,1.7,1.7,0,0,1,.9,1.5c-.1.3-.1.5-.3.7a1.1,1.1,0,0,1-2-.5.7.7,0,0,1,.2-.7,1,1,0,0,1,1.1-.3.5.5,0,0,0-.2-.4,2,2,0,0,0-1.5-.5,4.9,4.9,0,0,0-1.6.5l-1.2.9L216.9,49a1,1,0,0,0-.3,1.2,2.7,2.7,0,0,0,1,1.2l-.2.3L215,49.8l-1.9-1.4.3-.3.7.5h.7l.6-.5,3.4-4.4a1.9,1.9,0,0,0,.5-1.2,1.5,1.5,0,0,0-.7-1l.2-.3,1,.8a6.9,6.9,0,0,0,1.7,1.1l-1.3,1.7Z"/><path class="cls-1" d="M227.5,59.3a2.6,2.6,0,0,1-1.5-.2,3.8,3.8,0,0,1-1.5-.9,4.1,4.1,0,0,1-1.4-2.1,3.6,3.6,0,0,1,0-2.3,5.9,5.9,0,0,1,3.5-3.7,4.7,4.7,0,0,1,2.3-.3,5.3,5.3,0,0,1,2.2,1.2,3.5,3.5,0,0,1,1.3,2.6,3.8,3.8,0,0,1-1.3,2.8l-4.5-4.2-.9.8a5.8,5.8,0,0,0-1.1,1.8,3.7,3.7,0,0,0-.1,1.8,2.9,2.9,0,0,0,.8,1.3,3,3,0,0,0,3.3.7l.2.4A2.8,2.8,0,0,1,227.5,59.3Zm3.4-5.7a2.4,2.4,0,0,0,.4-1.3,1.4,1.4,0,0,0-.5-1.1,2.2,2.2,0,0,0-1.1-.5,2.1,2.1,0,0,0-1.3.2,4.7,4.7,0,0,0-1.6,1l3.1,3A3.8,3.8,0,0,0,230.9,53.6Z"/><path class="cls-2" d="M44.4,216.8l9.2-6.6h-.1l-12.2,2.5v-.3l6.1-10.8h0l-9.2,6.6-.2-.3,9.5-6.9.4.5-6.1,10.7,12.1-2.4.3.5-9.5,6.9Z"/><path class="cls-2" d="M50.5,217.9l-.9,1.1a6.9,6.9,0,0,0-.5,1.3,6.6,6.6,0,0,0,.1,1.4A2.6,2.6,0,0,0,50,223a3.1,3.1,0,0,0,1.3,1,4.1,4.1,0,0,0,1.6.2v.3a3.2,3.2,0,0,1-1.7-.2,4.4,4.4,0,0,1-1.5-1,10,10,0,0,1-.8-1.4,3.8,3.8,0,0,1-.1-1.5,4.3,4.3,0,0,1,.4-1.4,4.5,4.5,0,0,1,1.1-1.3,3.8,3.8,0,0,1,1.3-.9,4,4,0,0,1,1.5-.3l1.4.4a2.8,2.8,0,0,1,1.1.8,5.5,5.5,0,0,1,.9,1.4,6.6,6.6,0,0,1,.1,1.4,5.6,5.6,0,0,1-.4,1.2l-.9,1.1-.2.2Zm4.6,4.6a4.4,4.4,0,0,0,.8-1.1,2.7,2.7,0,0,0,.3-1.2,2.5,2.5,0,0,0-.1-1.2l-.7-1.1a2.6,2.6,0,0,0-1.3-.8,3,3,0,0,0-1.3-.2l-1.2.3-.8.5Z"/><path class="cls-2" d="M60.1,224.2h1a1.9,1.9,0,0,1,1,.3l.8.5a4.9,4.9,0,0,1,.7,1.1,1.7,1.7,0,0,1,.1,1.2,1.9,1.9,0,0,1-.3,1,8.6,8.6,0,0,1-.7,1l-3.2,3.3-.3-.2,3.2-3.4.6-.7a4.2,4.2,0,0,0,.4-1,3.4,3.4,0,0,0-.1-1,1.7,1.7,0,0,0-.7-1l-1-.7H60.4l-1.3.4-1.2,1-2.6,2.8-.3-.3,3.9-4.1.3-.4.4-.4.3-.4.3-.3.2.3-.2.3c-.1.1-.3.2-.4.4l-.4.4-.3.4h0Z"/><path class="cls-2" d="M69.5,238.1h-.1a2.1,2.1,0,0,1-1,.4H67.3l-1.1-.2-.9-.6a2.9,2.9,0,0,1-1-1.2,2.3,2.3,0,0,1-.4-1.4,3.8,3.8,0,0,1,.1-1.5,5,5,0,0,1,.8-1.4,4.3,4.3,0,0,1,1.2-1.1,3.4,3.4,0,0,1,1.4-.5h1.5l1.4.7a4.8,4.8,0,0,1,1.2,1.7,4.4,4.4,0,0,1,.1,2.3h0l1.3-1.6.3.2-4.5,5.7a4.6,4.6,0,0,1-1.2,1.2,3.9,3.9,0,0,1-1.4.8,3.8,3.8,0,0,1-1.5.1,4,4,0,0,1-1.6-.8,5.8,5.8,0,0,1-1.3-1.5,3.7,3.7,0,0,1-.5-1.7h.3a4.2,4.2,0,0,0,.5,1.7,3.7,3.7,0,0,0,1.2,1.3,2.6,2.6,0,0,0,1.5.7,2.2,2.2,0,0,0,1.4-.1,3.3,3.3,0,0,0,1.3-.7l1.1-1.2Zm-4.4-5.7a3.3,3.3,0,0,0-.7,1.3,3.4,3.4,0,0,0-.2,1.4,3.1,3.1,0,0,0,.3,1.3,5.2,5.2,0,0,0,1,1.1,3.1,3.1,0,0,0,1.3.6h1.3l1.4-.5a4.7,4.7,0,0,0,1-1,2.4,2.4,0,0,0,.7-1.3,3.4,3.4,0,0,0,.2-1.4,5,5,0,0,0-.4-1.3,3.1,3.1,0,0,0-.9-1.1,3.8,3.8,0,0,0-1.3-.6H67.4a3.8,3.8,0,0,0-1.3.6A2.8,2.8,0,0,0,65.1,232.4Z"/><path class="cls-2" d="M77.6,237.3a2.3,2.3,0,0,1,1.6.4h.2v.2h-.2a1.9,1.9,0,0,0-1.2-.4l-1.2.2-1.1.7a3.9,3.9,0,0,0-.8,1l-2.2,3.3-.3-.2,3.2-4.8.2-.4.3-.4.3-.5.2-.3.3.2-.2.3-.3.5-.3.5-.3.4h.1A2.9,2.9,0,0,1,77.6,237.3Z"/><path class="cls-2" d="M82.6,247.7l-.9.2h-1l-.9-.4a1.8,1.8,0,0,1-1-.9,4.2,4.2,0,0,1-.4-1,2.5,2.5,0,0,1,.2-1.2,4.9,4.9,0,0,1,.4-1.1l2.3-4,.3.2-2.2,4a3.6,3.6,0,0,0-.4.9,1.8,1.8,0,0,0-.2,1,1.7,1.7,0,0,0,.3,1,1.9,1.9,0,0,0,.9.9,2,2,0,0,0,1.1.3,2.5,2.5,0,0,0,1.2-.1l1.2-.7a6,6,0,0,0,.9-1.3l1.9-3.3.4.2-2.9,4.9a.5.5,0,0,1-.2.4l-.2.5-.3.5c-.1.1-.1.3-.2.4l-.3-.2c.1-.1.1-.3.2-.4l.3-.5.2-.5.3-.4h-.1Z"/><path class="cls-2" d="M95.8,255.1l.2-.4,11-7.6-7.1-2.6.2-.3,7.3,2.7-.2.4L96.3,255l7.4,2.7v.3Z"/><path class="cls-2" d="M108.9,253.7l.7-.8.9-.5.9-.2h1a2.3,2.3,0,0,1,1.2.6,2.1,2.1,0,0,1,.6,1,3.6,3.6,0,0,1,.2,1.1,5,5,0,0,1-.2,1.2l-1.2,4.4h-.3l1.2-4.4c0-.3.1-.6.1-1a3.1,3.1,0,0,0-.1-1,4.1,4.1,0,0,0-.5-.9,2,2,0,0,0-1.1-.6h-1.2a2.1,2.1,0,0,0-1.1.4,2.8,2.8,0,0,0-.9,1,6.1,6.1,0,0,0-.7,1.4l-1,3.7h-.3l3.2-12.1h.4l-1.8,6.7Z"/><path class="cls-2" d="M122.9,260.8c0,.3-.1.6-.1.9s-.1.6-.1.8h-.3v-.4a4.3,4.3,0,0,1,.1-.5v-.5a.8.8,0,0,0,.1-.4h-.1a2.9,2.9,0,0,1-1.4,1.3,3.5,3.5,0,0,1-1.8.2l-.8-.3-.8-.6a2,2,0,0,1-.4-.8,2.8,2.8,0,0,1-.1-1,1.9,1.9,0,0,1,.7-1.2,3.3,3.3,0,0,1,1.2-.5,2.9,2.9,0,0,1,1.3-.1h1.4l1.3.3v-.6a2.5,2.5,0,0,0-.4-2,2.2,2.2,0,0,0-1.6-.9h-1.3l-1.1.5-.2-.3a2.9,2.9,0,0,1,1.3-.5,3.3,3.3,0,0,1,1.4,0,3.2,3.2,0,0,1,1.9,1,2.6,2.6,0,0,1,.3,2.2Zm.1-2.4-1.2-.2-1.3-.2h-1.3a1.8,1.8,0,0,0-1,.4,2,2,0,0,0-.6,1.1,1.4,1.4,0,0,0,0,.9,4.3,4.3,0,0,0,.4.7l.7.4.7.2h1.4a3.9,3.9,0,0,0,1.1-.6,2.1,2.1,0,0,0,.6-1,7.6,7.6,0,0,0,.4-1.1Z"/><path class="cls-2" d="M128.6,256.7l.8-.6.9-.4h1a2.8,2.8,0,0,1,1.3.4,2.7,2.7,0,0,1,.7.8,4.9,4.9,0,0,1,.4,1.1v1.2l-.5,4.6h-.3l.4-4.5v-1a1.7,1.7,0,0,0-.3-1,1.6,1.6,0,0,0-.6-.8l-1.2-.4H130l-1,.7a3.1,3.1,0,0,0-.8,1.1,5.4,5.4,0,0,0-.4,1.5l-.3,3.8h-.4l.6-5.7v-1a.9.9,0,0,0,.1-.5v-.4h.3v1.5a1.1,1.1,0,0,0-.1.5h0Z"/><path class="cls-2" d="M144.4,262.1h0l-.6,1-.8.7-1,.4h-1.1a4,4,0,0,1-1.5-.3,2.7,2.7,0,0,1-1.2-.9,5,5,0,0,1-.8-1.2,4.4,4.4,0,0,1-.2-1.6,4.7,4.7,0,0,1,.3-1.7,3.2,3.2,0,0,1,.8-1.2,2.7,2.7,0,0,1,1.2-.9,4,4,0,0,1,1.5-.3,3.6,3.6,0,0,1,2,.6,3.7,3.7,0,0,1,1.4,1.8h.1v-2.1h.4v7.2a8.8,8.8,0,0,1-.2,1.7,5.2,5.2,0,0,1-.7,1.5,3.2,3.2,0,0,1-2.9,1.3,4.2,4.2,0,0,1-2-.4,4.5,4.5,0,0,1-1.4-1l.3-.3a3.6,3.6,0,0,0,1.4,1.1,4.7,4.7,0,0,0,1.7.3,3.8,3.8,0,0,0,1.6-.3,3.6,3.6,0,0,0,1.1-1,5,5,0,0,0,.5-1.3,10,10,0,0,0,.2-1.6Zm-6.9-1.8a6.8,6.8,0,0,0,.2,1.4,7.5,7.5,0,0,0,.7,1.2l1.1.8a3.4,3.4,0,0,0,2.8,0,2.3,2.3,0,0,0,1.1-.8,2.8,2.8,0,0,0,.8-1.1,4,4,0,0,0,.3-1.5,3.2,3.2,0,0,0-.3-1.4,3.5,3.5,0,0,0-.7-1.2,2.8,2.8,0,0,0-1.1-.8,3.2,3.2,0,0,0-1.4-.3,2.2,2.2,0,0,0-1.4.2,2.4,2.4,0,0,0-1.1.9,2.6,2.6,0,0,0-.7,1.1A4,4,0,0,0,137.5,260.3Z"/><path class="cls-2" d="M168.5,255.5a6.1,6.1,0,0,1,0,2.7,6.3,6.3,0,0,1-1,2,4.5,4.5,0,0,1-1.9,1.4,6.2,6.2,0,0,1-2.4.8l-3.3.6-2-11.6,3.2-.5a7.7,7.7,0,0,1,2.6-.1,5.5,5.5,0,0,1,2.2.6,5.2,5.2,0,0,1,1.7,1.6A8.1,8.1,0,0,1,168.5,255.5Zm-10.2-3.8,1.9,10.9,2.8-.5a8.4,8.4,0,0,0,2.4-.7,4.7,4.7,0,0,0,1.7-1.4,3.9,3.9,0,0,0,1-1.9,6.8,6.8,0,0,0,.1-2.5,5.3,5.3,0,0,0-1-2.4,5.4,5.4,0,0,0-1.5-1.5,7.9,7.9,0,0,0-2.2-.6,9.9,9.9,0,0,0-2.4.1Z"/><path class="cls-2" d="M172.3,256.6a6.7,6.7,0,0,0,.6,1.2,4.5,4.5,0,0,0,.9,1,3.1,3.1,0,0,0,1.3.6,4.5,4.5,0,0,0,1.6-.1,3.9,3.9,0,0,0,1.4-.8,3,3,0,0,0,.9-1.3h.3a4,4,0,0,1-1,1.5,4.8,4.8,0,0,1-1.6.8,2.6,2.6,0,0,1-1.5.1,2.4,2.4,0,0,1-1.4-.5,3.5,3.5,0,0,1-1.1-1,5.1,5.1,0,0,1-.7-1.5,4.7,4.7,0,0,1-.2-1.6,6.6,6.6,0,0,1,.4-1.5,3.2,3.2,0,0,1,2.2-1.7,4.7,4.7,0,0,1,1.6-.2l1.3.5a2.8,2.8,0,0,1,.9,1,3.4,3.4,0,0,1,.6,1.2v.3Zm6.1-2.1a2.3,2.3,0,0,0-.6-1.2,2,2,0,0,0-.9-.9,2,2,0,0,0-1.1-.3,2,2,0,0,0-1.3.1,3.1,3.1,0,0,0-1.4.7l-.7,1.1a5,5,0,0,0-.2,1.2,2,2,0,0,0,.1,1.1Z"/><path class="cls-2" d="M187,253.9a2.8,2.8,0,0,1,.1.9,1.1,1.1,0,0,1-.3.8,1.8,1.8,0,0,1-.5.7l-.9.5a3.9,3.9,0,0,1-1.5.2,2.9,2.9,0,0,1-1.4-.5l.2-.3a2.9,2.9,0,0,0,2.6.3l.7-.4.5-.6.3-.7a2.5,2.5,0,0,0-.1-.8c-.2-.3-.3-.6-.6-.7a.9.9,0,0,0-.7-.3h-2.5l-.8-.2-.6-.3-.4-.8a2.5,2.5,0,0,1-.1-.8,1.1,1.1,0,0,1,.3-.8l.6-.6.7-.4a2.6,2.6,0,0,1,2.6.2l-.2.3-1.1-.4a3,3,0,0,0-1.2.2l-.6.3-.5.5a1.4,1.4,0,0,0-.2.6,1.1,1.1,0,0,0,0,.8l.5.7.5.3a2.2,2.2,0,0,0,.8,0h2.6l.7.4A1.6,1.6,0,0,1,187,253.9Z"/><path class="cls-2" d="M187.2,244.6h-.3l-.3-.3V244l.2-.2h.3l.2.2c.1.2.1.3,0,.4Zm3.9,9.7-3-7h.3l3,7Z"/><path class="cls-2" d="M200.6,247.6h-.1a4,4,0,0,1,0,1.1,10.4,10.4,0,0,1-.4,1l-.7.8-.9.7-1.5.4-1.5-.2a5,5,0,0,1-1.2-.8,4.1,4.1,0,0,1-1-1.3,4.9,4.9,0,0,1-.5-1.6,7.6,7.6,0,0,1,.1-1.5,5.4,5.4,0,0,1,.7-1.3l1.3-1a3.4,3.4,0,0,1,2-.3,3.2,3.2,0,0,1,2.1.9h0l-.9-1.8.3-.2,3.2,6.4a5.8,5.8,0,0,1,.6,1.7,2.9,2.9,0,0,1,.1,1.6,2.2,2.2,0,0,1-.6,1.4,3.3,3.3,0,0,1-1.4,1.1,4.1,4.1,0,0,1-1.9.5,3.2,3.2,0,0,1-1.7-.2v-.4a2.7,2.7,0,0,0,1.7.3,3.4,3.4,0,0,0,1.7-.5,3.4,3.4,0,0,0,1.3-1,2.4,2.4,0,0,0,.5-1.4,3.4,3.4,0,0,0-.1-1.4l-.6-1.5Zm-7,1.5a3.4,3.4,0,0,0,.9,1.2,2.6,2.6,0,0,0,1.1.7,3.1,3.1,0,0,0,1.3.3,4.2,4.2,0,0,0,1.5-.4,3.1,3.1,0,0,0,1.1-.9,3.4,3.4,0,0,0,.6-1.2,3.3,3.3,0,0,0,.1-1.4,3.3,3.3,0,0,0-.4-1.4,2.7,2.7,0,0,0-.9-1.2,2.4,2.4,0,0,0-1.2-.7,1.9,1.9,0,0,0-1.3-.2,3.5,3.5,0,0,0-1.4.3,5.3,5.3,0,0,0-1.1.9,3.1,3.1,0,0,0-.6,1.3,2,2,0,0,0-.1,1.3A3.3,3.3,0,0,0,193.6,249.1Z"/><path class="cls-2" d="M203.2,240.9a2.9,2.9,0,0,1,.3-1,1.4,1.4,0,0,1,.5-.8l.7-.7a2.2,2.2,0,0,1,1.3-.4,1.5,1.5,0,0,1,1.1.2l.9.6.7.9,2.5,4h-.3l-2.4-3.8a8,8,0,0,0-1.5-1.5l-1-.2a1.7,1.7,0,0,0-1.1.4,2.4,2.4,0,0,0-.9.8,4,4,0,0,0-.4,2.5,3.4,3.4,0,0,0,.7,1.5l2,3.2-.4.2-3-4.9-.2-.3-.3-.5-.3-.4-.2-.3.3-.2.2.3.3.5.3.4.3.4h0A3.4,3.4,0,0,1,203.2,240.9Z"/><path class="cls-2" d="M222.6,235.2l-.3-.3v-6.3a18.5,18.5,0,0,0-.1-2.5,4.5,4.5,0,0,0-.8-1.7l-.9-.7-1-.2a1.4,1.4,0,0,0-.9.1,3.3,3.3,0,0,0-1,.6,3.8,3.8,0,0,0-.9,1.5,2.8,2.8,0,0,0,.2,1.8h-.3a2.5,2.5,0,0,1-.2-1.9,2.7,2.7,0,0,1,1-1.7,3.4,3.4,0,0,1,1.1-.7l1.1-.2a2.3,2.3,0,0,1,1.1.3l.9.7.6.9.3,1c0,.3.1.7.1,1.2s.1,1,.1,1.5v6l4.6-4.1.3.2Z"/><path class="cls-2" d="M233.1,225.7a3.2,3.2,0,0,1-1.7.9,3.7,3.7,0,0,1-1.8-.2,8.1,8.1,0,0,1-1.8-1l-1.6-1.3a10.7,10.7,0,0,1-1.4-1.6,4.2,4.2,0,0,1-1-1.7,2.9,2.9,0,0,1-.3-1.8,2.5,2.5,0,0,1,.8-1.7,3.1,3.1,0,0,1,1.7-1,3.7,3.7,0,0,1,1.8.2,8.1,8.1,0,0,1,1.8,1l1.6,1.3a10.7,10.7,0,0,1,1.4,1.6,6.2,6.2,0,0,1,1.1,1.7,3.7,3.7,0,0,1,.2,1.8A2.9,2.9,0,0,1,233.1,225.7Zm-8.5-8.2a1.9,1.9,0,0,0-.7,1.1,2.4,2.4,0,0,0,0,1.2,2.8,2.8,0,0,0,.4,1.2l.6,1.1.8,1,.7.7.8.7,1,.8,1.1.6,1.2.3a1.7,1.7,0,0,0,1.2-.1,3,3,0,0,0,1.8-1.8,4.9,4.9,0,0,0,.1-1.2,5.6,5.6,0,0,0-.4-1.2l-.7-1.1-.8-1-.7-.7-.8-.7-1-.7a4.1,4.1,0,0,0-1.1-.7l-1.2-.3a2.5,2.5,0,0,0-1.2.1A1.9,1.9,0,0,0,224.6,217.5Z"/><path class="cls-2" d="M240,217.5l-8.8-7.1v2.9H231v-3.2l.2-.3,9.2,7.4Z"/><path class="cls-2" d="M238.5,200.4l6.6,10.3-.2.4-6.6-10.5-3.4,4.9h-.3l3.6-5.3Z"/></svg>