<svg xmlns="http://www.w3.org/2000/svg" viewBox="0 0 283.5 283.5"><defs><style>.cls-1{fill:#231f20;}</style></defs><title>groupA</title><g id="Layer_4" data-name="Layer 4"><path class="cls-1" d="M51.5,65A14.2,14.2,0,0,0,49,68.2a24.5,24.5,0,0,0-2.1,4.6,26.8,26.8,0,0,0-1.6,10.9,14.5,14.5,0,0,0-.4-1.6c-.2-.5-.3-1-.5-1.6s-.3-1.3-.5-1.9-.6-2.7-.9-3.6-.4-1.7-.4-1.7l-.3-1.4a3.2,3.2,0,0,1,1-1,36.8,36.8,0,0,0,3.5-2.5l2.1-2.1L50.1,65l1.1-1.3a5,5,0,0,0,.8-1.4l-1,.2A5.6,5.6,0,0,1,50,64l-1.2,1.5-1.1,1.2-2,1.8a4,4,0,0,1-2.8,1.1c-.6-.2-.2-2.9,1.3-5.7l-.8.2c-.4.9-.8,1.8-1.1,2.7s-.4,1.8-.5,2.5L41.4,67,41,64.6l-1,.2.2,1.5a3.6,3.6,0,0,1,.2,1,.6.6,0,0,0,.1.4c-.4-.9-.8-1.9-1.2-2.7h-.7a35.8,35.8,0,0,1,2.5,6.1l.2.7a7,7,0,0,1-.6-.9,6.1,6.1,0,0,0-.7-1c-.5-.8-1.2-1.7-1.9-2.6a8.8,8.8,0,0,0-.3-2.1h-.7a2.2,2.2,0,0,1,.1.8l-.5-.7-.9.2,2.1,2.9a12.9,12.9,0,0,0-5-1.1l-1.3-.9-1.7.3c1.1.9,2.2,1.8,3.4,2.6l3.4,2.2,3,1.8A15.3,15.3,0,0,1,42,75l.3,1.6c.3,1,.6,2.3.9,3.5l.3,1,.3.9c.1.6.3,1.2.4,1.6l.4,1.2a1.6,1.6,0,0,1,.1.4l-.4-.7a18.5,18.5,0,0,0-2-3.4,23.8,23.8,0,0,0-3.9-4.2,13.5,13.5,0,0,0-4.8-2.6,4.6,4.6,0,0,0-3.2.2c-.8,0-1-.6-2.1-1.9s-2.4-.2-2,.5.9.6,1.7,1a3.9,3.9,0,0,1,1.9,2.1h0a14.2,14.2,0,0,0,5.9,7.5,17.2,17.2,0,0,0,4.5,2.1,29.7,29.7,0,0,1,3.5.9,5.9,5.9,0,0,1,1.8,1.3,11,11,0,0,1,.6,1.6l.5,1.6a17.1,17.1,0,0,1,.7,1.8c.4,1.2.9,2.4,1.3,3.3l.4,1.1c.2.3.2.4.2.4-2.5-4.1-5.2-6.7-7.7-8s-4.7-1.4-6-.5a5.4,5.4,0,0,0-2.1,5.8,15.4,15.4,0,0,0,.5,1.7,9.5,9.5,0,0,0,1,1.7l1.5,1.5a6.7,6.7,0,0,0,2,1.2,9.5,9.5,0,0,0,2.1.9l2.1.6,4,.9a14,14,0,0,1,3.5,1,8.1,8.1,0,0,1,3.1,1.8,8.7,8.7,0,0,1,.9,1.7l.6,1.2c.2.4.5.8.7,1.3s1,1.8,1.5,2.8l1.7,2.9,1.7,2.8,1.5,2.4,1.7,2.6c.5,1,2.6-1.2,2.1-1.8l-.9-1-.8-.9-.8-1.1-2-2.6-1.1-1.5L59,113.7l-1.1-1.6a8.6,8.6,0,0,0-1-1.6,34.9,34.9,0,0,1-1.8-3.1l-1.5-2.6c-.3-.8-.7-1.4-.8-1.8v-.2l-.4-.7a6.7,6.7,0,0,1,.2-2.4,24.8,24.8,0,0,1,1.3-3c.3-.6.5-1.2.8-1.9s.5-1.5.7-2.5a13.3,13.3,0,0,0,0-7.8,5.1,5.1,0,0,1,.8-2.9,12.8,12.8,0,0,0,1.2-2.3c-.1-.5-2.2.6-2.3,1.3a8.6,8.6,0,0,1-1,3.2,5.2,5.2,0,0,0-2.4,1.3,7.9,7.9,0,0,0-1.9,4.1,20.8,20.8,0,0,0-.3,2.3,15.5,15.5,0,0,0,.1,2.2,16.4,16.4,0,0,0,.7,3.6l-.2-.4a4.6,4.6,0,0,1-.3-.9l-.6-1.3a1.9,1.9,0,0,0-.2-.7l-.3-.8-1.1-2.8a11.1,11.1,0,0,0-.4-1.3c-.1-2.2.8-2.9,2.9-5.5l4.1-5c1.3-1.7,2.7-3.6,4-5.7a20.1,20.1,0,0,0,1.7-3.2c.1-.5.3-1,.4-1.5a6.8,6.8,0,0,0,.2-1.4,6.1,6.1,0,0,0-.4-2.4,4.2,4.2,0,0,0-1.6-1.7C56.8,61.7,53.9,62.7,51.5,65ZM33.3,67.8a17.6,17.6,0,0,1,5.9,2.6l1.5,2.3L39,71.5l-1.8-1.3A41.1,41.1,0,0,1,33.3,67.8ZM43.9,85.6a5.1,5.1,0,0,1-2.7-.4l-2.5-.9a15.3,15.3,0,0,1-3.1-1.6,9.6,9.6,0,0,1-2.2-1.8,11.9,11.9,0,0,1-1.5-1.8,12.6,12.6,0,0,1-.8-1.8,3.4,3.4,0,0,1-.2-1.3c0-.9,1-1.2,2.4-.8a10.4,10.4,0,0,1,2.4.9,21.2,21.2,0,0,1,2.8,2,20.9,20.9,0,0,1,2.6,2.5,11.3,11.3,0,0,1,1,1.3l.8,1.1a12,12,0,0,1,1,1.9C44.1,85.3,44.1,85.6,43.9,85.6Zm-.2,6.8A28,28,0,0,1,47.8,97a2.6,2.6,0,0,0,.2,1.4,15.4,15.4,0,0,0,.8,1.9L47.2,99a15.7,15.7,0,0,1-2.1-3.3A20,20,0,0,1,43.7,92.4Zm-4.3-2.5A6.6,6.6,0,0,1,42,91a8.3,8.3,0,0,1,1.6,1.3,28.3,28.3,0,0,0,.7,2.8,17.1,17.1,0,0,0,1.3,2.7l-3.1-2.1a6.4,6.4,0,0,1-1-1.3l-.5-.7-.4-.8A11.7,11.7,0,0,1,39.4,89.9ZM35,91.6a3.8,3.8,0,0,1,4.3-1.7,13.8,13.8,0,0,0,.6,2.6,4.3,4.3,0,0,0,.5,1.2,3.1,3.1,0,0,0,.5,1l-3.2-1.8a14.6,14.6,0,0,0-2.8-1.1Zm-.1.2a21,21,0,0,1,2.6,1.3l1.3.8,1.4.9a9.9,9.9,0,0,0-5.5.9A4.5,4.5,0,0,1,34.9,91.8Zm-.2,4a9.3,9.3,0,0,1,7.9.8l1.8,1.3a21,21,0,0,0-6.8,1.3,12.9,12.9,0,0,1-1.7-1.6A9.4,9.4,0,0,1,34.7,95.8Zm7.9,5.6a14.3,14.3,0,0,1-4.9-2.1c3.3-.9,6.4-1,8.3-.2l2.6,2.2a7.5,7.5,0,0,0-4.2.5Zm2.1.4a9,9,0,0,1,2.8-.1l1.1.2,1,.3a13.5,13.5,0,0,1,1.7,1.7,10.1,10.1,0,0,0-3-1.3Zm5.4-.4a13.2,13.2,0,0,1-1.2-2,18.9,18.9,0,0,1-.9-2.1l1.7,2.4a10,10,0,0,0,.8,1.4,10,10,0,0,0,.8,1.4ZM50.2,90a7.8,7.8,0,0,1,2.1-4.5c.9-.8,1.8-1,2.2-.5s.6,1.2.6,2.5a16.2,16.2,0,0,1-.1,2.1c-.1.7-.3,1.6-.5,2.4a28.1,28.1,0,0,1-.8,2.9,7.6,7.6,0,0,1-.8,2,14.1,14.1,0,0,1-1.4,2c-.2.3-.7-.8-1.1-2.5a13.6,13.6,0,0,1-.4-3A13,13,0,0,1,50.2,90Zm7.7-26,.2.2a23.6,23.6,0,0,0-4.6,5.1,17.6,17.6,0,0,0-.1-4.7,5.4,5.4,0,0,1,2.4-1A3,3,0,0,1,57.9,64Zm-4.6.6c-.1.8-.1,1.8-.2,2.9s-.3,2.1-.4,3l-1.5,2.2a4.7,4.7,0,0,0,0-1.2A7.7,7.7,0,0,0,51,70a6.8,6.8,0,0,0-.2-1.5c-.1-.5-.1-1-.2-1.3A13,13,0,0,1,53.3,64.6Zm-5.5,7.6a18.9,18.9,0,0,1,1.1-2.5l.7-1.1a8.6,8.6,0,0,1,.7-1l.2-.2c0,.8.1,1.9.1,3.1a20.2,20.2,0,0,1-.1,3.5,8,8,0,0,0-.8,1.6,8,8,0,0,0-.8,1.6,5.9,5.9,0,0,0-.2-1.3l-.3-1.4C48.2,73.6,47.9,72.7,47.8,72.2ZM46.2,84.9a26.2,26.2,0,0,1-.1-2.9V80.5c0-.6.1-1.1.1-1.6a34.2,34.2,0,0,1,1.5-6.5c.2,1.1.3,2.2.4,3.3a14.8,14.8,0,0,1,.1,2.9A27.9,27.9,0,0,0,47,82c-.2.5-.3,1-.5,1.5Zm4.4-4a31.2,31.2,0,0,0-3.5,4.6,13.8,13.8,0,0,1,.6-2.6,20.3,20.3,0,0,1,2.9-3.4,21.3,21.3,0,0,1,3.8-2.9c-.6.6-1.1,1.3-1.7,2Zm6.2-7.8a38.8,38.8,0,0,1-2.3,3.3,15.7,15.7,0,0,0-6,4l.4-1.2.6-1.3c.3-.9.7-1.7,1.1-2.6A35.9,35.9,0,0,1,57.4,72Zm.7-1.3a22.8,22.8,0,0,0-6.1,2l1.7-2.9a21.7,21.7,0,0,1,5.7-2.5A21.1,21.1,0,0,1,57.5,71.8Zm1.3-3.6a13.7,13.7,0,0,0-4.9,1.4,27.8,27.8,0,0,1,2.3-3.1,16.6,16.6,0,0,1,1.9-2.3,2.4,2.4,0,0,1,.8,1.6A6.7,6.7,0,0,1,58.8,68.2Z"/><path class="cls-1" d="M46.7,60.6c1.3-1.2,3.1-2.3,4.2-1.5a1.6,1.6,0,0,1,.7,1.5,2.9,2.9,0,0,1-.2.9,4.2,4.2,0,0,1-.4,1l1-.2a6.5,6.5,0,0,0,.6-2.5,3.4,3.4,0,0,0-.4-1.9c.7-1.5,2.8-2.4,3.6-3.6s-1.9-.7-2.5.1-.8,2-1.9,3-3.1.5-4.5,1.8a14.2,14.2,0,0,0-2,2.2,18.2,18.2,0,0,0-1.5,2.7l.8-.2A15.1,15.1,0,0,1,46.7,60.6Z"/><path class="cls-1" d="M28.9,64.2l-.7-.8a17,17,0,0,1,7.2,1.8l.4.5.9-.2-1.5-1.9a32.8,32.8,0,0,0-.9-3.7,14.6,14.6,0,0,0-.7-1.9,8.7,8.7,0,0,0-.7-1.7l.7.9,1.5,2,1.3,2c.2.6.3,1.3.5,2a15,15,0,0,1,.2,2.2h.7a17.7,17.7,0,0,0-.8-3.1l1.6,2.9h.7c-.4-.8-.7-1.5-1.1-2.2a11.8,11.8,0,0,0-1.1-1.9,35.6,35.6,0,0,0-2.2-3.5c-.8-1.1-1.5-2.1-2.3-3l-2.2-2.3-2.1-1.7a7.7,7.7,0,0,0-1.9-1.1c-1.2-.5-2.1-.6-2.6-.2A4.3,4.3,0,0,0,22.4,51a6.8,6.8,0,0,0-.2,2.9,16.6,16.6,0,0,0,1.1,3.7,37.2,37.2,0,0,0,2.5,4.8,13,13,0,0,0,1.8,2.3,23.9,23.9,0,0,0,2.3,2.2l1.7-.3A21,21,0,0,1,28.9,64.2Zm3.5-8.5.6,1.7c.2.6.3,1.2.5,1.8s.4,2.2.6,2.9l-1.9-2.3-1.9-2.3c-.3-1-.7-2.1-1.1-3.1a16.3,16.3,0,0,0-1.5-2.7A25,25,0,0,1,32.4,55.7Zm-4.9-4.2a20,20,0,0,1,1,2.6c.3.9.5,1.7.7,2.2l-2.7-2.8c-.9-.9-1.8-1.6-2.6-2.3C24.7,50.3,26,50.7,27.5,51.5Zm-3.7-.3a33.8,33.8,0,0,1,2.6,2.7l1.4,1.6c.5.5.9,1.1,1.4,1.7a19.6,19.6,0,0,0-5-.9,10.9,10.9,0,0,1-.8-3.1A3.5,3.5,0,0,1,23.8,51.2Zm.4,5.2,3.3,1a16.8,16.8,0,0,1,3,1.4l1.8,2.3,1.8,2.3c-1.4-.6-4.6-.5-6-.2A24.8,24.8,0,0,1,24.2,56.4Z"/><path class="cls-1" d="M40.9,64.2a15.4,15.4,0,0,1,2-3,11.9,11.9,0,0,1,1.5-1.8L46,57.5l1.8-2,1.6-2.1A17.6,17.6,0,0,0,52,49.5a18.6,18.6,0,0,0,1-2l.7-1.6a13.5,13.5,0,0,0,.7-2.7,3.6,3.6,0,0,0-.4-1.9,2.6,2.6,0,0,0-1.3-1.2,3.4,3.4,0,0,0-2.7.3l-1.9,1.2-1,.9a4.7,4.7,0,0,0-1,1A29.6,29.6,0,0,0,44,46.1c-.6,1.1-1.2,2.2-1.8,3.5a32.1,32.1,0,0,0-2.1,9.1c-.4-3.5-.6-6.7-.7-8.1a105.2,105.2,0,0,1,3.1-11.5c1.3-4,2.6-7.7,2.7-10.9a24.1,24.1,0,0,0,0-3.8,22.1,22.1,0,0,0-.7-3c-.7-1.8-1.7-3-3-3.2s-2.9.3-4.4,2a15,15,0,0,0-3,8.5,31.9,31.9,0,0,0,1.4,11.9c1,3.6,2.3,6.8,3,10.1.1,1,.2,2.6.4,4.5a3.3,3.3,0,0,1-.4-1.3c-.7-5.4-1.6-9.1-3.8-11.6a4.6,4.6,0,0,0-2.8-1.5h-.6c-.6-.1-.9-.7-1.1-1.3a7.4,7.4,0,0,1-.3-1.9c-.1-.7-1.9,1-1.6,1.3S30,41.3,30,42a7.8,7.8,0,0,0,0,3.8,7.5,7.5,0,0,0,.7,2.3,10.5,10.5,0,0,0,1.4,2.5,18,18,0,0,0,5.1,4.7A11.1,11.1,0,0,1,39,56.5c.1,1.2.2,2.6.4,4l.3,2.2.3,2.1,1-.2Zm.5-2.7.3-1.3a8.3,8.3,0,0,1,.4-1.5A7.3,7.3,0,0,1,44,58a11.5,11.5,0,0,0-1.4,1.7Zm2.8-3.8a6.5,6.5,0,0,0-1.9.2c.2-.5.4-1.1.7-1.7l.7-1.8c1.2-.9,3.6-1.3,4.8-1.5C47.2,54.5,45.6,56.1,44.2,57.7Zm5.4-6.3-1,1.4c-1.4-.1-3-.3-4.3.4a21.2,21.2,0,0,0,1.1-2.1,24,24,0,0,1,5.8-2.3A22.6,22.6,0,0,1,49.6,51.4Zm1.7-2.7A14.9,14.9,0,0,0,46,50.2,35.3,35.3,0,0,1,48.1,47a12.4,12.4,0,0,1,2.4-1.6A13.9,13.9,0,0,1,53,44.2,23.5,23.5,0,0,1,51.3,48.7ZM53,44.2a9.2,9.2,0,0,0-3.9,1.5L51,43.4l.9-.9,1-.9a1.7,1.7,0,0,1,.3,1A4.7,4.7,0,0,1,53,44.2Zm-.3-2.7a.1.1,0,0,1,.1.1A28.6,28.6,0,0,0,46.1,49a24.6,24.6,0,0,0,.7-2.9c.1-.9.3-1.8.3-2.3l1.5-1.3,1.6-.9A2.8,2.8,0,0,1,52.7,41.5Zm-8.3,5.6A18.3,18.3,0,0,1,47,43.9c-.2.6-.3,1.2-.6,1.9s-.4,1.3-.6,2l-1.2,3.7L43.7,53,43,54.5V52.2a18.5,18.5,0,0,1-.1-2.3A19.1,19.1,0,0,1,44.4,47.1Zm-1.6,3.1c-.1.6-.1,1.2-.2,1.8s-.1.6-.1.9a2.5,2.5,0,0,1-.1.8,19.9,19.9,0,0,1-.4,3c-.3.8-.6,1.6-.8,2.3l-.3,1.1-.3.9A24.5,24.5,0,0,1,42.8,50.2Zm-5,4.3a5.9,5.9,0,0,1-3-1.9,16.3,16.3,0,0,1-1.7-2,7.9,7.9,0,0,1-1.4-2.3l-.6-1.4a9.4,9.4,0,0,1-.4-1.6c-.2-1.1-.1-2.1.6-2.6a2,2,0,0,1,2.5.3,7.2,7.2,0,0,1,1.9,2.4,6.7,6.7,0,0,1,.6,1.2c.1.4.3.9.4,1.4s.6,2,.8,3,.3,1.8.4,2.4S37.9,54.4,37.8,54.5Zm3.5-34.6a3.3,3.3,0,0,1,2,2.4,8.1,8.1,0,0,0-2.8,3C40.8,23.3,41,21.4,41.3,19.9Zm-1,7a8,8,0,0,1,3.1-4.5,14.4,14.4,0,0,1,.5,3.4,10.6,10.6,0,0,0-4,4.6c.1-.6.1-1.2.2-1.8S40.2,27.5,40.3,26.9Zm-.5,4.7a13.7,13.7,0,0,1,1.9-3.4,20.2,20.2,0,0,1,2.2-2.1,20.9,20.9,0,0,1-.1,2.4,12.3,12.3,0,0,1-.2,1.9,19.2,19.2,0,0,0-2.3,2,11.6,11.6,0,0,0-1.8,2.7Zm-.4,4.9a3.6,3.6,0,0,1,.4-.9l.4-.9a8.3,8.3,0,0,1,1.1-1.5,18.9,18.9,0,0,1,2.3-2.5L43,33.4c-.2.9-.5,1.8-.8,2.8a13.6,13.6,0,0,0-1.6,1.7L39.9,39a3.8,3.8,0,0,0-.6,1.3C39.3,39.1,39.3,37.8,39.4,36.5Zm-.2,5.6a15.3,15.3,0,0,1,1.1-2.7,10.6,10.6,0,0,1,1.8-2.7,82.6,82.6,0,0,0-2.8,10.5c0-.8-.1-1.6-.1-2.4Zm-.8,4.7-.9-2.9-.9-3c-.2-.5-.3-1.1-.5-1.6l-.3-1.6a20.8,20.8,0,0,1-.6-3.6l1,1.3c.3.6.7,1.1,1,1.8a11.9,11.9,0,0,1,.8,2,14.2,14.2,0,0,1,.5,2.2,7.6,7.6,0,0,0-.1,1.5v3.9Zm.1-7.5a10.1,10.1,0,0,0-1.4-3,20,20,0,0,0-1.9-2.4,16.2,16.2,0,0,1-.1-2.2,21.8,21.8,0,0,1,.1-2.5,13.4,13.4,0,0,1,3.5,7.1C38.7,37.3,38.6,38.3,38.5,39.3Zm.4-4.8a8.8,8.8,0,0,0-1.5-3.1A10.4,10.4,0,0,0,35.2,29h0a2.8,2.8,0,0,1,.1-.9,2.8,2.8,0,0,1,.1-.9l.3-1.5a23,23,0,0,1,.9-2.5A17.4,17.4,0,0,1,37.7,25a14.2,14.2,0,0,1,.8,1.8l.6,1.6.3,1.3-.3,2.4A19.4,19.4,0,0,1,38.9,34.5ZM36.7,23a6.3,6.3,0,0,1,2.1-2.6,3.1,3.1,0,0,1,2.2-.5l-.3,1.8a15.5,15.5,0,0,0-.4,2.1c-.3,1.4-.5,3-.7,4.6a13.8,13.8,0,0,0-1.2-2.9l-.9-1.4A3.1,3.1,0,0,0,36.7,23Z"/><path class="cls-1" d="M205.3,163.8l7.5,4.2h0l-5.5-7.7v-.2l9.4.9h0l-7.4-4.2v-.3l7.7,4.4-.2.5-9.3-.9,5.5,7.6-.3.4-7.7-4.4Z"/><path class="cls-1" d="M206.6,167.5l-1-.4h-1l-1,.4a2.4,2.4,0,0,0-.8.9,5.6,5.6,0,0,0-.4,1.2,2.7,2.7,0,0,0,.3,1.2h-.3a3.2,3.2,0,0,1-.2-1.3,2,2,0,0,1,.4-1.3,2.4,2.4,0,0,1,.8-.9,1.9,1.9,0,0,1,1-.5,2.1,2.1,0,0,1,1.1,0l1.2.4a3.9,3.9,0,0,1,1,.8,3.1,3.1,0,0,1,.5,1,2,2,0,0,1,.1,1.1,1.9,1.9,0,0,1-.3,1,2.4,2.4,0,0,1-.8.9,1.8,1.8,0,0,1-1,.4h-1a1.9,1.9,0,0,1-1-.3H204Zm-2.2,4.3,1,.4h.9a1.2,1.2,0,0,0,.8-.4,1.6,1.6,0,0,0,.7-.7,2.6,2.6,0,0,0,.3-1.1,3,3,0,0,0-.2-1,2.2,2.2,0,0,0-.5-.8l-.6-.5Z"/><path class="cls-1" d="M204.5,175.3c.1.2.1.5.2.7a2.2,2.2,0,0,1-.1.8,1.4,1.4,0,0,1-.2.6,2.9,2.9,0,0,1-.7.8,1.3,1.3,0,0,1-.8.3H202l-.8-.4-3-1.7v-.2l3,1.7.7.3h.8l.7-.2a1.6,1.6,0,0,0,.7-.7,2.4,2.4,0,0,0,.2-.9,1.4,1.4,0,0,0-.1-.9,2.2,2.2,0,0,0-.5-.8,3.9,3.9,0,0,0-1-.8l-2.5-1.4.2-.3,3.7,2.2.3.2h.4l.3.2.3.2v.2h-.3l-.4-.2-.3-.2-.4-.2h0A1.8,1.8,0,0,1,204.5,175.3Z"/><path class="cls-1" d="M195.8,183.5h0a2,2,0,0,1-.4-.8c-.1-.2-.1-.5-.2-.8s.1-.5.1-.8l.3-.7a3.1,3.1,0,0,1,1.8-1.4h1.2a2.5,2.5,0,0,1,1.1.4,2.5,2.5,0,0,1,1,.8,3.1,3.1,0,0,1,.5,1,2,2,0,0,1,.1,1.1,2.3,2.3,0,0,1-.3,1.1,2.5,2.5,0,0,1-1.2,1.1,2.4,2.4,0,0,1-1.7.3h0l1.4.8v.3l-4.8-2.7-1.1-.8a3.6,3.6,0,0,1-.7-1,2,2,0,0,1-.2-1.1,2.5,2.5,0,0,1,.4-1.4,5.2,5.2,0,0,1,1-1.1,3.1,3.1,0,0,1,1.2-.5v.2a2.3,2.3,0,0,0-1.2.6,2.2,2.2,0,0,0-.9,1,2.8,2.8,0,0,0-.4,1.2,1.7,1.7,0,0,0,.3,1,1.6,1.6,0,0,0,.7.9l1,.7Zm3.8-3.9-1-.4h-1.1l-.9.4a2.4,2.4,0,0,0-.8.9,1.9,1.9,0,0,0-.3,1,3.1,3.1,0,0,0,.1,1,2.6,2.6,0,0,0,1.4,1.7l1,.4h1.1a1.8,1.8,0,0,0,.9-.4,3,3,0,0,0,.8-.8,2.3,2.3,0,0,0,.3-1.1,3.4,3.4,0,0,0-.1-1,4.7,4.7,0,0,0-.6-.9A2.7,2.7,0,0,0,199.6,179.6Z"/><path class="cls-1" d="M197.4,188.9a2.1,2.1,0,0,1-.3,1.2h-.2a1.8,1.8,0,0,0,.2-1,1.9,1.9,0,0,0-.2-.8,2.4,2.4,0,0,0-.6-.8l-.8-.6-2.6-1.5.2-.2,3.7,2.1.3.2.4.2.3.2h.3v.2h-.3l-.4-.2-.3-.2-.4-.2h0A2.3,2.3,0,0,1,197.4,188.9Z"/><path class="cls-1" d="M189.9,192.3a1.4,1.4,0,0,1-.2-.7v-.7l.3-.7a1.9,1.9,0,0,1,.7-.8l.8-.3h.9l.8.4,3,1.7v.3l-3-1.7-.7-.4h-.8l-.7.2-.7.7-.3.9a2.9,2.9,0,0,0,.2.9,2,2,0,0,0,.5.9,3.5,3.5,0,0,0,.9.7l2.5,1.5v.2l-3.8-2.2h-.3l-.3-.2-.4-.2h-.3l.2-.3.3.2.3.2a.5.5,0,0,1,.4.2h.3A4.3,4.3,0,0,1,189.9,192.3Z"/><path class="cls-1" d="M186.4,196.9h.3l4.3,9.3,2.8-5h.3l-3,5.2-.3-.2-4.3-9.2-3,5.3-.2-.2Z"/><path class="cls-1" d="M186,206.2a1.6,1.6,0,0,1,.4.7,1.4,1.4,0,0,1,.2.7.9.9,0,0,1,0,.7c-.1.3-.1.5-.3.7a2.8,2.8,0,0,1-.6.8l-.9.2H184l-.8-.4-3.1-1.7.2-.3,3,1.7.7.4h.7l.8-.2.6-.7a1.6,1.6,0,0,0,.3-.9,2.8,2.8,0,0,0-.1-.9,4.1,4.1,0,0,0-.5-.9l-1-.7-2.5-1.5v-.2l8.3,4.7v.3l-4.6-2.6Z"/><path class="cls-1" d="M178.1,214.1l-.6-.4-.6-.2v-.2h.3l.4.2h.3l.3.2h0a1.8,1.8,0,0,1-.6-1.3,2.8,2.8,0,0,1,.3-1.3l.5-.6a1,1,0,0,1,.5-.4h.7l.7.2a1.3,1.3,0,0,1,.7.8,1.6,1.6,0,0,1,.1,1,4.4,4.4,0,0,1-.2,1l-.5.9-.5.9.4.2a1.7,1.7,0,0,0,1.5.2,1.6,1.6,0,0,0,1.1-.9,3.2,3.2,0,0,0,.3-.9v-1h.2a2,2,0,0,1,0,1.1,3.2,3.2,0,0,1-.3.9,1.9,1.9,0,0,1-2.9.8Zm1.7.6.5-.7.4-.9a2.2,2.2,0,0,0,.3-1,2.8,2.8,0,0,0-.1-.9,1.9,1.9,0,0,0-.6-.7l-.7-.2-.5.2-.5.3-.4.5a1.9,1.9,0,0,0-.3,1,2,2,0,0,0,.2.9,1.8,1.8,0,0,0,.5.7l.7.6Z"/><path class="cls-1" d="M179.7,218.6a1.9,1.9,0,0,1,.2.7.9.9,0,0,1,0,.7.9.9,0,0,1-.3.7,2.8,2.8,0,0,1-.6.8l-.9.3h-.8l-.8-.4-3.1-1.7.2-.3,3,1.8.7.3h.7l.8-.2c.2-.2.5-.4.6-.7a1.6,1.6,0,0,0,.3-.9,2.8,2.8,0,0,0-.1-.9,4.1,4.1,0,0,0-.5-.9l-1-.7-2.5-1.4v-.3l3.8,2.2h.3l.4.2.3.2h.3v.3l-.3-.2-.4-.2-.4-.2h-.3A1.6,1.6,0,0,1,179.7,218.6Z"/><path class="cls-1" d="M171.1,226.8h0l-.4-.8a1.9,1.9,0,0,1-.2-.8,2.2,2.2,0,0,1,.1-.8,1.5,1.5,0,0,1,.3-.7,2.4,2.4,0,0,1,.8-.9,1.9,1.9,0,0,1,1-.5h1.1a3.1,3.1,0,0,1,1.2.5,2.2,2.2,0,0,1,.9.7,3,3,0,0,1,.6,1.1,3.7,3.7,0,0,1,.1,1.1,2.5,2.5,0,0,1-.4,1.1,2.3,2.3,0,0,1-1.1,1.1,2.5,2.5,0,0,1-1.7.3h0l1.4.8-.2.2-4.7-2.7-1.1-.7a3,3,0,0,1-.7-1,1.6,1.6,0,0,1-.2-1.2,2.4,2.4,0,0,1,.4-1.3,4.8,4.8,0,0,1,.9-1.1,3.1,3.1,0,0,1,1.3-.6v.3a3.1,3.1,0,0,0-1.3.6,3.4,3.4,0,0,0-.8.9,2.4,2.4,0,0,0-.4,1.3,3,3,0,0,0,.2,1l.7.9,1,.7Zm3.7-3.9-1-.4h-1l-1,.4a2.2,2.2,0,0,0-.7.9,1.7,1.7,0,0,0-.3,1,1.6,1.6,0,0,0,.1,1,3.1,3.1,0,0,0,.5,1,2.7,2.7,0,0,0,.8.7l1.1.4h1l1-.4a2.7,2.7,0,0,0,.7-.8,4.9,4.9,0,0,0,.4-1.1,3.6,3.6,0,0,0-.2-1,4.1,4.1,0,0,0-.5-.9A2.2,2.2,0,0,0,174.8,222.9Z"/><path class="cls-1" d="M167,239.8a5.3,5.3,0,0,1-1.6-1.3,4.4,4.4,0,0,1-.6-1.6,5.4,5.4,0,0,1,0-1.8,7.1,7.1,0,0,1,.8-1.8l1.2-2.2,7.8,4.5-1.3,2.2a4.4,4.4,0,0,1-1.2,1.5,4,4,0,0,1-1.5,1,4.7,4.7,0,0,1-1.7.2A5.6,5.6,0,0,1,167,239.8Zm7.2-4.1-7.3-4.2-1.1,1.9a6.1,6.1,0,0,0-.7,1.7,5,5,0,0,0-.1,1.7,3.4,3.4,0,0,0,.7,1.5,4.4,4.4,0,0,0,1.4,1.3l1.9.6a3,3,0,0,0,1.6-.2,4.2,4.2,0,0,0,1.4-.9l1.1-1.5Z"/><path class="cls-1" d="M164.7,240.7l-.9-.4a2.1,2.1,0,0,0-1.1,0,2.6,2.6,0,0,0-1,.4,2.7,2.7,0,0,0-.7.8,1.9,1.9,0,0,0-.4,1.2,2.5,2.5,0,0,0,.2,1.2h-.2a3.1,3.1,0,0,1-.3-1.3,3.8,3.8,0,0,1,.4-1.3,2.4,2.4,0,0,1,.8-.9l1-.5h1.2a3.1,3.1,0,0,1,1.2.5,1.8,1.8,0,0,1,.9.8,2.4,2.4,0,0,1,.6.9,4.1,4.1,0,0,1,.1,1.1,4.9,4.9,0,0,1-.4,1.1,2.4,2.4,0,0,1-.8.9l-.9.4a1.7,1.7,0,0,1-1,0l-1-.4h-.2Zm-2.2,4.4,1,.3h1l.8-.4a2.4,2.4,0,0,0,.6-.8,2.5,2.5,0,0,0,.4-1.1c-.1-.3-.1-.7-.2-1l-.6-.8-.5-.5Z"/><path class="cls-1" d="M158.3,249a1.2,1.2,0,0,1-.5-.5,1.4,1.4,0,0,1-.2-.6.8.8,0,0,1,0-.7,2.5,2.5,0,0,1,.2-.7,3,3,0,0,1,.8-.8,1.5,1.5,0,0,1,1.1-.4v.2a2.3,2.3,0,0,0-1.7,1.2c-.1.1-.1.3-.2.5v.6a.8.8,0,0,0,.2.5l.5.5h.6l.6-.2.5-.4.5-.4.4-.5.5-.2h.5l.6.2a.8.8,0,0,1,.5.5.8.8,0,0,1,.2.5c.1.2,0,.4,0,.7s-.1.4-.2.6a2.2,2.2,0,0,1-1.7,1.1v-.3a1,1,0,0,0,.8-.3.9.9,0,0,0,.6-.6c.1-.2.2-.3.2-.5a1.1,1.1,0,0,0,.1-.5.8.8,0,0,0-.2-.5c0-.2-.2-.3-.4-.5l-.6-.2-.5.2a.5.5,0,0,0-.4.3l-.5.5-.5.4-.5.4H159Z"/><path class="cls-1" d="M156.1,249.9l5,2.9v.2l-5-2.9Zm6.8,4.1.2-.2h.3c.1,0,.1.1.1.2v.2h-.4c-.1-.1-.2-.1-.2-.2Z"/><path class="cls-1" d="M153.6,257.4h0a2.5,2.5,0,0,1-.4-.7,2.9,2.9,0,0,1-.2-.9,2.5,2.5,0,0,1,.1-.8,1.1,1.1,0,0,1,.3-.7,2.4,2.4,0,0,1,.8-.9l1-.5h1.1a2.8,2.8,0,0,1,1.2.4,2.4,2.4,0,0,1,.9.8,2.1,2.1,0,0,1,.6,1,3.7,3.7,0,0,1,.1,1.1,2.1,2.1,0,0,1-.4,1.1,2.3,2.3,0,0,1-1.1,1.1,2.5,2.5,0,0,1-1.7.3h0l1.4.7-.2.3-4.7-2.7-1.1-.8a2.3,2.3,0,0,1-.7-1,2,2,0,0,1-.3-1.1,3.5,3.5,0,0,1,.5-1.3,3.8,3.8,0,0,1,.9-1.2l1.3-.5v.2a3.1,3.1,0,0,0-1.3.6,3.9,3.9,0,0,0-.8,1,1.9,1.9,0,0,0-.4,1.2,4.3,4.3,0,0,0,.2,1.1,2.7,2.7,0,0,0,.7.8l1,.7Zm3.7-3.9-1-.4h-1a1.8,1.8,0,0,0-1,.4,1.9,1.9,0,0,0-.7.8,1.9,1.9,0,0,0-.3,1,2.1,2.1,0,0,0,.1,1.1,4.1,4.1,0,0,0,.5.9,2.7,2.7,0,0,0,.8.7l1.1.4h1a1.8,1.8,0,0,0,1-.4,2.7,2.7,0,0,0,.7-.8,3.6,3.6,0,0,0,.4-1.1,4.4,4.4,0,0,0-.2-1,4.1,4.1,0,0,0-.5-.9A2.2,2.2,0,0,0,157.3,253.5Z"/><path class="cls-1" d="M154.8,262.1a2.4,2.4,0,0,1,.2.8.9.9,0,0,1,0,.7c-.1.3-.1.5-.3.7a1.9,1.9,0,0,1-.7.8l-.8.2h-.8l-.8-.4-3.1-1.7.2-.3,3,1.7a.9.9,0,0,0,.7.3l.7.2.8-.2.6-.7a1.6,1.6,0,0,0,.3-.9,2.8,2.8,0,0,0-.1-.9,4.1,4.1,0,0,0-.5-.9l-1-.7-2.5-1.5v-.2l3.8,2.1.3.2.4.2.3.2h.3v.3l-.3-.2-.4-.2-.4-.2-.3-.2h0A2.1,2.1,0,0,1,154.8,262.1Z"/><path class="cls-1" d="M183.7,112.5a6.3,6.3,0,0,0,.7-7.1c-1.3-2.8-4.4-4-6.1-2.3a6.8,6.8,0,0,0-.5,7.8C179.4,113.6,182.4,113.9,183.7,112.5Z"/><path class="cls-1" d="M256.2,128.4c-1.6,3.9-4.9,7.1-8.3,9.4-11.6,7.9-24.5,3.8-37.2,2.6-10.7-1-26.5-.4-35.3,7.6h0a4.7,4.7,0,0,0-1,1c-2,1.8-4.1,3-6,3.1s-3.5-3.9-1-10,6.6-12.4,8.8-17,1.6-9.8.1-11.5-1.6-.6-2.6.7c-3.8,5.4-10.7,17.8-13.4,25.5a18,18,0,0,0-.5,1.9c-3.7,5.8-9.4,10.9-17.8,11.4,4-2.4,7.9-7.4,11-14.3,3.9-8.7,6.2-18,1.1-23.3s-10.7-1.8-15.3,2.2a11.4,11.4,0,0,0-.6-4.7c-.6-1.3-1.5-1.5-2.5-.1a151.6,151.6,0,0,0-8.9,14.3c-10.5,12.2-32,8.2-45.9,6.6-15.6-1.9-38.5-1-49.5,12.5-1.4,1.8,1.3,2.8,2.6,3a7.3,7.3,0,0,0,6-2.6c-1.2,1.4,0,.1.3-.2a16.3,16.3,0,0,1,2-1.7,33.9,33.9,0,0,1,9.5-4.3c15.6-4.3,30.4,1.1,46,1.3a63.9,63.9,0,0,0,23.4-4.3c-5.8,11-11.3,22.4-12.9,27.7s-1.4,9.3.1,11.5,1.4.7,1.8-.2c5.1-11.7,10.4-22.4,15.3-31.4a10.9,10.9,0,0,0,3.6,7c3.7,3.4,8.1,4.3,14.8,3.9a22.9,22.9,0,0,0,15.4-6.9c.8,3.7,3.4,6,8.1,6a16.4,16.4,0,0,0,10.1-4,1,1,0,0,0,.6-.5l.3-.3,1.5-1.5a29.2,29.2,0,0,1,10.3-5.1c13.5-3.8,26.5,1.4,40,1.2,11.4-.2,26.2-4.8,31.1-16.4C261.9,127.1,256.8,127,256.2,128.4ZM131.2,150c-3-2.4-2.4-8.7.2-15.3,1.2-2.2,2.4-4.1,3.5-6l1.2-1.7,1-1.5c4.5-6.2,9.6-10,11.8-8.9s1.5,10-2.6,18.4C141.4,145.1,134.5,152.7,131.2,150Z"/><polygon class="cls-1" points="199.6 151.1 138.7 256.5 77.8 151.1 76.6 151.1 138.3 257.8 138.7 258.6 200.8 151.1 199.6 151.1"/><polygon class="cls-1" points="61.2 122.7 61.5 122.7 61.2 122.2 61.2 122.7"/><polygon class="cls-1" points="61.2 53.5 61.2 54.5 255.3 54.5 216 122.7 217.2 122.7 256.7 54.2 257.2 53.5 61.2 53.5"/></g></svg>