<svg id="Layer_1" data-name="Layer 1" xmlns="http://www.w3.org/2000/svg" viewBox="0 0 283.5 283.5"><defs><style>.cls-1{fill:#231f20;}</style></defs><title>groupA</title><path class="cls-1" d="M177.5,178a6,6,0,0,0,.7-6.7c-1.3-2.7-4.2-3.9-5.8-2.2a6.2,6.2,0,0,0-.5,7.4C173.4,179.1,176.2,179.4,177.5,178Z"/><path class="cls-1" d="M246.6,193.2a21.9,21.9,0,0,1-7.9,8.9c-11,7.5-23.4,3.6-35.5,2.5-10.1-1-25.2-.4-33.6,7.3h0a4.7,4.7,0,0,0-1,1c-1.9,1.7-3.8,2.8-5.6,2.9s-3.4-3.7-1.1-9.5,6.3-11.8,8.4-16.2,1.6-9.3.1-10.9-1.5-.6-2.4.6c-3.7,5.2-10.3,17-12.8,24.3-.2.6-.3,1.2-.5,1.8-3.5,5.5-8.9,10.4-16.9,10.9,3.8-2.3,7.5-7.1,10.4-13.7,3.7-8.2,5.9-17.1,1.1-22.2s-10.2-1.7-14.6,2.1a10.7,10.7,0,0,0-.6-4.5c-.5-1.2-1.4-1.4-2.4-.1a136,136,0,0,0-8.4,13.7c-10.1,11.6-30.5,7.8-43.8,6.3s-36.7-1-47.1,11.9c-1.4,1.7,1.2,2.7,2.4,2.8a6.5,6.5,0,0,0,5.7-2.4c-1.1,1.3,0,0,.3-.2l2-1.6a29.4,29.4,0,0,1,9-4.1c14.8-4.1,29,1,43.8,1.2a59.5,59.5,0,0,0,22.3-4c-5.5,10.4-10.7,21.3-12.2,26.3s-1.4,8.9.1,11,1.3.7,1.7-.2c4.8-11.1,9.9-21.4,14.6-30a10.4,10.4,0,0,0,3.4,6.7c3.5,3.2,7.7,4.1,14.1,3.7a22.1,22.1,0,0,0,14.7-6.5c.7,3.5,3.2,5.7,7.7,5.7a15.6,15.6,0,0,0,9.6-3.8c.3-.2.5-.3.6-.5s.2-.1.2-.2l1.5-1.5a29.1,29.1,0,0,1,9.8-4.9c12.9-3.6,25.2,1.4,38.1,1.2,10.9-.2,25-4.6,29.6-15.7C252,191.9,247.1,191.8,246.6,193.2ZM127.5,213.7c-2.8-2.3-2.4-8.3.1-14.6l3.4-5.7,1.1-1.6,1-1.4c4.3-6,9.2-9.5,11.2-8.5s1.4,9.5-2.5,17.5C137.2,209,130.7,216.3,127.5,213.7Z"/><path class="cls-1" d="M172.6,109.2a36.5,36.5,0,0,0-7.4-.9,52.6,52.6,0,0,0-9.2,1,50.1,50.1,0,0,0-18.8,7.8l2.1-2.3,2.2-2.3,2.5-2.6,4.9-4.7,2.2-2.2,2.1-1.8a4.1,4.1,0,0,1,2.4.6,34.6,34.6,0,0,0,7.2,3.1,50.4,50.4,0,0,0,5.4,1.6l3,.6,3.3.5a14,14,0,0,0,2.9,0l-1.3-1.4a17.9,17.9,0,0,1-3.3-.1l-3.4-.7-3-.6a32.7,32.7,0,0,1-4.7-1.5c-2.6-1-4-2.2-4.4-3.4s4.4-3,10.2-3.2l-1-1.1a27.9,27.9,0,0,0-5.3.9,23.7,23.7,0,0,0-4.5,1.5l3.4-2.9,3.4-2.8-1.3-1.4-2.1,1.7-1.5,1.2-.6.6c1.2-1.6,2.3-3.1,3.3-4.6l-.9-.9a78,78,0,0,1-7.3,9.8l-1,.9a15,15,0,0,0,.9-1.8,20.9,20.9,0,0,0,1-2.1l2.4-5.5a24,24,0,0,0,3-2.4l-.8-.9-1.2.9.6-1.5L156.8,85c-.8,2.1-1.7,4.1-2.6,6,0-2.8-1.7-6.6-3-8.8l.3-3.1-2.1-2.3q-.6,3.9-.9,7.8c-.2,2.6-.2,5.1-.3,7.4s.1,4.6,0,6.6a33.8,33.8,0,0,1-.3,4.9l-2.2,2.1c-1.4,1.3-3.1,3-4.8,4.8l-1.3,1.3-1.2,1.3-2.1,2.2-1.5,1.7-.6.6a10,10,0,0,0,.8-1.4,41.5,41.5,0,0,0,3.5-6.2,44.3,44.3,0,0,0,3-10.3,22.5,22.5,0,0,0-.4-9.9c-.8-2.7-2-4.4-3.2-5s-.1-2.1,1-5-1.9-4-2.7-2.8-.1,2-.1,3.6a6.6,6.6,0,0,1-1.3,5c-.1.1-.2.1-.2.2-2.9,2.6-6.2,8.8-6.5,16.3a32.5,32.5,0,0,0,1,9.2c.6,2.3,1.4,4.2,1.7,6.2a10.3,10.3,0,0,1-.3,4.3l-2,2.3c-.6.7-1.2,1.5-2,2.3s-1.4,1.9-2.2,2.8l-4.1,5.2-1.3,1.7-.5.7c4.2-7.9,5.8-14.5,5.6-19.7s-2.2-8.8-4.9-10.1-7.8-.8-11.1,2.1a13.9,13.9,0,0,0-2.3,2.5,10.9,10.9,0,0,0-1.7,3.2,14.4,14.4,0,0,0-1,3.7,15.4,15.4,0,0,0-.1,4.3,28.3,28.3,0,0,0,.6,4.2c.2,1.4.6,2.6.9,3.9s1.6,4.8,2.4,7.1a40.5,40.5,0,0,1,1.8,6.6,20.9,20.9,0,0,1,0,6.6c-.5.8-1.2,1.8-1.9,3.1l-1.3,2a17.6,17.6,0,0,0-1.4,2.3l-3.1,5L97.8,169c-.9,1.8-1.9,3.6-2.8,5.2l-2.4,4.6c-1.3,2.8-2.2,4.7-2.5,5.1s4.4,3.1,4.7,1.7l.8-2.4c.2-.6.5-1.3.7-2l1-2.4c.6-1.7,1.4-3.6,2.3-5.6l1.3-3.1,1.5-3.2,1.6-3.2,1.6-3.2c1-2,2.1-4,3.1-5.8s2-3.4,2.8-4.7l2-3.1.2-.3.8-1.2a13.1,13.1,0,0,1,3.9-2,55.8,55.8,0,0,1,6.2-.7l3.7-.6a33.5,33.5,0,0,0,4.6-1.1c6.4-1.9,10.8-5.1,12.2-7.4s3.4-1.3,5.6-1.4,4.1,0,4.6-.3-2.9-3-4.2-2.5-4.3,1.7-5.9,1.6a7.9,7.9,0,0,0-4.4-2.6,14.3,14.3,0,0,0-8.2.7,23.2,23.2,0,0,0-3.9,1.8,33.7,33.7,0,0,0-3.4,2.1,39.6,39.6,0,0,0-5.1,4.5l.5-.6,1.1-1.4,1.5-2.1.9-1.1,1-1.2,3.4-4.3,1.7-1.9c3.4-2.2,5.4-1.5,11.3-.6,4,.7,7.8,1.4,11.8,1.9a123.1,123.1,0,0,0,12.9,1,44.1,44.1,0,0,0,6.6-.4l2.8-.7,2.3-1a8.7,8.7,0,0,0,3.4-2.8,7.4,7.4,0,0,0,1.3-4.1C182.8,114.6,178.4,110.9,172.6,109.2ZM151.2,83.1c1,3.5,1.9,8.6,1.4,11.7s-1.6,3.2-2.3,4.6c.2-1.3.3-2.5.4-3.9s.2-2.6.2-4S151,85.9,151.2,83.1Zm-18.3,33.5a11.4,11.4,0,0,1-1.9-4.7c-.2-1.3-.6-2.9-.9-4.8a25.5,25.5,0,0,1-.4-6.4,24.8,24.8,0,0,1,.8-5.1,20.5,20.5,0,0,1,1.6-4.2,14.6,14.6,0,0,1,1.9-2.9,6.6,6.6,0,0,1,2-1.6c1.4-.7,2.7.5,3.5,3a20.3,20.3,0,0,1,.7,4.7,28.9,28.9,0,0,1-.4,6.4,41.2,41.2,0,0,1-1.6,6.5,21.8,21.8,0,0,1-1.1,2.7,13.3,13.3,0,0,1-1.1,2.4,16.4,16.4,0,0,1-2,3.2C133.5,116.5,133,116.8,132.9,116.6Zm-10.9,6a57.1,57.1,0,0,1-3.6,10.9,6.3,6.3,0,0,0-2,1.7,21,21,0,0,0-2.2,3c.2-1.3.4-2.5.5-3.9a34,34,0,0,1,3.2-6.3A35.5,35.5,0,0,1,122,122.6Zm-.2-9.2a12.9,12.9,0,0,1,.8,5.2c-.1,1-.3,2.3-.6,3.8a31.5,31.5,0,0,0-3.8,3.7,28.5,28.5,0,0,0-3.1,4.6c.2-2.3.3-4.7.5-7a11.8,11.8,0,0,1,1.1-2.7,6.1,6.1,0,0,1,.7-1.4,10.9,10.9,0,0,1,.8-1.5A33.6,33.6,0,0,1,121.8,113.4ZM115,108c3.4-.1,5.7,2.2,6.8,5.3a19,19,0,0,0-3.6,3.4,12.5,12.5,0,0,0-1.5,1.9,6.2,6.2,0,0,0-1,1.7c0-2.4,0-4.7-.2-6.8a26.8,26.8,0,0,0-.8-5.4Zm-.4.1a40.9,40.9,0,0,1,.4,5.3v2.9a30.3,30.3,0,0,0-.2,3.1c-1.1-3.2-4.9-7.2-6.5-8A8.6,8.6,0,0,1,114.6,108.1Zm-6.4,3.4c5.2,5.2,5.9,9.6,6.1,13.3-.2,1.3-.3,2.7-.5,4a38.9,38.9,0,0,0-8.4-9.4,27.2,27.2,0,0,1,.9-4.3A13.7,13.7,0,0,1,108.2,111.5Zm-1.6,17.7a26.2,26.2,0,0,1-1.2-9.6c4.4,4.4,7.5,9.1,7.9,12.9-.3,2.2-.6,4.3-1,6.2a15.6,15.6,0,0,0-4.6-6.3C107.3,131.4,107,130.3,106.6,129.2Zm1.3,3.8a18.6,18.6,0,0,1,3.6,6.3,11.6,11.6,0,0,1,.4,1.8,43.8,43.8,0,0,1-1.1,4.3,17.8,17.8,0,0,0-.8-5.9C109.5,137.5,108.7,135.4,107.9,133Zm5.7,8.1c.6-1.2,1.3-2.4,2-3.6a21.8,21.8,0,0,1,2.6-3.4c-.7,1.5-1.5,3.2-2.4,4.9l-1.4,2.5-1.5,2.6A22.1,22.1,0,0,0,113.6,141.1Zm18.2-10.4c4-1.5,7.1-1.5,9.2-.9s3,1.9,2.8,2.9-1.5,2.2-3.5,3.4a17.9,17.9,0,0,1-3.4,1.7,37.2,37.2,0,0,1-4.4,1.6l-5.2,1.5a16.2,16.2,0,0,1-4,.6,44.7,44.7,0,0,1-4.5-.4c-.5-.1.7-2,3-4.2a33.7,33.7,0,0,1,4.4-3.4A26.7,26.7,0,0,1,131.8,130.7Zm48.3-12.3v.5a54.8,54.8,0,0,0-12.5-2.5,23.6,23.6,0,0,0,7.4-4.6,10.5,10.5,0,0,1,3.9,3A4.9,4.9,0,0,1,180.1,118.4Zm-5.3-6.7a50.2,50.2,0,0,1-4.7,2.4l-5,2.2a41,41,0,0,0-4.9-.2l1.8-1.2,2.3-1.7,2.2-1.8,1.8-1.5A28.5,28.5,0,0,1,174.8,111.7Zm-17-1.6,5-.5h2.3l2.4.2h.4c-1.3.7-3,1.9-4.9,3.1a30.6,30.6,0,0,1-5.5,3.1l-3.3.2-3.3.3,1.9-1.5,1.9-1.8A42.8,42.8,0,0,0,157.8,110.1Zm-21.7,9.5a37.3,37.3,0,0,1,4.4-2.9l2.5-1.5,2.7-1.3a59,59,0,0,1,11.7-3.7c-1.7,1.3-3.3,2.6-5,3.7s-3.1,2.2-4.4,3a54,54,0,0,0-6.5,1.2l-2.9.7Zm10.5,3.3a49.1,49.1,0,0,0-10.5-1.4l4.6-1.5a37.9,37.9,0,0,1,8.2,1.5,33.3,33.3,0,0,1,8,3.2l-4.8-.8Zm18.2,2.4a61.6,61.6,0,0,1-7.5-.5c-2.1-1.9-7.5-5.2-12-5.9l2.5-.4,2.5-.4,5.2-.5c3,1.2,8,4.8,11.5,7.6Zm2.6-.1a36.1,36.1,0,0,0-8.9-7.8h6.2a39.3,39.3,0,0,1,9.4,6.7A26.7,26.7,0,0,1,167.4,125.2Zm7-1.3a22.9,22.9,0,0,0-6.9-6.5c2.6.2,5,.3,7.2.6a48.2,48.2,0,0,1,5.4,1,4.6,4.6,0,0,1-1.8,2.7A12.1,12.1,0,0,1,174.4,123.9Z"/><path class="cls-1" d="M175.2,97.6c3.1.9,6.5,2.7,6.3,5.2a3,3,0,0,1-1.8,2.4l-1.6.7-2,.3,1.3,1.4a13.1,13.1,0,0,0,4.6-1.4,6,6,0,0,0,2.5-2.5c3.2-.2,6.5,2.3,9.1,2.4s-.7-3.8-2.5-3.9-3.9.7-6.5-.3c-.6-2.1-3.7-4.4-7.1-5.4a30.4,30.4,0,0,0-5.4-1,34.7,34.7,0,0,0-5.6.1l1,1.1A25.7,25.7,0,0,1,175.2,97.6Z"/><path class="cls-1" d="M152.8,72.7l.6-1.9a31.2,31.2,0,0,1,3.9,13.1,11.7,11.7,0,0,0-.5,1.1l1.2,1.3,1.7-4.2c1.4-1.3,3.2-3,4.9-4.9a32.2,32.2,0,0,0,2.4-2.8,21.2,21.2,0,0,0,2-2.8,11.8,11.8,0,0,1-.7,2l-1.8,4.3c-.6,1.3-1.3,2.6-2,3.9a33.8,33.8,0,0,1-2.7,2.6l-3.2,2.5.8.9a38.7,38.7,0,0,0,4.1-4c-1,1.8-2.1,3.5-3.1,5.1l.9.9,2.4-3.6,2.1-3.6c1.3-2.3,2.4-4.6,3.4-6.8a52.5,52.5,0,0,0,2.5-6.4,51.2,51.2,0,0,0,1.7-5.7,33.2,33.2,0,0,0,.7-5,26.6,26.6,0,0,0,0-4c-.3-2.2-1.1-3.8-2.2-4.3a7.9,7.9,0,0,0-4.3-.4,10.8,10.8,0,0,0-4.6,2.4,23.4,23.4,0,0,0-5,5.3,61.7,61.7,0,0,0-5.2,8.4,38.9,38.9,0,0,0-2.1,5.1,45.9,45.9,0,0,0-1.3,5.6l2.1,2.3A42.6,42.6,0,0,1,152.8,72.7Zm16.7-2.4-2.1,2.5L165,75.2c-1.6,1.6-3.1,2.9-4.1,3.8.6-1.7,1.3-3.4,1.9-5.2s1.3-3.5,1.9-5.2a37.4,37.4,0,0,0,3.9-4.7,26.5,26.5,0,0,0,3-4.8A50.1,50.1,0,0,1,169.5,70.3Zm2.1-11.7c-.9,1.3-2.1,2.7-3.2,4l-2.8,3.1c.7-2.3,1.4-4.6,1.9-6.8a39.7,39.7,0,0,0,1.2-6.4C170.8,53,171.6,55.5,171.6,58.6Zm-2.9-6.1c-.5,2-1.1,4.3-1.9,6.6l-1.2,3.7c-.5,1.2-.9,2.5-1.4,3.7a42.1,42.1,0,0,0-3.3-8.7,18.1,18.1,0,0,1,4.3-4.1A4.5,4.5,0,0,1,168.7,52.5Zm-7.9,5.4a62.2,62.2,0,0,1,1.4,6.1,27.9,27.9,0,0,1,.6,6.1l-1.9,5.1-2.1,5c-.2-2.7-3.3-7.8-5.2-9.8A42.2,42.2,0,0,1,160.8,57.9Z"/><path class="cls-1" d="M164,91.8a22.2,22.2,0,0,1,6.6.3l4.2.6,4.7.8,4.8.9,4.7.7a44.4,44.4,0,0,0,8.7.5l4-.3,3.3-.5a16.7,16.7,0,0,0,4.9-1.5,6.1,6.1,0,0,0,2.7-2.2,5.1,5.1,0,0,0,.7-3.3c-.1-1.1-1.2-2.5-3.1-3.9a21.2,21.2,0,0,0-3.7-1.9l-2.3-.8-2.6-.7a36.6,36.6,0,0,0-6.1-.7,44,44,0,0,0-7.1.3A51.1,51.1,0,0,0,172,85.4c5.2-4,10-7.3,12.1-8.8,6-2.4,13.8-4.1,21.2-5.8s14.6-3.2,19.8-5.9a60.8,60.8,0,0,0,5.9-3.7,27.1,27.1,0,0,0,4.2-4c2.2-2.7,3.1-5.4,2.3-7.7s-3.2-4.3-7.3-5-9.7-.1-16.3,3.1A61.5,61.5,0,0,0,196.3,61c-4.7,4.9-8.6,10-13.2,14.4-1.5,1-4,2.6-6.8,4.7a11.3,11.3,0,0,1,1.9-1.8c7.8-6.2,12.9-11.1,14.7-16.9a7.4,7.4,0,0,0-.3-5.8h.1c0-.1-.1-.1-.1-.2a5.6,5.6,0,0,0-.5-.8c-.4-1.1.2-2.1,1.1-3.1s2-1.6,2.6-2.2-3.2-2-3.4-1.2c-.9,3.5-2.2,4.9-3.5,5.5s-3.4,1.4-5.9,3.5a12.1,12.1,0,0,0-3,3.3,25.3,25.3,0,0,0-2.7,4.6,33.8,33.8,0,0,0-2.6,12.4c0,1.8-.2,3.1-.2,4l-6.1,4.5-3.1,2.4-3.1,2.5,1.2,1.4Zm4.7-1.7,2.4-.9,2.8-.8a23.1,23.1,0,0,1,2.9,2.4l-4.1-.6A27.1,27.1,0,0,0,168.7,90.1Zm8.7.8a13.7,13.7,0,0,0-2.1-2.8l3.3-.6,3.5-.4c2.6.9,5.5,4.3,6.9,6.1C185.3,92.6,181.3,91.6,177.4,90.9Zm15,2.7-3.2-.4c-1.1-2.4-2.3-5-4.5-6.4H189a45.2,45.2,0,0,1,9.1,6.9A54.2,54.2,0,0,1,192.4,93.6Zm5.9,0a32.5,32.5,0,0,0-7.4-7c2.4,0,4.8.2,7,.4a29.3,29.3,0,0,1,4.8,2.3,22.8,22.8,0,0,1,4.3,2.9A38.6,38.6,0,0,1,198.3,93.6Zm8.8-1.4a19.5,19.5,0,0,0-6.1-4.9l5.3,1,2.4.6,2.2.6a2.5,2.5,0,0,1-1.2,1.5A7.9,7.9,0,0,1,207.1,92.2Zm3.9-3v.2c-4.9-2.2-11.4-3.4-18.1-3.7l5.2-1.6a23.7,23.7,0,0,0,4-1.7l3.5,1.3a16.4,16.4,0,0,1,2.9,1.6C210.1,86.4,211.1,87.8,211,89.2Zm-16.6-8a29.2,29.2,0,0,1,7.4,1.2l-3.4.8-3.8.9-7,1.5h-3.2l-3.1.3,3.6-2.2,3.5-2.3A39.5,39.5,0,0,1,194.4,81.2Zm-6.4.3-3,1.4-1.5.7-1.5.8c-1.9.9-3.7,1.6-5.1,2.1l-4.4.9-2,.4-1.8.5A46.4,46.4,0,0,1,188,81.5Zm-11.5-3.9c-.6-.9-.5-3.4.2-6.4.4-1.5.9-3.1,1.5-4.7a30.9,30.9,0,0,1,2.4-4.4l1.7-2.2c.7-.7,1.4-1.5,2.1-2.1s3.2-2,4.7-1.5,2.1,2.3,1.9,4.2a15.1,15.1,0,0,1-2,5.4l-1.4,1.9c-.5.7-1.2,1.4-1.8,2.1l-4,4a23.9,23.9,0,0,1-3.5,2.9C177.3,77.5,176.7,77.8,176.5,77.6Zm58-26.8c.5,1.7-.1,3.6-1.8,5.4a15.4,15.4,0,0,0-7.4-1.6Zm-11.9,5a14.9,14.9,0,0,1,10,.6,22.9,22.9,0,0,1-4.9,4c-2.8-1.7-7.6-2.4-11.1-2l3-1.3Zm-7.9,3.5a21.1,21.1,0,0,1,7.1,0,24.5,24.5,0,0,1,5.4,1.4,42.7,42.7,0,0,1-3.8,2.2l-3.3,1.5a21.9,21.9,0,0,0-5.3-1.8,20.7,20.7,0,0,0-6-.4Zm-8.2,4.1,1.8-.3h1.8l3.5.2a23.2,23.2,0,0,1,5.9,1.4l-4.7,1.6-5.1,1.4a19.5,19.5,0,0,0-4.3-1h-2.5l-2.5.2C202.3,65.5,204.4,64.5,206.5,63.4Zm-9.1,4.9a30.5,30.5,0,0,1,5.4-.8,23.1,23.1,0,0,1,5.8.3C202,69.4,195,71,189.5,73.2l3.7-2.3Zm-8.2,3.1c1.3-1.3,2.5-2.7,3.8-4.1a52.2,52.2,0,0,1,3.9-4.3l2.1-2.2,2.3-2.1a43.9,43.9,0,0,1,5.1-4.2,28.6,28.6,0,0,1-1.2,2.7,20.2,20.2,0,0,1-1.8,3.2,18.5,18.5,0,0,1-2.5,3.2,15.8,15.8,0,0,1-3,2.8l-2.4,1.4L193.2,69Zm12.1-6.8a21.6,21.6,0,0,0,3.4-5.1,33.1,33.1,0,0,0,2-5.2,30.3,30.3,0,0,1,3.5-2.3,24.2,24.2,0,0,1,3.9-2.1c-1.6,6.2-6.1,10.6-7.9,12.3Zm7.9-3.9a15.5,15.5,0,0,0,3.6-5.3,18.4,18.4,0,0,0,1.6-5.7h.1l1.5-.7,1.5-.6,2.7-.9a25.8,25.8,0,0,1,4.8-1,19.5,19.5,0,0,1-1.9,3.5,16.4,16.4,0,0,1-2,2.9l-2,2.4L217.3,57l-4,1.8Zm16.2-14.3a11.8,11.8,0,0,1,6,1,5.7,5.7,0,0,1,3,2.9l-3.3,1.2-3.6,1.4L219.6,56a22,22,0,0,0,3.4-4.6,18.2,18.2,0,0,0,1.5-2.7A13.6,13.6,0,0,0,225.4,46.4Z"/><polygon class="cls-1" points="220.7 75.7 220.7 262.7 62.7 262.7 62.7 20.7 220.7 20.7 220.7 32.7 221.7 32.7 221.7 19.7 61.7 19.7 61.7 263.7 221.7 263.7 221.7 75.7 220.7 75.7"/></svg>