<svg id="Layer_1" data-name="Layer 1" xmlns="http://www.w3.org/2000/svg" viewBox="0 0 283.5 283.5"><defs><style>.cls-1{fill:#231f20;}</style></defs><title>groupA</title><path class="cls-1" d="M181.6,115.7a6.5,6.5,0,0,0,.7-7.2c-1.4-2.9-4.5-4.2-6.2-2.4a6.6,6.6,0,0,0-.6,8C177.1,116.9,180.2,117.2,181.6,115.7Z"/><path class="cls-1" d="M241.3,142.1a8.8,8.8,0,0,0-2.4-2c-1.9-.9-3.6-.9-6.2-.7l-1.7.3-1.2.3a41.7,41.7,0,0,0,3.3,4.9,12,12,0,0,0,2.4,2.6,6.6,6.6,0,0,0,2.6,1.6,16.1,16.1,0,0,0,3.7.1l2.1-.3,1.5-.4a17.7,17.7,0,0,0-1.6-2.9Zm-6.8-1.8h2.6a4.5,4.5,0,0,1,1.8.7,15.3,15.3,0,0,1,3.2,3.4l1.2,1.7-1.9-1.6a10.6,10.6,0,0,0-2.3-1.7,17.4,17.4,0,0,0-5.5-2.6Zm5.9,7.8-2.2-.2a8.3,8.3,0,0,1-3.4-2.5,27.7,27.7,0,0,1-2.8-3.7,36,36,0,0,0,6.8,5.1,8,8,0,0,0,3.9,1.1Zm2.5-.8a9.4,9.4,0,0,1-4.2-1.1,53.7,53.7,0,0,1-7.3-5.7h.1a16.4,16.4,0,0,1,7.2,2.8,26,26,0,0,1,5,4.1Z"/><path class="cls-1" d="M257.6,136.8l-.9-1a12.7,12.7,0,0,0-1.2-1,9.2,9.2,0,0,0-3.1-1.7,10.7,10.7,0,0,0-4.1-.7,12.6,12.6,0,0,0-6.2,1.9,11.6,11.6,0,0,0-2,1.6,7.9,7.9,0,0,0-1.3,1.4l-4.1.4-1.4.3.8-.6a34.5,34.5,0,0,0,6.7-6.9,28.5,28.5,0,0,0,2.1-3,18,18,0,0,0-6.2-.3,16.2,16.2,0,0,0-9.1,4,18.3,18.3,0,0,0-5.5,9.5l-2.1.7-.5.2h0q-5,1.7-9.6,3.6a19,19,0,0,0,5.5-6.2,26.8,26.8,0,0,0,1.8-3.3,42.3,42.3,0,0,0,2.5-8.3,18.3,18.3,0,0,0-5.2,1.4,14.3,14.3,0,0,0-7.1,6.9,19.1,19.1,0,0,0-1.4,11.2l-5.4,2.5a13.9,13.9,0,0,0,1.5-2.2,19.4,19.4,0,0,0,1.9-8.9,10.2,10.2,0,0,0-5,3.2,12.8,12.8,0,0,0-2.6,5.4,20.4,20.4,0,0,0-.4,4.6l-6.8,3-1.8.7a10.5,10.5,0,0,0,2.5-3.2,17.5,17.5,0,0,0,1.6-9.6,12.2,12.2,0,0,0-4.3.8,7.6,7.6,0,0,0-5,5.5,21,21,0,0,0-.6,2.4c-.1.8-.1,1.6-.2,2.4s0,2.8.1,3.7l-1.4.5-4.2.8-3.7.2h-2.6a7.4,7.4,0,0,1-5.6-2.8,2.9,2.9,0,0,1-1-2.2v-.5h0a17.6,17.6,0,0,1,1.8-6.8c2.2-5.4,6.7-12.7,9-17.5s1.7-10,.1-11.7-1.6-.7-2.6.6c-3.9,5.6-11.1,18.3-13.7,26.2a7.6,7.6,0,0,0-.6,2c-3.8,5.9-9.7,11.1-18.3,11.7,4.1-2.5,8.1-7.7,11.3-14.8,4-8.8,6.4-18.4,1.2-23.9s-11-1.8-15.7,2.3a10.8,10.8,0,0,0-.7-4.9c-.5-1.3-1.5-1.5-2.5-.1a149,149,0,0,0-9.1,14.7c-10.9,12.5-32.9,8.4-47.1,6.7-16-1.9-39.5-1-50.8,12.8-1.5,1.8,1.3,2.9,2.6,3.1a7.4,7.4,0,0,0,6.2-2.7c-1.2,1.5,0,.1.3-.2l2.1-1.7a35.3,35.3,0,0,1,9.7-4.4c16-4.4,31.2,1.1,47.2,1.3a62.9,62.9,0,0,0,24-4.3c-6,11.3-11.6,23-13.2,28.3s-1.5,9.6.1,11.9,1.4.7,1.8-.2c5.2-12,10.7-23,15.7-32.2a11,11,0,0,0,3.7,7.2c3.7,3.4,8.3,4.4,15.2,4a24.7,24.7,0,0,0,15.8-7c.7,3.3,2.9,5.6,6.9,6l2.2.5a25.6,25.6,0,0,0,6.5.5l3.9-.3a9.7,9.7,0,0,0,2,2.2l1.4,1,1.7.8a7.8,7.8,0,0,0,5.4.2,22,22,0,0,0-5.6-4.5l-1.3-.5.9-.2,5.7-1.9h-.1a16.5,16.5,0,0,0,6.8,3.3,13.3,13.3,0,0,0,5.4-.2,8.6,8.6,0,0,0,2.9-1.4,16.5,16.5,0,0,0-5-2.9,11.3,11.3,0,0,0-5.5-.7l5.6-2.5.4.3h.1a25.4,25.4,0,0,0,9.2,4.7,14.6,14.6,0,0,0,9.9-.3,11.3,11.3,0,0,0,4.2-2.7,21.9,21.9,0,0,0-10.2-5.6,19.4,19.4,0,0,0-5.2-.4c2.5-1.1,5.1-2.3,7.7-3.3a64.1,64.1,0,0,0,6,4.9,51.2,51.2,0,0,0,6,3.6,20.5,20.5,0,0,0,6.9,2.1,5.6,5.6,0,0,0,1.3,0H234a9.5,9.5,0,0,0,3.6-1.2h.1l-.2-.3-1.2-2.3a37.2,37.2,0,0,0-2.2-3A19.1,19.1,0,0,0,227,144a15.8,15.8,0,0,0-6.7-1.4h.2l3.6-1.2,2.7-.6,1.6-.5h.1l6.4-1.3,4.1-.8h.2a19.4,19.4,0,0,0,5.9,2.9,11.5,11.5,0,0,0,3.4.3l2-.5,1.2-.3,1.1-.4,2.1-.6,1.4-.5,2.3-.8Zm-130,17.3c-3-2.5-2.4-8.9.2-15.7,1.3-2.3,2.5-4.2,3.7-6.1l1.2-1.8,1-1.5c4.7-6.4,9.9-10.2,12.1-9.1s1.5,10.2-2.7,18.8C138.1,149.1,131.1,156.9,127.6,154.1Zm55.1,9.5a6.7,6.7,0,0,1-1.9-.5l-1.3-.6-1.2-.8a13.3,13.3,0,0,1-1.7-1.6l3.9,1.9,2.1.9,1.7.9Zm-2.1-3.1A15.8,15.8,0,0,1,184,163l-6.7-3.2h.7A8.3,8.3,0,0,1,180.6,160.5Zm3-12.7a6.8,6.8,0,0,1,3.2-3.3,15.4,15.4,0,0,0-2.9,3.5,10.8,10.8,0,0,0-.8,1.9,6.4,6.4,0,0,0-.6,1.8A11.5,11.5,0,0,1,183.6,147.8Zm.4,1.5a11.2,11.2,0,0,1,5-5.4h.7a28.4,28.4,0,0,0-4,4.3,21.2,21.2,0,0,0-3.4,6.9A18.1,18.1,0,0,1,184,149.3Zm1.9-.4a25.4,25.4,0,0,1,4.4-4.7c-1.7,6.9-4.7,10.1-7.8,12.2A20.8,20.8,0,0,1,185.9,148.9Zm-1.8,7.2c2.5-2,4.8-5,6.3-10.4a12.9,12.9,0,0,1-1.7,6.2A9.4,9.4,0,0,1,184.1,156.1Zm15.3,2.7a12.1,12.1,0,0,1-5.7.7,14.8,14.8,0,0,1-5.3-1.9l5.5.5a33.9,33.9,0,0,1,5.5.7Zm-6.7-2.7a14.3,14.3,0,0,1,5.4,1.8l-5.1-.5-4.7-.4A8.3,8.3,0,0,1,192.7,156.1Zm6.7-13.2a9,9,0,0,1,2.8-2.5,47.2,47.2,0,0,0-2.7,4.3,38,38,0,0,0-2.5,4.9A13.3,13.3,0,0,1,199.4,142.9Zm-2.3,8.1a46.4,46.4,0,0,1,2.7-5.6,48.9,48.9,0,0,1,3.2-5,20.1,20.1,0,0,1-1.7,6.2,11.4,11.4,0,0,1-3.8,4.2Zm12.7,6.3a21.8,21.8,0,0,1-7.1-1.8,27.7,27.7,0,0,0,7.8,1.1,28.8,28.8,0,0,0,6.3-.7A13.9,13.9,0,0,1,209.8,157.3Zm-.5-1.3a26.9,26.9,0,0,1-9.6-2.1c2.5.4,5.8.7,9,.9s6.2.4,8.3.4A25.3,25.3,0,0,1,209.3,156Zm0-1.7a78,78,0,0,1-10.8-1.3,31.8,31.8,0,0,1,10.2-.7c3.9.3,7.7,1.1,9.8,2.2C216.6,154.6,213.1,154.5,209.3,154.3Zm-1.7-4.3a18.9,18.9,0,0,1,9.2,3.2,36.4,36.4,0,0,0-8.8-1.6,30.2,30.2,0,0,0-8.8.6A13.4,13.4,0,0,1,207.6,150Zm.9-14.1a13,13,0,0,1,6.4-6l1.7-.7a9.1,9.1,0,0,0-1.6,1.1,21.8,21.8,0,0,0-8.3,12.3A18.2,18.2,0,0,1,208.5,135.9Zm-1.7,9.4a21.5,21.5,0,0,1,8.5-14.4l2.6-1.8-2,3.5c-1.3,2.2-2.6,4.6-4.1,6.8a46.2,46.2,0,0,1-5,6.3Zm5.7-5.9c1.3-2,2.6-4.1,3.7-6.1s1.1-1.8,1.6-2.7a37.9,37.9,0,0,1-1.2,3.6,28.7,28.7,0,0,1-1.9,4,19.4,19.4,0,0,1-6.5,7A48.3,48.3,0,0,0,212.5,139.4Zm19.8,15.4a16.6,16.6,0,0,1-5.6-1.1,25.2,25.2,0,0,1-2.9-1.2,42.5,42.5,0,0,1-9.2-6.3l8.1,3.6c4.6,1.8,9,3.3,13.1,4.6A11.2,11.2,0,0,1,232.3,154.8Zm3.9-.9c-4.3-1.4-9-2.9-13.8-4.8-2.8-1.2-5.6-2.4-8.4-3.8a33,33,0,0,1,7.2.5,30.9,30.9,0,0,1,9.5,3.5A24.6,24.6,0,0,1,236.2,153.9Zm-10.9-9.2a19.7,19.7,0,0,1,5.9,3.3,13.4,13.4,0,0,1,2.1,2,15.1,15.1,0,0,1,1.7,2,25.4,25.4,0,0,0-2.4-2,24.9,24.9,0,0,0-3.2-2,30.3,30.3,0,0,0-8.5-2.8,33.3,33.3,0,0,0-5.6-.5,17,17,0,0,1,5.1-.8A18.5,18.5,0,0,1,225.3,144.7Zm4.9-13.9a14.1,14.1,0,0,1,5-2.1l1.1-.3h3a29.7,29.7,0,0,0-7.9,3.4,20.6,20.6,0,0,0-7.2,6.5A15.7,15.7,0,0,1,230.2,130.8Zm-5.9,9.2-.7.3a14.8,14.8,0,0,1,3.4-4.6,22.5,22.5,0,0,1,4.9-3.7,29.2,29.2,0,0,1,8.9-3.5l-.2.2c-1.8,1.6-4.7,3.8-7.6,5.9A49.1,49.1,0,0,1,224.3,140Zm3.9-1-1,.3c2.1-1.3,4.3-2.8,6.4-4.4s4.2-3.1,5.9-4.5a26.1,26.1,0,0,1-4.2,4.9,18.4,18.4,0,0,1-4.3,3.1Zm19.9-5.4a10.8,10.8,0,0,1,4.6.8l1.7.9,1.3,1a17.6,17.6,0,0,0-6.3-1.6,18.4,18.4,0,0,0-7.9,1.2A12,12,0,0,1,248.1,133.6Zm6.2,4.9c-2.2.6-4.6,1.5-6.8,1.5a11.6,11.6,0,0,1-2.8-.4l-1.9-.7-1.1-.6-1.2-.7,7.1.4,7.3.3Zm-5.8-1.1-8-.4a18.9,18.9,0,0,1,9.2-1.6,14.8,14.8,0,0,1,7,2.3Z"/></svg>