<svg xmlns="http://www.w3.org/2000/svg" viewBox="0 0 1027 1246"><defs><style>.cls-1,.cls-2,.cls-3{fill:#231f20;}.cls-2{font-size:9.06px;font-family:AvenirNext-Regular, Avenir Next;letter-spacing:0.1em;}.cls-3{font-size:15.22px;font-family:PlayfairDisplay-Regular, Playfair Display;}.cls-4{fill:none;}</style></defs><title>groupA</title><g id="Layer_1" data-name="Layer 1"><path class="cls-1" d="M784.7,145.6a6.5,6.5,0,0,0,.7-7.2c-1.4-2.9-4.5-4.2-6.2-2.4a6.7,6.7,0,0,0-.5,8C780.3,146.8,783.3,147.1,784.7,145.6Z"/><path class="cls-1" d="M844.4,172a8.4,8.4,0,0,0-2.4-1.9c-1.8-1-3.5-1-6.2-.7l-1.6.2-1.3.3a41.7,41.7,0,0,0,3.3,4.9,15.5,15.5,0,0,0,2.4,2.7,6.3,6.3,0,0,0,2.6,1.5,16.1,16.1,0,0,0,3.7.1l2.1-.3,1.6-.4a26,26,0,0,0-1.7-2.9A32.8,32.8,0,0,0,844.4,172Zm-6.8-1.8h2.6l1.9.7a18.8,18.8,0,0,1,3.1,3.4l1.2,1.7a14.5,14.5,0,0,0-1.8-1.6l-2.3-1.7a19.1,19.1,0,0,0-5.6-2.6Zm5.9,7.8-2.1-.2a7.9,7.9,0,0,1-3.5-2.5,27.7,27.7,0,0,1-2.8-3.7c3.3,2.8,5.2,4.4,6.8,5.2a11.1,11.1,0,0,0,3.9,1.1Zm2.5-.8a8.7,8.7,0,0,1-4.1-1.1c-1.7-.9-3.8-2.6-7.4-5.7h.1a18.7,18.7,0,0,1,7.3,2.8,28.3,28.3,0,0,1,4.9,4.1Z"/><path class="cls-1" d="M860.7,166.7l-.9-1-1.1-1a15.8,15.8,0,0,0-3.2-1.7,13,13,0,0,0-4.1-.7,12.6,12.6,0,0,0-6.2,1.9,11.6,11.6,0,0,0-2,1.6l-1.3,1.4-4.1.5-1.3.2.7-.6a31.8,31.8,0,0,0,6.7-6.9,28.5,28.5,0,0,0,2.1-3,20.5,20.5,0,0,0-6.1-.3,16.8,16.8,0,0,0-9.2,4,18.3,18.3,0,0,0-5.5,9.5l-2.1.7-.5.2h0c-3.3,1.1-6.4,2.3-9.5,3.6a21.6,21.6,0,0,0,5.5-6.2c.6-1.1,1.2-2.2,1.7-3.3a40.4,40.4,0,0,0,2.5-8.3,17,17,0,0,0-5.2,1.5,13.5,13.5,0,0,0-7.1,6.9c-2.1,4.3-1.7,8.8-1.4,11.2l-5.4,2.4a13.9,13.9,0,0,0,1.5-2.2,19.4,19.4,0,0,0,1.9-8.9,10.2,10.2,0,0,0-5,3.2,12.8,12.8,0,0,0-2.6,5.4,19.8,19.8,0,0,0-.3,4.6l-6.9,3-1.8.7a8.3,8.3,0,0,0,2.5-3.2,16.7,16.7,0,0,0,1.6-9.6,12.2,12.2,0,0,0-4.3.8,8.2,8.2,0,0,0-5,5.5,10.3,10.3,0,0,0-.5,2.4,19.4,19.4,0,0,0-.2,2.4c-.1,1.5,0,2.8,0,3.8l-1.4.4-4.2.8a24.2,24.2,0,0,1-3.7.2,11.1,11.1,0,0,1-2.6-.1h.1a7.9,7.9,0,0,1-5.7-2.7,2.9,2.9,0,0,1-.9-2.3.9.9,0,0,1-.1-.5h0a22.9,22.9,0,0,1,1.8-6.8c2.2-5.4,6.8-12.7,9-17.5s1.8-10,.1-11.7-1.6-.6-2.5.6c-4,5.6-11.1,18.3-13.8,26.2a15.2,15.2,0,0,0-.6,2c-3.8,5.9-9.6,11.1-18.3,11.7,4.1-2.5,8.1-7.7,11.3-14.8,4-8.8,6.4-18.4,1.2-23.9s-11-1.8-15.7,2.3a12.7,12.7,0,0,0-.6-4.9c-.6-1.2-1.5-1.5-2.6-.1a149,149,0,0,0-9.1,14.7c-10.8,12.5-32.8,8.4-47.1,6.7-16-1.9-39.5-1-50.8,12.8-1.5,1.8,1.3,2.9,2.7,3.1a7.2,7.2,0,0,0,6.1-2.7c-1.2,1.5,0,.1.3-.2l2.1-1.7a34.6,34.6,0,0,1,9.8-4.4c15.9-4.4,31.1,1.2,47.1,1.3a62.9,62.9,0,0,0,24-4.3c-5.9,11.3-11.5,23-13.2,28.3s-1.5,9.6.1,11.9,1.4.7,1.8-.2c5.2-12,10.7-23,15.7-32.2a11.2,11.2,0,0,0,3.7,7.2c3.8,3.4,8.3,4.4,15.2,4a23.7,23.7,0,0,0,15.8-7,7.3,7.3,0,0,0,6.9,6l2.2.5a31,31,0,0,0,6.6.6l3.8-.4a12.8,12.8,0,0,0,2,2.2,7.1,7.1,0,0,0,1.4,1l1.7.8a8.6,8.6,0,0,0,5.4.3,20.3,20.3,0,0,0-5.6-4.6l-1.3-.5.9-.2,5.7-1.9h0a14.3,14.3,0,0,0,6.8,3.3,11.4,11.4,0,0,0,5.3-.2,11.7,11.7,0,0,0,2.9-1.3,16.5,16.5,0,0,0-5-3,10,10,0,0,0-5.5-.6l5.7-2.6.4.3h0a27.1,27.1,0,0,0,9.2,4.8,15.9,15.9,0,0,0,9.9-.3,13.3,13.3,0,0,0,4.3-2.8,22.8,22.8,0,0,0-10.3-5.6,19.4,19.4,0,0,0-5.2-.4l7.8-3.3a60.9,60.9,0,0,0,5.9,4.9,51.2,51.2,0,0,0,6,3.6,20.4,20.4,0,0,0,7,2.1h1.2l1.5-.2a9.7,9.7,0,0,0,3.5-1.2h.2l-.2-.3-1.3-2.3c-.6-.9-1.3-1.9-2.1-2.9a18.6,18.6,0,0,0-7.2-5.5,15.6,15.6,0,0,0-6.7-1.3h.2l3.7-1.2,2.6-.6,1.6-.5h.1l6.4-1.3,4.1-.8h.2a19.4,19.4,0,0,0,5.9,2.9,9,9,0,0,0,3.4.3l2.1-.5,1.1-.3,1.1-.4,2.1-.6,1.4-.5,2.3-.8ZM730.8,184c-3.1-2.4-2.5-8.9.2-15.7,1.3-2.2,2.4-4.2,3.6-6.1l1.2-1.8a13,13,0,0,0,1-1.5c4.7-6.4,9.9-10.2,12.1-9.1s1.6,10.2-2.6,18.8C741.2,179,734.2,186.8,730.8,184Zm55,9.6-1.9-.6-1.3-.6-1.2-.8a12.9,12.9,0,0,1-1.7-1.6l3.9,1.9,2.1.9,1.7.9Zm-2.1-3.1a13.5,13.5,0,0,1,3.4,2.4l-6.6-3.2h.6A6.7,6.7,0,0,1,783.7,190.5Zm3-12.7a6.5,6.5,0,0,1,3.3-3.4,13.2,13.2,0,0,0-2.9,3.5,8.2,8.2,0,0,0-.9,1.9,6.4,6.4,0,0,0-.6,1.8A13.6,13.6,0,0,1,786.7,177.8Zm.4,1.4a11.2,11.2,0,0,1,5-5.4h.8a24.4,24.4,0,0,0-4.1,4.3,21.1,21.1,0,0,0-3.3,6.9A17.7,17.7,0,0,1,787.1,179.2Zm1.9-.4a25.4,25.4,0,0,1,4.4-4.7c-1.7,6.9-4.6,10.1-7.8,12.2A22.7,22.7,0,0,1,789,178.8Zm-1.8,7.2c2.5-2,4.8-5,6.4-10.4a14.9,14.9,0,0,1-1.7,6.3A10.2,10.2,0,0,1,787.2,186Zm15.3,2.7a10.9,10.9,0,0,1-5.7.7,13.1,13.1,0,0,1-5.3-1.9l5.5.5a44.7,44.7,0,0,1,5.5.7Zm-6.7-2.7a12.7,12.7,0,0,1,5.4,1.9,35.8,35.8,0,0,0-5.1-.6l-4.6-.4A8.6,8.6,0,0,1,795.8,186Zm6.7-13.1a8.3,8.3,0,0,1,2.8-2.6,47.2,47.2,0,0,0-2.7,4.3c-1,1.7-1.8,3.4-2.5,4.9A13.7,13.7,0,0,1,802.5,172.9Zm-2.2,8a29.7,29.7,0,0,1,2.6-5.5,59.2,59.2,0,0,1,3.2-5.1,15.7,15.7,0,0,1-1.7,6.2,11.4,11.4,0,0,1-3.8,4.2Zm12.6,6.3a21.8,21.8,0,0,1-7.1-1.8,28.2,28.2,0,0,0,7.8,1.1,20.3,20.3,0,0,0,6.3-.7A12.9,12.9,0,0,1,812.9,187.2Zm-.5-1.3a27.3,27.3,0,0,1-9.6-2.1c2.6.4,5.8.7,9,.9s6.2.4,8.4.4A26,26,0,0,1,812.4,185.9Zm0-1.7a79,79,0,0,1-10.8-1.2,29.3,29.3,0,0,1,10.3-.8,29.6,29.6,0,0,1,9.8,2.2C819.7,184.5,816.2,184.4,812.4,184.2Zm-1.7-4.3a18.9,18.9,0,0,1,9.2,3.2,35.5,35.5,0,0,0-8.8-1.6,34.1,34.1,0,0,0-8.8.6A13.7,13.7,0,0,1,810.7,179.9Zm.9-14.1a13.9,13.9,0,0,1,6.4-6l1.7-.7-1.6,1.1a21.1,21.1,0,0,0-8.2,12.4A16.6,16.6,0,0,1,811.6,165.8Zm-1.7,9.4a21.9,21.9,0,0,1,8.5-14.4L821,159l-2,3.5c-1.2,2.2-2.6,4.6-4.1,6.8a39.3,39.3,0,0,1-5,6.4Zm5.7-5.9c1.3-2,2.6-4.1,3.7-6.1s1.1-1.8,1.6-2.7a37.9,37.9,0,0,1-1.2,3.6,24.2,24.2,0,0,1-1.9,4,19.4,19.4,0,0,1-6.5,7A48.3,48.3,0,0,0,815.6,169.3Zm19.8,15.4a16.6,16.6,0,0,1-5.6-1.1,25.2,25.2,0,0,1-2.9-1.2,42.5,42.5,0,0,1-9.2-6.3c2.7,1.3,5.5,2.5,8.1,3.6,4.6,1.8,9,3.3,13.1,4.6A10.8,10.8,0,0,1,835.4,184.7Zm4-.9c-4.4-1.3-9-2.9-13.9-4.8-2.7-1.1-5.6-2.4-8.4-3.8a40.3,40.3,0,0,1,7.2.6,28.6,28.6,0,0,1,9.5,3.5A25.4,25.4,0,0,1,839.4,183.8Zm-11-9.2a19.7,19.7,0,0,1,5.9,3.3,20.9,20.9,0,0,1,2.2,2,23.3,23.3,0,0,1,1.6,2,25.4,25.4,0,0,0-2.4-2,19.3,19.3,0,0,0-3.2-1.9,26.5,26.5,0,0,0-8.5-2.9,32.4,32.4,0,0,0-5.6-.5,17,17,0,0,1,5.1-.8A23.7,23.7,0,0,1,828.4,174.6Zm4.9-13.9a14.1,14.1,0,0,1,5-2.1l1.1-.3h3a32.7,32.7,0,0,0-7.9,3.4,21.6,21.6,0,0,0-7.2,6.5A17.6,17.6,0,0,1,833.3,160.7Zm-5.8,9.3-.8.2a16.6,16.6,0,0,1,3.4-4.6,28.7,28.7,0,0,1,4.9-3.7,29.2,29.2,0,0,1,8.9-3.5v.2c-1.9,1.6-4.8,3.8-7.7,5.9A61.3,61.3,0,0,1,827.5,170Zm3.8-1.1-1,.3c2.1-1.3,4.3-2.8,6.5-4.4l5.8-4.4a25,25,0,0,1-4.1,4.8,18.8,18.8,0,0,1-4.4,3.1Zm19.9-5.4a10.8,10.8,0,0,1,4.6.9,5.6,5.6,0,0,1,1.7.9,4.5,4.5,0,0,1,1.3,1,15.7,15.7,0,0,0-6.3-1.7,20,20,0,0,0-7.9,1.2A12,12,0,0,1,851.2,163.5Zm6.2,4.9a23.8,23.8,0,0,1-6.8,1.5,11.6,11.6,0,0,1-2.8-.4l-1.9-.7-1.1-.6-1.2-.7,7.1.5,7.3.2Zm-5.8-1.1-7.9-.4a18.3,18.3,0,0,1,9.1-1.6,15.6,15.6,0,0,1,7.1,2.3Z"/><path class="cls-1" d="M344.6,559.3a6.5,6.5,0,0,0,.7-7.2c-1.4-2.9-4.5-4.2-6.2-2.4a6.8,6.8,0,0,0-.6,8C340.2,560.5,343.2,560.8,344.6,559.3Z"/><path class="cls-1" d="M404.3,585.7a6.9,6.9,0,0,0-2.4-1.9c-1.8-1-3.5-1-6.2-.8l-1.6.3-1.3.3a41.7,41.7,0,0,0,3.3,4.9,12,12,0,0,0,2.4,2.6,6.6,6.6,0,0,0,2.6,1.6,16.1,16.1,0,0,0,3.7.1l2.1-.3,1.6-.4a19.3,19.3,0,0,0-1.7-2.9C405.8,587.7,405,586.6,404.3,585.7Zm-6.8-1.8h2.6a5.6,5.6,0,0,1,1.8.7,15.3,15.3,0,0,1,3.2,3.4,13.6,13.6,0,0,1,1.2,1.7,14.5,14.5,0,0,0-1.8-1.6l-2.3-1.7a19.1,19.1,0,0,0-5.6-2.6Zm5.9,7.8-2.1-.2a7.9,7.9,0,0,1-3.5-2.5,27.7,27.7,0,0,1-2.8-3.7,48.9,48.9,0,0,0,6.8,5.2,9,9,0,0,0,3.9,1Zm2.5-.8a8.7,8.7,0,0,1-4.1-1.1c-1.7-.9-3.8-2.6-7.4-5.7h.1a18.7,18.7,0,0,1,7.3,2.8,28.3,28.3,0,0,1,4.9,4.1Z"/><path class="cls-1" d="M420.6,580.4l-.9-1-1.1-1a9.7,9.7,0,0,0-3.2-1.7,10.7,10.7,0,0,0-4.1-.7,12.6,12.6,0,0,0-6.2,1.9,11.6,11.6,0,0,0-2,1.6l-1.3,1.4a27.7,27.7,0,0,0-4.1.5l-1.3.2.7-.6a31.8,31.8,0,0,0,6.7-6.9,28.5,28.5,0,0,0,2.1-3,17.6,17.6,0,0,0-6.1-.3,16.8,16.8,0,0,0-9.2,4,18.3,18.3,0,0,0-5.5,9.5l-2.1.7-.5.2h0c-3.3,1.1-6.4,2.3-9.5,3.6a21.6,21.6,0,0,0,5.5-6.2c.6-1.1,1.2-2.2,1.7-3.3a42.3,42.3,0,0,0,2.5-8.3,19.2,19.2,0,0,0-5.2,1.4,14.3,14.3,0,0,0-7.1,6.9,19.9,19.9,0,0,0-1.4,11.2l-5.4,2.5a13.9,13.9,0,0,0,1.5-2.2,19.4,19.4,0,0,0,1.9-8.9,10.2,10.2,0,0,0-5,3.2,12.8,12.8,0,0,0-2.6,5.4,19.8,19.8,0,0,0-.3,4.6l-6.9,3-1.8.7a9.2,9.2,0,0,0,2.5-3.2,17.5,17.5,0,0,0,1.6-9.6,12.2,12.2,0,0,0-4.3.8,8.2,8.2,0,0,0-5,5.5,10.3,10.3,0,0,0-.5,2.4,9.7,9.7,0,0,0-.2,2.4c-.1,1.5,0,2.8,0,3.8l-1.4.4-4.2.8-3.7.2h-2.5a7.5,7.5,0,0,1-5.7-2.8,2.5,2.5,0,0,1-.9-2.2.9.9,0,0,1-.1-.5h0a22.2,22.2,0,0,1,1.8-6.8c2.2-5.4,6.8-12.7,9-17.5s1.7-10,.1-11.7-1.6-.7-2.5.6c-4,5.6-11.1,18.3-13.8,26.2a15.2,15.2,0,0,0-.6,2c-3.8,5.9-9.6,11.1-18.3,11.7,4.1-2.5,8.1-7.7,11.3-14.8,4-8.8,6.4-18.4,1.2-23.9s-11-1.8-15.7,2.3a12.7,12.7,0,0,0-.6-4.9c-.6-1.3-1.5-1.5-2.6-.1a149,149,0,0,0-9.1,14.7c-10.9,12.5-32.8,8.4-47.1,6.7-16-1.9-39.5-1-50.8,12.8-1.5,1.8,1.3,2.9,2.7,3.1a7.2,7.2,0,0,0,6.1-2.7c-1.2,1.5,0,.1.3-.2l2.1-1.7a34.6,34.6,0,0,1,9.8-4.4c15.9-4.4,31.1,1.2,47.1,1.3a62.9,62.9,0,0,0,24-4.3c-6,11.3-11.6,23-13.2,28.3s-1.5,9.6.1,11.9,1.4.7,1.8-.2c5.2-12,10.7-23,15.7-32.2a11.5,11.5,0,0,0,3.7,7.2c3.8,3.4,8.3,4.4,15.2,4a24.2,24.2,0,0,0,15.8-7,7.3,7.3,0,0,0,6.9,6l2.2.5a26,26,0,0,0,6.6.5l3.8-.3a12.8,12.8,0,0,0,2,2.2l1.4,1,1.7.8a7.8,7.8,0,0,0,5.4.2,20.3,20.3,0,0,0-5.6-4.5l-1.3-.5.9-.2c1.8-.5,3.8-1.2,5.7-1.9h0a15.4,15.4,0,0,0,6.7,3.3,11.2,11.2,0,0,0,8.3-1.5,14.7,14.7,0,0,0-5-3,11.3,11.3,0,0,0-5.5-.7l5.7-2.5.3.3h.1a27.1,27.1,0,0,0,9.2,4.8,15.1,15.1,0,0,0,9.9-.4,12,12,0,0,0,4.3-2.7,22.8,22.8,0,0,0-10.3-5.6,19.4,19.4,0,0,0-5.2-.4c2.5-1.1,5.1-2.3,7.8-3.3a60.9,60.9,0,0,0,5.9,4.9,51.2,51.2,0,0,0,6,3.6,20.4,20.4,0,0,0,7,2.1h1.2l1.5-.2a9.7,9.7,0,0,0,3.5-1.2h.2l-.2-.3-1.3-2.3-2.1-3a20.3,20.3,0,0,0-7.2-5.4,15.8,15.8,0,0,0-6.7-1.4h.2l3.6-1.2,2.7-.6,1.6-.5h.1l6.4-1.3,4.1-.8h.2a19.4,19.4,0,0,0,5.9,2.9,9,9,0,0,0,3.4.3l2.1-.5,1.1-.3,1.1-.4,2.1-.6,1.4-.5,2.3-.8ZM290.7,597.7c-3.1-2.5-2.5-8.9.2-15.7,1.3-2.2,2.4-4.2,3.6-6.1l1.2-1.8,1-1.5c4.7-6.4,9.9-10.2,12.1-9.1s1.5,10.2-2.6,18.8C301.1,592.7,294.1,600.5,290.7,597.7Zm55,9.5a7.7,7.7,0,0,1-1.9-.5l-1.3-.6-1.2-.8a13.3,13.3,0,0,1-1.7-1.6l3.9,1.9,2.1.9,1.7.9Zm-2.1-3a11.4,11.4,0,0,1,3.4,2.4l-6.7-3.2h.7A6.7,6.7,0,0,1,343.6,604.2Zm3-12.8a6.6,6.6,0,0,1,3.3-3.3,13.2,13.2,0,0,0-2.9,3.5,6.6,6.6,0,0,0-.9,1.9,6.4,6.4,0,0,0-.6,1.8A11.5,11.5,0,0,1,346.6,591.4Zm.4,1.5a11.2,11.2,0,0,1,5-5.4h.8a24.4,24.4,0,0,0-4.1,4.3,21.1,21.1,0,0,0-3.3,6.9A17.7,17.7,0,0,1,347,592.9Zm1.9-.4a25.4,25.4,0,0,1,4.4-4.7c-1.7,6.9-4.6,10.1-7.8,12.2A22.7,22.7,0,0,1,348.9,592.5Zm-1.8,7.2c2.5-2,4.8-5,6.4-10.4a14.2,14.2,0,0,1-1.7,6.2A9.9,9.9,0,0,1,347.1,599.7Zm15.3,2.7a12.1,12.1,0,0,1-5.7.7,13.1,13.1,0,0,1-5.3-1.9l5.5.5a31.1,31.1,0,0,1,5.5.7Zm-6.7-2.7a14.3,14.3,0,0,1,5.4,1.8L356,601l-4.6-.4A8.6,8.6,0,0,1,355.7,599.7Zm6.7-13.2a9,9,0,0,1,2.8-2.5,47.2,47.2,0,0,0-2.7,4.3c-1,1.7-1.8,3.4-2.5,4.9A14.4,14.4,0,0,1,362.4,586.5Zm-2.3,8.1a39.4,39.4,0,0,1,2.7-5.5A59.2,59.2,0,0,1,366,584a15.7,15.7,0,0,1-1.7,6.2,11.4,11.4,0,0,1-3.8,4.2Zm12.7,6.3a21.8,21.8,0,0,1-7.1-1.8,27.7,27.7,0,0,0,7.8,1.1,23.8,23.8,0,0,0,6.3-.7A12.9,12.9,0,0,1,372.8,600.9Zm-.5-1.3a27.3,27.3,0,0,1-9.6-2.1c2.6.4,5.8.7,9,.9s6.2.4,8.4.4A26,26,0,0,1,372.3,599.6Zm0-1.7a78,78,0,0,1-10.8-1.3,31.8,31.8,0,0,1,10.2-.7,29.7,29.7,0,0,1,9.9,2.2C379.6,598.2,376.1,598.1,372.3,597.9Zm-1.7-4.3a18.9,18.9,0,0,1,9.2,3.2,35.5,35.5,0,0,0-8.8-1.6,30.2,30.2,0,0,0-8.8.6A13.7,13.7,0,0,1,370.6,593.6Zm.9-14.1a13.9,13.9,0,0,1,6.4-6l1.7-.7a9.1,9.1,0,0,0-1.6,1.1,21.2,21.2,0,0,0-8.2,12.3A16.2,16.2,0,0,1,371.5,579.5Zm-1.7,9.4a21.9,21.9,0,0,1,8.5-14.4l2.6-1.8-2,3.5c-1.2,2.2-2.6,4.6-4.1,6.8a39.6,39.6,0,0,1-5,6.3Zm5.7-5.9c1.3-2,2.6-4.1,3.7-6.1s1.1-1.8,1.6-2.7a37.9,37.9,0,0,1-1.2,3.6,24.2,24.2,0,0,1-1.9,4,19.4,19.4,0,0,1-6.5,7A48.3,48.3,0,0,0,375.5,583Zm19.8,15.4a16.6,16.6,0,0,1-5.6-1.1,25.2,25.2,0,0,1-2.9-1.2,42.5,42.5,0,0,1-9.2-6.3c2.7,1.3,5.5,2.5,8.1,3.6,4.6,1.8,9,3.3,13.1,4.6A10.8,10.8,0,0,1,395.3,598.4Zm4-.9c-4.4-1.4-9-2.9-13.9-4.8-2.7-1.2-5.6-2.4-8.4-3.8a53.1,53.1,0,0,1,7.2.5,30.9,30.9,0,0,1,9.5,3.6A22.8,22.8,0,0,1,399.3,597.5Zm-11-9.2a19.7,19.7,0,0,1,5.9,3.3,20.9,20.9,0,0,1,2.2,2l1.6,2a25.4,25.4,0,0,0-2.4-2,29.8,29.8,0,0,0-3.2-2,29.2,29.2,0,0,0-8.5-2.8,32.4,32.4,0,0,0-5.6-.5,17,17,0,0,1,5.1-.8A18.5,18.5,0,0,1,388.3,588.3Zm4.9-13.9a14.1,14.1,0,0,1,5-2.1l1.1-.3h3a32.7,32.7,0,0,0-7.9,3.4,21.6,21.6,0,0,0-7.2,6.5A17,17,0,0,1,393.2,574.4Zm-5.8,9.2-.8.3a16.6,16.6,0,0,1,3.4-4.6,25.2,25.2,0,0,1,4.9-3.7,29.2,29.2,0,0,1,8.9-3.5c0,.1-.1.1-.1.2-1.9,1.6-4.8,3.8-7.7,5.9A52.4,52.4,0,0,1,387.4,583.6Zm3.8-1-1,.3c2.1-1.3,4.3-2.8,6.4-4.4s4.3-3.1,5.9-4.5a25.4,25.4,0,0,1-4.1,4.9A18.8,18.8,0,0,1,394,582Zm19.9-5.4a10.8,10.8,0,0,1,4.6.8l1.7.9,1.3,1a17.6,17.6,0,0,0-6.3-1.6,18.4,18.4,0,0,0-7.9,1.2A12,12,0,0,1,411.1,577.2Zm6.2,4.9c-2.2.6-4.6,1.5-6.8,1.5a11.6,11.6,0,0,1-2.8-.4l-1.9-.7-1.1-.6-1.2-.7,7.1.4c2.4.2,4.9.2,7.3.3Zm-5.8-1.1-7.9-.4a18.3,18.3,0,0,1,9.1-1.6,15.6,15.6,0,0,1,7.1,2.3Z"/><path class="cls-1" d="M295.2,748.6,134,587.3,295.2,426.1,456.5,587.3ZM135.4,587.3,295.2,747.1,455.1,587.3,295.2,427.5Z"/><path class="cls-1" d="M314.2,748.6,153,587.3,314.2,426.1,475.5,587.3ZM154.4,587.3,314.2,747.1,474.1,587.3,314.2,427.5Z"/><path class="cls-1" d="M293.8,521.8h6.1v1.3h-7.7V512.5h7.4v1.3h-5.8v3.1h5.5v1.3h-5.5Z"/><path class="cls-1" d="M307.9,514.4l-1-.7a2.8,2.8,0,0,0-1.3-.3h-.8l-.7.3-.6.6a1.9,1.9,0,0,0-.2.8,1.9,1.9,0,0,0,.2.7c.1.2.3.3.5.5l.8.3.9.3,1.2.4,1.1.5a3.2,3.2,0,0,1,.8.9,2.8,2.8,0,0,1,.3,1.3,3.7,3.7,0,0,1-.3,1.5,2.8,2.8,0,0,1-.9,1l-1.3.5a3.9,3.9,0,0,1-1.5.2,7.6,7.6,0,0,1-2.1-.3,4.3,4.3,0,0,1-1.7-1.2l1.2-1a3.1,3.1,0,0,0,1.1.9,2.8,2.8,0,0,0,1.5.4h.9l.7-.4.6-.5a2.4,2.4,0,0,0,.2-.8,1.5,1.5,0,0,0-.2-.8l-.6-.6-.9-.4-1.1-.3-1.1-.4a3.1,3.1,0,0,1-1-.5,2.2,2.2,0,0,1-.7-.9,3.7,3.7,0,0,1-.2-1.2,3.2,3.2,0,0,1,.3-1.4l1-.9,1.2-.5a3.9,3.9,0,0,1,1.5-.2,5.8,5.8,0,0,1,1.9.3,2.8,2.8,0,0,1,1.4.9Z"/><path class="cls-1" d="M315.3,523.1h-1.6v-9.3h-3.8v-1.3H319v1.3h-3.7Z"/><path class="cls-1" d="M293.7,655.1h-7.6v-1.4l4.7-4.2.9-1.1a2.1,2.1,0,0,0,.3-1.2,1.5,1.5,0,0,0-.1-.7c-.1-.3-.3-.4-.5-.6l-.6-.4H290a2.5,2.5,0,0,0-1.5.5,2.4,2.4,0,0,0-.7,1.3l-1.6-.2a3.6,3.6,0,0,1,.4-1.1,2.4,2.4,0,0,1,.8-.9,3.4,3.4,0,0,1,1.2-.6l1.4-.2a3.4,3.4,0,0,1,1.4.2l1.2.5a3.9,3.9,0,0,1,.8,1,2.8,2.8,0,0,1,.3,1.3,2.4,2.4,0,0,1-.2.9,3.6,3.6,0,0,1-.4.9,1.9,1.9,0,0,1-.6.7,4.6,4.6,0,0,1-.7.7l-3.8,3.4h5.7Z"/><path class="cls-1" d="M299.8,644.2a3.4,3.4,0,0,1,1.8.4,3.7,3.7,0,0,1,1.3,1.2,7.5,7.5,0,0,1,.7,1.8,15,15,0,0,1,.2,2.2,13.6,13.6,0,0,1-.2,2.1,7.5,7.5,0,0,1-.7,1.8,3.7,3.7,0,0,1-1.3,1.2,3.4,3.4,0,0,1-1.8.4,3.3,3.3,0,0,1-1.7-.4,3,3,0,0,1-1.3-1.2,4.8,4.8,0,0,1-.7-1.8,7.1,7.1,0,0,1-.2-2.1,7.8,7.8,0,0,1,.2-2.2,4.8,4.8,0,0,1,.7-1.8,3,3,0,0,1,1.3-1.2A3.3,3.3,0,0,1,299.8,644.2Zm0,1.2a1.5,1.5,0,0,0-1.1.4,4.4,4.4,0,0,0-.8,1.1l-.3,1.4a7.6,7.6,0,0,0-.1,1.5,7.1,7.1,0,0,0,.1,1.4l.3,1.4a4.4,4.4,0,0,0,.8,1.1,1.5,1.5,0,0,0,1.1.4,1.6,1.6,0,0,0,1.2-.4,2.6,2.6,0,0,0,.7-1.1,5.7,5.7,0,0,0,.4-1.4,7.1,7.1,0,0,0,.1-1.4,7.6,7.6,0,0,0-.1-1.5,5.7,5.7,0,0,0-.4-1.4,2.6,2.6,0,0,0-.7-1.1A1.6,1.6,0,0,0,299.8,645.4Z"/><path class="cls-1" d="M311,655.1h-1.6v-8.9l-2.2,1.7-.9-1,3.3-2.4H311Z"/><path class="cls-1" d="M323.1,645.8l-4.7,9.3h-1.9l4.9-9.4h-5.8v-1.2h7.5Z"/><path class="cls-1" d="M688,523.4c-2,4.2-3.9,8.5-5.8,12.7a39.7,39.7,0,0,0-.3-6.7c-1.3-9.7-6-17.6-8.2-21a27.2,27.2,0,0,0-4.2,13.6,36.5,36.5,0,0,0,2.7,14.8,58,58,0,0,0,5.2,10.1c-2.5,5.5-5,10.9-7.5,15.9-.7,1.4-1.3,2.7-2,4a34.4,34.4,0,0,0,.1-10.2c-1.5-10.2-7-18.4-9.7-22.1a27.1,27.1,0,0,0-6.1,7.7c-2.4,4.5-3.8,10.4-1.3,18.6a48.2,48.2,0,0,0,2.2,5.7c.9,1.8,1.8,3.6,2.7,5.2a83.1,83.1,0,0,0,4.9,7.7l-1.9,2.9c-1.9,2.8-3.9,5.3-5.8,7.6a53.3,53.3,0,0,1-5.9,5.8,35.2,35.2,0,0,1-10.6,6.7,27.9,27.9,0,0,1-7.5,1.9l-2.7.2.6,7.7,2.9-1.1a64.7,64.7,0,0,0,8.1-3.6,56.5,56.5,0,0,0,11.4-8.2,58.6,58.6,0,0,0,5.8-6.2,24.4,24.4,0,0,0,6.1,1.8,22.6,22.6,0,0,0,3.7.1,17.8,17.8,0,0,0,3.9-.7,16.3,16.3,0,0,0,9.1-7.2c-2.7-.8-9.1-2.5-15-1.5l-2.7.7,1.1-1.6c2.4-3.7,4.7-7.8,7-12.1v.2a27.2,27.2,0,0,0,15.3-2.9A24.8,24.8,0,0,0,695.4,555a28.4,28.4,0,0,0-12,.9,20.2,20.2,0,0,0-10,6.6c2-4.3,4.1-8.8,6.1-13.4h1.2a45.2,45.2,0,0,0,21.3-3,31.2,31.2,0,0,0,16-14.8,34,34,0,0,0,3.5-11.6c-5.2-1-14.9-1.8-24.2,2.9a30.8,30.8,0,0,0-8.9,6.6c2.7-6,5.5-12,8.5-18a90.1,90.1,0,0,0,16.1,1.8,81.4,81.4,0,0,0,14.5-1.1l-3.1-2.4a76.7,76.7,0,0,1-23.1,0c6.2-1.1,12.1-2.6,17.9-4.1l-1.4-1.1c-6,1.6-12.2,3.1-18.6,4.2a62.8,62.8,0,0,1,12.5-9.1l-1.3-.9a59.2,59.2,0,0,0-9.9,6.9,33.9,33.9,0,0,1,7.4-8.9l-4.5-3.5c-3.9,6.9-7.6,14-11,21a61.8,61.8,0,0,0,1.1-20.6,88.3,88.3,0,0,0-1.4-9.4l-2.8-2.2c.8,3.4,1.5,7.1,2,10.9,1.2,10.8-.3,18.6-1.9,23.7a135.4,135.4,0,0,0-.2-18c-.4-6.1-1-12.2-1.6-18l-1.4-1.1c.7,6.5,1.4,13.3,1.8,20.2a122.3,122.3,0,0,1-.2,20.1l-.6-.9c-5.9-13.7-7.6-27.1-4.3-41.9l-1.2-1a65.9,65.9,0,0,0,2.1,37.4,48.9,48.9,0,0,1-5.7-16.6,38.3,38.3,0,0,1,2.9-21.4l-2-1.5a42,42,0,0,0-3,24.4C678.1,510.1,684.4,518.9,688,523.4Zm5.4,22.4a55.9,55.9,0,0,0,23.9-19.3,29.6,29.6,0,0,1-9.9,12.8A36.8,36.8,0,0,1,693.4,545.8Zm-7.1.8a137.9,137.9,0,0,0,16.2-10.8c5.5-4,10.6-8.1,14.2-11.1A52.4,52.4,0,0,1,705,537.4,46.9,46.9,0,0,1,686.3,546.6Zm-2.9-.1c3-4.9,9.2-11.1,15.9-16s14.1-8.5,19.1-9.3c-3.2,3-9.1,7.7-15.7,12.7S689,543.9,683.4,546.5Zm11.1-19.1a32.5,32.5,0,0,1,19.3-6.4,60.2,60.2,0,0,0-16.5,9.2,66,66,0,0,0-13.8,13.6A31,31,0,0,1,694.5,527.4Zm-22,43.1,9.7-7a79.8,79.8,0,0,1,9.9-6.3h0a22.2,22.2,0,0,1-8.5,9.6A24.9,24.9,0,0,1,672.5,570.5Zm5.2-9.3a21.6,21.6,0,0,1,11.3-3.9c-2.7,1.5-6,3.9-9.2,6.1l-8.1,5.9A17.1,17.1,0,0,1,677.7,561.2Zm-21.5,31.1,8.9-1.7,4.5-.9a37.7,37.7,0,0,1,4-.7l-2.8,2a17.6,17.6,0,0,1-3.9,1.6,15.9,15.9,0,0,1-3,.6h-2.8A17.8,17.8,0,0,1,656.2,592.3Zm1.8-2.9a15.4,15.4,0,0,1,5.4-1.9,27.7,27.7,0,0,1,8.7.2l-15,3Zm-4.7-43.9a33.3,33.3,0,0,0-.3,11.3,38.6,38.6,0,0,0,.9,5.1c.4,1.7.8,3.2,1.3,4.7a40,40,0,0,1-3.1-9.6A20.6,20.6,0,0,1,653.3,545.5Zm3.9-5.7a78.3,78.3,0,0,0-1.2,14.8,62.4,62.4,0,0,0,3.2,18.9,57.4,57.4,0,0,1-4.6-14,36,36,0,0,1,1.4-18.4A7.7,7.7,0,0,1,657.2,539.8Zm1.3.1c6,16.7,5.3,27.6,2.8,36.4a60.8,60.8,0,0,1-4-20.5A89.6,89.6,0,0,1,658.5,539.9Zm4.9,33.5c1.7-7.8,1.7-17.3-2.6-30.6a42.3,42.3,0,0,1,5.1,15.3A26.3,26.3,0,0,1,663.4,573.4Zm10-58.4c.1,3.6.5,8.3,1,13a122.9,122.9,0,0,0,2.2,13.5,39.9,39.9,0,0,1-4.6-17.1A30.6,30.6,0,0,1,673.4,515Zm5.5,28.4-.4.9a124,124,0,0,1-2.7-15.2c-.6-5.6-1-11.1-1.1-15a49.9,49.9,0,0,1,5.1,15.1A31.4,31.4,0,0,1,678.9,543.4Z"/><path class="cls-1" d="M743.7,482.2c2.6-1.2,5.7-4.5,6.3-5.1a43.5,43.5,0,0,0,3-3.5l2.1-3.1a54.2,54.2,0,0,0-6.4-3.6,64.9,64.9,0,0,0-8.6-3.7,14.3,14.3,0,0,0-6.4-.6c-4.3.6-7,3.1-11.1,7.2l-2.5,2.9a22.2,22.2,0,0,0-1.7,2.4,82,82,0,0,0,11.7,5.6,45.3,45.3,0,0,0,7.3,2.1A11.8,11.8,0,0,0,743.7,482.2Zm-21.8-8.4c4.4-2.9,10.2-4.3,15.5-4.5a48.8,48.8,0,0,1,13.5,1.5l-1.5,1c-2.4,1.5-4.4,3-8.3,3.5s-9.4-.1-19.4-1.3C721.8,473.9,721.8,473.8,721.9,473.8Zm2.4,1.8c8.9,1.1,14.1,1.6,17.7,1.1a16.9,16.9,0,0,0,7.9-3.4,32,32,0,0,1-3.7,3.6,28.6,28.6,0,0,1-3.8,2.6c-2.3,1.1-5.5.7-8.8-.2A56.3,56.3,0,0,1,724.3,475.6Zm24.4-6.7-5.2-.8a37.9,37.9,0,0,0-5.9-.2,33.5,33.5,0,0,0-12.5,2.4l1.5-1.3,2.4-1.9,2-1.4a9.3,9.3,0,0,1,4-1.2c1.9-.1,4.5.7,9.5,2.6Z"/><path class="cls-1" d="M724.4,509.6l3.1,2.4c4.8-.9,9.9-2.4,14.1-5.4a15.7,15.7,0,0,0,2.1-1.7,24.9,24.9,0,0,0,2.3-2.3,30.3,30.3,0,0,0,4.3-7.5h.4l-.7-.3c-1.3-.8-3-1.9-5.1-3a48.6,48.6,0,0,0-7.2-3.1,34.3,34.3,0,0,0-18.7-1.2,28.5,28.5,0,0,0-12.9,6.8l.3-.5c1.5-2.6,3-5.2,4.5-7.6a43.2,43.2,0,0,0,3.5-5l2.1-3.4.2-.3c3.2-4.7,6.2-8.6,8.7-11.8s4.5-5.6,5.9-7.3l.3-.4c6.2,0,10.4-1,13.5-2.3a19.8,19.8,0,0,0,5.9-4.3c.8-1.1,1.8-2.4,2.8-3.9s.9-1.5,1.4-2.3l1.5-2.3,2.5-4.4,1.8-3,2.7-4.7a24.9,24.9,0,0,0-3.5-1.6l-2.7-.8-3.1-.4a18.8,18.8,0,0,0-7.3.8,20.2,20.2,0,0,0-7.8,4.5,27.5,27.5,0,0,0-7.7,12.7,43.4,43.4,0,0,0-1.4,6.1c-.2,1.9-.3,3.5-.3,4.7a86.2,86.2,0,0,0-6.2,6.9l-2,2.3a14.1,14.1,0,0,0,.6-2.2c2.4-9.5,2.2-19,2.2-23.8s-.1-6.8-.2-9.2a32.4,32.4,0,0,0-10.6,8,41.6,41.6,0,0,0-10,21.4,53.7,53.7,0,0,0,3,27.5l-2.6,4.3a7.5,7.5,0,0,1-.7,1.2l4.5,3.5a31.9,31.9,0,0,1,9.1-5.2,32.6,32.6,0,0,1,13.9-1.7,29.6,29.6,0,0,1,6.2,1.2,53,53,0,0,1,5.2,1.7,43.1,43.1,0,0,0-6.6-.7,51.8,51.8,0,0,0-7.6.5,50.2,50.2,0,0,0-17.7,6.2l1.3.9a49.6,49.6,0,0,1,20.1-6.2,44.4,44.4,0,0,1,15,1.5c-8.9,3.4-18.6,6.7-29,9.6l1.4,1.1c9.8-2.8,19-5.9,27.5-9.1a23.2,23.2,0,0,1-5.3,6,30.7,30.7,0,0,1-10.6,5.6A49.9,49.9,0,0,1,724.4,509.6Zm-5.2-72.5a80.3,80.3,0,0,0-8.8,18.3,65.2,65.2,0,0,0-3.7,23.7,49.2,49.2,0,0,1,.8-23.6,41,41,0,0,1,5.4-11.5l1.6-2.1,1.6-1.9A39.8,39.8,0,0,1,719.2,437.1ZM709.5,483l-.9,1.5a46,46,0,0,1-.3-14.4,72.3,72.3,0,0,1,3.5-14.6A73.1,73.1,0,0,1,722,435.6a1.9,1.9,0,0,0,.1.8c-1.1,6-3.1,14.5-5.2,23S712.5,476.5,709.5,483Zm8.9-12.8c-1.2,1.6-2.5,3.3-3.8,5.2l-1.3,1.9c1.9-5.5,3.5-11.8,5.1-18.1s2.9-12.5,4-17.7a90.2,90.2,0,0,1-.7,16.1A53.4,53.4,0,0,1,718.4,470.2Zm38.2-39.4a30.9,30.9,0,0,0-12.5,5.6A38.9,38.9,0,0,0,732.6,450a28.3,28.3,0,0,1,8-14.1,19.4,19.4,0,0,1,8.6-4.7l4-.6Zm-24.2,22.9a38.1,38.1,0,0,1,13.2-16.3c5.1-3.7,10.5-5.3,14.4-5.3-4.4,3.8-9.2,7.5-13.9,11.2S736.8,450.5,732.4,453.7Zm.7,1.4c3.9-2.8,8-6,12.2-9.2s8.4-6.6,12.5-9.9c-.3.4-.5.9-.8,1.4-2.8,4.4-5.7,9.4-9.4,12.6a18.8,18.8,0,0,1-5,3.2,33.7,33.7,0,0,1-4.1,1.2l-2.5.4A13.6,13.6,0,0,1,733.1,455.1Z"/><path class="cls-1" d="M686.7,472.7l.9,7.8-1.4-1.1c-.4-3.4-.8-6.8-1.2-9.9-.8,2.5-1.5,5-2.1,7.4l-1.2-1,1.2-4.4c-.6,1.1-1.3,2.4-1.9,3.8l-2-1.5a39.3,39.3,0,0,1,6.8-10.4,119.1,119.1,0,0,1,6.3,20.7l-2.8-2.2C688.5,478.5,687.6,475.4,686.7,472.7Z"/><text class="cls-2" transform="translate(726.4 668.8)">DESIGN</text><path class="cls-1" d="M729,586.7a15.8,15.8,0,0,1-4.5,5.7c3.7-.7,6.6-3.7,8-6.3.6-1,1.7-.8,1.9.1a4.9,4.9,0,0,1-.7,3.1c-2.3,3.6-6.5,4.9-10.6,4.9s-6.4-1.2-7.5-3.7a134.7,134.7,0,0,0-6.5,12.1c-.4.8-1,1-1.5.4a3.4,3.4,0,0,1-1-2.4,11.1,11.1,0,0,1,.6-3c1.5-4.3,9.7-18.3,12.8-22.1.9-1,1.5-.8,1.9-.3a2.6,2.6,0,0,1,.5,1.7,8.1,8.1,0,0,1,4.1-1.4c3,0,4.4,2.4,4.4,4.7A15.4,15.4,0,0,1,729,586.7Zm-10-1.8c-1.6,2.9-1.2,6.2.1,6.2s3.7-2.5,5.8-6.3a13.1,13.1,0,0,0,1.8-5.9c0-.8-.1-1.4-.4-1.5s-3.6,1.8-5.8,5.1Z"/><path class="cls-1" d="M735.6,593.8c-3,0-4.4-1.6-4.4-3.9a8.8,8.8,0,0,1,.6-2.9,53.8,53.8,0,0,1,6.3-10.8c.7-.9,1.3-1,2-.3s1.3,2.8,0,5.1-3.2,5.3-4.1,7.1a8.3,8.3,0,0,0-.6,2.8c0,.7.1,1.1.7,1.1s4.6-3.1,6.1-6.1c.4-.8,1.1-.8,1.5.1a3,3,0,0,1-.2,3A9.5,9.5,0,0,1,735.6,593.8Zm6.4-23.1a3.1,3.1,0,0,1,2.7,2.9,2,2,0,0,1-2,2.3,3,3,0,0,1-2.9-2.8A2.4,2.4,0,0,1,742,570.7Z"/><path class="cls-1" d="M751,577.6v.9c2.1-1.8,4.5-3.3,6.3-3.3s2.8,1.6,2.8,3.3-.9,2.5-2.5,5-3.3,5.3-3.3,7,.3,1.5,1,1.5,4.3-2.9,6.1-6c.5-.8,1.2-.8,1.6-.1a3.2,3.2,0,0,1-.2,3.1c-1.4,2.5-5.1,4.9-8.1,4.9s-4.7-1.5-4.7-3.9,2.2-6.6,4.2-9.4,1.8-2.7,1.5-2.7-2.9,1.3-5.6,4.1-5,7.1-7.1,11.2c-.3.7-1,1-1.8.2a3.1,3.1,0,0,1-1.1-2.5,8,8,0,0,1,.5-2.3c.9-2.6,4.8-8.9,7.9-13.1a1,1,0,0,1,1.9,0A4.2,4.2,0,0,1,751,577.6Z"/><path class="cls-1" d="M776.6,578.1c.8,1.5,0,3.1-1,4.9a15.4,15.4,0,0,0-.9,1.9c-.3.8-.8.9-1.8.5a3,3,0,0,1-1.7-2.6,8.5,8.5,0,0,1,1.1-3.4c.5-.9.9-1.7.7-1.9s-3.9,2.5-5.8,6.2a11.5,11.5,0,0,0-1.5,5.1c0,2,.9,3.2,2.2,3.2,3.7.1,7.2-3.4,9.2-6.1.4-.7,1.2-.9,1.5-.1a3.5,3.5,0,0,1-.7,3,12.8,12.8,0,0,1-9.8,5c-4.6,0-7.1-2.6-7.1-6.3a10.9,10.9,0,0,1,1.5-5.2c2.6-4.7,6.5-7.1,9.4-7.1A6.2,6.2,0,0,1,776.6,578.1Z"/><path class="cls-1" d="M792.7,584.1c-1,3.8-4.2,8.2-8,9.4a4.5,4.5,0,0,1-1.8.3,6.2,6.2,0,0,1-6.3-6.3,12.7,12.7,0,0,1,2.1-6.3c2.3-3.6,5.4-5.9,8.7-5.9a3.9,3.9,0,0,1,3.3,1.7c1.4,1.5,2.8,1.8,2.3,5.7,1.3,0,1.4.4,1,.8A1.5,1.5,0,0,1,792.7,584.1Zm-11,7.4c1.3,0,3.3-1.7,5.1-4.8a12.6,12.6,0,0,0,1.7-3.2,5.9,5.9,0,0,1-3.1-3.7,16.4,16.4,0,0,0-2.8,3.4,14.1,14.1,0,0,0-2.1,6.4C780.5,590.9,781,591.5,781.7,591.5ZM790,579c0-.7-.4-.9-.8-.9s-.7.3-.7,1.1a3.6,3.6,0,0,0,.8,2.5A6.7,6.7,0,0,0,790,579Z"/><path class="cls-1" d="M704,634.6c-3,0-4.4-1.6-4.4-3.9a9.9,9.9,0,0,1,.6-3,55.8,55.8,0,0,1,6.3-10.7c.7-.9,1.3-1,2-.4s1.3,2.9,0,5.2-3.2,5.3-4.1,7.1a8.9,8.9,0,0,0-.7,2.7c0,.8.2,1.2.8,1.2s4.6-3.1,6.1-6.1c.4-.9,1.1-.8,1.5,0a3.2,3.2,0,0,1-.2,3.1A9.5,9.5,0,0,1,704,634.6Zm6.4-23.1a3.1,3.1,0,0,1,2.7,2.9,2.1,2.1,0,0,1-2,2.3,3,3,0,0,1-2.9-2.8A2.4,2.4,0,0,1,710.4,611.5Z"/><path class="cls-1" d="M719.6,618.4a7.4,7.4,0,0,1-.2,1.2c2.2-1.9,5-3.6,6.6-3.6s2.6,1.6,2.6,3.5c2.3-1.8,4.9-3.4,6.5-3.3s2.2,1.3,2.2,2.7-1,3.7-3,6.5-2.7,4-2.7,5.6.5,1.7,1.3,1.7,3.9-3.1,5.8-5.9c.4-.7.9-.7,1.4-.3a3.3,3.3,0,0,1,0,3.2,9.8,9.8,0,0,1-8,4.9c-3.4,0-5.3-1.6-5.3-4.1a6.1,6.1,0,0,1,.8-2.9,53.2,53.2,0,0,1,3.6-5.7c1.1-1.5,2.3-2.8,1.9-2.8s-1.5.4-4.4,3.1-6.3,7.9-8.4,12.1a1.1,1.1,0,0,1-2,.2,3,3,0,0,1-1.1-2.5,10.3,10.3,0,0,1,.9-3.3,37.7,37.7,0,0,1,3.7-6c1.3-2,2.7-3.8,2.3-3.8s-2.4,1-5.3,4-5.1,6.9-7.1,11c-.3.8-.9,1-1.7.4a3.1,3.1,0,0,1-1.2-2.4,6.8,6.8,0,0,1,.5-2.5,87,87,0,0,1,7.7-13.2c.7-.9,1.4-.8,1.9,0A3.6,3.6,0,0,1,719.6,618.4Z"/><path class="cls-1" d="M751.7,615.8a3.3,3.3,0,0,1,3.3,2l.9-1.4a1.3,1.3,0,0,1,2.1-.3c.8.9,1.3,2.9,0,5.3s-5.5,7.4-5.5,10.4c0,.7.2,1.1.7,1.1s4.3-3.1,5.9-6c.6-.9,1-1,1.5,0a3.3,3.3,0,0,1-.2,2.9c-1.3,2.5-4.5,4.9-7.5,4.9s-3.9-1.2-4.3-2.8c-1.5,1.2-3.7,2.6-5.7,2.6a4.3,4.3,0,0,1-4.6-4.6,11.4,11.4,0,0,1,2.7-6.7C745,618,749.1,615.8,751.7,615.8ZM749.9,626c2-3.1,2.8-5.3,2.8-6.5s-.1-.9-.5-.9-4.5,2.9-7,6.6a11.9,11.9,0,0,0-2.4,6c0,.8.2,1.3.7,1.3S747.5,629.8,749.9,626Z"/><path class="cls-1" d="M779.8,629.8c-1.9,2.7-5.4,4.5-9.5,5.8-2.6,5.9-6.2,12.8-10.3,14.5a3,3,0,0,1-3.5-1.1,5.8,5.8,0,0,1-1.4-3.5c0-4.1,4.8-8.7,10.9-10.6l.7-1.5a8,8,0,0,1-3.8,1.1,4.3,4.3,0,0,1-4.5-4.6c0-6.5,8.5-13.9,13.3-13.9a3.1,3.1,0,0,1,3.2,1.9l.8-1.3a1.3,1.3,0,0,1,2.2-.3,3.7,3.7,0,0,1,.8,2.3c0,1.2-.6,2.4-1.8,4.7s-3.6,6.2-5.3,9.6a24.3,24.3,0,0,0,7.6-6.1c.6-.7,1.5-.7,1.5.3A5,5,0,0,1,779.8,629.8Zm-19.9,12.6c-1.5,2.2-2.1,4.4-1.6,4.8s1.7-1.1,3.2-3.5a45.3,45.3,0,0,0,3.1-5.9A15.9,15.9,0,0,0,759.9,642.4Zm10-16.3c1.9-3.1,2.8-5.3,2.8-6.5s-.1-.8-.5-.8-9.3,7.1-9.3,12.3c0,.9.2,1.5.6,1.5S767.5,629.9,769.9,626.1Z"/><path class="cls-1" d="M787.4,627.7a6.4,6.4,0,0,1-3.5-1,8.8,8.8,0,0,0-.4,2.7c0,2,.9,3.4,2.3,3.4,3.8,0,7.2-3.3,9.2-6.1.6-.8,1.2-.9,1.6,0a3.5,3.5,0,0,1-.7,3,13.1,13.1,0,0,1-10,4.9c-4.6.1-7.1-2.7-7.1-6.3a10.9,10.9,0,0,1,1.5-5.2c2.6-4.8,6.6-7.2,9.5-7.2a4.8,4.8,0,0,1,1.8.3,10.1,10.1,0,0,1,3.1,2.4,3.1,3.1,0,0,1,.5,1.7C795.2,623,791.8,627.7,787.4,627.7Zm-2.8-2.7a2.3,2.3,0,0,0,1.1.3c1.2,0,2.8-1.3,3.8-2.5s2.5-3.9,1.9-4.3S787,620.7,784.6,625Z"/><polygon class="cls-1" points="864.6 604.4 746.6 455.1 746.1 455.5 863.9 604.6 752.3 746.1 640.5 604.4 640 604.8 752 746.8 752.3 746.6 752.6 746.8 864.6 604.8 864.3 604.6 864.6 604.4"/><polygon class="cls-1" points="855.6 604.4 737.6 455.1 737 455.5 854.9 604.6 743.2 746.1 631.4 604.4 630.9 604.8 743 746.8 743.2 746.6 743.5 746.8 855.6 604.8 855.3 604.6 855.6 604.4"/><path class="cls-1" d="M334.3,1045.9a6,6,0,0,0,.7-6.7c-1.3-2.7-4.2-3.9-5.8-2.2a6.2,6.2,0,0,0-.5,7.4C330.2,1047,333,1047.3,334.3,1045.9Z"/><path class="cls-1" d="M403.4,1061.1a21.5,21.5,0,0,1-8,8.9c-11,7.5-23.3,3.6-35.4,2.5-10.2-1-25.2-.4-33.6,7.3h0l-1,1a10,10,0,0,1-5.7,2.9c-3.2.2-3.4-3.7-1-9.5s6.3-11.8,8.4-16.2,1.6-9.3.1-10.9-1.5-.6-2.4.6c-3.7,5.2-10.3,17-12.8,24.3a12.1,12.1,0,0,0-.5,1.8c-3.5,5.5-9,10.4-17,10.9,3.8-2.3,7.5-7.1,10.5-13.7,3.7-8.2,5.9-17.1,1.1-22.2s-10.2-1.7-14.6,2.1a10.7,10.7,0,0,0-.6-4.5c-.5-1.2-1.4-1.4-2.4-.1a136,136,0,0,0-8.4,13.7c-10.1,11.6-30.5,7.8-43.8,6.3-14.8-1.8-36.7-1-47.1,11.9-1.4,1.7,1.2,2.7,2.4,2.8a6.5,6.5,0,0,0,5.7-2.4c-1.1,1.3,0,0,.3-.2a10,10,0,0,1,2-1.6,29.4,29.4,0,0,1,9-4.1c14.8-4.1,29,1,43.8,1.2a61.9,61.9,0,0,0,22.3-4c-5.5,10.4-10.7,21.3-12.2,26.3s-1.4,8.9.1,11,1.3.7,1.7-.2c4.8-11.1,9.8-21.4,14.5-30a10.4,10.4,0,0,0,3.4,6.7c3.5,3.2,7.7,4.1,14.1,3.7a22.2,22.2,0,0,0,14.8-6.5c.7,3.5,3.2,5.7,7.6,5.7a15.2,15.2,0,0,0,9.7-3.9.9.9,0,0,0,.6-.4l.2-.2,1.5-1.5a29.1,29.1,0,0,1,9.8-4.9c12.9-3.6,25.2,1.4,38.1,1.2,10.9-.2,24.9-4.6,29.6-15.7C408.8,1059.8,403.9,1059.7,403.4,1061.1Zm-119.2,20.5c-2.8-2.3-2.3-8.3.2-14.6l3.4-5.7,1.1-1.6,1-1.5c4.3-5.9,9.1-9.4,11.2-8.4s1.4,9.5-2.5,17.5C293.9,1076.9,287.4,1084.2,284.2,1081.6Z"/><path class="cls-1" d="M329.4,977.1a36.5,36.5,0,0,0-7.4-.9,52.6,52.6,0,0,0-9.2,1A50.1,50.1,0,0,0,294,985l2.1-2.3a22.8,22.8,0,0,1,2.2-2.3l2.5-2.6,4.9-4.7,2.2-2.2,2.1-1.8a4.3,4.3,0,0,1,2.4.6,32.3,32.3,0,0,0,7.2,3.1c1.6.6,3.4,1.1,5.3,1.6l3.1.6,3.3.5a14,14,0,0,0,2.9,0l-1.3-1.4a12,12,0,0,1-3.3-.2l-3.4-.6-3-.6-4.7-1.5c-2.6-1-4-2.2-4.4-3.4s4.4-3,10.2-3.2l-1-1.1a30.4,30.4,0,0,0-5.4.9,25.2,25.2,0,0,0-4.4,1.5l3.3-2.9,3.4-2.8-1.2-1.5-2.1,1.8-1.5,1.2a2.8,2.8,0,0,0-.6.6l3.3-4.6-.9-.9a78,78,0,0,1-7.4,9.8l-.9.9a15,15,0,0,0,.9-1.8l1-2.1,2.4-5.5a24,24,0,0,0,3-2.4l-.8-.9-1.2.9.6-1.6-1.2-1.2c-.8,2.1-1.7,4.1-2.6,6,0-2.8-1.7-6.6-3-8.8l.3-3.1-2.1-2.3a51.8,51.8,0,0,0-.9,7.8c-.2,2.6-.2,5.1-.3,7.4v6.6a33.8,33.8,0,0,1-.3,4.9l-2.2,2.1c-1.4,1.3-3.1,3-4.8,4.8l-1.3,1.3-1.2,1.3-2.1,2.2-1.5,1.7a2.8,2.8,0,0,0-.6.6,10,10,0,0,0,.8-1.4,52.7,52.7,0,0,0,3.5-6.2,44.3,44.3,0,0,0,3-10.3,23.1,23.1,0,0,0-.4-10c-.8-2.6-2-4.3-3.3-4.9s0-2.1,1.1-5-1.9-4-2.8-2.8-.1,2,0,3.6a6.6,6.6,0,0,1-1.3,5l-.3.2c-2.8,2.6-6.1,8.8-6.4,16.3a29.2,29.2,0,0,0,1,9.2c.6,2.3,1.3,4.2,1.7,6.2a10.3,10.3,0,0,1-.3,4.3l-2,2.3-2,2.3-2.2,2.8c-1.6,1.9-3,3.8-4.1,5.2l-1.3,1.7-.5.7c4.2-7.9,5.8-14.5,5.6-19.7s-2.2-8.8-5-10.1-7.7-.8-11,2.1a11,11,0,0,0-2.3,2.5,10.9,10.9,0,0,0-1.7,3.2,14.5,14.5,0,0,0-1.1,3.7,30.5,30.5,0,0,0-.1,4.3l.6,4.2c.3,1.3.7,2.6,1,3.9s1.6,4.8,2.4,7.1a53.9,53.9,0,0,1,1.8,6.6,20.9,20.9,0,0,1,0,6.6l-2,3.1-1.2,2a17.6,17.6,0,0,0-1.4,2.3l-3.1,5-3.1,5.5-2.8,5.2-2.4,4.6c-1.3,2.8-2.3,4.7-2.5,5.1s4.3,3.1,4.7,1.7.4-1.3.8-2.4.5-1.3.7-2,.6-1.5.9-2.4l2.4-5.6,1.3-3.1,1.5-3.2a31.8,31.8,0,0,1,1.6-3.2,31.8,31.8,0,0,1,1.6-3.2c1-2.1,2.1-4,3.1-5.8s2-3.4,2.8-4.7l2-3.1.2-.3.8-1.2a11.1,11.1,0,0,1,3.9-2,53.2,53.2,0,0,1,6.2-.7l3.7-.6c1.4-.3,2.9-.6,4.5-1.1,6.4-1.9,10.8-5.1,12.3-7.4s3.4-1.3,5.6-1.4,4.1,0,4.5-.3-2.8-3-4.1-2.5-4.3,1.7-5.9,1.5a8.7,8.7,0,0,0-4.4-2.5,14.3,14.3,0,0,0-8.2.7,24.3,24.3,0,0,0-4,1.8l-3.4,2.1a38.2,38.2,0,0,0-5,4.5l.4-.6,1.1-1.4,1.6-2.1.9-1.1.9-1.2,3.5-4.3,1.7-1.9c3.3-2.2,5.3-1.5,11.3-.6l11.8,1.9a121,121,0,0,0,12.9,1,45,45,0,0,0,6.6-.4l2.8-.7,2.3-1a8.7,8.7,0,0,0,3.4-2.8,7.4,7.4,0,0,0,1.3-4.1C339.6,982.5,335.2,978.8,329.4,977.1ZM308,951c1,3.5,1.8,8.6,1.3,11.7l-2.2,4.6c.2-1.3.3-2.6.4-3.9s.2-2.6.2-4S307.8,953.8,308,951Zm-18.4,33.5a11.7,11.7,0,0,1-1.8-4.7c-.2-1.3-.6-2.9-.9-4.8a31.4,31.4,0,0,1-.5-6.4,27,27,0,0,1,.8-5.2,21.9,21.9,0,0,1,1.7-4.1,11.2,11.2,0,0,1,1.9-2.9,7.2,7.2,0,0,1,2-1.7c1.3-.6,2.7.6,3.5,3.1a20.3,20.3,0,0,1,.7,4.7,37.2,37.2,0,0,1-.4,6.4,56.2,56.2,0,0,1-1.6,6.5c-.4.9-.7,1.9-1.1,2.7a13.3,13.3,0,0,1-1.1,2.4,16.4,16.4,0,0,1-2,3.2C290.2,984.4,289.8,984.7,289.6,984.5Zm-10.8,6a57.1,57.1,0,0,1-3.6,10.9,5.1,5.1,0,0,0-2,1.7,21,21,0,0,0-2.2,3c.2-1.3.3-2.5.5-3.9a28.8,28.8,0,0,1,3.2-6.3A35.5,35.5,0,0,1,278.8,990.5Zm-.2-9.2a12.9,12.9,0,0,1,.8,5.2c-.1,1-.3,2.3-.6,3.8A31.5,31.5,0,0,0,275,994a24.7,24.7,0,0,0-3.1,4.6c.2-2.3.3-4.7.5-7a18.1,18.1,0,0,1,1-2.7c.3-.5.5-1,.8-1.4a10.9,10.9,0,0,1,.8-1.5A23.1,23.1,0,0,1,278.6,981.3Zm-6.8-5.4c3.4-.1,5.7,2.2,6.8,5.3a19,19,0,0,0-3.6,3.4,12.5,12.5,0,0,0-1.5,1.9,6.2,6.2,0,0,0-1,1.7c0-2.4,0-4.7-.2-6.8a35.7,35.7,0,0,0-.9-5.4Zm-.4.1a40.9,40.9,0,0,1,.4,5.3c0,.9,0,1.9-.1,2.9s-.1,2-.1,3.1c-1.2-3.2-4.9-7.2-6.6-8A9,9,0,0,1,271.4,976Zm-6.4,3.4c5.2,5.2,5.9,9.6,6.1,13.3-.2,1.3-.3,2.7-.5,4a38.9,38.9,0,0,0-8.4-9.4,27.2,27.2,0,0,1,.9-4.3A13.7,13.7,0,0,1,265,979.4Zm-1.6,17.7a26.2,26.2,0,0,1-1.2-9.6c4.3,4.3,7.4,9.1,7.9,12.9-.3,2.2-.6,4.3-1,6.2-.7-2.3-2.8-4.7-4.6-6.3A30.1,30.1,0,0,1,263.4,997.1Zm1.3,3.8a16.5,16.5,0,0,1,2.8,4.3,8,8,0,0,1,.7,2,12.1,12.1,0,0,1,.5,1.8,43.8,43.8,0,0,1-1.1,4.3,17.8,17.8,0,0,0-.8-5.9C266.2,1005.4,265.5,1003.2,264.7,1000.9Zm5.7,8.1c.6-1.2,1.3-2.4,2-3.6a21.8,21.8,0,0,1,2.6-3.4c-.8,1.5-1.5,3.2-2.4,4.8s-.9,1.7-1.4,2.6l-1.5,2.6C269.9,1011.1,270.2,1010.1,270.4,1009Zm18.1-10.4c4.1-1.5,7.2-1.5,9.3-.9s3,1.9,2.7,2.9-1.4,2.2-3.4,3.4a17.9,17.9,0,0,1-3.4,1.7,37.2,37.2,0,0,1-4.4,1.6l-5.3,1.5a14.8,14.8,0,0,1-3.9.6,44.7,44.7,0,0,1-4.5-.4c-.5-.1.6-2,3-4.2a40.3,40.3,0,0,1,4.3-3.4A26.7,26.7,0,0,1,288.5,998.6Zm48.4-12.3v.5a56,56,0,0,0-12.5-2.5c2.9-.9,6.1-3.5,7.4-4.6a10.5,10.5,0,0,1,3.9,3A5.4,5.4,0,0,1,336.9,986.3Zm-5.3-6.7-4.7,2.4-5.1,2.2a39.3,39.3,0,0,0-4.9-.2l1.9-1.2,2.3-1.7,2.2-1.8a13.8,13.8,0,0,0,1.7-1.5A28.1,28.1,0,0,1,331.6,979.6Zm-17-1.6,4.9-.5h2.4l2.3.2h.5c-1.3.7-3,1.9-4.9,3.1a34.4,34.4,0,0,1-5.5,3.1l-3.3.2-3.3.2,1.9-1.4,1.9-1.8Zm-21.7,9.5c1.3-1,2.8-2,4.4-3l2.5-1.4,2.7-1.3a59,59,0,0,1,11.7-3.7l-5,3.7c-1.6,1.2-3.1,2.2-4.4,3l-6.6,1.1-2.8.8Zm10.4,3.3a48.3,48.3,0,0,0-10.5-1.4,43.5,43.5,0,0,1,4.7-1.5,37.1,37.1,0,0,1,8.1,1.5,32.5,32.5,0,0,1,8.1,3.2l-4.8-.8Zm18.2,2.4a60,60,0,0,1-7.4-.5c-2.1-1.9-7.5-5.2-12-5.9l2.5-.4,2.5-.4,5.2-.5c3,1.2,8,4.8,11.4,7.6Zm2.7-.1a36.1,36.1,0,0,0-8.9-7.8h6.2a37.1,37.1,0,0,1,9.3,6.7A25.1,25.1,0,0,1,324.2,993.1Zm7-1.3a22.9,22.9,0,0,0-6.9-6.5c2.6.2,5,.3,7.1.6a46.3,46.3,0,0,1,5.5,1,4.6,4.6,0,0,1-1.8,2.7A14.3,14.3,0,0,1,331.2,991.8Z"/><path class="cls-1" d="M331.9,965.5c3.2.9,6.6,2.7,6.4,5.2a3,3,0,0,1-1.8,2.4l-1.7.7-1.9.3,1.3,1.4a11.9,11.9,0,0,0,4.5-1.4,7,7,0,0,0,2.6-2.5c3.2-.3,6.5,2.3,9.1,2.4s-.8-3.8-2.5-3.9-3.9.7-6.5-.3c-.6-2.1-3.7-4.4-7.1-5.4a30.4,30.4,0,0,0-5.4-1,34.7,34.7,0,0,0-5.6.1l1,1.1A25.1,25.1,0,0,1,331.9,965.5Z"/><path class="cls-1" d="M309.6,940.6l.6-1.9a30.4,30.4,0,0,1,3.9,13.1,11.7,11.7,0,0,0-.5,1.1l1.2,1.2,1.7-4.1c1.4-1.3,3.1-3,4.9-4.9l2.4-2.8c.7-1,1.5-1.9,2-2.8-.2.7-.5,1.4-.7,2l-1.8,4.3c-.6,1.3-1.3,2.6-2,3.9a33.8,33.8,0,0,1-2.7,2.6l-3.2,2.5.8.9a51.8,51.8,0,0,0,4.1-4c-1,1.8-2.1,3.5-3.1,5.1l.9.9c.8-1.2,1.6-2.4,2.3-3.6a33.5,33.5,0,0,0,2.1-3.6,56,56,0,0,0,3.5-6.9,63.3,63.3,0,0,0,2.5-6.3,35.3,35.3,0,0,0,1.6-5.7,34.3,34.3,0,0,0,.8-5,26.6,26.6,0,0,0,0-4c-.3-2.3-1.1-3.8-2.2-4.3a7,7,0,0,0-4.3-.4,11.1,11.1,0,0,0-4.7,2.4,25.7,25.7,0,0,0-4.9,5.3,48.9,48.9,0,0,0-5.2,8.4,38.9,38.9,0,0,0-2.1,5.1,45.9,45.9,0,0,0-1.3,5.6l2.1,2.3A33,33,0,0,1,309.6,940.6Zm16.6-2.4-2,2.5-2.4,2.4c-1.6,1.6-3.1,2.9-4.1,3.8.6-1.7,1.3-3.4,1.9-5.2s1.2-3.5,1.9-5.2a37.4,37.4,0,0,0,3.9-4.7,25.5,25.5,0,0,0,2.9-4.8A41.6,41.6,0,0,1,326.2,938.2Zm2.1-11.7a36,36,0,0,1-3.1,4l-2.8,3.1c.7-2.3,1.4-4.6,1.9-6.8a39.7,39.7,0,0,0,1.2-6.4C327.6,920.9,328.3,923.4,328.3,926.5Zm-2.9-6.1a50.8,50.8,0,0,1-1.8,6.6l-1.2,3.7c-.5,1.2-.9,2.5-1.4,3.7a36.5,36.5,0,0,0-3.4-8.7,20.4,20.4,0,0,1,4.4-4.1A4.4,4.4,0,0,1,325.4,920.4Zm-7.9,5.4a60.6,60.6,0,0,1,1.5,6.1,27.9,27.9,0,0,1,.6,6.1c-.6,1.7-1.3,3.4-2,5.1l-2,5c-.3-2.7-3.3-7.8-5.2-9.8A44.4,44.4,0,0,1,317.5,925.8Z"/><path class="cls-1" d="M320.8,959.7a24.6,24.6,0,0,1,6.5.2l4.3.7,4.7.8,4.7.9,4.8.7a44.4,44.4,0,0,0,8.7.5l4-.4,3.3-.4a22,22,0,0,0,4.9-1.5,6.7,6.7,0,0,0,2.7-2.2,5.1,5.1,0,0,0,.7-3.3c-.1-1.1-1.2-2.6-3.2-3.9a20.1,20.1,0,0,0-3.6-1.9L361,949l-2.6-.6a28.4,28.4,0,0,0-6.1-.7,44,44,0,0,0-7.1.3,51.1,51.1,0,0,0-16.4,5.3c5.2-4,9.9-7.3,12.1-8.8,6-2.4,13.8-4.2,21.2-5.8s14.6-3.2,19.8-5.9a60.8,60.8,0,0,0,5.9-3.7,27.1,27.1,0,0,0,4.2-4c2.2-2.7,3.1-5.4,2.3-7.7s-3.3-4.3-7.3-5-9.7-.1-16.3,3.1a61.5,61.5,0,0,0-17.6,13.4c-4.7,4.9-8.6,10-13.2,14.4-1.5,1-4,2.6-6.8,4.7a11.3,11.3,0,0,1,1.9-1.8c7.7-6.2,12.9-11.1,14.7-16.9a8.4,8.4,0,0,0-.3-5.8h.1c-.1-.1-.1-.1-.1-.2l-.5-.8c-.4-1.1.2-2.1,1.1-3.1a23.5,23.5,0,0,1,2.6-2.2c1.1-.8-3.2-2-3.4-1.2-.9,3.5-2.2,4.9-3.5,5.5s-3.4,1.4-5.9,3.5a14.2,14.2,0,0,0-3.1,3.3,32.8,32.8,0,0,0-2.6,4.6,33.8,33.8,0,0,0-2.6,12.4c-.1,1.7-.2,3.1-.3,4l-6,4.5-3.1,2.4-3.1,2.5,1.2,1.4Zm4.7-1.7,2.4-.9,2.7-.8a18.6,18.6,0,0,1,3,2.4c-1.4-.2-2.8-.5-4.2-.6A25.4,25.4,0,0,0,325.5,958Zm8.7.8A11.3,11.3,0,0,0,332,956l3.4-.6,3.5-.4c2.6.9,5.5,4.3,6.8,6.1C342,960.5,338.1,959.5,334.2,958.8Zm14.9,2.7-3.1-.4c-1.1-2.4-2.3-5-4.5-6.4l4.3-.2a45.3,45.3,0,0,1,9,7A54.2,54.2,0,0,1,349.1,961.5Zm6,0a32.5,32.5,0,0,0-7.4-7c2.4,0,4.7.2,7,.4a33.8,33.8,0,0,1,4.8,2.3,22.8,22.8,0,0,1,4.3,2.9A38.6,38.6,0,0,1,355.1,961.5Zm8.8-1.4a19.5,19.5,0,0,0-6.1-4.9l5.3,1,2.4.6,2.2.6a2.5,2.5,0,0,1-1.2,1.5A12.6,12.6,0,0,1,363.9,960.1Zm3.9-3c0,.1,0,.1-.1.2-4.9-2.2-11.3-3.4-18-3.8a37.5,37.5,0,0,0,5.2-1.5c1.7-.6,3.1-1.3,4-1.7l3.4,1.2a25.2,25.2,0,0,1,2.9,1.6C366.9,954.3,367.9,955.6,367.8,957.1Zm-16.6-8a34.9,34.9,0,0,1,7.4,1.1,18.9,18.9,0,0,1-3.4.9l-3.8.9-7,1.5h-3.2l-3.2.3,3.7-2.2,3.5-2.3A38.9,38.9,0,0,1,351.2,949.1Zm-6.5.3-2.9,1.4-1.5.7-1.5.7a39.1,39.1,0,0,1-5.1,2.2l-4.5.9-1.9.4-1.8.5A46.5,46.5,0,0,1,344.7,949.4Zm-11.4-3.9c-.6-.9-.6-3.4.2-6.4a31.8,31.8,0,0,1,1.5-4.7,30.9,30.9,0,0,1,2.4-4.4,26.5,26.5,0,0,1,1.7-2.2,20.8,20.8,0,0,1,2.1-2.1c1.6-1.2,3.2-2,4.7-1.5s2.1,2.3,1.8,4.2a15,15,0,0,1-1.9,5.4l-1.4,1.9-1.8,2.1c-1.3,1.4-2.7,2.8-4,4a32.6,32.6,0,0,1-3.6,2.9C334.1,945.4,333.4,945.7,333.3,945.5Zm58-26.8c.5,1.7-.2,3.6-1.8,5.4a15.4,15.4,0,0,0-7.4-1.6Zm-12,5a15.1,15.1,0,0,1,10.1.6,22.9,22.9,0,0,1-4.9,4c-2.9-1.7-7.6-2.4-11.1-2l3-1.4Zm-7.8,3.5a21.1,21.1,0,0,1,7.1,0,24.5,24.5,0,0,1,5.4,1.4,42.7,42.7,0,0,1-3.8,2.2l-3.3,1.5a21.9,21.9,0,0,0-5.3-1.8,20.7,20.7,0,0,0-6-.4Zm-8.3,4.1,1.8-.3h1.8l3.5.2a23,23,0,0,1,6,1.4c-1.5.6-3.1,1.1-4.8,1.6l-5,1.4a15.1,15.1,0,0,0-4.3-1h-2.5a10.1,10.1,0,0,0-2.5.2C359.1,933.4,361.2,932.4,363.2,931.3Zm-9,4.9a30.8,30.8,0,0,1,5.3-.8,23.6,23.6,0,0,1,5.9.3c-6.6,1.6-13.6,3.2-19.1,5.4,1.1-.8,2.4-1.5,3.7-2.3Zm-8.2,3.1c1.2-1.4,2.5-2.7,3.8-4.1a52.2,52.2,0,0,1,3.9-4.3l2.1-2.2,2.3-2.1a43.9,43.9,0,0,1,5.1-4.2,28.6,28.6,0,0,1-1.2,2.7c-.6,1-1.1,2.1-1.8,3.2a25.1,25.1,0,0,1-2.5,3.2,13.8,13.8,0,0,1-3.1,2.8l-2.4,1.4-2.2,1.2Zm12.1-6.8a21.4,21.4,0,0,0,3.3-5.1,26.8,26.8,0,0,0,2.1-5.2,40.5,40.5,0,0,1,3.4-2.3l3.9-2.2c-1.5,6.3-6,10.7-7.8,12.3Zm7.9-3.9a17.1,17.1,0,0,0,3.6-5.3,18.4,18.4,0,0,0,1.6-5.7.1.1,0,0,1,.1-.1l1.5-.7,1.5-.6a14.3,14.3,0,0,1,2.7-.9,25.8,25.8,0,0,1,4.8-1,28.9,28.9,0,0,1-1.9,3.5,16.4,16.4,0,0,1-2,2.9l-2,2.4-1.8,1.8-4.1,1.8Zm16.2-14.3a10.8,10.8,0,0,1,6,1,5.7,5.7,0,0,1,3,2.9l-3.3,1.2-3.6,1.4-7.9,3.1a22,22,0,0,0,3.4-4.6c.5-.9,1-1.8,1.4-2.7A8.9,8.9,0,0,0,382.2,914.3Z"/><polygon class="cls-1" points="377.5 943.6 377.5 1130.6 219.5 1130.6 219.5 888.6 377.5 888.6 377.5 900.6 378.5 900.6 378.5 887.6 218.5 887.6 218.5 1131.6 378.5 1131.6 378.5 943.6 377.5 943.6"/><path class="cls-1" d="M337.6,152a6.6,6.6,0,0,0,.8-7.3c-1.4-2.9-4.5-4.1-6.2-2.3a6.5,6.5,0,0,0-.6,7.9C333.2,153.1,336.2,153.5,337.6,152Z"/><path class="cls-1" d="M397.4,178.4a8.8,8.8,0,0,0-2.4-2c-1.9-1-3.6-.9-6.2-.7l-1.7.2-1.2.3a42,42,0,0,0,3.2,5,20.6,20.6,0,0,0,2.5,2.6,5.4,5.4,0,0,0,2.6,1.5,17.3,17.3,0,0,0,5.8-.2l1.5-.4a33,33,0,0,0-1.6-2.9C398.9,180.4,398.1,179.2,397.4,178.4Zm-6.8-1.9h2.6a4.5,4.5,0,0,1,1.8.7,13.2,13.2,0,0,1,3.2,3.4l1.2,1.7-1.9-1.7-2.3-1.7a21.4,21.4,0,0,0-5.5-2.6Zm5.9,7.8-2.2-.2a7.4,7.4,0,0,1-3.4-2.4,27.7,27.7,0,0,1-2.8-3.7,46.7,46.7,0,0,0,6.7,5.1,8.4,8.4,0,0,0,4,1.1A8.7,8.7,0,0,1,396.5,184.3Zm2.5-.7a10.8,10.8,0,0,1-4.2-1.2c-1.6-.8-3.7-2.5-7.3-5.6h.1a18.5,18.5,0,0,1,7.2,2.9,22.8,22.8,0,0,1,5,4.1Z"/><path class="cls-1" d="M413.6,173.1a3.9,3.9,0,0,0-.8-1l-1.2-1a11.5,11.5,0,0,0-3.1-1.8,10.7,10.7,0,0,0-4.1-.6,10.9,10.9,0,0,0-6.2,1.9,11.5,11.5,0,0,0-2,1.5l-1.3,1.4-4.1.5-1.4.2.8-.5a37.4,37.4,0,0,0,6.7-6.9l2.1-3a16.8,16.8,0,0,0-15.3,3.7,17.9,17.9,0,0,0-5.5,9.5l-2.1.7h-.5c-3.3,1.1-6.5,2.4-9.6,3.7a20.2,20.2,0,0,0,5.5-6.2,18,18,0,0,0,1.7-3.4,43.3,43.3,0,0,0,2.6-8.2,16.3,16.3,0,0,0-5.3,1.4,15.1,15.1,0,0,0-7.1,6.9,19.6,19.6,0,0,0-1.3,11.2l-5.4,2.5a21,21,0,0,0,1.5-2.2,17.8,17.8,0,0,0,1.8-8.9,11.2,11.2,0,0,0-5,3.2,12.2,12.2,0,0,0-2.5,5.3,21.2,21.2,0,0,0-.4,4.7l-6.8,3-1.8.7a10.5,10.5,0,0,0,2.5-3.2,18.7,18.7,0,0,0,1.6-9.6,13.4,13.4,0,0,0-4.3.7,8,8,0,0,0-5.1,5.6,20.5,20.5,0,0,0-.5,2.4c-.1.8-.1,1.6-.2,2.3s0,2.9.1,3.8l-1.5.4a32.8,32.8,0,0,1-4.1.8l-3.8.3h-2.5a7.4,7.4,0,0,1-5.6-2.7,3.1,3.1,0,0,1-1-2.3v-.4h0a18.5,18.5,0,0,1,1.8-6.9c2.2-5.4,6.7-12.7,9-17.4s1.7-10,.1-11.7-1.6-.7-2.6.6c-4,5.6-11.1,18.3-13.8,26.2a13.3,13.3,0,0,0-.5,1.9c-3.8,5.9-9.7,11.2-18.3,11.7,4.1-2.5,8.1-7.6,11.3-14.7,4-8.8,6.4-18.4,1.2-23.9s-11-1.8-15.7,2.2a10.6,10.6,0,0,0-.7-4.8c-.5-1.3-1.5-1.5-2.5-.1a149,149,0,0,0-9.1,14.7c-10.9,12.5-32.9,8.4-47.2,6.7-15.9-1.9-39.4-1.1-50.7,12.7-1.5,1.9,1.3,3,2.6,3.1a7.3,7.3,0,0,0,6.2-2.6c-1.2,1.5,0,0,.3-.3a16.6,16.6,0,0,1,2.1-1.6,29.3,29.3,0,0,1,9.7-4.4c16-4.4,31.2,1.1,47.2,1.3a64.9,64.9,0,0,0,24-4.3c-6,11.3-11.6,22.9-13.2,28.3s-1.6,9.6.1,11.8,1.4.8,1.8-.2c5.2-11.9,10.7-22.9,15.7-32.2a10.8,10.8,0,0,0,3.7,7.2c3.7,3.5,8.3,4.5,15.1,4a23.8,23.8,0,0,0,15.9-7c.7,3.4,2.9,5.6,6.8,6.1l2.3.5a31.2,31.2,0,0,0,6.5.5,16.9,16.9,0,0,0,3.8-.4,10.7,10.7,0,0,0,2.1,2.2l1.4,1.1,1.7.8a8.1,8.1,0,0,0,5.3.2,19.6,19.6,0,0,0-5.5-4.5l-1.3-.5.9-.3a54.3,54.3,0,0,0,5.7-1.9h-.1a16.6,16.6,0,0,0,6.8,3.2,11.8,11.8,0,0,0,5.4-.2,8.9,8.9,0,0,0,2.9-1.3,17.8,17.8,0,0,0-5-3,11.1,11.1,0,0,0-5.5-.6l5.6-2.5.4.3h.1a25.4,25.4,0,0,0,9.2,4.8,15.2,15.2,0,0,0,9.9-.3,12.7,12.7,0,0,0,4.2-2.7,22.7,22.7,0,0,0-10.3-5.7,15.2,15.2,0,0,0-5.1-.3l7.7-3.4a42.8,42.8,0,0,0,6,4.9,35.5,35.5,0,0,0,6,3.6,18.6,18.6,0,0,0,6.9,2.2h2.7a10.4,10.4,0,0,0,3.5-1.2h.2l-.2-.3a20.2,20.2,0,0,0-1.3-2.3,13.7,13.7,0,0,0-2.1-3,19.1,19.1,0,0,0-7.1-5.4,15.8,15.8,0,0,0-6.7-1.4h.2l3.6-1.1,2.6-.7,1.7-.5h.1l6.3-1.4,4.2-.7h.2a18.4,18.4,0,0,0,5.9,2.9,8.4,8.4,0,0,0,3.4.2l2-.4,1.2-.4,1.1-.3,2.1-.7,1.4-.5,2.3-.7ZM283.7,190.4c-3-2.5-2.5-8.9.2-15.7,1.3-2.3,2.5-4.2,3.7-6.2l1.1-1.7a9.1,9.1,0,0,0,1.1-1.6c4.7-6.3,9.9-10.2,12.1-9s1.5,10.2-2.7,18.8C294.2,185.3,287.2,193.2,283.7,190.4Zm55.1,9.5-2-.5-1.3-.7-1.1-.7a8.8,8.8,0,0,1-1.7-1.6l3.9,1.8,2,1,1.8.8Zm-2.1-3.1a15.6,15.6,0,0,1,3.4,2.4l-6.7-3.1.7-.2A13.5,13.5,0,0,1,336.7,196.8Zm3-12.7a6.8,6.8,0,0,1,3.2-3.3,10.7,10.7,0,0,0-2.9,3.5l-.9,1.8-.6,1.9A11.7,11.7,0,0,1,339.7,184.1Zm.3,1.5a12.6,12.6,0,0,1,5.1-5.5h.7a36.3,36.3,0,0,0-4.1,4.4,21.6,21.6,0,0,0-3.3,6.8A20.1,20.1,0,0,1,340,185.6Zm2-.5a29.1,29.1,0,0,1,4.4-4.7c-1.7,7-4.7,10.2-7.8,12.3A19.7,19.7,0,0,1,342,185.1Zm-1.8,7.3c2.5-2.1,4.8-5.1,6.3-10.4a13.2,13.2,0,0,1-1.7,6.2A9.4,9.4,0,0,1,340.2,192.4Zm15.3,2.6a9.9,9.9,0,0,1-5.7.7,12.6,12.6,0,0,1-5.3-1.8l5.5.4a50.6,50.6,0,0,1,5.5.7Zm-6.7-2.6a11.5,11.5,0,0,1,5.4,1.8l-5.1-.6-4.7-.3A8,8,0,0,1,348.8,192.4Zm6.7-13.2a11.1,11.1,0,0,1,2.8-2.6l-2.8,4.4a42.9,42.9,0,0,0-2.4,4.8A13,13,0,0,1,355.5,179.2Zm-2.3,8.1a38.8,38.8,0,0,1,2.6-5.6,39.4,39.4,0,0,1,3.3-5,18.9,18.9,0,0,1-1.7,6.1,11,11,0,0,1-3.8,4.3Zm12.7,6.2a21.8,21.8,0,0,1-7.1-1.7,27.7,27.7,0,0,0,7.8,1.1,28.8,28.8,0,0,0,6.3-.7A13,13,0,0,1,365.9,193.5Zm-.5-1.2a26,26,0,0,1-9.7-2.2,76.7,76.7,0,0,0,9.1,1l8.3.3A25,25,0,0,1,365.4,192.3Zm-.1-1.8a64.6,64.6,0,0,1-10.7-1.2c2.4-.8,6.3-1,10.2-.7a26.3,26.3,0,0,1,9.8,2.2C372.7,190.9,369.2,190.7,365.3,190.5Zm-1.7-4.3a18.9,18.9,0,0,1,9.3,3.3,36.4,36.4,0,0,0-8.8-1.6,34.2,34.2,0,0,0-8.8.5A14,14,0,0,1,363.6,186.2Zm1-14.1a13.4,13.4,0,0,1,6.4-6l1.6-.6-1.5,1a22.1,22.1,0,0,0-8.3,12.4A17.3,17.3,0,0,1,364.6,172.1Zm-1.7,9.5a20.7,20.7,0,0,1,8.5-14.4,17,17,0,0,1,2.6-1.8l-2,3.4q-2,3.4-4.2,6.9a44.1,44.1,0,0,1-4.9,6.3Zm5.7-5.9c1.3-2.1,2.6-4.1,3.7-6.1s1.1-1.9,1.6-2.7c-.3,1-.7,2.3-1.2,3.6s-1.2,2.6-1.9,4a18.9,18.9,0,0,1-6.5,6.9A40.5,40.5,0,0,0,368.6,175.7Zm19.7,15.4a16.1,16.1,0,0,1-5.5-1.1l-3-1.3a44.3,44.3,0,0,1-9.1-6.2c2.7,1.3,5.4,2.5,8.1,3.5,4.6,1.8,8.9,3.3,13.1,4.6A11.5,11.5,0,0,1,388.3,191.1Zm4-.9c-4.3-1.4-9-3-13.8-4.9-2.8-1.1-5.6-2.3-8.4-3.7a32.1,32.1,0,0,1,7.1.5,27,27,0,0,1,9.5,3.5A25.4,25.4,0,0,1,392.3,190.2Zm-11-9.2a18.1,18.1,0,0,1,6,3.2,20.8,20.8,0,0,1,2.1,2.1,14.5,14.5,0,0,1,1.7,1.9l-2.5-2a28.1,28.1,0,0,0-3.1-1.9,27.4,27.4,0,0,0-8.5-2.8,34.3,34.3,0,0,0-5.6-.5,15.7,15.7,0,0,1,9.9,0Zm5-13.9a16.6,16.6,0,0,1,5-2.2l1.1-.2,1.1-.2h1.9a33.5,33.5,0,0,0-7.9,3.4,21.7,21.7,0,0,0-7.2,6.5A15.5,15.5,0,0,1,386.3,167.1Zm-5.9,9.2-.7.2a14.4,14.4,0,0,1,3.4-4.6,26.2,26.2,0,0,1,4.9-3.7,32.1,32.1,0,0,1,8.9-3.5l-.2.3c-1.9,1.6-4.7,3.8-7.6,5.9A49.1,49.1,0,0,1,380.4,176.3Zm3.9-1-1,.2c2.1-1.2,4.3-2.8,6.4-4.3l5.9-4.5a30.5,30.5,0,0,1-4.2,4.9,21.9,21.9,0,0,1-4.3,3.1Zm19.9-5.5a13,13,0,0,1,4.6.9l1.7.9,1.3,1a16.2,16.2,0,0,0-6.3-1.6,18.3,18.3,0,0,0-7.9,1.1A12.9,12.9,0,0,1,404.2,169.8Zm6.1,5a25.8,25.8,0,0,1-6.7,1.4,7.6,7.6,0,0,1-2.8-.3,9.7,9.7,0,0,1-1.9-.8l-1.1-.5-1.2-.7,7,.4,7.4.3Zm-5.7-1.1-8-.4a16.7,16.7,0,0,1,9.2-1.6,14.1,14.1,0,0,1,7,2.3Z"/><text class="cls-3" transform="matrix(0.8, -0.75, 0.69, 0.73, 224.45, 108.37)">a</text><text class="cls-3" transform="translate(231.5 101.9) rotate(-39.1) scale(1.1 1)"> </text><text class="cls-3" transform="matrix(0.92, -0.6, 0.54, 0.84, 235.75, 98.18)">m</text><text class="cls-3" transform="translate(249.5 89.6) rotate(-25.6) scale(1.1 1)">o</text><text class="cls-3" transform="translate(258.9 84.9) rotate(-18.2) scale(1.1 1)">m</text><text class="cls-3" transform="translate(274.4 80.2) rotate(-10.8) scale(1.1 1)">e</text><text class="cls-3" transform="translate(284.1 78.3) rotate(-4.8) scale(1.1 1)">n</text><text class="cls-3" transform="matrix(1.1, 0.01, -0.01, 1, 295.54, 77.54)">t</text><text class="cls-3" transform="translate(302.7 77.7) rotate(3.9) scale(1.1 1)"> </text><text class="cls-3" transform="translate(308.1 78) rotate(7.5) scale(1.1 1)">t</text><text class="cls-3" transform="matrix(1.07, 0.24, -0.22, 0.98, 315.46, 79)">o</text><text class="cls-3" transform="translate(325.8 81.5) rotate(17) scale(1.1 1)"> </text><text class="cls-3" transform="matrix(1.03, 0.4, -0.36, 0.93, 331.24, 83.11)">s</text><text class="cls-3" transform="translate(339.5 86.3) rotate(26.7) scale(1.1 1)">h</text><text class="cls-3" transform="translate(349.5 91.5) rotate(32.6) scale(1.1 1)">a</text><text class="cls-3" transform="matrix(0.87, 0.67, -0.61, 0.79, 357.71, 96.8)">r</text><text class="cls-3" transform="matrix(0.81, 0.75, -0.68, 0.73, 364.47, 102.08)">e</text><path class="cls-1" d="M215.6,239.5l7.7-5.6h0L213,235.9l-.2-.2,5.2-9.2h0l-7.8,5.6v-.2l8-5.9.3.5-5.1,9,10.2-2,.3.4-8,5.8Z"/><path class="cls-1" d="M220.7,240.4l-.7.9a3,3,0,0,0-.4,1.1,2.4,2.4,0,0,0,0,1.2,2.6,2.6,0,0,0,.7,1.1,2.1,2.1,0,0,0,1.1.8,3,3,0,0,0,1.3.2v.3a3.4,3.4,0,0,1-1.4-.2l-1.2-.9a2.6,2.6,0,0,1-.7-1.1,5.1,5.1,0,0,1-.2-1.3,5.6,5.6,0,0,1,.4-1.2,3.1,3.1,0,0,1,.9-1.1,3.7,3.7,0,0,1,1.2-.7,1.7,1.7,0,0,1,1.2-.2,2.5,2.5,0,0,1,1.2.2l1,.7a3.4,3.4,0,0,1,.6,1.2,1.7,1.7,0,0,1,.1,1.2,1.9,1.9,0,0,1-.3,1,2.2,2.2,0,0,1-.7.9l-.2.2Zm3.9,3.9.7-.9.3-1a3,3,0,0,0-.2-1,2.1,2.1,0,0,0-.6-1,1.7,1.7,0,0,0-1-.7,2.2,2.2,0,0,0-1.1-.1l-1,.2-.8.5Z"/><path class="cls-1" d="M228.8,245.8h.9l.8.3.7.4a2.1,2.1,0,0,1,.6,1,1.4,1.4,0,0,1,.1.9,3.2,3.2,0,0,1-.3.9l-.6.8-2.7,2.9-.2-.3,2.6-2.8.6-.7.3-.8a2.5,2.5,0,0,0-.1-.8,1.4,1.4,0,0,0-.5-.9l-.9-.5a1.7,1.7,0,0,0-1-.1,2.3,2.3,0,0,0-1.1.3,2.8,2.8,0,0,0-1,.9l-2.2,2.3-.3-.2,3.3-3.5.3-.3.3-.3.3-.4a.2.2,0,0,1,.2-.2l.2.2-.2.2-.3.4-.3.3-.3.3h0Z"/><path class="cls-1" d="M236.7,257.4h0l-.9.4h-.9l-.9-.2-.8-.4-.8-1a2.8,2.8,0,0,1-.4-1.2,5.3,5.3,0,0,1,.1-1.3,7.5,7.5,0,0,1,.7-1.2,2.8,2.8,0,0,1,1-.9,3.1,3.1,0,0,1,1.2-.5,2.5,2.5,0,0,1,1.2.1,2.3,2.3,0,0,1,1.2.6,2.6,2.6,0,0,1,1.1,1.4,3.1,3.1,0,0,1,0,1.9h0l1.1-1.4.3.2-3.8,4.8a5.2,5.2,0,0,1-1,1.1,3.4,3.4,0,0,1-1.2.6,2.5,2.5,0,0,1-2.6-.6,4,4,0,0,1-1.1-1.2,4.4,4.4,0,0,1-.5-1.5h.3a3.4,3.4,0,0,0,.5,1.4,3.1,3.1,0,0,0,.9,1.1l1.3.6a2.5,2.5,0,0,0,1.2-.1,3,3,0,0,0,1.1-.6l.9-1Zm-3.7-4.7-.6,1.1a3.7,3.7,0,0,0-.1,1.1,2,2,0,0,0,.3,1.1,2.5,2.5,0,0,0,.8,1l1.1.5a2.1,2.1,0,0,0,1.1,0l1.1-.4a3.9,3.9,0,0,0,1-.8,5.4,5.4,0,0,0,.5-1.1,5,5,0,0,0,.2-1.2,4.9,4.9,0,0,0-.4-1.1,1.6,1.6,0,0,0-.7-.9,3.4,3.4,0,0,0-1.2-.6H235a2.7,2.7,0,0,0-1.1.5A3.2,3.2,0,0,0,233,252.7Z"/><path class="cls-1" d="M243.6,256.8a2.2,2.2,0,0,1,1.4.3h.1a.1.1,0,0,0,.1.1l-.2.2h-.1a2.5,2.5,0,0,0-1.1-.4l-.9.2-.9.6-.7.8-1.9,2.8-.2-.2,2.6-4c.1-.1.2-.2.2-.3l.3-.4.2-.3.2-.4.2.2c0,.1-.1.2-.1.3l-.3.4a.8.8,0,0,0-.2.4l-.3.4h.1A2.1,2.1,0,0,1,243.6,256.8Z"/><path class="cls-1" d="M247.9,265.6l-.8.2h-.9a1.1,1.1,0,0,1-.7-.3,2.2,2.2,0,0,1-.9-.7,1.6,1.6,0,0,1-.3-.9,3.4,3.4,0,0,1,.1-1l.4-.9,2-3.4.2.2-1.9,3.3-.3.8a2.9,2.9,0,0,0-.2.9,1.6,1.6,0,0,0,.3.8,1.6,1.6,0,0,0,.7.7,1.7,1.7,0,0,0,1,.3h1a2.7,2.7,0,0,0,1-.6,3.1,3.1,0,0,0,.8-1.1L251,261h.3l-2.4,4.2-.2.3c-.1.1-.1.3-.2.4l-.2.4-.2.3h-.2a.4.4,0,0,1,.1-.3c.1-.2.2-.3.2-.4l.3-.5.2-.3h-.1Z"/><path class="cls-1" d="M259,271.9l.2-.4,9.3-6.4-6-2.2v-.3l6.2,2.3v.4l-9.3,6.4,6.3,2.3v.3Z"/><path class="cls-1" d="M270.1,270.6l.6-.6.7-.4.8-.2h.8a1.9,1.9,0,0,1,1,.5,1.6,1.6,0,0,1,.6.8,2.8,2.8,0,0,1,.1.9c0,.4-.1.7-.1,1l-1,3.8h-.3l1-3.7c0-.3.1-.6.1-.9a2.2,2.2,0,0,0-.1-.8,3,3,0,0,0-.4-.8l-.9-.5h-1.1a1.8,1.8,0,0,0-.9.4,2,2,0,0,0-.8.8,3.3,3.3,0,0,0-.5,1.2l-.9,3.1h-.3l2.8-10.2h.3l-1.5,5.6Z"/><path class="cls-1" d="M281.9,276.7c0,.2-.1.5-.1.7v.7h-.3v-.8a.6.6,0,0,0,.1-.4v-.4h0a2.1,2.1,0,0,1-1.2,1.1,2.6,2.6,0,0,1-1.5.2l-.7-.2-.7-.5a4.3,4.3,0,0,1-.4-.7v-.8a1.4,1.4,0,0,1,.6-1,1.6,1.6,0,0,1,.9-.5h2.3l1.1.2v-.5a1.5,1.5,0,0,0-.3-1.6,2,2,0,0,0-1.3-.8h-1.1l-1,.4v-.2a1.5,1.5,0,0,1,1.1-.4h1.1a2.4,2.4,0,0,1,1.6.8,2,2,0,0,1,.3,1.9Zm.1-2.1-1-.2h-1.1a4,4,0,0,0-1.1,0,1.9,1.9,0,0,0-.9.4c-.3.2-.4.5-.5,1v.7l.4.6.5.3.6.2a2.8,2.8,0,0,0,1.3,0l.8-.5a1.8,1.8,0,0,0,.6-.9l.3-.9Z"/><path class="cls-1" d="M286.7,273.2l.7-.5a1.1,1.1,0,0,1,.8-.3h.8l1.1.4c.2.2.5.4.6.7a1.6,1.6,0,0,1,.3.9v1l-.4,3.9h-.3l.4-3.8v-.8a2.9,2.9,0,0,0-.2-.9c-.2-.2-.3-.5-.6-.7l-.9-.3h-1.1a1.6,1.6,0,0,0-.8.6,2.2,2.2,0,0,0-.7.9,2.8,2.8,0,0,0-.3,1.3l-.3,3.2h-.3l.4-4.8c0-.1.1-.3.1-.4v-1.3h.3v1.2a.9.9,0,0,0-.1.5h.1A2,2,0,0,1,286.7,273.2Z"/><path class="cls-1" d="M300.1,277.7h0l-.5.9-.7.6-.9.3h-.9l-1.3-.2a3.9,3.9,0,0,1-1-.8,2,2,0,0,1-.6-1.1,1.9,1.9,0,0,1-.2-1.3,3.4,3.4,0,0,1,.2-1.4,3.6,3.6,0,0,1,.7-1,2.5,2.5,0,0,1,1-.8l1.3-.2a3.4,3.4,0,0,1,1.7.5,3.1,3.1,0,0,1,1.2,1.5h0V273h.3v6.1a7.7,7.7,0,0,1-.2,1.5,6.1,6.1,0,0,1-.5,1.2,2.5,2.5,0,0,1-1,.8,3.3,3.3,0,0,1-1.5.3,3.5,3.5,0,0,1-2.9-1.2l.3-.2a2.7,2.7,0,0,0,1.2.9,3.4,3.4,0,0,0,2.8,0,3.4,3.4,0,0,0,.9-.8,4.2,4.2,0,0,0,.4-1.2,5.9,5.9,0,0,0,.2-1.3Zm-5.8-1.5a2.5,2.5,0,0,0,.2,1.2,3.1,3.1,0,0,0,.5,1l.9.7a2.7,2.7,0,0,0,1.2.3,2.1,2.1,0,0,0,1.2-.3,2.1,2.1,0,0,0,1-.6l.6-1a5.1,5.1,0,0,0,.2-1.3,2.5,2.5,0,0,0-.2-1.2,2.1,2.1,0,0,0-.6-1,3.1,3.1,0,0,0-.9-.7l-1.2-.2a2.5,2.5,0,0,0-1.2.2,2.2,2.2,0,0,0-.9.7,2.1,2.1,0,0,0-.6,1A2.5,2.5,0,0,0,294.3,276.2Z"/><path class="cls-1" d="M320.5,272.2a5.3,5.3,0,0,1-.1,2.2,3.7,3.7,0,0,1-.8,1.8l-1.6,1.2a6.5,6.5,0,0,1-2.1.6l-2.7.5-1.8-9.8,2.8-.4a5.5,5.5,0,0,1,2.2-.1,3.5,3.5,0,0,1,1.8.5,5,5,0,0,1,1.5,1.4A7.1,7.1,0,0,1,320.5,272.2Zm-8.7-3.2,1.6,9.2,2.4-.4,2-.7a4.2,4.2,0,0,0,1.5-1.1,3,3,0,0,0,.8-1.6,5.3,5.3,0,0,0,.1-2.2,6,6,0,0,0-.8-2A4.1,4.1,0,0,0,318,269a3.4,3.4,0,0,0-1.7-.5,7.4,7.4,0,0,0-2.1,0Z"/><path class="cls-1" d="M323.7,273.1a2.4,2.4,0,0,0,.5,1,1.8,1.8,0,0,0,.8.9l1,.5h1.3a3.5,3.5,0,0,0,1.2-.7,2.8,2.8,0,0,0,.8-1.1h.3a2.7,2.7,0,0,1-.9,1.2,1.9,1.9,0,0,1-1.3.7,2,2,0,0,1-1.3.1,2.8,2.8,0,0,1-1.2-.4,2.6,2.6,0,0,1-.9-.9,2.7,2.7,0,0,1-.6-1.2,3.6,3.6,0,0,1-.2-1.4,5.6,5.6,0,0,1,.4-1.2,2.2,2.2,0,0,1,.7-.9,3,3,0,0,1,1.1-.6,3.4,3.4,0,0,1,1.4-.1l1.1.4.8.8a3.6,3.6,0,0,1,.4,1.1v.2Zm5.1-1.8a1.9,1.9,0,0,0-.5-1,4.6,4.6,0,0,0-.7-.7,1.9,1.9,0,0,0-1-.3,2.1,2.1,0,0,0-1.1.1,1.7,1.7,0,0,0-1.1.6,2.4,2.4,0,0,0-.6.9,2.3,2.3,0,0,0-.3,1.1c0,.3.1.6.1.8Z"/><path class="cls-1" d="M336.1,270.8a2.2,2.2,0,0,1,.1.8,1.1,1.1,0,0,1-.3.7.8.8,0,0,1-.5.5l-.7.4a2,2,0,0,1-1.3.2,2.8,2.8,0,0,1-1.2-.4l.2-.2a2.6,2.6,0,0,0,2.3.2l.5-.3.4-.5c.2-.2.2-.4.3-.6a2,2,0,0,0-.1-.7,1,1,0,0,0-.5-.6l-.6-.2H332l-.5-.3a2.1,2.1,0,0,1-.4-.6,2.2,2.2,0,0,1-.1-.8.9.9,0,0,1,.3-.6,1,1,0,0,1,.4-.5,1.1,1.1,0,0,1,.7-.3,2.2,2.2,0,0,1,2.2.2l-.2.2a1.6,1.6,0,0,0-.9-.3,1.7,1.7,0,0,0-1,.1c-.2.1-.4.1-.5.3a.8.8,0,0,0-.4.4c-.2.1-.2.3-.3.5a2,2,0,0,0,.1.7l.3.5c.2.2.3.3.5.3h1.4a2.2,2.2,0,0,1,.8,0h.7l.6.4A1.5,1.5,0,0,1,336.1,270.8Z"/><path class="cls-1" d="M336.2,263H336c-.1-.1-.2-.2-.2-.3s-.1-.1,0-.2a.3.3,0,0,1,.1-.2h.3c.1,0,.1.1.2.2v.3Zm3.3,8.2-2.5-6h.3l2.5,6Z"/><path class="cls-1" d="M347.6,265.5h-.1v.9a3.6,3.6,0,0,1-.4.9,1.9,1.9,0,0,1-.6.7,1.8,1.8,0,0,1-.7.5l-1.3.4-1.2-.2a4.1,4.1,0,0,1-1.1-.7,4.4,4.4,0,0,1-.8-1.1,3.3,3.3,0,0,1-.4-1.3,2.8,2.8,0,0,1,.1-1.3,3,3,0,0,1,.6-1.1,3.9,3.9,0,0,1,1-.8,2.9,2.9,0,0,1,1.8-.3,3.1,3.1,0,0,1,1.7.7h0l-.8-1.5.3-.2,2.7,5.4a14.7,14.7,0,0,1,.6,1.4,3.3,3.3,0,0,1,0,1.4,2.1,2.1,0,0,1-.5,1.2,2.4,2.4,0,0,1-1.2.9,3,3,0,0,1-1.6.5,3.2,3.2,0,0,1-1.4-.3v-.3a3.5,3.5,0,0,0,1.4.3l1.4-.4a3.5,3.5,0,0,0,1.1-.9,2.7,2.7,0,0,0,.5-1.1,3.2,3.2,0,0,0-.2-1.3,5.6,5.6,0,0,0-.4-1.2Zm-5.9,1.3a3.6,3.6,0,0,0,.7,1,3.3,3.3,0,0,0,1,.6l1.1.2a2.7,2.7,0,0,0,1.2-.3,2.4,2.4,0,0,0,.9-.8,1.9,1.9,0,0,0,.5-1,1.7,1.7,0,0,0,.1-1.2,2.7,2.7,0,0,0-.3-1.2,3.6,3.6,0,0,0-.7-1l-1-.6-1.2-.2a5.3,5.3,0,0,0-1.2.3,3.1,3.1,0,0,0-1.4,1.8,4.9,4.9,0,0,0-.1,1.2A5.6,5.6,0,0,0,341.7,266.8Z"/><path class="cls-1" d="M349.8,259.8a1.9,1.9,0,0,1,.2-.8,1.6,1.6,0,0,1,.4-.7l.6-.6,1.1-.3a1.7,1.7,0,0,1,1,.1,1.9,1.9,0,0,1,.7.6,2.7,2.7,0,0,1,.7.8l2,3.3h-.3l-2-3.3-.5-.6a2,2,0,0,0-.7-.6h-.9a1.6,1.6,0,0,0-.9.3,2.7,2.7,0,0,0-.8.7,1.6,1.6,0,0,0-.3.9,2.4,2.4,0,0,0,0,1.2,3.4,3.4,0,0,0,.6,1.2l1.7,2.7-.3.2-2.5-4.1-.3-.3a.8.8,0,0,0-.2-.4l-.3-.4-.2-.2.3-.2.2.3.3.4c0,.1.1.2.2.4l.2.3h.1A2.8,2.8,0,0,1,349.8,259.8Z"/><path class="cls-1" d="M366.2,255l-.2-.3v-5.3a12.5,12.5,0,0,0-.2-2.1,3.5,3.5,0,0,0-.6-1.4l-.8-.6-.8-.2h-.8l-.8.5a2.6,2.6,0,0,0-.8,1.3,2,2,0,0,0,.2,1.5H361a2.3,2.3,0,0,1-.2-1.6,3.8,3.8,0,0,1,.9-1.5l.9-.5a1.6,1.6,0,0,1,1-.2l.9.2.7.6a3.5,3.5,0,0,1,.5.8l.3.8c0,.3.1.7.1,1.1v6.3l4-3.5.2.2Z"/><path class="cls-1" d="M375,246.9a1.9,1.9,0,0,1-1.4.8,3.8,3.8,0,0,1-1.5-.1l-1.5-.8-1.4-1.2-1.2-1.3a6,6,0,0,1-.9-1.5,3.9,3.9,0,0,1-.2-1.5,2.7,2.7,0,0,1,.7-1.4,2.1,2.1,0,0,1,1.5-.8,3.8,3.8,0,0,1,1.5.1l1.5.8,1.4,1.2,1.2,1.3a10.9,10.9,0,0,1,.8,1.5,4,4,0,0,1,.3,1.5A2.3,2.3,0,0,1,375,246.9Zm-7.2-6.9a3.1,3.1,0,0,0-.5,1,3.4,3.4,0,0,0-.1,1,3,3,0,0,0,.4,1,3.1,3.1,0,0,0,.5,1l.7.8.6.6.7.6.8.6,1,.5a1.7,1.7,0,0,0,1,.3h1l.9-.6a2.7,2.7,0,0,0,.6-1,3.5,3.5,0,0,0-.3-2l-.6-1-.6-.8a1.7,1.7,0,0,1-.6-.6l-.7-.6-.8-.6-1-.5a1.9,1.9,0,0,0-1-.3h-1A2.1,2.1,0,0,0,367.8,240Z"/><path class="cls-1" d="M380.9,240l-7.4-6v2.5h-.3v-2.7l.2-.2,7.7,6.2Z"/><path class="cls-1" d="M379.6,225.6l5.6,8.7-.2.3-5.6-8.9-2.9,4.3-.2-.2,3-4.4Z"/></g><g id="Layer_4" data-name="Layer 4"><path class="cls-1" d="M662.3,936.5a19.7,19.7,0,0,0-2.4,3,36.2,36.2,0,0,0-2,4.4,28.2,28.2,0,0,0-1.5,10.4,11,11,0,0,0-.4-1.5l-.5-1.6c-.1-.5-.3-1.2-.4-1.8s-.7-2.5-.9-3.4-.3-1.6-.3-1.6l-.3-1.3a2.2,2.2,0,0,1,.9-1,22.7,22.7,0,0,0,3.3-2.3l2.1-2,1.1-1.2a13.4,13.4,0,0,1,1.1-1.4,5.4,5.4,0,0,0,.7-1.3l-1,.2a3.8,3.8,0,0,1-.9,1.5l-1.2,1.3a12.7,12.7,0,0,1-1,1.2l-1.9,1.7a4,4,0,0,1-2.7,1.1c-.5-.2-.2-2.8,1.3-5.4h-.8a14.8,14.8,0,0,0-1,2.7,10.6,10.6,0,0,0-.5,2.3l-.4-2.2-.4-2.3-1,.2a12.1,12.1,0,0,1,.3,1.4c0,.4.1.7.1,1a1,1,0,0,1,.1.4l-1.2-2.6H650a32.6,32.6,0,0,1,2.4,5.8l.2.7-.6-.8-.7-1.1-1.8-2.5a15.4,15.4,0,0,0-.2-1.9h-.7a1.7,1.7,0,0,1,.1.7l-.5-.6-.9.2,2,2.7a11,11,0,0,0-4.7-1l-1.3-.9-1.6.3a39.2,39.2,0,0,0,3.2,2.5l3.3,2,2.9,1.8,2.1,1.4a14.7,14.7,0,0,1,.4,1.6l.8,3.3.3.9c.1.3.1.6.2.9s.3,1.1.5,1.6l.3,1.1a1,1,0,0,1,.1.4l-.3-.7c-.5-.9-1.1-2-1.9-3.2a27,27,0,0,0-3.8-4.1,11.4,11.4,0,0,0-4.6-2.4,4.8,4.8,0,0,0-3,.1c-.8,0-1-.5-2-1.7s-2.3-.2-1.9.5.8.5,1.6.9a3.7,3.7,0,0,1,1.8,1.9v.2a13,13,0,0,0,5.5,7.1,13.5,13.5,0,0,0,4.4,2,24.5,24.5,0,0,1,3.2.9,5.7,5.7,0,0,1,1.8,1.2l.5,1.5.6,1.5.6,1.7c.4,1.2.9,2.4,1.2,3.2l.5,1.1a1,1,0,0,1,.1.4c-2.4-4-4.9-6.4-7.3-7.7s-4.5-1.3-5.8-.4a5.3,5.3,0,0,0-2,5.4,8.4,8.4,0,0,0,.5,1.7,8.6,8.6,0,0,0,1,1.6L648,970a11.8,11.8,0,0,0,1.9,1.1l2,.9,2,.5,3.8.9a18.9,18.9,0,0,1,3.4.9,9,9,0,0,1,3,1.7l.8,1.7.6,1.1.6,1.2,1.5,2.7c.5.9,1,1.9,1.6,2.8l1.6,2.7,1.4,2.2c.9,1.3,1.5,2.3,1.6,2.5s2.5-1.2,2-1.7l-.9-1-.7-.8-.8-1.1-1.9-2.5-1-1.4a13,13,0,0,1-1-1.5l-1.1-1.5-.9-1.6a33.1,33.1,0,0,1-1.8-2.9l-1.4-2.5-.8-1.7h-.1l-.3-.7a6,6,0,0,1,.1-2.3c.3-.9.8-1.8,1.3-2.9a9.6,9.6,0,0,0,.7-1.8c.3-.7.5-1.5.8-2.3.8-3.4.5-6.2-.1-7.5s.3-1.8.8-2.8a10.6,10.6,0,0,0,1.1-2.1c-.1-.6-2.1.5-2.2,1.2a6.6,6.6,0,0,1-.9,3,4.6,4.6,0,0,0-2.3,1.3,7.1,7.1,0,0,0-1.8,3.9,16.6,16.6,0,0,0-.3,2.2,12.7,12.7,0,0,0,.1,2,28.1,28.1,0,0,0,.6,3.5,1,1,0,0,0-.1-.4l-.3-.8a5,5,0,0,1-.5-1.3l-.3-.7-.3-.7c-.4-1-.7-2-1-2.7l-.4-1.2c-.1-2.1.7-2.8,2.7-5.2s2.7-3.1,4-4.8,2.5-3.4,3.8-5.5a22.5,22.5,0,0,0,1.6-3c.1-.5.3-1,.4-1.4a6.8,6.8,0,0,0,.2-1.4,5.1,5.1,0,0,0-.4-2.2,4,4,0,0,0-1.5-1.7C667.4,933.3,664.5,934.4,662.3,936.5ZM645,939.2a16.7,16.7,0,0,1,5.6,2.4l1.4,2.3a6.1,6.1,0,0,0-1.6-1.2l-1.7-1.2Zm10.1,16.9a4.7,4.7,0,0,1-2.6-.4l-2.4-.8a20.9,20.9,0,0,1-3-1.5,11.2,11.2,0,0,1-2-1.7,7.3,7.3,0,0,1-1.4-1.8,5.1,5.1,0,0,1-.8-1.7,2.1,2.1,0,0,1-.2-1.3c0-.7.9-1,2.2-.7l2.3.9a14.8,14.8,0,0,1,2.7,1.9,14.3,14.3,0,0,1,2.5,2.4l1,1.2.7,1.1a5.6,5.6,0,0,1,.9,1.7C655.2,955.9,655.2,956.1,655.1,956.1Zm-.2,6.5a25.6,25.6,0,0,1,3.9,4.4,2.7,2.7,0,0,0,.2,1.4,8.9,8.9,0,0,0,.8,1.7l-1.6-1.2a24.1,24.1,0,0,1-2-3.1A21.5,21.5,0,0,1,654.9,962.6Zm-4.1-2.4a6.8,6.8,0,0,1,2.5,1.1l1.5,1.2a12,12,0,0,0,.7,2.7,10.6,10.6,0,0,0,1.2,2.6l-3-2.1a6.2,6.2,0,0,1-.9-1.2l-.5-.7-.4-.7A9.5,9.5,0,0,1,650.8,960.2Zm-4.3,1.7a3.7,3.7,0,0,1,4.2-1.7,11.1,11.1,0,0,0,.5,2.5l.5,1.2a7.3,7.3,0,0,0,.5.9l-3.1-1.7a11.2,11.2,0,0,0-2.6-1.1Zm0,.2a17.9,17.9,0,0,1,2.4,1.2,5.7,5.7,0,0,1,1.3.8l1.4.8a9.4,9.4,0,0,0-5.3.9A4,4,0,0,1,646.5,962.1Zm-.2,3.7a9.2,9.2,0,0,1,7.5.8l1.7,1.2a20.8,20.8,0,0,0-6.4,1.3l-1.7-1.5A8.7,8.7,0,0,1,646.3,965.8Zm7.5,5.4a14.6,14.6,0,0,1-4.6-2c3.1-.8,6-.9,7.8-.2l2.5,2.1a7.9,7.9,0,0,0-4,.4Zm2,.4a8.3,8.3,0,0,1,2.7-.1h1l1,.3,1.6,1.6a11.8,11.8,0,0,0-2.8-1.2Zm5.1-.4-1.1-1.9a11.9,11.9,0,0,1-.8-2l1.6,2.3.7,1.3c.3.4.5.9.8,1.4Zm.2-10.9a7.8,7.8,0,0,1,2-4.3c.8-.7,1.6-.9,2-.5a3.5,3.5,0,0,1,.6,2.4,14.1,14.1,0,0,1-.1,2c-.1.8-.3,1.5-.4,2.4a23,23,0,0,1-.8,2.7,6,6,0,0,1-.8,2l-1.3,1.8c-.2.3-.7-.8-1.1-2.4a21.9,21.9,0,0,1-.3-2.8A12.2,12.2,0,0,1,661.1,960.3Zm7.3-24.7h.2a27.7,27.7,0,0,0-4.4,4.9,16.3,16.3,0,0,0-.1-4.5,5,5,0,0,1,2.3-1A3.5,3.5,0,0,1,668.4,935.6Zm-4.4.6c0,.7-.1,1.7-.2,2.7a20.9,20.9,0,0,1-.4,2.8,15.9,15.9,0,0,0-1.3,2.2,4.9,4.9,0,0,0-.1-1.2c0-.5-.1-.9-.1-1.4l-.3-1.5a3.7,3.7,0,0,0-.2-1.2A11.1,11.1,0,0,1,664,936.2Zm-5.2,7.1a16.3,16.3,0,0,1,1.1-2.3,6,6,0,0,1,.6-1.1l.7-1h.1c0,.7.1,1.8.1,3a17.1,17.1,0,0,1,0,3.2,11.9,11.9,0,0,0-.8,1.6l-.8,1.5c0-.4-.1-.8-.1-1.2l-.3-1.4C659.2,944.7,658.9,943.9,658.8,943.3Zm-1.5,12.2a24.6,24.6,0,0,1-.2-2.8,7.1,7.1,0,0,1,.1-1.4,8.6,8.6,0,0,1,.1-1.6,26.5,26.5,0,0,1,1.4-6.2c.1,1.1.3,2.2.3,3.2s.2,2,.2,2.8a25.6,25.6,0,0,0-1.2,3.2,8.3,8.3,0,0,0-.4,1.5A6.1,6.1,0,0,0,657.3,955.5Zm4.2-3.8a23.5,23.5,0,0,0-3.4,4.3,10.5,10.5,0,0,1,.6-2.4,15.3,15.3,0,0,1,2.8-3.3,25.1,25.1,0,0,1,3.5-2.8l-1.6,2Zm5.9-7.5a25.7,25.7,0,0,1-2.2,3.2,15.6,15.6,0,0,0-5.8,3.8l.5-1.2a6.1,6.1,0,0,1,.5-1.2,27.2,27.2,0,0,1,1.1-2.5,29.4,29.4,0,0,1,6.4-3.1A4.7,4.7,0,0,1,667.4,944.2Zm.6-1.2a17.9,17.9,0,0,0-5.8,1.9l1.6-2.7a19.4,19.4,0,0,1,5.4-2.5A12.1,12.1,0,0,1,668,943Zm1.3-3.5a12.3,12.3,0,0,0-4.7,1.4q1-1.6,2.1-3l1.9-2.2a3.6,3.6,0,0,1,.8,1.5A6,6,0,0,1,669.3,939.5Z"/><path class="cls-1" d="M657.8,932.3c1.2-1.2,2.9-2.2,4-1.4a1.7,1.7,0,0,1,.6,1.4,2.9,2.9,0,0,1-.2.9,3.6,3.6,0,0,1-.4.9l1-.2a5.3,5.3,0,0,0,.6-2.4,2.9,2.9,0,0,0-.5-1.7c.8-1.5,2.8-2.3,3.5-3.5s-1.8-.6-2.4.1a7.7,7.7,0,0,1-1.8,2.8c-1.1-.3-2.9.5-4.3,1.8a12.9,12.9,0,0,0-1.9,2.1l-1.4,2.5h.8A12.2,12.2,0,0,1,657.8,932.3Z"/><path class="cls-1" d="M640.8,935.7l-.7-.7a14.9,14.9,0,0,1,6.8,1.7,1,1,0,0,1,.4.5l.9-.2-1.4-1.9c-.2-.9-.5-2.2-.9-3.4s-.4-1.3-.6-1.8-.5-1.2-.7-1.7l.7.9,1.4,1.9,1.2,1.9c.2.6.3,1.2.5,1.9s.1,1.4.2,2.1h.7a24.5,24.5,0,0,0-.8-2.9c.6.9,1,1.8,1.5,2.7h.6a20,20,0,0,0-1-2.1,16.2,16.2,0,0,0-1-1.8c-.7-1.2-1.4-2.4-2.1-3.4s-1.5-1.9-2.2-2.8l-2.1-2.2-2-1.6-1.8-1.1c-1.1-.4-2-.5-2.5-.1a3.8,3.8,0,0,0-1.3,1.8,5.7,5.7,0,0,0-.2,2.7,13,13,0,0,0,1.1,3.6,24,24,0,0,0,2.3,4.5,18.1,18.1,0,0,0,1.8,2.3,13.4,13.4,0,0,0,2.1,2l1.6-.3A13.7,13.7,0,0,1,640.8,935.7Zm3.3-8,.6,1.6c.1.5.3,1.1.4,1.7a24.2,24.2,0,0,1,.6,2.8l-1.8-2.2-1.8-2.2a18.2,18.2,0,0,0-1.1-3,20.9,20.9,0,0,0-1.3-2.6A26.7,26.7,0,0,1,644.1,927.7Zm-4.7-4a17.3,17.3,0,0,1,1,2.4,14.3,14.3,0,0,1,.6,2.1l-2.5-2.7a23.2,23.2,0,0,0-2.5-2.1C636.8,922.5,638,922.9,639.4,923.7Zm-3.4-.3,2.4,2.5,1.3,1.5L641,929a27.9,27.9,0,0,0-4.8-.8,8.9,8.9,0,0,1-.6-3A2,2,0,0,1,636,923.4Zm.3,4.9,3.1,1a15.7,15.7,0,0,1,2.9,1.3l1.7,2.2,1.7,2.2c-1.3-.6-4.4-.5-5.7-.2A20.4,20.4,0,0,1,636.3,928.3Z"/><path class="cls-1" d="M652.2,935.8a11.8,11.8,0,0,1,1.9-2.9,20.9,20.9,0,0,1,1.4-1.7l1.6-1.9,1.6-1.9c.6-.6,1.1-1.3,1.6-1.9a24.7,24.7,0,0,0,2.5-3.8l.9-1.8.7-1.6a10.5,10.5,0,0,0,.6-2.6,2.7,2.7,0,0,0-.3-1.8,2.3,2.3,0,0,0-1.2-1.2,3.8,3.8,0,0,0-2.6.4,8.7,8.7,0,0,0-1.8,1.1l-1,.8-1,1a27.1,27.1,0,0,0-1.9,2.5,25.5,25.5,0,0,0-1.7,3.3,26.5,26.5,0,0,0-2,8.7c-.4-3.4-.6-6.4-.7-7.7a79.6,79.6,0,0,1,3-11c1.2-3.8,2.4-7.3,2.5-10.3a21.6,21.6,0,0,0,0-3.6,22.1,22.1,0,0,0-.7-3c-.6-1.6-1.6-2.8-2.8-3s-2.8.3-4.2,1.9a13.9,13.9,0,0,0-2.9,8.1,31.7,31.7,0,0,0,1.3,11.4c1,3.4,2.2,6.4,3,9.6a42.2,42.2,0,0,0,.3,4.3,2.3,2.3,0,0,1-.3-1.3c-.8-5.1-1.6-8.7-3.7-11a4.2,4.2,0,0,0-2.7-1.4h-.5c-.6-.1-.9-.7-1.1-1.3a13.5,13.5,0,0,1-.3-1.8c-.1-.7-1.8.9-1.5,1.2s1.6,2.3,1.6,3a7.1,7.1,0,0,0,0,3.6,10.4,10.4,0,0,0,.6,2.2,14.9,14.9,0,0,0,1.4,2.4,17.1,17.1,0,0,0,4.8,4.4l1.7,1.2c.2,1.2.3,2.5.5,3.8s.1,1.4.2,2.1l.3,2,1-.2C652.3,936,652.2,935.9,652.2,935.8Zm.5-2.6c.1-.4.1-.8.2-1.3a5.7,5.7,0,0,0,.4-1.4l1.9-.7a20.9,20.9,0,0,0-1.4,1.7A16.3,16.3,0,0,0,652.7,933.2Zm2.7-3.7a5.7,5.7,0,0,0-1.8.3l.6-1.7c.2-.5.5-1.1.7-1.7a9.8,9.8,0,0,1,4.5-1.4C658.2,926.5,656.7,928,655.4,929.5Zm5.1-5.9a11.3,11.3,0,0,1-1,1.3,6.8,6.8,0,0,0-4,.3l1-1.9A27,27,0,0,1,662,921,13.5,13.5,0,0,1,660.5,923.6Zm1.6-2.7a16.8,16.8,0,0,0-5.1,1.5l2-3a15.2,15.2,0,0,1,2.3-1.6,12.8,12.8,0,0,1,2.5-1.1A19.5,19.5,0,0,1,662.1,920.9Zm1.7-4.3a12.7,12.7,0,0,0-3.8,1.5,19.6,19.6,0,0,1,1.8-2.1l.9-1,.9-.8a1.7,1.7,0,0,1,.3,1A3.4,3.4,0,0,1,663.8,916.6Zm-.3-2.5a.1.1,0,0,0,.1.1,26.5,26.5,0,0,0-6.5,7.1,28.6,28.6,0,0,0,.7-2.8,11.2,11.2,0,0,0,.3-2.2l1.5-1.2,1.4-.9A2.8,2.8,0,0,1,663.5,914.1Zm-8,5.3a20.9,20.9,0,0,1,2.5-3,12.1,12.1,0,0,1-.5,1.8l-.6,1.9c-.5,1.3-.9,2.6-1.2,3.5a10.9,10.9,0,0,0-.8,1.5c-.2.5-.5,1-.7,1.4v-2.2a16.2,16.2,0,0,1-.1-2.1A24.4,24.4,0,0,1,655.5,919.4Zm-1.5,3c-.1.5-.1,1.1-.2,1.7a2.2,2.2,0,0,1-.1.8v.9c-.1,1.1-.3,2.1-.4,2.8s-.6,1.5-.8,2.2l-.3,1a2.9,2.9,0,0,0-.2.9A22,22,0,0,1,654,922.4Zm-4.8,4.1a5.5,5.5,0,0,1-2.8-1.8l-1.7-1.9a10.5,10.5,0,0,1-1.3-2.3,3.9,3.9,0,0,1-.5-1.3,8.3,8.3,0,0,1-.4-1.5,2.4,2.4,0,0,1,.5-2.4c.8-.7,1.6-.4,2.4.2a8,8,0,0,1,1.9,2.3,7.3,7.3,0,0,1,.5,1.2c.1.4.3.8.4,1.3s.6,1.9.8,2.8a12.9,12.9,0,0,1,.3,2.4C649.4,926.1,649.4,926.5,649.2,926.5Zm3.4-33a3.2,3.2,0,0,1,1.9,2.3,7.5,7.5,0,0,0-2.7,2.9C652.1,896.8,652.3,895,652.6,893.5Zm-1,6.7a7.7,7.7,0,0,1,3-4.3,14.7,14.7,0,0,1,.4,3.2,12.5,12.5,0,0,0-3.8,4.4,229.4,229.4,0,0,1,.4-3.3Zm-.5,4.4a11.7,11.7,0,0,1,1.9-3.1,21.2,21.2,0,0,1,2-2.1,8.8,8.8,0,0,1,0,2.3,13.7,13.7,0,0,1-.2,1.9,8.7,8.7,0,0,0-2.2,1.8,12.8,12.8,0,0,0-1.7,2.6C651,906.9,651,905.8,651.1,904.6Zm-.3,4.8.3-.9a46.7,46.7,0,0,1,1.5-2.3,12.2,12.2,0,0,1,2.2-2.3l-.6,2.5c-.2.9-.5,1.7-.7,2.6a13.6,13.6,0,0,0-1.6,1.7l-.7,1.1-.6,1.1C650.6,911.8,650.7,910.6,650.8,909.4Zm-.2,5.3a12.7,12.7,0,0,1,2.7-5.1,91.4,91.4,0,0,0-2.6,9.9,16.9,16.9,0,0,1-.1-2.3Zm-.8,4.5c-.3-.9-.5-1.9-.8-2.8a24.6,24.6,0,0,1-.9-2.9,8.3,8.3,0,0,1-.4-1.5,8.3,8.3,0,0,1-.4-1.5c-.2-1.1-.4-2.2-.5-3.4a6.2,6.2,0,0,1,.9,1.2l.9,1.7a10.8,10.8,0,0,1,.8,1.9,8,8,0,0,1,.5,2.1c0,.5-.1,1-.1,1.4v3.8Zm.2-7.2a15.3,15.3,0,0,0-1.4-2.9,27,27,0,0,0-1.8-2.2,15.5,15.5,0,0,1-.1-2.2v-2.3a12.9,12.9,0,0,1,3.4,6.8C650.1,910.1,650,911.1,650,912Zm.3-4.6a9.6,9.6,0,0,0-1.4-2.9,12.2,12.2,0,0,0-2.1-2.3h0v-.9c.1-.3.1-.5.2-.8a4,4,0,0,1,.3-1.5,13.5,13.5,0,0,1,.8-2.4,17.4,17.4,0,0,1,1.1,1.8,12.2,12.2,0,0,1,.7,1.7,8.8,8.8,0,0,1,.5,1.5,9.3,9.3,0,0,1,.4,1.3l-.3,2.2C650.4,905.9,650.4,906.7,650.3,907.4Zm-2.1-10.9a6.6,6.6,0,0,1,2-2.5,3.4,3.4,0,0,1,2.1-.5l-.3,1.8a12.9,12.9,0,0,1-.4,1.9l-.6,4.4a29.3,29.3,0,0,0-1.2-2.8l-.8-1.3A4.4,4.4,0,0,0,648.2,896.5Z"/><path class="cls-1" d="M808.9,1030.6l7.1,4.1h0l-5.2-7.3v-.2l8.9.8h.1l-7.2-4,.2-.3,7.4,4.2-.3.4-8.9-.8,5.3,7.3-.3.4-7.4-4.2Z"/><path class="cls-1" d="M810.1,1034.2l-.9-.4h-1l-1,.4-.7.8a5.6,5.6,0,0,0-.4,1.2,2.3,2.3,0,0,0,.3,1.1h-.3a2.5,2.5,0,0,1-.2-1.2,2.2,2.2,0,0,1,.4-1.3,2.7,2.7,0,0,1,.7-.8,1.9,1.9,0,0,1,1-.5h1.1l1.1.4a2.4,2.4,0,0,1,.9.8,4.7,4.7,0,0,1,.6.9,3.4,3.4,0,0,1,.1,1,3,3,0,0,1-.4,1,2.2,2.2,0,0,1-.7.9l-1,.4h-.9a1.9,1.9,0,0,1-.9-.4h-.2Zm-2.1,4.1a1.6,1.6,0,0,0,.9.3,1.4,1.4,0,0,0,.9,0,2,2,0,0,0,.8-.4,1.3,1.3,0,0,0,.6-.7,2.3,2.3,0,0,0,.3-1.1,1.5,1.5,0,0,0-.2-.9,1.6,1.6,0,0,0-.4-.7,1.3,1.3,0,0,0-.6-.5Z"/><path class="cls-1" d="M808.1,1041.6c.1.2.1.5.2.7a1.7,1.7,0,0,1-.1.7,1.9,1.9,0,0,1-.2.7,2.3,2.3,0,0,1-.7.7l-.7.3h-.9l-.8-.4-2.8-1.6v-.3l2.9,1.7.6.3h.8l.7-.2a2.2,2.2,0,0,0,.6-.7,1.9,1.9,0,0,0,.2-.8,1.4,1.4,0,0,0-.1-.9,2.5,2.5,0,0,0-.5-.8,2.2,2.2,0,0,0-.9-.7l-2.4-1.4.2-.2,3.5,2,.3.2.4.2.3.2h.3v.2h-.3l-.4-.2-.3-.2-.3-.2h0Z"/><path class="cls-1" d="M799.8,1049.5h.1a1.8,1.8,0,0,1-.5-.7,2.2,2.2,0,0,1-.1-.8,1.7,1.7,0,0,1,.1-.7,2.4,2.4,0,0,1,.2-.8,3,3,0,0,1,.8-.8l1-.5h1l1.1.4,1,.7a4.7,4.7,0,0,1,.5,1,3.7,3.7,0,0,1,.1,1.1,4.2,4.2,0,0,1-.4,1,2,2,0,0,1-1.1,1.1,3.7,3.7,0,0,1-1.5.3H802l1.3.8v.2l-4.5-2.6-1-.7a2.3,2.3,0,0,1-.7-1,1.4,1.4,0,0,1-.2-1.1,2.1,2.1,0,0,1,.4-1.2,2.4,2.4,0,0,1,.9-1.1,2.2,2.2,0,0,1,1.2-.5v.2a2.4,2.4,0,0,0-1.1.6,1.8,1.8,0,0,0-.8.9,1.9,1.9,0,0,0-.4,1.2,3.6,3.6,0,0,0,.2,1,2.7,2.7,0,0,0,.7.8l.9.7Zm3.6-3.8a3.5,3.5,0,0,0-2-.3,1.8,1.8,0,0,0-.9.4l-.7.7a5.4,5.4,0,0,0-.3,1,3.1,3.1,0,0,0,.1,1,4.1,4.1,0,0,0,.5.9,2.7,2.7,0,0,0,.8.7l1,.3h1a1.9,1.9,0,0,0,.9-.4,1.9,1.9,0,0,0,.7-.8,3,3,0,0,0,.4-1,4.4,4.4,0,0,0-.2-1,1.4,1.4,0,0,0-.5-.8A2.7,2.7,0,0,0,803.4,1045.7Z"/><path class="cls-1" d="M801.3,1054.6a2.5,2.5,0,0,1-.2,1.2H801c0,.1,0,.1-.1.1h-.1a1.6,1.6,0,0,0,.3-.9,1.9,1.9,0,0,0-.2-.8l-.6-.8-.7-.5-2.5-1.4v-.3l3.6,2.1h.3l.3.2.4.2h.2v.3l-.3-.2-.3-.2-.4-.2h-.3A1.9,1.9,0,0,1,801.3,1054.6Z"/><path class="cls-1" d="M794.2,1057.9a2.5,2.5,0,0,1-.2-.7v-.7l.3-.7a2.2,2.2,0,0,1,.6-.7,1.3,1.3,0,0,1,.8-.3h.8l.8.3,2.9,1.7v.2l-2.9-1.6-.7-.3h-.7l-.7.2a1.7,1.7,0,0,0-.6.6,3.2,3.2,0,0,0-.3.9,2.2,2.2,0,0,0,.1.8,4.1,4.1,0,0,0,.5.9l.9.7,2.4,1.3v.3l-3.6-2.1h-.3l-.3-.2-.3-.2h-.3v-.3l.3.2.3.2a.5.5,0,0,1,.4.2h.3Z"/><path class="cls-1" d="M790.8,1062.2h.3l4.1,8.8,2.7-4.7h.2l-2.8,4.9H795l-4.1-8.8-2.8,5h-.2Z"/><path class="cls-1" d="M790.5,1071l.4.7a1.4,1.4,0,0,1,.2.7,2,2,0,0,1-.1.7,1.4,1.4,0,0,1-.2.6,1.9,1.9,0,0,1-.7.8l-.7.2a1.1,1.1,0,0,1-.8-.1,1.9,1.9,0,0,1-.8-.3l-2.9-1.7v-.2l2.9,1.7.6.2.8.2.7-.2.6-.7.3-.8a2.9,2.9,0,0,0-.2-.9,1.8,1.8,0,0,0-.5-.8,2.2,2.2,0,0,0-.9-.7l-2.4-1.4.2-.2,7.9,4.5-.2.2-4.3-2.5Z"/><path class="cls-1" d="M782.9,1078.6l-.6-.4-.5-.2v-.2h.3l.3.2h.3l.3.2h0a2.1,2.1,0,0,1-.5-1.2,2.8,2.8,0,0,1,.3-1.3,1,1,0,0,1,.4-.5l.5-.4h.7a1.1,1.1,0,0,1,.7.2,1.3,1.3,0,0,1,.6.7,1.4,1.4,0,0,1,.1.9,3,3,0,0,1-.2,1,3.6,3.6,0,0,0-.4.9l-.5.8.4.2a1.9,1.9,0,0,0,1.4.3,2.8,2.8,0,0,0,1-.9,1.6,1.6,0,0,0,.3-.9v-.9h.2a1.7,1.7,0,0,1,0,1,3.2,3.2,0,0,1-.3.9,1.9,1.9,0,0,1-1.2,1,1.9,1.9,0,0,1-1.6-.2Zm1.7.6.4-.7a3.6,3.6,0,0,0,.4-.9,1.6,1.6,0,0,0,.3-.9,2.8,2.8,0,0,0-.1-.9,1.7,1.7,0,0,0-.6-.6l-.6-.2h-.5a1,1,0,0,0-.5.4l-.3.4a2.2,2.2,0,0,0-.3,1,2.8,2.8,0,0,0,.1.9l.6.6.6.5Z"/><path class="cls-1" d="M784.5,1082.8a2.5,2.5,0,0,1,.2.7v.7l-.3.7a2.2,2.2,0,0,1-.6.7,1.3,1.3,0,0,1-.8.3h-.8l-.8-.3-2.9-1.7v-.2l2.9,1.6.7.3h.7l.7-.2.6-.6a1.6,1.6,0,0,0,.3-.8,2.8,2.8,0,0,0-.1-.9,2.2,2.2,0,0,0-.5-.8l-.9-.8-2.4-1.3v-.3l3.6,2.1h.3l.3.2.3.2h.3v.3l-.3-.2-.3-.2h-.4l-.3-.2h0Z"/><path class="cls-1" d="M776.3,1090.7h0l-.4-.7a3.1,3.1,0,0,1-.2-.8,2.2,2.2,0,0,1,.1-.8,1.1,1.1,0,0,1,.3-.7,3.1,3.1,0,0,1,.7-.9l1-.4h1.1l1.1.4.9.8a3.1,3.1,0,0,1,.5,1,1.7,1.7,0,0,1,.1,1,2.3,2.3,0,0,1-.3,1.1,3.8,3.8,0,0,1-1.1,1.1,2.9,2.9,0,0,1-1.6.2h0l1.3.7-.2.2-4.5-2.6-1-.7-.7-.9a2.2,2.2,0,0,1-.2-1.1,2.4,2.4,0,0,1,.4-1.3,2.9,2.9,0,0,1,.9-1,3.4,3.4,0,0,1,1.2-.6v.3a3.3,3.3,0,0,0-1.2.5,3.9,3.9,0,0,0-.8,1,1.9,1.9,0,0,0-.4,1.1,3,3,0,0,0,.2,1l.7.9,1,.6Zm3.5-3.7-.9-.4h-1a1.9,1.9,0,0,0-.9.4,2.7,2.7,0,0,0-.7.8,3,3,0,0,0-.4,1,4.5,4.5,0,0,0,.6,1.9c.3.2.5.5.9.6l1,.4h1l.9-.4.7-.8a2.2,2.2,0,0,0,.3-1,3.1,3.1,0,0,0-.1-1l-.5-.9C780.4,1087.4,780.2,1087.1,779.8,1087Z"/><path class="cls-1" d="M772.4,1103.1a3.9,3.9,0,0,1-1.5-1.3,2.6,2.6,0,0,1-.7-1.5,5,5,0,0,1,.1-1.7,7.7,7.7,0,0,1,.7-1.7l1.2-2.1,7.4,4.2-1.2,2.1a6.1,6.1,0,0,1-1.2,1.5,4.2,4.2,0,0,1-1.4.9,2.9,2.9,0,0,1-1.6.2A3.2,3.2,0,0,1,772.4,1103.1Zm6.8-3.9-6.9-4-1.1,1.8a5.2,5.2,0,0,0-.6,1.6,3,3,0,0,0-.1,1.6,4.7,4.7,0,0,0,.6,1.5,5.8,5.8,0,0,0,1.4,1.2l1.7.6,1.6-.2a3.8,3.8,0,0,0,1.3-.9,7.6,7.6,0,0,0,1.1-1.4Z"/><path class="cls-1" d="M770.2,1103.9l-.9-.3h-1l-.9.4a3,3,0,0,0-.8.8,2.7,2.7,0,0,0-.3,1.2,1.5,1.5,0,0,0,.2,1.1h-.3a5,5,0,0,1-.2-1.2,3.3,3.3,0,0,1,.4-1.3,2.7,2.7,0,0,1,.7-.8,2.4,2.4,0,0,1,1-.5h1.1l1.2.4.9.8a4.1,4.1,0,0,1,.5.9,3.4,3.4,0,0,1,.1,1,3,3,0,0,1-.4,1,2.2,2.2,0,0,1-.7.9l-.9.4h-1l-.9-.4h-.2Zm-2.1,4.2a1.7,1.7,0,0,0,1,.3h.8l.8-.4a1.3,1.3,0,0,0,.6-.7,1.7,1.7,0,0,0,.4-1.1,2.9,2.9,0,0,0-.2-.9l-.5-.8-.6-.4Z"/><path class="cls-1" d="M764.1,1111.9l-.5-.5a1.4,1.4,0,0,1-.2-.6.6.6,0,0,1,0-.6,1.4,1.4,0,0,1,.2-.7,3,3,0,0,1,.8-.8,1.8,1.8,0,0,1,1-.4v.3a1.9,1.9,0,0,0-1.6,1c-.1.2-.1.4-.2.5v.6a.8.8,0,0,0,.2.5.8.8,0,0,0,.4.4l.7.2.5-.2.5-.4.4-.4.5-.4c.1-.2.3-.2.4-.3h.5l.6.2a1.2,1.2,0,0,1,.5.5.8.8,0,0,1,.2.5,1.3,1.3,0,0,1-.1.6,1.4,1.4,0,0,1-.2.6,2.3,2.3,0,0,1-1.5,1.1v-.3a.9.9,0,0,0,.7-.3c.3-.1.4-.3.6-.6l.2-.5c0-.1.1-.3,0-.5a.6.6,0,0,0-.1-.4.8.8,0,0,0-.4-.4.7.7,0,0,0-.6-.2h-.4c-.2,0-.3.2-.5.3l-.4.5-.5.4-.5.3a.7.7,0,0,1-.6.1Z"/><path class="cls-1" d="M762,1112.7l4.8,2.7-.2.3-4.8-2.8Zm6.5,3.9h.4l.2.2v.2h-.4c0-.1-.1-.1-.1-.2Z"/><path class="cls-1" d="M759.6,1119.9h0a3,3,0,0,1-.4-.8,1.9,1.9,0,0,1-.2-.7,2.2,2.2,0,0,1,.1-.8l.3-.7a2.2,2.2,0,0,1,.7-.9l1-.4h1.1l1.1.4a2.4,2.4,0,0,1,.9.8,2,2,0,0,1,.5.9,2.1,2.1,0,0,1,.1,1.1,2.3,2.3,0,0,1-.3,1.1,2.7,2.7,0,0,1-1.1,1,2.2,2.2,0,0,1-1.6.3h0l1.3.8v.2l-4.6-2.6-1-.7-.7-.9a4.3,4.3,0,0,1-.2-1.1,3.8,3.8,0,0,1,.4-1.3,4.5,4.5,0,0,1,.9-1,3.4,3.4,0,0,1,1.2-.6v.3a2.2,2.2,0,0,0-1.2.5l-.8.9a3.4,3.4,0,0,0-.4,1.2,1.7,1.7,0,0,0,.3,1,1.6,1.6,0,0,0,.6.8l1,.7Zm3.6-3.7-1-.4h-1l-.9.4a2.7,2.7,0,0,0-.7.8,1.7,1.7,0,0,0-.3,1,1.8,1.8,0,0,0,.1,1,1.4,1.4,0,0,0,.5.8,2.7,2.7,0,0,0,.8.7l1,.4h1a1.8,1.8,0,0,0,.9-.4l.7-.7a2.2,2.2,0,0,0,.3-1,3.1,3.1,0,0,0-.1-1,4.1,4.1,0,0,0-.5-.9C763.7,1116.6,763.5,1116.3,763.2,1116.2Z"/><path class="cls-1" d="M760.8,1124.4a6.4,6.4,0,0,1,.2.7,2,2,0,0,1-.1.7,1.4,1.4,0,0,1-.2.6,1.9,1.9,0,0,1-.7.8l-.7.2h-.9l-.7-.3-2.9-1.7v-.2l2.9,1.7.6.2.8.2.7-.2.6-.7a1.9,1.9,0,0,0,.2-.8,1.4,1.4,0,0,0-.1-.9,1.8,1.8,0,0,0-.5-.8,2.2,2.2,0,0,0-.9-.7l-2.4-1.4.2-.2,3.5,2,.3.2.4.2h.3l.3.2v.2h-.3a.5.5,0,0,0-.4-.2l-.3-.2-.3-.2h0A4.3,4.3,0,0,1,760.8,1124.4Z"/><path class="cls-1" d="M788.3,981.7a6,6,0,0,0,.7-6.7c-1.3-2.7-4.2-3.8-5.8-2.1a6.2,6.2,0,0,0-.5,7.4C784.2,982.9,787,983.1,788.3,981.7Z"/><path class="cls-1" d="M857.4,997a22.1,22.1,0,0,1-8,8.9c-11,7.5-23.3,3.6-35.4,2.5-10.2-1-25.2-.4-33.6,7.2h0l-1,.9a9.7,9.7,0,0,1-5.7,3c-3.2.2-3.4-3.7-1-9.5s6.3-11.8,8.4-16.2,1.6-9.3.1-10.9-1.5-.6-2.4.6c-3.7,5.2-10.3,17-12.8,24.3a12.1,12.1,0,0,0-.5,1.8c-3.5,5.5-9,10.4-17,10.9,3.8-2.3,7.5-7.1,10.5-13.7,3.7-8.2,5.9-17.1,1.1-22.2s-10.2-1.7-14.6,2.1a10.7,10.7,0,0,0-.6-4.5c-.5-1.2-1.4-1.4-2.4-.1a136,136,0,0,0-8.4,13.7c-10.1,11.6-30.5,7.8-43.8,6.2s-36.7-.9-47.1,11.9c-1.4,1.7,1.2,2.8,2.4,2.9a6.7,6.7,0,0,0,5.7-2.4c-1.1,1.3,0,0,.3-.3a14.9,14.9,0,0,1,2-1.5,29.4,29.4,0,0,1,9-4.1c14.8-4.1,29,1,43.8,1.2a60,60,0,0,0,22.3-4.1c-5.5,10.5-10.7,21.3-12.2,26.3s-1.4,8.9.1,11,1.3.7,1.7-.2c4.8-11.1,9.8-21.3,14.5-29.9a10.4,10.4,0,0,0,3.4,6.7c3.5,3.2,7.7,4.1,14.1,3.7a22.6,22.6,0,0,0,14.8-6.5c.7,3.5,3.2,5.7,7.6,5.7a15.8,15.8,0,0,0,9.7-3.9.9.9,0,0,0,.6-.4l.2-.3,1.5-1.4a27.4,27.4,0,0,1,9.8-4.9c12.9-3.7,25.2,1.4,38.1,1.1,10.9-.1,24.9-4.5,29.6-15.6C862.8,995.7,857.9,995.6,857.4,997Zm-119.2,20.5c-2.8-2.3-2.3-8.3.2-14.6l3.4-5.7,1.1-1.7,1-1.4c4.3-5.9,9.1-9.4,11.2-8.4s1.4,9.5-2.5,17.5C747.9,1012.8,741.4,1020.1,738.2,1017.5Z"/><polygon class="cls-1" points="803.4 1018.5 745.4 1119 687.4 1018.5 686.2 1018.5 745 1120.3 745.4 1121 804.6 1018.5 803.4 1018.5"/><polygon class="cls-1" points="671.5 991.5 671.8 991.5 671.5 991 671.5 991.5"/><polygon class="cls-1" points="671.5 925.5 671.5 926.5 856.6 926.5 819 991.5 820.2 991.5 857.9 926.3 858.3 925.5 671.5 925.5"/><path class="cls-4" d="M618,1226.6a97,97,0,0,1-194,0"/></g></svg>