<svg xmlns="http://www.w3.org/2000/svg" xmlns:xlink="http://www.w3.org/1999/xlink" width="56" height="56" viewBox="0 0 56 56">
  <defs>
    <clipPath id="clip-bleach_icon">
      <rect width="56" height="56"/>
    </clipPath>
  </defs>
  <g id="bleach_icon" clip-path="url(#clip-bleach_icon)">
    <g id="icon" transform="translate(2 2)">
      <path id="Path_112" data-name="Path 112" d="M33.941,34.556,55.08,13.531c1.009-1,1.346-2.231.785-2.844-.561-.558-1.85-.223-2.86.781L31.867,32.549,10.728,11.468c-1.009-1-2.243-1.338-2.86-.781s-.224,1.84.785,2.844L29.792,34.556,8.654,55.637c-1.009,1-1.346,2.231-.785,2.844s1.85.223,2.86-.781L31.867,36.676,53.005,57.7c1.009,1,2.243,1.338,2.86.781.561-.558.224-1.84-.785-2.844Z" transform="translate(-6.869 -6.861)"/>
      <path id="Path_113" data-name="Path 113" d="M30.686,77,28.1,80.209H51.684L49.1,77Z" transform="translate(-14.892 -36.738)"/>
      <path id="Path_114" data-name="Path 114" d="M81.884,62.956h-6.1L79,66.165H83.36a2.286,2.286,0,0,0,2.054-.963,2.04,2.04,0,0,0,0-2.246L70.91,37.8,68.6,39.982Z" transform="translate(-35.751 -22.102)"/>
      <path id="Path_115" data-name="Path 115" d="M10.342,62.956,23.69,40.046,21.315,37.8,6.812,62.956a1.935,1.935,0,0,0,0,2.182,2.337,2.337,0,0,0,2.054,1.027h4.364l3.209-3.209Z" transform="translate(-6.475 -22.102)"/>
      <path id="Path_116" data-name="Path 116" d="M44.666,8.87l8.856,15.274L55.9,21.769,46.72,5.982a2.458,2.458,0,0,0-4.107,0L33.5,21.769l2.374,2.374Z" transform="translate(-19.673 -4.875)"/>
    </g>
  </g>
</svg>
