<svg id="Layer_1" data-name="Layer 1" xmlns="http://www.w3.org/2000/svg" viewBox="0 0 300 300"><defs><style>.cls-1{fill:#fcc332;}.cls-2{fill:#e8a615;}.cls-3{fill:#ffc902;}.cls-4{fill:#7762ef;}.cls-5{fill:#9797ef;}</style></defs><title>9631B</title><path d="M155.3,168.6h-2.6l-3.5.4a6.3,6.3,0,0,0-5.3,6.3v2.3a5.8,5.8,0,0,0,4.8,5.8,25.7,25.7,0,0,0,4,.5h2.6c5,0,10.2-.4,12.8-2.3V170.9C165.5,169,160.3,168.5,155.3,168.6Z"/><path class="cls-1" d="M170,176.3c0,3.1-.9,5.5-2.1,5.5s-2.1-2.4-2.1-5.5,1-5.4,2.1-5.4S170,173.3,170,176.3Z"/><path class="cls-2" d="M169.4,176.4c0,1.9-.6,3.5-1.3,3.5s-1.2-1.6-1.2-3.5.5-3.5,1.2-3.5S169.4,174.5,169.4,176.4Z"/><path class="cls-3" d="M25.2,122.6,49.8,138H67.1s-24.7-12.4-33.8-15.4A16.1,16.1,0,0,0,25.2,122.6Z"/><polygon class="cls-3" points="164 145.3 135.3 113.8 127.7 100 133 100 145.1 112.1 221.5 145.3 164 145.3"/><polygon points="43 132.9 26.5 88.9 35.1 88.9 62.5 120.8 84.1 134.4 43 132.9"/><path class="cls-3" d="M289.4,146.1c-7.3-6.1-15.5-12.3-35.8-12.3l-147.2.2c-29.8,0-63.9-1.7-75.4-1.8-.1,1.7-.2,2.6-.2,3.5,11,1.5,25.6,3.1,42.3,4,37.1,1.8,165.5.3,175.5.6s25.5,8.8,29.5,16.1a30.4,30.4,0,0,1,2.8,7.4h3.9C302.1,163.8,296.8,152.3,289.4,146.1Z"/><path class="cls-2" d="M248.6,140.3c-10-.3-138.4,1.2-175.5-.6-16.7-.9-31.3-2.5-42.3-4v3.8c10.2,7,45,24.6,65.7,24.6,68.9,0,130.3-.3,184.4-.3a30.4,30.4,0,0,0-2.8-7.4C274.1,149.1,258.6,140.5,248.6,140.3Z"/><path class="cls-4" d="M276.1,162.8c-18,.5-165.6,1.6-190.5-.7A69.5,69.5,0,0,1,75.1,160c-17.7-6.2-44.3-22.4-44.3-22.4v1.9s24.1,16.7,44.7,23.9c3.6,1.2,6.7,1.5,12.3,1.9,29.2,2.3,101.9,1.9,116.9,1.9h72.2c8.4,0,15.1-2.6,17.7-5.3a5.4,5.4,0,0,0,1.7-3.7S294.1,162.3,276.1,162.8Z"/><path d="M259.9,143l.2,4.1a71.2,71.2,0,0,0,10.7.8l-1.7-5.3C266.6,142.9,263.4,142.9,259.9,143Z"/><path d="M289.4,146.1s-2.7-2.4-3.6-3l-4.3-2.8s-2.1,1.3-10.5,2.2l2.6,5.5A106.6,106.6,0,0,0,289.4,146.1Z"/><path class="cls-3" d="M146.5,153.9a31.7,31.7,0,0,0-12.5,2.5l-3.4,1.4L71.2,183.1,60.8,170.7l-6.5,1L69.1,192H81.6s84.1-22.1,111.4-31.6c1.7-.5,6.7-2.7,6.7-2.7a1.9,1.9,0,0,0-.6-3.8H146.5Z"/><path class="cls-3" d="M3.6,150.7l40.3-7.8a21.9,21.9,0,0,1,3.6-.3H60.2a2.9,2.9,0,0,1,2.8,2.3h0a2.9,2.9,0,0,1-2.5,3.4s-34.5,4.6-46.1,4.6C7.5,152.9,3.6,150.7,3.6,150.7Z"/><rect x="228.5" y="142.3" width="3.2" height="4.56"/><rect x="235.9" y="139.5" width="5.7" height="10.16" rx="0.9"/><rect x="222.4" y="142.3" width="3.2" height="4.56"/><rect x="216.4" y="142.3" width="3.2" height="4.56"/><rect x="210.3" y="142.3" width="3.2" height="4.56"/><rect x="204.2" y="142.3" width="3.2" height="4.56"/><rect x="198.2" y="142.3" width="3.2" height="4.56"/><rect x="192.1" y="142.3" width="3.2" height="4.56"/><rect x="173.5" y="142.3" width="3.2" height="4.56"/><rect x="167.5" y="142.3" width="3.2" height="4.56"/><rect x="161.4" y="142.3" width="3.2" height="4.56"/><rect x="155.3" y="142.3" width="3.2" height="4.56"/><rect x="149.3" y="142.3" width="3.2" height="4.56"/><rect x="143.2" y="142.3" width="3.2" height="4.56"/><rect x="137.1" y="142.3" width="3.2" height="4.56"/><rect x="130.4" y="142.3" width="3.2" height="4.56"/><rect x="124.3" y="142.3" width="3.2" height="4.56"/><rect x="118.3" y="142.3" width="3.2" height="4.56"/><rect x="112.2" y="142.3" width="3.2" height="4.56"/><rect x="106.1" y="142.3" width="3.2" height="4.56"/><rect x="100.1" y="142.3" width="3.2" height="4.56"/><rect x="94" y="142.3" width="3.2" height="4.56"/><rect x="85" y="139.5" width="5.7" height="10.16" rx="0.9"/><polygon points="127.7 100 135.3 113.8 145.1 112.1 133 100 127.7 100"/><polygon points="54.3 171.7 60.8 170.7 81.6 192 69.1 192 54.3 171.7"/><path class="cls-5" d="M280.6,110.9H267.8a5.4,5.4,0,0,0,.4-2.2,6.3,6.3,0,0,0-6.3-6.3h-4.4a10.7,10.7,0,0,0-10.2-7.7H237.1a10.7,10.7,0,0,0-10.3,7.8h-6.6a6.3,6.3,0,0,0-6.3,6.3,7.8,7.8,0,0,0,.4,2.2H202.7a4.1,4.1,0,1,0,0,8.2h77.9a4.1,4.1,0,0,0,0-8.2Z"/><path class="cls-5" d="M87.3,213.4H74.6a7.1,7.1,0,0,0,.4-2.1,6.3,6.3,0,0,0-6.3-6.3H64.3A10.7,10.7,0,0,0,54,197.3H43.9a10.7,10.7,0,0,0-10.3,7.8H27a6.3,6.3,0,0,0-6.3,6.3,4.9,4.9,0,0,0,.4,2.1H9.4a4.2,4.2,0,0,0,0,8.3H87.3a4.2,4.2,0,1,0,0-8.3Z"/><path class="cls-4" d="M217.4,84.4h-5.8a7.1,7.1,0,0,0-7-6.2h-6.7a7,7,0,0,0-6.7,5.1h-4.4a4.1,4.1,0,0,0-4.1,4.1,5.9,5.9,0,0,0,.2,1.4h-7.6a2.8,2.8,0,0,0-2.7,2.8,2.7,2.7,0,0,0,2.7,2.7h42.1a5.1,5.1,0,0,0,5-5A5,5,0,0,0,217.4,84.4Z"/><path class="cls-5" d="M202.2,201.6h-5.8a7,7,0,0,0-6.9-6.2h-6.7a7.2,7.2,0,0,0-6.8,5.1h-4.3a4.1,4.1,0,0,0-4.2,4.1,3.2,3.2,0,0,0,.3,1.4h-7.7a2.7,2.7,0,1,0,0,5.4h42.1a5,5,0,1,0,0-9.9Z"/><path class="cls-4" d="M140.7,206h-5.4a4.7,4.7,0,0,0,.4-1.6,4.2,4.2,0,0,0-4.2-4.2H127a6.8,6.8,0,0,0-6.3-4.2h-6.5a6.9,6.9,0,0,0-6.9,6.9h0a6,6,0,0,0,.7,3h-4.9a2.5,2.5,0,0,0-2.6,2.6v.4a2.5,2.5,0,0,0,2.6,2.6h37.6a2.6,2.6,0,0,0,2.6-2.6v-.4A2.6,2.6,0,0,0,140.7,206Z"/></svg>