<svg xmlns="http://www.w3.org/2000/svg" viewBox="0 0 750 750"><defs><style>.cls-1{isolation:isolate;}.cls-2{fill:#e1e1fe;}.cls-12,.cls-13,.cls-3{fill:#ffc902;}.cls-11,.cls-24,.cls-4,.cls-51{fill:#b0affd;}.cls-5{opacity:0.7;}.cls-6{fill:#9797ef;}.cls-7{fill:#8888e9;}.cls-8{fill:#3d38a0;}.cls-15,.cls-9{fill:#fff;}.cls-10{fill:#eaeaea;}.cls-11,.cls-13,.cls-14,.cls-15,.cls-23,.cls-24,.cls-30,.cls-44,.cls-49{opacity:0.5;}.cls-12,.cls-41,.cls-42,.cls-51,.cls-61{opacity:0.3;}.cls-13,.cls-23,.cls-24,.cls-44,.cls-49,.cls-61{mix-blend-mode:multiply;}.cls-15,.cls-30,.cls-39{mix-blend-mode:screen;}.cls-16{opacity:0.8;}.cls-17,.cls-61{fill:#827cdc;}.cls-18{fill:#cfcfff;}.cls-19{fill:#6969cc;}.cls-20{fill:#ffc064;}.cls-21{fill:#af835b;}.cls-22{fill:#ea8237;}.cls-25{fill:#e9a056;}.cls-26{fill:#d38c4c;}.cls-27{fill:#4444ad;}.cls-28{fill:#b9c9ef;}.cls-29{fill:#262691;}.cls-30{fill:#8eb9bf;}.cls-31{fill:#a4a4f7;}.cls-32{fill:#0a0a0a;}.cls-33{fill:#fefefe;}.cls-34,.cls-35,.cls-38,.cls-55,.cls-56,.cls-57,.cls-60{fill:none;}.cls-34,.cls-35{stroke:#fefefe;}.cls-34,.cls-35,.cls-38,.cls-55,.cls-56{stroke-miterlimit:10;}.cls-34,.cls-38{stroke-width:0.25px;}.cls-35{stroke-width:0.13px;}.cls-36{fill:#173a2c;}.cls-37{fill:#81172b;}.cls-38{stroke:#0a0a0a;}.cls-38,.cls-57,.cls-60{stroke-linecap:round;}.cls-39{opacity:0.2;}.cls-40{fill:#989898;}.cls-41,.cls-43,.cls-44{fill:#020202;}.cls-45{fill:#5858c4;}.cls-46{fill:#d8826a;}.cls-47{fill:#5146af;}.cls-48{fill:#ed9c80;}.cls-49{fill:#013651;}.cls-50{fill:#2c1e56;}.cls-52{fill:#ffbfae;}.cls-53{fill:#ff8a29;}.cls-54{fill:#f47211;}.cls-55,.cls-57{stroke:#ffc902;}.cls-56{stroke:#827cdc;stroke-width:0.47px;}.cls-57,.cls-60{stroke-linejoin:round;}.cls-57{stroke-width:1.09px;}.cls-58{opacity:0.9;}.cls-59{fill:#927ddb;}.cls-60{stroke:#3d38a0;stroke-width:1.36px;}</style></defs><title>process-storage</title><g class="cls-1"><g id="OBJECTS"><path class="cls-2" d="M716.4,577.2c0,5.1-122.1,9.2-272.6,9.2s-272.6-4.1-272.6-9.2,122-9.3,272.6-9.3S716.4,572,716.4,577.2Z"/><path class="cls-2" d="M496.6,650.5c0,3.7-106.4,6.7-237.7,6.7s-237.8-3-237.8-6.7,106.4-6.6,237.8-6.6S496.6,646.9,496.6,650.5Z"/><path class="cls-3" d="M573.4,519.8c0,.3.1.6,0,.8a5,5,0,0,0,.2-1.7,116.2,116.2,0,0,1,4.7-13.3l1.2-2.6c2.1-.8,7-1.3,8.4-1.7s6.2-1.9,8.4-3.7,3.2-3.3,2-4.7-6.1,1.6-7.2,2.3-4.9,3.8-7.6,5.2a22.8,22.8,0,0,0-3.8,2,109,109,0,0,1,6-11.2c2-.8,7.2-1.3,8.5-1.7s6.2-1.9,8.5-3.7,3.2-3.3,2-4.7-6.1,1.5-7.3,2.3-4.8,3.8-7.6,5.2a19,19,0,0,0-3.7,2,94.6,94.6,0,0,1,7.9-10.9c2-2.3,4.1-4.5,6.3-6.7,2.4.2,5.7.7,6.8.6,2.9-.1,6.5-.2,9.2-1.3,1.1-.5,3.9-2.4,3.1-4s-6.3-.1-7.6.3c-2.9,1-5.7,2.4-8.7,3l-1.6.3a90.7,90.7,0,0,1,9.6-7.8c1,.3,2.1.3,3.1.5a54.6,54.6,0,0,1,7.7,2c1.1.2,5.9,1.3,6.5-.3s-2.1-2.8-3-3.1-5.5-.7-7.9-.6c-.9,0-3.4.6-5.4.9a50.4,50.4,0,0,1,4.9-3.1,71.8,71.8,0,0,1,8.3-4.2,23.2,23.2,0,0,0,3.8.6,54.6,54.6,0,0,1,7.7,2c1.1.2,5.9,1.3,6.5-.3s-2.1-2.8-3-3.1-5.5-.7-7.9-.6-4.3.8-6.3,1a75.6,75.6,0,0,1,11.6-4l3.4.4c2.6.2,5.1,1.2,7.7,1.8s5.9,1.3,6.5-.3-2.1-2.8-3.1-3.2-5.5-.5-7.9-.4l-1.5.3q-3.1.3-6.3.9h-.2a.1.1,0,0,1,.1.1,61,61,0,0,0-8.4,2.2c.8-.7,1.4-1.6,2.2-2.3s4.1-3.3,6.1-4.9,4.6-3.9,3.7-5.4-3.4-.1-4.3.5-3.7,4-5.1,6-2.3,4.8-3.5,6.3a71.2,71.2,0,0,0-7.6,3.1,34,34,0,0,0,2.3-3,48.6,48.6,0,0,1,5.3-5.8c.8-.9,3.9-4.6,2.8-5.9s-3.4.4-4.2,1.1-3.1,4.5-4.2,6.7-1.6,5.7-2.5,7.2a21,21,0,0,0-3,1.5,74.2,74.2,0,0,0-11.6,7.5,17,17,0,0,0,.4-2.2c.6-2.6,1.9-5,2.7-7.5s1.9-5.7.4-6.5-3,1.7-3.4,2.7-1.2,5.3-1.3,7.8.4,4.2.4,6.3a85.3,85.3,0,0,0-9.8,9.2c.3-.8.5-1.7.8-2.5a57.2,57.2,0,0,1,2.4-5.7,35,35,0,0,1,5.3-8.2,1.6,1.6,0,0,0-1.6-2.7h-.2c-2.6.8-3.9,3.6-5,6.1s-5,12.2-3.6,15.2a89.1,89.1,0,0,0-8.8,12.6c.6-2.4,1.7-4.7,2.5-7.2s1.9-5.7.4-6.5-3,1.7-3.4,2.7-1.1,5.3-1.3,7.8c0,.9.3,3.6.4,5.6a113,113,0,0,0-5.1,11.2c0-.5-.1-1-.1-1.5-.1-2.7.5-5.3.7-7.9s.4-6.1-1.2-6.4-2.5,2.4-2.7,3.4.3,5.5.7,7.9,1.5,4,2,6-2,6-2.8,9c-.1-2.3.2-4.7.2-7.1s-.1-6-1.8-6.3-2.3,2.7-2.4,3.7c-.2,2.5.7,5.4,1.4,7.8.2.8,1.2,2.8,2,4.6-1.4,5.8-7.1,11.1-7.4,17C566,529.4,572,524.8,573.4,519.8Z"/><path class="cls-3" d="M273.4,370.7a1.5,1.5,0,0,0,.2.8,10.9,10.9,0,0,1-.8-1.5,118.1,118.1,0,0,0-9.1-10.8l-2.1-2c-2.2,0-7,1.4-8.4,1.5s-6.4.4-9.2-.5c-1.1-.4-4.2-2-3.5-3.6s6.2-.8,7.5-.5c3,.7,6,1.8,9,2.1,1.4.2,2.9.2,4.2.5a110,110,0,0,0-9.6-8.3c-2.2,0-7.1,1.4-8.5,1.5s-6.5.5-9.3-.4c-1.1-.4-4.1-2-3.5-3.7s6.2-.7,7.6-.4c3,.6,5.9,1.8,8.9,2.1a19.3,19.3,0,0,1,4.2.5,102.4,102.4,0,0,0-11.2-7.3,90.3,90.3,0,0,0-8.3-4c-2.2,1-5.1,2.7-6.2,3-2.7.9-6.1,2.2-9,2-1.2,0-4.5-.8-4.4-2.5s5.9-2.4,7.2-2.5c3.1-.1,6.2.2,9.3-.3l1.6-.3a81.1,81.1,0,0,0-11.8-3.8,24.9,24.9,0,0,1-2.8,1.5c-2.3,1.3-4.2,3.1-6.4,4.6s-5,3.4-6.1,2.1.8-3.3,1.6-4,4.9-2.6,7.2-3.4,3.4-.6,5.4-1.1l-5.8-1.1a92.4,92.4,0,0,0-9.2-1,14.5,14.5,0,0,1-3.4,2c-2.3,1.2-4.2,3.1-6.4,4.6s-5,3.4-6.1,2.1.8-3.4,1.6-4,4.9-2.6,7.2-3.4,4.2-.8,6.3-1.3a73.1,73.1,0,0,0-12.4.4c-.9.6-2,1-3,1.6s-4.3,3-6.5,4.4-5.1,3.3-6.2,2,1-3.3,1.8-4,4.9-2.4,7.2-3.2l1.5-.3a42.9,42.9,0,0,1,6.2-1.4l.2-.2-.2.2a64.4,64.4,0,0,1,8.7-1,24.4,24.4,0,0,1-2.8-1.4c-2.4-1.1-5.1-1.5-7.6-2.3s-5.6-2-5.3-3.7,3.2-1.3,4.2-1.1,4.9,2.3,6.9,3.7,3.9,3.7,5.5,4.7a74.8,74.8,0,0,1,8.2.1,18.7,18.7,0,0,1-3.2-2c-2.2-1.4-4.7-2.3-7-3.5s-5.3-2.8-4.8-4.4,3.4-.9,4.4-.5,4.5,3.1,6.3,4.8,3.5,4.6,4.9,5.7l3.3.3a91.5,91.5,0,0,1,13.6,2.9c-.5-.6-.8-1.3-1.3-1.9-1.4-2.2-3.4-4-5.1-6s-3.8-4.7-2.7-5.9,3.4.5,4.2,1.2,2.9,4.6,4,6.9,1.1,4,1.8,6a89.7,89.7,0,0,1,12.4,5.1l-1.6-2.1a60.5,60.5,0,0,0-4.3-4.5,33.4,33.4,0,0,0-7.9-5.6,1.7,1.7,0,0,1,.6-3.2h.2c2.7-.2,4.9,1.9,6.8,3.8s9.1,9.6,8.8,12.9a84.9,84.9,0,0,1,12.8,8.7,54.7,54.7,0,0,0-5-5.8c-.7-.9-3.8-4.7-2.7-6s3.5.6,4.2,1.3,2.9,4.6,4,6.8,1,3.5,1.6,5.4a102.2,102.2,0,0,1,8.8,8.6l-.5-1.5c-.8-2.5-2.3-4.7-3.5-7.1s-2.5-5.4-1.1-6.4,3.2,1.4,3.7,2.3,1.7,5.2,2.2,7.6.1,4.2.3,6.3c2,2.4,4,4.9,5.8,7.4-.7-2.2-1.8-4.3-2.6-6.5s-2.1-5.7-.6-6.5,3,1.6,3.5,2.5,1.3,5.3,1.5,7.8c.1.8-.1,3.1-.2,5,3.3,4.9,10.6,7.8,13,13.2C283.7,377,276.5,374.9,273.4,370.7Z"/><path class="cls-3" d="M328.8,449.9c.2.3.3.5.5.6a4.9,4.9,0,0,1-1.3-1.2,113.7,113.7,0,0,0-11.8-7.7l-2.5-1.4c-2.1.7-6.3,3.4-7.6,3.8s-6.1,2.3-9,2.2c-1.2,0-4.6-.7-4.4-2.5s5.7-2.4,7.1-2.5c3.1-.3,6.2,0,9.2-.6,1.4-.2,2.8-.6,4.2-.7-3.8-1.9-7.7-3.7-11.6-5.2-2.1.6-6.4,3.4-7.8,3.8s-6,2.3-8.9,2.2c-1.2,0-4.6-.7-4.5-2.4s5.8-2.5,7.2-2.6c3-.3,6.1,0,9.2-.6,1.3-.2,2.7-.6,4.1-.7a117.1,117.1,0,0,0-12.8-3.8c-3-.6-6.1-1.1-9.1-1.4-1.9,1.6-4.2,4-5.1,4.6s-5.2,3.8-8,4.5c-1.2.3-4.6.5-5-1.2s4.9-4,6.3-4.4c2.9-1,5.9-1.6,8.7-3l1.5-.7a85.6,85.6,0,0,0-12.4-.3c-.7.8-1.5,1.5-2.2,2.2s-3.2,4.2-4.9,6.3-3.8,4.6-5.3,3.7-.1-3.4.5-4.3,3.9-3.8,5.9-5.3,3-1.5,4.8-2.5a56.7,56.7,0,0,0-5.8.5,91.2,91.2,0,0,0-9.1,1.7,17.9,17.9,0,0,1-2.7,2.8c-1.9,1.9-3.2,4.2-4.9,6.3s-3.8,4.6-5.2,3.7-.2-3.5.4-4.3,3.9-3.8,5.9-5.3,3.9-1.9,5.7-3a81.5,81.5,0,0,0-11.8,3.9,26.1,26.1,0,0,1-2.4,2.3c-1.9,1.9-3.3,4.2-5,6.2s-3.9,4.6-5.3,3.7-.1-3.5.5-4.4,4-3.7,6-5.1l1.4-.8,5.5-3.1c.1,0,.1-.1.2-.2v.2a80,80,0,0,1,8-3.4L242,430c-2.6-.4-5.3,0-7.9-.1s-6-.3-6.2-2,2.7-2.2,3.7-2.3c2.5-.1,5.4.9,7.7,1.6s4.8,2.5,6.6,3a77.6,77.6,0,0,1,7.9-2.2,24.7,24.7,0,0,1-3.6-1.1c-2.5-.7-5.2-.8-7.7-1.3s-5.9-1.2-5.8-2.9,2.9-1.8,4-1.7,5.2,1.7,7.3,2.8,4.8,3.4,6.4,4.1l3.3-.7a80.1,80.1,0,0,1,13.8-1l-1.7-1.5c-2-1.7-4.4-2.8-6.6-4.3s-5-3.4-4.3-5,3.4-.4,4.3.1,4.2,3.5,5.8,5.4,2.2,3.6,3.5,5.3a86.8,86.8,0,0,1,13.4,1.3l-2.2-1.5a47.4,47.4,0,0,0-5.4-3.1,37.2,37.2,0,0,0-9.2-3.2,1.7,1.7,0,0,1-.3-3.2h.2c2.5-.9,5.2.5,7.6,1.8s11.4,6.6,12.1,9.9a89.7,89.7,0,0,1,14.7,4.6c-2-1.6-4.3-2.7-6.4-4.1s-5-3.4-4.3-5,3.5-.4,4.4.1,4.1,3.5,5.7,5.4,2,3,3.1,4.7a102.3,102.3,0,0,1,10.9,5.7l-.9-1.2c-1.5-2.2-3.6-3.9-5.3-5.8s-4-4.6-2.9-5.9,3.4.4,4.2,1.1,3.1,4.5,4.2,6.7,1.3,4.1,2.1,6c2.6,1.7,5.2,3.5,7.7,5.4-1.3-1.9-3-3.6-4.4-5.5s-3.6-4.8-2.5-6.1,3.4.7,4.1,1.5,2.8,4.7,3.7,7,.8,3,1.3,4.9c4.5,3.7,12.3,4.5,16.2,8.9C340.5,452.9,333,453,328.8,449.9Z"/><path class="cls-4" d="M531.6,476.5c.1.1-.6-11.3,15.6-23s53-12.1,57.2-23.8-18.4-8.8-28.7-17.6-13.8-13.1-.2-16.3,21.9-4.5,21.4-15.8,22.3-6.7,33.3-15.5,4.6-19.8-17.4-18.5-22.5-1.6-16.4-5.1,24.8-9.9,16.5-15.6-20.3.1-14.1-7.5,21-13.5,13.4-21.4-26.7-6.5-36.7,15.1-13.2,27.6-23.5,30.2-20.2-7.9-32.5-2.9-9.5,17-1.8,24.6,21.1,23,13.6,30.3-16.5-2.8-27.4-4.3-25.4,9-13.5,25.1,30.8,28.1,32.5,65.6Q527.3,478.2,531.6,476.5Z"/><g class="cls-5"><path class="cls-6" d="M526.7,479.1a.8.8,0,0,0,.7-.5c24.7-131,74.5-180.4,75-180.8a.9.9,0,0,0,0-1,.7.7,0,0,0-.9,0c-.5.5-50.6,50.2-75.4,181.5a.7.7,0,0,0,.5.8Z"/></g><g class="cls-5"><path class="cls-6" d="M572.9,340.3h.4c16.1-11.2,35.2-11.6,35.4-11.6a.7.7,0,1,0-.1-1.3c-.1,0-19.6.4-36.1,11.8a.7.7,0,0,0-.1.9A.5.5,0,0,0,572.9,340.3Z"/></g><g class="cls-5"><path class="cls-6" d="M555.2,378.5l.4-.2a.6.6,0,0,0,.1-.9,259.4,259.4,0,0,0-36.1-33,.7.7,0,0,0-.9.2.6.6,0,0,0,.1.9,249.8,249.8,0,0,1,35.9,32.8Z"/></g><g class="cls-5"><path class="cls-6" d="M558.6,370h.3c30.1-11.8,63.6-12.1,64-12.1a.7.7,0,0,0,.6-.7.6.6,0,0,0-.6-.6c-.4,0-34.1.3-64.4,12.2a.6.6,0,0,0-.4.8A.7.7,0,0,0,558.6,370Z"/></g><g class="cls-5"><path class="cls-6" d="M535.9,437.8h.3c20.6-9.4,55.2-10.7,55.6-10.7a.7.7,0,0,0,.6-.7.6.6,0,0,0-.6-.6c-.4,0-35.3,1.3-56.1,10.9a.6.6,0,0,0-.3.8A.7.7,0,0,0,535.9,437.8Z"/></g><g class="cls-5"><path class="cls-6" d="M533.6,446.9h.3a.8.8,0,0,0,.4-.9c-9.5-25.6-34.3-45.8-34.5-46a.6.6,0,0,0-.9.1.6.6,0,0,0,.1.9c.2.2,24.7,20.1,34.1,45.5C533.1,446.7,533.4,446.9,533.6,446.9Z"/></g><path class="cls-4" d="M322.5,424.4c-.1.2.6-11.3-15.6-23s-53-12-57.2-23.7,18.4-8.9,28.7-17.6,13.8-13.1.2-16.4-21.9-4.4-21.4-15.8-22.3-6.7-33.3-15.5-4.6-19.8,17.4-18.4,22.5-1.6,16.4-5.2-24.8-9.9-16.6-15.5,20.4,0,14.2-7.6-21-13.5-13.4-21.3,26.7-6.5,36.7,15.1,13.2,27.5,23.5,30.2,20.2-7.9,32.5-3,9.5,17,1.8,24.7-21.1,22.9-13.6,30.2,16.5-2.8,27.4-4.3,25.4,9.1,13.5,25.2-30.8,28-32.5,65.6Z"/><g class="cls-5"><path class="cls-6" d="M327.4,427.1a.7.7,0,0,1-.7-.6c-24.7-130.9-74.5-180.3-75-180.8a.7.7,0,0,1,0-.9.6.6,0,0,1,.9,0c.5.5,50.6,50.1,75.4,181.5a.6.6,0,0,1-.5.7A.1.1,0,0,0,327.4,427.1Z"/></g><g class="cls-5"><path class="cls-6" d="M281.2,288.2h-.4c-16.1-11.1-35.2-11.5-35.4-11.5a.7.7,0,0,1-.6-.7.6.6,0,0,1,.6-.6c.2,0,19.7.4,36.2,11.8a.6.6,0,0,1,.1.8A.5.5,0,0,1,281.2,288.2Z"/></g><g class="cls-5"><path class="cls-6" d="M298.9,326.4h-.4a.6.6,0,0,1-.1-.9,259.4,259.4,0,0,1,36.1-33,.6.6,0,0,1,.8,1,249.8,249.8,0,0,0-35.9,32.8Z"/></g><g class="cls-5"><path class="cls-6" d="M295.5,318h-.3c-30.1-11.8-63.7-12.1-64-12.1a.6.6,0,0,1-.6-.6c0-.4.2-.7.6-.7s34.1.3,64.4,12.2a.6.6,0,0,1,.4.8A.8.8,0,0,1,295.5,318Z"/></g><g class="cls-5"><path class="cls-6" d="M318.2,385.7c-.1.1-.2,0-.3,0-20.6-9.5-55.3-10.8-55.6-10.8a.6.6,0,0,1-.6-.6.7.7,0,0,1,.6-.7c.4,0,35.3,1.3,56.1,10.9a.7.7,0,0,1,.3.9A.5.5,0,0,1,318.2,385.7Z"/></g><g class="cls-5"><path class="cls-6" d="M320.5,394.8h-.3a.7.7,0,0,1-.4-.8c9.5-25.7,34.3-45.9,34.5-46.1a.6.6,0,0,1,.9.1.6.6,0,0,1-.1.9c-.2.2-24.7,20.2-34.1,45.5A.5.5,0,0,1,320.5,394.8Z"/></g><path class="cls-7" d="M518.2,504.5s-1.1-46.6,35.6-50.9,23.4,48.7,7.7,66c0,0,20.4-23.9,33.9-7.8s-24.5,34.8-24.5,34.8,30.5-10.3,38.9-3.3c10.9,9-9.7,22.2-9.7,22.2s33-13.2,26,10.2l-156.8-.4Z"/><path class="cls-3" d="M532.3,172.9V545.3a30.9,30.9,0,0,1-30.9,30.9H348.7a30.9,30.9,0,0,1-31-30.9V172.9a30.9,30.9,0,0,1,31-30.9H501.4A30.9,30.9,0,0,1,532.3,172.9Z"/><path class="cls-3" d="M532.3,172.9V178H317.7v-5.1a30.9,30.9,0,0,1,31-30.9H501.4A30.9,30.9,0,0,1,532.3,172.9Z"/><path class="cls-3" d="M532.3,540.1v5.2a30.9,30.9,0,0,1-30.9,30.9H348.7a30.9,30.9,0,0,1-31-30.9v-5.2Z"/><path class="cls-8" d="M532.3,230.3h3.8a2,2,0,0,1,2,2v77.9a2,2,0,0,1-2,2h-3.8a0,0,0,0,1,0,0v-82A0,0,0,0,1,532.3,230.3Z"/><path class="cls-8" d="M314.2,228.9h3.5a0,0,0,0,1,0,0v39.9a0,0,0,0,1,0,0h-3.5a1.9,1.9,0,0,1-1.9-1.9V230.8A1.9,1.9,0,0,1,314.2,228.9Z"/><path class="cls-8" d="M314.6,287.7h3.1a0,0,0,0,1,0,0v24.5a0,0,0,0,1,0,0h-3.1a1.7,1.7,0,0,1-1.7-1.7V289.4A1.7,1.7,0,0,1,314.6,287.7Z"/><path class="cls-9" d="M394.3,160a6.2,6.2,0,1,1-6.2-6.1A6.1,6.1,0,0,1,394.3,160Z"/><path class="cls-9" d="M407.5,160a3,3,0,0,1-5.9,0,3,3,0,1,1,5.9,0Z"/><rect class="cls-9" x="414.9" y="156.3" width="56.4" height="7.31" rx="1.3"/><path class="cls-9" d="M436.8,558A11.8,11.8,0,1,1,425,546.2,11.7,11.7,0,0,1,436.8,558Z"/><rect class="cls-10" x="322.4" y="178" width="203.5" height="362.11"/><path class="cls-3" d="M429,267.9c-109.8,0-24,147.4,0,155.5C452.1,417.7,538.9,267.9,429,267.9Zm-.1,82.1a29.6,29.6,0,1,1,29.5-29.6A29.6,29.6,0,0,1,428.9,350Z"/><path class="cls-11" d="M476.1,437.2c0,2.3-21.1,4.2-47.2,4.2s-47.3-1.9-47.3-4.2,21.2-4.1,47.3-4.1S476.1,435,476.1,437.2Z"/><path class="cls-12" d="M476.1,437.2c0,2.3-21.1,4.2-47.2,4.2s-47.3-1.9-47.3-4.2,21.2-4.1,47.3-4.1S476.1,435,476.1,437.2Z"/><ellipse class="cls-13" cx="428.9" cy="437.2" rx="24.6" ry="2.1"/><g class="cls-14"><polygon class="cls-15" points="457.1 178 322.4 384.4 322.4 269.4 382.1 178 457.1 178"/><polygon class="cls-15" points="513.8 178 322.4 471.3 322.4 418 479.1 178 513.8 178"/><polygon class="cls-15" points="525.9 298 525.9 351.3 402.5 540.5 367.7 540.5 525.9 298"/></g><g class="cls-16"><path class="cls-4" d="M698.3,290.2l-.6.8-.4.4-3.3,3.3-1.5,1.4-1.5,1.6-.7.7-1.8,2a27,27,0,0,0-2.3,3.7c-.2.3-.3.7-.5,1a21.7,21.7,0,0,1-1.2,2.6,2,2,0,0,1-.4.8h0l-.5.7a5.4,5.4,0,0,1-1.5,1.5,8.1,8.1,0,0,1-1.8,1l-1.7.6a22,22,0,0,1-4.2.9h-.9a8,8,0,0,1-6.4-3.3,7.5,7.5,0,0,1-1-2c-1.5-4.4-7-10.5-13.8-17.8s-10.7-18.5-10.4-34a22.8,22.8,0,0,1,5.6-14,33.4,33.4,0,0,1,12.1-9,35.2,35.2,0,0,1,4.2-1.5,40.8,40.8,0,0,1,9.8-1.5h.2a51.7,51.7,0,0,1,5.7.3,28.2,28.2,0,0,1,14.8,5.6,27.9,27.9,0,0,1,4.6,4.5c2.4,3,4,6.7,5.9,10.8C713.3,270.7,701.3,286.3,698.3,290.2Z"/><path class="cls-17" d="M698.3,290.2l-.6.8-.4.4-3.3,3.3-1.5,1.4-1.5,1.6-.7.7-1.8,2c-.1.3-.3.4-.4.7a13.7,13.7,0,0,0-1.9,3c-.2.3-.3.7-.5,1a21.7,21.7,0,0,1-1.2,2.6,2,2,0,0,1-.4.8h0l-.5.7a5.4,5.4,0,0,1-1.5,1.5,26.4,26.4,0,0,1,5.2-13.2c2-2.8,9.2-10.8,11.2-16.2s3.9-16.9,3.3-25a110.7,110.7,0,0,0-2.9-15.7c2.4,3,4,6.7,5.9,10.8C713.3,270.7,701.3,286.3,698.3,290.2Z"/><path class="cls-17" d="M670.6,308.8h-.3a6.1,6.1,0,0,0-1.8.5l-2,.8c-.4-.6-.2-1.4-.4-2.1-1.5-4.4-7-10.5-13.8-17.8s-18.5-31.7-4.8-48a39.2,39.2,0,0,1,4.6-4.5,35.5,35.5,0,0,1,7.5-4.5c-1.6,3.2-5.8,12-6.1,18.7-.5,8.3,1,13.5,3.4,19.5s7,14.1,8.1,16.3a92.8,92.8,0,0,1,4.7,14.1C670.3,305.6,670.6,308.8,670.6,308.8Z"/><path class="cls-17" d="M698.7,261.2a115.1,115.1,0,0,1-3.3,12c-.6,1.6-5,12.1-5.4,13.3s-4.7,8.7-5.6,10.7-2.1,4.5-2.6,5.9a56.5,56.5,0,0,0-1.2,6.6l-1.7-.3-1.8-.4V295.4s-.5-7.2-.5-10.4.1-12.3.3-26.4c.2-11-2.2-23.4-3.2-28.3a38.5,38.5,0,0,1,11.1,1.3,28.4,28.4,0,0,1,9.4,4.6C699,244.1,698.9,259.2,698.7,261.2Z"/><path class="cls-4" d="M698.7,261.2a115.1,115.1,0,0,1-3.3,12c-.6,1.6-5,12.1-5.4,13.3s-4.7,8.7-5.6,10.7-2.1,4.5-2.6,5.9a56.5,56.5,0,0,0-1.2,6.6l-1.7-.3c.3-4.6,1.9-13.8,3-15.9s4.8-10.3,8.8-25.8-1.7-32-5.8-36.1a28.4,28.4,0,0,1,9.4,4.6C699,244.1,698.9,259.2,698.7,261.2Z"/><path class="cls-18" d="M642.3,267.7c1.8-1.4,3.4-3,5.4-4.3a43,43,0,0,1,6-3.2,55.7,55.7,0,0,1,13.3-3.6c9.2-1.3,18.4.4,27.2,3a28.7,28.7,0,0,1,6.7,3c2,1.2,4.2,2.3,5.8,4.1.1.2.4-.1.3-.3a20.4,20.4,0,0,0-4.8-3.5,29.7,29.7,0,0,0-5.6-2.9,68.3,68.3,0,0,0-14-3.5,54.8,54.8,0,0,0-27.8,2.9,40.7,40.7,0,0,0-6.6,3.3c-2.2,1.4-4,3.2-6.1,4.8-.2.1,0,.4.2.2Z"/><path class="cls-18" d="M642.8,270.5c2.9-3,6.6-4.9,10.3-6.7a48.9,48.9,0,0,1,13-4.5c8.9-1.5,18.2-.1,26.7,2.9a59.3,59.3,0,0,1,6.9,2.9l3.5,1.9c1,.6,2.2,1.1,3.2,1.8s.5-.2.3-.3a26.4,26.4,0,0,0-2.9-1.5l-3.1-1.9c-2-1-4.1-1.9-6.2-2.7a67.7,67.7,0,0,0-13.4-3.5,45.6,45.6,0,0,0-13.8-.1,43.5,43.5,0,0,0-12.7,3.9c-4.3,2-8.8,4.1-12.1,7.6-.2.2.2.4.3.2Z"/><path class="cls-18" d="M662.8,302.4a29.4,29.4,0,0,1,12.4-3c4.1-.1,8.7.2,12.3,2.3a.2.2,0,0,0,.3-.3c-3.6-2.2-8.3-2.5-12.5-2.3a28.8,28.8,0,0,0-12.6,3c-.2.1-.2.5.1.3Z"/><path class="cls-18" d="M661.8,301.2a25.1,25.1,0,0,1,13.1-3.6,30.8,30.8,0,0,1,6.8.7c1.3.2,2.6.6,3.9.9a11.9,11.9,0,0,1,3.2,1c.2,0,.4-.3.2-.4a20.1,20.1,0,0,0-3.5-1l-3.5-.9a37.4,37.4,0,0,0-7.5-.7,26.1,26.1,0,0,0-13,3.7c-.2.1,0,.4.3.3Z"/><path class="cls-18" d="M666.3,310.4c0,3.9,1.1,7.7,1.1,11.6,0,.2.4.1.4-.1,0-3.9-1.1-7.7-1.1-11.6,0-.2-.4-.1-.4.1Z"/><path class="cls-18" d="M670.8,312.3c0,3,.6,6.1.6,9.1,0,.2.5.2.5,0-.1-3.1-.7-6.1-.7-9.2,0-.2-.4-.1-.4.1Z"/><path class="cls-18" d="M676.1,312.7c-.1,2.9-.3,5.7-.3,8.6-.1.2.4.2.4-.1,0-2.8.3-5.7.3-8.5,0-.3-.4-.2-.4,0Z"/><path class="cls-18" d="M682.1,310.7a40.9,40.9,0,0,1-.7,6,54.3,54.3,0,0,0-.9,5.6c0,.2.4,0,.4-.2a44.4,44.4,0,0,1,1-6.2,31.9,31.9,0,0,0,.6-5.3c0-.3-.4-.1-.4.1Z"/><path class="cls-18" d="M654,263.1c.2,1.2.4,2.5.7,3.6a22.7,22.7,0,0,0,1.6,3.9,86.7,86.7,0,0,0,4,9.3c1.5,2.9,3.3,5.6,4.8,8.5s1.4,3.2,2,4.8.8,3.4,1.4,5,.5,0,.4-.2-.8-3-1.3-4.5-1.2-3.3-1.9-4.9-3.3-5.6-4.8-8.5-2.7-6.1-4.1-9.2a32,32,0,0,1-1.7-4.3c-.3-1.2-.4-2.4-.7-3.5s-.5-.2-.4,0Z"/><path class="cls-18" d="M676.8,258.3c-.1,6.8-.2,13.6-.4,20.4s.6,12.5.6,18.7a.2.2,0,1,0,.4,0c.1-6.2-.8-12.5-.6-18.7s.3-13.6.4-20.4c0-.2-.4-.2-.4,0Z"/><path class="cls-18" d="M697.7,264.3a10.1,10.1,0,0,1-.7,2.3,18.7,18.7,0,0,0-.7,2.2c-.4,1.5-.8,2.9-1.3,4.4s-2.1,5.8-3.2,8.7-2.8,5.7-4.2,8.6a57.5,57.5,0,0,1-4.2,7.7c-.1.2.3.3.4.1a53.5,53.5,0,0,0,4.3-7.8c1.3-2.9,3-5.6,4.1-8.5s2.3-5.9,3.3-9c.5-1.5,1-3.1,1.4-4.7a26.4,26.4,0,0,0,1.2-4c0-.2-.4-.2-.4,0Z"/><path class="cls-18" d="M669.1,300.1a15.5,15.5,0,0,0,.4,2.1c.2.8.3,1.8.5,2.6a38.7,38.7,0,0,1,.3,4.8c.1.2.5.1.5-.1s-.1-2.8-.3-4.2-.3-1.7-.4-2.5a26.1,26.1,0,0,1-.6-2.7c0-.3-.4-.2-.4,0Z"/><path class="cls-18" d="M676.9,299.5v8.1c0,.3.1,1.4-.1,1.6s.2.4.3.2.2-.8.2-1v-8.9c0-.2-.4-.3-.4,0Z"/><path class="cls-18" d="M683.2,299.9c-2.3,2.7-2.2,6.7-2.9,10.1,0,.2.4.2.5,0,.6-3.3.5-7.2,2.8-9.9.2-.2-.2-.4-.4-.2Z"/><path class="cls-19" d="M682.4,310.8s-1.5,3.1-8.3,2.9-7.6-3.3-7.6-3.3.4-2,7.3-1.7C682.2,309,682.4,310.8,682.4,310.8Z"/><rect class="cls-20" x="661.8" y="321.6" width="26.4" height="26.97" transform="translate(339.2 1009.7) rotate(-89.9)"/><rect class="cls-21" x="672.7" y="310.7" width="4.8" height="26.97" transform="translate(350.1 998.9) rotate(-89.9)"/><rect class="cls-20" x="661.4" y="321.3" width="27.9" height="4.78" transform="translate(1350.2 648.1) rotate(-179.9)"/><polygon class="cls-22" points="672.9 321.3 672.9 329.3 673.4 328.5 673.9 329.3 674.4 328.5 674.9 329.3 675.4 328.5 675.9 329.3 676.4 328.5 676.9 329.3 676.9 321.3 672.9 321.3"/></g><g class="cls-23"><path class="cls-24" d="M513.3,620c0,1.8,17.5,3.3,39.1,3.3s39-1.5,39-3.3-17.5-3.2-39-3.2S513.3,618.2,513.3,620Z"/></g><g class="cls-23"><path class="cls-24" d="M151.8,660.8c0,1.8,17.4,3.2,39,3.2s39-1.4,39-3.2-17.5-3.3-39-3.3S151.8,659,151.8,660.8Z"/></g><rect class="cls-21" x="319.2" y="567" width="38.7" height="37.93" transform="translate(-0.7 0.4) rotate(-0.1)"/><rect class="cls-21" x="319.2" y="567" width="38.7" height="6.86" transform="matrix(1, 0, 0, 1, -0.65, 0.39)"/><rect class="cls-21" x="318.2" y="566.2" width="40" height="6.86" transform="translate(-0.6 0.4) rotate(-0.1)"/><polygon class="cls-21" points="341.6 566.2 341.6 577.6 340.9 576.5 340.2 577.6 339.5 576.5 338.8 577.6 338 576.5 337.3 577.6 336.6 576.5 335.9 577.6 335.9 566.2 341.6 566.2"/><rect class="cls-25" x="321.5" y="567" width="38.7" height="37.93" transform="translate(-0.7 0.4) rotate(-0.1)"/><rect class="cls-21" x="321.5" y="567" width="38.7" height="6.86" transform="translate(-0.6 0.4) rotate(-0.1)"/><rect class="cls-25" x="320.6" y="566.2" width="40" height="6.86" transform="translate(-0.6 0.4) rotate(-0.1)"/><polygon class="cls-22" points="344 566.2 344 577.6 343.3 576.5 342.6 577.6 341.8 576.5 341.1 577.6 340.4 576.5 339.7 577.6 338.9 576.5 338.2 577.6 338.2 566.2 344 566.2"/><rect class="cls-21" x="298.3" y="527.9" width="38.7" height="37.93" transform="translate(-0.6 0.4) rotate(-0.1)"/><rect class="cls-21" x="298.3" y="527.9" width="38.7" height="6.86" transform="matrix(1, 0, 0, 1, -0.61, 0.36)"/><rect class="cls-21" x="297.4" y="527.1" width="40" height="6.86" transform="translate(-0.6 0.4) rotate(-0.1)"/><polygon class="cls-21" points="320.8 527.1 320.8 538.6 320.1 537.5 319.3 538.6 318.6 537.5 317.9 538.6 317.2 537.5 316.5 538.6 315.7 537.5 315 538.6 315 527.1 320.8 527.1"/><rect class="cls-26" x="300.7" y="527.9" width="38.7" height="37.93" transform="translate(-0.6 0.4) rotate(-0.1)"/><rect class="cls-21" x="300.7" y="527.9" width="38.7" height="6.86" transform="matrix(1, 0, 0, 1, -0.61, 0.37)"/><rect class="cls-26" x="299.7" y="527.1" width="40" height="6.86" transform="translate(-0.6 0.4) rotate(-0.1)"/><polygon class="cls-22" points="323.1 527.1 323.1 538.6 322.4 537.5 321.7 538.6 321 537.5 320.3 538.6 319.5 537.5 318.8 538.6 318.1 537.5 317.4 538.6 317.4 527.1 323.1 527.1"/><polygon class="cls-8" points="453.4 646.1 300.8 608.6 283.7 597.4 477.9 645.7 453.4 646.1"/><rect class="cls-17" x="166.6" y="453.8" width="175.6" height="152.16"/><path class="cls-8" d="M30,570a11.9,11.9,0,1,1-16-5.2A11.8,11.8,0,0,1,30,570Z"/><path class="cls-17" d="M156.4,475.5v4.2l-.5,55.4v.3l-65.8.3H49.8l.2-.4.2-.2,39.9-55.9a6.3,6.3,0,0,1,4.3-2.6l55.3-6.5A6,6,0,0,1,156.4,475.5Z"/><path class="cls-27" d="M156.4,477.2v2.5a6.7,6.7,0,0,0-2-4,4.7,4.7,0,0,0-3.8-1.2l-53.7,6.4a6.8,6.8,0,0,0-4.7,2.8L55.6,535.2h-.9l36.9-51.9a7.7,7.7,0,0,1,5.2-3.1l53.7-6.4a5.8,5.8,0,0,1,4.5,1.4A6,6,0,0,1,156.4,477.2Z"/><path class="cls-28" d="M148.6,484.1V535H69.5v-6.1a9.2,9.2,0,0,1,1.5-5.1l24.1-35.7a8.4,8.4,0,0,1,6-3.7l8.1-1,24.7-2.9,9.2-1.1a4.4,4.4,0,0,1,3.4.9A4.8,4.8,0,0,1,148.6,484.1Z"/><path class="cls-17" d="M156.4,535.1v82H56.3c-9.8,0-38.3-.7-38.3-.7V575c0-19.6,13-35.9,30.2-39.3h.1a7.6,7.6,0,0,1,1.6-.3.1.1,0,0,0,.1-.1,43.5,43.5,0,0,1,5.1-.2Z"/><path class="cls-8" d="M142.7,546.3H130.6a3.1,3.1,0,0,1-3.1-3.2h0a3.1,3.1,0,0,1,3.1-3.1h12.1a3.1,3.1,0,0,1,3.2,3.1h0A3.2,3.2,0,0,1,142.7,546.3Z"/><path class="cls-29" d="M145.9,543.1a3.1,3.1,0,0,1-3.2,3.2H130.6a3.1,3.1,0,0,1-3.1-3.2,4.3,4.3,0,0,1,.2-1.1,3,3,0,0,0,2.9,2.1h12.1a3.2,3.2,0,0,0,2.3-.9,3.5,3.5,0,0,0,.7-1.2A4.3,4.3,0,0,1,145.9,543.1Z"/><polygon class="cls-30" points="133.9 480.3 95.8 534.8 73.2 534.8 109.2 483.2 133.9 480.3"/><path class="cls-30" d="M148.6,484.1v9.4l-28.9,41.4H108.3l38.2-54.8A4.8,4.8,0,0,1,148.6,484.1Z"/><polygon class="cls-30" points="148.6 504.8 148.6 535 127.6 534.9 148.6 504.8"/><path class="cls-31" d="M20.9,613.8H15a9.3,9.3,0,0,1-9.3-9.3h0a9.3,9.3,0,0,1,9.3-9.3h5.9a9.3,9.3,0,0,1,9.3,9.3h0A9.3,9.3,0,0,1,20.9,613.8Z"/><path class="cls-32" d="M256.9,604.5l5.1-7.2a29.7,29.7,0,0,1,23.9-12.2h0a29.7,29.7,0,0,1,23.7,12l5.5,7.4"/><rect class="cls-8" x="14.1" y="604.5" width="335.4" height="12.61" rx="2.8"/><path class="cls-8" d="M68.8,604.5l5.2-7.2a29.6,29.6,0,0,1,23.9-12.2h0a29.4,29.4,0,0,1,23.6,12l5.5,7.4"/><circle class="cls-17" cx="97.9" cy="618.6" r="27.2"/><circle class="cls-33" cx="97.9" cy="618.6" r="20.6" transform="translate(-408.7 250.4) rotate(-45)"/><circle class="cls-17" cx="97.9" cy="618.6" r="15"/><circle class="cls-34" cx="97.9" cy="618.6" r="13.7"/><path class="cls-31" d="M106.4,618.6a8.5,8.5,0,0,1-17,0,8.5,8.5,0,1,1,17,0Z"/><circle class="cls-17" cx="97.9" cy="618.6" r="2.8"/><circle class="cls-35" cx="97.9" cy="618.6" r="3.5"/><circle class="cls-36" cx="286" cy="618.6" r="27.2"/><circle class="cls-33" cx="286" cy="618.6" r="20.6" transform="translate(-353.6 383.4) rotate(-45)"/><circle class="cls-32" cx="286" cy="618.6" r="15"/><circle class="cls-34" cx="286" cy="618.6" r="13.7"/><path class="cls-37" d="M294.5,618.6a8.5,8.5,0,0,1-8.5,8.5,8.6,8.6,0,1,1,8.5-8.5Z"/><path class="cls-38" d="M279.8,620.1a7.7,7.7,0,0,1-.2-1.5,6,6,0,0,1,.5-2.4"/><path class="cls-38" d="M284.7,624.7a6.1,6.1,0,0,1-3.7-2.3"/><path class="cls-38" d="M290.1,623.3a6.1,6.1,0,0,1-2.9,1.4"/><path class="cls-38" d="M292.3,618.6a5.6,5.6,0,0,1-.9,3.1"/><path class="cls-32" d="M288.7,618.6a2.8,2.8,0,0,1-5.5,0,2.8,2.8,0,1,1,5.5,0Z"/><circle class="cls-35" cx="286" cy="618.6" r="3.5"/><rect class="cls-25" x="386.6" y="512.4" width="56.8" height="57.96" transform="translate(-210.1 814.5) rotate(-76.1)"/><rect class="cls-21" x="415.4" y="489.8" width="10.3" height="57.96" transform="translate(-183.9 802.7) rotate(-76.1)"/><rect class="cls-25" x="390.4" y="512.4" width="59.9" height="10.27" transform="translate(136.3 -85.7) rotate(13.9)"/><polygon class="cls-22" points="426.6 513.8 422.5 530.4 421.8 528.5 420.4 529.9 419.7 528 418.3 529.4 417.6 527.5 416.2 528.8 415.5 527 414.1 528.3 418.2 511.7 426.6 513.8"/><rect class="cls-25" x="369.6" y="567.7" width="56.8" height="57.96" transform="translate(-276.7 840) rotate(-76.1)"/><rect class="cls-21" x="398.4" y="545.1" width="10.3" height="57.96" transform="translate(-250.5 828.2) rotate(-76.1)"/><rect class="cls-25" x="373.4" y="567.7" width="59.9" height="10.27" transform="translate(149.1 -80) rotate(13.9)"/><polygon class="cls-20" points="409.6 569.1 405.5 585.7 404.8 583.9 403.4 585.2 402.7 583.3 401.3 584.7 400.6 582.8 399.2 584.2 398.5 582.3 397.1 583.6 401.2 567 409.6 569.1"/><rect class="cls-21" x="415.8" y="579.1" width="56.8" height="57.96" transform="translate(-252.6 893.6) rotate(-76.1)"/><rect class="cls-21" x="444.7" y="556.5" width="10.3" height="57.96" transform="translate(-226.5 881.8) rotate(-76.1)"/><rect class="cls-21" x="419.7" y="579.1" width="59.9" height="10.27" transform="translate(153.2 -90.7) rotate(13.9)"/><polygon class="cls-21" points="455.8 580.5 451.7 597.1 451.1 595.3 449.6 596.6 449 594.8 447.5 596.1 446.9 594.2 445.4 595.6 444.8 593.7 443.3 595.1 447.4 578.4 455.8 580.5"/><rect class="cls-20" x="419.2" y="580" width="56.8" height="57.96" transform="translate(-250.8 897.5) rotate(-76.1)"/><rect class="cls-21" x="448.1" y="557.4" width="10.3" height="57.96" transform="translate(-224.7 885.8) rotate(-76.1)"/><rect class="cls-20" x="423.1" y="580" width="59.9" height="10.27" transform="translate(153.5 -91.5) rotate(13.9)"/><polygon class="cls-22" points="459.2 581.4 455.1 598 454.5 596.1 453 597.5 452.4 595.6 450.9 596.9 450.3 595.1 448.8 596.4 448.2 594.6 446.7 595.9 450.8 579.3 459.2 581.4"/><g class="cls-39"><rect class="cls-40" x="191.3" y="474.3" width="14.5" height="111.16" rx="1.8"/><rect class="cls-40" x="219.2" y="474.3" width="14.5" height="111.16" rx="1.8"/><rect class="cls-40" x="247.2" y="474.3" width="14.5" height="111.16" rx="1.8"/><rect class="cls-40" x="275.1" y="474.3" width="14.5" height="111.16" rx="1.8"/><rect class="cls-40" x="303" y="474.3" width="14.5" height="111.16" rx="1.8"/></g><polygon class="cls-21" points="288.2 558.3 288.2 584.1 286.9 581.7 285.6 584.1 284.3 581.7 283 584.1 281.6 581.7 280.3 584.2 279 581.7 277.7 584.2 277.6 558.3 288.2 558.3"/><rect class="cls-25" x="251.5" y="560.1" width="70.8" height="85.59" transform="translate(-0.7 0.3) rotate(-0.1)"/><rect class="cls-21" x="251.4" y="560.1" width="70.8" height="15.48" transform="translate(-0.6 0.3) rotate(-0.1)"/><rect class="cls-25" x="249.7" y="558.3" width="73.1" height="15.47" transform="translate(-0.6 0.3) rotate(-0.1)"/><polygon class="cls-20" points="292.5 558.3 292.5 584.1 291.2 581.7 289.9 584.1 288.6 581.7 287.3 584.1 285.9 581.7 284.6 584.1 283.3 581.7 282 584.2 281.9 558.3 292.5 558.3"/><rect class="cls-21" x="211.9" y="594.3" width="50.5" height="51.52" transform="translate(-383.1 856.5) rotate(-89.9)"/><rect class="cls-21" x="232.6" y="573.6" width="9.1" height="51.52" transform="translate(-362.4 835.8) rotate(-89.9)"/><rect class="cls-21" x="211" y="593.8" width="53.2" height="9.13" transform="translate(474.5 1196.9) rotate(-179.9)"/><polygon class="cls-21" points="233 593.7 233 609 234 607.5 235 609 235.9 607.5 236.9 609 237.8 607.5 238.8 609 239.8 607.5 240.7 609 240.7 593.8 233 593.7"/><rect class="cls-20" x="208.8" y="594.3" width="50.5" height="51.52" transform="matrix(0, -1, 1, 0, -386.27, 853.34)"/><rect class="cls-21" x="229.5" y="573.6" width="9.1" height="51.52" transform="translate(-365.6 832.7) rotate(-89.9)"/><rect class="cls-20" x="207.9" y="593.7" width="53.2" height="9.13" transform="translate(468.3 1196.9) rotate(-179.9)"/><polygon class="cls-22" points="229.9 593.7 229.9 609 230.9 607.5 231.8 609 232.8 607.5 233.7 609 234.7 607.5 235.7 609 236.6 607.5 237.6 609 237.6 593.8 229.9 593.7"/><path class="cls-27" d="M156.4,535.1v.6H48.3a7.6,7.6,0,0,1,1.6-.3.1.1,0,0,0,.1-.1l.2-.2Z"/><g class="cls-23"><path class="cls-41" d="M78.9,525.3v12.9a1.6,1.6,0,0,1-2.9.8l-2.3-3.4a8,8,0,0,1,.3-8.9l1.8-2.4A1.7,1.7,0,0,1,78.9,525.3Z"/><g class="cls-42"><path class="cls-43" d="M67.6,541.5H62.3a3.3,3.3,0,0,1-3.3-3.3h0a3.3,3.3,0,0,1,3.3-3.3h5.3a3.3,3.3,0,0,1,3.3,3.3h0A3.3,3.3,0,0,1,67.6,541.5Z"/><rect class="cls-43" x="67.1" y="531.8" width="11.1" height="3.16" transform="translate(-278.7 125.5) rotate(-33)"/><path class="cls-44" d="M70.8,539.2a4.1,4.1,0,0,1-.8,1.3,3.5,3.5,0,0,1-2.4,1H62.3a3.3,3.3,0,0,1-3.3-3.3,3.3,3.3,0,0,1,1-2.3l.5-.5a3.8,3.8,0,0,0-.1,1,3.3,3.3,0,0,0,3.3,3.3H69A3.5,3.5,0,0,0,70.8,539.2Z"/></g></g><rect class="cls-45" x="68.1" y="531.8" width="11.1" height="3.16" transform="translate(-278.5 126.1) rotate(-33)"/><path class="cls-45" d="M79.9,525.3v12.9a1.6,1.6,0,0,1-3,.8l-2.2-3.4a8,8,0,0,1,.3-8.9l1.8-2.4A1.7,1.7,0,0,1,79.9,525.3Z"/><path class="cls-27" d="M79.8,538.5a1.6,1.6,0,0,1-2.9.5l-2.2-3.5a7.9,7.9,0,0,1,.3-8.8l1.7-2.4a2.5,2.5,0,0,1,1.2-.7l-1.3,1.8a7.7,7.7,0,0,0-.3,8.9l2.2,3.5A1.3,1.3,0,0,0,79.8,538.5Z"/><path class="cls-45" d="M68.6,541.5H63.3a3.3,3.3,0,0,1-3.3-3.3h0a3.3,3.3,0,0,1,3.3-3.3h5.3a3.3,3.3,0,0,1,3.3,3.3h0A3.3,3.3,0,0,1,68.6,541.5Z"/><path class="cls-27" d="M71.7,539.2a2.2,2.2,0,0,1-.8,1.3,3.3,3.3,0,0,1-2.3,1H63.3a3.3,3.3,0,0,1-3.3-3.3,3.3,3.3,0,0,1,1-2.3l.5-.5a3.8,3.8,0,0,0-.1,1,3.2,3.2,0,0,0,3.3,3.3H70A3.4,3.4,0,0,0,71.7,539.2Z"/><path class="cls-46" d="M526.4,479.5c-2.5,4.8-3,14.8-5.5,19.6-1.2,2.3-10.9,15.5-17.9,21.9-1-2.4-5.8.3-4.3-1.7,4.5-6.5,13.1-14,14.3-24.1.7-6.7,5.7-22.3,5.7-22.3"/><path class="cls-47" d="M548,625c3.2-.2,6.3-1.9,7.7-2.1s4.2-.9,5-1.1-.6-5.4-2-5.6a1.6,1.6,0,0,1-.7.5,6.5,6.5,0,0,1-3.6.7c-1.9,1.9-1.8,2.4-4.2,3.8a17.3,17.3,0,0,0-2.9,2.3C546.4,624.4,546.3,625.2,548,625Z"/><path class="cls-48" d="M557.9,613.9a11.1,11.1,0,0,0,1,2.6c-2.5,2.8-4.5,1.3-4.5,1.3v-.4l-.6-2.6Z"/><path class="cls-47" d="M503.3,623.8c3,.7,6.5.1,7.9.4l5.2.5c.8,0,1-5.3-.2-5.9l-.8.2a7.5,7.5,0,0,1-3.7-.4c-2.3,1.1-2.4,1.6-5.1,2.2a16,16,0,0,0-3.5,1.2C501.9,622.7,501.5,623.3,503.3,623.8Z"/><path class="cls-48" d="M516.2,616.4a8.5,8.5,0,0,0,.1,2.7c-3.2,1.9-4.7-.2-4.7-.2v-.3l.3-2.8Z"/><path class="cls-47" d="M544.1,532.4s6.5-13.3-2.8-23.9c0,0-8.7,3.3-15.6,3.3a35.4,35.4,0,0,1-8-.7,166.2,166.2,0,0,0-2.2,25.5Z"/><path class="cls-47" d="M523.4,578h0c0,13.4-4.6,30.6-6.2,40.3h-.5a33.1,33.1,0,0,1-5.6-.7v-1c1.2-15.7.9-41.4,1-49.5a6.8,6.8,0,0,1,.2-1.5c1-5.9,7-4.7,9.2.9a24.7,24.7,0,0,1,1,2.9,5.9,5.9,0,0,1,.2,1.3h0a21.2,21.2,0,0,1,.5,4.4v.2a5.7,5.7,0,0,1,.1,1.3h0Z"/><path class="cls-47" d="M532.9,538l-.2.5c-1.4,5.7-5.4,19.2-8.1,27.4h-.1a43.1,43.1,0,0,1-1.7,4.6h0a3,3,0,0,1-1.6,1.5,3.5,3.5,0,0,1-1.2.3c-3.1.7-7.6-.8-7.6-6.9a17,17,0,0,1,.1-2.2c.8-5,3.6-32.5,4-35.1s1.1-6.5,2.5-6.9C526.2,519.3,535.3,528.1,532.9,538Z"/><path class="cls-47" d="M523.1,568.3l1.4-2.3h0a41.4,41.4,0,0,0-1.2,9v.2a5.7,5.7,0,0,1,.1,1.3h0a3.1,3.1,0,0,1,0,1.4h0c-.2,1.2-1.8-4.6-2.2-5.9v-.3l1.4-2.5Z"/><path class="cls-49" d="M532.7,538.5c-1.4,5.7-5.4,19.2-8.1,27.4h-.1a41.4,41.4,0,0,0-1.2,9v.2a5.7,5.7,0,0,1,.1,1.3h0V578h0c0,13.4-4.6,30.6-6.2,40.3h-.5s1.8-15.9,4-26.9a44.3,44.3,0,0,0-.7-18.9,11.1,11.1,0,0,0-.4-1.3l2-4.7c2.4-6.2,3.3-20.8,3.3-20.8-4-10.6-3.8-23.7-3.8-23.7l3.9.8,6.7,9.1Z"/><path class="cls-47" d="M545,567.4c-4.4-4.7-11.2-3-8.5,4.1s11.7,28.8,16.3,43.8l.3.9a27.4,27.4,0,0,0,5.9-1.5c-2-9.6-2.9-26.1-7.6-37.9A33.1,33.1,0,0,0,545,567.4Z"/><path class="cls-47" d="M521.1,521.9c-.3-11,13-2.8,19.4,1.2,2.6,1.7,3.4,4.8,3.6,7.7s1.9,32.8,2.3,38.3c.8,12.3-9.4,4.9-10.2,1.5C534.2,561.9,521.2,528,521.1,521.9Z"/><path class="cls-47" d="M545.9,561.5s.1,5.8,4.5,13.3c0,0-7.7-4.2-8.1-4.7a28.6,28.6,0,0,1-1.2-6.9C541.3,562.6,545.9,561.5,545.9,561.5Z"/><path class="cls-48" d="M514,436.4s-2.1,19.6,12.7,15.5c.8.1,5.3-1.1,6-7s-2.8-12.3-3.1-12.5-9.6-.5-10-.5S514,436.4,514,436.4Z"/><path class="cls-50" d="M526.4,441.4a3.8,3.8,0,0,1-1.7-4.2c.6-3.1.2-3.3-2-2s-13.7,7.6-11.8-7c1.4.8,5.5.7,6.4-1.1s10.6-6.7,14.2.5c2.6.1,5.5,3,5.2,8.8s-2.3,13.2-4.5,13.6-3.3-1.3-3.2-4.1,4.2-3.3,1.2-7.5C528.9,436.9,525.2,438.2,526.4,441.4Z"/><path class="cls-48" d="M529.2,450.2s-.4,4.2.9,6c-3.1,2.4-8.8,1.9-8.8,1.9s1.7-1.8,0-7.7S529.2,450.2,529.2,450.2Z"/><path class="cls-9" d="M512.4,482.2s4.1,3.2,7.1,3.5l-1.6-17.9-1.7,4.4Z"/><path class="cls-51" d="M512.4,482.2s4.1,3.2,7.1,3.5l-1.2-18.1-.4.2a35.4,35.4,0,0,0-1.9,12.1c0,.4-.1,2.4-.1,3.2S513.7,482.7,512.4,482.2Z"/><path class="cls-9" d="M515.5,510.6l.5.2c2.4.9,12.6,4.1,25.3-2.3l1.6-.8s-2.1-4.7-2.5-18.3,0-15.2-2.3-21.9-8.6-13.2-8.6-13.2-6,3.8-8.2,3.8c-2.8,6.8-5.7,15.5-4.6,21.8.6,4.2-.1,16.5-.7,24.1C515.8,507.9,515.5,510.6,515.5,510.6Z"/><path class="cls-51" d="M515.5,510.6l.5.2c5.5-4.2,12.6-10.3,14.5-12.9s3.1-8.6,3.4-10.9H535a37.2,37.2,0,0,0-1.1-17.8l-10,3.6L520.2,484a23.5,23.5,0,0,0,4.9,1.7c-.3,3.4-1.1,9-1.7,10.1s-4,4.7-7.4,8.2C515.8,507.9,515.5,510.6,515.5,510.6Z"/><rect class="cls-20" x="478.8" y="489" width="34.1" height="34.83" transform="translate(-11.2 1001.7) rotate(-89.9)"/><rect class="cls-21" x="492.7" y="475" width="6.2" height="34.83" transform="translate(2.8 987.7) rotate(-89.9)"/><rect class="cls-20" x="478.1" y="488.7" width="36" height="6.17" transform="translate(991.7 984.1) rotate(-179.9)"/><polygon class="cls-22" points="493 488.7 493 498.9 493.7 498 494.3 499 495 498 495.6 499 496.3 498 496.9 499 497.6 498 498.2 499 498.2 488.7 493 488.7"/><path class="cls-48" d="M505.2,520.2c0,1-2,3.8-3.5,4.2a2.6,2.6,0,0,1-1.5-.1c-.7.3-2.8.5-2-.7-1.4,1.1-3,1-4.7.9s-.6-.7.7-1a6.3,6.3,0,0,0,4-3.3c-.2-.2-.5.2-1.2.3s-1.2-.3-1.2-.6.9-.6,1.1-.7l2.4-1.6a4.8,4.8,0,0,1,2.6-.9c.1,0,1.8.1,1.4.8"/><path class="cls-48" d="M533.8,480.4c-2.2,4.3-7.7,18.4-8.6,20.1-3.4,6.4-20.6,20.2-20.6,20.2a3.4,3.4,0,0,1-2.8-3.4c4.9-3.3,14.2-17.8,16.1-19.5s7-23.5,7-23.5"/><path class="cls-9" d="M533.8,468.6a45,45,0,0,1,0,17,37.4,37.4,0,0,1-13.6-1.6l2.4-12.5"/><path class="cls-46" d="M192.1,525.4c3.1,3.6,5.6,12.1,8.7,15.6,1.5,1.7,12.5,11,19.8,14.9.3-2.2,5-.8,3.3-2.3-5.2-4.6-14-9.2-17.1-17.6-2.1-5.5-9.5-17.7-9.5-17.7"/><rect class="cls-25" x="210.6" y="527.5" width="30.5" height="29.88" transform="translate(-0.6 0.3) rotate(-0.1)"/><rect class="cls-21" x="210.6" y="527.5" width="30.5" height="5.4" transform="translate(-0.6 0.3) rotate(-0.1)"/><rect class="cls-25" x="209.8" y="526.9" width="31.5" height="5.4" transform="translate(-0.6 0.3) rotate(-0.1)"/><polygon class="cls-20" points="228.3 526.9 228.3 535.9 227.7 535 227.2 535.9 226.6 535 226 535.9 225.5 535.1 224.9 535.9 224.3 535.1 223.7 535.9 223.7 526.9 228.3 526.9"/><path class="cls-52" d="M179.2,645s-1.1,6-.7,6.7a8.8,8.8,0,0,0,2.9,3.7c1.3.9,4.2,1.8,4.5,2.1a1,1,0,0,1-.2,1.3,6.1,6.1,0,0,1-4.1,1.1c-3.9-.5-4.4-2.3-6.7-2.5-.4,0-1.1.6-2.2,0a2.5,2.5,0,0,1-1.6-2.5,11.1,11.1,0,0,1,1.6-4.2c.6-1.3,1-6.9,1-6.9"/><path class="cls-53" d="M188.1,544.8l-15.7.4s-6.1,8.7-3.6,16.9c1.3,4,2.8,6,3.5,7.9s5.4,27.3,5.1,29.1-2.3,7.2-3,12.7-.2,28.1-.9,33.8a9.1,9.1,0,0,0,5.4,1c2.1-16.5,7.5-38.7,8.3-47A545.6,545.6,0,0,0,188.1,544.8Z"/><path class="cls-54" d="M186.7,572s-11-23.2-13.1-18.1a10.6,10.6,0,0,0,3.2,13c2.6,4.2,8.4,27.9,8.7,32.9.2,2.7,0,5.3.2,7.9,0,.2.1.6.1.8.7-3.9,1.2-7.3,1.4-9.4.5-5.9.3-15.1-.2-27.1Z"/><path class="cls-50" d="M186.1,659c.2-.5.3-1.2,0-1.4a25,25,0,0,0-2.5-1.4c-.7-.3-2-.6-1.5-.4s-.4,1.1-1.1,1.1c-2.5-.1-4.3-1.7-5.8-2s-2.9-2.9-3-3.3a11.2,11.2,0,0,0-1.4,2.9,4.9,4.9,0,0,0-.3,2.1,3.8,3.8,0,0,1,.3,2,3.9,3.9,0,0,0,1.5.5,7.6,7.6,0,0,0,1.6,0v-1.3h1.3a4.7,4.7,0,0,1,1.9.9c.3.3.6.9.9,1.1a7,7,0,0,0,3.3.7C184.1,660.7,185.6,659.9,186.1,659Z"/><path class="cls-52" d="M192.3,647.5h5a15.5,15.5,0,0,0,.5,5.5,8.3,8.3,0,0,0,3.4,3.3c1.5.6,4.7,1.1,5,1.4a.8.8,0,0,1,0,1.2,6.6,6.6,0,0,1-4.1,1.8c-4.2,0-4.9-1.6-7.3-1.5-.4,0-1.1.7-2.3.4a2.8,2.8,0,0,1-2-2.3c-.1-1.6,1.2-3.2,1.7-4.5S192.3,647.9,192.3,647.5Z"/><path class="cls-53" d="M176.5,542.8l15.6,4.1c4.8,19.1,8.1,40.3,7.7,52.3-.3,6.9-2.1,35.6-2.3,47.4v1h-5.2V647c-.6-7.2-3.7-26-3.6-32.3a56.6,56.6,0,0,1,2-14.1s-10.7-30.8-11.4-32.7-4.8-2.7-5.8-7.6C171.8,551.8,176.5,542.8,176.5,542.8Z"/><path class="cls-50" d="M206.5,659.2a1.2,1.2,0,0,0-.1-1.4l-2.7-1-1.7-.2c.5.2-.2,1.2-.9,1.3-2.6.2-4.7-1.1-6.3-1.2s-2.9-2.3-3.1-2.7a9.4,9.4,0,0,0-1.5,3,5,5,0,0,0,0,2.1,4.8,4.8,0,0,1,.5,2,6.3,6.3,0,0,0,1.6.3,7.5,7.5,0,0,0,1.7-.3v-1.3h1.4a4.9,4.9,0,0,1,2.1.8c.4.2.7.7,1.1.8a9.8,9.8,0,0,0,3.4.2C204.7,661.2,206.2,660.2,206.5,659.2Z"/><path class="cls-9" d="M190.9,503.1c1.1.3.7,2.9,1.8,3.2s2.3-.1,3,.3c3.8,2.1,2.9,6.4,3.4,11.7s2.1,7.7.8,9.9-3.2,3.7-5.1,6-1.9,5.4-2.1,9.2c-.1.7.5,1.8.3,2.5s-2.2,1.6-4.2,1.7c-4.9.1-12.2-1.6-14.3-1.5s-4-.8-3.8-2,1-1.2,1.3-2.8c.7-3.6,1.1-12.5,1.7-15.5,1.4-7.7,2.4-13.5,5.4-20.6"/><g class="cls-42"><path class="cls-4" d="M202,521.4a33.9,33.9,0,0,0-4.4-5.6l-4.1,1.9c2,3.7,2.4,8,3.3,12.1a16.2,16.2,0,0,0,2.4-.3,6.9,6.9,0,0,0,.7-1.3A14.8,14.8,0,0,0,202,521.4Z"/></g><path class="cls-52" d="M204.5,492.5a16.8,16.8,0,0,0,.7-5.3c-.2-3.1-.6-7.5-5.7-9.3s-10.7-.6-12.3,3.1-1.2,9.2-1.4,12.2-2.4,6.5-2.4,6.5l11,4.6s1.8-3.9,2.5-4.3,1,1.3,3.4,1.1,2.2-2,3-4.3a.3.3,0,0,1,.1-.2h1.3c.7-.2.6-.6.5-1.1A12.1,12.1,0,0,1,204.5,492.5Z"/><path class="cls-52" d="M220.3,555.1a5.7,5.7,0,0,0,3.1,3.6h1.3c.6.2,2.5.4,1.7-.7,1.3,1,2.6.9,4.1.9s.5-.7-.6-1a5.7,5.7,0,0,1-3.5-2.8c.2-.2.4.1,1.1.2s1-.2,1-.5-.8-.5-1-.6l-2.1-1.4a4.2,4.2,0,0,0-2.2-.8c-.1,0-1.6.1-1.3.7"/><path class="cls-52" d="M195.3,520.2c1.8,3.8,6.7,16.2,7.5,17.6,3,5.6,18,17.7,18,17.7a3.1,3.1,0,0,0,2.5-3c-4.3-2.9-12.4-15.6-14.1-17.1s-6.2-20.5-6.2-20.5"/><path class="cls-9" d="M199.2,506.4c-4.1-1.6-8.1-1.6-11.3-4.7-3.2,2.5,4,16.8,5.8,17.2s4.2,8.3,4.7,9.3c5.8-.2,7.8-3.3,7.8-3.3C203.8,517.7,203.3,507.9,199.2,506.4Z"/><path class="cls-50" d="M195.9,506.8c-.3-1.1-1.1-2-1.3-3.1a4.5,4.5,0,0,1,.6-3.2,4.7,4.7,0,0,1,1.4-1.4c2.2-1.8,3-3.3,2.2-6a8.4,8.4,0,0,1-.4-2.7c.1-.9.2-1.7,1.1-1.8s1.1,0,1.3.6-.1,2.9.7,1.4,1.6-1.5,1.5-4.8c0-.4-.2-1.9.1-2.2a6.4,6.4,0,0,1,2.2,4.4c1.1-.5,1.4-2.1,1.4-2.8a8.3,8.3,0,0,0-.6-3.2c-2.1-4.3-4.2-5-6-5.8a14.4,14.4,0,0,0-5.4-1.4c-1.9.1-4.2.7-4.7,2.1-2.6-.6-4.1,1.6-4.7,2.5a12.9,12.9,0,0,0-1.9,3.9c-.7,2-.8,4.2-1.3,6.3a9.2,9.2,0,0,1-2.4,4.7c-1.3,1.1-3.1,1.2-4.4,2.3a6.9,6.9,0,0,0-2.6,5.8c.1,2.2,1.3,4.5,0,6.6s-1,1.1-1.5,1.8a5.1,5.1,0,0,0,.2,5.2,8.6,8.6,0,0,0,4.5,3.7,13.3,13.3,0,0,0,4.8.7c3.2-.2,5.8-.1,9.2-3,1.8-1.6.6-2.5,2.4-4.2s2.5-1.5,3.2-2.8a4.7,4.7,0,0,0,.4-3.5Z"/><circle class="cls-55" cx="166.1" cy="291.4" r="5.6"/><circle class="cls-55" cx="309.7" cy="91.5" r="5.6"/><path class="cls-56" d="M611.1,105.2a2.7,2.7,0,0,1-2.6,2.7,2.7,2.7,0,0,1,0-5.3A2.6,2.6,0,0,1,611.1,105.2Z"/><path class="cls-56" d="M75.3,324.7a2.6,2.6,0,0,1-2.6,2.6,2.7,2.7,0,0,1,0-5.3A2.6,2.6,0,0,1,75.3,324.7Z"/><circle class="cls-55" cx="618.2" cy="220.5" r="5.6"/><circle class="cls-55" cx="738.7" cy="408.8" r="5.6"/><line class="cls-57" x1="478.6" y1="103.8" x2="478.6" y2="111.9"/><line class="cls-57" x1="482.7" y1="107.9" x2="474.6" y2="107.9"/><line class="cls-57" x1="711.9" y1="176.5" x2="711.9" y2="184.7"/><line class="cls-57" x1="716" y1="180.6" x2="707.8" y2="180.6"/><line class="cls-57" x1="738.7" y1="481.3" x2="738.7" y2="489.5"/><line class="cls-57" x1="742.8" y1="485.4" x2="734.7" y2="485.4"/><line class="cls-57" x1="105" y1="195.4" x2="105" y2="203.6"/><line class="cls-57" x1="109.1" y1="199.5" x2="100.9" y2="199.5"/><line class="cls-57" x1="145.4" y1="404.9" x2="145.4" y2="413.1"/><line class="cls-57" x1="149.5" y1="409" x2="141.3" y2="409"/><line class="cls-57" x1="290.9" y1="186.9" x2="290.9" y2="195.1"/><line class="cls-57" x1="295" y1="191" x2="286.8" y2="191"/><polygon class="cls-21" points="621.3 519 621.3 535.9 622.1 534.2 623 535.9 623.9 534.2 624.7 535.9 625.6 534.2 626.5 535.9 627.3 534.2 628.2 535.9 628.2 519 621.3 519"/><rect class="cls-25" x="594.2" y="525" width="56" height="46.32" transform="translate(73.3 1169.6) rotate(-89.9)"/><rect class="cls-21" x="617.1" y="502" width="10.1" height="46.32" transform="translate(96.3 1146.8) rotate(-89.9)"/><rect class="cls-25" x="598.6" y="519" width="47.8" height="10.12" transform="translate(1244.5 1048.8) rotate(-179.9)"/><polygon class="cls-20" points="618.5 519 618.5 535.9 619.3 534.2 620.2 535.9 621.1 534.2 621.9 535.9 622.8 534.2 623.6 535.9 624.5 534.2 625.4 535.9 625.4 519 618.5 519"/><rect class="cls-21" x="637.8" y="543.2" width="33.7" height="33.03" transform="translate(-0.6 0.7) rotate(-0.1)"/><rect class="cls-21" x="637.8" y="543.2" width="33.7" height="5.97" transform="translate(-0.6 0.7) rotate(-0.1)"/><rect class="cls-21" x="637" y="542.5" width="34.8" height="5.97" transform="translate(-0.6 0.7) rotate(-0.1)"/><polygon class="cls-21" points="657.4 542.5 657.4 552.4 656.8 551.5 656.1 552.4 655.5 551.5 654.9 552.4 654.2 551.5 653.6 552.4 653 551.5 652.4 552.4 652.3 542.5 657.4 542.5"/><rect class="cls-20" x="639.9" y="543.2" width="33.7" height="33.03" transform="translate(-0.6 0.7) rotate(-0.1)"/><rect class="cls-21" x="639.9" y="543.2" width="33.7" height="5.97" transform="matrix(1, 0, 0, 1, -0.62, 0.75)"/><rect class="cls-20" x="639" y="542.5" width="34.8" height="5.97" transform="translate(-0.6 0.7) rotate(-0.1)"/><polygon class="cls-22" points="659.4 542.5 659.4 552.4 658.8 551.5 658.2 552.4 657.5 551.5 656.9 552.4 656.3 551.5 655.7 552.4 655 551.5 654.4 552.4 654.4 542.5 659.4 542.5"/><g class="cls-58"><rect class="cls-59" x="131.7" y="111" width="5.2" height="16.55"/><rect class="cls-59" x="251" y="111" width="5.2" height="16.55"/><rect class="cls-8" x="175.8" y="111.6" width="34.3" height="14.51" rx="3.4"/><rect class="cls-8" x="138.3" y="126.2" width="111.3" height="3.36"/><path class="cls-8" d="M134.3,149.9h0a8.1,8.1,0,0,1-8.1-8.1V131.4a8.1,8.1,0,0,1,8.1-8.1h0a8.2,8.2,0,0,1,8.2,8.1v10.4A8.2,8.2,0,0,1,134.3,149.9Z"/><rect class="cls-17" x="102" y="107" width="64.7" height="1.24"/><path class="cls-8" d="M253.6,149.9h0a8.2,8.2,0,0,1-8.2-8.1V131.4a8.2,8.2,0,0,1,8.2-8.1h0a8.1,8.1,0,0,1,8.1,8.1v10.4A8.1,8.1,0,0,1,253.6,149.9Z"/><rect class="cls-17" x="221.2" y="107" width="64.7" height="1.24"/><rect class="cls-8" x="187.5" y="158.3" width="11" height="5.92"/><rect class="cls-25" x="163.8" y="170.2" width="57.3" height="58.49" transform="matrix(0, -1, 1, 0, -7.2, 391.73)"/><rect class="cls-21" x="187.3" y="146.8" width="10.4" height="58.49" transform="matrix(0, -1, 1, 0, 16.29, 368.31)"/><rect class="cls-25" x="162.8" y="169.6" width="60.4" height="10.36" transform="translate(385.8 349.9) rotate(-179.9)"/><polygon class="cls-20" points="187.8 169.6 187.8 186.9 188.9 185.3 190 186.9 191.1 185.3 192.2 186.9 193.3 185.3 194.4 186.9 195.4 185.3 196.5 186.9 196.6 169.6 187.8 169.6"/><polyline class="cls-60" points="168.2 228.5 159.3 228.5 159.3 164.2 226.7 164.2 226.7 228.2 216 228.2"/><rect class="cls-59" x="169.5" y="118.8" width="48.8" height="40.78" rx="4.5"/><rect class="cls-61" x="175" y="123.4" width="37.9" height="31.69" rx="4.1"/><rect class="cls-8" x="133.1" y="108.3" width="2.5" height="3.12"/><path class="cls-17" d="M137.1,107.9c0,1.5-5.5,1.5-5.5,0a2.8,2.8,0,1,1,5.5,0Z"/><rect class="cls-8" x="252.3" y="108.3" width="2.5" height="3.12"/><path class="cls-17" d="M256.3,107.9c0,1.5-5.5,1.5-5.5,0a2.8,2.8,0,1,1,5.5,0Z"/></g></g></g></svg>