<svg xmlns="http://www.w3.org/2000/svg" xmlns:xlink="http://www.w3.org/1999/xlink" viewBox="0 0 750 750"><defs><style>.cls-1{isolation:isolate;}.cls-2{fill:#b0affd;}.cls-3{opacity:0.7;}.cls-4{fill:#9797ef;}.cls-5{fill:#af835b;}.cls-6{fill:#e9a056;}.cls-7{fill:#ffc064;}.cls-8{fill:#ea8237;}.cls-9{fill:#ffc902;}.cls-10{fill:#3d38a0;}.cls-11,.cls-14{fill:#fff;}.cls-12{fill:#eaeaea;}.cls-13,.cls-14{opacity:0.5;}.cls-14{mix-blend-mode:screen;}.cls-15{fill:#fcfcfc;}.cls-16{fill:#e5c1c1;}.cls-17,.cls-23,.cls-26,.cls-27{fill:none;}.cls-17,.cls-23{stroke:#3d38a0;}.cls-17,.cls-23,.cls-26{stroke-miterlimit:10;}.cls-18{fill:#ff3131;}.cls-19{fill:#0e2368;}.cls-20{fill:#fcb692;}.cls-21{fill:#dd8b66;}.cls-22{fill:#1b254c;}.cls-23{stroke-width:2px;}.cls-24{fill:#1d357c;}.cls-25{fill:#827cdc;}.cls-26,.cls-27{stroke:#ffc902;}.cls-27{stroke-linecap:round;stroke-linejoin:round;stroke-width:1.09px;}.cls-28{fill:#a33f2c;}.cls-29{fill:#ff6344;}.cls-30{fill:#333745;}.cls-31{fill:#c2c2c2;}.cls-32{fill:#ff927d;}.cls-33,.cls-37,.cls-38,.cls-39,.cls-40{opacity:0.3;}.cls-34{fill:#3c57ab;}.cls-35{fill:#52586e;}.cls-36{fill:#414657;}.cls-37{fill:url(#linear-gradient);}.cls-38{fill:url(#linear-gradient-2);}.cls-39{fill:url(#linear-gradient-3);}.cls-41{fill:#5c37d4;}.cls-42{fill:#fefefe;}</style><linearGradient id="linear-gradient" x1="90.94" y1="407.95" x2="99.3" y2="416.05" gradientUnits="userSpaceOnUse"><stop offset="0"/><stop offset="1" stop-opacity="0"/></linearGradient><linearGradient id="linear-gradient-2" x1="86.11" y1="443.23" x2="98.92" y2="482.16" xlink:href="#linear-gradient"/><linearGradient id="linear-gradient-3" x1="51.74" y1="490.23" x2="43.94" y2="580.46" xlink:href="#linear-gradient"/></defs><title>process-get-01-01-01</title><g class="cls-1"><g id="Objects"><path class="cls-2" d="M487.3,568c.1.3,2-19.3,34.3-35.6s98.9-8.8,109.5-27.7-30.9-19.1-47.1-36.2-21.5-25.3,4-27.8,40.6-2.7,42.8-22.1,42-6.5,64.2-19,13.5-32.6-26.6-35.1-40.3-7.8-28.2-12.5,47.4-11.3,34-22.6-36.7-4.5-23.6-16,41.5-18.3,29.8-33.3-46.4-16.9-70.3,17.6-31,43.8-50.4,46.1-34.3-17.9-57.9-12.2S480.1,358.3,492,373s32.1,43.7,16.7,54.4S479.6,419,460.3,414c-21.4-5.5-48.3,9.9-31.1,39.8s48.4,54.4,41.5,118.5C476.2,570.7,481.7,569.3,487.3,568Z"/><g class="cls-3"><path class="cls-4" d="M477.8,571.4a1.3,1.3,0,0,0,1.4-.7c79.2-216.9,182.1-289.8,183.1-290.5a1.1,1.1,0,0,0,.3-1.6,1.3,1.3,0,0,0-1.7-.2c-1,.7-104.5,74-184,291.6a1.2,1.2,0,0,0,.8,1.4Z"/></g><g class="cls-3"><path class="cls-4" d="M597.8,345.9h.8c32-15.4,66.6-11.9,67-11.9a1.1,1.1,0,1,0,.3-2.2c-.4,0-35.7-3.6-68.3,12.1a1.1,1.1,0,0,0-.6,1.5A1.6,1.6,0,0,0,597.8,345.9Z"/></g><g class="cls-3"><path class="cls-4" d="M555.8,406.8a1.4,1.4,0,0,0,.9-.1,1.1,1.1,0,0,0,.3-1.6,432.1,432.1,0,0,0-56.5-63.9,1.2,1.2,0,0,0-1.7.1,1.1,1.1,0,0,0,0,1.5A422.9,422.9,0,0,1,555,406.4,1.2,1.2,0,0,0,555.8,406.8Z"/></g><g class="cls-3"><path class="cls-4" d="M564.3,393.2h.5c57.4-13.4,118.1-6.5,118.7-6.5a1,1,0,0,0,1.3-.9,1.1,1.1,0,0,0-1-1.3c-.6,0-61.7-6.9-119.5,6.6a1.1,1.1,0,0,0-.9,1.3A1.2,1.2,0,0,0,564.3,393.2Z"/></g><g class="cls-3"><path class="cls-4" d="M505.3,503.3h.6c39.7-11.6,102.6-6.1,103.2-6.1a1.1,1.1,0,0,0,1.3-1,1,1,0,0,0-1-1.2c-.6,0-64-5.5-104.1,6.2a1,1,0,0,0-.8,1.3A1.1,1.1,0,0,0,505.3,503.3Z"/></g><g class="cls-3"><path class="cls-4" d="M498.8,518.2h.5a1.1,1.1,0,0,0,.9-1.3c-10.3-45.6-49.7-85.4-50.1-85.8a1.4,1.4,0,0,0-1.7,0,1.1,1.1,0,0,0-.1,1.6c.4.4,39.5,39.7,49.6,84.7A1.1,1.1,0,0,0,498.8,518.2Z"/></g><polygon class="cls-5" points="582.1 488.3 582 523.1 583.8 519.8 585.6 523.1 587.4 519.8 589.2 523.2 591 519.8 592.7 523.2 594.5 519.8 596.3 523.2 596.3 488.4 582.1 488.3"/><rect class="cls-6" x="526.2" y="500.7" width="115.4" height="95.44" transform="translate(34.8 1131.7) rotate(-89.9)"/><rect class="cls-5" x="573.5" y="453.4" width="20.9" height="95.44" transform="translate(82.1 1084.5) rotate(-89.9)"/><rect class="cls-6" x="574.3" y="449.5" width="20.9" height="98.58" transform="translate(85.3 1082.9) rotate(-89.9)"/><polygon class="cls-7" points="576.3 488.3 576.3 523.1 578 519.8 579.8 523.1 581.6 519.8 583.4 523.1 585.2 519.8 586.9 523.1 588.7 519.8 590.5 523.2 590.5 488.4 576.3 488.3"/><rect class="cls-5" x="616.2" y="538.2" width="69.4" height="68.05" transform="translate(-0.6 0.7) rotate(-0.1)"/><rect class="cls-5" x="616.2" y="538.2" width="69.4" height="12.31" transform="translate(-0.6 0.7) rotate(-0.1)"/><rect class="cls-5" x="614.4" y="536.8" width="71.7" height="12.3" transform="translate(-0.6 0.7) rotate(-0.1)"/><polygon class="cls-5" points="656.4 536.8 656.5 557.3 655.2 555.3 653.9 557.3 652.6 555.3 651.3 557.3 650 555.3 648.7 557.3 647.4 555.4 646.1 557.3 646.1 536.8 656.4 536.8"/><rect class="cls-7" x="620.4" y="538.2" width="69.4" height="68.05" transform="translate(-0.6 0.7) rotate(-0.1)"/><rect class="cls-5" x="620.4" y="538.2" width="69.4" height="12.31" transform="matrix(1, 0, 0, 1, -0.62, 0.74)"/><rect class="cls-7" x="618.6" y="536.8" width="71.7" height="12.3" transform="translate(-0.6 0.7) rotate(-0.1)"/><polygon class="cls-8" points="660.7 536.8 660.7 557.3 659.4 555.3 658.1 557.3 656.8 555.3 655.5 557.3 654.2 555.3 652.9 557.3 651.6 555.3 650.3 557.3 650.3 536.8 660.7 536.8"/><path class="cls-2" d="M337.1,571.5c-.1.2-1.9-19.3-34.3-35.7s-98.8-8.7-109.5-27.7,30.9-19.1,47.1-36.2,21.5-25.3-4-27.8-40.6-2.7-42.8-22.1-42-6.4-64.2-18.9-13.5-32.7,26.6-35.2,40.3-7.7,28.3-12.4-47.4-11.4-34-22.7,36.7-4.4,23.6-15.9-41.6-18.4-29.8-33.3,46.3-16.9,70.2,17.5,31,43.9,50.4,46.1,34.3-17.9,58-12.1,21.6,26.7,9.7,41.4-32.1,43.6-16.7,54.4,29.1-8.4,48.4-13.4c21.4-5.5,48.3,9.8,31.1,39.7s-48.3,54.4-41.5,118.5C348.2,574.2,342.7,572.8,337.1,571.5Z"/><g class="cls-3"><path class="cls-4" d="M346.6,574.8a1,1,0,0,1-1.3-.7C266,357.2,163.1,284.4,162.1,283.6a1,1,0,0,1-.3-1.5,1.2,1.2,0,0,1,1.7-.2c1,.7,104.5,74,184,291.5a1.1,1.1,0,0,1-.7,1.4Z"/></g><g class="cls-3"><path class="cls-4" d="M226.6,349.3a.8.8,0,0,1-.8-.1c-32-15.4-66.6-11.8-66.9-11.8a1.2,1.2,0,0,1-1.4-1,1,1,0,0,1,1-1.2c.4,0,35.7-3.6,68.4,12.1a1.1,1.1,0,0,1,.5,1.5A1,1,0,0,1,226.6,349.3Z"/></g><g class="cls-3"><path class="cls-4" d="M268.7,410.3a1.8,1.8,0,0,1-1-.2,1,1,0,0,1-.3-1.5,432.1,432.1,0,0,1,56.5-63.9,1.4,1.4,0,0,1,1.7,0,1.2,1.2,0,0,1,0,1.6,430.6,430.6,0,0,0-56.2,63.5A1.5,1.5,0,0,1,268.7,410.3Z"/></g><g class="cls-3"><path class="cls-4" d="M260.1,396.7h-.5c-57.4-13.4-118.1-6.6-118.7-6.5a1.2,1.2,0,0,1-1.3-1c-.1-.6.2-1.1,1-1.2s61.7-7,119.5,6.5a1.3,1.3,0,0,1,.9,1.4A1.2,1.2,0,0,1,260.1,396.7Z"/></g><g class="cls-3"><path class="cls-4" d="M319.1,506.7a.6.6,0,0,1-.6,0c-39.7-11.5-102.6-6.1-103.2-6s-1.3-.4-1.3-1a1.1,1.1,0,0,1,1-1.2c.6-.1,64-5.6,104.1,6.1a1.1,1.1,0,0,1,.8,1.4A.8.8,0,0,1,319.1,506.7Z"/></g><g class="cls-3"><path class="cls-4" d="M325.6,521.7h-.5a1.1,1.1,0,0,1-.9-1.3c10.3-45.7,49.8-85.4,50.1-85.8a1.2,1.2,0,0,1,1.7,0,1,1,0,0,1,.1,1.5c-.4.4-39.5,39.7-49.6,84.8A1.2,1.2,0,0,1,325.6,521.7Z"/></g><path class="cls-9" d="M507.5,173.7V546.1a30.9,30.9,0,0,1-31,30.9H323.8a30.9,30.9,0,0,1-31-30.9V173.7a30.9,30.9,0,0,1,31-30.9H476.5A30.9,30.9,0,0,1,507.5,173.7Z"/><path class="cls-9" d="M508.3,173.7v5.2H293.7v-5.2a30.9,30.9,0,0,1,30.9-30.9H477.4A30.9,30.9,0,0,1,508.3,173.7Z"/><path class="cls-9" d="M508.3,541v5.1A30.9,30.9,0,0,1,477.4,577H324.6a30.9,30.9,0,0,1-30.9-30.9V541Z"/><path class="cls-10" d="M512.1,313.1h-3.8v-82h3.8a2.1,2.1,0,0,1,2.1,2.1V311A2.1,2.1,0,0,1,512.1,313.1Z"/><path class="cls-10" d="M293.7,269.6h-3.6a2,2,0,0,1-1.9-1.9V231.6a2,2,0,0,1,1.9-1.9h3.6Z"/><path class="cls-10" d="M293.7,313.1h-3.1a1.8,1.8,0,0,1-1.7-1.7V290.2a1.8,1.8,0,0,1,1.7-1.7h3.1Z"/><path class="cls-11" d="M370.2,160.8a6.1,6.1,0,1,1-6.1-6.1A6.1,6.1,0,0,1,370.2,160.8Z"/><path class="cls-11" d="M383.5,160.8a3,3,0,1,1-5.9,0,3,3,0,0,1,5.9,0Z"/><rect class="cls-11" x="390.8" y="157.2" width="56.4" height="7.31" rx="1.3"/><rect class="cls-12" x="298.4" y="178.9" width="203.5" height="362.11"/><g class="cls-13"><polygon class="cls-14" points="433.1 178.9 298.4 385.2 298.4 270.3 358.1 178.9 433.1 178.9"/><polygon class="cls-14" points="489.8 178.9 298.4 472.1 298.4 418.9 455 178.9 489.8 178.9"/><polygon class="cls-14" points="501.9 298.9 501.9 352.1 378.5 541.3 343.7 541.3 501.9 298.9"/></g><path class="cls-9" d="M522,538.4a4.2,4.2,0,0,1,.1,1.5,11.2,11.2,0,0,0,.4-3.2,237.1,237.1,0,0,1,8.6-24.5c.7-1.6,1.4-3.2,2.2-4.8,3.8-1.4,13-2.3,15.4-3.1,5-1.6,11.4-3.5,15.6-6.8,1.7-1.4,5.9-6.2,3.7-8.6s-11.2,2.8-13.4,4.2c-4.7,3.1-9,7-14,9.6a45.2,45.2,0,0,0-6.9,3.6,194.1,194.1,0,0,1,11.1-20.6c3.7-1.5,13.2-2.3,15.6-3.1,5-1.7,11.5-3.5,15.6-6.9,1.7-1.4,5.9-6.1,3.7-8.6s-11.2,2.8-13.3,4.2c-4.8,3.2-9,7-14.1,9.6-2.3,1.2-4.8,2.1-6.8,3.6A168.8,168.8,0,0,1,560,464.6c3.7-4.4,7.6-8.5,11.6-12.4,4.5.2,10.6,1.2,12.6,1.1,5.3-.2,12-.3,16.9-2.5,2-.9,7.3-4.4,5.8-7.3s-11.6-.2-14,.6c-5.4,1.7-10.5,4.3-16.1,5.5l-3,.5a176.8,176.8,0,0,1,17.8-14.3c1.8.4,3.8.5,5.7.8,4.8.6,9.4,2.5,14.1,3.7,2.2.5,10.9,2.5,12-.5s-3.7-5.2-5.5-5.8c-4.4-1.5-10.1-1.2-14.6-1.1-1.6.1-6.2,1.2-9.9,1.7,2.9-2,6-3.9,9.1-5.8a166.5,166.5,0,0,1,15.2-7.7c2.2.8,4.7.8,7.1,1.1,4.8.7,9.4,2.6,14.1,3.7,2.1.5,10.8,2.5,12-.4s-3.8-5.2-5.6-5.9c-4.3-1.5-10-1.1-14.5-1-1.9,0-7.8,1.5-11.7,1.9a149.1,149.1,0,0,1,21.6-7.5,42.2,42.2,0,0,0,6.1.7c4.8.6,9.5,2.4,14.2,3.4,2.2.5,10.9,2.3,12-.6s-3.9-5.2-5.7-5.8c-4.3-1.4-10-.9-14.5-.7l-2.8.4a117.8,117.8,0,0,0-11.7,1.7h0a137.2,137.2,0,0,0-15.6,4,53.3,53.3,0,0,0,4-4.2c3.4-3.4,7.6-5.9,11.4-9,1.6-1.4,8.4-7.1,6.8-9.9s-6.4-.2-8,.9c-3.8,2.5-6.9,7.3-9.5,11-1.2,1.7-4.2,8.9-6.3,11.7a114,114,0,0,0-14,5.7,38.4,38.4,0,0,0,4.1-5.6c2.8-4,6.6-7.1,9.8-10.7,1.5-1.7,7.3-8.4,5.2-10.8s-6.3.8-7.7,2.1c-3.3,3-5.7,8.3-7.7,12.3-1,2-3,10.4-4.7,13.1l-5.5,2.8a150.8,150.8,0,0,0-21.4,13.9c.3-1.3.5-2.7.8-4.1,1.1-4.7,3.4-9.1,4.9-13.7.7-2.1,3.5-10.5.7-12s-5.5,3.2-6.3,4.9c-1.9,4.2-2.1,9.9-2.4,14.4-.1,1.9.8,7.8.9,11.7a152.2,152.2,0,0,0-18.1,16.9c.5-1.6.9-3.2,1.5-4.6a98.5,98.5,0,0,1,4.4-10.6,64.6,64.6,0,0,1,9.8-15,3.1,3.1,0,0,0-3.1-5.1H572c-4.8,1.5-7.2,6.6-9.1,11.2s-9.4,22.5-6.7,28.1a156.1,156.1,0,0,0-16.3,23.2c1.1-4.5,3.2-8.8,4.7-13.2.7-2.1,3.5-10.6.7-12s-5.5,3.1-6.3,4.9c-1.9,4.1-2,9.9-2.3,14.4-.1,1.6.5,6.5.7,10.3a181.3,181.3,0,0,0-9.4,20.6,26.4,26.4,0,0,1-.2-2.8c-.2-4.9,1-9.7,1.3-14.5.2-2.2.7-11.1-2.3-11.9s-4.6,4.5-4.9,6.4c-.8,4.5.5,10.1,1.3,14.6.4,1.8,2.7,7.3,3.7,11.1-2,5.4-3.7,10.9-5.2,16.5-.2-4.3.3-8.7.3-13,0-2.2-.1-11.1-3.3-11.6s-4.1,4.8-4.3,6.7c-.4,4.6,1.3,10.1,2.5,14.4.3,1.5,2.2,5.2,3.6,8.6-2.5,10.6-13,20.4-13.6,31.2C508.3,556,519.4,547.6,522,538.4Z"/><path class="cls-9" d="M281.5,315.7a3.6,3.6,0,0,0,0,1.5,11.6,11.6,0,0,1-.7-3.1,241.7,241.7,0,0,0-10.5-23.8l-2.5-4.7c-4-1-13.2-1.2-15.7-1.8-5.1-1.2-11.7-2.5-16-5.5-1.9-1.3-6.4-5.7-4.4-8.3s11.4,1.9,13.6,3.1c5,2.8,9.5,6.3,14.8,8.4a56.4,56.4,0,0,1,7.1,3.1,193.4,193.4,0,0,0-12.6-19.7c-3.9-1.1-13.4-1.2-15.9-1.8-5.1-1.3-11.7-2.6-16.1-5.6-1.8-1.3-6.3-5.7-4.3-8.3s11.4,1.9,13.6,3.2c5,2.7,9.5,6.2,14.8,8.4,2.3,1,4.9,1.7,7,3a167.9,167.9,0,0,0-16-18.7q-6-6-12.6-11.4c-4.4.6-10.4,2-12.4,2.1-5.3.2-12,.6-17-1.2-2.1-.7-7.6-3.7-6.4-6.8s11.5-1.1,14-.5c5.5,1.3,10.9,3.5,16.5,4.2l3,.3A173.6,173.6,0,0,0,204,218.9c-1.9.6-3.8.9-5.7,1.3-4.7,1-9.2,3.2-13.8,4.7-2.1.7-10.6,3.4-12,.6s3.4-5.5,5.1-6.3c4.2-1.9,9.9-2,14.4-2.2,1.6-.1,6.3.6,10.1.9-3.1-1.8-6.3-3.5-9.5-5.1-5.2-2.4-10.5-4.6-15.8-6.5-2.2,1-4.7,1.2-7,1.7-4.8,1-9.2,3.3-13.8,4.8-2.1.7-10.6,3.4-12,.5s3.4-5.5,5.1-6.2c4.2-1.9,9.9-2,14.4-2.2,1.9-.1,7.9.8,11.8.9a152.5,152.5,0,0,0-22.1-5.7,54.9,54.9,0,0,1-6.1,1.2c-4.7.9-9.2,3.1-13.8,4.5-2.1.6-10.7,3.2-12,.3s3.4-5.4,5.2-6.2c4.2-1.7,9.9-1.7,14.4-1.9l2.8.2a115,115,0,0,1,11.8.8l.3-.2-.3.2a120.1,120.1,0,0,1,15.9,2.8c-1.5-1.2-2.9-2.6-4.4-3.9-3.6-3.2-8-5.3-12-8.1-1.8-1.3-9-6.4-7.6-9.3s6.4-.7,8,.2c4,2.3,7.5,6.8,10.4,10.2,1.4,1.7,4.9,8.6,7.2,11.3a120.1,120.1,0,0,1,14.4,4.5,46.5,46.5,0,0,1-4.5-5.3c-3.1-3.7-7.1-6.5-10.6-9.9-1.6-1.5-7.9-7.7-6.1-10.3s6.4.3,7.9,1.4c3.5,2.8,6.3,7.9,8.6,11.7,1.2,2,3.8,10.1,5.8,12.8l5.7,2.3a147.2,147.2,0,0,1,22.4,12.2l-1.2-4.1c-1.4-4.6-4-8.8-5.9-13.2-.9-2.1-4.3-10.3-1.7-12s5.8,2.8,6.7,4.4c2.2,4,2.8,9.7,3.5,14.2.3,1.8-.1,7.8.1,11.7A158.9,158.9,0,0,1,237.4,238a44.8,44.8,0,0,0-1.8-4.4c-1.6-3.5-3.3-6.9-5.2-10.3a68.6,68.6,0,0,0-11-14.1,3.1,3.1,0,0,1,2.7-5.3h.3c4.9,1.2,7.7,6,10,10.5s11.1,21.6,8.9,27.4a164.5,164.5,0,0,1,18.1,21.9c-1.5-4.5-4-8.5-5.8-12.8-.9-2-4.3-10.3-1.6-12s5.7,2.8,6.6,4.4c2.2,4,2.9,9.7,3.5,14.2.3,1.7,0,6.6.1,10.4a174.5,174.5,0,0,1,11,19.8v-2.8c-.3-4.9-1.7-9.6-2.5-14.4-.3-2.2-1.6-11,1.4-12s4.9,4.1,5.4,5.9c1.1,4.5.3,10.1-.2,14.7-.2,1.8-2.1,7.5-2.8,11.3,2.4,5.3,4.6,10.6,6.5,16.1-.1-4.3-1-8.6-1.3-12.9-.2-2.2-.8-11.1,2.3-11.9s4.5,4.5,4.9,6.4c.8,4.5-.5,10.1-1.3,14.6-.3,1.4-1.9,5.3-3,8.7,3.3,10.4,14.6,19.4,16.1,30.1C296.4,332.2,284.8,324.7,281.5,315.7Z"/><path class="cls-11" d="M344.2,342.9A63.9,63.9,0,1,1,408.1,279,64,64,0,0,1,344.2,342.9Zm0-126.9a63,63,0,1,0,63,63A63,63,0,0,0,344.2,216Z"/><path class="cls-11" d="M509.9,419.2a51.4,51.4,0,1,1,51.4-51.3A51.3,51.3,0,0,1,509.9,419.2Zm0-101.8a50.5,50.5,0,1,0,50.4,50.5A50.5,50.5,0,0,0,509.9,317.4Z"/><path class="cls-15" d="M434.1,195.3H395.9a.9.9,0,1,1,0-1.8h38.2a.9.9,0,0,1,0,1.8Z"/><path class="cls-16" d="M415,295.7a40.3,40.3,0,1,1,40.3-40.2A40.3,40.3,0,0,1,415,295.7Zm0-80a39.8,39.8,0,1,0,39.8,39.8A39.8,39.8,0,0,0,415,215.7Z"/><path class="cls-15" d="M513.1,273.2a5.4,5.4,0,1,1,5.4-5.4A5.4,5.4,0,0,1,513.1,273.2Zm0-10.3a5,5,0,1,0,0,9.9,5,5,0,0,0,0-9.9Z"/><path class="cls-15" d="M513.1,287a5.4,5.4,0,1,1,5.4-5.4A5.4,5.4,0,0,1,513.1,287Zm0-10.4a5.1,5.1,0,0,0-5,5,5,5,0,0,0,5,4.9,4.9,4.9,0,0,0,4.9-4.9A5,5,0,0,0,513.1,276.6Z"/><path class="cls-17" d="M435.6,271H398l-10.1-29.5h59.9v.2Zm-37.3-.4h37.1l11.8-28.8H388.4Z"/><polygon class="cls-17" points="437.3 276.2 404.9 276.2 404.9 275.8 436.8 275.8 435.3 270.9 435.7 270.8 437.3 276.2"/><path class="cls-17" d="M404.9,284.2A4.2,4.2,0,1,1,409,280,4.1,4.1,0,0,1,404.9,284.2Zm0-8a3.8,3.8,0,1,0,0,7.6,3.8,3.8,0,0,0,0-7.6Z"/><path class="cls-17" d="M430,284.2a4.2,4.2,0,0,1,0-8.4,4.2,4.2,0,0,1,0,8.4Zm0-8a3.8,3.8,0,1,0,3.8,3.8A3.8,3.8,0,0,0,430,276.2Z"/><polygon class="cls-17" points="447.7 241.6 447.3 241.6 447.3 237.7 456.5 237.7 456.5 238.1 447.7 238.1 447.7 241.6"/><circle class="cls-18" cx="378.9" cy="234.5" r="13.5"/><polygon class="cls-15" points="376.5 240.1 370.5 234.2 370.9 233.8 376.5 239.5 386.9 229 387.3 229.4 376.5 240.1"/><path class="cls-19" d="M266.8,388h0c-.3,0-.5-.2-.4-.5s1.2-11.7-7.2-12.9a5.9,5.9,0,0,0-4.9,1.3c-3.3,2.9-3.3,9.3-3.3,9.4a.5.5,0,0,1-.5.5.5.5,0,0,1-.4-.5c0-.3,0-6.9,3.6-10.1a6.9,6.9,0,0,1,5.7-1.5c9.2,1.3,7.9,13.8,7.9,13.9A.7.7,0,0,1,266.8,388Z"/><polygon class="cls-18" points="276.3 475 228.7 468.4 243.2 381.4 285.9 387.3 276.3 475"/><polygon class="cls-9" points="267.5 473.8 220 467.2 234.5 380.2 277.2 386.1 267.5 473.8"/><polygon class="cls-19" points="276.3 475 271.8 472.3 267.5 473.8 276.3 475"/><path class="cls-18" d="M264.4,387.7h-.2c-.2-.1-.4-.4-.3-.6s2-6.3-.3-9.9a5.8,5.8,0,0,0-4.4-2.6c-8.3-1.1-10.6,10.3-10.7,10.5a.3.3,0,0,1-.5.3c-.3,0-.4-.3-.4-.5s2.5-12.5,11.8-11.2a6.7,6.7,0,0,1,5,3c2.5,4,.5,10.4.4,10.7S264.6,387.7,264.4,387.7Z"/><path class="cls-19" d="M275.9,236.6c-8.3,4.8-9.5,16.5-8.1,27.2s-.2,16.7-.2,16.7,13.8,6.3,45.8-4.6c0,0-7.1-15.6-7.7-27.7S290,228.4,275.9,236.6Z"/><path class="cls-20" d="M250.6,600.1h-1a4.5,4.5,0,0,1-3.3-5.4,222.9,222.9,0,0,0,5.2-27.6,4.5,4.5,0,0,1,4.9-3.9,4.4,4.4,0,0,1,3.9,4.9,231.9,231.9,0,0,1-5.4,28.7A4.4,4.4,0,0,1,250.6,600.1Z"/><path class="cls-10" d="M313.2,347.7l-31.5,4s-23.9,101.4-24.8,125.7h0c-1.6,16.1-11.1,90.7-10.8,98.1.2,4.1,15.1,7.1,16.2,4.6,1.7-4.1,20.2-74.8,16.8-100,2.1-7.5,30.7-72.6,35.5-90.8S313.2,347.7,313.2,347.7Z"/><path class="cls-20" d="M436.7,538.2a5,5,0,0,1-2.4-.6c-14.9-9.4-24.7-14.1-24.8-14.2a4.4,4.4,0,0,1-2.2-5.8,4.5,4.5,0,0,1,5.9-2.2c.5.2,10.5,5,25.8,14.7a4.4,4.4,0,0,1-2.3,8.1Z"/><path class="cls-20" d="M292.7,268c.9,2.8,1.5,5.7,2.2,8.5l.9,4.2.5,2.1.3,1c0,.3,0,.7-.8,1.3l-.6.5a9.7,9.7,0,0,1-7.1,2.2c-.9-.1-1.3-.4-1.4-.8l-.4-1.2-.8-2.3-1.2-4.5-.9-4.5a38.7,38.7,0,0,1-.6-4.6,5.1,5.1,0,0,1,4.7-5.5,5,5,0,0,1,5.2,3.6Z"/><path class="cls-19" d="M292.4,272.8c-1.8,5.9-9.2,8.4-11.6,3.5S292.4,272.8,292.4,272.8Z"/><path class="cls-20" d="M300.2,249.2a29.8,29.8,0,0,1,.9,8.3,33,33,0,0,1-.9,8.3,14.7,14.7,0,0,1-28.4,0l-.4-1.4a30.9,30.9,0,0,1-.7-7.4,27.2,27.2,0,0,1,1.2-7.3l.4-1.3a14.6,14.6,0,0,1,27.9.8Z"/><path class="cls-21" d="M280.6,265.9,278,265v-.4a13.9,13.9,0,0,0,.7-5.8h.9a14.9,14.9,0,0,1-.6,5.7l1.8.6Z"/><path class="cls-21" d="M287.2,269.2l-.2-.9a7.9,7.9,0,0,0,4.6-3.8l.8.3A7.7,7.7,0,0,1,287.2,269.2Z"/><path class="cls-22" d="M288.5,257a.4.4,0,0,0-.3-.5,11.2,11.2,0,0,1-2.5-.9.5.5,0,0,0-.6.2.6.6,0,0,0,.2.7l.9.4a1.2,1.2,0,0,0-.3.9,1.2,1.2,0,0,0,1.3,1.2,1.4,1.4,0,0,0,1.2-1.4c0-.1-.1-.2-.1-.3S288.5,257.2,288.5,257Z"/><path class="cls-22" d="M276.2,257.9a.5.5,0,0,0-.3-.6,9,9,0,0,1-2.5-.8.4.4,0,1,0-.4.8l1,.4a1.2,1.2,0,0,0,.9,2.1,1.2,1.2,0,0,0,1.2-1.3c0-.1-.1-.2-.1-.3S276.2,258,276.2,257.9Z"/><path class="cls-10" d="M429.2,520.7c-5.9-4.1-54.4-40.8-81.2-47.2-2.1-20.3-7-80.5-10.2-96.6-3.7-18.5-19.7-29.8-19.7-29.8l-27.3,3.5s26.4,110.2,36.4,133.1c1.4,3.9,5.1,7.9,10.4,10.2,15.3,6.6,74.8,36.8,81.8,39.4C423.3,534.7,430.7,521.7,429.2,520.7Z"/><path class="cls-11" d="M317.6,391.6c-.2,0-.4-.1-.4-.3s-1.9-6.6.8-10.6a6.8,6.8,0,0,1,5.1-3c9.2-1.1,11.2,11.2,11.2,11.3a.5.5,0,0,1-.4.6c-.2,0-.5-.2-.5-.4s-1.9-11.6-10.2-10.6a6,6,0,0,0-4.4,2.6c-2.4,3.6-.8,9.8-.7,9.9s-.1.5-.4.5Z"/><polygon class="cls-19" points="363.6 454.6 316.2 460.6 309.6 389.3 352.1 383.9 363.6 454.6"/><polygon class="cls-9" points="354.9 455.7 307.5 461.7 303 390.1 343.4 385 354.9 455.7"/><polygon class="cls-18" points="363.6 454.6 358.7 453.5 354.9 455.7 363.6 454.6"/><path class="cls-18" d="M315.2,392a.5.5,0,0,1-.5-.5c0-.1-.8-12.6,8.4-13.8a6.9,6.9,0,0,1,5.6,1.6c3.4,3.2,3.2,9.9,3.2,10.1s-.3.5-.5.5a.5.5,0,0,1-.5-.5c0-.1.3-6.5-2.9-9.4a5.6,5.6,0,0,0-4.8-1.4c-8.3,1.1-7.6,12.7-7.6,12.9s-.1.4-.4.4Z"/><path class="cls-18" d="M326.2,435.1a11.1,11.1,0,0,1-7.2-2.5,11.4,11.4,0,0,1-4.1-7.9,12.5,12.5,0,0,1,10.8-13.3,11.2,11.2,0,0,1,12.7,10.3h0A12.5,12.5,0,0,1,327.7,435Zm1-22.9h-1.4a11.6,11.6,0,0,0-10,12.3,10.7,10.7,0,0,0,3.8,7.3,10.3,10.3,0,0,0,7.9,2.2,11.6,11.6,0,0,0,10-12.3,10.3,10.3,0,0,0-3.8-7.3A10.1,10.1,0,0,0,327.2,412.2Z"/><path class="cls-20" d="M335.4,331.5c-.1-1.1-.2-2.2-.4-3.3l-.3-1.6a11.6,11.6,0,0,0-.4-1.8,56.5,56.5,0,0,0-2.2-6.2c-1.7-3.8-3.5-7.5-5.5-11a203.7,203.7,0,0,0-12.8-20.3,6.4,6.4,0,0,0-2.5-1.9,7.5,7.5,0,0,0-4.8-1.8h-3.8a69.9,69.9,0,0,0-21.8,2.8l-3,.8a8.3,8.3,0,0,0-4.4,3.6,4.5,4.5,0,0,0-1,2.7l-.7,10.5c-.2,3.4-.4,6.9-.7,10.4s-.5,6.9-.9,10.3a52.5,52.5,0,0,1-1.5,9.5c-1.8,6.4-4,13.1-6.4,19.5a69.9,69.9,0,0,1-4.2,9.2l-1.2,2-.4.7a4.9,4.9,0,0,0-.6,1.3,8.9,8.9,0,0,0-.7,1.9,31.3,31.3,0,0,0-.4,5.9h0a3.7,3.7,0,0,0,3.7,3.6,3.7,3.7,0,0,0,3.7-3.7c0-1.7,0-3.4.1-4.6v-.6l.3-.4,1.7-2.4a101.4,101.4,0,0,0,5.5-9.5c1.7-3.2,3.3-6.4,4.8-9.7s2.8-6.7,4-10.3a63.6,63.6,0,0,0,1.6-7c1.7,13,1.8,21.9,1.5,21.7l36.4-4.6a307,307,0,0,1-4.3-39.8l3.3,5.7c1.9,3.3,3.7,6.6,5.2,9.9a38.9,38.9,0,0,1,2,4.9l.3,1,.3,1.3a20.2,20.2,0,0,1,.4,2.6,74.3,74.3,0,0,1-.6,22,111.3,111.3,0,0,1-2.3,11.2c-.3.9-.5,1.9-.8,2.8a15.5,15.5,0,0,1-.9,2.9,12.4,12.4,0,0,0-.9,3.3,14.5,14.5,0,0,0-.2,3.6,3.7,3.7,0,0,0,3.6,3.5,3.6,3.6,0,0,0,3.7-3.7h0a16.4,16.4,0,0,1,.2-2.3,19.7,19.7,0,0,1,.3-2.4,9.3,9.3,0,0,1,.4-1.3l.5-1.4c.4-1,.7-1.9,1-2.9,1.4-3.8,2.5-7.7,3.6-11.6a97.3,97.3,0,0,0,2.3-12.2A53.8,53.8,0,0,0,335.4,331.5Z"/><path class="cls-19" d="M301.9,239.6c-5.5-6.3-29.9-6.7-31.6,6.2l-1.2,1c2.2,6.5,11.8,9.3,14.7,9.9a28.3,28.3,0,0,1-4.9-5.2,23.8,23.8,0,0,0,10.9,3.6,28.5,28.5,0,0,0,9.1,3.7l-.4-.4a5.7,5.7,0,0,0,2.4-.8C306.9,253.6,307.1,245.6,301.9,239.6Z"/><path class="cls-20" d="M298.3,258.1c1.5-7.8,8.2-2.4,5.9,3.1S296.3,268.4,298.3,258.1Z"/><path class="cls-2" d="M299,283.9a118.9,118.9,0,0,1-24.3,15.6,5.2,5.2,0,0,0-2.9,3.8l-1.4,7.9c-1,6,1.7,9.7,5,10.8a173.8,173.8,0,0,1,4,19.3c1,6,.2,10.7,3.1,10.7,5.2-.1,10.9-1.6,15.5-2.2s20.5-1.6,20.8-3-3.5-22.6-3.9-36.9c-.1-3.4-4.4-6.3-4.7-14.7s6.2-13.3-9-12.2A4.3,4.3,0,0,0,299,283.9Z"/><path class="cls-11" d="M299.6,320.9h-.1a51.2,51.2,0,0,0-19-3.1h0c-.1,0-.2,0-.2-.2a.2.2,0,0,1,.2-.2,52.7,52.7,0,0,1,19.1,3c.2.1.2.2.2.3Z"/><path class="cls-11" d="M296.6,323.7h-.1a28.7,28.7,0,0,0-9.9-2.9c-.2,0-.3-.1-.3-.2s.1-.2.3-.2a29.1,29.1,0,0,1,10.1,2.9c.2.1.2.2.1.3A.2.2,0,0,1,296.6,323.7Z"/><path class="cls-18" d="M429.8,541.8l5.3,2.3-1.3,11.4,11.7-20.7a5.1,5.1,0,0,0-1.6-6.6l-4-2.9a3.4,3.4,0,0,0-4.8.9l-6.8,10.7A3.5,3.5,0,0,0,429.8,541.8Z"/><path class="cls-18" d="M241.4,591.3l-.7,8.8-11.4,5.3,23.7,3.4c2.6.4,5.1-2.3,6-6.2l1.5-7.4c.7-2.9-.4-5.8-2.3-6.2l-12.6-2.8C243.6,585.7,241.6,588.2,241.4,591.3Z"/><path class="cls-11" d="M243.3,593.4c-1,0-2.8-.5-4.1-3.3q-.4-1.1,0-1.5c.1-.2.5-.4,1.2-.1a5.9,5.9,0,0,1,3.9,4.5c0,.1-.1.2-.2.3Zm-3.5-4.6h-.3a1.2,1.2,0,0,0,.1,1c1.5,3.3,3.6,3.1,4.2,3a6,6,0,0,0-3.5-4Z"/><path class="cls-11" d="M245.2,593.5h-1.1c0-.1-.1-.1-.1-.2s-.3-1.8,3.6-4.3c.9-.6,1.6-.7,2-.3s.3,1.3-.3,2.3A4.9,4.9,0,0,1,245.2,593.5Zm-.8-.5a4.4,4.4,0,0,0,4.5-2.3c.5-.9.6-1.6.4-1.8s-.7-.1-1.5.4C244.8,591.3,244.5,592.6,244.4,593Z"/><path class="cls-11" d="M303.9,237.3a1.8,1.8,0,0,0-1.4-.6c-1.6.1-3.5,2.2-4.1,3h-.5s-1.2-.1-2.7,1.8c-1.3-.1-3.4-.2-4.5.7a1.7,1.7,0,0,0-.6,1.4c.1,2.9,1.6,6,3.2,6.6h.5a1.6,1.6,0,0,0,1.4-.8,33,33,0,0,0,2.3-4.2h.5a2.7,2.7,0,0,0,2-1.4,15.9,15.9,0,0,0,3.9,1,2.2,2.2,0,0,0,2.1-1.2C306.6,242,305.8,239.4,303.9,237.3ZM294.8,249a1.1,1.1,0,0,1-1.4.6c-1.4-.4-2.8-3.4-2.8-6.1a1.1,1.1,0,0,1,.4-1c1-.9,3.4-.8,5.1-.5h0a3.9,3.9,0,0,1,1.3,2.1A30.3,30.3,0,0,1,294.8,249Zm3.2-4.4h-.1c.2-.9-1.1-2.9-2-3.3h0c1.1-1.3,1.9-1.2,2-1.2a2.7,2.7,0,0,1,1.1.5,2.2,2.2,0,0,1,.8,2.4A2.2,2.2,0,0,1,298,244.6Zm7.6-1.3a1.8,1.8,0,0,1-1.7.9,14.4,14.4,0,0,1-3.7-1h0a2.5,2.5,0,0,0-.9-2.8l-.5-.4c1.1-1.3,2.6-2.7,3.7-2.7h.1a1,1,0,0,1,.9.4C305.3,239.6,306.1,242,305.6,243.3Z"/><path class="cls-19" d="M286.8,294.3c-1.9,0-3.2-.5-4-1.6s-.3-6.8-.2-7,.1-.2.3-.1.1.1.1.3-1.6,4.3.1,6.5,2.6,1.6,5,1.4c9.1-1.1,9.9-9.9,9.9-10.3s.1-.2.3-.2.2.2.2.3-.8,9.5-10.4,10.6Z"/><path class="cls-9" d="M507.4,431.6c-10.6,12.4-11.1-5.2-8.9-21.8,1.5-11.5-9.6-21.2-12.5-13.1-6.3,18.3-15.2,1.3-29-6.7s-23.6,3.2-13.8,9.1c17.6,10.5,17.8,27.7,6.8,24.1-8.6-2.8-9.5,9.9-1.9,15.2,11.9,8.3,28.2,21,13.6,23.5s-4,16.1,9.5,17.4c16.4,1.5,28.3,3.7,34,11.2,0,0,2.3-19.9,7.2-35.9C519.4,432.1,514.3,423.4,507.4,431.6Z"/><path class="cls-23" d="M513.2,540.7a.5.5,0,0,1-.4-.5c-5.9-63.1-18.2-111-59.5-139.6a.5.5,0,1,1,.6-.8c41.5,28.8,53.9,77,59.8,140.4a.7.7,0,0,1-.4.5Z"/><path class="cls-19" d="M535.9,512l-1.1,17.6-.7,12.6-.2,3.1-.7,12.6-3.7,64.5a9,9,0,0,1-8.9,8.4H505.2a8.8,8.8,0,0,1-8.8-8.4l-3.8-64.5-.7-12.6-.2-3.1-.7-12.6L490,512Z"/><polygon class="cls-24" points="534.8 529.6 534.1 542.2 491.7 542.2 491 529.6 534.8 529.6"/><polygon class="cls-24" points="533.9 545.3 491.9 545.3 492.6 557.9 533.2 557.9 533.9 545.3"/><rect class="cls-2" x="447.6" y="249.4" width="110.7" height="65.65" rx="2.9" transform="translate(-37.8 81.8) rotate(-9)"/><rect class="cls-11" x="455.6" y="265.4" width="24.8" height="17.36" rx="1.7" transform="translate(-37 76.3) rotate(-9)"/><path class="cls-15" d="M459,299.4l-1.3-8.5,20.6-3.2,1.4,8.4Zm-.8-8.1,1.2,7.5,19.7-3.1-1.1-7.5Z"/><path class="cls-15" d="M482.5,295.7l-1.3-8.5,20.6-3.2,1.3,8.4Zm-.8-8.1,1.2,7.5,19.7-3.1-1.2-7.5Z"/><rect class="cls-11" x="540.4" y="290.8" width="10.9" height="7.24" transform="translate(-39.2 88.7) rotate(-9)"/><rect class="cls-19" x="527.9" y="292.8" width="10.9" height="7.24" transform="translate(-39.7 86.7) rotate(-9)"/><rect class="cls-19" x="514.9" y="294.8" width="10.9" height="7.24" transform="translate(-40.2 84.8) rotate(-9)"/><path class="cls-15" d="M506,292l-1.4-8.5,20.7-3.2,1.3,8.4Zm-.8-8.1,1.1,7.5,19.8-3.1-1.2-7.5Z"/><path class="cls-15" d="M529.4,288.3l-1.3-8.5,20.6-3.2,1.4,8.4Zm-.8-8.1,1.2,7.5,19.7-3.1-1.1-7.5Z"/><path class="cls-15" d="M538.3,269.2a7.9,7.9,0,0,1-1.2-15.7,7.8,7.8,0,0,1,9,6.5h0a7.9,7.9,0,0,1-6.5,9.1Zm0-15.4h-1.1a7.4,7.4,0,0,0-6.2,8.5,7.3,7.3,0,0,0,8.5,6.2,7.4,7.4,0,0,0-1.2-14.8Z"/><path class="cls-19" d="M535.6,261.7a7.7,7.7,0,1,1-8.8-6.4A7.8,7.8,0,0,1,535.6,261.7Z"/><path class="cls-25" d="M433,362.8h-.3l-20.2-3.3c6.2-.1,15.9-1.1,18.5-5.3,1.2-2,.8-4.5-1.4-7.5a6.3,6.3,0,0,0-5.4-2.8c-6.9.2-14.7,10.7-17,14.1-.9-3.9-4.3-16.2-10.7-18.5a6.8,6.8,0,0,0-6.2,1c-3.1,2.1-4.5,4.3-4.1,6.5.9,4.8,9.6,8.7,15.4,10.8l-19-3c-.2-.1-.4.1-.5.3l-1.4,7.3a.4.4,0,0,0,.1.3l.3.2,2.5.4-2,10.4h0l-2.3,11.8h0l-2.1,10.8a.5.5,0,0,0,.4.5l15.6,2.5h0l13,2.1h0l15.5,2.5h.1a.4.4,0,0,0,.4-.4l6.4-33.1,2.5.4h.1a.5.5,0,0,0,.5-.3l1.4-7.3C433.1,363,433,362.9,433,362.8Zm-2.8-9.1c-2.9,4.6-15.9,5-21.1,4.9,16.2-6.2,19.6-9.2,20-11.1C430.8,349.9,431.2,352,430.2,353.7Zm-6-9.1h.7a.1.1,0,0,0,.1.1c2.1.6,3.2,1.3,3.2,2.2s-6.7,6-20.1,11.1C411.8,352.7,418.7,344.8,424.2,344.6Zm-18,13.2c-10.7-9-15.7-14.6-14.7-16.7s1.6-1.1,3.8-1h.2l.6.2C401.3,342,404.7,351.6,406.2,357.8Zm-19.1-11c-.3-1.8.8-3.7,3.4-5.5-.3,1.9,1.7,5.8,14.6,16.7C400.2,356.4,388.1,352.1,387.1,346.8ZM423.5,392l-14.6-2.3,2.1-11,14.6,2.3Zm-13.4-13.9h0l-2.2,11.8h0l-2,10.4-12.1-1.9,6.3-32.7,6,.9,6.1,1Zm-12.9-2.4-14.6-2.4,1.9-10,14.7,2.3Zm-14.8-1.6,14.7,2.4-2.1,11-14.7-2.4ZM380.1,386l14.7,2.3-1.9,10L378.2,396Zm41.3,16.9-14.6-2.4,1.9-10,14.6,2.3Zm4.4-22.7-14.7-2.3,2-10,14.6,2.3Zm5-10.4-39.9-6.3-6.7-1.1h0l-2.5-.4,1.2-6.4,49.2,7.8Z"/><circle class="cls-26" cx="76.6" cy="358.2" r="6.5"/><circle class="cls-26" cx="243.7" cy="125.7" r="6.5"/><circle class="cls-26" cx="602.5" cy="275.8" r="6.5"/><circle class="cls-26" cx="742.7" cy="494.8" r="6.5"/><line class="cls-27" x1="440.2" y1="139.9" x2="440.2" y2="149.5"/><line class="cls-27" x1="444.9" y1="144.7" x2="435.4" y2="144.7"/><line class="cls-27" x1="711.4" y1="224.6" x2="711.4" y2="234.1"/><line class="cls-27" x1="716.2" y1="229.3" x2="706.7" y2="229.3"/><line class="cls-27" x1="742.7" y1="579.1" x2="742.7" y2="588.6"/><line class="cls-27" x1="747.4" y1="583.8" x2="737.9" y2="583.8"/><line class="cls-27" x1="5.6" y1="246.5" x2="5.6" y2="256"/><line class="cls-27" x1="10.3" y1="251.3" x2="0.8" y2="251.3"/><line class="cls-27" x1="52.5" y1="490.2" x2="52.5" y2="499.7"/><line class="cls-27" x1="57.3" y1="495" x2="47.8" y2="495"/><line class="cls-27" x1="221.8" y1="236.7" x2="221.8" y2="246.2"/><line class="cls-27" x1="226.6" y1="241.4" x2="217" y2="241.4"/><path class="cls-11" d="M201,488.5a.5.5,0,0,1-.5-.5v-9c0-5.1-4.5-9.2-10.1-9.2s-10.2,4.1-10.2,9.2v9a.5.5,0,0,1-.5.5.5.5,0,0,1-.5-.5v-9c0-5.6,5-10.2,11.2-10.2s11.1,4.6,11.1,10.2v9A.5.5,0,0,1,201,488.5Z"/><polygon class="cls-28" points="211 485.1 205.7 485.1 164 485.1 159.9 551.9 215.1 551.9 211 485.1"/><polygon class="cls-29" points="209.8 551.9 159.9 551.9 164 485.1 205.7 485.1 209.8 551.9"/><path class="cls-30" d="M175.5,488a1.2,1.2,0,0,1-1.3,1.2A1.2,1.2,0,0,1,173,488a1.1,1.1,0,0,1,1.2-1.1A1.2,1.2,0,0,1,175.5,488Z"/><path class="cls-30" d="M196.7,488a1.2,1.2,0,0,1-2.4,0,1.2,1.2,0,0,1,2.4,0Z"/><path class="cls-31" d="M189.2,468.9a12.3,12.3,0,0,0-5.1,1.7h2.1a11.6,11.6,0,0,1,4.2-.8h.9A10.2,10.2,0,0,0,189.2,468.9Z"/><path class="cls-11" d="M195.5,488.5a.5.5,0,0,1-.5-.5v-9c0-5.1-4.6-9.2-10.1-9.2s-10.2,4.1-10.2,9.2v9a.5.5,0,0,1-1,0v-9c0-5.6,5-10.2,11.2-10.2S196,473.4,196,479v9A.5.5,0,0,1,195.5,488.5Z"/><path class="cls-30" d="M104.9,395.5c3.3,7.2.6,11.3-1.6,15.7s-4.8,7.7-3.4,15.2S98.5,445.7,88,451s-20.4,23.3-24.7,13.1l3.5-31.3,25.3-36.4Z"/><path class="cls-32" d="M87.6,423.5h0a4.9,4.9,0,0,1,6.6,2.5l10.3,24.9L129,464.8a5.7,5.7,0,0,1,1.4,1.3l3.4,4.8a.9.9,0,0,1-.6,1.4l-3.7.5a2.8,2.8,0,0,1-3-1.9l-1.3-3.4L103,459.6a12,12,0,0,1-6.8-6.3L85.3,429.9A4.9,4.9,0,0,1,87.6,423.5Z"/><path class="cls-33" d="M87.6,423.5h0a4.9,4.9,0,0,1,6.6,2.5l10.3,24.9L129,464.8a5.7,5.7,0,0,1,1.4,1.3l3.4,4.8a.9.9,0,0,1-.6,1.4l-3.7.5a2.8,2.8,0,0,1-3-1.9l-1.3-3.4L103,459.6a12,12,0,0,1-6.8-6.3L85.3,429.9A4.9,4.9,0,0,1,87.6,423.5Z"/><path class="cls-11" d="M156.6,591.1a5.4,5.4,0,1,1-5.4-5.3A5.4,5.4,0,0,1,156.6,591.1Z"/><path class="cls-11" d="M224.5,591.1a5.4,5.4,0,0,1-5.4,5.4,5.4,5.4,0,1,1,0-10.7A5.4,5.4,0,0,1,224.5,591.1Z"/><path class="cls-34" d="M221.2,591.1a2.1,2.1,0,0,1-2.1,2.1,2,2,0,0,1-2-2.1,2,2,0,0,1,2-2A2,2,0,0,1,221.2,591.1Z"/><path class="cls-34" d="M153.3,591.1a2.1,2.1,0,0,1-2.1,2.1,2,2,0,0,1-2-2.1,2,2,0,0,1,2-2A2.1,2.1,0,0,1,153.3,591.1Z"/><path class="cls-30" d="M140.9,488.1,155.4,553h66.5V509.9Zm2.3,2.4,41.5,11.2h-39Zm44.6,12,28.4,7.7H147.6l-1.8-7.7Zm32.4,8.7v7.4H149.4l-1.7-7.6h71.6Zm-66.8,25.2h66.8v7.7H155.1Zm-.2-.8-1.7-7.6h68.7v7.6Zm-1.9-8.5-1.7-7.6h70.6v7.6Zm5.4,24.2-1.4-6.4h64.9v6.4Z"/><path class="cls-35" d="M216.6,578.3a18.6,18.6,0,0,0-12.8-11l-45.2-11.4-18-80.7a9.7,9.7,0,0,0-9.6-7.7H108.6v3.4H131a6.4,6.4,0,0,1,6.3,5l18.2,81.4-5,28.2,3.3.6,4.8-26.7L203,570.6a14.9,14.9,0,0,1,10.4,9l2.8,7,3.2-1.3Z"/><rect class="cls-34" x="107.9" y="467" width="23" height="4.27" rx="0.3"/><path class="cls-36" d="M158.3,591.1h-3.4a3.6,3.6,0,0,0-3.7-3.6,3.7,3.7,0,0,0-3.7,3.6h-3.4a7.1,7.1,0,0,1,14.2,0Z"/><path class="cls-36" d="M226.2,591.1h-3.4a3.6,3.6,0,0,0-3.7-3.6,3.7,3.7,0,0,0-3.7,3.6H212a7.1,7.1,0,1,1,14.2,0Z"/><path class="cls-32" d="M109.5,559.5s-3.2,25.3.7,28.5,12.7,4.8,12.8,6.9-24.9,2.4-26.2-.4,3.4-6.4,3.7-14.3-.5-20.7-.5-20.7Z"/><path class="cls-32" d="M46.5,558.1s-15.8,20-14.1,24.7,8.4,10.7,7.4,12.6-22.6-10.8-22.3-13.9,6.3-3.7,10.6-10.3,10.3-18,10.3-18Z"/><path class="cls-33" d="M38.4,553.2s-1.7,3.2-3.9,7.1a28.1,28.1,0,0,0,7.1,4.3c2.7-3.7,4.9-6.5,4.9-6.5Z"/><path class="cls-33" d="M109.5,559.5H100s.3,4.1.5,9.1a56.5,56.5,0,0,0,8.2-1.6C109.1,562.7,109.5,559.5,109.5,559.5Z"/><path class="cls-29" d="M92.3,420.6s3.8,7.4,5.5,11.2S97.6,442,95,444.2s-5.6,7.1-6.5,13.7H68.3s.6-17.4,2.4-23.7S86,419.1,86,419.1Z"/><path class="cls-32" d="M102.3,397l2.2,7.4h-1.8s.1,5.7-2,6.9-5,.5-6.3,2.7a26.1,26.1,0,0,0-2.1,6.6,10.7,10.7,0,0,1-6.3-1.5S89.7,399.5,102.3,397Z"/><path class="cls-37" d="M92.6,404.5l-.3-.5a39.8,39.8,0,0,0-4,7.6l5.1,4.9a14.5,14.5,0,0,1,1-2.5c1.3-2.2,3.4-1.1,6.3-2.7A7.8,7.8,0,0,1,92.6,404.5Z"/><path class="cls-34" d="M68.3,457.9H88.5s1.4.3,2.6,8.1,5.8,24.4,13,36.2c12.2,20.1,6.5,58.4,6.5,58.4s-13.3,4.9-27.3,1.4-32.7,5.7-46.9-9.6c0,0,11.7-22.7,14.5-37.5S56.6,469.6,68.3,457.9Z"/><path class="cls-38" d="M91.1,466c-1.2-7.8-2.6-8.1-2.6-8.1a24.2,24.2,0,0,1,5.3-12.5L81.8,425l-2.5,4.4s.9,32.5,14,46.4C92.3,471.9,91.5,468.5,91.1,466Z"/><path class="cls-32" d="M83,423.5h0a4.9,4.9,0,0,1,6.6,2.5l10.3,24.9,24.5,13.9a5.7,5.7,0,0,1,1.4,1.3l3.5,4.8a1,1,0,0,1-.7,1.4l-3.7.5a2.8,2.8,0,0,1-3-1.9l-1.3-3.4-22.2-7.9a12,12,0,0,1-6.8-6.3L80.7,429.9A4.9,4.9,0,0,1,83,423.5Z"/><path class="cls-36" d="M104.9,395.5s-4.3,7.4-9.5,10.6-7,13.6-10.8,20.7-11.5,12.4-13.3,22.5c-1.5,8.6-4.9,13.1-8,14.8A22.4,22.4,0,0,1,61.7,451c1.3-7.4-2.4-12.3-1.5-18.2s8.7-11.2,12.2-16.2c5.3-7.8,5.5-18.6,13.6-24S102.4,391.4,104.9,395.5Z"/><path class="cls-34" d="M110.4,588.1l-3.3,3-8.7-2.6c-1.2,2.7-2.3,4.5-1.6,6s26.3,2.5,26.2.4S114.3,591.2,110.4,588.1Z"/><path class="cls-34" d="M28.8,584.6l-5.9-8.1c-2.8,2.1-5.2,3.1-5.4,5s21.3,15.8,22.3,13.9-5.3-7.5-7.2-12.2Z"/><path class="cls-39" d="M36.4,552.4a27.6,27.6,0,0,0,16.5,8.7c10.3-25.4,0-57.9,0-57.9-.7,4.4-1.4,8.4-2,11.7C48.1,529.7,36.4,552.4,36.4,552.4Z"/><g class="cls-40"><polyline class="cls-41" points="527.7 128.4 510.1 137.8 518.9 114.9"/><circle class="cls-41" cx="545.1" cy="99.1" r="37.2"/><path class="cls-42" d="M538.5,116.9c8.1.2,16.3.3,23.7-.2,2.4-.2,4.4-3.9,1.6-5.1,1.2-.6,2.4-1.2,2.9-2.6a2.5,2.5,0,0,0-1.4-3.3c2.8.7,3.9-3.8,1.7-5.2a6.7,6.7,0,0,0,2.4-3.8,4.1,4.1,0,0,0-1.7-4,9.9,9.9,0,0,0-3-.5H554.6c1-5.3,1.2-11-1.4-15.7-.9-1.4-3-3-4.7-2s-1.2,3.5-1.1,5.1a17.9,17.9,0,0,1-9.2,16.3S538.6,109.8,538.5,116.9Z"/><rect class="cls-42" x="523.3" y="95.9" width="12.2" height="21.07"/></g><g class="cls-40"><polyline class="cls-41" points="80.8 267.1 88.6 271.2 84.7 261.1"/><circle class="cls-41" cx="73.1" cy="254.2" r="16.4"/><path class="cls-42" d="M76.1,262c-3.6.1-7.2.1-10.5-.1-1-.1-1.9-1.7-.7-2.2-.5-.3-1.1-.6-1.3-1.2a1.1,1.1,0,0,1,.6-1.4c-1.2.3-1.7-1.7-.7-2.3a3.6,3.6,0,0,1-1.1-1.7,1.8,1.8,0,0,1,.8-1.8,2.7,2.7,0,0,1,1.3-.2h4.4c-.4-2.3-.5-4.9.7-6.9s1.3-1.4,2.1-.9.5,1.5.5,2.2a7.8,7.8,0,0,0,4,7.2S76,258.9,76.1,262Z"/><rect class="cls-42" x="77.4" y="252.7" width="5.4" height="9.31"/></g><g class="cls-40"><polyline class="cls-41" points="203.2 97.5 217.3 105 210.3 86.7"/><circle class="cls-41" cx="189.3" cy="74.1" r="29.8" transform="translate(-12.2 47.2) rotate(-13.8)"/><path class="cls-11" d="M176.7,66a7.3,7.3,0,0,1,10.3.1l1.9,1.9,1.9-1.9A7.3,7.3,0,0,1,201,76.5l-7.1,6.9h0a8,8,0,0,1-4,2,7.5,7.5,0,0,1-6.3-2.1l-7-7.1A7.4,7.4,0,0,1,176.7,66Z"/></g><g class="cls-40"><polyline class="cls-41" points="636.2 222.1 628.6 226.1 632.4 216.2"/><circle class="cls-41" cx="643.7" cy="209.4" r="16.1"/><path class="cls-11" d="M650.5,205a4,4,0,0,0-5.6.1l-1,1-1-1a3.9,3.9,0,1,0-5.5,5.6l3.8,3.8h0a5.1,5.1,0,0,0,2.2,1.1,4,4,0,0,0,3.4-1.2l3.7-3.8A4,4,0,0,0,650.5,205Z"/></g></g></g></svg>