<svg xmlns="http://www.w3.org/2000/svg" viewBox="0 0 750 750"><defs><style>.cls-1{isolation:isolate;}.cls-16,.cls-2,.cls-37{fill:#fff;}.cls-3{fill:#b298fa;}.cls-3,.cls-38,.cls-49{opacity:0.2;}.cls-15,.cls-22,.cls-3{mix-blend-mode:multiply;}.cls-4{fill:#8888e9;}.cls-5{fill:#b0affd;}.cls-6{opacity:0.7;}.cls-7{fill:#9797ef;}.cls-8{fill:#7070d6;}.cls-9{fill:#ffc902;}.cls-10{fill:#ffcec7;}.cls-11{fill:#6469d3;}.cls-12{fill:#5c37d4;}.cls-13,.cls-14,.cls-18,.cls-27,.cls-28,.cls-29,.cls-36,.cls-46,.cls-47{fill:none;stroke-linecap:round;stroke-linejoin:round;}.cls-13,.cls-14,.cls-27,.cls-28,.cls-46,.cls-47{stroke:#42287c;}.cls-13{stroke-width:0.51px;}.cls-14{stroke-width:1.02px;}.cls-15{fill:#8a78b5;}.cls-15,.cls-22,.cls-37,.cls-55{opacity:0.5;}.cls-16{font-size:13.5px;font-family:OpenSans-SemiboldItalic, OpenSans SemiboldItalic;font-weight:600;font-style:italic;}.cls-17{fill:#d3bbf9;}.cls-18{stroke:#d3bbf9;stroke-width:1.09px;}.cls-19,.cls-55{fill:#5146af;}.cls-20{fill:#e0d1c2;}.cls-21{fill:#5923ce;}.cls-22{fill:#481bae;}.cls-23{fill:#2c27ff;}.cls-24{fill:#4a21ce;}.cls-25{fill:#170b4e;}.cls-26{fill:#3e2477;}.cls-27{stroke-width:0.27px;}.cls-28{stroke-width:0.53px;}.cls-29{stroke:#b3b3f4;}.cls-30{fill:#7762ef;}.cls-31{fill:#fefefe;}.cls-32{opacity:0.3;}.cls-33{fill:#6a4ce5;}.cls-34{fill:#f2f2f2;}.cls-35{fill:#d4b8ff;}.cls-36{stroke:#d4b8ff;}.cls-37{mix-blend-mode:screen;}.cls-39{fill:#251354;}.cls-40{fill:#5045af;}.cls-41{fill:#f4afac;}.cls-42{fill:#efa0a0;}.cls-43{fill:#3434a5;opacity:0.6;}.cls-44{fill:#5058bc;}.cls-45{fill:#171514;}.cls-46{stroke-width:0.57px;}.cls-47{stroke-width:0.28px;}.cls-48{fill:#ff9a15;}.cls-50{fill:#db4f7a;}.cls-51{fill:#d63a67;}.cls-52{fill:#db527f;}.cls-53{fill:#35a6b4;}.cls-54{fill:#642bfb;}.cls-56{fill:#151412;}.cls-57{fill:#2c859b;}</style></defs><title>process-online</title><g class="cls-1"><g id="OBJECTS"><polygon class="cls-2" points="134.8 286.2 138.1 286.8 135.7 289 136.2 292.3 133.3 290.7 130.3 292.2 130.9 289 128.6 286.6 131.9 286.2 133.4 283.2 134.8 286.2"/><path class="cls-3" d="M592,630.3c-45.7,0-85,1.5-101.9,3.6-21.4-.8-46.8-1.2-74-1.2-76.2,0-138,3.4-138,7.6s61.8,7.6,138,7.6c66.9,0,122.6-2.6,135.3-6.1,12.6.3,26.2.2,40.6.4,70.8,1.3,151.3,1.5,148.2-7.5C739.2,631.6,653.2,630.3,592,630.3Z"/><path class="cls-3" d="M323.7,619.9c0,4.2-42.8,7.7-95.6,7.7s-95.6-3.5-95.6-7.7,42.8-7.8,95.6-7.8S323.7,615.6,323.7,619.9Z"/><path class="cls-4" d="M546.3,425c.3.4.6.7.6.9a8.5,8.5,0,0,0-.9-2.2,163.8,163.8,0,0,1-3.3-19.4c-.1-1.4-.3-2.7-.4-4,2.1-2.4,7.8-6.4,9.1-7.8,2.7-3,6.2-6.6,7.7-10.4.7-1.5,1.7-6.2-.7-7s-6.3,6-7.2,7.8c-2,3.8-3.4,7.9-5.8,11.5a51.9,51.9,0,0,0-3.1,5,130.7,130.7,0,0,1-.3-17.7c1.9-2.4,7.8-6.5,9.1-8s6.3-6.5,7.8-10.3c.6-1.6,1.6-6.3-.7-7.1s-6.4,6.1-7.3,7.8c-2,3.8-3.3,8-5.7,11.6a37.4,37.4,0,0,0-3.2,4.9,131.2,131.2,0,0,1,2.3-18.6,108.6,108.6,0,0,1,3.1-12.5c3-1.5,7.4-3.1,8.7-4,3.3-2.1,7.7-4.7,10.1-7.9,1-1.4,3.2-5.7,1.2-7s-7.7,4.2-9,5.6c-2.9,3.2-5.4,6.8-8.6,9.7l-1.8,1.4a138.9,138.9,0,0,1,6.5-16.1,27.8,27.8,0,0,0,4-1.6c3.4-1.4,7.1-1.9,10.7-2.9,1.6-.4,8-2.4,7.7-4.7s-4.4-2.1-5.8-1.8c-3.4.6-7,3-9.9,4.7-1.1.7-3.7,3.1-6,4.9q1.8-3.7,3.9-7.2a114.1,114.1,0,0,1,7.2-10.9,26.4,26.4,0,0,0,5.1-1.9c3.4-1.4,7.1-1.8,10.6-2.8,1.6-.5,8.1-2.4,7.7-4.8s-4.4-2-5.8-1.8c-3.4.6-7,3-9.9,4.8-1.2.7-4.6,3.9-7,5.6a117.9,117.9,0,0,1,11.4-13c1.5-.5,2.9-1.2,4.3-1.8,3.4-1.5,7.1-2,10.6-3.1,1.6-.5,8-2.6,7.7-4.9s-4.5-2-5.9-1.7c-3.4.7-6.9,3.1-9.8,5a11,11,0,0,0-1.7,1.3c-2.4,1.7-4.8,3.5-7.1,5.5h0a100.7,100.7,0,0,0-8.8,8.5c.5-1.4.8-2.9,1.2-4.3.9-3.5,2.8-6.8,4.1-10.2.6-1.5,3-7.9.9-9s-4.3,2.2-4.9,3.5c-1.6,3.1-1.9,7.4-2.3,10.8-.1,1.6.5,7.4.2,10.1a101.3,101.3,0,0,0-7.2,9,30.9,30.9,0,0,0,.7-5.2c.4-3.7,1.7-7.2,2.5-10.8.4-1.6,1.7-8.2-.5-9s-3.9,2.9-4.3,4.2c-1.1,3.3-.7,7.6-.6,11,.1,1.8,1.9,8,1.7,10.5l-2.6,3.9a107.6,107.6,0,0,0-8.9,17.2c-.3-1-.7-2-1-3-1-3.6-1.1-7.3-1.8-10.9-.3-1.7-1.6-8.3-4-8.2s-2.4,4.2-2.3,5.6c.3,3.4,2.3,7.3,3.7,10.4.6,1.2,3.4,4.8,4.8,7.3a129.1,129.1,0,0,0-5.6,18c-.3-1.2-.6-2.4-.8-3.6a83.6,83.6,0,0,1-.9-8.6,47.5,47.5,0,0,1,.9-13.6,2.3,2.3,0,0,0-3.9-2.2c0,.1-.1.1-.2.2-2.5,2.8-2.3,7-1.9,10.8s2.1,18.3,5.9,21a141.2,141.2,0,0,0-2.2,21.4c-.9-3.4-1.1-7-1.7-10.5-.3-1.6-1.6-8.2-4-8.2s-2.4,4.2-2.3,5.6c.3,3.5,2.3,7.3,3.7,10.4.6,1.2,2.8,4.1,4.3,6.6a140.8,140.8,0,0,0,1.4,17.1l-1.2-1.8c-1.9-3.2-2.9-6.7-4.4-10.1-.7-1.5-3.6-7.6-5.9-6.9s-1.4,4.6-.9,6c1.1,3.3,4,6.5,6.2,9.1s4.5,3.9,6.5,5.9q1,6.6,2.7,12.9c-1.8-2.8-3-5.8-4.6-8.7s-4.2-7.3-6.4-6.4-1,4.7-.4,6c1.4,3.2,4.5,6.2,6.9,8.6.8.8,3.4,2.6,5.5,4.3,2.3,7.9-1.1,18.4,2.5,25.7C543.8,441.7,548,432,546.3,425Z"/><path class="cls-4" d="M288.3,394.4a1.8,1.8,0,0,0-.7.9,9.1,9.1,0,0,1,1.1-2.2,183.4,183.4,0,0,0,4.7-19.1l.6-4c-1.8-2.5-7.3-6.9-8.5-8.4-2.4-3.2-5.7-7-7-10.9-.5-1.6-1.1-6.3,1.3-7s5.9,6.5,6.6,8.3c1.7,4,2.8,8.2,4.9,12a32.9,32.9,0,0,1,2.9,5.2,176,176,0,0,0,1.5-17.7c-1.7-2.5-7.4-7-8.6-8.6s-5.7-7-7-10.9c-.5-1.6-1.1-6.3,1.3-7s5.9,6.6,6.6,8.3c1.7,4,2.8,8.2,4.9,12a28.4,28.4,0,0,1,2.8,5.1,117.2,117.2,0,0,0-.9-18.7,112.5,112.5,0,0,0-2.2-12.7c-2.9-1.7-7.2-3.6-8.4-4.6-3.2-2.3-7.4-5.2-9.6-8.6-.9-1.4-2.8-5.9-.6-7.1s7.4,4.7,8.6,6.3c2.6,3.3,4.8,7.1,7.8,10.2l1.7,1.6a137.7,137.7,0,0,0-5.3-16.5c-1.3-.5-2.6-1.3-3.9-1.9-3.3-1.7-7-2.4-10.4-3.7-1.6-.5-7.9-2.9-7.4-5.3s4.5-1.7,5.9-1.3c3.3.8,6.8,3.5,9.6,5.4,1,.7,3.5,3.4,5.6,5.3-1.1-2.5-2.2-5-3.4-7.5a126,126,0,0,0-6.4-11.3,23.8,23.8,0,0,1-4.9-2.2c-3.3-1.7-7-2.4-10.4-3.7-1.6-.5-7.9-2.9-7.4-5.3s4.5-1.7,5.9-1.3c3.4.8,6.8,3.4,9.6,5.4,1.2.8,4.3,4.2,6.6,6.1a128.6,128.6,0,0,0-10.5-13.8,32.9,32.9,0,0,1-4.2-2.1c-3.2-1.7-6.9-2.5-10.3-3.8-1.6-.6-7.8-3.1-7.3-5.5s4.6-1.6,5.9-1.2c3.4.9,6.8,3.6,9.5,5.6l1.6,1.5c2.3,1.9,4.5,3.9,6.7,5.9h0a87.7,87.7,0,0,1,8.1,9.1c-.4-1.4-.5-2.9-.8-4.4-.7-3.6-2.3-6.9-3.4-10.5-.5-1.5-2.4-8-.2-9s4.1,2.5,4.6,3.8c1.4,3.2,1.4,7.6,1.5,11,0,1.6-1,7.4-.9,10.1a87.2,87.2,0,0,1,6.5,9.4,30.3,30.3,0,0,1-.3-5.2c-.1-3.7-1.2-7.3-1.7-10.9-.3-1.7-1.2-8.4,1.1-9s3.7,3.1,4,4.5c.9,3.4.2,7.6-.2,11-.2,1.8-2.4,7.9-2.5,10.3l2.4,4.1a116.7,116.7,0,0,1,7.7,17.8l1.2-3c1.3-3.4,1.6-7.1,2.5-10.7.5-1.6,2.2-8.1,4.6-7.8s2.1,4.3,1.9,5.7c-.5,3.4-2.8,7.1-4.4,10.1-.7,1.2-3.7,4.6-5.4,7a116.1,116.1,0,0,1,4.4,18.3,26.8,26.8,0,0,0,1-3.5,81.5,81.5,0,0,0,1.6-8.6,47.7,47.7,0,0,0,0-13.6,2.3,2.3,0,0,1,4-1.9l.2.2c2.4,3,1.8,7.2,1.1,10.9s-3.3,18.2-7.3,20.6a128.5,128.5,0,0,1,.6,21.5c1.2-3.3,1.6-6.9,2.5-10.4.4-1.6,2.2-8.1,4.6-7.8s2.1,4.3,1.9,5.7c-.5,3.4-2.8,7.1-4.5,10.1-.6,1.1-3.1,3.9-4.7,6.2a139.6,139.6,0,0,1-2.6,17l1.3-1.7c2.1-3,3.4-6.5,5.2-9.7.8-1.5,4.1-7.4,6.3-6.5s1,4.7.5,6c-1.4,3.2-4.5,6.2-6.9,8.7-.9,1-4.7,3.5-6.9,5.4-1,4.3-2.2,8.5-3.5,12.6,1.9-2.6,3.4-5.5,5.2-8.3s4.6-6.9,6.8-5.9.6,4.8,0,6c-1.6,3.1-5,5.8-7.5,8.1-.9.8-3.6,2.4-5.8,3.9-2.9,7.7-.3,18.4-4.4,25.4C289.6,411.2,286.1,401.3,288.3,394.4Z"/><path class="cls-5" d="M301.5,546.1c-.2.1,3-12-11.7-28s-53.9-24.3-55.9-37.6,21.6-5.5,34.4-12.6,17.6-11,3.7-17.4S249.7,441,252.6,429s-22.3-12-32.1-23.7-.6-22.2,22.6-15.9,24.3,3.1,18.6-2-24.3-15.9-14.3-20.1,21.6,4.4,16.7-5-19.5-19-9.6-25.7,29.8-1.1,35.8,24.1,8.1,32.2,18.6,37.3,23.1-4.1,35.3,3.9,6.4,20.1-3.5,26.6-27.5,19.9-21.1,29.3,18.2.6,30.2,1.3,25.2,15.2,9,29.8-39,23.2-48.9,62.9Q305.7,548.8,301.5,546.1Z"/><g class="cls-6"><path class="cls-7" d="M306.1,549.9c-.4,0-.6-.3-.6-.7,1.9-145-40.4-208.4-40.9-209a.8.8,0,0,1,.2-1,.7.7,0,0,1,1,.2c.4.6,43,64.4,41.1,209.8a.7.7,0,0,1-.7.7Z"/></g><g class="cls-6"><path class="cls-7" d="M286.9,391.9a.5.5,0,0,1-.4-.2c-14.8-15.4-35.1-20-35.3-20a.7.7,0,0,1-.5-.8c.1-.4.4-.7.8-.6s21,4.7,36,20.4a.8.8,0,0,1,0,1Z"/></g><g class="cls-6"><path class="cls-7" d="M297.5,436.4l-.5-.2a.7.7,0,0,1,.2-1,270.1,270.1,0,0,1,45.6-27.3.6.6,0,0,1,.9.3.7.7,0,0,1-.3.9A271.6,271.6,0,0,0,298,436.3.4.4,0,0,1,297.5,436.4Z"/></g><g class="cls-6"><path class="cls-7" d="M295.6,426.7l-.3-.2c-29.5-19-65.2-26.6-65.5-26.7s-.7-.5-.6-.8.4-.7.8-.6,36.4,7.7,66.1,27a.7.7,0,0,1,.2.9A.8.8,0,0,1,295.6,426.7Z"/></g><g class="cls-6"><path class="cls-7" d="M305.2,503.9l-.3-.2c-19.9-14.5-56.6-23.4-57-23.5a.7.7,0,0,1-.5-.8.7.7,0,0,1,.9-.5c.3,0,37.3,9,57.4,23.7a.7.7,0,0,1,.1,1A.7.7,0,0,1,305.2,503.9Z"/></g><g class="cls-6"><path class="cls-7" d="M305.7,514.1h-.3a.8.8,0,0,1-.2-1c15.6-25.3,46.4-41.5,46.7-41.6s.8-.1.9.3a.6.6,0,0,1-.3.9c-.3.2-30.7,16.1-46.2,41.1A.6.6,0,0,1,305.7,514.1Z"/></g><path class="cls-5" d="M545.4,546.1c.1.1-3.1-12,11.6-28s53.9-24.3,55.9-37.6-21.6-5.5-34.4-12.6-17.6-11-3.7-17.4,22.3-9.5,19.4-21.5,22.3-12,32.1-23.7.6-22.2-22.5-15.9-24.4,3.1-18.7-2,24.3-15.9,14.3-20.1-21.6,4.4-16.7-5,19.5-19,9.6-25.7-29.7-1.1-35.8,24.1S548.4,392.9,538,398s-23.2-4.1-35.3,3.9-6.5,20.1,3.4,26.6,27.5,19.9,21.1,29.3-18.2.6-30.2,1.3-25.1,15.2-9,29.8,39,23.2,48.9,62.9C539.7,549.8,542.5,547.9,545.4,546.1Z"/><g class="cls-6"><path class="cls-7" d="M540.7,549.9a.6.6,0,0,0,.6-.7c-1.9-145,40.5-208.4,40.9-209a.8.8,0,0,0-.2-1,.7.7,0,0,0-1,.2c-.4.6-43,64.4-41.1,209.8a.8.8,0,0,0,.8.7Z"/></g><g class="cls-6"><path class="cls-7" d="M559.9,391.9l.5-.2c14.7-15.4,35-20,35.2-20a.7.7,0,0,0,.5-.8c-.1-.4-.4-.7-.8-.6s-20.9,4.7-36,20.4a.8.8,0,0,0,.1,1Z"/></g><g class="cls-6"><path class="cls-7" d="M549.3,436.4l.5-.2a.8.8,0,0,0-.1-1A273.5,273.5,0,0,0,504,407.9a.6.6,0,0,0-.9.3.7.7,0,0,0,.3.9,271.6,271.6,0,0,1,45.4,27.2C549,436.4,549.1,436.5,549.3,436.4Z"/></g><g class="cls-6"><path class="cls-7" d="M551.2,426.7l.3-.2c29.5-19,65.2-26.6,65.6-26.7a.7.7,0,0,0,.5-.8c-.1-.4-.4-.7-.8-.6s-36.3,7.7-66.1,27a.7.7,0,0,0-.2.9A.8.8,0,0,0,551.2,426.7Z"/></g><g class="cls-6"><path class="cls-7" d="M541.6,503.9l.4-.2c19.9-14.5,56.5-23.4,56.9-23.5a.6.6,0,0,0,.5-.8.7.7,0,0,0-.8-.5c-.4,0-37.3,9-57.5,23.7a.7.7,0,0,0-.1,1A.7.7,0,0,0,541.6,503.9Z"/></g><g class="cls-6"><path class="cls-7" d="M541.1,514.1h.3a.7.7,0,0,0,.3-1c-15.7-25.3-46.5-41.5-46.8-41.6a.7.7,0,1,0-.6,1.2c.3.2,30.8,16.1,46.2,41.1A.6.6,0,0,0,541.1,514.1Z"/></g><path class="cls-8" d="M241.2,555.1s1-41.9-32-45.8-21.1,43.9-6.9,59.5c0,0-18.4-21.6-30.6-7s22.1,31.3,22.1,31.3-27.5-9.3-35.1-3c-9.8,8.1,8.8,20,8.8,20s-29.7-11.9-23.5,9.2l141.3-.4Z"/><path class="cls-9" d="M683.1,598.6s-.6-22.8,17.4-24.9,7.7,27.6,0,36.1c0,0,13.8-15.5,20.5-7.5s-12.1,17.1-12.1,17.1,15-5.1,19.2-1.7-5.7,11.3-5.7,11.3,17.1-6.8,13.7,4.6H665.8Z"/><path class="cls-10" d="M604,462.4s1.7,26,8.6,28.1,25.9-18.9,25.9-18.9l-5.7-5.1-16,13.6-1.7-17.2Z"/><polygon class="cls-11" points="262.5 499.1 254.7 608.5 359.2 608.5 352 498.9 262.5 499.1"/><path class="cls-12" d="M283.3,508.7h0a3.3,3.3,0,0,1,3.5-3h0c2,0,3.6,1.3,3.6,3a3.3,3.3,0,0,1-3.5,3h-.1A3.3,3.3,0,0,1,283.3,508.7Zm3.5-1.9a2,2,0,1,0,0,3.8h.1a2.2,2.2,0,0,0,2.4-1.9,2.3,2.3,0,0,0-2.5-1.9Zm-3,1.9Z"/><path class="cls-12" d="M318.9,508.6h0a2.7,2.7,0,0,1,.8-1.9,3.9,3.9,0,0,1,2.7-1.1h0c2,0,3.6,1.3,3.6,3a2.9,2.9,0,0,1-1.1,2.2,3.8,3.8,0,0,1-2.4.8h-.1A3.3,3.3,0,0,1,318.9,508.6Zm3.5-1.9a2.7,2.7,0,0,0-1.9.8,1.6,1.6,0,0,0-.5,1.1h0a2.2,2.2,0,0,0,2.4,1.9h0a2.8,2.8,0,0,0,1.8-.6,1.9,1.9,0,0,0,.7-1.3,2.3,2.3,0,0,0-2.5-1.9Z"/><path class="cls-12" d="M303.6,530.7h1c6.5-.2,11.5-2.3,14.8-6.3,5.5-6.5,4.2-15.6,4.2-16a1.1,1.1,0,0,0-1.3-.9,1.1,1.1,0,0,0-1,1.3c0,.1,1.1,8.4-3.7,14.2-2.8,3.4-7.2,5.2-13.1,5.4s-9.9-1.3-12.7-4.5c-5.1-5.6-3.8-15-3.8-15.1a1.2,1.2,0,0,0-2.3-.3c-.1.4-1.4,10.5,4.4,17C293.2,529,297.7,530.7,303.6,530.7Z"/><polygon class="cls-9" points="232.5 537.9 220 619.3 333.4 619 321.9 537.7 232.5 537.9"/><path class="cls-13" d="M253.8,547.7a3,3,0,0,0,6,0,2.9,2.9,0,0,0-3-2.5A2.8,2.8,0,0,0,253.8,547.7Z"/><path class="cls-13" d="M289.4,547.7a2.8,2.8,0,0,0,3,2.5,2.9,2.9,0,0,0,3-2.5,3.1,3.1,0,0,0-6,0Z"/><path class="cls-14" d="M292.4,547.7s2.9,20.6-17.9,21.3-17.7-21.3-17.7-21.3"/><rect class="cls-11" x="490.8" y="524.5" width="197.2" height="111.72" rx="14.1"/><rect class="cls-15" x="497.7" y="618.1" width="107.9" height="2.22"/><rect class="cls-15" x="497.7" y="610.5" width="107.9" height="2.23"/><rect class="cls-15" x="554.8" y="548.2" width="107.9" height="2.22"/><rect class="cls-15" x="554.8" y="554.6" width="107.9" height="2.22"/><rect class="cls-15" x="628.1" y="597.8" width="37.7" height="22.58" rx="1.8"/><text class="cls-16" transform="translate(634.1 614.1)">VISA</text><path class="cls-17" d="M130.7,455.3a3.2,3.2,0,0,1-3.2,3.3,3.3,3.3,0,0,1,0-6.5A3.2,3.2,0,0,1,130.7,455.3Z"/><path class="cls-17" d="M178.6,183.4a3.2,3.2,0,1,1-3.2-3.2A3.2,3.2,0,0,1,178.6,183.4Z"/><path class="cls-17" d="M352.4,75.1a3.2,3.2,0,0,1-3.2,3.2,3.3,3.3,0,0,1-3.2-3.2,3.2,3.2,0,0,1,3.2-3.2A3.2,3.2,0,0,1,352.4,75.1Z"/><path class="cls-17" d="M513.1,91.9a3.2,3.2,0,0,1-6.4,0,3.2,3.2,0,0,1,6.4,0Z"/><circle class="cls-17" cx="684.8" cy="214.6" r="3.2"/><line class="cls-18" x1="123.1" y1="279.6" x2="123.1" y2="288.4"/><line class="cls-18" x1="127.5" y1="284" x2="118.7" y2="284"/><line class="cls-18" x1="236.5" y1="311.9" x2="236.5" y2="320.8"/><line class="cls-18" x1="240.9" y1="316.4" x2="232" y2="316.4"/><line class="cls-18" x1="649.2" y1="84.3" x2="649.2" y2="93.2"/><line class="cls-18" x1="653.6" y1="88.7" x2="644.8" y2="88.7"/><line class="cls-18" x1="730.9" y1="407.3" x2="730.9" y2="416.2"/><line class="cls-18" x1="735.4" y1="411.8" x2="726.5" y2="411.8"/><line class="cls-18" x1="593.2" y1="272.3" x2="593.2" y2="281.1"/><line class="cls-18" x1="597.7" y1="276.7" x2="588.8" y2="276.7"/><ellipse class="cls-3" cx="158.7" cy="673.1" rx="130.3" ry="5.1"/><path class="cls-19" d="M250.2,674.1c5.1-.4,10.2-3.2,12.4-3.4a78.8,78.8,0,0,0,8.3-1.9c1.4-.4-1.1-8.8-3.3-9l-1.2.7a10.2,10.2,0,0,1-5.8,1.2c-3.1,3-3,3.9-6.8,6.2a22.4,22.4,0,0,0-4.7,3.6C247.6,673.1,247.3,674.4,250.2,674.1Z"/><path class="cls-2" d="M266.3,656s.9,3.5,1.5,4.2c-3.9,4.5-7.2,2.1-7.2,2.1v-.6l-1-4.3Z"/><path class="cls-20" d="M218.6,435.1s-2.5,25.7-7.3,34.4-35.2,18-37.3,20.4-6.6-.3-10.6,1.8c-1.3.7-.6,1.4-2.4,1.7s-4.7-2.3.8-6.7c3.1-1.8,8.8-1.6,9-1.8s22.8-15.1,23.8-18.1S199,430,199,430Z"/><path class="cls-19" d="M177.4,672c5,1.2,10.7.2,12.9.7a65.8,65.8,0,0,0,8.4.8c1.4.1,1.7-8.6-.3-9.6l-1.3.4a11.2,11.2,0,0,1-5.9-.7c-3.9,1.8-4,2.7-8.4,3.6a28.3,28.3,0,0,0-5.6,2C175.3,670.2,174.6,671.3,177.4,672Z"/><path class="cls-2" d="M198.4,660s-.3,3.5.1,4.4c-5.1,3-7.5-.3-7.5-.3l.2-.5.5-4.5Z"/><path class="cls-21" d="M243.8,523.4s10.7-21.6-4.5-38.8c0,0-14.2,5.3-25.3,5.4-8.8,0-13.2-1.2-13.2-1.2s-2.9,16.1-3.5,41.5Z"/><path class="cls-21" d="M210.2,597.6h0c0,21.8-7.5,49.7-10.2,65.5h-.8a45.3,45.3,0,0,1-9-1.2v-1.6c1.9-25.5,1.5-67.2,1.7-80.4a16.9,16.9,0,0,1,.2-2.5c1.6-9.6,11.5-7.7,15.1,1.4a33.7,33.7,0,0,1,1.5,4.8,15.5,15.5,0,0,1,.4,2.1h0a54.5,54.5,0,0,1,.9,7.2v.2c0,.8.1,1.5.1,2.2h0Z"/><path class="cls-21" d="M225.6,532.6l-.3.8c-2.3,9.2-8.8,31.3-13.3,44.6h0c-1.1,3-2,5.6-2.8,7.5h0a4,4,0,0,1-2.6,2.3l-1.9.7c-5.1,1-12.5-1.3-12.5-11.3a24,24,0,0,1,.3-3.7c1.2-8,5.8-52.7,6.4-57s1.8-10.5,4.1-11.2C214.7,502.2,229.6,516.5,225.6,532.6Z"/><path class="cls-19" d="M209.8,581.8,212,578h0a55.1,55.1,0,0,0-1.9,14.7v.2a16.2,16.2,0,0,0,.1,2.2h0a8.3,8.3,0,0,1,0,2.3h0c-.4,1.9-3-7.5-3.6-9.7a1,1,0,0,0-.1-.4l2.3-4Z"/><path class="cls-22" d="M225.3,533.4c-2.3,9.2-8.8,31.3-13.3,44.6h0a55.1,55.1,0,0,0-1.9,14.7v.2c0,.8.1,1.5.1,2.2h0v2.3h0c0,21.8-7.5,49.7-10.2,65.5h-.8s3.1-25.9,6.5-43.8a72,72,0,0,0-1-30.6c-.4-1.5-.7-2.3-.7-2.3l3.3-7.6c3.8-10,5.4-33.8,5.4-33.8-6.6-17.3-6.3-38.5-6.3-38.5l6.4,1.4,10.8,14.7Z"/><path class="cls-21" d="M245.3,580.4c-7.2-7.7-18.2-5-13.9,6.6s19.1,46.8,26.5,71.2l.6,1.6a48.8,48.8,0,0,0,9.6-2.5c-3.3-15.7-4.8-42.5-12.5-61.6A49.5,49.5,0,0,0,245.3,580.4Z"/><path class="cls-21" d="M206.4,506.5c-.4-18,21.2-4.7,31.5,1.8,4.3,2.8,5.7,7.9,6,12.6s3,53.3,3.6,62.2c1.4,20-15.2,8.1-16.5,2.5C227.7,571.4,206.6,516.3,206.4,506.5Z"/><path class="cls-10" d="M191.5,366.2s-3.7,34.9,22.7,27.5c1.3.2,9.4-1.8,10.6-12.4s-4.9-21.8-5.4-22.2-17.1-.8-17.8-.8S191.5,366.2,191.5,366.2Z"/><path class="cls-23" d="M213.7,375.1s-4-1.9-3-7.4.3-5.9-3.7-3.5-24.4,13.4-20.8-12.5c2.3,1.4,9.7,1.2,11.2-2s18.8-11.9,25.4.9c4.5.1,9.7,5.3,9.2,15.6s-4.2,23.4-8.1,24.2-5.8-2.4-5.7-7.3c.2-2.5,7.6-5.8,2.2-13.4C218.1,367.2,211.5,369.4,213.7,375.1Z"/><path class="cls-10" d="M221.1,390.1s-2.2,7,0,9.8c-5.1,4-14.4,2.8-14.4,2.8s2.8-2.9,0-12.6S221.1,390.1,221.1,390.1Z"/><path class="cls-24" d="M192.2,441.9s6.7,5.2,11.6,5.6l-2.6-29.1-2.7,7.1Z"/><path class="cls-25" d="M192.2,441.9s6.7,5.2,11.6,5.6l-1.9-29.4-.7.3c-1.2,3.7-3.4,11.8-3.1,19.7,0,.7-.1,3.9-.1,5.2S194.4,442.6,192.2,441.9Z"/><path class="cls-24" d="M197.4,488l.8.3c3.8,1.5,19.1,10.4,39.8,0,2.5-1.3,3.8-5,3.8-5s-3.3-7.7-4-29.8,0-24.7-3.8-35.6-13.8-21.4-13.8-21.4-9.9,6.2-13.5,6.2c-4.5,10.9-9.2,25.1-7.5,35.4,1.1,6.8-.1,26.8-1,39.2C197.7,483.6,197.4,488,197.4,488Z"/><path class="cls-25" d="M197.4,488l.8.3c8.8-6.8,20.4-16.7,23.5-21s5.1-13.9,5.5-17.7h1.9a60.5,60.5,0,0,0-1.9-28.9L211,426.5l-6.1,18.3a47.1,47.1,0,0,0,8,2.7c-.5,5.5-1.8,14.6-2.7,16.4s-6.5,7.7-12,13.4C197.7,483.6,197.4,488,197.4,488Z"/><path class="cls-26" d="M160.9,493.1a4.2,4.2,0,0,0,4.2,4.2,4.2,4.2,0,0,0,0-8.4A4.2,4.2,0,0,0,160.9,493.1Z"/><polygon class="cls-11" points="28.7 533.7 24.6 591.1 79.4 591.1 75.6 533.6 28.7 533.7"/><path class="cls-12" d="M39.6,538.7h0a1.7,1.7,0,0,1,1.8-1.6h0a1.7,1.7,0,0,1,1.9,1.6,1.7,1.7,0,0,1-1.8,1.6h0A1.7,1.7,0,0,1,39.6,538.7Zm1.8-1a1.1,1.1,0,0,0-1.2,1c0,.6.6,1,1.3,1h0c.7,0,1.2-.4,1.2-1a1.1,1.1,0,0,0-1.2-1Zm-1.5,1Z"/><path class="cls-12" d="M58.2,538.7h0a1.6,1.6,0,0,1,.5-1.1,2.2,2.2,0,0,1,1.4-.5h0a1.7,1.7,0,0,1,1.9,1.6,1.4,1.4,0,0,1-.6,1.1,1.9,1.9,0,0,1-1.3.5h0A1.8,1.8,0,0,1,58.2,538.7Zm1.9-1a1.3,1.3,0,0,0-1,.4.8.8,0,0,0-.2.6h0a1.1,1.1,0,0,0,1.2,1h0a1.8,1.8,0,0,0,1-.4.7.7,0,0,0,.3-.6c0-.6-.6-1-1.3-1Z"/><path class="cls-12" d="M50.2,550.3h.6c3.4-.2,6-1.3,7.7-3.3a11.2,11.2,0,0,0,2.2-8.4.5.5,0,0,0-.7-.5c-.3,0-.5.3-.5.7s.6,4.4-1.9,7.4-3.8,2.7-6.9,2.8-5.2-.6-6.6-2.3-2.1-7.9-2-7.9a.7.7,0,0,0-.6-.7.6.6,0,0,0-.6.5c-.1.3-.8,5.5,2.3,8.9A9,9,0,0,0,50.2,550.3Z"/><polygon class="cls-9" points="49.9 547.5 43.3 590.2 102.8 590 96.8 547.4 49.9 547.5"/><path class="cls-27" d="M61,552.6a1.6,1.6,0,1,0,1.6-1.3A1.5,1.5,0,0,0,61,552.6Z"/><path class="cls-27" d="M79.7,552.6a1.6,1.6,0,0,0,3.2,0c0-.8-.7-1.3-1.6-1.3A1.5,1.5,0,0,0,79.7,552.6Z"/><path class="cls-28" d="M81.3,552.6s1.5,10.8-9.4,11.2-9.3-11.2-9.3-11.2"/><path class="cls-11" d="M111,651.6a11.3,11.3,0,1,0,11.3,11.3A11.3,11.3,0,0,0,111,651.6Zm0,17a5.8,5.8,0,0,1-5.7-5.7,5.7,5.7,0,0,1,5.7-5.7,5.6,5.6,0,0,1,5.7,5.7A5.7,5.7,0,0,1,111,668.6Z"/><path class="cls-11" d="M41,651.6a11.3,11.3,0,1,0,11.3,11.3A11.3,11.3,0,0,0,41,651.6Zm0,16.5a5.2,5.2,0,0,1,0-10.4,5.2,5.2,0,1,1,0,10.4Z"/><path class="cls-8" d="M111,651.6a11.3,11.3,0,1,0,11.3,11.3A11.3,11.3,0,0,0,111,651.6Zm0,17a5.8,5.8,0,0,1-5.7-5.7,5.7,5.7,0,0,1,5.7-5.7,5.6,5.6,0,0,1,5.7,5.7A5.7,5.7,0,0,1,111,668.6Z"/><path class="cls-8" d="M41,651.6a11.3,11.3,0,1,0,11.3,11.3A11.3,11.3,0,0,0,41,651.6Zm0,16.5a5.2,5.2,0,0,1,0-10.4,5.2,5.2,0,1,1,0,10.4Z"/><path class="cls-29" d="M163.4,493.1H140a7.2,7.2,0,0,0-6.4,4l-17.1,33.7"/><path class="cls-29" d="M25.7,591.1h75.5a8.1,8.1,0,0,0,8.1-6.9l7.8-48.8a8.1,8.1,0,0,0-8-9.4H17.9a8.2,8.2,0,0,0-8.1,9.4l7.8,48.8A8.3,8.3,0,0,0,25.7,591.1Z"/><line class="cls-29" x1="63.5" y1="526" x2="63.5" y2="591.1"/><line class="cls-29" x1="113.4" y1="558.5" x2="13.5" y2="558.5"/><line class="cls-29" x1="93.3" y1="526" x2="86.8" y2="591.1"/><line class="cls-29" x1="38.1" y1="526" x2="44.1" y2="591.1"/><path class="cls-29" d="M108.2,591.1l15,49.5a8.7,8.7,0,0,1-8.3,11.2H39.1"/><polyline class="cls-30" points="615.3 364.3 608.3 368.1 611.8 359"/><path class="cls-30" d="M637,352.7a14.8,14.8,0,1,1-14.8-14.8A14.8,14.8,0,0,1,637,352.7Z"/><path class="cls-31" d="M619.6,359.8c3.2,0,6.4.1,9.4-.1.9-.1,1.8-1.6.6-2,.5-.3,1-.5,1.2-1.1a1,1,0,0,0-.6-1.3c1.1.3,1.6-1.5.7-2.1a2,2,0,0,0,.9-1.5,1.4,1.4,0,0,0-.6-1.5,2.5,2.5,0,0,0-1.2-.2h-4a8.8,8.8,0,0,0-.6-6.2c-.3-.5-1.2-1.2-1.9-.8s-.4,1.4-.4,2a7.2,7.2,0,0,1-3.7,6.5S619.6,357,619.6,359.8Z"/><rect class="cls-31" x="613.5" y="351.4" width="4.9" height="8.38"/><g class="cls-32"><polyline class="cls-12" points="581.6 167.3 570.8 173.1 576.2 159.1"/><circle class="cls-12" cx="592.1" cy="149.5" r="22.6"/><path class="cls-31" d="M588.1,160.4c4.9.1,9.9.1,14.5-.2,1.4-.1,2.6-2.4.9-3.1.7-.4,1.5-.7,1.8-1.5a1.6,1.6,0,0,0-.9-2.1c1.7.4,2.4-2.3,1.1-3.2a3.5,3.5,0,0,0,1.4-2.3,2.3,2.3,0,0,0-1-2.4l-1.8-.3h-6.2c.6-3.2.8-6.7-.9-9.5-.5-.9-1.8-1.9-2.8-1.3s-.7,2.2-.7,3.1a10.8,10.8,0,0,1-5.6,9.9S588.2,156,588.1,160.4Z"/><rect class="cls-31" x="578.9" y="147.5" width="7.5" height="12.83"/></g><g class="cls-32"><polyline class="cls-12" points="159.2 228.5 167 232.7 163.1 222.6"/><circle class="cls-12" cx="151.5" cy="215.6" r="16.4"/><path class="cls-31" d="M154.5,223.5c-3.6.1-7.2.1-10.5-.1-1.1-.1-2-1.7-.7-2.3A2,2,0,0,1,142,220a1.1,1.1,0,0,1,.6-1.5c-1.2.3-1.7-1.6-.7-2.3a2.5,2.5,0,0,1-1.1-1.7,1.7,1.7,0,0,1,.8-1.7,2.7,2.7,0,0,1,1.3-.2h4.4c-.4-2.4-.5-4.9.7-7,.3-.6,1.3-1.3,2.1-.8s.5,1.5.4,2.2a8,8,0,0,0,4.1,7.2S154.4,220.4,154.5,223.5Z"/><rect class="cls-31" x="155.8" y="214.2" width="5.4" height="9.31" transform="translate(316.9 437.7) rotate(180)"/></g><rect class="cls-30" x="49.8" y="276.2" width="151.4" height="44.62" rx="4.6" transform="translate(251 597.1) rotate(180)"/><path class="cls-30" d="M187,314.1s4,28.1,4,26.4-20-24.1-20-24.1Z"/><polygon class="cls-9" points="90.2 294 97.8 295.3 92.2 300.5 93.4 308.1 86.7 304.4 79.9 307.9 81.3 300.3 75.9 294.9 83.5 293.9 87 287.1 90.2 294"/><polygon class="cls-9" points="117 294 124.5 295.3 119 300.5 120.2 308.1 113.5 304.4 106.6 307.9 108 300.3 102.6 294.9 110.2 293.9 113.7 287.1 117 294"/><polygon class="cls-9" points="143.7 294 151.3 295.3 145.7 300.5 146.9 308.1 140.2 304.4 133.4 307.9 134.8 300.3 129.4 294.9 137 293.9 140.5 287.1 143.7 294"/><polygon class="cls-2" points="172.5 300.5 173.7 308.1 167.2 304.6 167 304.4 160.2 307.9 161.5 300.3 156.2 294.9 163.7 293.9 167.2 287.1 170.5 294 178.1 295.3 172.5 300.5"/><polygon class="cls-9" points="167.2 287.1 167.2 304.6 167 304.4 160.2 307.9 161.5 300.3 156.2 294.9 163.7 293.9 167.2 287.1"/><path class="cls-9" d="M543.7,597.9h0V171a36,36,0,0,0-36-35.9H330.2a36,36,0,0,0-36,35.9V603.9a36,36,0,0,0,36,36H507.7a36,36,0,0,0,33.1-21.8,35,35,0,0,0,2.9-14.2Z"/><path class="cls-33" d="M387.1,156a3.5,3.5,0,0,1-3.5,3.5,3.5,3.5,0,0,1-3.4-3.5,3.4,3.4,0,0,1,3.4-3.4A3.5,3.5,0,0,1,387.1,156Z"/><rect class="cls-33" x="395.6" y="151.8" width="65.6" height="8.5" rx="1.3"/><circle class="cls-33" cx="418.9" cy="618.7" r="13.7"/><rect class="cls-34" x="299.7" y="177" width="236.6" height="420.95"/><path class="cls-35" d="M472.7,323.7l-36.3-25.5a20.1,20.1,0,0,0-22.3,0l-36.3,25.5c-8.7,6.1-13.8,15.2-13.8,24.8V485.3a20.5,20.5,0,0,0,20.5,20.5h81.4a20.5,20.5,0,0,0,20.5-20.5V348.5C486.4,338.9,481.4,329.8,472.7,323.7Zm-47.5-.1c-5.4,0-9.8-3.7-9.8-8.4s4.4-8.3,9.8-8.3,9.8,3.7,9.8,8.3S430.6,323.6,425.2,323.6Z"/><path class="cls-2" d="M430.4,367.5a32.3,32.3,0,0,1,18.6,9,26.9,26.9,0,0,1,4.9,6.6,16.5,16.5,0,0,1,1.8,6.1,2.2,2.2,0,0,1-.7,1.9,2.7,2.7,0,0,1-2,.8h-5a3.8,3.8,0,0,1-2.2-.5,4.6,4.6,0,0,1-1.6-2.2,21.2,21.2,0,0,0-2.1-3.1,16.8,16.8,0,0,0-3.8-3.7,21.6,21.6,0,0,0-13.8-4.3,23.2,23.2,0,0,0-6.5.8,18.8,18.8,0,0,0-5.6,2.3,12.4,12.4,0,0,0-3.9,4,10.4,10.4,0,0,0-1.5,5.6,10.3,10.3,0,0,0,1.4,5.4,12.8,12.8,0,0,0,4.5,4,41.1,41.1,0,0,0,8,3.3l11.6,3.3a71.7,71.7,0,0,1,11.9,4,31.5,31.5,0,0,1,7.9,5,16.4,16.4,0,0,1,4.4,6.4,20.9,20.9,0,0,1,1.5,8.1,22.6,22.6,0,0,1-2,9.4,22.3,22.3,0,0,1-5.6,7.4,28.3,28.3,0,0,1-8.8,5.3,39.7,39.7,0,0,1-11.4,2.7v8a3.4,3.4,0,0,1-3.3,3.3h-5a3.4,3.4,0,0,1-3.3-3.3v-8.2a38.3,38.3,0,0,1-10.7-3.2,39.7,39.7,0,0,1-8.3-5.4,25.7,25.7,0,0,1-5.4-6.7,14.1,14.1,0,0,1-2.1-7.1,2.5,2.5,0,0,1,.8-1.9,2.6,2.6,0,0,1,1.9-.8h5a4.6,4.6,0,0,1,2.1.5,4.4,4.4,0,0,1,1.7,2.2,16,16,0,0,0,2.3,3.8,19,19,0,0,0,4.1,3.8,23.8,23.8,0,0,0,6.2,3,28.8,28.8,0,0,0,8.8,1.2,31,31,0,0,0,8.1-1,22.1,22.1,0,0,0,6.8-2.8,15.3,15.3,0,0,0,4.7-4.4,10.4,10.4,0,0,0,1.7-5.8,8,8,0,0,0-2-5.4,18.1,18.1,0,0,0-5.6-4.1,48.6,48.6,0,0,0-9-3.4l-12.1-3.3a44.6,44.6,0,0,1-10.4-3.8,26,26,0,0,1-7-5.2,18.6,18.6,0,0,1-3.9-6.6,23.5,23.5,0,0,1-1.2-7.7,22.6,22.6,0,0,1,1.5-8,22.1,22.1,0,0,1,4.4-7.1,24.3,24.3,0,0,1,7.3-5.4,32.9,32.9,0,0,1,10.3-2.9v-8.1a3.4,3.4,0,0,1,3.3-3.3h5a3.4,3.4,0,0,1,3.3,3.3Z"/><path class="cls-36" d="M419.7,294.6c-7.9-25.8-19.2-73.3,5.4-74.1,34-1.2,0,90,0,90l-1.8-3.6"/><polygon class="cls-37" points="456.2 177 299.7 416.7 299.7 283.2 369 177 456.2 177"/><polygon class="cls-37" points="522.1 177 299.7 517.6 299.7 455.7 481.7 177 522.1 177"/><polygon class="cls-37" points="536.2 316.4 536.2 378.2 392.8 597.9 352.4 597.9 536.2 316.4"/><g class="cls-32"><polyline class="cls-12" points="265.8 125.4 276.7 131.2 271.2 117"/><circle class="cls-12" cx="255" cy="107.3" r="23" transform="translate(-18.2 63.8) rotate(-13.8)"/><path class="cls-2" d="M245.3,101a5.7,5.7,0,0,1,8,.1l1.4,1.5,1.5-1.5a5.6,5.6,0,0,1,7.9,8l-5.5,5.4h0a5.5,5.5,0,0,1-8-.1l-5.4-5.4A5.8,5.8,0,0,1,245.3,101Z"/></g><g class="cls-32"><polyline class="cls-12" points="698.7 267.6 691.1 271.7 694.9 261.8"/><circle class="cls-12" cx="706.2" cy="255" r="16.1"/><path class="cls-2" d="M713,250.6a4,4,0,0,0-5.6.1l-1,1-1-1a3.9,3.9,0,0,0-5.5,5.6l3.8,3.7h0a3.7,3.7,0,0,0,2.2,1,4,4,0,0,0,3.4-1.1l3.7-3.8A4,4,0,0,0,713,250.6Z"/></g><path class="cls-38" d="M612.9,625.2c-.7-3.9-2.8-10.6-1.6-22.2s9.4-43.9,8.3-55.7a20.2,20.2,0,0,0-3.3-8.7l-1.3-1.8a69.5,69.5,0,0,0,1.6-12.6h-55c1.4,5.9,5.9,12.1,18.9,17.7,2,0,4.1-1.2,6.3-3.1l7.5,4.4,1.3.8a212.3,212.3,0,0,0-1.3,27.5c0,3.8.3,7.6,0,11.4a30.6,30.6,0,0,1-1.3,6c0-.1-.1-.2-.1-.3s-.6,1.1-.8,1.4l-.6,1.7c-.5,1.1-.8,2.3-1.2,3.4a54.2,54.2,0,0,0-1.4,7,48.5,48.5,0,0,0,.9,17.8,4.2,4.2,0,0,0,1.7,3,5.9,5.9,0,0,0,3.1,1.2,7.3,7.3,0,0,0,3.3-.2,5.1,5.1,0,0,0,2.7-2.5c-.3,4.1-.3,10.1,1.6,14.5h11.5a33,33,0,0,0-.8-10.6Zm-52.3-79.5c-.9-6.6-3.1-9.3-4.7-10.5a1.3,1.3,0,0,1,.8.2,3.2,3.2,0,0,1,1.7,1.5,1.2,1.2,0,0,0,2.2-.1c.2-1.1,0-2.8-.4-6.5,0-.7.1-3,.4-6.1h-8.1c.2,2.1.3,3.7.3,4.3,0,2.6-3,2.7-4.8,4.1a4.4,4.4,0,0,0-1.3,2c-2.6.9-5.4,3.6-5.9,11.1h-13l-5.7,49.8h57.8l-6.5-49.8Zm-13.9,0,3.3-5.8h1a6.1,6.1,0,0,0,2.9-.9l2.8,6.8Zm11.8,0a5,5,0,0,0-.2-1.2l.5,1.2Z"/><path class="cls-39" d="M545.1,548.5a.6.6,0,0,1-.6-.6c-.7-8.6.6-14.3,4-16.9a7.9,7.9,0,0,1,6.9-1.3.7.7,0,0,1,.4.8.6.6,0,0,1-.8.4,6.9,6.9,0,0,0-5.7,1.1c-3,2.4-4.2,7.8-3.5,15.8a.7.7,0,0,1-.6.7Z"/><path class="cls-39" d="M563.2,547.9a.7.7,0,0,1-.7-.6c-.4-15.6-6.2-16.4-6.3-16.4a.9.9,0,0,1-.6-.8.7.7,0,0,1,.8-.5c.3,0,7,1,7.4,17.6a.7.7,0,0,1-.6.7Z"/><polygon class="cls-40" points="577.6 541.6 584.1 591.4 526.3 591.4 532 541.6 577.6 541.6"/><path class="cls-39" d="M547.2,548.5a.6.6,0,0,1-.6-.6c-.7-8.6.7-14.3,4-16.9a8,8,0,0,1,6.9-1.3.7.7,0,0,1,.4.8.6.6,0,0,1-.8.4,6.9,6.9,0,0,0-5.7,1.1c-2.9,2.4-4.2,7.8-3.5,15.8a.7.7,0,0,1-.6.7Z"/><path class="cls-39" d="M565.3,547.9a.7.7,0,0,1-.7-.6c-.4-15.4-6.2-16.4-6.3-16.4a.7.7,0,0,1-.5-.8.5.5,0,0,1,.7-.5c.3,0,7,1,7.4,17.6,0,.4-.2.7-.6.7Z"/><path class="cls-41" d="M617.2,621.9c.5,3.8-.7,10-4.6,8.3s-5.7-8.8-5.9-19.7v-2.6c0-2,.2-4.1.4-6.2a7.1,7.1,0,0,1-1.4-2.6c-1.5-4.2-2.2-11.7-2.3-19.3-.3-12.9.6-26.3.6-26.3l-.7-11.6-2-1.1-2.9-1.7-14.1-8.4,12.2-10.5,1.5-1.3.3-.2,8.8,2.9a52.5,52.5,0,0,1,11,9.7h0a26.2,26.2,0,0,1,2.3,3.2,17.6,17.6,0,0,1,3.3,8.6c1.1,11.8-7,43.4-8.3,55.8s.9,18.2,1.7,22.2h0C617.1,621.4,617.2,621.7,617.2,621.9Z"/><path class="cls-26" d="M614.7,637.9c-13.8-.3-9.5-25.3-9.5-25.3l-.6-5.2,2.1.5c-.2,12.3,2.5,20.8,5.9,22.3s5.1-4.5,4.6-8.3c0-.2-.1-.5-.1-.8C619.1,629.2,617.6,637.8,614.7,637.9Z"/><path class="cls-42" d="M617.3,544.9c-7.8,21.7-9.4,41.9-9,44.5s.4,12.2.4,12.3a34.2,34.2,0,0,1-2,8.8c-1.4,3.7-3.8,6.6-7.4,4.9-6.6-3.3-5.4-16-2.7-23.7,1.2-4.2,3.1-8.2,3.5-12.6s0-7.6,0-11.4a217.2,217.2,0,0,1,1.2-26.9,140.4,140.4,0,0,1,2.7-15.3l-6-6.6.3-.2,8.8,2.9s8.5,5.3,13.3,12.9A83.2,83.2,0,0,1,617.3,544.9Z"/><path class="cls-10" d="M558.2,466.5s-2.9,19.5-2.9,26.9c0,14.5,1.6,28.3,1.6,30.9s-2.9,2.7-4.8,4.2-3.6,8.1,3.1,7.2c3.4-.5,3.5-1.3,4.3-3.7.1-.4.1-1.4,1.4-.8a3.7,3.7,0,0,1,1.7,1.5,1.1,1.1,0,0,0,2.1-.1c.3-1.1-1.2-3.2-1.6-6.9.4-5.9,2-25,1.8-31.1,1.1-8.9,5.1-26.2,5.1-26.2Z"/><path class="cls-42" d="M618.1,531.3h0a99.5,99.5,0,0,1-3.8,13.2c-7.8,21.7-9.4,41.9-9,44.5s.4,7.4.4,10.1l-2.3-19.3c-.3-12.9.6-26.3.6-26.3l-.7-11.6-2-1.1-2.9-1.7a137.6,137.6,0,0,1,2.6-14l-4.5-4.9,1.5-1.3.3-.2,8.8,2.9A52.5,52.5,0,0,1,618.1,531.3Z"/><path class="cls-10" d="M612,501.8l-21.9,10,12.3,13.3c-4.3,17.2-3.9,35.9-3.9,42.2,0,3.8.2,7.6-.1,11.4s-2.2,8.4-3.4,12.6c-2.7,7.7-3.9,20.4,2.7,23.7s9-9.6,9.4-13.7a106.8,106.8,0,0,0-.5-12.3c-.3-2.6,1.2-22.8,9.1-44.5s4.3-33,4.3-33Z"/><path class="cls-10" d="M579.2,425.5V430c0,1.5-4.2,3.2-6.2,3.7s3,11.5,9.8,11.2,13.7-6.6,14.7-13.2c-3.7-.5-6.4,0-7-.9a10.2,10.2,0,0,1-1-6.2C589.8,421.9,579.2,425.5,579.2,425.5Z"/><path class="cls-19" d="M620,511.5c-8.3-4.1-15.3,3.9-20.5,12.2s-10.2,13.9-14.8,14.1c-20.7-9-19.8-19.1-19.2-27.6a40.6,40.6,0,0,1,3.6-14.1s20.4-2.7,34.9-2.7C610.7,496.8,619.2,506.3,620,511.5Z"/><path class="cls-11" d="M617.5,468.2a17.8,17.8,0,0,1-15,2.8l-.8-.2a21.3,21.3,0,0,0-5.3-.3,152.2,152.2,0,0,0-18.4,2.4l-5.8.9a12.8,12.8,0,0,1-3.3.1,71,71,0,0,1-9.5-1.7l-3.7-.9a2.8,2.8,0,0,1,.1-.5c.5-3.1,3.6-20.4,4.4-23.5,2.2-7.9,8.5-14.1,16.7-15.1,0,0-.3,9.9,9.2,9.9,4.5,0,6.6-3.8,7.7-10.7,4.1.1,19.4,0,23.6,35.8C617.4,467.6,617.5,467.9,617.5,468.2Z"/><path class="cls-43" d="M620,511.5c-8.3-4.1-15.3,3.9-20.5,12.2s-10.2,13.9-14.8,14.1c-20.7-9-19.8-19.1-19.2-27.6a40.6,40.6,0,0,1,3.6-14.1s20.4-2.7,34.9-2.7l-17.6,6.4c-3.5,1.3-13.7-.1-14.7-.4s-3.9,14.3-2.5,19.3,11.4,16.1,16.8,15,10.9-9.2,13.6-13.3S609.3,504.6,620,511.5Z"/><path class="cls-26" d="M598.8,620a7.5,7.5,0,0,1-3.2-1.3,4.8,4.8,0,0,1-1.7-3,48.5,48.5,0,0,1-.9-17.8,41.5,41.5,0,0,1,1.5-7c.3-1.1,2.7-6.1,2.6-5.9-1.7,6.1-3.2,12.4-2.9,18.7a11.9,11.9,0,0,0,1,4.6,5.6,5.6,0,0,0,3.2,3.2c2.4.8,5.1-.7,6.6-2.8s1.8-4.8,2.1-7.3c-.1,5.1-.1,10.3-2,15-.6,1.4-1.5,2.9-3,3.4A9.2,9.2,0,0,1,598.8,620Z"/><path class="cls-44" d="M578.5,474.6c0,1.8-2.4,2.7-2.4,2.7h-3a22.5,22.5,0,0,0-.9-3.5,12.8,12.8,0,0,1-3.3.1,71,71,0,0,1-9.5-1.7l-3.7-.9a2.8,2.8,0,0,1,.1-.5c7.4,1.8,14.1-.1,13.4-1.7-4.3-9.8,1.8-20,2.3-20.6s.5,4.2.5,4.2,1,7.6,1.2,8.1,3.6,8.3,4.8,12.1A6.8,6.8,0,0,1,578.5,474.6Z"/><path class="cls-44" d="M617.5,468.2a17.8,17.8,0,0,1-15,2.8l-.8-.2a21.3,21.3,0,0,0-5.3-.3c.7-4.2,2.1-9.8,2.1-10.1s-.1-8.2-.1-8.2a6.8,6.8,0,0,1,1.8-2.4c.6.5,6.3,7.6,3.8,18-.4,1.7,6.6,3.4,13.5.4C617.6,468.5,617.5,467.9,617.5,468.2Z"/><path class="cls-11" d="M604,493.4c-1.6-.4-8.6,1.4-16.5,3.9s-18.4-1.2-18.4-1.2a85.7,85.7,0,0,1,3.5-10.4,14.2,14.2,0,0,0,.5-8.4,22.5,22.5,0,0,0-.9-3.5c-.8-2.3-1.1-4.1-2.2-6.6-2.9-6.5-.3-14,.5-18.7h30.8c2.1,7.7,2.6,14.5,1.4,17.8a40.2,40.2,0,0,0-1,4.5,57.4,57.4,0,0,0-.6,10.3A51.5,51.5,0,0,0,604,493.4Z"/><path class="cls-44" d="M569.2,466.5A6.2,6.2,0,0,0,572,470a11.2,11.2,0,0,0,4.1,1.5,9.1,9.1,0,0,0,4.3-.5,17.4,17.4,0,0,0,3.9-2.3,9,9,0,0,1-3.5,3.2,8.3,8.3,0,0,1-4.9.9,9.7,9.7,0,0,1-4.5-2,7,7,0,0,1-1.6-1.9A4.1,4.1,0,0,1,569.2,466.5Z"/><path class="cls-44" d="M588.5,468.2a10,10,0,0,0,3.3,2.5,13.8,13.8,0,0,0,3.9.9,10.9,10.9,0,0,0,4-.7,14.8,14.8,0,0,0,3.7-2,9.2,9.2,0,0,1-3.3,2.9,8.4,8.4,0,0,1-8.8-.3A6.4,6.4,0,0,1,588.5,468.2Z"/><path class="cls-44" d="M585.6,442.7a9.2,9.2,0,0,1-6.7-2.7c-2.9-3.1-2.7-7.6-2.7-7.8s.3-.6.7-.6.6.3.6.7-.1,4.1,2.3,6.8a8.3,8.3,0,0,0,5.8,2.3c7.3-.4,7.6-9.6,7.6-10a.6.6,0,0,1,.6-.6.7.7,0,0,1,.7.6C594.4,435.2,592.5,442.4,585.6,442.7Z"/><path class="cls-43" d="M588.5,508.5l6.9,9.5C591.8,515.6,588.5,509.6,588.5,508.5Z"/><path class="cls-42" d="M578.8,426.1s2.5,3.8,5.9,3a7.6,7.6,0,0,0,4.7-4.1Z"/><path class="cls-45" d="M586.7,386.3s-19.8-6.1-22.2,17.5c-.3,3.9-3.5,17.4-5,19.1s7,7.8,18.6,2.8c9.7,0,13.4-1.7,13.4-1.7s3.6,4,18.5-.6c-3.5-5.9-6.4-10.4-7.6-18.3S598.4,382.5,586.7,386.3Z"/><path class="cls-10" d="M570.9,412.1s1,15.7,13.4,15.7c6.3-.8,13.5-12,11.4-21.3s-4.7-10.2-4.7-10.2l-12.4,1.1L567.5,402Z"/><path class="cls-45" d="M568.7,415s3.4-2,4.4-5.2,6.7-2.4,10.8-3.3,7.6-3.3,8.5-6.2c1.4,4.8,2.6,6,3.7,7.4s2.4-7.4,2.4-7.4l-5.4-6.9-7.7-.8h-6.5l-3.5,1.1a45.2,45.2,0,0,0-6.1,2.6c-.5,0-3.8,3.2-3.8,3.2Z"/><path class="cls-39" d="M565.2,549.5a1.9,1.9,0,0,1-1.8-1.9,1.8,1.8,0,0,1,1.8-1.8,1.9,1.9,0,0,1,1.9,1.8A2,2,0,0,1,565.2,549.5Zm0-3.1a1.2,1.2,0,1,0,1.2,1.2A1.2,1.2,0,0,0,565.2,546.4Z"/><path class="cls-39" d="M547.1,549.5a1.9,1.9,0,0,1-1.9-1.9,1.8,1.8,0,0,1,1.9-1.8,1.8,1.8,0,0,1,1.8,1.8A1.9,1.9,0,0,1,547.1,549.5Zm0-3.1a1.2,1.2,0,0,0,0,2.4,1.2,1.2,0,0,0,0-2.4Z"/><path class="cls-10" d="M639.3,456.3c.9-1.7.3-6-1.3-3.3s-2.6,5.7-3.8,9c-1.6,1.6-7.5,6.6-12.5,12.1,2.1,2.7,4.4,5.4,6.3,8.3,3-4,6.7-9.7,11.7-16,4.7-2.8,8.9-6.2,8.7-9.3a3.8,3.8,0,0,0-2.9-3.8,6.5,6.5,0,0,0-1.4,0A11.1,11.1,0,0,0,639.3,456.3Z"/><path class="cls-46" d="M638.1,455.1s-10.1-2-11.8,16.7"/><path class="cls-46" d="M636.5,455.1s10-2.8,11.4,13.9"/><polygon class="cls-26" points="662.1 472.6 668.6 522.3 610.8 522.3 616.5 472.6 662.1 472.6"/><path class="cls-47" d="M651.2,478.6a1.5,1.5,0,1,1-3,0,1.5,1.5,0,0,1,3,0Z"/><path class="cls-47" d="M633.1,478.6a1.5,1.5,0,0,1-1.6,1.5,1.5,1.5,0,0,1-1.5-1.5,1.5,1.5,0,0,1,1.5-1.5A1.6,1.6,0,0,1,633.1,478.6Z"/><polygon class="cls-9" points="662.5 464.5 676.3 512.8 619.1 521.3 617.4 471.2 662.5 464.5"/><path class="cls-47" d="M652.6,472.1a1.4,1.4,0,0,1-1.2,1.7,1.5,1.5,0,0,1-1.8-1.3,1.6,1.6,0,0,1,1.3-1.7A1.5,1.5,0,0,1,652.6,472.1Z"/><path class="cls-47" d="M634.7,474.8a1.6,1.6,0,0,1-1.3,1.7,1.5,1.5,0,0,1-1.7-1.3,1.4,1.4,0,0,1,1.3-1.7A1.5,1.5,0,0,1,634.7,474.8Z"/><path class="cls-46" d="M637.6,456.2s10-4.8,13.5,16.1"/><path class="cls-46" d="M633.2,475s-2.4-17.7,4.9-19.1"/><path class="cls-48" d="M635.4,458.7s1.1-2.4,1.7-4,2-4.2,2.6-1.3a9,9,0,0,1-.5,3.4"/><g class="cls-49"><polyline points="391.3 284 384.3 287.7 387.8 278.7"/><circle cx="398.2" cy="272.4" r="14.8"/><path d="M404.4,268.4a3.6,3.6,0,0,0-5.1,0l-.9,1-.9-1a3.5,3.5,0,0,0-5.1.1,3.6,3.6,0,0,0,0,5.1l3.5,3.4h0a3.5,3.5,0,0,0,2,1,3.3,3.3,0,0,0,3.1-1l3.5-3.5A3.5,3.5,0,0,0,404.4,268.4Z"/></g><polyline class="cls-30" points="395.6 281.7 388.6 285.4 392.1 276.4"/><circle class="cls-30" cx="402.5" cy="270.1" r="14.8"/><path class="cls-2" d="M408.7,266.1a3.6,3.6,0,0,0-5.1,0l-.9,1-.9-1a3.5,3.5,0,0,0-5.1.1,3.6,3.6,0,0,0,0,5.1l3.5,3.4h0a3.5,3.5,0,0,0,2,1,3.6,3.6,0,0,0,3.1-1l3.5-3.5A3.5,3.5,0,0,0,408.7,266.1Z"/><path class="cls-38" d="M327.3,390.5a3.1,3.1,0,0,1-.2-2.5c.9-3.2,2.6-7.6,4.2-11.7l1,.2c1.9,8.1,3.9,19.4,3.2,25.1h0l-1.5,2.2C331.5,398.9,329,394,327.3,390.5Z"/><path class="cls-50" d="M335.5,522.5h0c-4.4,20.9-2.3,49.5-3.3,65.2l6,.8s13.6-66.2,16.1-78.8c.1-.9.3-1.8.3-2.5.6-9.5-8-10-12.9-2.1a41.3,41.3,0,0,0-2.2,4.2,16.7,16.7,0,0,1-.8,2h0a56.8,56.8,0,0,0-2.1,6.6v.3c-.2.6-.3,1.3-.5,2h0C335.8,521,335.7,521.8,335.5,522.5Z"/><path class="cls-50" d="M361.3,447.6c-.2,1.7-1.1,10-2.2,19.6s-2,17.4-2.8,24.6c-.6,5.5-1,9.8-1.2,11.9a32.7,32.7,0,0,1-.5,3.5h0c-2.1,9.5-8.6,10-12.6,7.8l-1.6-1a5.6,5.6,0,0,1-1.7-2.8h0c-.2-2-.5-4.7-.7-7.8h-.1c-.4-6.2-.8-14.1-1.2-21.9-.5-9.5-.7-18.7-.8-23.9v-.8c-.1-15.9,14.5-26.1,23.5-21.2l.4.2.3.2c1,.7,1.4,3.1,1.4,5.8A56.2,56.2,0,0,1,361.3,447.6Z"/><path class="cls-51" d="M339.1,507.5l-1.1-4.1h0a68.8,68.8,0,0,1-1.4,14.5v.3a19.4,19.4,0,0,1-.5,2h0a13.6,13.6,0,0,0-.5,2.2h0c0,1.9,4-6.5,4.9-8.4a1.1,1.1,0,0,1,.2-.4l-1.1-4.4Z"/><path class="cls-51" d="M361.5,441.7a56.2,56.2,0,0,1-.2,5.9c-.2,1.7-1.1,10-2.2,19.6-.4-2.1-.8-3.9-1.1-5.4s-.9-4.4-1-4.6C355.7,449.9,358.3,446.7,361.5,441.7Z"/><path class="cls-50" d="M370.5,526.5h0c-.4,21.8,6.3,49.8,8.1,65.7l5.5-.7s1-69.2,1.1-82.4a20.9,20.9,0,0,0-.1-2.6c-1.1-9.6-8.9-7.9-12,1.1a33.7,33.7,0,0,0-1.2,4.8,15.5,15.5,0,0,0-.4,2.1h0c-.4,2.3-.6,4.7-.8,7.2v.2a16.2,16.2,0,0,0-.1,2.2h0A17.7,17.7,0,0,0,370.5,526.5Z"/><path class="cls-50" d="M375,517.6l-1.5-.7a4.2,4.2,0,0,1-2-2.4h0c-.6-1.9-1.3-4.5-2-7.6h-.1c-1.4-6.1-3.2-13.9-4.8-21.5-2-9.3-3.8-18.4-4.8-23.6,0-.2-.8-4-.9-4.3-2.8-15.9,9.6-26.3,18.7-23.3l.3.2c1.9.7,2.4,7.1,2.8,11.4s3.5,49.1,4.2,57.2c.1,1.3.2,2.5.2,3.6C384.9,516.6,379,518.8,375,517.6Z"/><path class="cls-51" d="M371.2,510.7l-1.7-3.9h0a73.1,73.1,0,0,1,1.2,14.8v.2c0,.7-.1,1.5-.1,2.2h0c-.1,1.2-.1,1.9-.1,2.3h0c.3,1.9,2.5-7.4,3-9.6a1.6,1.6,0,0,0,.1-.4l-1.7-4.1Z"/><path class="cls-52" d="M348.3,422s-.1-.4-5.4,4c-.9-2-1.5-6.1-4.7-9.4s-8.8-9-16.7-22.7a8,8,0,0,1-.9-5.7c1.9-8,7.3-26.9,7.3-26.9l2.9.7,10.2,2.7s-6.8,15.4-9.1,23.3a3.6,3.6,0,0,0,.2,2.5C337,400.6,348.3,422,348.3,422Z"/><path class="cls-53" d="M340.4,401.6s-11.8,14.9-10.6,29.8c.5,6.2,4.2,11.9,4.9,18.1.1.9,1,10.6.6,10.6l11.1-.7c8-.7,33.8-.5,35.8-.5,0-1.6,0-30-12.6-59.1A208.3,208.3,0,0,1,340.4,401.6Z"/><path class="cls-54" d="M376.2,370.7a26.2,26.2,0,0,1-6.3,12.1c-.6,1-1,4-1.2,7.2h0c-.2,4.3.1,8.8.9,9.8-4.6,4.1-21.5,7.4-29.2,1.8.8-6.9-2.3-22-4.4-29.7l-.8-3c-2-5.8,17.7-25.4,17.7-25.4l10.1-4.6s9.1,3.3,12.3,6.3c-2.2,3.8-4.2,6.9.5,18.4A15.4,15.4,0,0,1,376.2,370.7Z"/><path class="cls-50" d="M373.8,303.8s11.3,33.4-16,31.2c-20.1-2.4-4.9-19.1-4.8-20.1s9.7-13.7,9.7-13.7Z"/><path class="cls-55" d="M369.6,399.8c-4.6,4.1-21.5,7.4-29.2,1.8.8-6.9-2.3-22-4.4-29.7v-3.4l3.8,5.5a161,161,0,0,1,2,25.8C341.8,402.8,362.6,403.9,369.6,399.8Z"/><path class="cls-55" d="M376.2,370.7a26.2,26.2,0,0,1-6.3,12.1c-.6,1-1,4-1.2,7.2a19.9,19.9,0,0,0-.5-4.9,3.5,3.5,0,0,1,1.3-3.7c5-3.7,5-11.4,5-11.4Z"/><path class="cls-52" d="M436.5,365c.1,2.3-1.1,6-6.2,6.7l-1.5.8c-3.3,2-11,7.3-18.7,12.2l-.5.3-1.5,1c-7.6,4.7-14.8,8.9-17.4,9-4.9-1.6-14.9-17.6-20.5-37.6a10.3,10.3,0,0,1,5.1-12.2,21.6,21.6,0,0,1,4.7,4.9c4,6.8,12.9,29.3,13.7,31.5,4.2-1.9,16.3-9.2,28.4-14.3,2.6-1.2,3.7-2.2,4.6-3.9a40.7,40.7,0,0,1,5-7.8c1.1-1.1,2.1-.8.2,4.4l-.5.9s4.4,1.2,4.9,3.1A3,3,0,0,1,436.5,365Z"/><path class="cls-56" d="M365.4,291.7l2.2-.9a6.9,6.9,0,0,1,4.9.2c3.9,1.7,5.9,7.5,5,11.4s-5.6,6.2-9.7,6.6a5.3,5.3,0,0,0-4.6,3.5c-1.2,3,.9,5.7.4,8.6s-2,2.9-3.1,4.5a4.7,4.7,0,0,0,.2,5.5c2.3,3.2,4,8,1.3,11.6a5.8,5.8,0,0,0-.7,5.7c.8,2.2,3,3.4,4.1,5.5a12.3,12.3,0,0,1,.4,11.2c-1.6,3.4-5.5,5.4-9.2,5.6s-5.4-.4-7.8.7-3.3,3.2-5.4,4.2c-4.3,2.1-10.6,1-12.8-3.6-1.3-2.8-4.5-2.3-7-3.1a9.3,9.3,0,0,1-6-6.6,10.8,10.8,0,0,1,.8-6.6,13.6,13.6,0,0,1,2.4-3.8c1-1.3,2.2-2.5,2.1-4.2s-2.2-4.5-3-6.9a10.7,10.7,0,0,1-.9-4.3c0-4.6,3.2-7.9,6.9-10.1l.9-.5c4.8-3,6.8-4.7,6.5-13s.4-21,19.4-23.6C355.4,288.7,362.4,289.2,365.4,291.7Z"/><path class="cls-57" d="M349.6,416.1a25,25,0,0,0-4.3,9.2,15.3,15.3,0,0,0,.6,9.7c1.2,3.1,3.6,5.6,5.4,8.7a28.6,28.6,0,0,1,2.2,4.7,18.4,18.4,0,0,1,1.4,5.1,28.6,28.6,0,0,0-2-4.8,46,46,0,0,0-2.5-4.4c-1.9-2.8-4.4-5.4-5.8-8.7a16.1,16.1,0,0,1-.4-10.6A21.4,21.4,0,0,1,349.6,416.1Z"/><path class="cls-40" d="M397.9,597.4c-4.8.9-10.2,0-12.3.4a76.3,76.3,0,0,1-8,.5c-1.4,0-1.4-6.8.5-7.5l1.3.3a12.7,12.7,0,0,0,5.6-.4c3.7,1.5,3.8,2.1,8,3a18.7,18.7,0,0,1,5.2,1.6C400,596.1,400.6,596.9,397.9,597.4Z"/><path class="cls-40" d="M348.7,597.6c-4.8-.8-9.6-3.5-11.7-3.8s-6.4-1.8-7.7-2.3,1-6.8,3-6.8l1.1.7a13.9,13.9,0,0,0,5.5,1.4c2.9,2.7,2.8,3.4,6.4,5.5a28,28,0,0,1,4.4,3.3C351.2,597,351.4,598,348.7,597.6Z"/><path class="cls-10" d="M225.3,444.5s-5.7,25.2-11.6,33.2-37.3,13.4-39.7,15.4-6.5-1-10.6.5c-1.4.6-.9,1.3-2.7,1.4s-4.4-2.9,1.7-6.6c3.3-1.3,8.9-.5,9.1-.6s30.9-15,32.3-17.9,7.2-28.7,7.2-28.7Z"/><path class="cls-24" d="M227,419.8a68.8,68.8,0,0,1,0,27.6,63.9,63.9,0,0,1-22.1-2.6l4-20.4"/></g></g></svg>