<svg id="Layer_1" data-name="Layer 1" xmlns="http://www.w3.org/2000/svg" viewBox="0 0 300 300"><defs><style>.cls-1{fill:#e8a615;}.cls-2{fill:#ffc902;}.cls-3{fill:#fff;}.cls-4{fill:#fcc332;}.cls-5{fill:#7762ef;}.cls-6{fill:#9797ef;}</style></defs><title>9631B</title><path class="cls-1" d="M240.2,214.7s25.7-27.8,23.3-51.9h-13l-42.2,51.3Z"/><path class="cls-2" d="M250.5,162.9c-34.8,0-47.6-.3-74.7.2S79.4,165.4,56,180.8a53.6,53.6,0,0,0-16.9,17.9c9.6-5.9,20.8-12,32.2-16,36.2-13,155-12,155-12a172,172,0,0,1-9.8,29.5,125.3,125.3,0,0,1-8.1,14.3h19.5S244.9,192.7,250.5,162.9Z"/><path class="cls-1" d="M226.3,170.7s-118.8-1-155,12c-11.4,4-22.6,10.1-32.2,16a44.2,44.2,0,0,0-5.5,16l174.8-.2a125.3,125.3,0,0,0,8.1-14.3A172,172,0,0,0,226.3,170.7Z"/><path d="M24.3,205.4v1.2H91.8s-13.9-5.4-63-5.7A4.5,4.5,0,0,0,24.3,205.4Z"/><path d="M243.2,187.1s-29.4,21-61.2,22.6c-28.3,1.4-127.7,0-148.6-.3a3.7,3.7,0,0,0-3.8,3.8v1.5H240.2l7.1-8.8S249.5,199.7,243.2,187.1Z"/><path class="cls-3" d="M218.4,178.3c0,1.5-2.3,2.8-5.1,2.8s-5-1.3-5-2.8,2.2-2.7,5-2.7S218.4,176.8,218.4,178.3Z"/><path class="cls-3" d="M198.5,178.3c0,1.5-2.2,2.8-5,2.8s-5.1-1.3-5.1-2.8,2.3-2.7,5.1-2.7S198.5,176.8,198.5,178.3Z"/><path class="cls-3" d="M145.8,179.5c0,1.5-2.2,2.7-5,2.7s-5-1.2-5-2.7,2.2-2.8,5-2.8S145.8,178,145.8,179.5Z"/><path class="cls-3" d="M163.4,179.5c0,1.5-2.2,2.7-5,2.7s-5.1-1.2-5.1-2.7,2.3-2.8,5.1-2.8S163.4,178,163.4,179.5Z"/><path d="M107.4,181.1a33.3,33.3,0,0,0-7.8.8v1.3h0v1.3a33.3,33.3,0,0,0,7.8.8,35.1,35.1,0,0,0,7.9-.7v-1.4h0v-1.4A35.1,35.1,0,0,0,107.4,181.1Z"/><path d="M107.4,189.6a33.3,33.3,0,0,0-7.8.8v1.3h0v1.3a33.3,33.3,0,0,0,7.8.8,35.1,35.1,0,0,0,7.9-.7v-1.4h0v-1.4A42.8,42.8,0,0,0,107.4,189.6Z"/><polygon class="cls-4" points="184.6 133.5 184.9 138.6 188.8 137.9 186.9 132.9 184.6 133.5"/><polygon class="cls-4" points="180.2 139.1 179.1 131.4 180.5 130.9 182.3 139.2 180.2 139.1"/><path class="cls-2" d="M160,146.6s9.1-2.6,14.3,1a40.2,40.2,0,0,1,3.8,2.7l48.1-1.3-4.9-6.8a8.5,8.5,0,0,0-6-3.7c-6.3-.7-19.6-2-31.6-.9-16.4,1.5-23.6,6.7-23.6,6.7Z"/><path class="cls-4" d="M227.9,163.3l15.4-.3s-6.7-10.8-11.2-16.1c-2.5-1.2-7.3-2-13.4-2.4A48.3,48.3,0,0,1,227.9,163.3Z"/><path class="cls-1" d="M158.6,164.8l69.3-1.5a48.3,48.3,0,0,0-9.2-18.8,154.8,154.8,0,0,0-39.1,3.5C166.8,150.9,158.6,164.8,158.6,164.8Z"/><path d="M192.2,152.2c-17.6,3.1-17.3,10.7-17.3,10.7h45.9l-6.3-13A170,170,0,0,0,192.2,152.2Z"/><path d="M243.3,163s-6.8-10.4-7.5-11.2a48.5,48.5,0,0,0-13.4-1.8,106.7,106.7,0,0,1,5.9,13Z"/><path class="cls-3" d="M222.4,150h-7.9l6.3,13h7.5A106.7,106.7,0,0,0,222.4,150Z"/><path d="M172.6,139.4s.7,2.5,8.8,1.6,15.2-1.4,21.5-2,11.2-.7,11.2-.7-1.5-2.2-6.7-3.2S172.6,139.4,172.6,139.4Z"/><path class="cls-5" d="M38.9,198.9s18.9-11.4,41.2-17.3c10.8-2.9,25.1-5.4,44-7.2,15.4-1.4,31.9-2.4,45.8-2.7,31.2-.7,79.1-1.4,79.1-1.4l14.1,2.8.4-2.8-14.3-2.7s-55.5.6-81.1,1.8c-11.4.6-38,1.7-62,5.2-13.4,1.9-21.7,3.4-35.5,7.5A106.3,106.3,0,0,0,41,195.7Z"/><rect class="cls-6" x="1.6" y="214.7" width="297" height="18.65" transform="translate(300.1 448.1) rotate(180)"/><path class="cls-5" d="M43.5,144.4H38.1a6.6,6.6,0,0,0-6.6-5.8H25.3a6.5,6.5,0,0,0-6.3,4.8H14.8a3.9,3.9,0,0,0-3.8,3.9,6.8,6.8,0,0,0,.2,1.4H4a2.5,2.5,0,0,0,0,5H43.5a4.7,4.7,0,1,0,0-9.3Z"/><path class="cls-6" d="M123.7,105.3h-9.4a8.7,8.7,0,0,0,.5-2.8h0a7.2,7.2,0,0,0-7.2-7.2H99.7A12.1,12.1,0,0,0,88.6,88H77.2a12.1,12.1,0,0,0-12.1,12.1,12.8,12.8,0,0,0,1.2,5.2H57.7a4.6,4.6,0,0,0-4.5,4.6v.8a4.6,4.6,0,0,0,4.5,4.6h66a4.6,4.6,0,0,0,4.5-4.6v-.8A4.6,4.6,0,0,0,123.7,105.3Z"/><path class="cls-5" d="M220.1,72.4h-5.5a6.7,6.7,0,0,0-6.5-5.9h-6.3a6.7,6.7,0,0,0-6.3,4.8h-4.1a3.9,3.9,0,0,0-3.9,3.9,2.8,2.8,0,0,0,.3,1.3h-7.2a2.6,2.6,0,0,0-2.6,2.6,2.6,2.6,0,0,0,2.6,2.5h39.5a4.7,4.7,0,0,0,0-9.3Z"/><path class="cls-6" d="M294.1,107.7H282.2a7.8,7.8,0,0,0,.4-2.1,6,6,0,0,0-5.9-5.9h-4.2a10.1,10.1,0,0,0-9.6-7.2h-9.5a10.1,10.1,0,0,0-9.7,7.3h-6.2a6,6,0,0,0-5.9,5.9,7.8,7.8,0,0,0,.4,2.1H221.1a3.8,3.8,0,0,0-3.9,3.8,3.9,3.9,0,0,0,3.9,3.9h73a3.9,3.9,0,0,0,3.9-3.9A3.8,3.8,0,0,0,294.1,107.7Z"/></svg>