<svg id="图层_1" data-name="图层 1" xmlns="http://www.w3.org/2000/svg" viewBox="0 0 76 76"><title>M_logo</title><polygon points="25.58 59.77 33.29 59.77 25.58 38.97 25.58 59.77"/><polygon points="44.92 37.38 44.92 25.56 41.29 37.38 44.92 37.38"/><polygon points="40.73 59.77 40.73 39.21 34.41 59.77 40.73 59.77"/><path d="M38.61.83a38,38,0,1,0,38,38A38,38,0,0,0,38.61.83Zm7.45,60.33V75.7l-.53.1V61.16H34.84L30.42,75.54l-.57-.13,4.33-14.06-.07-.19H26.18V74.33l-.58-.21v-13H8.36L8,60.66v-.07H25.6V38.72H22.78a.24.24,0,0,1-.24-.25.24.24,0,0,1,.24-.26H25.6V3.53l.58-.2V38.21H30.1c.35,0,.55.37.69.69L36.42,54l1.46-4.73,7.65-24.89V1.86l.53.1V22.69l5.85-19c.18.07.36.13.54.21l-6.39,20.8V38.21H49a.26.26,0,0,1,0,.51H46.08V60.59h5.76L64,38.73H60.3c-4.24,0-6.87,3.79-6.87,7.29a.24.24,0,0,1-.26.24.24.24,0,0,1-.25-.24V38.5a.29.29,0,0,1,.28-.29H68.86a.25.25,0,0,1,.21.11.45.45,0,0,1,0,.41L56.9,60.59h5.66c3.78-.47,6.14-4.19,6.14-7.36A.25.25,0,0,1,69,53a.25.25,0,0,1,.26.24v7.43l-.37.5Z" transform="translate(-0.61 -0.83)"/></svg>