<?xml version="1.0" standalone="no"?>
<!DOCTYPE svg PUBLIC "-//W3C//DTD SVG 20010904//EN"
 "http://www.w3.org/TR/2001/REC-SVG-20010904/DTD/svg10.dtd">
<svg version="1.0" xmlns="http://www.w3.org/2000/svg"
 width="725.000000pt" height="346.000000pt" viewBox="0 0 725.000000 346.000000"
 preserveAspectRatio="xMidYMid meet">

<g transform="translate(0.000000,346.000000) scale(0.100000,-0.100000)"
fill="#000000" stroke="none">
<path d="M2292 2863 c-54 -19 -89 -65 -102 -131 -17 -92 17 -200 76 -239 29
-19 30 -30 4 -38 -33 -11 -61 -62 -71 -130 -5 -36 -10 -201 -11 -368 -2 -284
-1 -306 18 -337 40 -68 175 -101 269 -66 53 21 110 81 125 133 8 26 10 144 8
364 l-3 326 -25 36 c-13 20 -35 41 -47 46 -25 12 -22 37 6 46 32 10 71 97 71
156 -1 165 -151 261 -318 202z m160 -45 c22 -6 51 -25 65 -42 22 -26 25 -37
21 -88 -6 -85 -33 -109 -126 -116 -60 -4 -76 -1 -111 18 -48 27 -66 70 -58
137 5 51 36 90 76 96 53 8 95 7 133 -5z m67 -423 c31 -30 38 -82 40 -290 1
-187 -11 -351 -31 -392 -21 -45 -90 -75 -166 -71 -75 5 -100 25 -113 89 -4 24
-8 164 -8 311 -1 335 2 343 110 372 70 20 136 12 168 -19z"/>
</g>
</svg>
