<?xml version="1.0" standalone="no"?>
<!DOCTYPE svg PUBLIC "-//W3C//DTD SVG 20010904//EN"
 "http://www.w3.org/TR/2001/REC-SVG-20010904/DTD/svg10.dtd">
<svg version="1.0" xmlns="http://www.w3.org/2000/svg"
 width="1061.000000pt" height="461.000000pt" viewBox="0 0 1061.000000 461.000000"
 preserveAspectRatio="xMidYMid meet">

<g transform="translate(0.000000,461.000000) scale(0.100000,-0.100000)"
fill="#000000" stroke="none">
<path d="M2735 4345 c-44 -7 -120 -22 -170 -33 -49 -12 -148 -32 -220 -46 -71
-14 -161 -33 -200 -41 -38 -9 -95 -20 -125 -25 -30 -4 -84 -15 -120 -23 -36
-9 -126 -30 -200 -47 -272 -63 -347 -89 -489 -173 -168 -99 -281 -243 -328
-417 -25 -91 -23 -268 5 -375 47 -186 75 -284 97 -350 13 -38 38 -119 54 -180
17 -60 51 -171 76 -244 40 -121 52 -171 41 -171 -2 0 -53 20 -112 45 -60 25
-123 48 -140 51 -18 3 -74 -6 -145 -24 -127 -33 -273 -67 -334 -78 -100 -17
-146 -92 -95 -157 11 -14 20 -28 20 -31 0 -3 -36 -24 -80 -47 -101 -52 -126
-72 -134 -105 -9 -36 11 -82 43 -99 14 -7 49 -16 76 -20 28 -4 55 -10 62 -14
6 -3 -33 -39 -93 -83 -89 -67 -104 -83 -110 -113 -5 -28 -1 -43 19 -74 l26
-39 -57 -67 c-97 -113 -104 -126 -98 -165 3 -21 16 -45 32 -58 25 -22 32 -23
113 -16 47 4 214 7 371 7 374 0 582 -21 855 -85 176 -42 233 -64 448 -175 36
-19 73 -10 106 28 23 26 31 29 88 29 55 0 65 3 88 28 l26 27 35 -40 c19 -22
65 -84 101 -138 102 -152 121 -153 252 -15 l97 101 32 -23 c24 -18 46 -24 86
-25 45 0 59 -5 90 -33 21 -18 48 -32 63 -32 14 0 58 18 97 41 93 53 165 82
312 124 284 82 580 110 1068 103 l329 -6 24 24 c16 16 23 35 23 63 0 34 -9 49
-68 118 -38 44 -72 85 -76 91 -4 6 3 25 16 42 25 34 29 90 8 115 -7 9 -56 48
-108 87 -103 77 -103 81 -14 93 72 10 112 43 112 94 0 48 -26 73 -133 127 -44
22 -82 45 -84 51 -3 7 19 16 50 23 87 18 129 72 103 134 -17 41 -29 46 -249
100 -98 25 -181 47 -184 50 -3 2 -6 56 -8 118 -6 196 -65 389 -167 549 -72
113 -213 255 -326 329 l-23 15 17 95 c15 83 16 108 5 207 -22 200 -84 378
-177 504 -40 54 -140 144 -196 177 -77 44 -185 86 -253 98 -86 16 -147 16
-250 -1z m340 -69 c218 -69 356 -241 426 -531 27 -109 31 -289 10 -378 -20
-80 -10 -101 69 -154 79 -53 190 -161 234 -228 128 -195 206 -415 206 -581 l0
-47 -48 7 c-55 7 -142 -20 -357 -114 -496 -217 -873 -479 -1122 -782 -30 -38
-61 -68 -67 -68 -7 0 -30 19 -51 41 -55 57 -281 251 -390 334 -49 38 -92 72
-95 75 -21 22 -319 218 -400 262 -25 14 -63 35 -85 48 -22 13 -61 34 -87 47
-27 13 -48 25 -48 27 0 2 -34 111 -76 242 -85 272 -206 690 -225 779 -17 80
-17 247 0 315 20 82 75 180 136 243 134 138 316 214 675 282 71 13 164 34 207
45 147 40 277 68 433 95 52 9 147 29 210 45 104 27 127 29 240 26 99 -3 142
-10 205 -30z m-2033 -2057 c160 -68 372 -177 493 -252 88 -55 276 -179 315
-208 128 -96 348 -278 452 -373 69 -64 128 -116 131 -116 2 0 29 33 60 73 66
85 224 244 322 323 85 67 322 225 425 283 71 39 244 125 355 176 109 50 321
129 344 127 13 -1 67 -14 120 -28 53 -15 158 -41 234 -59 76 -18 143 -37 148
-42 7 -7 -6 -15 -43 -23 -101 -25 -394 -128 -528 -188 -493 -219 -933 -525
-1335 -931 -77 -77 -143 -141 -147 -141 -3 0 -26 30 -51 68 -96 145 -218 275
-413 442 -45 39 -183 142 -249 187 -190 127 -578 337 -800 432 -55 23 -109 46
-120 51 -116 50 -153 65 -234 93 -52 19 -96 38 -98 44 -2 5 85 31 194 57 109
27 212 52 228 56 48 13 48 13 197 -51z m-506 -249 c354 -71 680 -218 1009
-454 137 -97 365 -297 365 -318 0 -5 -30 15 -67 45 -156 122 -334 231 -541
329 -139 66 -405 168 -514 197 -40 11 -125 34 -188 51 -63 17 -167 41 -232 53
-64 12 -117 27 -119 32 -3 14 131 84 162 85 15 0 71 -9 125 -20z m3872 -89
c31 -16 68 -38 82 -49 l25 -20 -40 -7 c-469 -77 -939 -242 -1291 -453 -105
-62 -218 -140 -291 -200 -24 -19 -43 -30 -43 -25 0 22 215 209 361 314 208
149 391 248 629 342 121 48 417 124 488 126 12 1 48 -12 80 -28z m-3713 -207
c107 -14 308 -63 430 -106 231 -80 549 -258 720 -402 33 -28 62 -52 64 -53 2
-2 2 -5 -1 -8 -3 -3 -81 32 -174 79 -339 170 -695 296 -989 351 -155 28 -393
49 -470 40 -45 -6 -55 -4 -55 8 0 8 12 23 28 32 15 10 39 29 54 42 14 14 41
29 60 33 41 10 187 3 333 -16z m3768 -114 c36 -27 68 -54 72 -59 3 -6 -46 -10
-132 -10 -250 0 -487 -43 -788 -141 -222 -73 -349 -125 -575 -237 -96 -48
-183 -91 -192 -95 -36 -15 -17 10 45 58 276 220 601 384 927 470 165 44 292
61 461 63 l116 1 66 -50z m-3848 -170 c428 -32 829 -146 1078 -306 131 -84
159 -126 46 -69 -194 98 -484 167 -824 196 -153 13 -655 16 -754 4 -41 -5 -61
-4 -61 4 0 6 34 49 76 96 l75 85 112 0 c62 0 175 -5 252 -10z m3908 -57 c40
-43 127 -143 127 -146 0 -1 -174 -2 -387 -2 -399 0 -472 -5 -718 -47 -236 -40
-379 -82 -539 -159 -126 -61 -114 -37 27 56 318 207 790 323 1353 333 l101 2
36 -37z"/>
<path d="M2270 3574 c-81 -17 -231 -90 -286 -138 -104 -89 -112 -234 -20 -343
100 -118 418 -93 595 47 66 53 103 123 103 199 1 70 -19 117 -72 175 -68 73
-171 93 -320 60z m217 -139 c20 -8 42 -23 50 -33 20 -26 43 -82 43 -106 -1
-31 -36 -105 -62 -127 -68 -58 -242 -119 -340 -119 -164 0 -252 156 -147 261
54 54 186 116 279 132 58 10 143 6 177 -8z"/>
<path d="M2572 2550 c-86 -23 -222 -92 -264 -135 -72 -72 -107 -175 -88 -255
49 -202 298 -257 575 -126 95 45 154 98 191 174 27 54 25 164 -3 217 -29 54
-89 108 -141 129 -57 22 -178 20 -270 -4z m274 -146 c72 -53 91 -126 54 -212
-46 -106 -209 -183 -390 -185 -98 -1 -139 15 -177 73 -27 39 -31 125 -8 169
33 64 149 137 262 166 86 21 224 16 259 -11z"/>
<path d="M5699 2697 c-98 -28 -152 -105 -152 -217 -1 -68 28 -145 58 -157 24
-9 17 -33 -19 -74 -43 -47 -55 -88 -63 -211 -5 -91 -14 -117 -26 -85 -8 22
-93 57 -134 57 -52 -1 -104 -21 -150 -58 l-39 -31 -27 25 c-87 80 -205 83
-279 7 -70 -72 -71 -78 -70 -450 1 -360 1 -361 59 -414 62 -58 146 -78 226
-55 111 32 155 97 167 244 13 170 38 216 159 296 38 25 74 53 81 61 21 26 28
17 35 -47 13 -125 49 -194 121 -229 78 -37 196 -23 259 32 63 55 70 100 70
439 0 332 -2 346 -68 417 l-40 43 27 25 c68 63 86 185 42 280 -42 93 -132 131
-237 102z m136 -63 c30 -12 48 -57 47 -120 -1 -108 -33 -143 -130 -144 -107 0
-149 42 -151 152 -1 39 4 53 29 82 20 22 43 36 63 39 35 5 119 0 142 -9z m2
-387 c17 -9 39 -33 49 -54 17 -35 19 -64 19 -333 0 -282 -1 -297 -22 -342 -16
-36 -30 -51 -58 -63 -88 -36 -186 -4 -216 72 -15 36 -24 582 -11 640 10 45 26
65 69 89 34 19 126 13 170 -9z m-794 -280 c18 -8 49 -35 70 -60 21 -26 45 -47
54 -47 9 0 34 19 57 42 51 52 112 80 155 72 61 -13 128 -106 115 -161 -9 -35
-46 -103 -57 -103 -23 0 -177 -130 -203 -171 -31 -50 -54 -146 -54 -232 0 -38
-5 -78 -12 -90 -15 -30 -56 -67 -85 -78 -72 -27 -183 8 -203 64 -8 22 -11 133
-10 346 1 286 2 316 20 350 28 54 48 68 113 80 4 0 22 -5 40 -12z"/>
<path d="M8277 2146 c-47 -13 -78 -33 -107 -70 -23 -31 -49 -107 -50 -148 0
-32 -5 -39 -42 -60 -112 -61 -119 -233 -11 -268 21 -7 41 -18 45 -24 4 -6 8
-90 8 -186 0 -185 9 -241 51 -324 28 -56 49 -76 118 -112 49 -25 68 -29 171
-32 170 -6 240 18 289 99 52 84 4 189 -100 221 -63 18 -73 36 -77 146 -2 53 0
113 5 132 8 31 16 38 78 63 83 33 109 56 131 112 12 33 13 50 5 81 -22 82 -69
114 -164 114 l-54 0 -7 43 c-19 121 -66 187 -148 212 -61 18 -77 18 -141 1z"/>
<path d="M9865 1929 c-122 -65 -141 -145 -132 -558 6 -227 9 -258 27 -295 24
-50 59 -78 124 -100 80 -27 151 -15 221 38 54 42 73 89 85 216 16 164 37 204
160 285 115 76 155 140 148 232 -8 96 -82 183 -168 198 -46 8 -120 -14 -175
-51 -44 -29 -57 -30 -81 -3 -26 28 -96 59 -136 59 -18 0 -51 -9 -73 -21z"/>
</g>
</svg>
