<?xml version="1.0" standalone="no"?>
<!DOCTYPE svg PUBLIC "-//W3C//DTD SVG 20010904//EN"
 "http://www.w3.org/TR/2001/REC-SVG-20010904/DTD/svg10.dtd">
<svg version="1.0" xmlns="http://www.w3.org/2000/svg"
 width="1056.000000pt" height="468.000000pt" viewBox="0 0 1056.000000 468.000000"
 preserveAspectRatio="xMidYMid meet">

<g transform="translate(0.000000,468.000000) scale(0.100000,-0.100000)"
fill="#000000" stroke="none">
<path d="M2934 4450 c-33 -5 -94 -16 -135 -25 -40 -9 -96 -21 -124 -26 -27 -5
-93 -17 -145 -28 -52 -11 -162 -33 -245 -50 -82 -17 -175 -36 -205 -42 -123
-25 -454 -111 -521 -135 -81 -29 -197 -95 -273 -155 -196 -154 -280 -398 -232
-669 16 -91 123 -467 217 -764 38 -121 68 -223 67 -226 -2 -4 -57 15 -123 41
-66 27 -130 49 -142 49 -13 0 -139 -27 -280 -60 -273 -65 -299 -76 -303 -130
-4 -46 0 -59 23 -81 12 -12 18 -23 12 -25 -58 -23 -193 -106 -202 -125 -37
-71 7 -132 103 -144 53 -6 110 -24 77 -25 -13 0 -132 -87 -180 -133 -42 -40
-46 -97 -9 -136 l24 -26 -79 -93 c-83 -97 -92 -122 -68 -176 20 -44 46 -47
286 -36 627 28 1194 -62 1475 -235 74 -46 110 -46 154 0 30 32 37 35 92 35 51
0 63 4 87 27 23 24 28 26 38 12 7 -8 33 -42 58 -74 25 -33 61 -85 79 -115 42
-70 66 -89 110 -90 31 0 44 10 131 102 l96 102 23 -22 c27 -25 25 -24 97 -27
44 -2 57 -7 82 -34 35 -38 89 -42 136 -10 132 90 369 166 652 209 224 34 415
43 761 37 l323 -5 27 23 c20 18 27 32 27 62 0 36 -9 50 -81 133 l-81 92 23 23
c30 30 39 68 25 104 -11 24 -143 133 -205 167 -17 10 -9 14 59 25 95 15 125
38 125 94 0 20 -5 45 -10 55 -6 10 -55 42 -110 71 -55 29 -100 56 -100 60 0 4
17 10 38 14 63 12 100 32 117 65 19 37 13 80 -16 106 -12 10 -103 39 -222 69
l-201 52 2 84 c6 173 -51 379 -151 549 -48 81 -86 129 -167 210 -58 59 -127
119 -153 136 -41 25 -47 33 -42 54 30 136 30 257 1 395 -63 301 -193 485 -422
597 -146 71 -257 89 -420 68z m259 -60 c126 -34 138 -39 185 -69 62 -40 152
-133 195 -201 110 -176 163 -486 113 -657 -17 -58 -17 -64 -2 -87 9 -14 43
-44 76 -66 138 -94 234 -208 324 -387 73 -146 116 -302 116 -420 l0 -45 -54 6
c-51 7 -65 3 -223 -59 -561 -223 -1033 -541 -1276 -863 l-39 -52 -97 92 c-263
253 -602 501 -923 678 l-136 75 -52 165 c-147 462 -245 810 -261 923 -27 198
29 374 158 498 62 60 173 139 195 139 8 0 18 4 23 9 13 11 181 71 230 81 59
12 286 57 315 63 14 2 97 22 185 45 157 40 206 50 335 72 70 12 108 20 212 44
37 9 79 16 93 16 14 0 25 5 25 10 0 19 204 12 283 -10z m-1970 -2074 c423
-175 916 -505 1279 -855 60 -57 110 -102 111 -100 190 279 537 554 974 772
123 62 352 161 455 197 l67 24 253 -64 c139 -34 257 -66 261 -70 5 -4 -22 -15
-60 -24 -317 -80 -689 -243 -1021 -448 -311 -193 -671 -485 -891 -727 l-84
-91 -36 59 c-127 210 -382 452 -695 661 -307 204 -727 414 -1113 556 -73 27
-133 51 -133 54 0 3 107 30 238 61 266 63 231 63 395 -5z m-532 -241 c433 -76
912 -326 1304 -683 147 -133 232 -223 117 -123 -387 335 -913 575 -1542 701
-85 18 -156 32 -157 34 -5 5 155 84 172 85 11 1 59 -6 106 -14z m3915 -107
c87 -44 101 -58 59 -58 -44 0 -314 -60 -470 -105 -497 -142 -910 -356 -1210
-626 l-70 -63 75 78 c381 395 919 701 1385 790 44 8 89 17 100 19 39 9 48 6
131 -35z m-3743 -193 c385 -58 757 -215 1092 -461 55 -40 118 -89 140 -109
l40 -35 -65 36 c-543 301 -1178 489 -1597 473 -51 -2 -89 -1 -85 3 4 3 36 29
72 57 l65 51 118 0 c64 0 163 -7 220 -15z m3782 -121 c41 -31 75 -59 75 -61 0
-3 -33 -2 -72 1 -200 18 -570 -44 -883 -149 -219 -74 -575 -231 -732 -324 -29
-17 -53 -29 -53 -27 0 3 42 39 93 80 404 324 937 529 1390 535 l108 1 74 -56z
m-3705 -179 c303 -37 558 -106 769 -206 113 -53 251 -141 291 -184 23 -25 21
-24 -35 9 -120 71 -342 142 -568 181 -250 43 -671 63 -957 47 -91 -5 -166 -9
-167 -8 -1 1 35 44 80 95 l82 94 190 -6 c104 -4 246 -13 315 -22z m3781 -67
c30 -35 66 -76 80 -93 l27 -30 -397 0 c-320 0 -423 -4 -538 -18 -303 -38 -554
-105 -721 -192 -48 -24 -87 -43 -89 -41 -10 9 179 134 272 180 329 163 710
241 1251 254 l61 2 54 -62z"/>
<path d="M2430 3670 c-185 -49 -324 -152 -350 -260 -41 -171 112 -316 314
-297 198 19 371 109 426 223 56 114 7 269 -103 326 -60 31 -187 35 -287 8z
m240 -138 c52 -26 80 -74 80 -137 0 -89 -57 -148 -195 -201 -94 -36 -243 -45
-299 -19 -71 34 -109 115 -82 179 53 127 371 241 496 178z"/>
<path d="M2742 2650 c-92 -24 -202 -82 -256 -134 -117 -115 -123 -287 -11
-384 60 -54 99 -66 210 -66 224 0 431 107 486 253 52 139 -14 289 -148 337
-55 19 -195 16 -281 -6z m262 -134 c70 -29 108 -115 86 -195 -31 -117 -211
-211 -402 -211 -132 0 -198 51 -198 153 0 91 56 159 177 214 32 15 81 32 108
39 69 17 189 17 229 0z"/>
<path d="M5095 2091 c-54 -24 -91 -70 -110 -136 -13 -45 -16 -106 -13 -367 3
-303 4 -314 26 -355 63 -118 245 -148 351 -57 59 51 72 83 82 204 5 58 15 126
24 150 20 58 73 112 157 161 37 21 76 52 87 68 46 64 44 180 -4 252 -15 23
-45 49 -75 64 -78 40 -159 31 -231 -26 l-37 -28 -23 26 c-55 60 -157 79 -234
44z m140 -25 c20 -9 48 -34 67 -60 17 -25 37 -46 43 -46 6 0 27 16 46 36 18
20 46 42 61 50 42 22 113 18 153 -8 41 -28 80 -92 69 -116 -4 -9 -6 -27 -5
-39 3 -26 -51 -82 -101 -106 -57 -27 -123 -92 -155 -154 -32 -61 -40 -98 -50
-223 -9 -124 -56 -175 -163 -175 -75 0 -109 17 -140 68 -19 30 -20 52 -20 352
0 313 1 321 23 360 23 41 74 75 115 75 12 0 38 -6 57 -14z"/>
<path d="M6451 2094 c-187 -50 -319 -204 -329 -382 -8 -153 48 -312 145 -410
29 -29 53 -55 53 -56 0 -2 -13 -6 -29 -9 -61 -13 -131 -101 -131 -167 0 -95
102 -179 286 -236 82 -25 274 -25 364 -1 159 43 250 111 309 232 61 126 65
161 62 559 -1 272 -5 365 -15 384 -10 19 -36 33 -112 58 -134 45 -209 44 -267
-5 -16 -13 -21 -13 -46 2 -40 23 -137 47 -191 46 -25 0 -69 -7 -99 -15z m234
-46 c28 -11 60 -26 72 -33 19 -13 24 -12 45 4 50 39 90 53 132 47 47 -8 136
-45 136 -58 0 -4 5 -8 11 -8 6 0 19 -10 30 -22 20 -24 20 -85 3 -508 -7 -202
-39 -344 -84 -380 -4 -3 -15 -19 -25 -36 -40 -69 -183 -130 -331 -141 -203
-15 -434 83 -434 184 0 19 5 43 10 54 23 42 122 68 142 36 4 -7 8 -8 8 -4 0
11 80 -34 80 -45 0 -4 7 -5 15 -2 8 4 15 2 15 -4 0 -5 38 -10 86 -11 79 -2 89
0 121 25 111 85 87 204 -32 155 -44 -18 -173 -25 -222 -12 -109 30 -233 156
-268 273 -37 126 -2 282 85 382 32 36 115 94 146 101 11 3 42 11 69 19 58 16
119 11 190 -16z m2 -873 c-33 -29 -102 -33 -152 -10 l-30 13 45 2 c25 1 63 5
85 9 22 5 49 9 60 10 18 0 17 -3 -8 -24z"/>
<path d="M6572 1783 c-41 -20 -62 -59 -62 -115 0 -57 18 -89 60 -110 66 -33
151 -13 181 44 16 30 20 117 6 135 -54 64 -116 80 -185 46z m109 -93 c23 -13
26 -67 5 -95 -16 -22 -79 -26 -98 -7 -18 18 -13 84 8 99 21 16 58 17 85 3z"/>
<path d="M7855 2059 c-28 -19 -62 -55 -79 -82 -25 -41 -30 -61 -34 -130 -2
-45 1 -100 7 -123 13 -48 60 -116 95 -140 28 -18 170 -39 195 -28 9 4 26 7 38
8 17 1 19 -1 11 -11 -10 -12 -4 -17 15 -14 4 0 7 -14 8 -31 0 -26 2 -29 8 -14
7 19 8 19 13 -1 4 -13 -1 -25 -13 -34 -14 -10 -15 -15 -6 -21 7 -5 0 -6 -15
-2 -19 4 -28 2 -28 -6 0 -7 -7 -10 -16 -6 -12 4 -15 2 -10 -9 4 -12 2 -13 -12
-7 -18 10 -45 5 -38 -7 3 -4 -5 -8 -17 -8 -15 -2 -18 0 -8 6 10 6 10 10 1 16
-6 4 -17 -1 -24 -11 -7 -9 -18 -14 -24 -10 -8 5 -10 1 -6 -11 5 -17 5 -17 -9
0 -14 16 -15 16 -30 -5 -15 -22 -16 -20 -16 45 -1 37 -5 67 -11 67 -5 0 -10
15 -11 33 0 31 -1 31 -10 8 -17 -42 -23 -233 -9 -275 23 -71 99 -93 211 -60
116 34 194 108 209 198 5 29 15 69 24 89 22 53 96 128 159 161 99 51 137 110
137 209 0 90 -64 186 -137 206 -113 32 -175 19 -238 -50 l-36 -40 -25 31 c-38
45 -102 78 -164 86 -51 6 -59 4 -105 -27z m125 -29 c13 -11 30 -20 38 -20 9 0
12 -6 8 -15 -4 -13 -2 -14 11 -6 24 13 86 -49 81 -81 -4 -27 -25 -35 -31 -11
-2 10 -4 3 -4 -14 0 -34 13 -44 23 -19 3 8 11 17 19 19 17 7 7 -35 -12 -46 -7
-4 -13 -14 -13 -22 0 -10 -17 -17 -50 -21 -27 -4 -50 -10 -50 -15 0 -9 -23 -6
-62 10 -20 7 -28 7 -32 -2 -3 -7 -3 -1 0 13 l7 25 -24 -20 c-13 -11 -18 -13
-11 -5 13 15 17 41 5 38 -18 -5 -54 24 -49 39 4 11 2 13 -9 9 -11 -4 -15 1
-14 22 1 17 3 20 6 10 7 -26 18 -22 19 7 1 14 -2 22 -7 19 -18 -10 -9 34 12
60 15 19 27 25 40 21 10 -4 19 -2 19 4 0 5 10 12 23 14 12 2 25 5 28 6 3 0 16
-8 29 -19z m-150 -190 c0 -5 -4 -10 -10 -10 -5 0 -10 5 -10 10 0 6 5 10 10 10
6 0 10 -4 10 -10z m270 -199 c0 -10 -6 -23 -12 -28 -19 -14 -182 -17 -208 -3
-43 23 -16 35 91 41 57 3 110 6 117 7 6 1 12 -6 12 -17z m24 -236 c3 -8 1 -15
-4 -15 -6 0 -10 7 -10 15 0 8 2 15 4 15 2 0 6 -7 10 -15z"/>
<path d="M7870 2006 c0 -2 7 -7 16 -10 8 -3 12 -2 9 4 -6 10 -25 14 -25 6z"/>
<path d="M7938 1803 c12 -2 32 -2 45 0 12 2 2 4 -23 4 -25 0 -35 -2 -22 -4z"/>
<path d="M9075 2054 c-16 -10 -34 -22 -40 -28 -5 -6 -20 -20 -32 -30 -21 -17
-22 -17 -44 3 -56 52 -187 78 -245 48 -85 -44 -94 -88 -94 -489 0 -199 4 -327
11 -345 12 -34 64 -90 101 -109 16 -8 56 -14 96 -14 62 0 75 4 118 33 27 18
61 53 78 80 26 42 30 62 37 152 7 106 27 168 69 223 27 34 88 72 116 72 12 0
37 6 55 14 103 43 129 184 56 293 -50 75 -104 107 -185 110 -48 2 -75 -1 -97
-13z"/>
<path d="M10060 2048 c-47 -13 -65 -31 -97 -97 -25 -53 -27 -68 -35 -276 -11
-257 -5 -438 15 -488 30 -71 118 -117 224 -117 54 0 66 4 105 33 65 50 87 98
97 214 5 54 14 117 21 140 14 46 69 109 131 150 l39 26 0 202 c0 202 0 203
-22 209 -66 17 -146 -3 -219 -55 l-30 -21 -27 25 c-67 63 -122 78 -202 55z"/>
<path d="M8008 1523 c7 -3 16 -2 19 1 4 3 -2 6 -13 5 -11 0 -14 -3 -6 -6z"/>
<path d="M7860 1510 c0 -5 5 -10 10 -10 6 0 10 5 10 10 0 6 -4 10 -10 10 -5 0
-10 -4 -10 -10z"/>
<path d="M7970 1506 c0 -2 9 -6 20 -9 11 -3 18 -1 14 4 -5 9 -34 13 -34 5z"/>
</g>
</svg>
