<?xml version="1.0" standalone="no"?>
<!DOCTYPE svg PUBLIC "-//W3C//DTD SVG 20010904//EN"
 "http://www.w3.org/TR/2001/REC-SVG-20010904/DTD/svg10.dtd">
<svg version="1.0" xmlns="http://www.w3.org/2000/svg"
 width="1080.000000pt" height="497.000000pt" viewBox="0 0 1080.000000 497.000000"
 preserveAspectRatio="xMidYMid meet">

<g transform="translate(0.000000,497.000000) scale(0.100000,-0.100000)"
fill="#000000" stroke="none">
<path d="M2915 4375 c-44 -7 -120 -22 -170 -33 -49 -12 -148 -32 -220 -46 -71
-14 -161 -32 -200 -41 -38 -9 -104 -22 -145 -30 -41 -7 -118 -23 -170 -35 -52
-11 -113 -25 -135 -29 -149 -32 -326 -88 -401 -126 -243 -127 -362 -268 -414
-487 -44 -186 -8 -364 221 -1079 55 -174 66 -219 54 -219 -3 0 -59 23 -125 50
-66 28 -130 50 -143 50 -13 0 -47 -7 -77 -16 -29 -9 -139 -35 -245 -59 -106
-24 -202 -49 -213 -56 -44 -27 -54 -91 -22 -132 11 -14 20 -28 20 -31 0 -3
-32 -21 -72 -41 -133 -67 -159 -97 -137 -162 12 -38 43 -57 109 -68 88 -13 88
-11 -22 -93 -123 -92 -136 -117 -99 -188 28 -51 28 -51 -63 -152 -30 -34 -59
-74 -62 -89 -9 -34 5 -72 36 -94 24 -18 37 -18 235 -8 633 32 1193 -56 1507
-238 31 -18 63 -33 72 -33 26 0 65 22 80 45 13 19 26 23 86 27 61 3 74 7 89
27 10 13 23 21 29 17 18 -11 128 -160 159 -215 30 -55 73 -79 115 -65 13 3 64
49 113 102 l90 95 40 -27 c27 -19 47 -25 63 -21 36 9 91 -5 97 -25 6 -18 45
-40 73 -40 10 0 74 28 142 63 308 155 701 215 1343 205 l320 -6 24 24 c16 16
23 34 23 62 0 35 -9 51 -75 128 -71 85 -88 114 -64 114 5 0 17 16 25 35 23 57
3 90 -110 175 -53 40 -96 74 -96 75 0 2 26 9 58 15 111 22 132 38 132 102 0
45 -32 74 -137 127 -46 23 -83 45 -83 50 0 5 17 12 38 16 61 11 99 34 117 70
14 30 14 38 2 68 -9 21 -26 38 -43 44 -39 15 -203 59 -289 78 -115 25 -114 24
-108 93 11 118 -34 334 -96 468 -78 166 -226 344 -364 439 -51 34 -58 43 -53
65 25 112 29 179 17 280 -31 267 -120 467 -267 597 -71 62 -115 90 -219 135
-125 55 -240 67 -390 43z m303 -60 c107 -29 139 -43 207 -97 112 -87 189 -209
239 -378 48 -163 57 -298 30 -424 -22 -100 -16 -117 59 -168 82 -55 179 -149
232 -223 53 -75 146 -259 173 -345 25 -76 42 -175 42 -244 l0 -49 -47 6 c-57
6 -127 -16 -336 -104 -503 -215 -888 -481 -1150 -797 l-60 -72 -71 67 c-156
150 -406 355 -551 453 -219 148 -278 184 -416 259 l-116 63 -86 271 c-93 293
-198 655 -218 752 -17 80 -17 247 0 315 32 131 133 263 266 348 107 69 283
126 543 176 74 15 202 44 285 65 84 22 195 47 247 56 168 29 193 34 304 59 59
14 111 28 114 31 3 3 53 5 111 5 81 0 128 -6 199 -25z m-1983 -2072 c254 -108
575 -291 795 -455 50 -37 326 -256 345 -274 214 -198 236 -217 249 -203 7 8
37 46 68 84 253 316 711 619 1255 830 l161 63 54 -15 c29 -7 107 -27 173 -44
247 -61 286 -72 282 -83 -2 -6 -21 -14 -43 -18 -156 -32 -535 -181 -753 -296
-423 -223 -726 -446 -1084 -801 -161 -158 -169 -165 -183 -146 -8 11 -43 60
-77 109 -34 49 -116 144 -182 211 -183 184 -346 308 -627 478 -148 89 -556
299 -647 332 -20 7 -74 30 -121 50 -47 20 -110 45 -140 56 -117 43 -160 62
-160 69 0 4 89 28 198 55 108 26 211 51 227 55 42 12 62 6 210 -57z m-450
-258 c277 -62 552 -182 830 -364 117 -76 144 -96 290 -218 168 -140 256 -238
111 -125 -292 229 -733 440 -1141 546 -77 20 -155 42 -172 47 -18 6 -86 20
-152 32 -66 12 -120 27 -122 32 -1 6 29 27 67 48 81 44 99 45 289 2z m3819
-83 c38 -21 71 -43 73 -49 5 -13 0 -14 -107 -33 -331 -58 -729 -189 -1021
-336 -168 -84 -351 -199 -476 -301 -63 -50 -52 -25 15 38 102 95 135 123 237
201 347 262 700 425 1092 503 100 20 112 18 187 -23z m-3725 -198 c419 -62
871 -271 1205 -556 5 -4 7 -10 4 -13 -3 -3 -68 26 -144 64 -309 154 -544 245
-854 331 -173 47 -514 87 -631 74 -49 -5 -59 -4 -59 9 0 8 12 23 28 32 15 10
39 28 53 42 14 13 39 28 55 33 37 12 209 3 343 -16z m3764 -114 c36 -27 68
-54 72 -60 4 -7 -44 -10 -142 -10 -403 -1 -872 -134 -1405 -401 -154 -77 -193
-88 -124 -35 19 14 40 32 48 39 25 24 203 144 298 200 217 129 524 244 765
287 143 25 158 27 301 28 l121 2 66 -50z m-3853 -170 c345 -26 656 -97 894
-207 121 -55 264 -142 301 -182 l19 -22 -26 10 c-15 6 -51 22 -80 37 -168 85
-474 156 -798 184 -151 14 -636 17 -747 5 -51 -5 -73 -4 -73 4 0 6 34 49 76
96 l75 85 112 0 c62 0 173 -5 247 -10z m3908 -52 c16 -18 52 -59 81 -91 28
-31 51 -59 51 -61 0 -2 -129 -2 -287 1 -168 3 -359 1 -458 -6 -369 -24 -740
-110 -933 -217 -56 -31 -62 -30 -27 6 29 30 153 109 240 153 299 149 738 239
1202 246 l103 1 28 -32z m-2583 -158 c3 -5 1 -10 -4 -10 -6 0 -11 5 -11 10 0
6 2 10 4 10 3 0 8 -4 11 -10z"/>
<path d="M2450 3604 c-80 -17 -233 -90 -284 -134 -78 -69 -110 -194 -70 -273
45 -88 95 -125 198 -147 129 -26 351 38 462 134 87 74 114 208 61 299 -73 124
-184 161 -367 121z m207 -135 c68 -25 111 -102 97 -174 -15 -80 -122 -158
-272 -196 -127 -32 -207 -22 -268 34 -65 59 -63 152 3 215 98 92 340 159 440
121z"/>
<path d="M2766 2585 c-80 -17 -235 -96 -280 -142 -82 -84 -113 -211 -72 -294
24 -51 83 -108 136 -133 65 -30 207 -29 310 3 174 53 285 141 317 250 17 61
13 132 -12 184 -27 57 -93 116 -148 132 -60 18 -169 18 -251 0z m260 -151 c74
-55 93 -137 51 -220 -28 -54 -55 -78 -143 -122 -79 -39 -152 -56 -249 -56 -92
0 -130 15 -169 67 -31 41 -35 119 -10 173 33 69 141 139 261 169 86 21 224 16
259 -11z"/>
<path d="M5885 2729 c-100 -25 -158 -104 -159 -219 0 -68 29 -145 59 -157 24
-9 17 -32 -20 -76 -43 -49 -54 -86 -61 -197 -7 -111 -9 -115 -34 -90 -26 26
-85 50 -125 50 -46 0 -111 -25 -155 -60 l-37 -30 -19 22 c-26 28 -112 68 -150
68 -75 0 -150 -51 -185 -125 -17 -36 -19 -70 -19 -373 0 -261 3 -340 14 -365
59 -137 288 -164 380 -45 36 48 47 82 57 186 15 161 39 206 146 277 32 22 70
50 85 64 15 13 30 22 32 20 3 -3 8 -34 12 -69 8 -75 25 -129 54 -170 60 -85
238 -95 325 -19 64 56 70 94 70 439 0 340 0 341 -70 419 l-38 41 27 25 c70 65
88 186 41 281 -44 89 -130 128 -230 103z m87 -55 c21 -4 49 -18 63 -32 22 -22
25 -33 24 -91 -1 -36 -4 -77 -8 -91 -10 -36 -61 -61 -125 -61 -102 0 -154 61
-144 170 9 88 74 124 190 105z m34 -394 c76 -37 79 -50 79 -390 0 -279 -1
-297 -21 -341 -47 -100 -199 -107 -264 -12 l-25 37 0 315 c0 351 1 359 65 392
46 25 113 24 166 -1z m-782 -284 c18 -7 50 -34 71 -60 20 -25 44 -46 51 -46 8
0 38 22 68 49 103 93 178 89 235 -11 45 -79 27 -143 -56 -201 -90 -63 -154
-119 -179 -159 -31 -48 -54 -150 -54 -238 0 -75 -21 -119 -72 -150 -65 -39
-175 -20 -217 38 -20 29 -21 39 -21 351 0 344 2 363 51 408 22 19 45 29 77 32
7 0 28 -5 46 -13z"/>
<path d="M7326 2425 c-50 -18 -101 -67 -134 -130 l-27 -50 -3 -445 c-3 -474 0
-509 44 -568 62 -80 218 -113 311 -64 75 39 93 80 109 245 15 156 31 222 54
222 21 0 37 -67 49 -210 8 -89 17 -137 31 -164 76 -150 317 -161 404 -18 28
45 29 53 35 205 l6 157 30 -3 c16 -2 32 -5 34 -7 2 -3 8 -51 12 -107 22 -259
29 -302 58 -363 33 -70 73 -112 139 -145 39 -20 66 -25 163 -28 169 -6 239 18
288 99 52 84 4 189 -100 221 -21 6 -46 19 -55 29 -20 22 -30 139 -19 224 6 53
9 57 43 72 110 46 123 54 148 93 50 75 28 175 -46 212 -21 11 -58 18 -91 18
l-57 0 -7 48 c-9 64 -41 134 -73 165 -15 13 -51 32 -81 42 -44 14 -62 16 -108
6 -109 -22 -171 -91 -182 -205 l-6 -59 -47 -14 c-26 -7 -50 -18 -53 -23 -13
-21 -31 -8 -58 44 -38 72 -84 117 -160 154 -82 42 -175 56 -267 41 -40 -6 -74
-8 -77 -5 -3 2 -9 35 -13 73 -21 192 -144 292 -294 238z m161 -61 c47 -35 63
-73 63 -144 0 -34 5 -82 11 -106 14 -54 38 -67 89 -49 61 21 127 26 190 15
142 -26 221 -90 261 -211 22 -69 24 -88 24 -294 -1 -256 -7 -284 -72 -312 -76
-31 -191 -11 -222 40 -8 12 -20 82 -27 156 -22 216 -55 295 -122 293 -42 -1
-47 -5 -78 -57 -28 -49 -54 -182 -54 -283 0 -119 -41 -164 -150 -165 -65 0
-110 20 -144 66 -19 26 -22 48 -30 299 -12 342 1 633 30 693 28 57 74 85 142
85 44 0 62 -5 89 -26z"/>
<path d="M10060 1969 c-83 -33 -125 -99 -142 -222 -16 -119 -5 -580 14 -627
34 -81 140 -138 234 -127 61 6 133 53 166 107 23 38 29 63 38 158 6 63 17 130
26 150 19 47 65 94 129 134 72 45 104 77 131 130 31 60 31 118 0 183 -28 62
-69 98 -131 115 -41 11 -54 11 -100 -4 -29 -9 -69 -27 -89 -41 -45 -31 -58
-31 -82 -4 -43 48 -135 71 -194 48z"/>
</g>
</svg>
