<?xml version="1.0" standalone="no"?>
<!DOCTYPE svg PUBLIC "-//W3C//DTD SVG 20010904//EN"
 "http://www.w3.org/TR/2001/REC-SVG-20010904/DTD/svg10.dtd">
<svg version="1.0" xmlns="http://www.w3.org/2000/svg"
 width="1080.000000pt" height="425.000000pt" viewBox="0 0 1080.000000 425.000000"
 preserveAspectRatio="xMidYMid meet">

<g transform="translate(0.000000,425.000000) scale(0.100000,-0.100000)"
fill="#000000" stroke="none">
<path d="M2960 3823 c-45 -4 -184 -30 -230 -42 -19 -5 -87 -19 -150 -31 -63
-12 -140 -27 -170 -35 -30 -7 -95 -21 -145 -29 -161 -30 -350 -71 -460 -101
-27 -8 -63 -17 -80 -21 -140 -29 -325 -115 -439 -205 -223 -175 -294 -445
-207 -779 38 -145 145 -506 211 -714 28 -87 49 -162 48 -166 -2 -4 -57 15
-123 41 -66 27 -130 49 -142 49 -13 0 -139 -27 -280 -60 -273 -65 -299 -76
-303 -130 -4 -46 0 -60 22 -82 12 -12 18 -23 12 -25 -5 -2 -51 -26 -102 -54
-64 -35 -96 -58 -103 -75 -28 -75 13 -128 107 -139 53 -6 110 -24 77 -25 -13
0 -132 -87 -180 -133 -42 -40 -46 -97 -9 -136 l24 -26 -79 -93 c-69 -81 -79
-98 -79 -132 0 -30 6 -43 31 -64 17 -14 38 -26 47 -26 9 0 111 5 226 10 616
28 1179 -61 1460 -231 83 -50 117 -51 162 -4 30 32 37 35 92 35 51 0 63 4 87
27 23 24 28 26 38 12 7 -8 33 -42 58 -74 25 -33 61 -85 79 -115 42 -70 66 -89
110 -90 31 0 44 10 131 102 l96 102 23 -22 c27 -25 25 -24 97 -27 44 -2 57 -7
82 -34 41 -44 80 -42 166 8 190 112 475 184 852 217 148 13 259 15 521 11
l333 -5 27 23 c20 18 27 32 27 62 0 36 -9 50 -81 133 l-81 92 23 23 c30 30 39
68 25 104 -12 27 -158 145 -209 167 -22 10 -16 13 59 24 99 15 129 38 129 95
0 20 -5 45 -10 55 -6 10 -55 42 -110 71 -55 29 -100 56 -100 60 0 4 17 10 38
14 63 12 100 32 117 65 19 37 13 80 -16 106 -12 10 -103 39 -222 69 l-201 52
2 84 c8 249 -106 537 -291 735 -67 71 -165 155 -214 183 -13 7 -13 18 2 86 39
173 -13 459 -116 645 -27 49 -71 104 -124 157 -71 71 -96 89 -189 134 -141 68
-249 87 -396 72z m255 -68 c123 -35 168 -59 247 -133 104 -99 167 -209 207
-367 44 -178 49 -300 14 -427 -14 -53 -14 -60 1 -82 9 -14 44 -44 78 -67 145
-98 241 -219 339 -424 57 -119 87 -225 96 -343 l6 -85 -56 7 c-53 7 -64 4
-224 -60 -569 -227 -1034 -541 -1275 -861 l-40 -53 -97 92 c-259 249 -605 503
-923 678 l-136 75 -31 100 c-129 409 -234 761 -267 900 -24 98 -24 271 0 350
48 160 177 301 347 378 73 33 195 77 244 87 58 12 286 57 315 63 14 2 97 22
185 45 157 40 206 50 335 72 36 6 90 17 120 25 30 7 87 19 125 26 39 7 74 16
78 20 5 4 57 7 116 8 87 1 122 -3 196 -24z m-2025 -2055 c454 -187 936 -506
1313 -870 93 -89 110 -102 118 -87 25 44 135 170 220 252 253 244 606 463
1021 633 79 33 166 67 195 77 l52 19 253 -63 c139 -35 257 -67 261 -71 5 -4
-22 -15 -60 -24 -381 -96 -844 -316 -1223 -582 -250 -175 -519 -406 -690 -593
l-83 -91 -25 42 c-90 152 -311 387 -497 529 -354 269 -835 526 -1322 705 -73
27 -133 51 -133 54 0 3 107 31 238 62 130 31 238 57 238 57 1 1 56 -22 124
-49z m-476 -260 c472 -91 958 -360 1361 -754 104 -102 109 -108 37 -46 -46 39
-119 98 -163 130 -373 277 -919 493 -1503 595 l-40 7 80 43 c43 24 89 44 101
44 12 1 69 -8 127 -19z m3892 -102 c46 -23 81 -44 79 -47 -3 -2 -78 -19 -168
-37 -624 -126 -1186 -386 -1547 -718 -25 -22 -13 -8 25 32 329 345 813 638
1239 752 104 28 234 56 274 59 8 1 52 -18 98 -41z m-3737 -194 c129 -19 336
-71 451 -114 118 -43 326 -145 440 -214 102 -62 270 -183 335 -241 l40 -35
-65 36 c-200 112 -510 247 -738 324 -292 97 -543 143 -789 144 -89 1 -158 4
-154 9 4 4 36 30 72 57 l64 49 119 1 c65 0 166 -7 225 -16z m3776 -120 c41
-31 75 -59 75 -61 0 -3 -33 -2 -72 1 -207 19 -577 -46 -903 -157 -227 -77
-554 -223 -715 -318 -71 -42 -49 -15 55 66 413 322 933 520 1378 524 l108 1
74 -56z m-3707 -179 c322 -40 594 -115 803 -220 101 -51 218 -127 254 -166
l30 -31 -50 30 c-119 72 -355 149 -575 186 -262 44 -670 65 -960 48 -91 -5
-166 -9 -167 -8 -1 1 35 44 80 95 l82 94 190 -6 c104 -4 245 -13 313 -22z
m3783 -67 c30 -35 66 -76 80 -93 l27 -30 -397 0 c-320 0 -423 -4 -538 -18
-300 -38 -549 -104 -715 -189 -110 -57 -110 -57 -58 -13 216 183 606 323 1045
375 94 12 306 25 441 28 l61 2 54 -62z"/>
<path d="M2430 3040 c-183 -48 -324 -154 -350 -260 -41 -171 112 -316 314
-297 197 18 372 110 426 223 43 88 24 208 -44 282 -62 69 -203 90 -346 52z
m240 -138 c51 -25 80 -74 80 -136 0 -89 -58 -149 -197 -203 -58 -23 -84 -27
-179 -27 -105 -1 -112 0 -146 26 -50 38 -74 103 -58 153 43 130 370 253 500
187z"/>
<path d="M2742 2020 c-95 -25 -203 -82 -257 -137 -117 -117 -122 -284 -10
-381 60 -54 99 -66 210 -66 225 0 431 107 486 253 52 139 -14 289 -148 337
-55 19 -195 16 -281 -6z m285 -146 c15 -11 39 -41 52 -67 77 -154 -102 -312
-370 -325 -84 -4 -101 -1 -138 17 -108 56 -110 205 -2 290 91 72 214 111 343
108 69 -2 92 -6 115 -23z"/>
<path d="M5867 2166 c-90 -33 -137 -97 -145 -199 -5 -71 16 -133 59 -171 l30
-27 -36 -33 c-52 -49 -67 -95 -73 -219 l-5 -108 -21 19 c-62 57 -148 67 -231
28 -27 -12 -56 -30 -64 -39 -18 -23 -34 -21 -57 4 -71 80 -225 75 -297 -10
-51 -61 -57 -106 -57 -430 0 -168 4 -312 10 -332 24 -85 94 -142 192 -155 72
-10 133 11 189 65 52 51 69 94 69 181 0 77 23 163 54 208 14 20 51 55 83 77
31 22 73 55 93 72 l37 33 6 -79 c11 -138 68 -219 171 -241 99 -21 203 25 245
108 37 74 43 135 39 418 l-3 270 -30 60 c-17 32 -40 63 -53 69 -28 12 -28 31
-1 46 34 18 73 115 72 179 -4 162 -131 257 -276 206z m176 -86 c23 -26 27 -39
27 -88 0 -113 -60 -171 -165 -157 -40 5 -61 14 -84 35 -56 54 -63 152 -14 210
28 33 54 40 143 34 57 -3 68 -7 93 -34z m-33 -358 c19 -9 43 -33 55 -52 19
-33 20 -51 20 -335 0 -280 -1 -303 -20 -340 -29 -57 -75 -85 -141 -85 -111 0
-143 40 -155 198 -10 137 -10 375 0 475 9 84 28 122 72 144 35 19 128 16 169
-5z m-795 -282 c4 -6 10 -8 15 -5 12 7 68 -42 86 -76 8 -16 20 -29 27 -29 6 0
29 18 51 41 97 104 213 103 265 -3 43 -90 18 -151 -96 -230 -144 -101 -177
-157 -194 -325 -12 -118 -23 -158 -41 -147 -6 4 -8 3 -4 -4 10 -16 -44 -61
-81 -68 -78 -15 -160 21 -192 83 -7 15 -11 123 -11 336 0 331 3 360 47 399 36
33 114 50 128 28z"/>
<path d="M7325 1869 c-46 -13 -97 -61 -130 -120 l-30 -54 -3 -465 c-2 -256 0
-480 3 -498 20 -109 196 -183 326 -137 95 34 118 78 135 260 14 141 31 216 52
223 18 6 41 -94 52 -226 13 -160 34 -204 119 -247 19 -9 59 -19 90 -22 107
-10 188 30 230 112 26 49 26 53 26 275 -1 153 -5 243 -14 280 -29 119 -104
222 -197 270 -23 11 -77 28 -119 37 -65 13 -89 13 -152 3 -41 -6 -76 -10 -79
-8 -2 3 -9 40 -15 84 -17 129 -58 196 -137 227 -45 18 -108 21 -157 6z m143
-50 c2 -5 8 -9 14 -9 15 0 57 -51 63 -75 3 -11 10 -62 15 -114 12 -123 20
-131 96 -107 31 10 85 17 121 17 71 0 173 -25 173 -42 0 -6 5 -7 10 -4 20 12
109 -89 130 -147 44 -125 55 -529 16 -594 -26 -44 -52 -56 -126 -61 -49 -3
-73 0 -99 14 -59 31 -73 60 -82 175 -13 165 -38 266 -74 302 -24 23 -68 20
-93 -7 -39 -42 -71 -176 -73 -304 -1 -130 -53 -187 -164 -181 -75 5 -129 30
-155 74 -20 32 -21 43 -18 486 3 393 5 458 19 488 36 77 86 108 167 102 31 -2
59 -8 60 -13z"/>
<path d="M9329 1713 c-35 -7 -73 -17 -84 -22 -11 -5 -36 -15 -55 -22 -101 -37
-198 -129 -245 -231 -58 -127 -60 -340 -4 -455 41 -85 146 -167 271 -210 59
-20 99 -26 204 -30 151 -6 238 9 343 59 111 53 206 171 202 250 -2 43 -2 47 5
176 5 77 2 104 -15 153 -28 83 -102 191 -161 234 -118 86 -311 128 -461 98z
m139 -352 c19 -11 -8 -21 -58 -21 -37 0 -56 10 -43 24 9 9 86 7 101 -3z m122
-292 c0 -13 -136 -39 -169 -33 -68 14 -42 31 54 36 100 6 115 5 115 -3z"/>
</g>
</svg>
