<?xml version="1.0" standalone="no"?>
<!DOCTYPE svg PUBLIC "-//W3C//DTD SVG 20010904//EN"
 "http://www.w3.org/TR/2001/REC-SVG-20010904/DTD/svg10.dtd">
<svg version="1.0" xmlns="http://www.w3.org/2000/svg"
 width="1080.000000pt" height="2340.000000pt" viewBox="0 0 1080.000000 2340.000000"
 preserveAspectRatio="xMidYMid meet">

<g transform="translate(0.000000,2340.000000) scale(0.100000,-0.100000)"
fill="#000000" stroke="none">
<path d="M0 23000 l0 -400 5400 0 5400 0 0 400 0 400 -5400 0 -5400 0 0 -400z
m2348 48 c43 -11 65 -29 44 -36 -7 -2 -10 -8 -7 -12 3 -5 -5 -16 -17 -24 -20
-14 -24 -14 -39 0 -38 34 -52 15 -71 -91 -9 -55 -20 -115 -23 -134 -4 -18 -8
-31 -10 -29 -3 2 -14 53 -25 114 -29 155 -29 154 -47 154 -9 0 -24 -7 -33 -15
-14 -13 -19 -13 -38 1 -12 8 -20 20 -17 25 4 5 1 9 -4 9 -18 0 -12 19 9 30 52
28 186 32 278 8z m4922 -13 c0 -8 8 -15 18 -15 36 0 42 -20 42 -141 0 -140 -1
-142 -107 -147 -109 -6 -113 0 -113 148 0 120 6 140 42 140 10 0 18 7 18 15 0
11 12 15 50 15 38 0 50 -4 50 -15z m-6471 -10 c16 -8 31 -22 35 -30 11 -29 6
-72 -9 -85 -14 -12 -13 -15 5 -35 27 -29 26 -79 -2 -104 -25 -24 -76 -36 -110
-26 -63 19 -90 92 -48 130 17 16 18 20 5 38 -53 76 38 157 124 112z m1095 -1
c13 -12 16 -40 16 -139 0 -99 -3 -127 -16 -139 -12 -13 -40 -16 -139 -16 -99
0 -127 3 -139 16 -13 12 -16 40 -16 143 0 85 4 131 12 139 8 8 54 12 139 12
103 0 131 -3 143 -16z m5676 -1 c0 -23 -29 -53 -52 -53 -24 0 -23 19 4 47 25
27 48 30 48 6z m197 -5 c25 -23 31 -48 11 -48 -16 0 -58 41 -58 57 0 20 21 16
47 -9z m1133 -71 c0 -77 -3 -94 -15 -94 -12 0 -15 17 -15 87 0 48 3 90 7 93
18 18 23 -1 23 -86z m569 77 c76 -53 66 -239 -14 -276 -37 -17 -85 1 -112 41
-31 46 -32 150 -3 199 31 51 86 66 129 36z m186 10 c19 -8 45 -55 45 -83 0
-12 -13 -35 -29 -53 -26 -29 -32 -31 -56 -23 -43 15 -69 56 -60 95 12 56 53
82 100 64z m453 -21 c-2 -20 -9 -29 -26 -31 -12 -2 -20 -7 -17 -12 3 -5 1 -11
-5 -15 -5 -3 -10 -33 -10 -66 l0 -59 60 0 60 0 0 -35 c0 -24 -6 -37 -19 -45
-27 -14 -164 -13 -179 2 -16 16 -15 75 0 80 10 4 10 10 0 32 -6 15 -12 51 -12
81 0 54 0 55 30 55 23 0 30 4 30 20 0 17 7 20 46 20 44 0 45 -1 42 -27z
m-8932 -41 c-8 -68 1 -122 20 -122 21 0 17 -31 -4 -37 -14 -3 -17 -12 -14 -34
4 -26 1 -29 -23 -29 -25 0 -27 3 -21 30 6 34 10 32 -81 30 -83 -2 -82 8 8 127
57 73 77 93 97 93 24 0 24 -1 18 -58z m244 48 c0 -5 -27 -67 -59 -137 -45 -98
-64 -129 -80 -131 -12 -2 -21 -1 -21 2 0 3 25 58 55 122 30 64 55 118 55 120
0 2 -32 4 -72 6 -46 2 -73 7 -76 16 -3 9 21 12 97 12 59 0 101 -4 101 -10z
m7840 -32 c-5 -96 -1 -138 16 -138 9 0 14 -7 12 -17 -2 -10 -10 -18 -18 -18
-11 0 -14 -10 -12 -33 2 -28 -1 -32 -23 -32 -21 0 -25 5 -25 30 l0 30 -70 0
c-59 0 -70 3 -70 17 0 9 32 58 71 110 56 73 77 93 96 93 23 0 25 -3 23 -42z
m489 -95 c-71 -107 -97 -139 -116 -141 -21 -3 -14 11 69 137 73 110 98 141
115 141 20 0 12 -16 -68 -137z m-2039 101 c53 -32 75 -104 50 -169 -7 -18 -6
-31 2 -45 16 -25 2 -38 -23 -22 -16 10 -27 10 -55 0 -26 -9 -44 -9 -76 -1 -30
8 -46 8 -59 0 -24 -15 -36 -1 -21 24 9 14 9 25 2 39 -16 29 -12 108 6 136 35
52 118 70 174 38z m-6757 -18 c7 -17 -18 -40 -33 -31 -5 3 -10 15 -10 26 0 23
35 27 43 5z m7892 -106 c0 -96 -3 -115 -15 -115 -12 0 -16 21 -18 118 -2 109
-1 118 15 115 16 -3 18 -16 18 -118z m-657 68 c-7 -20 -49 -38 -89 -38 -23 0
-39 -6 -43 -15 -4 -11 2 -15 25 -15 67 0 89 -42 48 -93 -28 -37 -83 -52 -137
-38 -38 11 -41 13 -31 35 10 21 14 22 49 13 31 -9 43 -7 64 7 37 24 24 36 -40
36 l-54 0 30 60 30 60 76 0 c56 0 75 -3 72 -12z m182 3 c0 -16 -24 -29 -66
-36 -65 -10 -112 -76 -79 -109 21 -20 39 -20 59 0 23 22 20 32 -11 36 -26 3
-26 4 -9 21 11 11 33 17 61 17 l44 0 -21 -52 c-27 -67 -41 -78 -98 -78 -64 0
-94 28 -85 79 9 51 40 96 78 115 34 16 127 22 127 7z m418 -104 c3 -82 2 -87
-18 -87 -18 0 -20 6 -20 83 0 46 3 87 7 91 19 19 28 -8 31 -87z m1060 67 c24
-7 52 -50 52 -83 0 -27 -48 -81 -72 -81 -54 0 -91 65 -68 121 18 43 42 55 88
43z m-1120 -98 c3 -51 1 -57 -15 -54 -13 2 -19 14 -21 47 -4 51 3 74 21 69 7
-3 13 -27 15 -62z m-7775 10 c7 -17 -18 -40 -33 -31 -5 3 -10 15 -10 26 0 23
35 27 43 5z m7715 -34 c2 -23 -1 -32 -12 -32 -21 0 -29 17 -22 46 9 34 30 25
34 -14z"/>
<path d="M2169 23033 c13 -3 32 -14 41 -25 l17 -21 14 20 c8 12 26 23 39 26
14 2 -11 4 -55 4 -44 0 -69 -2 -56 -4z"/>
<path d="M7193 22925 c-21 -15 -36 -49 -25 -60 3 -3 16 4 28 16 16 15 24 17
29 8 9 -14 -14 -34 -60 -54 -30 -13 -30 -13 20 -13 72 0 95 18 95 73 0 44 -1
45 -33 45 -18 0 -42 -7 -54 -15z"/>
<path d="M714 22992 c-22 -15 -24 -42 -4 -62 26 -26 65 -25 84 1 24 35 3 69
-44 69 -14 0 -30 -4 -36 -8z"/>
<path d="M720 22867 c-31 -16 -39 -56 -14 -74 22 -16 76 -17 92 -1 19 19 14
55 -10 72 -27 19 -35 19 -68 3z"/>
<path d="M1670 22945 c0 -31 26 -43 47 -22 21 21 9 47 -22 47 -20 0 -25 -5
-25 -25z"/>
<path d="M1783 22868 c-40 -40 -43 -41 -61 -25 -24 22 -32 21 -64 -8 -30 -25
-36 -53 -15 -60 28 -10 217 -11 227 -1 5 5 10 29 10 51 0 30 -6 47 -23 63 -13
12 -25 22 -28 22 -2 0 -23 -19 -46 -42z"/>
<path d="M9379 22983 c-9 -10 -14 -43 -14 -95 0 -68 3 -82 20 -94 29 -21 67
-14 83 16 20 39 11 158 -13 176 -25 19 -60 18 -76 -3z"/>
<path d="M9597 22993 c-10 -9 -8 -55 2 -71 12 -19 55 -11 59 11 7 37 -7 67
-32 67 -12 0 -26 -3 -29 -7z"/>
<path d="M1091 22915 c-22 -30 -41 -57 -41 -60 0 -3 20 -5 45 -5 l45 0 -1 60
c-1 33 -2 60 -4 60 -1 0 -21 -25 -44 -55z"/>
<path d="M9173 22917 c-24 -31 -43 -59 -43 -62 0 -3 18 -5 39 -5 39 0 40 1 46
44 12 80 4 85 -42 23z"/>
<path d="M7634 22957 c-3 -8 -4 -30 -2 -49 3 -30 6 -33 41 -36 21 -2 37 1 37
7 0 6 -11 11 -25 11 -22 0 -25 4 -25 34 0 37 -16 57 -26 33z"/>
<path d="M9807 22868 c-18 -10 -23 -54 -8 -76 12 -19 55 -11 59 11 5 27 -6 64
-21 70 -7 3 -21 1 -30 -5z"/>
<path d="M6825 21570 c-12 -4 -27 -15 -34 -24 -7 -9 -19 -16 -25 -16 -14 0
-59 -46 -74 -76 -21 -40 -32 -107 -20 -121 15 -18 38 2 38 33 0 59 48 124 115
155 69 32 175 19 175 -21 0 -29 34 -62 63 -62 38 0 57 19 57 58 0 38 -36 70
-68 60 -10 -4 -35 0 -55 9 -39 16 -138 19 -172 5z m255 -75 c0 -8 -6 -15 -14
-15 -17 0 -28 14 -19 24 12 12 33 6 33 -9z"/>
<path d="M8825 21566 c-19 -13 -19 -15 -2 -33 16 -18 16 -21 -7 -51 -79 -107
-45 -270 68 -337 44 -26 67 -26 65 -2 0 7 -21 26 -46 42 -59 38 -88 91 -87
160 1 66 33 127 81 156 21 13 41 27 45 33 10 16 -2 27 -22 21 -11 -3 -20 0
-24 10 -7 19 -46 20 -71 1z"/>
<path d="M837 21461 c-59 -59 -107 -116 -107 -126 0 -17 188 -217 221 -236 11
-6 21 -4 28 5 9 11 -10 35 -94 117 -58 56 -105 106 -105 110 0 5 48 55 106
113 59 58 103 109 99 115 -15 26 -47 5 -148 -98z"/>
<path d="M9067 21563 c-16 -15 -4 -34 33 -53 43 -22 88 -87 96 -142 12 -73
-32 -153 -116 -208 -21 -15 -22 -17 -6 -33 17 -17 79 -23 110 -11 20 8 21 28
2 43 -12 10 -10 19 15 60 70 112 35 262 -76 327 -46 26 -49 27 -58 17z"/>
<path d="M7889 21537 c-96 -27 -190 -104 -204 -169 -4 -15 -1 -44 5 -63 16
-47 99 -120 163 -141 109 -37 222 -14 306 62 84 75 90 139 21 217 -69 77 -198
119 -291 94z m171 -58 c79 -36 136 -106 124 -153 -8 -34 -60 -84 -118 -113
-99 -50 -222 -27 -302 59 -41 43 -49 70 -30 106 53 103 213 152 326 101z"/>
<path d="M7912 21435 c-21 -9 -38 -27 -48 -51 -39 -92 59 -177 144 -124 43 27
57 64 42 113 -18 60 -79 88 -138 62z m72 -80 c7 -19 -20 -46 -39 -39 -21 8
-26 32 -9 48 16 17 40 12 48 -9z"/>
<path d="M9930 21526 c-6 -8 -10 -25 -8 -38 2 -18 9 -23 33 -23 24 0 31 5 33
23 4 25 -13 52 -33 52 -7 0 -18 -7 -25 -14z"/>
<path d="M8947 21402 c-37 -37 -57 -66 -57 -81 0 -30 63 -91 94 -91 27 0 136
108 136 136 0 27 -67 94 -94 94 -13 0 -44 -23 -79 -58z m123 -17 c12 -14 7
-23 -38 -68 l-52 -52 -27 28 -27 27 48 49 c51 52 64 54 96 16z"/>
<path d="M6842 21438 c-7 -7 -12 -43 -12 -93 0 -117 21 -130 113 -71 62 40 81
60 74 80 -8 20 -122 96 -144 96 -11 0 -24 -5 -31 -12z m88 -63 c22 -14 40 -27
40 -29 0 -6 -79 -56 -90 -56 -11 0 -14 93 -3 103 9 10 9 10 53 -18z"/>
<path d="M9927 21364 c-14 -14 -7 -53 12 -63 26 -14 54 8 49 40 -2 17 -10 25
-28 27 -14 2 -29 0 -33 -4z"/>
<path d="M7106 21348 c-2 -7 -7 -29 -10 -48 -16 -88 -95 -151 -191 -151 -63 0
-95 14 -95 41 0 28 -35 60 -64 60 -56 0 -78 -75 -31 -106 14 -9 34 -14 46 -11
11 3 37 -2 57 -10 79 -33 194 -10 256 53 58 59 92 174 53 182 -9 2 -19 -2 -21
-10z m-342 -146 c8 -13 -11 -35 -23 -28 -16 10 -14 36 3 36 8 0 17 -4 20 -8z"/>
<path d="M9932 21198 c-28 -28 -1 -75 38 -63 33 11 21 75 -15 75 -6 0 -16 -5
-23 -12z"/>
<path d="M2935 12599 c-33 -4 -91 -15 -130 -24 -38 -8 -137 -29 -220 -45 -82
-16 -226 -46 -320 -65 -93 -20 -192 -40 -220 -45 -109 -22 -301 -70 -425 -107
-148 -44 -312 -144 -412 -251 -68 -74 -99 -127 -135 -228 -25 -72 -27 -92 -27
-214 1 -125 4 -146 42 -290 40 -152 126 -438 212 -712 24 -76 42 -140 39 -142
-3 -3 -59 17 -124 44 -66 27 -130 49 -143 50 -13 0 -85 -15 -160 -34 -75 -19
-182 -44 -237 -56 -123 -26 -152 -37 -170 -64 -21 -29 -19 -79 5 -109 11 -14
20 -27 20 -30 0 -3 -42 -27 -94 -53 -105 -53 -132 -83 -122 -138 9 -45 32 -63
96 -76 30 -6 66 -13 79 -16 20 -4 11 -13 -68 -71 -50 -36 -100 -77 -111 -90
-28 -35 -26 -85 5 -121 l24 -29 -76 -88 c-93 -108 -104 -146 -54 -195 l31 -32
113 8 c189 14 616 8 792 -11 183 -19 411 -62 535 -100 47 -15 145 -56 218 -92
147 -72 165 -74 211 -22 23 26 31 29 89 29 54 0 66 3 86 25 13 14 26 25 29 25
9 0 142 -181 167 -226 24 -44 54 -64 97 -64 20 0 49 24 124 103 l97 102 25
-24 c20 -18 39 -24 86 -26 52 -2 64 -7 91 -34 20 -19 42 -31 58 -31 15 0 85
29 157 65 183 91 386 145 710 186 67 9 241 14 525 14 234 0 431 5 439 9 7 5
19 23 27 42 19 44 7 71 -63 153 -31 37 -63 73 -70 82 -12 14 -10 22 12 54 28
42 29 52 16 88 -9 24 -103 105 -185 161 l-36 24 68 12 c104 20 131 39 132 98
0 54 -15 69 -120 122 -55 28 -100 54 -100 59 0 5 17 12 38 16 66 12 98 31 116
68 15 32 15 40 3 70 -18 42 -32 48 -258 106 l-180 46 -3 120 c-10 337 -191
670 -463 853 -29 19 -53 38 -53 41 0 3 7 40 16 81 27 127 6 318 -56 498 -117
345 -442 550 -795 501z m300 -68 c145 -46 217 -96 306 -215 64 -85 106 -183
141 -324 28 -114 31 -302 6 -380 -23 -72 -14 -90 79 -156 143 -100 227 -203
322 -393 63 -128 100 -250 108 -366 l6 -90 -49 7 c-58 7 -112 -9 -314 -94
-513 -216 -934 -505 -1175 -808 l-58 -73 -76 73 c-218 210 -512 438 -756 588
-86 53 -275 160 -284 160 -33 2 -87 153 -241 678 -101 345 -113 400 -114 522
-1 173 40 286 146 396 140 146 325 224 688 290 52 9 142 29 200 45 169 44 272
66 415 90 92 15 285 58 310 70 38 17 264 4 340 -20z m-1990 -2073 c439 -190
896 -497 1268 -854 l99 -94 45 62 c198 269 587 556 1035 764 148 68 391 165
417 166 24 0 505 -122 514 -132 5 -4 -15 -13 -45 -20 -88 -21 -386 -124 -502
-174 -494 -213 -956 -533 -1360 -941 -141 -143 -149 -149 -162 -130 -8 11 -43
60 -77 109 -136 196 -371 408 -672 606 -287 189 -837 457 -1147 559 -38 13
-68 26 -68 30 0 11 463 120 490 115 14 -3 88 -33 165 -66z m-505 -243 c357
-76 696 -235 1025 -480 116 -87 271 -222 340 -296 44 -47 29 -37 -81 51 -296
239 -702 434 -1169 561 -99 28 -236 60 -304 73 -69 12 -126 27 -128 32 -4 13
137 83 169 83 15 1 82 -10 148 -24z m3871 -97 c43 -24 79 -45 79 -48 0 -3 -76
-20 -169 -37 -580 -111 -1142 -366 -1516 -686 l-70 -60 70 72 c137 142 351
316 530 428 288 181 569 295 882 358 101 20 108 19 194 -27z m-3746 -193 c390
-53 797 -231 1148 -501 54 -42 96 -78 94 -80 -2 -2 -89 38 -193 90 -509 254
-957 382 -1362 390 -84 2 -155 6 -158 8 -2 3 26 28 64 56 50 37 79 51 108 54
65 5 183 -2 299 -17z m3782 -121 c40 -31 73 -57 73 -59 0 -1 -64 -2 -142 -2
-231 -1 -500 -48 -766 -135 -144 -46 -194 -65 -381 -143 -35 -14 -145 -67
-243 -116 -99 -50 -182 -88 -184 -86 -3 3 26 29 63 58 425 337 936 534 1392
538 l115 1 73 -56z m-3702 -179 c239 -30 423 -72 608 -139 169 -61 376 -176
438 -243 21 -22 15 -21 -61 17 -199 100 -442 161 -778 196 -167 18 -706 24
-814 10 -38 -5 -58 -4 -58 3 0 6 35 49 77 97 l78 87 195 -6 c107 -4 249 -13
315 -22z m3792 -82 c37 -43 74 -85 80 -93 10 -13 -35 -15 -390 -15 -441 -1
-524 -8 -812 -66 -183 -37 -301 -75 -428 -138 -53 -26 -97 -45 -97 -42 0 10
87 75 165 122 311 189 768 295 1326 307 l87 2 69 -77z"/>
<path d="M2434 11820 c-155 -40 -292 -128 -336 -214 -32 -61 -30 -149 4 -207
34 -57 63 -83 119 -108 68 -31 141 -36 240 -17 140 26 264 86 323 157 83 98
79 232 -9 337 -57 68 -198 90 -341 52z m235 -138 c43 -21 70 -57 81 -106 26
-118 -92 -221 -301 -262 -109 -21 -183 -9 -236 39 -62 58 -62 152 1 212 108
101 360 166 455 117z"/>
<path d="M2758 10805 c-131 -33 -270 -121 -323 -204 -29 -47 -47 -131 -39
-183 8 -50 58 -125 103 -155 113 -76 307 -66 490 25 188 94 254 276 154 421
-56 80 -109 105 -233 108 -56 1 -118 -4 -152 -12z m245 -139 c112 -47 126
-200 27 -290 -111 -100 -349 -152 -455 -100 -107 52 -116 198 -18 284 46 40
141 87 211 104 75 19 194 20 235 2z"/>
<path d="M5882 10950 c-88 -21 -148 -97 -159 -203 -5 -45 -1 -64 20 -111 14
-31 33 -59 42 -62 23 -9 18 -36 -12 -64 -46 -43 -66 -105 -71 -216 l-5 -102
-42 30 c-76 54 -175 48 -258 -16 l-43 -33 -39 34 c-102 88 -252 59 -314 -62
-26 -49 -26 -51 -29 -340 -2 -159 -1 -313 3 -341 14 -113 104 -188 225 -188
137 -1 229 95 230 239 0 73 20 161 46 206 11 19 49 55 84 81 36 26 80 59 98
74 18 15 34 25 36 23 1 -2 7 -41 13 -87 14 -108 48 -167 117 -201 90 -45 199
-27 271 44 25 25 35 31 35 19 0 -40 65 -149 126 -211 36 -36 63 -67 62 -68 -2
-1 -18 -7 -36 -15 -42 -17 -99 -84 -112 -132 -27 -99 75 -199 265 -257 238
-74 542 1 647 160 48 73 67 137 77 258 10 109 15 126 26 89 39 -127 232 -179
355 -95 58 38 71 73 86 230 14 150 32 222 55 222 20 0 37 -72 48 -209 5 -68
16 -139 24 -157 55 -132 266 -171 381 -70 46 41 59 89 65 251 l6 155 30 -3
c16 -2 32 -5 34 -8 3 -2 11 -84 18 -182 22 -278 58 -366 178 -427 53 -27 69
-30 176 -34 149 -4 211 12 262 68 43 47 53 89 37 147 -15 53 -64 100 -114 109
-62 12 -71 32 -71 164 1 129 10 161 51 161 13 0 41 7 61 15 19 8 37 15 39 15
2 0 18 -30 36 -66 56 -114 184 -212 327 -249 81 -21 262 -21 358 -1 92 19 184
66 239 123 l44 45 0 -159 c0 -145 2 -162 24 -209 26 -55 61 -86 127 -109 79
-28 153 -15 226 41 53 41 73 91 84 217 12 144 31 185 119 250 155 114 190 160
190 250 0 53 -33 128 -72 164 -30 29 -89 53 -127 53 -39 0 -107 -26 -148 -57
-41 -30 -48 -29 -89 6 -34 30 -89 51 -134 51 -28 0 -124 -42 -134 -59 -13 -20
-24 -12 -31 22 -12 54 -63 145 -105 187 -96 96 -239 150 -396 150 -116 0 -160
-10 -279 -66 -112 -52 -220 -185 -249 -307 -6 -27 -7 -27 -37 -12 -16 9 -52
19 -79 22 l-48 6 -7 46 c-23 157 -129 241 -266 212 -108 -23 -167 -91 -178
-204 -6 -59 -7 -61 -38 -68 -18 -3 -44 -14 -57 -23 -14 -9 -27 -16 -30 -16 -2
0 -19 25 -37 56 -43 76 -86 116 -161 153 -84 41 -176 55 -268 40 -40 -6 -74
-8 -77 -5 -3 2 -9 36 -13 73 -8 75 -38 154 -73 192 -29 32 -94 61 -137 61 -91
0 -162 -46 -207 -134 -24 -46 -27 -67 -34 -206 -4 -85 -8 -177 -9 -205 l-1
-50 -13 38 c-21 57 -68 108 -116 125 -87 31 -98 33 -147 21 -26 -6 -63 -20
-82 -31 -33 -19 -34 -19 -76 1 -71 33 -163 46 -234 32 -33 -7 -76 -18 -94 -26
-59 -24 -154 -104 -187 -156 -18 -27 -35 -48 -37 -45 -3 3 -7 78 -10 168 -5
199 -18 250 -74 308 l-41 42 26 22 c39 32 70 111 69 177 -1 59 -33 138 -70
171 -46 42 -116 56 -191 38z m154 -85 c31 -34 38 -63 29 -132 -11 -89 -73
-133 -164 -117 -81 15 -118 54 -122 130 -3 60 10 102 39 123 38 26 58 30 131
26 52 -4 67 -9 87 -30z m1450 -279 c45 -29 62 -69 68 -168 10 -141 21 -153
120 -123 151 46 345 -23 405 -144 40 -80 46 -129 46 -361 0 -251 -5 -274 -68
-307 -70 -37 -202 -11 -231 46 -8 14 -19 82 -25 151 -21 232 -60 308 -146 286
-51 -13 -90 -133 -103 -320 -8 -112 -11 -121 -36 -142 -55 -48 -148 -54 -215
-13 -63 38 -64 45 -65 549 l-1 455 24 38 c37 60 85 86 146 79 28 -3 64 -14 81
-26z m-1476 -84 c19 -9 43 -33 55 -52 19 -33 20 -54 23 -335 3 -296 2 -301
-20 -344 -28 -55 -74 -81 -143 -81 -60 0 -106 25 -132 72 -16 30 -18 64 -18
353 0 357 1 361 68 390 45 20 125 18 167 -3z m-725 -337 c28 -30 55 -55 60
-55 6 0 34 22 62 48 56 53 117 77 163 67 32 -7 73 -50 98 -101 31 -65 -12
-144 -112 -208 -29 -19 -71 -52 -94 -74 -65 -64 -81 -105 -96 -253 -14 -130
-14 -132 -50 -167 -32 -32 -42 -36 -99 -40 -78 -5 -130 16 -155 62 -15 27 -17
71 -20 328 -3 319 1 356 45 408 34 41 58 51 108 45 33 -4 49 -15 90 -60z
m1375 37 c25 -8 54 -22 65 -29 23 -15 71 -17 80 -3 4 6 25 20 47 31 79 40 183
7 220 -69 22 -46 22 -56 23 -362 0 -334 -5 -406 -32 -483 -71 -198 -421 -290
-672 -176 -134 61 -176 108 -151 169 34 83 100 90 224 25 106 -55 172 -61 241
-20 70 40 108 119 80 162 -19 28 -32 28 -113 3 -101 -32 -175 -27 -260 15 -89
45 -169 128 -197 206 -29 80 -28 212 4 304 20 58 35 81 85 130 116 114 224
144 356 97z m2804 -58 c29 -11 5 -24 -44 -24 -46 0 -67 9 -53 24 8 8 76 8 97
0z m446 -265 l0 -51 -27 32 -27 32 25 19 c13 10 25 19 27 19 1 0 2 -23 2 -51z
m-335 -29 c10 -16 -102 -43 -152 -35 -68 10 -48 29 38 36 41 3 82 6 91 7 9 1
19 -2 23 -8z m-2888 -525 c-33 -29 -102 -33 -152 -10 l-30 13 50 2 c28 1 64 6
80 10 17 4 41 8 55 9 l25 0 -28 -24z"/>
<path d="M6574 9940 c-41 -16 -64 -59 -64 -116 0 -96 36 -134 127 -134 86 1
133 48 133 135 0 57 -17 88 -60 110 -31 16 -102 19 -136 5z m107 -100 c26 -15
26 -73 -1 -100 -43 -43 -104 -16 -104 45 0 56 52 83 105 55z"/>
<path d="M1516 3965 c-49 -17 -93 -59 -117 -110 -17 -36 -19 -68 -19 -293 0
-275 4 -298 58 -356 58 -61 81 -66 362 -66 281 0 304 5 362 66 54 58 58 81 58
356 0 223 -3 258 -19 293 -23 51 -79 101 -128 114 -59 17 -509 13 -557 -4z
m344 -330 c42 43 57 52 67 43 12 -9 4 -22 -41 -67 l-56 -57 55 -54 c43 -42 52
-57 43 -67 -9 -12 -22 -4 -67 41 l-57 56 -54 -55 c-42 -43 -57 -52 -67 -43
-12 9 -4 22 41 67 l56 57 -55 54 c-43 42 -52 57 -43 67 9 12 22 4 67 -41 l57
-56 54 55z"/>
<path d="M2566 3965 c-49 -17 -93 -59 -117 -110 -17 -36 -19 -68 -19 -293 0
-275 4 -298 58 -356 61 -65 68 -66 485 -66 l377 0 0 -98 c0 -82 3 -102 18
-114 26 -24 653 -25 676 -2 12 12 16 38 16 115 l0 99 50 0 50 0 0 -99 c0 -77
4 -103 16 -115 13 -14 58 -16 339 -16 282 0 326 2 339 16 14 14 16 67 16 455
-1 422 -2 441 -21 460 -10 10 -32 19 -49 19 -23 0 -41 12 -77 49 -31 32 -62
53 -88 60 -28 8 -344 11 -1035 11 -819 -1 -1002 -3 -1034 -15z m244 -255 c0
-15 -7 -20 -27 -20 -36 0 -63 -27 -63 -62 0 -21 -5 -28 -20 -28 -33 0 -27 64
9 101 37 36 101 42 101 9z m191 -9 c36 -37 42 -101 9 -101 -15 0 -20 7 -20 27
0 36 -27 63 -62 63 -21 0 -28 5 -28 20 0 33 64 27 101 -9z m1389 -55 l0 -55
35 14 c38 17 78 8 89 -20 3 -9 6 -55 6 -101 0 -68 -3 -84 -15 -84 -12 0 -15
15 -15 71 0 80 -11 109 -43 109 -44 0 -52 -15 -55 -100 -3 -60 -8 -80 -18 -80
-11 0 -14 28 -14 150 0 127 2 150 15 150 11 0 15 -13 15 -54z m-884 13 c30
-28 32 -59 4 -59 -11 0 -20 7 -20 15 0 8 -11 22 -25 31 -30 20 -70 12 -86 -17
-14 -27 11 -55 61 -69 88 -24 120 -95 64 -139 -54 -43 -174 -15 -174 40 0 27
25 24 44 -6 13 -20 25 -25 55 -25 43 0 64 18 59 51 -2 17 -18 29 -68 48 -77
31 -100 63 -78 108 27 56 115 68 164 22z m-604 -56 c22 -20 23 -70 1 -95 -20
-22 -70 -23 -95 -1 -22 20 -23 70 -1 95 20 22 70 23 95 1z m792 3 c25 -10 37
-24 46 -50 19 -57 10 -66 -65 -66 -69 0 -82 -12 -49 -44 17 -18 69 -22 79 -6
8 14 35 13 35 -1 0 -21 -34 -38 -75 -38 -62 0 -95 36 -95 103 0 49 18 82 54
100 38 19 30 19 70 2z m236 -13 c10 -9 17 -42 20 -102 l5 -87 -72 -2 c-64 -1
-74 1 -88 21 -34 49 -4 96 68 104 38 5 47 9 47 25 0 34 -72 44 -84 12 -7 -18
-36 -18 -36 -1 0 48 99 69 140 30z m180 3 c0 -8 -13 -16 -29 -19 -34 -7 -41
-26 -41 -114 0 -49 -3 -63 -15 -63 -12 0 -15 18 -15 106 0 105 0 106 23 101
12 -3 31 -2 42 3 23 9 35 4 35 -14z m182 -2 c9 -9 18 -24 21 -35 7 -26 -24
-26 -41 1 -14 22 -61 27 -80 8 -16 -16 -16 -110 0 -126 19 -19 66 -14 80 8 16
26 38 26 38 1 0 -38 -73 -65 -125 -45 -38 15 -57 101 -35 159 19 49 100 66
142 29z m-1572 -111 c0 -36 27 -63 62 -63 21 0 28 -5 28 -20 0 -33 -64 -27
-101 9 -36 37 -42 101 -9 101 15 0 20 -7 20 -27z m288 -51 c-2 -20 -9 -28 -27
-30 -29 -4 -51 20 -44 48 11 43 76 26 71 -18z"/>
<path d="M3622 3568 c-26 -26 -13 -38 38 -38 54 0 55 1 40 31 -12 22 -59 26
-78 7z"/>
<path d="M3830 3485 c-19 -23 -8 -50 23 -53 35 -4 57 13 57 44 0 21 -5 24 -34
24 -18 0 -39 -7 -46 -15z"/>
<path d="M5126 3965 c-21 -7 -50 -24 -65 -38 -14 -13 -34 -27 -43 -30 -10 -4
-18 -17 -19 -29 -9 -184 -8 -550 1 -581 13 -44 61 -102 103 -124 l30 -15 -50
-27 c-71 -39 -118 -74 -106 -78 6 -2 32 10 59 27 89 56 133 66 312 69 140 2
162 1 162 -12 0 -29 -27 -44 -77 -42 -26 1 -54 -2 -60 -8 -17 -13 -17 -149 -1
-165 28 -28 78 -7 78 33 0 25 27 65 43 65 7 0 17 -10 22 -22 8 -18 18 -23 43
-21 44 2 70 -34 50 -67 -11 -19 -10 -24 11 -41 36 -29 115 -26 146 6 14 13 25
33 25 45 0 17 4 19 26 14 22 -6 25 -4 20 12 -8 29 -9 145 -1 177 7 25 11 27
56 27 l49 0 0 -95 c0 -145 -26 -135 355 -135 381 0 355 -10 355 135 l0 95 50
0 50 0 0 -95 c0 -145 -26 -135 355 -135 305 0 316 1 336 21 17 17 20 32 19 87
-3 133 -7 123 53 120 l52 -3 3 -97 c2 -60 7 -100 15 -106 7 -6 144 -11 335
-13 314 -4 324 -3 339 16 11 15 13 35 9 76 -3 30 -3 72 1 92 6 37 6 37 54 37
l48 0 5 -52 c4 -29 5 -75 4 -101 -2 -36 1 -52 14 -61 21 -16 646 -10 666 6 7
7 12 36 12 78 0 37 3 82 6 99 6 30 9 31 54 31 l48 0 7 -39 c4 -22 4 -64 0 -93
-11 -94 -28 -90 343 -94 390 -5 364 -14 360 128 -3 86 -4 91 -25 93 -12 1 -20
-2 -17 -7 3 -4 -3 -8 -14 -8 -27 0 -34 -11 -20 -29 7 -9 8 -13 4 -9 -5 4 -15
3 -22 -3 -14 -11 -43 -20 -149 -44 -33 -7 -61 -18 -63 -24 -2 -6 -18 -2 -38
10 -38 21 -59 25 -49 9 4 -6 11 -8 16 -5 5 4 9 -1 9 -9 0 -20 -9 -20 -31 0
-10 9 -36 15 -69 16 -57 0 -57 14 0 21 30 3 28 4 -12 5 -26 1 -50 7 -54 14 -5
8 -10 7 -18 -4 -10 -14 -15 -14 -46 3 l-35 18 115 1 115 0 43 45 c24 25 47 45
53 45 6 0 8 4 5 9 -3 4 3 27 14 49 11 23 20 48 20 57 0 9 9 15 23 15 20 0 23
4 19 35 -4 31 -6 34 -20 23 -14 -12 -14 -11 -1 10 12 21 12 25 -3 36 -14 10
-18 27 -18 69 0 31 5 59 10 62 7 4 8 11 1 18 -5 7 -7 24 -4 39 5 24 11 28 54
34 27 4 52 11 56 16 10 17 -20 28 -60 22 -21 -3 -37 -2 -36 3 1 4 0 10 -1 13
-6 17 -5 50 2 50 5 0 6 5 3 11 -4 5 -4 21 -1 34 4 17 11 23 23 18 11 -4 14 -3
9 5 -5 8 2 12 23 12 16 0 33 -5 36 -11 4 -6 22 -8 46 -4 25 4 39 3 39 -4 0 -6
-7 -11 -15 -11 -8 0 -15 -5 -15 -10 0 -6 15 -9 35 -7 34 4 47 -6 23 -17 -7 -3
-4 -4 7 -3 26 3 35 44 18 80 l-14 27 -124 0 -125 0 -47 49 c-31 32 -62 53 -88
60 -56 15 -2114 15 -2170 0 -26 -7 -57 -28 -88 -60 l-47 -49 -115 0 -115 0
-47 49 c-31 32 -62 53 -88 60 -27 7 -291 11 -840 11 -653 -1 -807 -3 -839 -15z
m1940 -194 c11 9 14 8 14 -5 0 -9 7 -16 15 -16 8 0 15 7 15 16 0 28 34 10 41
-21 4 -17 7 -110 8 -208 1 -171 0 -178 -18 -172 -11 3 -22 1 -26 -5 -5 -8 -11
-8 -21 1 -11 9 -14 7 -14 -15 0 -24 4 -26 38 -26 35 0 40 -3 49 -35 6 -19 8
-35 5 -36 -34 -6 -134 -4 -138 2 -2 4 -19 6 -37 3 -45 -7 -60 6 -48 39 11 27
18 30 79 29 l32 0 -17 29 c-17 28 -43 40 -43 18 0 -6 -10 -9 -22 -7 -21 3 -23
8 -23 71 -1 71 0 73 53 68 12 -1 22 3 22 8 0 5 -17 11 -37 13 -36 3 -38 5 -38
36 0 19 3 36 7 38 3 2 31 5 62 5 38 1 56 6 56 14 0 10 -18 13 -65 12 -36 -1
-65 0 -65 2 0 3 7 12 16 22 12 13 25 16 45 12 22 -4 29 -2 29 10 0 19 -25 29
-56 21 -20 -5 -24 -2 -24 15 0 12 6 21 15 21 8 0 15 7 15 15 0 9 9 15 25 15
14 0 25 6 26 13 0 9 2 9 6 -1 4 -10 8 -10 19 -1z m-1746 -166 l0 -145 145 0
c138 0 145 -1 145 -20 0 -16 -7 -20 -30 -20 -27 0 -30 -3 -30 -30 0 -23 -4
-30 -20 -30 -16 0 -20 7 -20 30 l0 30 -103 0 c-67 0 -107 4 -115 12 -8 8 -12
48 -12 115 l0 103 -30 0 c-23 0 -30 4 -30 20 0 16 7 20 30 20 27 0 30 3 30 30
0 23 4 30 20 30 19 0 20 -7 20 -145z m2188 113 c20 -20 13 -71 -18 -123 -30
-51 -38 -85 -20 -85 5 0 33 24 62 54 29 30 66 58 81 62 39 9 77 -10 90 -46 8
-21 18 -30 34 -30 18 0 23 -6 23 -25 0 -20 -5 -25 -24 -25 -19 0 -25 -7 -30
-34 -8 -42 -48 -86 -78 -86 -38 0 -68 27 -68 62 0 34 56 98 85 98 24 0 15 34
-11 38 -14 2 -38 -16 -77 -58 -66 -69 -104 -80 -133 -35 -21 33 -13 74 27 137
32 49 33 72 4 48 -13 -11 -19 -10 -33 4 -16 16 -16 18 7 37 26 22 61 25 79 7z
m1302 -103 c0 -47 4 -85 8 -85 5 0 23 18 41 40 23 29 40 40 59 40 26 0 26 0
-16 -43 l-43 -43 19 -25 c77 -101 76 -99 54 -99 -14 0 -34 17 -54 45 -46 62
-68 57 -68 -16 0 -19 -5 -29 -15 -29 -13 0 -15 23 -15 150 0 127 2 150 15 150
12 0 15 -16 15 -85z m-3272 63 c7 -7 12 -44 12 -95 0 -76 -2 -83 -20 -83 -18
0 -20 7 -20 75 l0 75 -75 0 c-68 0 -75 2 -75 20 0 18 7 20 83 20 51 0 88 -5
95 -12z m522 -3 c31 -16 50 -43 50 -69 0 -27 -29 -18 -45 14 -29 56 -102 45
-126 -18 -15 -39 -6 -128 16 -152 33 -37 115 -18 115 26 0 8 9 14 20 14 27 0
25 -22 -6 -59 -22 -27 -32 -31 -76 -31 -65 0 -103 35 -113 103 -20 134 66 223
165 172z m2107 -103 c25 -62 47 -112 48 -110 2 2 24 53 48 113 40 96 49 110
69 110 23 0 23 -1 26 -142 2 -137 2 -143 -17 -143 -19 0 -21 8 -23 107 l-3
108 -41 -105 c-30 -76 -46 -105 -59 -105 -12 0 -29 30 -60 105 l-44 105 -1
-107 c0 -101 -1 -108 -20 -108 -19 0 -20 7 -20 138 0 76 3 142 7 146 4 4 16 6
26 4 14 -2 31 -33 64 -116z m-1907 24 c0 -8 -13 -16 -29 -19 -34 -7 -41 -26
-41 -114 0 -49 -3 -63 -15 -63 -12 0 -15 18 -15 106 0 105 0 106 23 101 12 -3
31 -2 42 3 23 9 35 4 35 -14z m193 -17 c37 -40 38 -104 1 -148 -21 -26 -33
-31 -69 -31 -36 0 -48 5 -69 31 -46 54 -30 150 29 175 40 17 74 8 108 -27z
m202 27 c27 -12 36 -23 45 -55 14 -53 4 -103 -26 -132 -19 -18 -31 -21 -69
-17 l-45 6 0 -44 c0 -32 -4 -44 -15 -44 -13 0 -15 23 -15 145 0 122 2 145 15
145 8 0 15 -4 15 -9 0 -6 12 -3 28 5 33 17 26 17 67 0z m1905 -13 c10 -9 17
-42 20 -102 l5 -87 -72 -2 c-64 -1 -74 1 -88 21 -34 49 -4 96 68 104 38 5 47
9 47 25 0 34 -72 44 -84 12 -7 -18 -36 -18 -36 -1 0 48 99 69 140 30z m180 3
c0 -8 -13 -16 -29 -19 -34 -7 -41 -26 -41 -114 0 -49 -3 -63 -15 -63 -12 0
-15 18 -15 106 0 105 0 106 23 101 12 -3 31 -2 42 3 23 9 35 4 35 -14z m585
10 c27 -12 36 -23 45 -55 14 -53 4 -103 -26 -132 -19 -18 -31 -21 -69 -17
l-45 6 0 -44 c0 -32 -4 -44 -15 -44 -13 0 -15 23 -15 145 0 122 2 145 15 145
8 0 15 -4 15 -9 0 -6 12 -3 28 5 33 17 26 17 67 0z m-315 -67 c0 -86 11 -109
50 -109 39 0 50 23 50 109 0 56 3 71 15 71 12 0 15 -18 15 -105 0 -87 -3 -105
-15 -105 -8 0 -15 5 -15 12 0 9 -3 9 -12 0 -17 -17 -78 -15 -100 5 -15 13 -18
32 -18 105 0 72 3 88 15 88 12 0 15 -15 15 -71z m-1835 -349 c9 0 14 -9 13
-24 -2 -19 -7 -23 -25 -20 -13 3 -41 6 -63 7 -22 1 -40 4 -40 7 0 3 -15 5 -34
5 -18 -1 -42 4 -52 12 -20 15 -15 24 12 23 96 -3 149 1 153 11 2 8 7 6 13 -5
5 -9 15 -16 23 -16z m-1379 -78 l-1 -29 -74 3 c-54 2 -80 -2 -97 -13 -23 -15
-24 -14 -24 10 0 14 -3 32 -6 41 -5 14 7 16 98 16 l105 0 -1 -28z m-229 -42
c4 -12 3 -13 -5 -1 -5 7 -15 10 -21 7 -6 -4 -11 -2 -11 4 0 17 33 8 37 -10z
m2403 10 c0 -5 -7 -7 -15 -4 -9 4 -15 0 -15 -9 0 -8 -6 -17 -14 -20 -13 -5
-178 -2 -183 3 -4 3 -35 7 -69 9 -14 0 -22 5 -19 11 3 6 -3 10 -14 10 -12 0
-21 -5 -21 -12 0 -6 -3 -9 -6 -5 -3 3 -3 10 1 16 8 14 355 15 355 1z m31 -7
c13 -16 12 -17 -3 -4 -10 7 -18 15 -18 17 0 8 8 3 21 -13z m979 2 c-7 -8 -28
-15 -46 -15 -20 0 -34 -5 -34 -12 0 -10 -2 -10 -8 0 -6 9 -16 10 -34 3 -14 -5
-28 -8 -31 -5 -2 3 -26 5 -53 5 -27 1 -59 7 -71 15 -27 17 -37 18 -27 2 4 -7
3 -8 -4 -4 -33 20 0 26 154 26 147 0 165 -2 154 -15z m-3235 -5 c-3 -5 -12
-10 -18 -10 -7 0 -6 4 3 10 19 12 23 12 15 0z m-51 -8 c2 -4 -4 -8 -15 -8 -10
0 -19 4 -19 8 0 4 6 8 14 8 8 0 17 -4 20 -8z m6 -62 c0 -5 -4 -10 -10 -10 -5
0 -10 5 -10 10 0 6 5 10 10 10 6 0 10 -4 10 -10z m4 -38 c3 -5 -1 -9 -9 -9 -8
0 -12 4 -9 9 3 4 7 8 9 8 2 0 6 -4 9 -8z"/>
<path d="M7627 3472 c-10 -10 -17 -24 -17 -30 0 -19 28 -14 40 7 21 41 6 55
-23 23z"/>
<path d="M6339 3559 c-29 -55 -6 -129 41 -129 40 0 60 24 60 71 0 59 -14 79
-55 79 -25 0 -37 -6 -46 -21z"/>
<path d="M6570 3561 c-5 -11 -10 -36 -10 -56 0 -52 15 -75 50 -75 35 0 60 31
60 75 0 17 -7 41 -16 53 -20 28 -69 30 -84 3z"/>
<path d="M8460 3485 c-19 -23 -8 -50 23 -53 35 -4 57 13 57 44 0 21 -5 24 -34
24 -18 0 -39 -7 -46 -15z"/>
<path d="M9240 3561 c-5 -11 -10 -36 -10 -56 0 -52 15 -75 50 -75 35 0 60 31
60 75 0 17 -7 41 -16 53 -20 28 -69 30 -84 3z"/>
<path d="M10023 3850 c-22 -9 -23 -15 -23 -109 0 -81 3 -99 14 -95 7 3 18 16
24 29 6 14 28 33 48 42 20 10 35 22 33 26 -2 5 4 13 13 18 10 5 15 16 12 24
-4 8 -2 15 4 15 6 0 12 -6 15 -12 3 -10 10 -8 25 6 17 15 30 17 62 12 28 -4
40 -3 40 6 0 6 3 8 7 5 3 -4 12 1 20 11 9 10 11 11 7 2 -6 -12 -5 -13 7 -4 21
16 98 17 117 2 13 -11 15 -10 9 4 -4 12 -2 15 9 11 8 -3 13 -12 10 -19 -3 -7
1 -32 8 -56 11 -39 13 -41 20 -20 5 14 3 29 -5 38 -9 11 -9 18 -1 26 9 9 12 7
12 -7 0 -11 7 -29 15 -39 8 -11 15 -14 15 -8 0 7 7 12 15 12 8 0 15 -4 15 -10
0 -5 7 -10 15 -10 8 0 15 -4 15 -9 0 -5 16 -8 35 -7 20 2 38 -1 41 -6 11 -18
24 5 24 43 0 29 -7 47 -25 64 l-24 25 -303 -1 c-167 0 -313 -4 -325 -9z m606
-69 c-8 -22 -15 -29 -22 -22 -6 6 -4 15 7 26 9 9 16 21 16 27 0 6 2 9 5 6 3
-2 0 -19 -6 -37z"/>
<path d="M9840 3690 c-8 -5 -11 -12 -7 -16 4 -4 2 -13 -5 -21 -13 -16 -11 -19
25 -28 16 -4 27 -3 27 3 0 6 -12 13 -27 15 l-28 4 28 2 c29 1 36 21 14 39 -8
7 -18 7 -27 2z"/>
<path d="M9651 3574 c0 -11 3 -14 6 -6 3 7 2 16 -1 19 -3 4 -6 -2 -5 -13z"/>
<path d="M9790 3584 c0 -7 -12 -15 -27 -19 -35 -8 -14 -23 30 -20 103 5 100 4
87 20 -8 9 -22 12 -42 8 -20 -4 -33 -1 -39 8 -5 8 -9 9 -9 3z"/>
<path d="M10017 3568 c-25 -9 -27 -13 -21 -46 4 -21 9 -40 11 -44 6 -12 123
-9 124 2 1 6 3 15 4 20 1 6 3 14 4 19 0 5 10 11 22 14 31 8 16 23 -35 36 -53
13 -71 13 -109 -1z m81 -65 c-10 -2 -26 -2 -35 0 -10 3 -2 5 17 5 19 0 27 -2
18 -5z"/>
<path d="M9733 3513 c15 -2 39 -2 55 0 15 2 2 4 -28 4 -30 0 -43 -2 -27 -4z"/>
<path d="M10156 3499 c3 -6 29 -9 63 -7 l56 3 3 -67 3 -68 -113 2 c-81 1 -99
3 -63 7 l50 6 -74 8 c-41 4 -76 5 -80 2 -3 -3 -7 -17 -8 -31 l-4 -25 158 3
158 3 3 88 3 87 -81 0 c-56 0 -79 -3 -74 -11z"/>
<path d="M10460 3481 c0 -4 -10 -7 -22 -7 -18 1 -24 -5 -26 -26 -3 -27 -1 -28
41 -28 34 0 47 4 52 18 6 16 7 16 16 0 10 -18 59 -22 59 -5 0 5 7 1 16 -7 17
-17 36 -21 48 -8 8 7 13 8 41 11 17 1 20 26 5 36 -21 13 -102 11 -116 -2 -12
-12 -14 -12 -14 2 0 13 -6 16 -20 12 -12 -3 -34 -2 -50 3 -17 5 -30 5 -30 1z"/>
<path d="M9994 3446 c-11 -28 16 -48 54 -41 19 3 72 6 118 6 86 0 99 4 83 29
-5 8 -9 11 -9 6 0 -5 -6 -4 -12 2 -11 8 -52 10 -68 2 -9 -4 -145 2 -153 7 -4
2 -10 -3 -13 -11z"/>
<path d="M9757 3442 c-5 -7 -17 -10 -27 -7 -24 8 -37 -13 -13 -22 16 -6 15 -8
-7 -14 -24 -6 -24 -6 10 -16 43 -13 52 -5 48 38 -2 23 -6 30 -11 21z"/>
<path d="M9838 3442 c-39 -3 -48 -7 -48 -22 0 -14 9 -20 33 -23 l32 -4 -32 -1
c-18 -1 -33 -7 -33 -13 0 -8 15 -9 48 -4 26 4 48 8 50 10 2 2 2 16 0 32 -3 27
-5 28 -50 25z"/>
<path d="M10480 3380 c100 -12 220 -11 220 0 0 6 -53 9 -142 8 -119 -1 -132
-2 -78 -8z"/>
<path d="M10000 3230 c0 -19 -3 -89 -6 -155 -4 -92 -2 -124 9 -139 13 -18 33
-19 342 -19 310 0 329 1 342 19 10 14 13 51 11 151 -1 72 -6 129 -10 127 -5
-3 -6 -9 -3 -14 6 -10 -36 0 -52 13 -9 6 -15 4 -19 -7 -4 -9 -18 -16 -34 -16
-16 0 -32 -4 -35 -10 -3 -5 -1 -10 4 -10 21 0 11 -23 -24 -54 -19 -18 -35 -40
-35 -48 0 -14 -16 -16 -114 -15 -63 1 -112 5 -110 8 5 9 -44 21 -56 14 -5 -3
-10 18 -12 46 -3 51 -4 53 -43 65 -22 6 -35 12 -30 13 23 3 -23 21 -53 21 -23
0 -40 7 -53 23 l-18 22 -1 -35z m135 -54 c35 -15 44 -29 26 -41 -5 -3 -12 -1
-16 5 -3 5 0 10 7 11 7 0 2 4 -10 10 -13 5 -27 7 -32 4 -4 -3 -10 2 -14 10 -7
19 -4 19 39 1z m477 -3 c-14 -3 -20 -9 -15 -16 4 -7 -1 -6 -10 2 -22 17 -22
17 16 18 20 0 23 -1 9 -4z m68 -18 c-7 -8 -27 -15 -44 -14 l-31 1 33 8 c18 4
36 10 39 14 13 12 15 5 3 -9z"/>
<path d="M9766 3221 c-3 -5 -16 -7 -28 -3 -18 4 -20 2 -16 -16 4 -13 1 -22 -5
-22 -7 -1 2 -7 18 -14 17 -7 32 -9 33 -4 2 4 7 6 11 4 4 -3 5 11 3 30 -4 36
-7 40 -16 25z"/>
<path d="M9800 3209 c0 -5 -1 -12 -2 -16 -2 -4 11 -11 27 -14 l30 -7 -27 -1
c-47 -2 -31 -21 17 -21 41 0 45 2 41 23 -3 12 -5 27 -5 32 -1 13 -81 17 -81 4z"/>
<path d="M4970 3186 c0 -8 5 -18 11 -22 6 -3 9 -15 6 -25 -7 -25 10 -25 18 1
7 21 -10 60 -25 60 -6 0 -10 -6 -10 -14z"/>
<path d="M5260 3115 c0 -8 -6 -15 -13 -15 -22 0 -157 -69 -218 -112 -58 -40
-59 -42 -59 -89 0 -27 4 -49 9 -49 5 0 30 10 57 22 40 18 73 23 174 26 69 2
129 8 133 12 5 4 3 18 -4 31 -7 13 -13 31 -14 39 0 30 -161 3 -272 -45 -77
-34 -49 -4 31 35 60 28 168 52 193 43 14 -5 43 19 43 36 0 5 -8 15 -17 20 -15
9 -16 12 -4 20 8 5 11 16 8 25 -8 20 -47 21 -47 1z m33 -52 c4 -3 -25 -15 -64
-25 -39 -10 -102 -33 -140 -51 -73 -35 -74 -22 0 21 80 47 185 75 204 55z m18
-112 c22 -18 21 -18 -97 -24 -65 -4 -132 -9 -148 -13 -19 -5 -27 -3 -23 3 4 6
37 18 74 27 60 14 83 17 154 24 9 1 27 -6 40 -17z"/>
<path d="M9620 3060 c0 -5 7 -10 15 -10 8 0 15 5 15 10 0 6 -7 10 -15 10 -8 0
-15 -4 -15 -10z"/>
<path d="M5310 2249 c-159 -48 -230 -253 -134 -387 111 -154 316 -148 426 12
30 45 33 55 33 125 0 111 -48 191 -141 236 -46 22 -135 29 -184 14z m186 -64
c78 -45 118 -146 94 -235 -16 -61 -89 -134 -149 -150 -116 -31 -236 43 -262
160 -24 107 40 216 149 251 43 14 120 2 168 -26z"/>
<path d="M5364 2135 c-8 -20 4 -35 27 -35 14 0 19 7 19 25 0 18 -5 25 -20 25
-11 0 -23 -7 -26 -15z"/>
<path d="M5320 2045 c0 -8 11 -17 25 -21 23 -6 24 -11 27 -82 3 -64 6 -77 21
-80 15 -3 17 7 17 97 l0 101 -45 0 c-33 0 -45 -4 -45 -15z"/>
<path d="M9360 2228 c0 -22 3 -28 9 -20 5 9 24 12 52 10 36 -2 44 -7 44 -23 0
-17 -7 -20 -53 -20 -47 0 -52 -2 -52 -22 0 -22 3 -23 100 -23 l100 0 -5 -42
c-3 -24 -10 -97 -15 -162 -6 -77 -14 -122 -22 -128 -17 -10 -189 -10 -205 0
-7 4 -15 41 -18 82 -10 126 -14 140 -36 140 -19 0 -19 -5 -13 -92 11 -168 20
-178 169 -178 151 0 159 9 170 190 9 161 14 188 37 196 36 11 12 29 -48 34
-57 5 -59 6 -62 35 -6 47 -18 55 -88 55 l-64 0 0 -32z"/>
<path d="M3445 2229 c-31 -18 -234 -220 -254 -254 -11 -16 -26 -63 -35 -104
-23 -101 -18 -106 90 -83 44 10 93 28 110 39 41 30 229 223 243 250 17 33 5
65 -42 111 -46 45 -82 58 -112 41z m82 -71 c18 -18 33 -39 33 -48 0 -14 -95
-117 -199 -214 l-31 -30 -45 44 c-25 24 -45 47 -45 51 0 15 222 229 238 229 9
0 31 -14 49 -32z m-249 -319 c-7 -3 -30 -10 -51 -13 l-39 -7 7 33 c15 74 13
74 56 32 27 -26 35 -40 27 -45z"/>
<path d="M1192 2200 c-46 -28 -72 -76 -72 -133 0 -66 15 -90 113 -184 89 -85
112 -99 155 -88 34 8 190 160 208 202 19 43 18 113 -2 141 -17 24 -64 52 -89
52 -23 0 -18 -15 10 -28 36 -17 59 -71 50 -118 -5 -32 -23 -55 -92 -121 -56
-55 -93 -83 -108 -83 -15 0 -52 28 -108 83 -69 66 -87 89 -92 121 -20 104 97
174 166 100 29 -31 34 -30 74 5 33 29 33 29 11 39 -13 6 -28 7 -35 3 -7 -5
-29 0 -49 10 -47 24 -99 24 -140 -1z"/>
<path d="M7467 2202 c-10 -10 -17 -27 -17 -38 0 -27 -143 -108 -176 -100 -49
13 -92 -33 -74 -78 12 -33 46 -51 74 -38 17 7 35 1 96 -37 51 -32 76 -54 78
-69 4 -25 37 -52 64 -52 25 0 58 36 58 63 0 34 -30 57 -75 57 -49 0 -178 73
-173 98 2 9 36 35 75 58 54 30 81 39 103 36 60 -9 92 56 50 98 -25 25 -62 26
-83 2z"/>
<path d="M9250 2146 c0 -13 -5 -26 -11 -28 -20 -7 0 -48 23 -48 16 0 19 5 15
25 -3 18 1 29 14 36 30 16 23 39 -11 39 -25 0 -30 -4 -30 -24z"/>
<path d="M9350 2020 c-12 -23 -13 -110 -1 -129 5 -8 16 -11 25 -8 22 9 23 142
1 151 -8 3 -19 -3 -25 -14z"/>
<path d="M9452 2028 c-12 -12 -16 -105 -6 -132 3 -9 12 -16 19 -16 18 0 25 23
25 85 0 56 -17 84 -38 63z"/>
<path d="M0 630 l0 -630 5400 0 5400 0 0 630 0 630 -5400 0 -5400 0 0 -630z
m8516 169 c4 -6 -34 -51 -87 -105 l-94 -94 94 -94 c85 -86 103 -116 68 -116
-7 0 -59 47 -117 105 l-105 105 105 105 c103 103 122 116 136 94z m-6312 -15
c9 -25 7 -357 -3 -373 -5 -8 -16 -11 -25 -8 -14 6 -16 31 -16 195 0 104 3 192
7 195 11 12 31 7 37 -9z m161 -185 c0 -166 -2 -194 -15 -194 -13 0 -15 28 -18
185 -3 192 0 214 21 207 9 -3 12 -51 12 -198z m170 1 c0 -188 -1 -195 -20
-195 -19 0 -20 8 -23 185 -1 101 0 190 3 198 3 7 13 12 22 10 16 -3 18 -20 18
-198z m3000 159 c28 -31 34 -47 40 -103 12 -113 -8 -193 -60 -234 -31 -25
-123 -37 -207 -27 -54 7 -68 13 -99 44 -31 31 -37 45 -44 99 -4 34 -4 90 0
124 7 55 12 68 46 101 l38 39 126 -4 127 -3 33 -36z"/>
<path d="M5252 753 c-29 -11 -42 -62 -42 -158 0 -92 1 -98 28 -124 40 -41 149
-51 245 -25 33 10 47 57 47 159 0 93 -1 98 -29 126 -29 28 -31 29 -133 28 -57
0 -109 -3 -116 -6z"/>
</g>
</svg>
