<?xml version="1.0" standalone="no"?>
<!DOCTYPE svg PUBLIC "-//W3C//DTD SVG 20010904//EN"
 "http://www.w3.org/TR/2001/REC-SVG-20010904/DTD/svg10.dtd">
<svg version="1.0" xmlns="http://www.w3.org/2000/svg"
 width="1534.000000pt" height="1160.000000pt" viewBox="0 0 1534.000000 1160.000000"
 preserveAspectRatio="xMidYMid meet">

<g transform="translate(0.000000,1160.000000) scale(0.100000,-0.100000)"
fill="#000000" stroke="none">
<path d="M4380 9607 c-98 -28 -160 -89 -204 -205 l-21 -57 -5 -1980 c-4 -1712
-7 -1975 -19 -1940 -8 22 -39 96 -70 165 -232 512 -572 829 -985 916 -168 35
-442 27 -682 -21 -492 -99 -870 -368 -1049 -748 -91 -192 -120 -347 -112 -595
7 -228 52 -423 142 -618 64 -140 180 -276 310 -365 338 -231 840 -261 1221
-74 348 170 529 467 511 840 -21 441 -285 787 -676 886 -121 31 -302 24 -416
-15 -379 -129 -552 -492 -415 -868 56 -154 153 -268 280 -331 61 -30 72 -32
170 -32 103 0 107 1 193 42 111 53 186 122 230 212 29 60 32 74 32 161 0 82
-4 103 -26 151 -36 75 -93 137 -154 165 -41 20 -67 24 -141 24 -90 0 -154 13
-154 31 0 21 87 102 154 144 118 73 230 82 380 30 184 -64 319 -218 373 -425
25 -96 22 -301 -5 -401 -58 -216 -193 -375 -407 -479 -288 -141 -651 -142
-944 -4 -263 123 -398 318 -483 694 -20 90 -23 131 -22 290 0 167 3 195 27
285 83 312 297 562 617 721 291 145 735 209 1023 148 474 -99 844 -579 1054
-1366 l38 -143 3 -1429 c2 -1203 0 -1430 -11 -1440 -23 -18 -27 -42 -11 -65
l15 -21 3524 0 3525 0 15 24 c18 27 9 59 -20 70 -14 5 -15 153 -13 1443 l3
1438 37 135 c127 469 299 807 531 1047 283 292 576 377 1052 307 729 -108
1178 -590 1142 -1225 -11 -182 -66 -405 -137 -555 -106 -222 -325 -377 -620
-440 -123 -26 -344 -24 -467 4 -336 76 -562 274 -640 562 -25 90 -25 319 0
410 46 174 155 313 298 384 75 37 184 66 249 66 90 0 205 -52 301 -138 86 -77
61 -102 -98 -102 -117 0 -158 -17 -228 -91 -73 -78 -90 -124 -90 -249 0 -94 3
-111 28 -161 53 -109 177 -206 311 -244 306 -88 606 212 606 604 -1 266 -122
457 -365 576 -115 56 -194 75 -323 75 -487 1 -862 -413 -862 -949 0 -254 86
-460 263 -627 351 -334 974 -389 1420 -126 192 113 331 291 411 523 114 333
126 661 35 946 -76 238 -247 466 -469 624 -146 105 -382 207 -585 254 -224 52
-569 67 -735 31 -334 -71 -620 -291 -839 -644 -60 -95 -146 -267 -192 -381
l-34 -84 -5 1969 c-6 2111 -2 1990 -55 2094 -29 57 -100 123 -151 141 -61 21
-152 16 -206 -10 -132 -63 -204 -247 -140 -355 12 -20 22 -39 22 -42 0 -2
-1343 -4 -2984 -4 l-2983 0 23 47 c35 68 33 142 -7 221 -61 122 -187 183 -309
149z m6638 -4069 l2 -3548 -3360 0 -3360 0 0 3550 0 3550 3358 -2 3357 -3 3
-3547z"/>
<path d="M3765 8568 c-124 -45 -178 -185 -155 -399 22 -206 100 -521 239 -968
43 -141 76 -231 89 -244 26 -26 77 -27 102 -1 18 18 19 49 21 704 1 614 0 691
-15 745 -17 62 -52 114 -99 149 -32 24 -135 32 -182 14z"/>
<path d="M11377 8559 c-43 -23 -82 -76 -104 -146 -14 -42 -16 -134 -17 -738
l-1 -690 28 -29 c22 -22 33 -27 55 -22 43 11 59 38 106 189 267 847 323 1206
211 1366 -56 82 -191 116 -278 70z"/>
<path d="M2535 8301 c-52 -23 -112 -91 -120 -134 -14 -71 19 -104 235 -237
294 -181 434 -285 583 -429 160 -155 260 -287 352 -465 58 -113 82 -133 133
-115 50 17 58 52 32 156 -61 244 -183 501 -338 712 -115 157 -318 342 -475
435 -153 91 -308 120 -402 77z"/>
<path d="M12560 8306 c-145 -41 -302 -147 -486 -330 -110 -110 -159 -168 -223
-265 -128 -192 -229 -418 -282 -628 -27 -105 -22 -139 24 -161 52 -25 82 -2
134 102 44 89 127 222 174 280 182 225 363 375 721 598 207 129 272 181 280
223 13 64 -60 159 -140 183 -50 15 -143 14 -202 -2z"/>
<path d="M2307 7551 c-70 -28 -112 -64 -137 -116 -46 -96 -8 -268 72 -328 72
-53 163 -59 388 -22 62 10 128 14 162 11 125 -12 310 -100 571 -272 87 -57
167 -104 178 -104 32 0 55 17 68 49 16 38 3 64 -93 178 -251 299 -533 497
-841 589 -123 36 -297 44 -368 15z"/>
<path d="M12715 7556 c-184 -42 -414 -153 -575 -278 -190 -148 -440 -423 -440
-485 0 -30 42 -73 71 -73 12 0 83 40 158 88 272 176 423 254 550 280 75 15 85
15 232 -6 168 -25 252 -28 296 -11 103 38 157 124 157 254 1 112 -37 174 -134
219 -57 26 -226 32 -315 12z"/>
<path d="M3910 6811 c-81 -25 -288 -161 -325 -214 -28 -40 -18 -62 68 -149 96
-97 157 -195 228 -365 63 -149 61 -146 91 -157 40 -14 74 0 92 39 15 31 17 78
14 426 l-3 391 -24 19 c-24 20 -92 25 -141 10z"/>
<path d="M11262 6795 c-22 -27 -22 -33 -22 -427 l0 -399 25 -24 c30 -31 75
-33 100 -5 10 11 40 72 66 134 75 184 175 338 261 403 81 61 69 108 -50 198
-121 91 -218 138 -297 143 -58 4 -63 2 -83 -23z"/>
<path d="M4135 1688 c-50 -27 -59 -75 -20 -113 l24 -25 3529 0 3529 0 21 23
c27 29 28 67 3 98 l-19 24 -3524 2 c-2540 2 -3529 -1 -3543 -9z"/>
</g>
</svg>
