<?xml version="1.0" standalone="no"?>
<!DOCTYPE svg PUBLIC "-//W3C//DTD SVG 20010904//EN"
 "http://www.w3.org/TR/2001/REC-SVG-20010904/DTD/svg10.dtd">
<svg version="1.0" xmlns="http://www.w3.org/2000/svg"
 width="1768.000000pt" height="964.000000pt" viewBox="0 0 1768.000000 964.000000"
 preserveAspectRatio="xMidYMid meet">

<g transform="translate(0.000000,964.000000) scale(0.100000,-0.100000)"
fill="#000000" stroke="none">
<path d="M8165 9118 c-93 -23 -233 -73 -294 -105 -277 -148 -478 -415 -616
-818 -15 -44 -30 -83 -34 -86 -9 -9 -246 21 -321 41 -19 5 -69 16 -110 25 -41
9 -84 20 -95 25 -11 4 -49 16 -85 26 -36 9 -69 21 -74 26 -6 4 -16 8 -24 8 -8
0 -30 7 -50 16 -21 9 -46 20 -57 24 -11 5 -51 23 -88 39 -38 17 -70 31 -71 31
-10 0 -228 126 -288 166 -104 69 -252 187 -359 285 -185 170 -200 179 -270
179 -108 0 -204 -114 -184 -218 4 -20 9 -55 11 -77 5 -54 22 -168 34 -235 6
-30 16 -85 23 -122 6 -36 15 -70 20 -74 4 -4 7 -17 7 -30 0 -21 23 -107 40
-149 11 -26 50 -156 50 -166 0 -4 -19 -10 -42 -14 -167 -27 -197 -177 -91
-445 41 -102 124 -220 215 -304 74 -69 80 -78 71 -99 -29 -58 -32 -86 -17
-137 19 -63 57 -108 158 -183 77 -56 209 -127 238 -127 8 0 18 -4 24 -8 5 -5
45 -17 89 -26 103 -23 109 -27 116 -67 19 -106 93 -179 231 -230 38 -14 110
-23 257 -34 112 -8 211 -15 220 -15 9 0 31 -13 50 -29 l35 -30 -13 -93 c-8
-51 -17 -118 -22 -148 -4 -30 -12 -91 -18 -135 -6 -44 -15 -109 -21 -145 -6
-36 -17 -114 -25 -175 -8 -60 -19 -139 -25 -175 -5 -36 -16 -123 -25 -195 -9
-71 -20 -150 -25 -175 -23 -122 -34 -361 -22 -503 6 -78 16 -155 21 -172 5
-16 17 -57 27 -90 62 -207 212 -382 404 -473 77 -36 91 -42 150 -60 156 -49
465 -50 617 -2 118 38 288 142 356 219 80 91 183 275 206 366 62 259 120 461
149 525 l15 35 9 -30 c21 -70 30 -104 44 -165 29 -125 53 -244 79 -395 9 -49
20 -115 26 -145 5 -30 14 -84 19 -120 5 -36 14 -74 19 -85 5 -11 17 -38 26
-60 98 -235 283 -409 513 -481 28 -9 52 -19 52 -21 0 -3 -13 -33 -30 -67 -36
-74 -52 -150 -43 -214 9 -71 55 -161 106 -211 l46 -44 -40 -29 c-47 -34 -94
-103 -116 -173 -9 -31 -18 -109 -22 -207 -3 -86 -9 -160 -14 -164 -4 -4 -22 6
-40 23 -60 57 -126 83 -214 83 -34 0 -75 -5 -90 -11 -73 -29 -155 -75 -180
-101 -15 -15 -32 -28 -38 -28 -6 0 -27 16 -46 36 -61 63 -154 104 -241 104
-55 0 -69 -3 -153 -40 -57 -25 -128 -105 -156 -176 l-24 -59 0 -550 0 -550 28
-57 c74 -151 272 -232 445 -182 71 21 94 35 160 98 83 80 109 153 115 326 9
245 66 345 280 484 45 30 99 69 119 88 21 20 40 33 43 30 3 -3 5 -39 5 -81 1
-201 88 -370 213 -414 88 -31 155 -41 196 -29 21 7 48 12 59 12 44 0 133 53
182 108 32 35 51 50 53 41 26 -99 56 -171 98 -238 31 -48 154 -179 202 -213
31 -22 27 -38 -9 -38 -41 0 -99 -36 -152 -95 -206 -232 2 -488 476 -586 258
-53 620 10 806 141 187 131 264 301 281 617 3 62 9 122 14 135 9 22 9 22 16
-7 18 -71 82 -152 156 -198 93 -57 288 -63 389 -13 30 15 71 43 91 63 33 31
44 51 80 138 4 11 10 67 13 125 10 219 34 366 73 442 18 36 29 35 47 -4 30
-63 50 -185 66 -406 8 -117 14 -152 35 -195 62 -131 179 -197 350 -197 172 0
282 63 341 196 19 43 26 82 34 201 5 82 10 199 10 261 0 61 2 112 5 112 33 0
105 -25 110 -38 7 -17 16 -113 34 -377 11 -154 27 -275 41 -310 5 -11 14 -37
20 -57 15 -50 79 -147 122 -184 49 -43 150 -92 229 -110 76 -18 306 -20 389
-3 138 28 225 89 261 184 39 103 16 201 -66 281 -38 37 -63 53 -91 58 -63 12
-100 28 -114 50 -20 31 -39 132 -40 204 0 80 28 254 43 268 7 6 43 16 80 22
47 7 80 19 103 37 l35 26 20 -48 c94 -222 214 -342 449 -446 79 -35 171 -55
314 -68 171 -15 433 14 541 61 11 4 41 16 67 27 27 10 48 21 48 26 0 4 5 7 11
7 29 0 154 111 176 157 8 18 19 30 24 27 5 -3 9 -123 9 -266 0 -309 6 -340 82
-424 137 -149 394 -164 540 -32 91 84 116 146 128 323 11 156 25 227 56 289
33 66 120 150 225 219 104 67 163 126 197 197 24 48 27 67 27 155 0 91 -3 105
-30 160 -35 69 -108 146 -156 164 -19 7 -42 17 -51 22 -31 16 -126 10 -194
-12 -40 -13 -91 -41 -131 -70 -35 -27 -67 -49 -72 -49 -4 0 -20 14 -37 31 -83
87 -225 130 -323 97 -69 -22 -117 -48 -146 -78 -22 -23 -32 -27 -42 -19 -7 6
-13 19 -13 28 0 33 -55 159 -99 226 -74 112 -174 200 -283 248 -21 10 -53 24
-72 32 -19 8 -40 15 -48 15 -8 0 -18 3 -22 7 -31 31 -273 57 -405 44 -290 -30
-511 -152 -663 -366 -50 -70 -118 -225 -118 -268 0 -20 -18 -22 -45 -4 -31 21
-120 47 -162 47 -47 0 -63 14 -63 53 0 40 -27 143 -51 195 -29 63 -96 131
-159 161 -49 23 -67 26 -160 25 -95 0 -111 -3 -170 -30 -70 -33 -145 -104
-156 -148 -3 -14 -10 -26 -14 -26 -10 0 -21 -58 -27 -152 -5 -85 -2 -81 -97
-103 -16 -3 -48 -19 -72 -36 -48 -33 -44 -35 -86 54 -61 128 -149 214 -288
280 -138 66 -358 82 -521 39 l-37 -9 -11 71 c-6 39 -13 94 -15 121 -18 233
-157 363 -388 366 -54 0 -59 2 -38 11 57 25 164 80 193 101 103 72 215 202
294 342 83 148 175 415 198 575 3 25 10 65 15 90 5 25 16 86 25 135 9 50 20
110 25 135 5 25 16 88 25 140 9 52 20 118 25 145 5 28 16 91 24 140 8 50 18
104 21 120 3 17 12 71 20 120 8 50 19 119 25 155 6 36 17 106 25 155 8 50 19
119 25 155 5 36 16 104 23 153 8 48 16 90 19 93 6 5 96 -20 130 -37 10 -5 26
-9 37 -9 11 0 48 -7 83 -16 42 -11 110 -17 203 -18 137 -1 141 0 192 28 63 35
76 48 112 118 17 32 34 52 42 49 8 -2 42 -6 77 -8 34 -3 62 -8 62 -12 0 -3
-23 -17 -51 -30 -28 -13 -90 -54 -138 -91 -216 -169 -375 -386 -456 -625 -9
-27 -21 -59 -25 -70 -9 -21 -11 -30 -38 -160 -20 -99 -22 -406 -4 -510 13 -70
19 -94 54 -195 97 -281 335 -535 636 -680 59 -28 115 -56 124 -61 10 -5 27 -9
37 -9 11 0 22 -4 25 -9 4 -5 25 -12 49 -16 23 -4 47 -11 52 -15 11 -8 36 -14
180 -38 142 -24 545 -23 705 1 63 10 132 20 153 23 20 4 40 10 43 15 3 5 16 9
29 9 26 0 109 24 137 40 10 6 23 10 30 10 21 0 180 81 247 126 36 24 91 69
124 101 80 78 115 135 168 271 13 32 11 139 -2 181 -23 71 -60 137 -100 179
-23 23 -45 42 -50 42 -19 0 -8 16 23 34 32 20 47 31 104 79 101 86 182 322
154 449 -35 160 -44 198 -60 248 -16 50 -40 110 -73 180 -61 131 -191 291
-317 391 -120 95 -312 190 -480 238 -25 7 -54 17 -65 22 -11 5 -47 14 -80 19
-33 6 -85 16 -115 21 -100 18 -319 22 -407 9 -46 -7 -86 -11 -89 -8 -3 4 2 21
12 40 10 18 18 58 19 87 2 51 4 56 31 64 209 63 380 213 480 422 31 65 38 91
38 140 0 73 -33 133 -88 159 -43 20 -45 37 -11 80 14 17 29 36 33 41 68 87
243 409 335 614 47 105 50 167 11 227 -40 62 -87 88 -159 87 -54 0 -74 -7
-205 -75 -80 -41 -165 -82 -190 -92 -25 -10 -54 -22 -65 -27 -69 -30 -237 -82
-335 -104 -41 -9 -88 -21 -105 -25 -33 -9 -197 -33 -341 -49 -118 -14 -352
-14 -468 0 -218 25 -258 32 -261 43 -1 6 -10 45 -19 86 -61 272 -192 486 -381
624 -100 73 -219 137 -280 152 -16 4 -34 10 -40 14 -5 4 -41 14 -80 24 -38 9
-86 21 -105 26 -39 9 -136 26 -255 42 -139 20 -352 14 -455 -12 -138 -35 -304
-103 -338 -137 -7 -7 -16 -13 -20 -13 -4 0 -20 -11 -36 -25 -16 -14 -32 -25
-36 -25 -12 0 -169 -160 -214 -219 -55 -71 -131 -194 -168 -271 -136 -281
-269 -540 -360 -699 -26 -46 -48 -86 -48 -88 0 -8 -85 -138 -92 -141 -4 -2 -8
-8 -8 -13 0 -11 -101 -150 -136 -188 -30 -32 -42 -22 -83 71 -18 40 -36 80
-41 89 -5 9 -12 33 -15 53 -4 20 -11 39 -16 42 -5 3 -9 18 -9 34 0 15 -3 30
-8 32 -7 3 -40 123 -68 248 -8 36 -20 83 -25 105 -6 22 -17 74 -25 115 -8 41
-19 93 -24 115 -4 22 -13 69 -19 105 -6 36 -15 88 -21 115 -5 28 -16 91 -25
140 -18 101 -23 125 -60 244 -35 111 -76 196 -152 311 -181 276 -458 454 -833
534 -41 9 -94 21 -118 26 -54 13 -394 11 -447 -2z m392 -84 c438 -64 736 -251
906 -566 54 -100 106 -265 134 -422 62 -355 88 -488 133 -674 91 -375 195
-637 290 -733 63 -63 85 -68 150 -33 103 56 258 261 427 564 17 30 48 84 68
120 20 36 106 204 191 373 200 403 285 528 432 640 127 95 213 136 362 171 77
19 349 22 431 5 30 -6 77 -14 104 -19 180 -30 238 -44 260 -62 5 -4 16 -8 24
-8 25 0 182 -80 236 -121 99 -74 181 -171 237 -284 35 -68 43 -91 73 -202 18
-63 39 -232 31 -241 -3 -3 -52 2 -109 12 -56 9 -131 22 -167 28 -102 16 -349
5 -442 -21 -109 -30 -192 -67 -276 -123 -99 -65 -144 -108 -215 -203 -101
-134 -160 -283 -178 -445 -28 -251 47 -491 207 -660 42 -43 66 -51 45 -13 -13
24 -57 157 -71 213 -43 178 -52 240 -53 375 0 131 2 145 31 228 88 252 294
452 528 513 35 9 106 14 195 14 130 0 188 -5 344 -30 33 -6 84 -13 113 -16
l52 -7 0 62 c0 33 3 61 8 61 4 0 61 -9 127 -19 66 -11 158 -25 205 -32 113
-17 548 -17 660 0 163 24 275 43 310 51 19 5 67 16 105 26 191 45 386 118 587
219 69 35 128 61 131 58 14 -13 -155 -354 -252 -508 -82 -130 -181 -261 -271
-358 -78 -84 -84 -107 -26 -107 19 0 70 -7 113 -15 43 -8 91 -15 106 -15 15 0
30 -6 33 -13 11 -29 -69 -161 -141 -232 -107 -108 -218 -155 -528 -225 -53
-12 -100 -27 -104 -33 -14 -24 79 -84 181 -117 l49 -15 -29 -34 c-48 -58 -91
-71 -237 -71 -70 0 -188 7 -262 16 -74 8 -157 14 -185 12 l-51 -3 20 -37 c46
-91 35 -151 -29 -168 -45 -12 -277 4 -295 21 -5 5 -19 9 -30 9 -22 0 -108 25
-135 39 -8 4 -38 14 -65 21 -48 12 -53 11 -100 -14 -59 -31 -89 -34 -81 -8 3
9 13 67 21 127 9 61 18 117 21 126 6 21 -119 87 -182 96 -93 12 -116 -17 -73
-94 34 -62 62 -108 70 -113 3 -3 9 -15 13 -27 6 -20 4 -23 -21 -23 -16 0 -33
4 -38 8 -6 4 -28 14 -50 21 -200 67 -349 209 -408 391 -33 101 -41 176 -28
248 41 210 173 322 380 322 38 0 72 -4 75 -9 3 -4 18 -11 33 -14 107 -22 195
-219 129 -290 -33 -36 -99 -67 -155 -74 -43 -5 -50 -3 -69 22 -25 31 -29 87
-8 104 8 6 41 16 75 22 63 11 71 21 55 64 -9 23 -69 45 -125 45 -43 0 -53 -4
-88 -39 -31 -31 -39 -48 -45 -90 -20 -149 59 -240 216 -249 129 -8 219 44 270
155 56 125 25 276 -77 366 -42 38 -122 85 -175 103 -76 26 -245 25 -315 -1
-202 -76 -333 -239 -351 -438 -12 -138 29 -299 113 -441 49 -82 210 -256 238
-256 7 0 15 -3 17 -7 5 -12 107 -59 166 -77 55 -17 260 -24 297 -10 20 8 20 0
-10 -181 -28 -173 -47 -290 -55 -345 -12 -79 -41 -257 -50 -310 -5 -25 -16
-90 -25 -145 -9 -55 -20 -120 -25 -145 -4 -25 -15 -90 -25 -145 -9 -55 -21
-120 -25 -145 -20 -109 -41 -229 -50 -275 -58 -331 -80 -409 -173 -605 -58
-123 -101 -185 -186 -270 -78 -77 -84 -82 -163 -124 -75 -41 -124 -50 -263
-50 -178 -1 -283 24 -445 103 -85 42 -106 57 -170 122 -73 74 -104 126 -134
224 -26 82 -27 285 -3 410 68 346 75 525 24 645 -6 14 -24 40 -41 58 -109 118
-292 -80 -633 -688 -11 -19 -39 -72 -63 -117 -141 -271 -381 -433 -640 -433
-67 0 -94 4 -225 37 -185 45 -360 194 -429 363 -10 25 -22 54 -27 65 -5 11
-14 52 -20 90 -6 39 -14 90 -19 115 -4 25 -15 88 -24 140 -9 52 -21 118 -27
145 -5 28 -14 77 -20 110 -5 33 -14 69 -19 80 -5 11 -11 34 -14 50 -27 165
-103 374 -161 443 -91 109 -217 -66 -329 -458 -8 -30 -30 -113 -47 -185 -50
-208 -104 -328 -194 -433 -74 -85 -209 -161 -345 -194 -30 -7 -111 -13 -180
-13 -380 0 -622 164 -709 480 -11 39 -25 126 -32 195 -12 130 -6 213 36 525 8
61 20 148 25 195 6 47 12 96 15 110 3 14 9 57 14 95 27 203 91 646 111 775 6
36 13 77 15 92 4 24 -1 30 -48 53 -29 14 -70 46 -92 71 l-40 44 -200 10 c-218
11 -304 21 -350 41 -42 18 -85 59 -85 81 0 25 43 91 76 117 34 26 27 33 -39
42 -198 26 -219 30 -345 66 -97 28 -235 107 -290 166 -28 30 -22 35 54 42 77
8 130 23 178 53 37 23 39 25 21 38 -10 8 -25 14 -32 14 -7 0 -21 4 -31 9 -9 6
-48 24 -87 42 -148 68 -271 170 -350 289 -25 38 -45 72 -45 76 0 3 -6 20 -14
37 -30 72 -36 88 -42 137 l-7 51 64 -6 c35 -4 97 -11 137 -16 95 -12 112 -11
112 2 0 7 -15 44 -34 83 -37 78 -55 119 -81 186 -9 25 -21 54 -26 65 -13 33
-50 156 -66 220 -8 33 -19 78 -24 100 -13 52 -37 182 -49 270 -5 39 -13 85
-16 102 -14 72 1 70 97 -18 195 -179 396 -331 560 -425 102 -57 285 -149 319
-159 14 -4 30 -11 35 -15 6 -3 33 -14 60 -24 28 -10 59 -21 70 -26 49 -22 238
-74 355 -98 186 -39 516 -86 532 -76 4 3 8 16 8 29 0 13 4 34 9 47 5 13 17 50
26 83 9 33 21 69 25 80 4 11 14 36 20 55 113 314 303 554 525 663 178 87 365
113 582 81z m6423 -3154 c8 -4 42 -11 74 -15 33 -4 66 -10 75 -15 9 -4 54 -20
101 -35 118 -37 280 -117 364 -179 150 -111 273 -279 331 -451 10 -27 21 -59
25 -70 27 -70 35 -121 35 -230 0 -85 -4 -129 -15 -152 -8 -18 -18 -33 -22 -33
-5 0 -8 -6 -8 -13 0 -19 -68 -81 -120 -109 -45 -24 -105 -45 -190 -67 -56 -14
-345 -31 -690 -41 -353 -10 -444 -31 -524 -121 -31 -33 -36 -46 -36 -87 0 -70
38 -140 93 -173 118 -71 345 -84 547 -31 121 32 247 82 340 134 30 17 69 39
85 48 41 23 144 50 188 50 140 0 273 -144 236 -257 -25 -78 -46 -110 -124
-188 -67 -68 -97 -89 -185 -133 -160 -79 -265 -109 -500 -144 -113 -16 -169
-19 -350 -14 -246 5 -354 22 -530 83 -220 76 -449 238 -567 403 -160 223 -221
508 -174 815 17 113 66 265 118 369 76 152 206 306 347 411 64 47 270 155 296
155 5 0 18 4 28 9 28 15 182 60 247 72 139 25 460 31 505 9z m-4064 -1488 c-3
-10 -10 -67 -16 -127 -6 -61 -17 -148 -25 -195 -43 -241 -49 -315 -32 -423 20
-132 32 -177 64 -246 64 -133 152 -229 293 -317 78 -48 112 -64 210 -97 72
-24 95 -30 220 -58 30 -7 112 -13 183 -12 70 0 127 -1 127 -3 0 -1 -20 -14
-44 -28 -24 -14 -57 -43 -73 -63 -74 -99 -81 -135 -88 -473 -3 -157 -9 -310
-12 -340 l-6 -55 -8 38 c-21 91 -91 190 -160 224 -167 82 -288 79 -430 -8
l-45 -29 -50 24 c-50 25 -114 45 -214 66 -127 28 -333 -23 -469 -116 -59 -40
-160 -145 -203 -212 -23 -34 -43 -60 -46 -58 -2 3 -6 63 -9 133 -2 70 -7 209
-12 308 -8 170 -10 184 -38 246 -30 65 -62 105 -118 146 l-30 22 47 44 c71 66
111 159 112 262 0 83 -18 152 -56 207 -10 14 -18 30 -18 35 0 4 38 26 83 47
76 36 176 107 237 166 58 57 148 173 173 222 37 73 104 196 167 303 29 50 58
99 64 110 25 43 129 200 168 252 34 47 42 53 50 39 5 -9 7 -24 4 -34z m4174
-207 c0 -8 -40 -22 -129 -47 -56 -16 -105 -22 -186 -22 -103 0 -185 14 -185
33 0 9 84 29 140 34 60 6 360 7 360 2z m-5313 -850 c42 -9 117 -75 132 -117 7
-18 17 -41 22 -50 29 -55 -10 -192 -69 -247 -67 -61 -196 -81 -269 -39 -62 35
-102 79 -123 135 -25 67 -25 94 0 162 26 72 45 99 88 124 76 46 122 52 219 32z
m2453 -477 c48 -25 67 -43 87 -83 45 -86 49 -103 63 -273 14 -176 40 -211 130
-179 26 9 57 17 69 17 11 0 21 5 21 10 0 13 277 14 284 1 3 -5 20 -11 38 -14
70 -11 167 -61 227 -118 48 -46 114 -154 133 -219 42 -141 43 -148 43 -490 0
-389 -4 -410 -82 -486 -58 -55 -137 -73 -253 -55 -138 22 -210 109 -210 259
-1 104 -20 262 -48 387 -11 53 -57 144 -84 167 -55 47 -117 31 -170 -45 -20
-29 -40 -71 -43 -92 -4 -22 -11 -44 -15 -50 -7 -9 -15 -49 -27 -135 -3 -19 -7
-91 -9 -160 -8 -237 -50 -306 -202 -331 -113 -19 -213 9 -277 76 -22 23 -44
84 -55 150 -14 86 -8 1413 6 1491 20 102 79 169 164 186 53 10 182 2 210 -14z
m-2430 -155 c46 -17 120 -78 120 -99 0 -7 4 -14 9 -16 6 -1 17 -50 26 -106 14
-87 16 -171 13 -520 -3 -411 -4 -418 -27 -469 -50 -111 -158 -172 -288 -160
-43 4 -74 14 -101 32 -41 27 -82 76 -82 98 0 7 -4 17 -9 22 -28 32 -36 163
-36 615 1 319 11 449 40 507 21 41 56 77 90 95 43 22 186 23 245 1z m-1282
-487 c23 -5 42 -12 42 -17 0 -5 6 -9 13 -9 17 0 87 -74 107 -113 27 -53 73
-59 104 -12 59 90 158 146 285 161 63 7 171 -85 187 -159 4 -15 11 -30 15 -33
12 -7 11 -90 0 -112 -5 -9 -15 -33 -22 -52 -12 -33 -102 -130 -121 -130 -25 0
-123 -76 -208 -160 -60 -60 -80 -90 -108 -160 -5 -14 -15 -38 -21 -53 -6 -16
-16 -83 -21 -150 -6 -67 -13 -144 -16 -172 -16 -137 -115 -225 -256 -225 -121
0 -205 45 -249 134 -18 38 -19 67 -19 550 0 522 1 536 39 606 19 36 62 80 78
80 7 0 13 5 13 10 0 6 10 10 23 10 12 0 28 4 35 9 15 9 38 8 100 -3z m2300 -3
c29 -3 55 -9 58 -14 3 -5 13 -9 23 -9 9 0 39 -11 67 -24 125 -61 119 -59 151
-39 15 9 30 21 33 25 12 16 102 58 125 58 13 0 36 5 51 10 19 8 30 8 38 0 5
-5 22 -10 36 -10 52 0 126 -49 173 -114 26 -36 33 -103 48 -437 16 -369 -6
-839 -45 -954 -61 -178 -196 -297 -396 -350 -36 -10 -76 -21 -90 -26 -82 -28
-382 -27 -485 2 -198 55 -328 126 -388 210 -36 50 -35 93 3 151 47 70 89 98
149 98 51 0 148 -37 172 -66 6 -8 18 -14 25 -14 8 0 14 -4 14 -9 0 -5 13 -12
30 -16 16 -4 32 -11 35 -16 4 -5 17 -9 30 -9 13 0 27 -4 30 -10 3 -6 48 -10
100 -10 79 0 103 4 147 24 127 59 209 221 142 282 -35 33 -82 31 -179 -7 -69
-27 -297 -27 -370 0 -148 54 -306 194 -363 321 -49 109 -65 180 -65 285 0 226
99 432 267 559 47 36 147 86 173 86 12 0 25 5 28 10 3 6 25 10 48 11 23 0 51
4 62 9 11 5 31 7 45 4 14 -3 49 -8 78 -11z m4711 -127 c24 -13 24 -14 3 -25
-11 -6 -51 -11 -87 -11 -36 0 -76 5 -87 11 -21 11 -21 12 3 25 13 7 51 13 84
13 33 0 71 -6 84 -13z m731 -436 c0 -38 -4 -72 -10 -75 -5 -3 -10 0 -10 8 0 8
-16 29 -35 46 -34 29 -46 61 -24 61 6 0 22 9 36 20 14 11 29 17 34 14 5 -3 9
-36 9 -74z m-535 -50 c-3 -5 -38 -19 -78 -31 -112 -34 -267 -28 -267 11 0 4
15 12 33 18 42 13 320 16 312 2z m-4745 -829 c0 -13 -49 -50 -89 -67 -53 -22
-126 -16 -213 18 -49 18 -30 28 55 28 45 1 107 7 137 15 66 16 110 18 110 6z"/>
<path d="M5575 8413 c45 -206 153 -406 284 -525 55 -49 176 -119 259 -149 76
-27 8 -66 -140 -79 -57 -5 -176 -9 -265 -10 l-163 0 0 -25 c0 -66 83 -147 215
-210 137 -66 261 -90 427 -82 59 2 109 3 111 0 3 -2 0 -20 -6 -40 -13 -43 -87
-119 -160 -167 -95 -61 -122 -96 -74 -96 13 0 27 -4 33 -9 14 -12 203 -34 249
-27 84 11 403 29 419 23 26 -10 19 -28 -30 -82 -98 -107 -164 -204 -164 -242
0 -13 83 -33 133 -33 23 0 74 7 112 15 190 41 319 65 323 60 6 -6 -20 -198
-43 -316 -7 -35 -6 -36 42 -55 40 -16 71 -19 183 -18 124 1 142 4 219 32 46
17 108 46 138 64 150 90 298 274 360 445 23 64 24 220 1 284 -50 138 -158 268
-271 322 -82 40 -114 47 -208 47 -96 0 -182 -18 -236 -50 -48 -28 -57 -26 -50
13 3 17 11 59 17 92 6 33 17 96 24 140 8 44 16 87 17 95 3 11 -17 17 -96 26
-217 26 -354 48 -460 73 -172 42 -210 52 -325 91 -270 90 -505 209 -780 393
-47 31 -90 57 -96 57 -9 0 -8 -15 1 -57z m795 -659 c77 -27 94 -32 190 -58
160 -43 262 -65 434 -92 l118 -19 -6 -56 c-6 -58 -23 -109 -37 -109 -4 0 -25
-37 -47 -82 -54 -110 -69 -219 -45 -323 19 -86 20 -151 3 -190 -13 -28 -14
-28 -17 -8 -3 12 0 30 6 41 19 36 -17 148 -65 195 -50 51 -76 57 -230 57 -78
0 -155 -5 -169 -10 -39 -15 -44 -6 -27 52 24 87 24 119 0 167 -13 25 -40 59
-61 75 -36 28 -45 31 -113 31 -41 -1 -74 0 -74 0 0 1 20 22 44 48 51 52 60 85
54 182 -3 55 -8 69 -33 95 -36 37 -23 38 75 4z m890 -340 c0 -15 -4 -43 -9
-63 -8 -30 -39 -215 -44 -260 -3 -28 -24 -21 -38 11 -17 39 -16 170 0 213 15
37 73 125 84 125 4 0 7 -12 7 -26z m348 -12 c9 -5 44 -22 77 -38 76 -37 124
-85 161 -160 25 -52 28 -70 28 -154 0 -109 -14 -160 -74 -261 -75 -126 -207
-224 -365 -269 -73 -21 -285 -29 -285 -11 0 5 25 28 55 51 152 117 152 189 2
190 l-59 0 6 43 c13 88 39 242 42 245 1 2 23 -13 49 -33 71 -53 103 -67 171
-73 71 -5 121 8 166 46 86 72 91 233 9 291 -53 38 -115 36 -166 -4 -19 -15
-19 -16 10 -43 17 -15 42 -35 58 -45 34 -22 38 -74 7 -102 -32 -29 -112 -23
-157 11 -119 90 -86 224 76 305 38 19 157 26 189 11z"/>
<path d="M7351 7921 c-8 -34 -12 -63 -10 -64 2 -2 69 -11 149 -21 314 -38 461
-106 608 -280 121 -144 184 -317 185 -511 1 -100 -3 -132 -22 -190 -57 -173
-173 -391 -280 -524 l-35 -44 29 7 c72 18 230 160 297 267 97 153 138 299 138
489 0 246 -80 444 -248 616 -175 180 -405 276 -747 311 l-50 5 -14 -61z"/>
<path d="M14788 7485 c-5 -6 -56 -19 -243 -66 -66 -16 -136 -34 -155 -39 -19
-5 -75 -16 -125 -25 -49 -8 -112 -20 -140 -26 -74 -16 -503 -23 -610 -10 -90
11 -130 17 -280 46 -44 9 -100 19 -125 24 -28 6 -47 5 -51 -1 -4 -6 -9 -53
-13 -106 -6 -97 -27 -273 -46 -387 -5 -33 -12 -85 -15 -115 -4 -30 -10 -80
-15 -110 -18 -108 -54 -365 -54 -394 -1 -31 -10 -25 204 -138 52 -28 100 -55
106 -59 6 -5 35 -11 65 -15 45 -5 58 -3 73 11 23 24 15 55 -43 168 -48 93 -73
169 -65 192 4 8 31 3 97 -20 107 -37 125 -44 152 -55 167 -69 465 -134 465
-101 0 5 -31 51 -69 102 -89 119 -115 170 -106 209 8 35 31 39 88 15 102 -42
191 -59 322 -59 166 0 246 21 358 92 91 59 87 62 -168 148 -222 74 -262 90
-302 127 -31 28 -29 35 15 42 78 12 148 27 164 36 10 5 24 9 31 9 22 0 170 81
217 119 62 49 134 125 183 191 43 57 117 179 117 192 0 9 -24 11 -32 3z
m-1403 -432 c62 -9 197 -17 358 -20 153 -2 257 -8 257 -13 0 -6 -5 -10 -11
-10 -24 0 -89 -57 -104 -91 -31 -68 -16 -171 29 -208 30 -25 16 -31 -53 -25
-103 10 -136 0 -191 -55 -32 -32 -49 -59 -53 -82 -11 -69 -20 -119 -21 -119 0
0 -39 14 -86 31 -170 62 -205 71 -264 70 -32 0 -64 -5 -71 -11 -23 -19 -27 7
-15 83 24 157 29 194 35 242 8 78 27 208 31 224 3 9 13 11 32 6 15 -3 72 -13
127 -22z m820 -3 c-3 -5 -12 -10 -20 -10 -8 0 -17 5 -20 10 -4 6 5 10 20 10
15 0 24 -4 20 -10z m-85 -10 c18 -6 9 -8 -35 -8 -44 0 -53 2 -35 8 14 4 30 8
35 8 6 0 21 -4 35 -8z"/>
<path d="M14518 5260 c-53 -16 -119 -51 -144 -75 -59 -57 -64 -145 -13 -220
78 -113 310 -147 534 -78 82 25 145 97 145 166 0 72 -45 138 -121 177 -95 50
-292 64 -401 30z m280 -277 c20 -8 22 -11 9 -21 -20 -17 -259 -12 -264 5 -3 7
10 17 29 22 37 12 190 7 226 -6z"/>
<path d="M10775 1753 c-46 -20 -95 -61 -95 -79 0 -7 -5 -14 -12 -16 -7 -3 -13
-37 -15 -94 -5 -103 8 -138 71 -189 36 -28 42 -30 129 -30 84 0 96 2 133 28
59 40 89 103 89 187 0 92 -31 147 -106 185 -46 25 -146 28 -194 8z m138 -159
c91 -21 68 -180 -28 -198 -45 -9 -102 9 -116 36 -16 30 -13 105 5 133 16 25
68 46 96 39 8 -1 27 -6 43 -10z"/>
<path d="M4595 6195 c-5 -2 -86 -9 -180 -15 -93 -6 -190 -15 -215 -20 -25 -5
-90 -16 -145 -25 -55 -9 -116 -20 -135 -25 -19 -5 -73 -18 -120 -30 -47 -12
-110 -28 -140 -36 -30 -9 -67 -18 -83 -21 -15 -3 -30 -9 -33 -14 -3 -5 -14 -9
-24 -9 -18 0 -91 -21 -135 -39 -11 -5 -81 -28 -155 -52 -74 -24 -139 -46 -145
-50 -5 -4 -26 -10 -45 -14 -19 -4 -41 -11 -50 -15 -13 -7 -41 -18 -125 -50
-69 -26 -116 -46 -163 -66 -29 -13 -56 -24 -60 -24 -5 0 -26 -8 -48 -19 -21
-10 -57 -26 -79 -36 -309 -136 -486 -255 -631 -425 -58 -69 -164 -258 -164
-293 0 -7 -4 -17 -9 -22 -5 -6 -15 -35 -21 -65 -6 -30 -16 -80 -23 -110 -14
-70 -14 -315 1 -400 24 -139 33 -186 42 -202 6 -10 10 -26 10 -36 0 -10 6 -38
14 -63 7 -24 19 -62 25 -84 6 -22 18 -67 27 -100 9 -33 20 -68 25 -77 5 -10 9
-24 9 -33 0 -8 6 -34 14 -57 7 -24 21 -70 30 -103 10 -33 21 -71 26 -85 4 -14
16 -52 25 -85 9 -33 20 -71 25 -85 5 -14 27 -86 50 -160 23 -74 45 -146 50
-160 41 -118 111 -352 106 -357 -6 -6 -15 -3 -236 87 -194 79 -198 80 -345 45
-38 -9 -88 -21 -110 -26 -22 -5 -69 -16 -105 -24 -36 -9 -83 -20 -105 -25 -22
-6 -69 -17 -105 -26 -36 -8 -81 -19 -100 -23 -19 -5 -68 -16 -109 -25 -143
-32 -186 -70 -186 -167 0 -50 5 -63 34 -100 33 -40 33 -43 16 -55 -10 -8 -24
-14 -31 -14 -7 0 -14 -3 -16 -7 -1 -5 -52 -33 -112 -63 -128 -64 -149 -80
-170 -122 -49 -97 17 -206 134 -221 78 -10 160 -26 172 -33 7 -4 0 -13 -18
-22 -16 -8 -56 -35 -89 -60 -33 -25 -94 -72 -136 -103 -97 -73 -109 -92 -109
-171 0 -59 2 -64 41 -104 l41 -42 -28 -33 c-16 -18 -48 -54 -70 -79 -23 -25
-69 -79 -103 -120 -60 -74 -61 -76 -61 -137 0 -52 4 -66 26 -92 50 -59 79 -66
233 -53 214 18 622 24 901 12 322 -13 683 -46 769 -70 20 -5 49 -10 65 -10 16
0 43 -4 60 -9 17 -5 67 -17 111 -26 84 -16 111 -23 210 -51 214 -60 419 -146
560 -235 62 -39 69 -41 127 -37 62 5 74 12 139 96 7 8 42 12 109 12 l99 0 42
40 c23 22 45 40 49 40 20 0 167 -195 256 -339 66 -108 96 -131 169 -131 60 0
83 14 155 95 106 120 211 225 225 225 8 0 19 -8 24 -19 18 -33 72 -51 152 -49
93 2 113 -4 138 -47 44 -75 147 -86 237 -26 27 18 103 59 169 91 306 149 729
249 1220 290 72 6 186 15 255 21 119 11 750 7 1075 -7 l130 -5 42 36 c30 26
43 45 48 74 13 79 1 104 -124 246 -14 17 -52 61 -84 98 l-59 67 24 20 c12 11
26 19 29 20 14 0 39 70 39 105 0 59 -27 101 -99 155 -74 55 -178 134 -201 153
-8 6 -31 19 -49 28 l-35 15 60 11 c32 6 88 17 124 23 78 14 124 40 145 82 25
52 16 137 -20 173 -17 18 -79 53 -207 120 -68 34 -123 69 -123 76 0 8 13 15
30 17 17 2 35 7 40 12 6 4 28 10 51 13 84 13 136 59 150 134 7 39 -10 93 -39
125 -24 26 -95 58 -127 58 -11 0 -28 4 -38 9 -15 8 -97 29 -257 66 -33 8 -109
27 -168 42 l-108 28 -3 185 c-1 102 -8 208 -15 235 -6 28 -19 82 -27 120 -9
39 -19 81 -24 95 -4 14 -16 52 -26 85 -10 33 -22 64 -26 70 -4 5 -8 15 -8 22
0 13 -75 173 -112 238 -102 180 -280 375 -469 516 -52 38 -99 74 -106 79 -7 6
-17 10 -24 10 -12 0 -4 80 10 110 5 8 14 61 21 116 20 158 4 320 -59 594 -31
137 -107 321 -176 430 -85 133 -166 222 -305 333 -53 43 -205 127 -229 127 -6
0 -11 3 -11 8 0 4 -28 16 -62 27 -35 10 -70 22 -78 26 -16 8 -105 31 -185 48
-82 18 -453 46 -480 36z m405 -94 c25 -7 68 -16 95 -22 72 -15 158 -41 170
-51 5 -4 15 -8 23 -8 23 0 153 -66 230 -117 139 -92 278 -254 357 -413 56
-114 106 -285 142 -485 22 -125 22 -349 -1 -435 -42 -155 -44 -183 -13 -220 6
-8 66 -53 131 -100 140 -100 276 -225 358 -330 32 -41 61 -79 66 -85 21 -27
74 -117 100 -170 68 -137 88 -191 141 -395 24 -90 58 -378 48 -404 -6 -14 -14
-17 -35 -12 -100 23 -136 20 -253 -23 -63 -24 -123 -46 -134 -51 -11 -5 -69
-29 -130 -53 -60 -25 -139 -58 -175 -75 -36 -16 -87 -39 -115 -52 -60 -26
-325 -159 -375 -187 -19 -11 -62 -35 -95 -53 -32 -18 -83 -48 -112 -66 -28
-19 -54 -34 -57 -34 -6 0 -238 -154 -336 -224 -293 -208 -569 -471 -758 -721
l-44 -58 -96 95 c-114 112 -108 106 -287 262 -211 183 -477 392 -645 507 -36
24 -66 47 -68 52 -2 4 -8 7 -13 7 -5 0 -40 21 -77 47 -38 27 -77 53 -88 60
-197 124 -245 153 -250 153 -3 0 -18 8 -32 19 -25 17 -81 48 -262 146 l-75 40
-47 140 c-63 190 -137 419 -154 480 -8 28 -19 64 -24 80 -5 17 -15 53 -23 80
-9 28 -27 88 -42 135 -15 47 -30 99 -35 115 -10 40 -35 127 -55 195 -26 89
-33 112 -50 175 -9 33 -20 76 -26 95 -61 208 -84 374 -75 535 4 61 11 124 16
140 5 17 16 56 25 88 53 184 210 384 394 502 73 46 307 166 353 180 13 4 56
23 96 41 41 19 79 34 86 34 6 0 16 4 22 8 5 5 50 23 99 41 50 18 99 37 110 41
24 10 140 51 210 75 28 9 59 21 70 25 11 4 67 22 125 40 58 18 125 39 150 47
25 9 70 22 100 30 30 7 71 18 90 24 34 10 111 30 195 50 83 20 278 51 430 69
96 11 570 4 625 -9z m-3221 -3408 c55 -24 72 -31 126 -52 28 -10 80 -33 118
-50 37 -17 69 -31 72 -31 16 0 454 -225 505 -260 14 -9 32 -20 40 -23 8 -4 22
-11 30 -16 8 -6 89 -56 180 -113 441 -274 869 -609 1263 -988 60 -58 112 -106
116 -108 4 -1 36 35 71 80 188 245 407 459 688 672 86 66 396 272 432 288 17
7 30 16 30 20 0 5 5 8 10 8 6 0 27 11 48 23 79 50 389 211 527 274 168 76 208
93 355 151 254 99 299 114 328 109 15 -2 106 -25 202 -49 96 -25 186 -48 200
-51 76 -16 420 -106 430 -112 16 -10 2 -25 -25 -25 -13 0 -44 -6 -67 -14 -24
-7 -70 -21 -103 -30 -69 -19 -360 -113 -390 -125 -11 -5 -36 -15 -55 -21 -19
-7 -48 -19 -65 -25 -16 -7 -66 -27 -110 -45 -44 -17 -102 -42 -130 -54 -27
-13 -75 -34 -105 -47 -119 -52 -355 -175 -538 -280 -47 -27 -86 -49 -88 -49
-18 0 -526 -342 -634 -427 -8 -6 -58 -45 -110 -85 -107 -83 -98 -76 -240 -195
-207 -173 -413 -370 -628 -600 -52 -57 -98 -103 -102 -103 -3 0 -19 24 -34 52
-33 62 -158 237 -230 323 -84 100 -254 271 -377 379 -144 126 -151 132 -224
186 -33 25 -62 47 -65 50 -12 13 -194 142 -300 211 -113 75 -311 195 -420 256
-30 17 -80 45 -110 62 -70 40 -528 269 -600 300 -30 14 -89 40 -130 59 -103
46 -123 55 -215 92 -44 17 -93 37 -110 45 -16 7 -104 41 -195 75 -91 34 -174
66 -185 70 -11 5 -28 11 -37 14 -28 9 -21 24 15 31 38 8 140 32 342 80 83 19
182 43 220 52 39 9 93 22 120 29 55 15 98 11 154 -13z m-714 -468 c50 -8 106
-18 125 -22 19 -3 40 -9 45 -13 6 -4 32 -11 59 -15 27 -3 58 -10 70 -15 11 -4
48 -16 81 -25 61 -17 104 -31 140 -45 11 -4 43 -16 70 -25 28 -9 64 -23 82
-31 17 -8 35 -14 40 -14 5 0 33 -11 61 -25 29 -14 55 -25 58 -25 16 0 326
-157 445 -226 184 -105 462 -291 564 -377 11 -9 49 -40 85 -68 162 -129 407
-356 490 -454 32 -38 13 -23 -101 75 -48 41 -115 97 -150 125 -35 27 -68 54
-74 58 -77 62 -347 235 -485 310 -243 133 -446 225 -780 353 -54 20 -228 79
-295 98 -33 10 -69 22 -80 26 -11 5 -31 11 -45 14 -14 4 -50 13 -80 22 -56 16
-137 38 -200 54 -122 32 -361 81 -480 100 -117 17 -116 20 21 89 68 35 129 67
134 73 12 11 75 6 200 -17z m6352 -126 c21 -12 82 -44 136 -71 55 -28 96 -55
94 -61 -2 -7 -26 -15 -53 -19 -51 -7 -106 -17 -234 -44 -196 -40 -304 -66
-455 -109 -27 -7 -77 -22 -110 -31 -81 -23 -363 -117 -450 -149 -38 -15 -83
-32 -100 -38 -16 -6 -41 -16 -55 -24 -14 -7 -28 -13 -32 -13 -4 0 -33 -12 -65
-26 -32 -14 -67 -29 -78 -34 -53 -23 -357 -173 -405 -200 -176 -100 -224 -129
-305 -184 -178 -119 -402 -295 -494 -386 -17 -18 -31 -28 -31 -23 0 10 241
250 330 329 30 27 57 51 60 54 4 4 124 101 170 137 8 7 51 39 95 72 44 33 85
64 90 68 79 61 369 243 510 319 126 68 365 184 380 184 3 0 29 11 59 25 30 14
61 25 68 25 8 0 18 4 24 8 5 5 70 28 144 52 74 23 142 45 150 48 15 5 86 23
165 42 82 19 192 41 247 48 32 5 61 11 64 15 13 13 43 7 81 -14z m-6262 -349
c555 -39 1172 -246 1690 -568 82 -51 266 -174 290 -194 6 -5 44 -34 85 -65 70
-52 168 -132 198 -160 23 -22 -6 -15 -56 13 -156 88 -305 164 -321 164 -6 0
-11 5 -11 10 0 6 -5 10 -11 10 -5 0 -47 17 -92 39 -182 86 -236 111 -242 111
-3 0 -31 11 -61 25 -30 14 -57 25 -60 25 -3 0 -21 7 -40 15 -78 34 -101 44
-144 58 -25 8 -58 21 -75 27 -59 24 -71 29 -145 53 -214 71 -332 105 -555 158
-275 65 -619 104 -862 97 -95 -2 -170 -1 -167 3 9 15 214 170 237 179 30 12
171 12 342 0z m6425 -222 c66 -50 120 -94 120 -97 0 -3 -114 -6 -253 -7 -284
-1 -400 -13 -672 -69 -117 -24 -296 -65 -325 -75 -14 -5 -52 -16 -85 -26 -162
-46 -541 -178 -587 -204 -10 -6 -22 -10 -28 -10 -6 0 -33 -11 -62 -25 -28 -14
-55 -25 -59 -25 -13 0 -189 -81 -384 -177 -124 -61 -235 -118 -337 -176 -56
-31 -61 -24 -15 20 77 73 432 331 536 389 18 10 41 24 50 29 163 102 424 228
641 310 181 68 253 91 435 136 180 44 278 63 425 79 58 6 112 13 120 15 8 1
93 3 188 4 l173 1 119 -92z m-6375 -267 c281 -21 558 -59 760 -106 39 -9 84
-18 100 -21 17 -3 41 -9 55 -14 14 -4 54 -16 90 -25 77 -21 188 -56 285 -92
63 -22 88 -32 160 -63 226 -96 503 -266 595 -365 20 -21 -3 -13 -110 43 -74
38 -180 86 -235 107 -55 20 -107 40 -115 44 -9 5 -35 12 -58 16 -23 4 -44 11
-48 16 -3 5 -18 9 -33 9 -15 0 -31 4 -37 9 -5 5 -34 14 -64 19 -30 6 -75 16
-100 22 -43 11 -156 32 -270 51 -30 5 -100 14 -155 20 -55 5 -122 14 -150 19
-185 34 -1047 48 -1349 22 -77 -6 -141 -10 -143 -8 -2 2 36 48 84 102 48 55
110 126 137 158 l50 59 210 -7 c116 -3 270 -10 341 -15z m6447 -78 c18 -20 51
-58 73 -83 95 -106 155 -179 155 -186 0 -4 -66 -3 -147 2 -179 11 -901 12
-1068 1 -66 -4 -149 -12 -185 -17 -36 -5 -114 -14 -175 -21 -214 -21 -477 -70
-645 -118 -19 -5 -55 -15 -80 -21 -25 -7 -54 -15 -65 -20 -11 -4 -42 -15 -70
-25 -27 -9 -59 -20 -70 -25 -11 -4 -45 -18 -75 -30 -69 -28 -148 -67 -222
-108 -67 -38 -78 -40 -52 -10 25 28 200 158 213 158 5 0 11 4 13 9 8 21 404
221 438 221 5 0 18 4 28 9 39 21 91 41 105 41 9 0 19 5 22 10 3 6 17 10 30 10
13 0 26 4 29 9 4 5 25 12 48 16 23 4 49 11 58 15 24 12 81 28 125 36 22 3 45
10 50 14 6 4 26 10 45 13 19 3 71 13 115 22 362 74 692 107 1157 113 l118 2
32 -37z"/>
<path d="M4015 4870 c-75 -16 -120 -28 -155 -40 -36 -12 -47 -16 -115 -45
-168 -70 -304 -180 -361 -293 -26 -51 -29 -67 -29 -158 0 -92 3 -106 30 -160
35 -71 125 -162 189 -192 61 -29 171 -52 250 -52 77 0 249 31 336 60 217 73
362 183 427 326 23 51 27 72 27 159 0 95 -2 104 -37 176 -45 93 -102 154 -182
194 -57 27 -67 29 -200 31 -77 2 -158 -1 -180 -6z m264 -221 c87 -28 132 -68
168 -147 55 -125 12 -251 -117 -341 -141 -99 -314 -152 -500 -154 -166 -1
-258 43 -306 147 -60 129 -5 255 154 347 134 80 228 116 356 139 27 5 51 12
54 15 10 10 155 5 191 -6z"/>
<path d="M4635 3204 c-178 -13 -395 -94 -546 -205 -117 -86 -176 -177 -204
-314 -29 -137 5 -247 108 -352 86 -89 206 -133 358 -133 214 0 460 78 626 199
65 47 144 138 165 191 6 14 16 36 22 49 6 14 11 76 11 146 0 114 -2 125 -29
179 -33 66 -102 145 -150 176 -80 49 -219 73 -361 64z m176 -234 c76 -14 112
-34 157 -85 56 -64 78 -147 61 -229 -34 -165 -155 -263 -440 -355 -53 -17
-231 -31 -302 -25 -107 11 -188 61 -236 147 -27 48 -29 167 -4 218 32 67 75
120 128 159 175 130 454 204 636 170z"/>
</g>
</svg>
