<?xml version="1.0" standalone="no"?>
<!DOCTYPE svg PUBLIC "-//W3C//DTD SVG 20010904//EN"
 "http://www.w3.org/TR/2001/REC-SVG-20010904/DTD/svg10.dtd">
<svg version="1.0" xmlns="http://www.w3.org/2000/svg"
 width="1080.000000pt" height="2340.000000pt" viewBox="0 0 1080.000000 2340.000000"
 preserveAspectRatio="xMidYMid meet">

<g transform="translate(0.000000,2340.000000) scale(0.100000,-0.100000)"
fill="#000000" stroke="none">
<path d="M1755 23039 c-58 -14 -67 -18 -61 -28 3 -5 22 -3 43 5 21 7 78 13
128 13 50 0 107 -6 128 -13 20 -8 39 -10 42 -6 16 26 -200 49 -280 29z"/>
<path d="M7343 23027 c-4 -7 -20 -18 -35 -24 l-28 -13 0 -110 c0 -61 5 -120
10 -131 9 -17 22 -19 100 -19 79 0 91 2 100 20 11 21 12 220 1 237 -3 6 -16
13 -28 17 -13 4 -23 14 -23 22 0 18 -85 20 -97 1z m117 -126 c0 -71 -15 -84
-107 -94 -50 -6 -56 5 -14 23 31 12 71 50 54 50 -5 0 -18 -7 -29 -15 -26 -20
-34 -19 -34 5 0 35 35 60 85 60 43 0 45 -1 45 -29z"/>
<path d="M7698 23006 c-16 -12 -28 -27 -28 -34 0 -20 25 -14 50 13 32 34 14
51 -22 21z"/>
<path d="M7895 23019 c-8 -12 33 -59 52 -59 20 0 15 24 -10 48 -26 25 -33 27
-42 11z"/>
<path d="M606 22994 c-32 -17 -45 -29 -38 -36 6 -6 20 -4 40 6 17 9 33 12 36
8 2 -4 4 -58 3 -120 -2 -84 1 -112 11 -112 9 0 12 35 12 140 0 77 -3 140 -7
140 -5 -1 -30 -12 -57 -26z"/>
<path d="M777 22990 c-47 -55 -47 -165 0 -220 53 -64 142 -25 158 70 17 98
-27 180 -95 180 -30 0 -44 -6 -63 -30z m87 0 c60 -23 60 -197 0 -220 -54 -21
-94 26 -94 110 0 68 20 103 67 119 1 1 13 -3 27 -9z"/>
<path d="M1160 22931 c-88 -120 -88 -121 -1 -121 l71 0 0 -35 c0 -24 5 -35 15
-35 10 0 15 11 15 35 0 24 5 35 15 35 8 0 15 5 15 10 0 6 -7 13 -15 16 -12 5
-15 25 -15 95 0 117 -13 117 -100 0z m58 -92 c-18 -12 -88 -11 -88 1 0 5 21
38 48 71 l47 61 3 -62 c2 -44 -1 -66 -10 -71z"/>
<path d="M1400 22931 c-88 -120 -88 -121 -1 -121 l71 0 0 -35 c0 -24 5 -35 15
-35 10 0 15 11 15 35 0 24 5 35 15 35 8 0 15 5 15 10 0 6 -7 13 -15 16 -12 5
-15 25 -15 95 0 117 -13 117 -100 0z m58 -92 c-18 -12 -88 -11 -88 1 0 5 21
38 48 71 l47 61 3 -62 c2 -44 -1 -66 -10 -71z"/>
<path d="M1765 23009 c-50 -12 -60 -22 -40 -39 12 -10 19 -10 27 -2 13 13 68
17 68 5 0 -4 10 -63 22 -132 24 -139 21 -142 53 42 17 94 18 97 44 97 15 0 32
-5 39 -12 9 -9 16 -8 29 5 15 15 15 17 -8 25 -13 5 -41 12 -61 16 -31 6 -39 3
-50 -14 -16 -25 -30 -25 -46 0 -13 22 -18 22 -77 9z"/>
<path d="M9285 22995 c-30 -30 -31 -54 -4 -89 17 -22 18 -27 6 -32 -25 -9 -39
-56 -28 -87 25 -66 168 -60 185 8 7 27 -8 65 -31 78 -11 7 -10 13 7 34 26 34
25 59 -5 88 -18 19 -35 25 -65 25 -30 0 -47 -6 -65 -25z m103 -11 c25 -18 29
-56 7 -74 -19 -16 -71 -15 -91 1 -32 27 -1 89 46 89 9 0 26 -7 38 -16z m17
-134 c15 -16 17 -26 9 -47 -19 -55 -116 -52 -130 3 -14 55 81 89 121 44z"/>
<path d="M9526 22994 c-32 -17 -45 -29 -38 -36 6 -6 20 -5 40 6 28 14 31 14
37 -1 3 -10 5 -62 4 -117 -1 -67 2 -101 10 -104 8 -3 11 37 11 137 0 78 -3
141 -7 141 -5 -1 -30 -12 -57 -26z"/>
<path d="M9670 23000 c-43 -43 -13 -130 45 -130 55 0 85 77 49 128 -19 28 -67
29 -94 2z m69 -9 c19 -12 18 -68 -1 -88 -36 -35 -78 19 -57 74 9 24 33 29 58
14z"/>
<path d="M9818 22908 c-41 -62 -82 -125 -92 -140 -15 -23 -16 -28 -4 -28 8 0
49 51 90 113 120 181 112 167 95 167 -8 0 -48 -50 -89 -112z"/>
<path d="M7760 22988 c-57 -31 -85 -113 -59 -172 9 -20 9 -29 -1 -41 -18 -22
2 -44 24 -26 11 9 25 9 58 1 36 -9 52 -9 81 3 31 14 37 14 48 1 8 -10 15 -12
22 -5 7 7 6 15 -3 26 -10 12 -10 21 -1 41 36 80 -14 172 -99 180 -26 3 -55 -1
-70 -8z m70 -62 c0 -28 4 -35 22 -38 12 -2 23 -9 26 -15 5 -17 -22 -27 -53
-19 -22 6 -25 11 -25 56 0 38 4 50 15 50 10 0 15 -10 15 -34z"/>
<path d="M1004 22969 c-10 -17 13 -36 27 -22 12 12 4 33 -11 33 -5 0 -12 -5
-16 -11z"/>
<path d="M8987 22973 c-12 -11 -8 -221 4 -229 20 -12 29 20 29 113 0 110 -9
141 -33 116z"/>
<path d="M10052 22848 l3 -103 100 0 100 0 3 103 3 102 -106 0 -106 0 3 -102z"/>
<path d="M8215 22932 c-9 -6 -55 -96 -55 -107 0 -3 25 -5 55 -5 42 0 55 -4 55
-15 0 -23 -39 -38 -87 -32 -34 3 -46 1 -50 -10 -8 -21 15 -33 64 -33 55 0 91
17 109 52 23 45 -3 78 -62 78 -13 0 -24 4 -24 8 0 19 27 32 65 32 38 0 65 13
65 32 0 10 -121 10 -135 0z"/>
<path d="M8441 22930 c-54 -13 -93 -59 -99 -118 -4 -43 -1 -51 19 -66 26 -18
65 -21 103 -7 22 9 66 84 66 112 0 15 -77 10 -90 -6 -13 -15 -11 -16 28 -27
25 -6 -17 -49 -45 -46 -80 10 -27 128 57 128 26 0 60 17 60 30 0 12 -50 11
-99 0z"/>
<path d="M8926 22908 c-3 -7 -4 -47 -3 -88 2 -59 5 -75 17 -75 12 0 15 16 15
84 0 59 -4 86 -12 88 -7 3 -15 -1 -17 -9z"/>
<path d="M9866 22868 c-22 -31 -20 -84 4 -108 43 -43 110 -10 110 53 0 48 -24
77 -65 77 -24 0 -39 -7 -49 -22z m80 -22 c13 -22 14 -29 2 -53 -25 -52 -72
-37 -72 22 0 56 41 74 70 31z"/>
<path d="M8873 22847 c-13 -16 -15 -79 -4 -96 16 -24 31 -1 31 49 0 50 -11 69
-27 47z"/>
<path d="M8602 22825 c-8 -17 -20 -25 -36 -25 -13 0 -26 -7 -30 -15 -4 -11 2
-15 20 -15 22 0 23 -2 14 -20 -9 -17 -8 -20 9 -20 11 0 22 9 26 20 4 14 15 20
35 20 15 0 30 7 34 15 4 10 -1 15 -15 15 -18 0 -20 4 -15 25 5 20 3 25 -12 25
-10 0 -24 -11 -30 -25z"/>
<path d="M1004 22809 c-10 -17 13 -36 27 -22 12 12 4 33 -11 33 -5 0 -12 -5
-16 -11z"/>
<path d="M8810 22769 c0 -38 24 -35 28 4 2 19 -1 27 -12 27 -11 0 -16 -10 -16
-31z"/>
<path d="M847 21464 c-103 -98 -118 -116 -112 -136 4 -13 58 -71 119 -129 85
-82 114 -104 124 -96 10 8 -11 35 -97 121 l-111 111 105 105 c98 98 116 122
98 133 -5 3 -61 -46 -126 -109z"/>
<path d="M6803 21559 c-76 -37 -133 -121 -133 -194 0 -49 27 -47 36 3 8 42 29
88 53 116 64 72 243 80 247 11 3 -36 22 -55 55 -55 36 0 59 24 59 60 0 34 -38
65 -68 56 -10 -4 -35 0 -55 9 -53 22 -143 19 -194 -6z m277 -59 c0 -21 -24
-28 -35 -10 -8 14 3 30 21 30 8 0 14 -9 14 -20z"/>
<path d="M8816 21561 c-3 -4 1 -16 8 -27 12 -16 10 -25 -14 -69 -16 -27 -31
-65 -35 -82 -11 -54 12 -136 51 -181 39 -46 99 -86 114 -77 19 12 10 33 -20
45 -42 17 -87 72 -100 122 -23 84 9 169 83 217 20 14 37 33 37 43 0 15 -8 18
-59 18 -33 0 -62 -4 -65 -9z"/>
<path d="M9063 21553 c-4 -9 -2 -18 5 -21 28 -9 78 -50 99 -80 60 -90 26 -229
-68 -278 -17 -8 -29 -23 -29 -34 0 -18 7 -20 58 -20 32 0 61 3 65 6 3 4 -1 17
-10 30 -14 22 -14 26 -1 42 55 62 69 174 31 247 -41 77 -136 146 -150 108z"/>
<path d="M7834 21517 c-69 -33 -119 -79 -139 -129 -15 -39 -15 -45 0 -84 18
-47 63 -92 128 -126 35 -19 58 -23 132 -23 74 0 97 4 132 23 65 34 110 79 128
126 15 39 15 45 0 84 -35 86 -131 144 -250 149 -69 4 -87 1 -131 -20z m232
-38 c53 -25 112 -82 120 -116 16 -61 -78 -150 -180 -173 -97 -21 -233 36 -269
113 -22 45 -21 53 3 92 61 99 213 138 326 84z"/>
<path d="M7923 21438 c-40 -10 -65 -46 -65 -92 0 -64 34 -98 98 -98 46 0 82
25 92 65 10 35 0 83 -21 104 -21 21 -69 31 -104 21z m61 -80 c8 -14 7 -21 -6
-34 -30 -30 -75 9 -48 42 16 18 39 15 54 -8z"/>
<path d="M9930 21525 c-26 -31 13 -82 44 -56 19 16 21 42 4 59 -16 16 -33 15
-48 -3z"/>
<path d="M8947 21401 c-32 -33 -57 -68 -57 -78 0 -25 70 -93 96 -93 26 0 134
110 134 136 0 26 -70 94 -96 94 -12 0 -44 -24 -77 -59z m113 -6 l23 -25 -39
-44 c-52 -58 -63 -62 -93 -31 l-25 25 49 50 c27 27 52 50 55 50 4 0 17 -11 30
-25z"/>
<path d="M6840 21431 c-5 -11 -10 -50 -10 -86 0 -72 12 -105 37 -105 9 0 45
19 80 41 85 56 85 75 1 129 -68 45 -92 49 -108 21z m86 -51 c24 -17 44 -33 44
-35 0 -5 -87 -65 -94 -65 -3 0 -6 29 -6 65 0 36 3 65 6 65 3 0 25 -14 50 -30z"/>
<path d="M9924 21356 c-12 -31 0 -51 31 -51 27 0 30 3 30 30 0 25 -4 30 -28
33 -17 2 -29 -2 -33 -12z"/>
<path d="M7104 21320 c-16 -97 -100 -172 -194 -173 -67 -1 -105 17 -107 50 -4
75 -113 68 -113 -7 0 -34 38 -65 68 -56 10 4 36 -1 58 -10 61 -25 164 -15 217
23 61 42 99 102 105 162 4 42 2 51 -12 51 -11 0 -18 -12 -22 -40z m-339 -130
c0 -8 -8 -16 -17 -18 -13 -2 -18 3 -18 18 0 15 5 20 18 18 9 -2 17 -10 17 -18z"/>
<path d="M9930 21195 c-26 -31 13 -82 44 -56 19 16 21 42 4 59 -16 16 -33 15
-48 -3z"/>
<path d="M4960 14401 c-169 -46 -292 -140 -396 -302 -44 -67 -112 -218 -128
-281 -5 -23 -10 -27 -34 -23 -271 47 -400 84 -559 160 -129 63 -280 167 -405
279 -107 97 -141 115 -191 102 -33 -8 -74 -51 -80 -83 -12 -63 43 -363 93
-509 24 -70 25 -64 -2 -64 -40 0 -86 -36 -97 -74 -23 -87 50 -265 152 -370 55
-56 57 -61 47 -89 -7 -21 -7 -42 0 -68 20 -75 165 -172 309 -207 68 -17 69
-18 75 -54 7 -45 76 -109 137 -127 24 -7 101 -17 173 -22 188 -12 176 18 127
-330 -91 -641 -98 -739 -61 -883 64 -251 262 -396 540 -396 287 0 467 151 546
455 46 181 77 270 85 247 14 -37 58 -247 84 -397 32 -187 67 -269 152 -353
106 -105 214 -145 398 -146 151 0 217 19 312 91 81 61 129 122 205 263 74 136
199 333 219 346 14 8 5 -87 -22 -243 -23 -134 -24 -206 -4 -291 29 -123 82
-198 189 -270 135 -91 361 -121 531 -72 78 23 175 82 221 134 54 62 123 193
158 301 28 86 83 381 167 890 29 176 53 321 53 321 1 1 43 -9 95 -22 128 -33
245 -34 299 -4 22 13 49 40 62 62 18 32 26 39 44 34 11 -3 32 -6 45 -6 19 0
11 -8 -39 -41 -173 -112 -292 -275 -352 -486 -19 -66 -23 -102 -22 -233 0
-141 2 -162 27 -235 84 -252 290 -433 583 -512 92 -25 113 -27 304 -26 223 0
277 8 435 62 157 55 266 133 320 233 26 46 30 63 30 128 0 83 -14 117 -65 169
l-31 30 40 25 c72 46 124 136 136 236 8 73 -30 224 -87 339 -34 69 -60 103
-128 172 -72 72 -101 93 -190 137 -58 29 -150 64 -205 79 -88 23 -119 27 -257
27 -143 1 -155 2 -147 18 5 9 9 32 9 51 0 32 4 36 48 52 65 25 146 79 186 127
40 47 91 140 101 185 8 40 -19 101 -52 116 -12 5 -23 14 -23 18 0 4 25 45 56
91 31 46 89 151 130 233 88 178 92 209 40 261 -49 49 -91 47 -206 -11 -273
-137 -546 -196 -844 -181 -78 4 -159 10 -181 14 l-39 7 -23 85 c-61 235 -207
389 -433 458 -176 54 -418 73 -540 43 -98 -24 -211 -85 -286 -155 -97 -89
-154 -176 -272 -416 -103 -210 -203 -384 -281 -491 -51 -69 -54 -69 -95 31
-42 104 -82 255 -126 483 -72 378 -90 435 -179 565 -91 135 -270 253 -456 302
-114 31 -334 36 -425 11z m313 -46 c277 -48 466 -191 551 -416 25 -66 30 -91
81 -364 69 -368 149 -602 230 -673 43 -38 52 -39 96 -9 85 57 205 245 386 602
127 252 175 328 255 400 62 56 167 109 247 126 75 15 260 6 381 -20 238 -51
389 -186 444 -397 9 -34 16 -78 16 -97 0 -20 6 -42 14 -50 33 -33 328 -58 531
-45 222 14 442 72 644 168 57 28 106 48 109 45 10 -9 -109 -240 -173 -335 -35
-52 -91 -126 -124 -165 -34 -38 -61 -73 -61 -76 0 -3 41 -12 90 -18 55 -8 90
-17 90 -24 0 -22 -58 -112 -92 -144 -59 -56 -135 -86 -350 -137 -16 -3 -28
-11 -28 -16 0 -13 100 -70 123 -70 15 0 15 -3 5 -20 -32 -51 -112 -60 -325
-39 -62 7 -116 10 -118 7 -3 -3 2 -21 10 -41 19 -45 19 -52 -1 -71 -31 -32
-136 -20 -331 36 -37 10 -47 9 -82 -8 -35 -17 -40 -24 -46 -64 -49 -348 -191
-1139 -221 -1228 -60 -179 -137 -285 -250 -343 -62 -31 -76 -34 -175 -37 -130
-5 -211 16 -307 77 -139 90 -180 215 -142 436 25 146 35 276 26 338 -9 56 -47
107 -82 107 -65 0 -198 -175 -360 -474 -125 -232 -226 -295 -448 -283 -133 7
-200 32 -266 99 -77 78 -106 148 -135 323 -64 375 -129 575 -188 575 -28 0
-67 -40 -95 -95 -26 -52 -77 -215 -103 -323 -39 -169 -112 -278 -223 -332 -86
-43 -189 -57 -298 -41 -241 34 -367 193 -368 464 0 68 68 598 119 929 18 116
18 118 -2 124 -10 3 -36 21 -56 40 l-38 33 -152 11 c-104 7 -162 15 -184 26
-57 29 -60 49 -17 98 17 19 27 37 23 39 -4 3 -37 8 -73 12 -146 16 -251 55
-330 122 -29 24 -31 28 -14 34 11 4 34 8 52 8 29 1 119 38 110 45 -1 2 -32 16
-68 32 -172 75 -279 193 -306 338 l-7 38 39 -5 c120 -18 157 -19 151 -5 -90
206 -128 326 -158 496 -30 179 -32 176 59 95 253 -228 486 -353 788 -427 130
-31 352 -62 363 -50 4 5 23 56 41 114 123 398 366 567 723 505z m3808 -1905
c190 -18 379 -99 490 -210 102 -101 179 -276 179 -405 0 -104 -78 -191 -193
-214 -74 -15 -300 -31 -443 -31 -183 0 -289 -27 -328 -82 -36 -51 -5 -127 63
-161 40 -19 62 -22 161 -22 134 0 195 17 355 96 56 27 117 52 136 55 77 13
158 -35 175 -103 19 -73 -60 -177 -184 -241 -241 -126 -658 -136 -908 -22
-145 65 -266 178 -328 304 -140 286 -44 673 218 875 98 76 283 145 431 161 39
4 72 8 75 8 3 1 48 -3 101 -8z m108 -1040 c-39 -23 -155 -42 -216 -35 -73 8
-89 21 -36 30 21 4 45 8 53 10 8 1 60 3 115 4 68 0 95 -3 84 -9z"/>
<path d="M3420 14014 c0 -3 7 -34 16 -68 38 -146 144 -289 257 -344 36 -18 70
-32 77 -32 6 0 10 -6 8 -12 -8 -24 -83 -36 -221 -37 -159 -1 -170 -7 -120 -69
62 -78 244 -140 371 -128 43 5 62 3 62 -5 0 -27 -40 -74 -97 -115 -35 -25 -63
-49 -63 -54 0 -4 31 -14 70 -21 55 -10 100 -10 216 0 99 8 150 9 157 2 7 -7
-6 -29 -40 -68 -51 -58 -89 -121 -80 -130 17 -17 103 -13 215 8 141 27 134 20
152 136 l12 71 45 -31 c38 -27 54 -32 103 -32 48 0 63 4 84 24 31 30 51 89 42
125 -13 54 -72 82 -121 58 l-29 -15 37 -31 c43 -36 47 -59 13 -81 -21 -14 -28
-14 -59 -2 -124 52 -61 207 85 207 57 0 139 -39 171 -81 101 -134 23 -340
-162 -432 -54 -26 -78 -32 -155 -35 l-91 -4 58 54 c31 29 57 58 57 64 0 21
-25 34 -65 34 l-41 0 -17 -106 c-9 -58 -15 -110 -12 -114 13 -21 119 -32 190
-21 104 17 181 59 258 140 128 136 164 268 106 391 -37 77 -90 134 -154 166
-50 24 -63 26 -138 22 -51 -3 -95 -11 -115 -22 -19 -10 -36 -15 -39 -12 -3 3
3 53 13 113 l19 108 70 -3 c220 -9 371 -96 454 -263 94 -188 71 -349 -85 -585
-34 -52 -59 -94 -56 -94 17 0 108 69 143 109 149 169 172 435 53 632 -36 59
-127 151 -185 187 -58 35 -160 70 -255 86 -123 22 -120 22 -128 -24 -7 -47 0
-46 -158 -25 -305 40 -579 140 -814 296 -84 55 -114 72 -114 63z m506 -438
c81 -27 258 -70 363 -86 l73 -12 -6 -39 c-3 -21 -17 -55 -31 -75 -28 -42 -55
-123 -55 -168 0 -16 5 -55 12 -86 8 -42 8 -63 0 -85 -12 -30 -12 -30 -7 8 8
52 -24 121 -66 142 -26 14 -53 16 -136 13 l-104 -4 8 31 c16 63 9 104 -25 137
-27 28 -38 32 -81 31 l-51 -1 24 19 c49 39 60 136 20 180 -21 24 -22 24 62 -5z
m505 -316 l-18 -105 -18 40 c-15 34 -16 47 -6 92 13 54 54 120 58 93 2 -8 -5
-62 -16 -120z"/>
<path d="M7533 13466 c-191 -48 -349 -205 -397 -392 -20 -76 -20 -201 -2 -270
18 -70 70 -164 111 -204 l34 -33 -30 93 c-43 133 -61 267 -48 350 29 189 187
356 369 390 56 11 221 1 330 -20 73 -14 72 -14 68 27 -3 37 -4 38 -58 51 -82
19 -313 25 -377 8z"/>
<path d="M8877 13380 c-297 -77 -530 -89 -779 -40 -65 13 -120 22 -122 19 -2
-2 -16 -101 -30 -219 -15 -118 -36 -271 -47 -339 -11 -69 -16 -128 -12 -132
30 -27 200 -110 231 -112 51 -3 52 20 7 113 -61 128 -61 128 123 64 86 -29
186 -57 221 -60 l63 -7 -47 64 c-59 81 -76 114 -69 133 8 20 16 20 94 -5 76
-25 201 -29 275 -11 49 13 125 57 132 77 2 6 -62 32 -141 58 -123 41 -206 80
-194 93 2 1 35 9 74 18 105 21 169 58 254 145 66 67 145 183 123 180 -4 0 -75
-18 -156 -39z m-702 -225 c50 -8 153 -15 230 -15 130 -1 138 -2 113 -16 -59
-32 -76 -121 -33 -172 l24 -29 -43 10 c-85 19 -149 -23 -161 -106 -4 -26 -9
-47 -10 -47 -2 0 -41 14 -87 31 -60 22 -96 30 -131 27 -27 -2 -47 1 -47 7 0
32 44 325 49 325 3 0 47 -7 96 -15z m492 -1 c-3 -3 -12 -4 -19 -1 -8 3 -5 6 6
6 11 1 17 -2 13 -5z m-49 -11 c-10 -2 -28 -2 -40 0 -13 2 -5 4 17 4 22 1 32
-1 23 -4z"/>
<path d="M7600 13239 c-103 -15 -191 -81 -236 -178 -64 -134 -13 -330 121
-464 78 -78 149 -110 258 -115 56 -3 92 -1 99 6 6 6 17 49 24 94 14 96 15 94
-69 123 -94 32 -109 6 -52 -84 19 -30 32 -57 30 -62 -5 -7 -84 20 -139 48 -55
28 -94 63 -129 116 -62 91 -82 202 -52 286 33 95 95 140 200 148 95 7 156 -36
175 -122 8 -34 6 -41 -19 -66 -37 -36 -104 -57 -126 -39 -10 8 -15 25 -13 44
3 28 8 32 46 40 23 6 42 15 42 20 -1 25 -20 38 -61 43 -55 6 -86 -16 -99 -71
-21 -95 49 -163 159 -152 64 6 97 27 128 82 57 99 2 232 -116 281 -49 21 -119
30 -171 22z"/>
<path d="M8843 12064 c-62 -23 -103 -65 -103 -106 0 -46 30 -91 76 -114 51
-25 219 -25 276 -1 103 46 104 158 3 207 -61 29 -191 37 -252 14z m159 -160
c21 -4 35 -10 32 -15 -7 -12 -164 -11 -164 0 0 18 67 25 132 15z"/>
<path d="M2735 12630 c-141 -11 -279 -35 -430 -75 -257 -67 -606 -193 -821
-296 -381 -182 -515 -478 -405 -899 39 -151 147 -517 211 -714 28 -87 50 -161
48 -165 -2 -5 -57 14 -123 40 -66 27 -130 49 -142 49 -13 0 -139 -27 -280 -61
-186 -43 -264 -66 -279 -80 -38 -36 -38 -94 1 -133 10 -9 16 -18 14 -20 -2 -2
-48 -27 -102 -55 -68 -37 -101 -61 -108 -78 -28 -74 13 -127 107 -138 53 -6
110 -24 77 -25 -13 0 -132 -87 -181 -133 -41 -39 -44 -91 -8 -134 l24 -28 -79
-93 c-66 -78 -79 -99 -79 -128 0 -42 45 -94 82 -94 13 0 115 5 228 10 320 15
694 -8 963 -60 197 -38 381 -103 499 -175 74 -46 110 -46 154 0 30 32 37 35
92 35 51 0 63 4 87 27 23 24 28 26 38 12 7 -8 33 -42 58 -74 25 -33 61 -85 79
-115 42 -70 66 -89 110 -90 31 0 44 10 131 102 l96 102 23 -22 c27 -25 25 -24
97 -27 44 -2 57 -7 82 -34 35 -37 87 -42 129 -12 48 34 206 109 287 136 147
50 346 94 560 124 261 36 509 50 685 38 132 -9 147 -7 189 29 50 42 38 108
-43 222 -33 48 -34 52 -19 68 9 9 25 32 35 50 17 32 17 37 3 64 -28 55 -75 98
-130 120 -30 12 -55 28 -55 35 0 8 19 16 48 20 59 8 85 25 102 65 12 29 11 33
-13 58 -15 15 -67 48 -117 72 -49 24 -90 47 -90 51 0 4 17 10 38 14 92 17 140
64 127 125 -11 50 -38 63 -248 116 l-201 50 2 80 c7 195 -69 446 -187 617 -72
103 -232 257 -318 306 -13 7 -13 18 2 86 36 161 -8 425 -101 615 -40 80 -62
109 -138 185 -100 100 -193 156 -321 194 -134 39 -318 54 -490 41z m318 -51
c187 -28 315 -87 428 -199 96 -95 149 -195 191 -358 38 -147 43 -310 14 -409
-23 -79 -18 -89 91 -166 105 -73 228 -205 286 -309 74 -130 137 -354 137 -488
l0 -47 -49 10 c-46 9 -58 6 -163 -33 -584 -219 -1088 -553 -1340 -886 l-40
-54 -112 106 c-240 230 -611 501 -907 664 l-137 75 -71 225 c-146 466 -226
751 -242 865 -33 239 56 441 255 577 146 100 655 294 991 377 76 19 239 47
315 54 83 9 287 6 353 -4z m-1862 -2100 c450 -184 970 -531 1331 -887 48 -47
89 -84 91 -81 179 250 418 456 761 658 179 105 504 256 669 311 l68 22 252
-62 c139 -34 255 -65 260 -69 4 -4 -16 -13 -45 -20 -297 -75 -679 -239 -981
-419 -335 -201 -704 -498 -941 -755 l-89 -96 -36 59 c-132 216 -424 488 -742
693 -297 190 -705 391 -1066 523 -73 27 -133 52 -133 55 0 3 55 18 123 33 94
21 346 82 353 85 1 1 57 -22 125 -50z m-475 -260 c471 -91 958 -361 1359 -754
85 -83 98 -99 45 -52 -42 36 -114 94 -161 129 -371 280 -923 500 -1513 603
l-39 7 79 43 c43 24 89 44 101 44 12 1 70 -8 129 -20z m3894 -100 c45 -23 78
-44 73 -48 -4 -4 -44 -13 -88 -20 -44 -7 -158 -33 -255 -57 -577 -145 -1047
-379 -1380 -688 -30 -28 -14 -9 35 42 181 188 465 406 690 530 237 129 500
223 760 271 77 14 78 14 165 -30z m-3745 -194 c237 -36 446 -101 670 -209 206
-99 420 -238 565 -365 l35 -31 -65 36 c-544 302 -1178 489 -1597 473 -51 -2
-89 -1 -85 3 4 3 36 29 72 57 l65 51 120 0 c66 0 165 -7 220 -15z m3691 -38
c4 -4 -22 -7 -57 -6 -46 1 -57 3 -39 9 29 9 86 7 96 -3z m101 -62 c34 -17 62
-33 63 -37 0 -17 -77 -38 -139 -38 -65 0 -243 -20 -353 -40 -32 -5 -82 -14
-110 -19 -29 -6 -75 -16 -103 -24 -27 -8 -75 -20 -105 -26 -65 -15 -91 -23
-185 -62 -38 -16 -117 -46 -175 -67 -129 -48 -211 -85 -407 -184 -84 -42 -153
-75 -153 -73 0 15 334 255 355 255 3 0 32 17 63 38 51 34 221 122 236 122 3 0
25 8 49 19 247 108 542 171 787 168 105 -2 120 -5 177 -32z m-3717 -200 c394
-49 723 -155 952 -309 85 -56 148 -106 136 -106 -4 0 -34 16 -67 35 -121 71
-346 143 -561 179 -261 44 -672 65 -960 48 -91 -5 -166 -9 -167 -8 -1 1 35 44
80 95 l82 94 190 -6 c104 -4 246 -13 315 -22z m3773 -69 c32 -35 61 -85 54
-93 -3 -2 -88 -4 -189 -4 -261 2 -575 -31 -768 -79 -44 -11 -74 -17 -195 -39
-33 -6 -85 -18 -115 -26 -30 -8 -82 -20 -115 -26 -99 -17 -167 -39 -234 -75
-35 -19 -65 -33 -67 -31 -6 5 127 103 171 125 53 27 283 118 315 124 36 8 202
57 225 67 11 5 40 14 65 21 25 7 56 16 70 20 14 4 63 13 110 19 47 6 105 13
130 17 58 8 480 20 500 15 8 -3 28 -19 43 -35z"/>
<path d="M2430 11820 c-155 -41 -287 -126 -333 -215 -29 -55 -29 -145 1 -201
29 -56 92 -109 150 -125 194 -57 498 54 572 207 43 88 24 208 -44 282 -62 69
-204 90 -346 52z m240 -138 c51 -25 80 -74 80 -136 0 -89 -59 -150 -197 -203
-92 -35 -242 -44 -297 -18 -80 38 -113 132 -71 203 68 115 371 211 485 154z"/>
<path d="M2742 10800 c-149 -39 -275 -128 -323 -227 -31 -65 -32 -162 -2 -219
25 -48 82 -100 132 -122 50 -22 216 -22 300 1 160 43 283 133 322 236 52 139
-14 289 -148 337 -55 19 -195 16 -281 -6z m262 -134 c102 -43 123 -184 41
-275 -95 -105 -364 -167 -476 -111 -106 55 -107 205 0 289 48 38 138 81 206
97 69 17 189 17 229 0z"/>
<path d="M5350 3909 c-35 -14 -59 -38 -81 -81 -18 -35 -19 -36 -57 -27 -61 13
-84 24 -136 64 -58 44 -77 41 -69 -12 3 -21 9 -47 13 -58 5 -13 2 -24 -9 -32
-14 -11 -13 -18 14 -70 19 -35 42 -64 59 -73 16 -8 38 -23 48 -32 10 -10 32
-18 49 -18 l32 0 -7 -47 c-3 -27 -9 -82 -12 -124 -7 -74 -6 -76 24 -110 26
-29 37 -34 74 -34 62 0 93 24 114 87 l18 53 13 -64 c13 -62 43 -111 67 -111 6
0 10 -17 10 -38 -1 -20 -2 -51 -3 -69 -1 -25 -4 -31 -17 -26 -14 5 -14 3 -2
-16 12 -20 10 -24 -20 -49 -18 -15 -32 -36 -32 -49 0 -49 -29 -70 -58 -41 -15
15 -16 113 0 141 10 20 10 21 -5 8 -13 -10 -17 -30 -17 -85 0 -76 9 -96 45
-96 28 0 45 19 45 50 0 15 10 36 23 48 29 27 35 27 39 1 4 -30 33 -47 55 -33
15 9 22 6 40 -17 19 -22 20 -28 8 -33 -22 -8 -18 -43 7 -60 13 -9 43 -16 71
-16 56 0 97 32 97 75 0 22 2 24 20 13 10 -7 23 -9 27 -4 4 4 0 12 -10 17 -14
8 -17 25 -17 108 0 75 4 101 15 111 8 7 15 21 15 31 0 15 -5 18 -24 13 -34 -8
-94 20 -101 48 -3 13 -4 48 -3 78 4 71 -17 78 -52 19 -14 -24 -40 -58 -58 -77
-28 -30 -37 -34 -64 -28 -47 9 -66 32 -78 95 -19 94 -22 101 -35 101 -8 0 -23
-29 -35 -65 -24 -72 -39 -85 -99 -85 -31 0 -44 6 -60 26 -24 31 -26 71 -8 184
12 73 13 74 45 81 93 19 116 139 26 139 -28 0 -35 4 -32 18 6 31 54 27 88 -7
34 -34 39 -74 14 -123 -9 -18 -11 -27 -4 -23 7 4 19 23 27 42 11 27 12 42 3
69 -12 36 -52 74 -79 74 -33 0 -43 15 -31 46 26 67 77 98 143 87 69 -11 99
-50 126 -164 12 -53 28 -105 36 -115 13 -18 14 -18 34 0 11 10 38 53 60 95 48
92 69 113 124 122 l42 6 -36 2 c-57 2 -98 -33 -149 -128 -25 -46 -50 -83 -55
-83 -12 0 -29 53 -46 137 -13 70 -53 117 -114 134 -47 13 -62 13 -95 0z m-207
-99 c23 -10 61 -21 85 -25 23 -4 42 -11 42 -16 0 -11 2 -11 -62 2 -29 6 -74
22 -100 35 -41 21 -48 22 -48 8 0 -9 14 -29 31 -45 l31 -29 -38 0 -39 -1 24
-19 c13 -11 34 -20 47 -20 13 0 24 -4 24 -10 0 -5 -4 -10 -10 -10 -5 0 -10 -4
-10 -10 0 -5 19 -10 42 -10 33 0 39 -3 30 -12 -21 -21 -13 -31 18 -24 25 5 30
2 30 -14 0 -16 -5 -19 -25 -15 -14 3 -37 7 -51 10 -17 4 -24 11 -20 20 4 11
-2 15 -17 15 -24 0 -72 29 -49 30 19 0 14 18 -8 25 -11 4 -27 20 -35 36 -15
27 -14 29 4 29 19 0 19 2 6 41 -8 23 -15 50 -15 61 0 19 2 19 35 -6 20 -15 54
-36 78 -46z m57 -70 c32 -1 42 -15 29 -43 -16 -34 -69 -39 -69 -7 0 11 -4 20
-9 20 -6 0 -9 9 -8 21 1 15 6 19 22 15 11 -3 27 -6 35 -6z m116 -41 c20 -17
17 -56 -6 -79 -24 -24 -62 -28 -54 -5 4 8 1 15 -5 15 -6 0 -8 7 -5 15 4 10 13
13 25 10 24 -8 37 21 19 38 -10 10 -12 8 -7 -5 4 -12 1 -18 -7 -18 -8 0 -16 8
-18 18 -4 13 1 18 20 20 14 1 31 -3 38 -9z m377 -404 c-7 -70 11 -101 70 -117
l42 -11 -3 -54 c-4 -51 -5 -53 -21 -39 -10 9 -22 16 -27 16 -5 0 -1 -5 9 -11
14 -8 17 -25 17 -94 0 -74 -3 -87 -22 -105 -25 -23 -82 -27 -123 -8 -44 20
-31 37 27 35 44 -2 53 1 56 16 3 16 -1 17 -32 12 -29 -6 -39 -3 -61 20 -20 20
-26 33 -22 53 3 15 1 50 -5 77 -18 89 -16 133 8 145 11 6 35 36 53 66 17 30
34 54 36 54 2 0 1 -25 -2 -55z m-116 -91 c3 -8 -2 -23 -11 -32 -14 -15 -18
-15 -31 -1 -9 9 -13 23 -9 32 8 21 43 22 51 1z m-8 -68 c7 -9 11 -41 9 -83 -3
-65 -4 -68 -28 -68 -24 0 -25 3 -28 74 -2 53 1 77 10 82 18 12 24 11 37 -5z"/>
<path d="M5624 3076 c-10 -8 -17 -17 -14 -19 3 -3 16 3 29 14 27 22 15 26 -15
5z"/>
<path d="M5690 3085 c0 -8 29 -12 39 -5 9 5 4 8 -13 8 -14 0 -26 -2 -26 -3z"/>
<path d="M5668 3018 c-8 -21 2 -38 22 -38 19 0 34 25 24 41 -8 13 -41 11 -46
-3z m32 -18 c0 -5 -4 -10 -10 -10 -5 0 -10 5 -10 10 0 6 5 10 10 10 6 0 10 -4
10 -10z"/>
<path d="M3367 3842 c-15 -17 -17 -63 -17 -459 0 -413 1 -441 18 -456 21 -19
47 -23 36 -6 -4 8 -1 8 12 1 11 -5 142 -10 314 -10 257 -1 297 1 312 15 17 15
18 48 18 459 l0 443 -22 15 c-19 14 -69 16 -339 16 -293 0 -317 -1 -332 -18z
m98 -912 c3 -5 1 -10 -4 -10 -6 0 -11 5 -11 10 0 6 2 10 4 10 3 0 8 -4 11 -10z"/>
<path d="M4175 3837 c-22 -32 -21 -173 2 -185 10 -6 14 -16 9 -27 -5 -13 -2
-16 11 -11 15 6 15 4 -2 -14 -24 -27 -28 -25 -23 10 3 17 1 30 -4 30 -5 0 -8
-67 -7 -150 1 -109 4 -148 13 -143 6 3 6 1 -1 -8 -10 -9 -13 -65 -13 -204 0
-173 2 -194 18 -208 17 -15 55 -17 339 -17 297 0 321 1 336 18 15 17 17 56 17
354 0 283 -2 337 -14 341 -8 3 -17 3 -19 -1 -2 -4 -2 -1 -1 6 4 15 -8 16 -23
1 -12 -12 -63 -1 -64 15 0 6 -4 2 -9 -9 -4 -11 -7 -36 -5 -55 4 -35 4 -35 -7
-7 -7 15 -16 27 -21 27 -4 0 -5 -5 -1 -12 5 -8 2 -9 -12 -3 -10 4 -28 7 -39 7
-19 -1 -19 0 -2 12 21 16 22 30 1 22 -8 -3 -12 -2 -9 4 3 6 1 10 -4 10 -6 0
-11 -6 -11 -14 0 -8 -12 -16 -26 -18 l-26 -3 21 -24 c12 -14 21 -18 21 -11 0
7 3 11 6 7 14 -13 -7 -27 -27 -17 -13 7 -19 7 -19 0 0 -5 6 -10 13 -10 9 0 9
-3 -1 -9 -12 -7 -12 -11 1 -22 25 -24 9 -49 -33 -49 -21 0 -40 -5 -42 -12 -6
-17 -28 0 -28 21 0 9 -5 22 -12 29 -9 9 -9 12 0 13 7 1 15 3 20 4 4 2 17 6 30
10 16 5 21 13 17 26 -5 14 -1 19 14 19 25 0 27 13 6 30 -13 11 -14 10 -9 -4 3
-9 1 -17 -5 -17 -15 -2 -30 -6 -33 -9 -2 -1 -13 -4 -25 -5 -15 -2 -20 2 -16
13 5 12 2 12 -15 3 -18 -9 -21 -9 -16 3 5 13 2 13 -19 3 -14 -6 -23 -15 -20
-19 2 -5 9 -5 15 -2 8 5 9 1 4 -11 -6 -16 -4 -16 11 -4 9 8 14 9 10 2 -4 -6
-3 -14 3 -18 5 -3 10 -12 10 -18 0 -7 -4 -6 -10 3 -8 13 -10 12 -10 -2 0 -10
-4 -18 -10 -18 -5 0 -7 7 -4 15 5 11 2 13 -10 9 -9 -3 -16 -10 -16 -14 0 -5
-7 -7 -15 -6 -26 4 -26 13 0 20 32 8 35 38 3 32 -13 -3 -27 -5 -32 -5 -4 -1
-6 -16 -4 -35 2 -19 0 -32 -4 -30 -4 3 -8 13 -8 23 0 9 -5 22 -12 29 -9 9 -7
13 5 18 33 12 17 22 -32 20 -27 -1 -47 2 -45 6 7 11 -4 10 -29 -4 -19 -10 -20
-9 -9 4 14 17 6 51 -11 41 -6 -4 -7 -1 -3 6 5 8 0 14 -14 18 -16 4 -18 8 -8
14 19 12 28 11 26 -3 -2 -7 3 -13 10 -14 6 -1 17 -2 23 -3 6 0 8 -10 4 -21 -4
-12 -2 -20 5 -20 6 0 8 5 4 12 -4 7 -3 8 5 4 6 -4 9 -12 6 -17 -4 -5 14 -9 40
-9 29 0 48 -5 51 -13 3 -8 11 -14 19 -14 18 0 20 13 3 20 -8 3 -6 6 5 6 9 1
17 7 17 14 0 9 2 9 8 0 5 -8 13 -9 22 -3 8 5 24 8 35 6 11 -2 14 -1 7 1 -7 3
-9 9 -6 15 4 7 2 8 -4 4 -15 -9 -52 15 -53 34 -1 8 -4 4 -8 -10 -7 -24 -41
-36 -41 -15 0 6 4 10 9 10 20 0 22 15 7 36 -17 25 -51 36 -43 14 3 -7 1 -17
-5 -23 -6 -6 -6 -12 1 -16 15 -9 14 -24 -1 -29 -7 -2 -5 -3 5 -2 9 2 17 -3 17
-11 0 -10 -6 -11 -24 -4 -13 5 -27 6 -31 2 -3 -3 -3 2 1 12 6 16 3 17 -17 11
-18 -5 -21 -4 -9 4 8 6 23 11 33 11 10 0 15 5 12 10 -4 6 -11 8 -16 4 -5 -3
-9 -2 -8 3 1 4 1 15 0 23 -1 13 -3 13 -12 0 -9 -13 -10 -12 -5 3 3 11 0 20 -9
23 -21 9 -19 23 3 17 10 -2 23 -18 30 -35 6 -17 15 -27 22 -23 8 5 7 11 -1 22
-9 10 -10 16 -1 21 6 4 9 20 8 35 -2 15 0 27 5 27 5 0 6 7 3 15 -5 11 -2 13
10 9 8 -3 14 -11 13 -17 -1 -7 7 -11 18 -9 16 3 17 1 8 -9 -10 -10 -15 -10
-28 1 -9 8 -15 8 -15 2 0 -6 5 -14 10 -17 8 -5 7 -11 -1 -21 -9 -11 -8 -14 5
-14 9 0 16 6 16 14 0 18 17 29 30 21 8 -5 8 -11 0 -20 -9 -11 -7 -12 9 -8 12
3 18 10 14 17 -4 6 -8 18 -8 26 0 8 -6 16 -12 16 -7 1 -17 2 -23 3 -5 0 -10 6
-10 12 0 5 4 8 8 5 4 -2 8 5 9 17 0 12 -1 16 -4 10 -3 -7 -12 -13 -20 -13 -13
0 -13 3 -3 15 11 14 2 15 -79 14 -81 -1 -93 -4 -106 -22z m25 -33 c0 -2 -7 -4
-15 -4 -8 0 -15 4 -15 10 0 5 7 7 15 4 8 -4 15 -8 15 -10z m120 8 c0 -5 -7 -9
-15 -9 -8 0 -12 4 -9 9 3 4 9 8 15 8 5 0 9 -4 9 -8z m-114 -30 c-17 -16 -18
-16 -5 5 7 12 15 20 18 17 3 -2 -3 -12 -13 -22z m44 8 c0 -5 -2 -10 -4 -10 -3
0 -8 5 -11 10 -3 6 -1 10 4 10 6 0 11 -4 11 -10z m57 -17 c0 -7 -6 -13 -13
-13 -6 0 -14 6 -17 13 -3 7 3 13 12 13 10 0 18 -6 18 -13z m-57 -3 c12 -8 11
-10 -7 -10 -13 0 -23 5 -23 10 0 13 11 13 30 0z m555 -180 c0 -7 -5 -15 -12
-17 -7 -3 -11 4 -10 16 1 23 22 23 22 1z m-38 -20 c-1 -11 -5 -20 -10 -20 -5
0 -7 6 -4 14 3 8 1 17 -6 20 -7 2 -5 5 5 5 11 1 16 -6 15 -19z m-534 -19 c-5
-19 15 -12 20 7 3 12 5 10 6 -7 1 -20 3 -21 16 -11 13 11 14 8 11 -21 -4 -31
-3 -32 10 -14 8 10 14 13 14 6 0 -7 4 -10 8 -7 4 2 8 -3 8 -13 0 -18 -32 -26
-41 -10 -4 5 -11 7 -16 4 -5 -4 -9 -1 -9 4 0 6 5 11 11 11 5 0 7 5 3 12 -6 9
-9 9 -12 0 -2 -7 -8 -12 -13 -12 -6 0 -7 5 -3 12 4 7 3 8 -5 4 -9 -6 -9 -11 0
-22 8 -10 8 -14 1 -14 -20 0 -34 38 -22 60 8 16 8 20 -4 20 -8 0 -18 4 -21 10
-4 6 2 7 17 1 13 -5 22 -14 21 -20z m81 14 c-4 -8 -8 -15 -10 -15 -2 0 -4 7
-4 15 0 8 4 15 10 15 5 0 7 -7 4 -15z m210 -8 c-3 -8 -11 -14 -19 -14 -21 0
-19 15 3 20 9 3 18 5 19 6 1 0 0 -5 -3 -12z m190 -2 c-4 -8 -10 -15 -15 -15
-4 0 -6 7 -3 15 4 8 10 15 15 15 4 0 6 -7 3 -15z m-527 -12 c-4 -3 0 -15 10
-25 9 -10 12 -18 7 -18 -12 0 -34 36 -27 44 4 3 9 6 11 6 3 0 2 -3 -1 -7z
m452 -14 c-16 -10 -23 -4 -14 10 3 6 11 8 17 5 6 -4 5 -9 -3 -15z m51 -13 c0
-2 -7 -7 -16 -10 -8 -3 -12 -2 -9 4 6 10 25 14 25 6z m110 -6 c0 -5 -2 -10 -4
-10 -3 0 -8 5 -11 10 -3 6 -1 10 4 10 6 0 11 -4 11 -10z m-365 -20 c-3 -5 -15
-10 -25 -10 -10 0 -22 -4 -25 -10 -3 -5 -11 -10 -16 -10 -21 0 3 20 34 29 18
5 33 10 35 10 2 1 0 -3 -3 -9z m38 -5 c-3 -9 -8 -14 -10 -11 -3 3 -2 9 2 15 9
16 15 13 8 -4z m287 6 c0 -6 -4 -12 -8 -15 -5 -3 -9 1 -9 9 0 8 4 15 9 15 4 0
8 -4 8 -9z m-532 -27 c10 -10 8 -12 -7 -11 -11 1 -18 3 -16 6 3 2 -3 10 -13
18 -16 12 -15 13 3 6 11 -4 26 -12 33 -19z m488 12 c6 -3 14 -16 16 -30 4 -22
3 -24 -14 -15 -11 6 -22 17 -25 25 -4 10 -8 12 -12 5 -4 -6 -11 -3 -18 9 -11
17 -10 18 15 14 15 -3 32 -6 38 -8z m-286 -22 c0 -8 -6 -11 -17 -7 -12 5 -15
2 -10 -10 3 -9 2 -19 -2 -21 -7 -5 -8 19 -2 45 2 12 31 5 31 -7z m-133 -26
c-3 -7 -5 -2 -5 12 0 14 2 19 5 13 2 -7 2 -19 0 -25z m273 16 c0 -8 -4 -12
-10 -9 -5 3 -10 10 -10 16 0 5 5 9 10 9 6 0 10 -7 10 -16z m125 -14 c3 -5 -2
-10 -12 -10 -17 -1 -17 -1 0 -11 19 -11 23 -39 6 -39 -6 0 -8 7 -5 16 4 12 2
15 -9 10 -8 -3 -15 -1 -15 4 0 6 -7 10 -15 10 -19 0 -19 -11 -2 -34 10 -14 11
-29 4 -60 -11 -48 -33 -92 -43 -88 -4 2 -11 -2 -15 -10 -7 -10 -9 -9 -9 5 0 9
5 17 11 17 8 0 8 4 1 13 -13 15 -9 111 6 149 10 25 19 29 79 37 6 0 15 -3 18
-9z m-470 -10 c3 -5 1 -10 -4 -10 -6 0 -11 5 -11 10 0 6 2 10 4 10 3 0 8 -4
11 -10z m110 1 c-3 -5 -1 -12 4 -16 5 -3 14 2 19 11 6 11 11 13 16 5 4 -6 2
-11 -4 -11 -6 0 -9 -4 -5 -9 11 -19 -17 -23 -30 -5 -12 17 -12 34 1 34 3 0 3
-4 -1 -9z m-53 -16 c3 0 9 -3 13 -6 3 -4 -13 -7 -36 -7 -37 -1 -39 1 -23 13
10 7 23 10 29 7 5 -4 13 -7 17 -7z m-88 -17 c-3 -4 -9 -8 -15 -8 -5 0 -9 4 -9
8 0 5 7 9 15 9 8 0 12 -4 9 -9z m226 -8 c0 -11 -3 -19 -7 -19 -22 4 -33 -3
-33 -18 0 -15 -2 -15 -9 -4 -12 19 -4 36 22 49 12 6 23 11 25 11 1 1 2 -8 2
-19z m79 -38 c1 -15 -4 -22 -11 -20 -15 5 -22 43 -13 66 6 15 8 15 15 -3 5
-11 9 -30 9 -43z m-172 32 c-3 -3 -12 -4 -19 -1 -8 3 -5 6 6 6 11 1 17 -2 13
-5z m-132 -14 c3 -6 -1 -7 -9 -4 -18 7 -21 14 -7 14 6 0 13 -4 16 -10z m47
-52 c8 -18 -7 -27 -34 -20 -19 5 -25 32 -8 32 6 0 10 7 10 16 0 13 2 13 13 2
7 -7 16 -21 19 -30z m157 0 c17 2 31 0 31 -5 0 -5 -36 -10 -80 -10 -44 0 -80
3 -80 8 0 5 19 9 43 10 23 0 36 3 29 6 -6 2 -9 9 -6 15 3 5 12 1 19 -10 10
-13 22 -17 44 -14z m116 -8 c-27 -12 -35 -12 -35 0 0 6 12 10 28 9 24 0 25 -1
7 -9z m18 -27 c-7 -2 -19 -2 -25 0 -7 3 -2 5 12 5 14 0 19 -2 13 -5z m-53 -49
c0 -16 -26 -19 -35 -4 -3 6 -4 14 0 20 8 13 35 1 35 -16z m-266 1 c3 -9 0 -15
-9 -15 -8 0 -15 7 -15 15 0 8 4 15 9 15 5 0 11 -7 15 -15z m76 4 c0 -6 -7 -8
-16 -5 -8 3 -12 2 -9 -4 4 -6 -3 -9 -16 -7 -39 6 -34 27 5 27 20 0 36 -5 36
-11z m30 -5 c0 -8 -4 -12 -10 -9 -5 3 -10 10 -10 16 0 5 5 9 10 9 6 0 10 -7
10 -16z m80 4 c0 -4 -6 -8 -12 -9 -7 0 -23 -2 -35 -5 -15 -2 -23 1 -23 11 0
10 10 14 35 13 19 -1 35 -5 35 -10z m34 -3 c3 -9 0 -15 -9 -15 -9 0 -12 6 -9
15 4 8 7 15 9 15 2 0 5 -7 9 -15z m106 5 c0 -5 -4 -10 -10 -10 -5 0 -10 5 -10
10 0 6 5 10 10 10 6 0 10 -4 10 -10z m30 1 c0 -6 -4 -13 -10 -16 -5 -3 -10 1
-10 9 0 9 5 16 10 16 6 0 10 -4 10 -9z m35 -81 c-3 -4 -16 -10 -29 -12 -17 -4
-23 -1 -19 9 3 7 9 13 14 13 5 0 9 8 9 18 1 16 2 15 15 -2 8 -10 12 -22 10
-26z m-265 10 c21 5 47 6 93 1 4 -1 7 -4 7 -8 0 -5 -43 -8 -95 -8 -52 0 -95 3
-95 6 0 13 13 16 38 10 15 -4 38 -5 52 -1z m180 -2 c0 -11 -47 -21 -59 -13
-21 13 -10 23 24 22 19 -1 35 -5 35 -9z m126 -23 c-9 -9 -16 -13 -16 -8 0 12
22 34 28 28 2 -2 -3 -11 -12 -20z m-46 -89 c0 -3 -4 -8 -10 -11 -5 -3 -10 -1
-10 4 0 6 5 11 10 11 6 0 10 -2 10 -4z m115 -6 c3 -5 1 -10 -4 -10 -6 0 -11 5
-11 10 0 6 2 10 4 10 3 0 8 -4 11 -10z m60 -12 c6 -4 2 -8 -7 -8 -10 0 -18 7
-18 17 0 9 3 12 8 7 4 -5 12 -12 17 -16z"/>
<path d="M4450 3849 c0 -5 5 -7 10 -4 6 3 10 8 10 11 0 2 -4 4 -10 4 -5 0 -10
-5 -10 -11z"/>
<path d="M4488 3853 c7 -3 16 -2 19 1 4 3 -2 6 -13 5 -11 0 -14 -3 -6 -6z"/>
<path d="M4634 3827 c1 -19 4 -33 7 -31 3 2 12 -7 19 -20 8 -16 18 -22 31 -19
11 3 19 0 19 -6 0 -7 -4 -10 -9 -6 -5 3 -12 1 -15 -4 -8 -12 20 -34 33 -27 6
4 15 -3 21 -15 10 -17 9 -20 -1 -14 -8 5 -10 4 -5 -3 10 -17 33 -15 40 3 3 8
11 15 17 15 7 0 2 -11 -10 -24 -22 -24 -23 -24 -3 -35 15 -8 23 -6 37 9 18 20
36 27 34 13 -3 -20 2 -34 11 -28 6 3 10 48 10 99 0 75 -3 96 -17 107 -10 9
-51 15 -118 17 l-102 4 1 -35z m52 -20 c8 -19 7 -23 -7 -24 -10 -1 -16 5 -15
15 0 9 -5 16 -12 14 -8 -1 -11 2 -7 8 11 17 29 11 41 -13z m164 -117 c0 -5 -5
-10 -11 -10 -5 0 -7 5 -4 10 3 6 8 10 11 10 2 0 4 -4 4 -10z"/>
<path d="M5962 3844 c-20 -14 -22 -24 -22 -100 0 -49 4 -84 10 -84 6 0 10 5
10 12 0 6 3 9 6 5 3 -3 18 8 32 24 26 27 62 41 109 41 13 0 20 4 17 9 -3 5 25
9 63 10 42 0 61 3 49 8 -25 10 -8 21 39 25 27 3 38 -1 46 -15 13 -26 29 -24
24 3 -4 16 -2 19 7 10 16 -16 31 -15 22 1 -6 9 -4 9 7 1 8 -6 30 -10 51 -10
20 1 34 -3 31 -8 -3 -4 -18 -5 -34 -2 -15 3 -31 1 -34 -4 -4 -6 21 -11 62 -11
60 -2 63 -3 28 -9 -39 -7 -38 -7 20 -10 33 -2 66 -3 72 -3 7 1 10 -4 6 -10 -4
-6 0 -8 10 -4 15 6 17 -3 18 -61 2 -56 3 -61 8 -27 6 37 7 38 18 20 10 -17 12
-4 13 73 0 141 25 132 -353 132 -267 0 -316 -2 -335 -16z m545 -70 c-3 -3 -12
-4 -19 -1 -8 3 -5 6 6 6 11 1 17 -2 13 -5z"/>
<path d="M6770 3840 c-25 -25 -29 -120 -6 -120 8 0 17 -6 20 -12 5 -10 7 -10
12 0 3 6 10 12 15 12 6 0 20 12 32 26 15 17 33 26 58 27 21 1 35 5 33 8 -2 4
3 10 12 13 23 9 31 7 15 -3 -10 -7 -7 -9 12 -8 14 1 23 5 21 9 -3 4 2 5 10 2
9 -3 16 -14 17 -23 0 -11 3 -9 9 7 5 12 12 22 15 22 4 0 3 -5 -1 -12 -5 -7 -3
-8 7 -2 22 13 42 14 58 1 12 -10 13 -9 3 10 -9 16 -9 22 0 25 7 3 2 7 -11 11
-17 4 -21 2 -17 -9 7 -18 -13 -18 -36 0 -19 14 -25 32 -8 21 6 -3 10 -1 10 4
0 7 -45 11 -130 11 -117 0 -132 -2 -150 -20z m63 -75 c-3 -9 -8 -14 -10 -11
-3 3 -2 9 2 15 9 16 15 13 8 -4z"/>
<path d="M7060 3844 c0 -12 4 -14 13 -7 6 6 19 13 27 16 9 3 3 6 -12 6 -20 1
-28 -4 -28 -15z"/>
<path d="M7124 3849 c-2 -3 33 -5 76 -3 44 2 80 0 80 -4 0 -4 17 -7 38 -6 27
1 29 0 8 -3 -17 -3 -41 -14 -55 -25 -26 -20 -26 -20 -2 -13 13 4 21 3 18 -2
-3 -5 4 -10 16 -10 17 -2 19 0 7 7 -9 6 -10 10 -3 10 6 0 15 -4 18 -10 9 -15
27 -12 19 3 -6 10 -4 10 7 0 7 -7 26 -13 41 -13 16 0 28 -5 28 -13 0 -7 9 -13
20 -13 28 0 28 58 0 86 -19 19 -31 20 -166 18 -80 -2 -147 -5 -150 -9z"/>
<path d="M8404 3852 c-18 -12 -34 -49 -34 -79 1 -25 2 -26 14 -10 7 9 18 17
25 17 6 0 17 11 23 25 6 14 16 25 21 25 5 0 5 -6 -2 -13 -8 -11 -6 -13 12 -11
12 1 26 3 31 3 5 1 7 4 3 7 -9 10 17 32 44 37 13 2 -10 5 -51 5 -41 1 -80 -2
-86 -6z m13 -28 c-3 -3 -12 -4 -19 -1 -8 3 -5 6 6 6 11 1 17 -2 13 -5z"/>
<path d="M9199 3843 c-8 -10 -14 -25 -13 -33 1 -8 2 -21 3 -28 1 -15 29 -3 56
25 14 14 18 14 26 2 5 -8 9 -9 9 -2 0 14 101 22 372 26 189 4 207 3 196 -12
-10 -14 -9 -13 6 1 39 35 14 38 -318 38 -295 0 -324 -1 -337 -17z m38 -29 c-3
-3 -12 -4 -19 -1 -8 3 -5 6 6 6 11 1 17 -2 13 -5z"/>
<path d="M10017 3847 c-15 -6 -18 -10 -9 -16 19 -11 93 -5 102 9 6 9 9 9 13
-1 4 -10 6 -9 6 4 1 14 -7 17 -45 15 -25 -2 -55 -7 -67 -11z"/>
<path d="M10145 3849 c-4 -6 -5 -12 -2 -15 2 -3 7 2 10 11 7 17 1 20 -8 4z"/>
<path d="M10300 3853 c0 -5 33 -7 72 -5 125 4 137 9 31 10 -57 1 -103 -1 -103
-5z"/>
<path d="M10548 3853 c7 -3 16 -2 19 1 4 3 -2 6 -13 5 -11 0 -14 -3 -6 -6z"/>
<path d="M10660 3846 c0 -2 8 -10 18 -17 15 -13 16 -12 3 4 -13 16 -21 21 -21
13z"/>
<path d="M4434 3832 c3 -5 0 -13 -6 -15 -9 -4 -10 -6 -1 -6 17 -1 25 16 12 25
-7 4 -9 3 -5 -4z"/>
<path d="M7226 3831 c-3 -5 -26 -6 -51 -3 -28 3 -45 1 -45 -6 0 -7 14 -9 37
-5 27 5 34 3 28 -6 -6 -10 -3 -11 13 -2 26 14 35 14 27 1 -4 -6 1 -7 12 -3 32
11 35 15 22 24 -18 11 -36 11 -43 0z"/>
<path d="M8205 3829 c-15 -7 -11 -8 15 -3 23 3 30 2 22 -4 -11 -7 -9 -10 7
-15 18 -4 19 -2 10 14 -11 21 -23 23 -54 8z"/>
<path d="M4526 3811 c-3 -5 1 -11 9 -14 9 -4 12 -1 8 9 -6 16 -10 17 -17 5z"/>
<path d="M4588 3808 c9 -9 15 -9 24 0 9 9 7 12 -12 12 -19 0 -21 -3 -12 -12z"/>
<path d="M10003 3799 c-2 -17 1 -18 12 -9 8 7 12 16 9 21 -9 16 -20 10 -21
-12z"/>
<path d="M10048 3813 c6 -2 18 -2 25 0 6 3 1 5 -13 5 -14 0 -19 -2 -12 -5z"/>
<path d="M10680 3794 c0 -11 -6 -14 -20 -9 -26 8 -25 -2 3 -26 22 -20 22 -20
0 -7 -12 7 -25 9 -29 5 -11 -10 -3 -15 31 -19 28 -3 30 -1 33 35 2 21 -1 37
-7 37 -6 0 -11 -7 -11 -16z"/>
<path d="M6260 3775 c0 -8 4 -15 10 -15 5 0 7 7 4 15 -4 8 -8 15 -10 15 -2 0
-4 -7 -4 -15z"/>
<path d="M4530 3765 c-12 -14 -7 -20 14 -16 5 1 6 -5 3 -13 -4 -10 0 -14 13
-13 23 1 21 19 -3 29 -10 4 -15 12 -12 18 9 15 -1 12 -15 -5z"/>
<path d="M4640 3765 c11 -13 8 -20 -20 -45 -36 -33 -36 -35 6 -20 23 9 25 9
15 -4 -6 -8 -23 -17 -36 -20 -30 -8 -33 -26 -4 -26 12 0 17 4 13 11 -4 7 0 9
13 5 20 -6 21 -5 25 44 1 11 6 20 10 20 7 0 12 -15 9 -32 0 -4 6 -5 14 -2 12
5 9 14 -16 45 -17 21 -33 39 -36 39 -3 0 0 -7 7 -15z"/>
<path d="M4608 3753 c7 -3 16 -2 19 1 4 3 -2 6 -13 5 -11 0 -14 -3 -6 -6z"/>
<path d="M7208 3753 c6 -2 18 -2 25 0 6 3 1 5 -13 5 -14 0 -19 -2 -12 -5z"/>
<path d="M6408 3743 c7 -3 16 -2 19 1 4 3 -2 6 -13 5 -11 0 -14 -3 -6 -6z"/>
<path d="M4418 3723 c7 -3 16 -2 19 1 4 3 -2 6 -13 5 -11 0 -14 -3 -6 -6z"/>
<path d="M6327 3714 c-14 -14 6 -24 50 -24 52 0 55 8 5 12 -18 1 -32 6 -32 10
0 10 -14 11 -23 2z"/>
<path d="M6440 3711 c0 -5 7 -11 14 -14 10 -4 13 -1 9 9 -6 15 -23 19 -23 5z"/>
<path d="M7420 3695 c0 -14 2 -25 4 -25 2 0 6 11 8 25 3 14 1 25 -3 25 -5 0
-9 -11 -9 -25z"/>
<path d="M4490 3706 c0 -2 9 -6 20 -9 11 -3 18 -1 14 4 -5 9 -34 13 -34 5z"/>
<path d="M5806 3685 c-18 -27 -21 -92 -6 -115 7 -10 8 0 3 33 -5 40 -2 53 16
78 12 16 17 29 12 29 -5 0 -16 -11 -25 -25z"/>
<path d="M6045 3700 c-3 -4 2 -10 10 -14 8 -3 15 0 15 6 0 6 6 5 17 -3 14 -12
16 -12 11 1 -5 16 -45 23 -53 10z"/>
<path d="M6140 3700 c0 -5 5 -10 10 -10 6 0 10 5 10 10 0 6 -4 10 -10 10 -5 0
-10 -4 -10 -10z"/>
<path d="M6175 3700 c-4 -6 6 -10 22 -10 22 0 25 2 13 10 -19 12 -27 12 -35 0z"/>
<path d="M4542 3685 c-16 -8 -19 -14 -10 -17 7 -3 22 3 32 13 22 21 12 23 -22
4z"/>
<path d="M6840 3674 c0 -7 8 -11 18 -9 9 1 22 -2 29 -7 11 -9 30 8 20 19 -12
11 -67 9 -67 -3z"/>
<path d="M7223 3675 c0 -11 10 -15 34 -13 18 1 33 6 33 10 0 4 -10 6 -22 4
-13 -2 -28 0 -34 5 -7 5 -11 3 -11 -6z"/>
<path d="M7317 3674 c6 -17 36 -19 31 -2 -2 6 -11 12 -20 14 -11 1 -15 -3 -11
-12z"/>
<path d="M6920 3670 c0 -5 5 -10 10 -10 6 0 10 5 10 10 0 6 -4 10 -10 10 -5 0
-10 -4 -10 -10z"/>
<path d="M6955 3670 c4 -6 11 -8 16 -5 14 9 11 15 -7 15 -8 0 -12 -5 -9 -10z"/>
<path d="M7020 3670 c-9 -6 -10 -10 -3 -10 6 0 15 5 18 10 8 12 4 12 -15 0z"/>
<path d="M7185 3670 c-3 -5 1 -10 10 -10 9 0 13 5 10 10 -3 6 -8 10 -10 10 -2
0 -7 -4 -10 -10z"/>
<path d="M6337 3657 c3 -5 11 -6 19 -3 8 3 14 1 14 -3 0 -5 19 -5 42 0 23 6
48 7 57 4 8 -3 12 -2 7 2 -10 11 -146 11 -139 0z"/>
<path d="M9422 3650 c0 -14 2 -19 5 -12 2 6 2 18 0 25 -3 6 -5 1 -5 -13z"/>
<path d="M9678 3664 c-3 -3 -20 -6 -37 -6 -55 -2 -33 -18 23 -18 55 0 80 12
50 24 -20 7 -29 8 -36 0z"/>
<path d="M6050 3650 c0 -5 18 -10 40 -10 22 0 40 5 40 10 0 6 -18 10 -40 10
-22 0 -40 -4 -40 -10z"/>
<path d="M6150 3650 c0 -5 11 -10 25 -10 14 0 25 5 25 10 0 6 -11 10 -25 10
-14 0 -25 -4 -25 -10z"/>
<path d="M6215 3650 c3 -5 13 -10 21 -10 8 0 14 5 14 10 0 6 -9 10 -21 10 -11
0 -17 -4 -14 -10z"/>
<path d="M9192 3652 c-7 -2 -10 -8 -6 -13 7 -12 74 -12 74 0 0 10 -50 19 -68
13z"/>
<path d="M9281 3644 c0 -11 3 -14 6 -6 3 7 2 16 -1 19 -3 4 -6 -2 -5 -13z"/>
<path d="M9390 3651 c0 -5 -15 -7 -34 -4 -19 2 -37 0 -40 -6 -4 -6 10 -9 36
-7 23 1 44 8 46 14 2 7 1 12 -2 12 -3 0 -6 -4 -6 -9z"/>
<path d="M9455 3650 c6 -10 95 -10 95 0 0 3 -23 6 -51 8 -30 1 -48 -2 -44 -8z"/>
<path d="M5832 3620 c0 -19 2 -27 5 -17 2 9 2 25 0 35 -3 9 -5 1 -5 -18z"/>
<path d="M4498 3628 c9 -11 10 -18 2 -23 -5 -3 -10 -12 -10 -18 0 -8 3 -9 8
-1 4 6 15 13 25 17 9 3 16 14 16 24 -1 17 -2 17 -6 0 -5 -18 -5 -18 -26 0 -17
14 -19 14 -9 1z"/>
<path d="M4590 3630 c-12 -7 -10 -9 7 -7 12 0 19 5 17 9 -6 10 -6 10 -24 -2z"/>
<path d="M4716 3623 c-6 -14 -5 -15 5 -6 7 7 10 15 7 18 -3 3 -9 -2 -12 -12z"/>
<path d="M7173 3626 c0 -8 6 -12 14 -9 7 3 13 9 13 14 0 5 -6 9 -13 9 -8 0
-14 -6 -14 -14z"/>
<path d="M7247 3629 c-9 -6 -22 -7 -27 -4 -13 8 -13 -5 0 -25 6 -10 10 -11 10
-2 0 6 9 12 19 12 21 0 36 15 23 23 -4 3 -15 1 -25 -4z"/>
<path d="M7314 3625 c8 -8 22 -15 31 -15 15 0 15 2 1 15 -8 8 -22 15 -31 15
-15 0 -15 -2 -1 -15z"/>
<path d="M6840 3614 c0 -10 17 -13 65 -12 36 1 65 6 65 11 0 5 -14 7 -30 3
-17 -3 -29 -2 -26 2 2 4 -14 7 -35 8 -26 1 -39 -3 -39 -12z"/>
<path d="M7030 3616 c0 -6 11 -13 25 -14 14 -1 25 3 25 8 0 6 -3 10 -7 11 -5
0 -16 2 -25 4 -10 2 -18 -2 -18 -9z"/>
<path d="M6065 3610 c-3 -5 1 -10 10 -10 9 0 13 5 10 10 -3 6 -8 10 -10 10 -2
0 -7 -4 -10 -10z"/>
<path d="M6109 3609 c-10 -6 -7 -9 14 -9 29 0 35 5 14 13 -8 3 -20 1 -28 -4z"/>
<path d="M6170 3606 c7 -7 14 -6 21 1 9 9 7 12 -9 10 -14 -1 -18 -5 -12 -11z"/>
<path d="M6335 3610 c3 -5 8 -10 11 -10 2 0 4 5 4 10 0 6 -5 10 -11 10 -5 0
-7 -4 -4 -10z"/>
<path d="M6361 3604 c0 -11 3 -14 6 -6 3 7 2 16 -1 19 -3 4 -6 -2 -5 -13z"/>
<path d="M6430 3610 c0 -5 7 -10 16 -10 8 0 12 5 9 10 -3 6 -10 10 -16 10 -5
0 -9 -4 -9 -10z"/>
<path d="M6980 3612 c0 -4 9 -8 20 -9 11 -1 20 2 20 8 0 5 -9 9 -20 9 -11 0
-20 -4 -20 -8z"/>
<path d="M8174 3585 c-3 -13 -4 -30 -1 -37 3 -7 6 1 7 17 1 29 1 30 11 6 5
-13 12 -22 14 -19 6 6 -12 58 -20 58 -2 0 -7 -11 -11 -25z"/>
<path d="M8216 3598 c-10 -22 13 -66 25 -47 4 7 4 16 0 19 -5 3 -11 14 -13 25
-4 18 -6 18 -12 3z"/>
<path d="M7928 3595 c-3 -3 -3 -17 0 -31 4 -23 8 -25 35 -20 17 4 34 11 38 17
4 7 12 8 18 5 6 -4 9 -11 6 -16 -8 -13 41 -6 55 8 10 11 6 13 -21 10 -21 -2
-34 1 -34 9 0 20 -14 27 -21 9 -3 -9 -12 -16 -20 -16 -8 0 -14 -4 -14 -10 0
-5 -5 -10 -12 -10 -9 0 -9 3 0 12 18 18 15 38 -6 38 -10 0 -21 -2 -24 -5z"/>
<path d="M7573 3574 c0 -20 22 -24 34 -6 8 14 6 17 -12 18 -12 1 -22 -4 -22
-12z"/>
<path d="M6051 3564 c0 -11 3 -14 6 -6 3 7 2 16 -1 19 -3 4 -6 -2 -5 -13z"/>
<path d="M6074 3568 c-3 -4 2 -8 10 -8 9 0 19 0 23 -1 4 0 9 3 10 8 4 11 -37
12 -43 1z"/>
<path d="M6130 3569 c0 -5 9 -9 20 -9 11 0 20 2 20 4 0 2 -9 6 -20 9 -11 3
-20 1 -20 -4z"/>
<path d="M6180 3570 c0 -4 9 -10 20 -13 11 -3 20 -2 20 3 0 4 -9 10 -20 13
-11 3 -20 2 -20 -3z"/>
<path d="M6330 3570 c0 -5 5 -10 11 -10 5 0 7 5 4 10 -3 6 -8 10 -11 10 -2 0
-4 -4 -4 -10z"/>
<path d="M6360 3568 c0 -14 18 -17 34 -5 14 11 13 12 -9 12 -14 0 -25 -3 -25
-7z"/>
<path d="M6460 3570 c0 -5 7 -10 16 -10 8 0 12 5 9 10 -3 6 -10 10 -16 10 -5
0 -9 -4 -9 -10z"/>
<path d="M6857 3573 c-13 -12 -7 -24 11 -21 9 1 23 -1 30 -5 19 -12 14 4 -5
19 -21 15 -27 17 -36 7z"/>
<path d="M7178 3568 c-6 -13 1 -15 44 -12 29 2 54 7 57 10 3 3 -15 4 -41 2
-28 -3 -49 -1 -51 6 -2 5 -6 3 -9 -6z"/>
<path d="M7300 3565 c0 -9 5 -15 11 -13 6 2 11 8 11 13 0 5 -5 11 -11 13 -6 2
-11 -4 -11 -13z"/>
<path d="M7645 3571 c-3 -6 -12 -8 -20 -4 -8 3 -15 0 -15 -6 0 -6 4 -11 9 -11
5 0 16 -3 24 -6 8 -3 17 2 20 10 7 17 -8 32 -18 17z"/>
<path d="M8381 3563 c-7 -8 -10 -17 -7 -20 3 -4 6 -3 6 1 0 4 7 0 16 -9 11
-11 25 -14 38 -10 12 3 46 6 76 5 37 0 50 3 41 9 -11 7 -10 10 5 14 19 5 -47
11 -75 7 -8 -1 -18 4 -22 12 -6 9 -9 6 -10 -12 0 -14 -3 -19 -6 -12 -2 6 -11
12 -19 12 -8 0 -14 -6 -15 -12 -1 -7 -4 -3 -7 8 -6 19 -9 20 -21 7z m126 -19
c-3 -3 -12 -4 -19 -1 -8 3 -5 6 6 6 11 1 17 -2 13 -5z"/>
<path d="M8942 3555 c0 -16 2 -22 5 -12 2 9 2 23 0 30 -3 6 -5 -1 -5 -18z"/>
<path d="M9014 3569 c-3 -6 -15 -9 -25 -6 -10 3 -22 0 -26 -5 -4 -7 -1 -8 7
-3 9 6 12 4 8 -6 -4 -10 1 -15 13 -16 11 -1 17 3 13 8 -3 6 3 13 15 16 12 3
21 9 21 14 0 13 -17 11 -26 -2z"/>
<path d="M9521 3564 c0 -11 3 -14 6 -6 3 7 2 16 -1 19 -3 4 -6 -2 -5 -13z"/>
<path d="M9860 3572 c0 -7 -25 -12 -62 -15 -60 -3 -59 -3 17 -5 44 -1 76 2 70
6 -5 4 -13 11 -17 16 -5 5 -8 4 -8 -2z"/>
<path d="M6930 3556 c7 -7 13 -7 20 0 6 6 3 10 -10 10 -13 0 -16 -4 -10 -10z"/>
<path d="M8100 3552 c0 -14 2 -15 10 -2 5 8 10 10 10 4 0 -6 6 -11 13 -11 24
0 15 23 -10 25 -16 1 -23 -3 -23 -16z"/>
<path d="M8610 3560 c8 -5 22 -9 30 -9 10 0 8 3 -5 9 -27 12 -43 12 -25 0z"/>
<path d="M9251 3554 c0 -11 3 -14 6 -6 3 7 2 16 -1 19 -3 4 -6 -2 -5 -13z"/>
<path d="M10018 3559 c-21 -8 -26 -15 -23 -37 2 -15 4 -30 4 -34 1 -5 30 -8
66 -8 59 0 65 2 65 21 0 12 8 23 20 26 30 8 24 19 -19 31 -45 14 -76 14 -113
1z m96 -20 c-7 -12 -74 -12 -74 0 0 5 8 11 18 13 26 6 63 -3 56 -13z m1 -36
c3 -9 -8 -13 -35 -13 -27 0 -40 4 -40 13 0 17 68 17 75 0z"/>
<path d="M4978 3553 c6 -2 18 -2 25 0 6 3 1 5 -13 5 -14 0 -19 -2 -12 -5z"/>
<path d="M8666 3549 c2 -4 -4 -10 -13 -12 -10 -3 -7 -4 8 -4 25 1 38 24 13 24
-7 0 -11 -4 -8 -8z"/>
<path d="M9031 3552 c-22 -7 -10 -21 19 -20 17 1 30 6 30 14 0 12 -22 15 -49
6z"/>
<path d="M9395 3550 l-80 -6 88 -2 c57 -1 86 2 82 8 -3 6 -7 9 -8 8 -1 -1 -38
-5 -82 -8z"/>
<path d="M5047 3529 c37 -23 63 -82 63 -141 0 -34 7 -48 39 -83 54 -58 79
-145 42 -145 -42 0 -221 -98 -221 -121 0 -6 15 -1 33 11 17 12 64 37 102 56
55 28 78 34 110 30 22 -2 32 -2 23 1 -13 3 -18 15 -18 41 0 46 -35 118 -71
144 -22 17 -27 26 -22 49 12 60 -55 179 -100 179 -7 0 2 -9 20 -21z"/>
<path d="M6361 3524 c-1 -6 2 -13 5 -17 8 -8 34 3 34 15 0 6 -6 6 -14 -1 -11
-9 -15 -9 -19 1 -3 7 -6 8 -6 2z"/>
<path d="M6460 3522 c0 -4 10 -9 22 -9 18 -2 20 0 8 7 -18 12 -30 13 -30 2z"/>
<path d="M7193 3522 c-13 -2 -23 -7 -23 -11 0 -12 138 -13 145 -1 4 6 -7 10
-27 11 -18 0 -42 2 -53 3 -11 1 -30 0 -42 -2z"/>
<path d="M6870 3509 c0 -5 5 -7 10 -4 6 3 10 8 10 11 0 2 -4 4 -10 4 -5 0 -10
-5 -10 -11z"/>
<path d="M6911 3510 c16 -9 65 -7 74 1 3 4 -15 6 -41 6 -26 0 -40 -3 -33 -7z"/>
<path d="M7006 3508 c3 -4 9 -8 15 -8 5 0 9 4 9 8 0 5 -7 9 -15 9 -8 0 -12 -4
-9 -9z"/>
<path d="M7330 3510 c0 -5 9 -10 20 -10 11 0 20 5 20 10 0 6 -9 10 -20 10 -11
0 -20 -4 -20 -10z"/>
<path d="M9738 3513 c12 -2 32 -2 45 0 12 2 2 4 -23 4 -25 0 -35 -2 -22 -4z"/>
<path d="M8050 3500 c0 -5 5 -10 10 -10 6 0 10 5 10 10 0 6 -4 10 -10 10 -5 0
-10 -4 -10 -10z"/>
<path d="M8084 3495 c-4 -9 -19 -15 -36 -15 -20 0 -27 -4 -23 -12 4 -7 0 -6
-7 3 -9 12 -20 14 -35 8 -15 -6 -27 -4 -37 6 -19 20 -21 19 -21 -10 0 -21 4
-25 28 -23 15 1 27 6 27 10 0 5 9 3 19 -4 10 -6 17 -19 14 -27 -3 -11 0 -10
11 3 12 15 27 19 61 17 28 -1 45 2 45 9 0 6 5 8 10 5 6 -3 10 -1 10 4 0 6 -13
11 -30 11 -22 0 -28 4 -24 15 4 8 3 15 0 15 -4 0 -9 -7 -12 -15z m13 -31 c-3
-3 -12 -4 -19 -1 -8 3 -5 6 6 6 11 1 17 -2 13 -5z"/>
<path d="M8190 3501 c-14 -5 -27 -51 -15 -51 3 0 10 10 15 23 9 22 9 22 10 -3
l1 -25 10 24 c11 27 1 42 -21 32z"/>
<path d="M9333 3503 c15 -2 37 -2 50 0 12 2 0 4 -28 4 -27 0 -38 -2 -22 -4z"/>
<path d="M10223 3503 l67 -4 0 -74 0 -74 -152 -4 -153 -3 158 -2 157 -2 0 85
0 85 -72 -2 -73 -2 68 -3z"/>
<path d="M7955 3490 c3 -5 8 -10 11 -10 2 0 4 5 4 10 0 6 -5 10 -11 10 -5 0
-7 -4 -4 -10z"/>
<path d="M8226 3483 c-10 -25 -7 -33 13 -33 28 0 33 14 11 32 -16 15 -19 15
-24 1z"/>
<path d="M8940 3464 c0 -23 3 -25 31 -20 41 6 59 -2 52 -22 -4 -12 1 -10 16 6
12 12 26 20 32 17 5 -4 9 1 9 9 0 19 -21 21 -38 4 -9 -9 -13 -7 -18 6 -5 13
-9 14 -20 5 -11 -9 -15 -8 -20 5 -3 9 -15 16 -25 16 -14 0 -19 -7 -19 -26z
m27 1 c0 -8 -4 -15 -9 -15 -4 0 -8 7 -8 15 0 8 4 15 8 15 5 0 9 -7 9 -15z"/>
<path d="M7650 3459 c0 -22 5 -24 48 -27 34 -2 43 0 32 8 -10 6 -11 10 -2 10
6 0 12 4 12 9 0 12 -54 21 -58 10 -3 -6 -10 -5 -18 2 -11 9 -14 7 -14 -12z"/>
<path d="M6841 3453 c0 -12 2 -14 6 -4 5 11 7 11 15 0 8 -12 9 -12 6 0 -6 22
-28 25 -27 4z"/>
<path d="M6880 3458 c0 -19 17 -27 43 -20 21 5 23 19 2 19 -8 0 -15 -5 -15
-11 0 -5 -7 -1 -15 10 -12 16 -14 17 -15 2z"/>
<path d="M7170 3451 c0 -14 2 -14 10 -1 5 8 10 10 10 5 0 -6 16 -12 35 -13 28
-2 33 0 29 13 -5 12 -9 13 -20 4 -8 -6 -14 -8 -14 -3 0 5 -11 10 -25 10 -17 1
-25 -3 -25 -15z"/>
<path d="M7353 3455 c0 -8 4 -15 9 -15 4 0 8 4 8 9 0 6 -4 12 -8 15 -5 3 -9
-1 -9 -9z"/>
<path d="M7590 3453 c0 -26 34 -33 43 -8 7 18 -9 30 -16 13 -4 -10 -8 -9 -16
2 -9 12 -11 11 -11 -7z"/>
<path d="M8376 3463 c-3 -4 -6 -14 -6 -23 0 -13 12 -16 65 -18 42 -1 65 2 65
9 0 8 4 8 14 0 11 -10 15 -8 19 6 4 17 5 17 6 1 0 -10 5 -18 10 -18 5 0 12 8
14 18 4 16 5 15 6 -1 2 -32 90 -17 91 16 0 4 -40 7 -89 6 -49 -1 -94 2 -100 6
-7 4 -18 1 -26 -5 -8 -7 -15 -9 -15 -4 0 5 -5 2 -10 -6 -5 -8 -10 -10 -10 -4
0 14 -25 26 -34 17z m107 -20 c-7 -2 -19 -2 -25 0 -7 3 -2 5 12 5 14 0 19 -2
13 -5z"/>
<path d="M8670 3449 c0 -22 5 -24 48 -27 30 -1 42 1 33 7 -11 7 -11 10 0 17 9
5 4 10 -16 16 -19 5 -31 4 -33 -3 -3 -6 -9 -6 -18 2 -11 9 -14 7 -14 -12z"/>
<path d="M10418 3464 c-3 -3 -4 -14 -1 -25 7 -27 63 -26 86 1 16 19 16 21 1
27 -9 3 -19 1 -23 -4 -3 -6 -13 -13 -21 -17 -8 -3 -5 -4 8 -2 12 2 22 0 22 -5
0 -5 -12 -9 -26 -9 -21 0 -24 4 -19 20 6 19 -13 29 -27 14z"/>
<path d="M10530 3444 c0 -31 23 -28 28 4 2 15 -2 22 -12 22 -11 0 -16 -9 -16
-26z"/>
<path d="M10583 3463 c-7 -3 -13 -14 -12 -26 0 -21 1 -21 9 -2 5 11 9 14 9 8
1 -7 8 -13 17 -13 8 0 12 -4 9 -10 -13 -20 14 -9 29 12 11 15 16 18 16 8 0
-13 2 -13 10 0 6 10 10 11 10 3 0 -7 5 -13 11 -13 6 0 9 6 7 12 -6 17 -48 26
-75 17 -12 -4 -23 -4 -25 0 -2 4 -9 6 -15 4z"/>
<path d="M7275 3450 c-3 -5 -1 -10 4 -10 6 0 11 5 11 10 0 6 -2 10 -4 10 -3 0
-8 -4 -11 -10z"/>
<path d="M7560 3445 c0 -8 5 -15 10 -15 6 0 10 7 10 15 0 8 -4 15 -10 15 -5 0
-10 -7 -10 -15z"/>
<path d="M6193 3430 c-1 -11 2 -20 5 -20 4 0 8 9 9 20 1 11 -2 20 -5 20 -4 0
-8 -9 -9 -20z"/>
<path d="M6252 3430 c0 -14 2 -19 5 -12 2 6 2 18 0 25 -3 6 -5 1 -5 -13z"/>
<path d="M9565 3440 l-30 -8 33 -1 c17 0 32 4 32 9 0 6 -1 9 -2 9 -2 -1 -16
-5 -33 -9z"/>
<path d="M9994 3439 c-7 -13 14 -39 32 -39 22 0 16 37 -6 43 -11 3 -23 1 -26
-4z"/>
<path d="M10050 3428 c0 -14 8 -18 40 -18 29 0 40 4 40 15 0 8 -8 15 -17 16
-10 0 -28 2 -40 3 -17 2 -23 -3 -23 -16z"/>
<path d="M10170 3428 c0 -19 2 -20 10 -8 13 19 13 30 0 30 -5 0 -10 -10 -10
-22z"/>
<path d="M10196 3435 c-9 -24 -7 -32 4 -15 5 8 10 10 10 5 0 -6 9 -11 20 -12
11 -1 20 4 20 13 0 8 -4 14 -9 14 -5 0 -16 3 -24 6 -8 3 -17 -2 -21 -11z"/>
<path d="M9210 3429 l-35 -6 38 -2 37 -1 1 -72 c1 -40 4 -62 6 -48 2 14 6 31
8 38 3 7 5 16 5 20 1 4 11 12 23 19 12 7 16 12 9 13 -7 0 -10 5 -7 11 4 6 0 9
-8 7 -9 -2 -22 4 -29 13 -10 11 -22 13 -48 8z"/>
<path d="M9754 3424 c9 -24 -2 -36 -24 -24 -11 6 -21 6 -24 1 -7 -11 41 -24
54 -16 14 9 12 55 -1 55 -6 0 -8 -7 -5 -16z"/>
<path d="M9825 3430 c-11 -4 -23 -6 -27 -3 -5 2 -8 -3 -8 -11 0 -9 9 -16 20
-16 11 0 20 6 20 13 0 9 3 8 9 -2 5 -7 11 -9 14 -4 10 16 -7 31 -28 23z"/>
<path d="M9872 3431 c-8 -4 -13 -11 -13 -15 3 -21 -3 -25 -36 -29 -29 -3 -26
-4 17 -5 34 -1 50 2 41 7 -10 6 -10 10 -1 13 7 2 11 11 9 21 -3 11 -8 14 -17
8z"/>
<path d="M10140 3425 c0 -8 2 -15 4 -15 2 0 6 7 10 15 3 8 1 15 -4 15 -6 0
-10 -7 -10 -15z"/>
<path d="M9724 3415 c21 -16 32 -13 21 4 -3 6 -14 11 -23 11 -15 -1 -15 -2 2
-15z"/>
<path d="M9420 3405 c-1 -11 -4 -14 -7 -7 -2 6 -9 12 -14 12 -6 0 -8 -4 -5 -9
4 -5 0 -12 -6 -14 -11 -5 13 -11 33 -9 3 1 5 -7 5 -16 0 -9 1 -38 2 -64 2 -47
2 -48 35 -47 30 2 30 2 5 6 -27 4 -28 7 -29 61 -1 60 -15 126 -19 87z"/>
<path d="M9600 3394 c0 -20 5 -31 15 -31 8 0 12 4 9 9 -3 4 2 8 10 8 18 0 20
8 7 29 -6 10 -10 10 -16 1 -6 -9 -10 -9 -16 1 -6 10 -9 4 -9 -17z"/>
<path d="M8047 3388 c-2 -7 -1 -22 3 -33 6 -16 8 -13 7 13 0 35 -2 39 -10 20z"/>
<path d="M9185 3391 c3 -6 11 -9 16 -6 5 4 9 0 9 -8 0 -8 -8 -18 -17 -22 -16
-6 -16 -8 5 -25 22 -19 32 -47 10 -34 -7 4 -8 3 -4 -4 4 -7 0 -12 -11 -13 -11
0 -13 -3 -5 -6 34 -13 57 47 25 66 -11 7 -13 11 -5 11 21 0 10 44 -12 48 -11
3 -16 0 -11 -7z"/>
<path d="M7932 3365 c-1 -18 3 -25 16 -25 13 0 14 2 4 9 -11 7 -11 9 2 14 9 4
16 2 16 -4 0 -6 4 -8 9 -5 5 4 12 0 14 -6 3 -7 6 -5 6 6 1 18 2 18 21 1 11
-10 20 -13 20 -7 0 7 -5 12 -11 12 -5 0 -7 5 -3 12 4 7 3 8 -4 4 -7 -4 -12 -1
-12 6 0 9 -3 9 -10 -2 -8 -12 -13 -13 -30 -2 -29 17 -35 15 -38 -13z"/>
<path d="M8160 3376 c-6 -6 -10 -15 -10 -20 0 -6 5 -4 10 4 8 12 10 12 11 -5
l0 -20 9 20 c7 17 9 17 9 3 1 -19 21 -20 33 -3 14 19 8 28 -9 14 -15 -12 -16
-12 -10 3 4 12 1 16 -14 15 -10 -1 -24 -6 -29 -11z"/>
<path d="M9054 3369 c-9 -20 -11 -20 -26 -5 -12 12 -18 13 -21 3 -3 -9 -9 -9
-26 1 -30 17 -36 15 -39 -13 -1 -18 3 -25 16 -25 13 0 14 2 4 9 -11 7 -11 9 2
14 9 4 16 2 16 -3 0 -6 3 -9 8 -9 24 4 34 -3 28 -18 -6 -17 -5 -17 7 -1 8 10
17 15 20 11 4 -3 7 -1 7 6 0 7 4 10 9 7 5 -3 9 6 9 19 0 30 -2 31 -14 4z"/>
<path d="M10488 3383 c39 -2 105 -2 145 0 39 1 7 3 -73 3 -80 0 -112 -2 -72
-3z"/>
<path d="M7006 3364 c-3 -8 -10 -12 -16 -9 -12 7 -26 -22 -16 -33 4 -3 12 0
17 8 8 11 12 12 16 3 9 -24 23 -13 23 17 0 32 -14 40 -24 14z"/>
<path d="M7588 3363 c-6 -7 -15 -10 -21 -6 -5 3 -7 1 -4 -5 8 -11 25 -11 44 1
6 4 19 4 30 1 14 -5 15 -4 4 4 -11 8 -10 11 5 15 10 3 4 4 -14 4 -18 -1 -38
-7 -44 -14z"/>
<path d="M9450 3365 c0 -8 5 -15 10 -15 6 0 10 7 10 15 0 8 -4 15 -10 15 -5 0
-10 -7 -10 -15z"/>
<path d="M9490 3362 c0 -9 13 -12 45 -10 25 2 45 6 45 11 0 4 -6 7 -12 8 -63
5 -78 4 -78 -9z"/>
<path d="M10028 3373 c23 -2 59 -2 80 0 20 2 1 4 -43 4 -44 0 -61 -2 -37 -4z"/>
<path d="M7082 3345 c0 -16 2 -22 5 -12 2 9 2 23 0 30 -3 6 -5 -1 -5 -18z"/>
<path d="M7120 3345 c0 -23 4 -25 41 -25 33 0 69 17 69 32 0 2 -17 2 -39 0
-21 -2 -42 1 -45 7 -12 19 -26 12 -26 -14z"/>
<path d="M8091 3353 c0 -13 2 -14 6 -4 3 8 8 9 12 3 4 -6 11 -5 19 4 11 12 9
14 -13 14 -17 0 -25 -5 -24 -17z"/>
<path d="M8373 3345 c0 -14 4 -28 8 -31 5 -3 6 -10 3 -16 -4 -7 -2 -8 5 -4 9
6 9 11 0 22 -9 11 -7 14 15 14 19 0 25 -4 20 -12 -4 -7 1 -6 12 3 11 9 35 14
60 13 28 -1 41 2 41 12 0 7 -5 10 -11 7 -20 -13 -47 -10 -42 4 7 16 -6 17 -22
1 -7 -7 -12 -8 -12 -4 0 5 -8 2 -17 -5 -11 -9 -14 -10 -9 -2 5 9 2 11 -7 7 -8
-3 -18 -1 -22 5 -11 19 -22 12 -22 -14z"/>
<path d="M8626 3358 c3 -5 10 -6 15 -3 13 9 11 12 -6 12 -8 0 -12 -4 -9 -9z"/>
<path d="M9370 3355 c-6 -8 -10 -22 -7 -32 4 -14 5 -13 6 5 1 13 10 26 24 32
15 6 17 9 6 9 -9 1 -22 -6 -29 -14z"/>
<path d="M9649 3366 c-1 -3 -3 -10 -4 -16 -1 -5 -3 -16 -4 -22 -2 -7 -7 -4
-12 7 -8 18 -9 19 -6 1 1 -12 11 -20 27 -22 14 -1 19 0 13 2 -9 4 -10 11 -3
24 7 13 7 21 0 25 -5 3 -11 4 -11 1z"/>
<path d="M6196 3345 c4 -8 7 -15 9 -15 2 0 5 7 9 15 3 9 0 15 -9 15 -9 0 -12
-6 -9 -15z"/>
<path d="M6260 3345 c0 -6 6 -12 13 -12 8 0 14 6 14 12 0 6 -6 12 -14 12 -7 0
-13 -6 -13 -12z"/>
<path d="M6337 3353 c-12 -11 -8 -23 8 -23 8 0 15 6 15 13 0 8 4 7 10 -3 8
-13 10 -12 10 3 0 17 -30 24 -43 10z"/>
<path d="M6410 3349 c0 -7 36 -19 58 -19 6 0 12 6 12 14 0 11 -10 14 -35 13
-19 -1 -35 -5 -35 -8z"/>
<path d="M7102 3340 c0 -14 2 -19 5 -12 2 6 2 18 0 25 -3 6 -5 1 -5 -13z"/>
<path d="M8565 3349 c-10 -15 1 -23 20 -15 9 3 13 10 10 16 -8 13 -22 13 -30
-1z"/>
<path d="M9294 3345 c-18 -14 -18 -15 5 -22 23 -6 24 -7 5 -15 -18 -8 -18 -8
0 -5 12 1 20 11 21 25 2 30 -7 35 -31 17z"/>
<path d="M6930 3341 c0 -6 4 -13 10 -16 6 -3 7 1 4 9 -7 18 -14 21 -14 7z"/>
<path d="M7251 3334 c0 -11 3 -14 6 -6 3 7 2 16 -1 19 -3 4 -6 -2 -5 -13z"/>
<path d="M7270 3335 c0 -11 11 -15 40 -15 29 0 40 4 40 15 0 8 -8 15 -17 15
-15 0 -16 -2 -3 -10 13 -8 12 -10 -2 -10 -10 0 -18 5 -18 10 0 6 -9 10 -20 10
-11 0 -20 -7 -20 -15z"/>
<path d="M9380 3335 c0 -8 4 -15 9 -15 5 0 11 7 15 15 3 9 0 15 -9 15 -8 0
-15 -7 -15 -15z"/>
<path d="M6023 3290 c0 -30 2 -43 4 -27 2 15 2 39 0 55 -2 15 -4 2 -4 -28z"/>
<path d="M8000 3330 c-9 -6 -10 -10 -3 -10 6 0 15 5 18 10 8 12 4 12 -15 0z"/>
<path d="M9520 3325 c0 -8 7 -15 15 -15 8 0 15 4 15 9 0 5 -7 11 -15 15 -9 3
-15 0 -15 -9z"/>
<path d="M6261 3283 c8 -14 16 -18 20 -11 4 7 8 6 12 -3 3 -8 6 -3 6 10 1 18
-2 21 -12 12 -10 -8 -17 -7 -26 2 -10 9 -10 7 0 -10z"/>
<path d="M8060 3290 c0 -5 -3 -9 -7 -9 -23 4 -33 -3 -33 -22 0 -17 4 -20 23
-15 12 3 34 6 48 6 18 0 28 6 32 20 6 23 -12 39 -23 20 -5 -9 -9 -9 -14 -1 -9
14 -26 14 -26 1z"/>
<path d="M8233 3293 c-33 -6 -31 -43 2 -43 20 0 25 5 25 25 0 14 -1 24 -2 24
-2 -1 -13 -4 -25 -6z"/>
<path d="M6337 3275 c3 -8 9 -12 14 -9 12 7 11 11 -5 17 -10 4 -13 1 -9 -8z"/>
<path d="M7920 3270 c0 -15 7 -20 29 -20 35 0 49 26 18 34 -37 10 -47 7 -47
-14z"/>
<path d="M8135 3282 c-13 -13 -3 -32 16 -32 18 0 49 21 49 34 0 6 -58 5 -65
-2z"/>
<path d="M9012 3265 c0 -16 2 -22 5 -12 2 9 2 23 0 30 -3 6 -5 -1 -5 -18z"/>
<path d="M9072 3265 c0 -16 2 -22 5 -12 2 9 2 23 0 30 -3 6 -5 -1 -5 -18z"/>
<path d="M7600 3270 c0 -5 5 -10 11 -10 5 0 7 -5 3 -12 -4 -7 -3 -8 5 -4 9 6
9 11 0 22 -14 17 -19 18 -19 4z"/>
<path d="M7630 3273 c0 -5 5 -15 10 -23 8 -12 10 -11 10 8 0 12 -4 22 -10 22
-5 0 -10 -3 -10 -7z"/>
<path d="M8001 3264 c0 -11 3 -14 6 -6 3 7 2 16 -1 19 -3 4 -6 -2 -5 -13z"/>
<path d="M8388 3272 c-11 -2 -18 -12 -18 -25 0 -18 2 -19 10 -7 9 13 11 13 20
0 9 -13 13 -12 26 5 16 20 16 20 9 -2 -7 -26 2 -29 27 -10 32 25 26 40 -17 41
-22 1 -48 0 -57 -2z"/>
<path d="M8496 3264 c-4 -10 -1 -21 5 -25 15 -9 39 -1 39 13 0 6 6 5 15 -2 14
-12 35 -6 35 10 0 6 -10 9 -22 8 -13 -1 -33 2 -44 6 -16 5 -23 2 -28 -10z"/>
<path d="M8620 3271 c0 -6 5 -11 11 -11 5 0 8 -3 6 -8 -3 -4 8 -7 24 -7 16 -1
29 3 29 8 0 4 5 5 12 1 7 -5 8 -3 4 5 -5 7 -14 10 -21 7 -7 -2 -18 1 -24 7 -8
8 -11 8 -11 -2 0 -11 -3 -11 -15 -1 -10 9 -15 9 -15 1z"/>
<path d="M8930 3260 c0 -15 7 -20 29 -20 17 0 31 6 35 16 9 24 9 24 -29 24
-28 0 -35 -4 -35 -20z"/>
<path d="M9030 3263 c0 -8 5 -11 10 -8 6 3 10 2 10 -4 0 -5 -6 -12 -12 -14 -8
-3 -6 -6 5 -6 11 -1 17 6 17 22 0 14 -6 24 -15 24 -8 0 -15 -7 -15 -14z"/>
<path d="M6750 3106 c0 -159 1 -165 22 -180 19 -14 68 -16 335 -16 386 0 353
-16 353 170 0 83 -4 130 -10 130 -6 0 -13 -7 -16 -15 -4 -8 -12 -15 -20 -15
-8 0 -14 -5 -14 -12 0 -7 -11 -22 -24 -33 -23 -20 -62 -24 -118 -13 -7 2 -14
-7 -16 -20 -2 -14 -14 -27 -29 -33 -32 -12 -127 -15 -171 -5 -27 6 -31 10 -21
22 14 17 33 19 23 2 -5 -8 -2 -9 10 -5 10 4 26 7 37 7 12 0 19 7 19 19 0 24
-13 28 -75 25 -59 -3 -88 3 -79 18 4 6 -1 8 -12 6 -11 -2 -18 -11 -18 -21 1
-9 -2 -17 -7 -17 -5 0 -9 4 -9 10 0 5 -7 6 -17 3 -9 -4 -14 -2 -11 3 3 5 0 15
-8 22 -11 10 -14 10 -14 0 -1 -8 -7 -5 -16 7 -8 11 -12 26 -9 34 4 11 3 11 -9
2 -13 -11 -16 -8 -22 13 -3 14 -10 26 -15 26 -5 0 -9 7 -9 15 0 8 -7 15 -15
15 -13 0 -15 -25 -15 -164z m256 -15 c-4 -6 -18 -10 -31 -9 -13 1 -21 6 -19
10 3 4 11 5 19 1 10 -3 15 1 15 13 0 13 3 15 11 7 6 -6 8 -16 5 -22z"/>
<path d="M7401 3254 c0 -11 3 -14 6 -6 3 7 2 16 -1 19 -3 4 -6 -2 -5 -13z"/>
<path d="M7661 3254 c0 -11 3 -14 6 -6 3 7 2 16 -1 19 -3 4 -6 -2 -5 -13z"/>
<path d="M7681 3254 c0 -11 3 -14 6 -6 3 7 2 16 -1 19 -3 4 -6 -2 -5 -13z"/>
<path d="M6873 3243 c-7 -2 -13 -14 -13 -25 0 -14 5 -18 16 -14 9 3 20 6 25 6
6 0 7 5 4 10 -3 6 0 10 7 10 9 0 9 3 -2 10 -16 11 -19 11 -37 3z"/>
<path d="M6933 3228 c-1 -14 6 -18 28 -18 16 0 29 5 29 10 0 6 5 10 10 10 6 0
10 -8 10 -17 0 -13 3 -14 12 -5 8 8 15 8 24 1 8 -7 14 -7 19 1 9 15 -5 32 -21
26 -8 -3 -14 -2 -14 2 0 4 -22 7 -48 7 -39 1 -48 -2 -49 -17z"/>
<path d="M7081 3222 c0 -24 1 -24 8 -7 l8 20 5 -20 c5 -19 6 -19 7 1 0 12 -6
24 -14 28 -11 4 -15 -2 -14 -22z"/>
<path d="M7123 3234 c-3 -8 -1 -20 5 -26 7 -7 10 -2 9 16 -2 30 -5 32 -14 10z"/>
<path d="M9238 3243 c7 -3 16 -2 19 1 4 3 -2 6 -13 5 -11 0 -14 -3 -6 -6z"/>
<path d="M6630 3200 c-7 -22 -19 -40 -25 -40 -7 0 -15 -9 -18 -20 -3 -11 -9
-20 -14 -19 -16 4 -43 -13 -43 -27 0 -8 -10 -14 -25 -14 -14 0 -25 -4 -25 -10
0 -5 -8 -6 -17 -3 -13 5 -15 2 -10 -11 4 -10 3 -15 -3 -11 -6 3 -10 0 -10 -7
0 -8 -4 -7 -11 4 -5 10 -16 15 -25 11 -13 -5 -15 -1 -10 18 l6 24 -12 -23 c-6
-13 -17 -21 -25 -18 -7 3 -13 0 -13 -6 0 -7 -4 -7 -14 1 -8 7 -17 8 -20 3 -8
-13 -80 -6 -84 8 -3 7 -10 6 -23 -6 -15 -14 -21 -15 -34 -4 -9 7 -18 10 -22 7
-3 -4 -12 1 -20 11 -10 11 -12 12 -8 2 4 -10 2 -9 -8 3 -8 9 -20 17 -28 17
-15 1 -99 76 -99 89 0 5 -7 11 -15 15 -8 3 -15 13 -16 23 0 16 -1 16 -9 -2 -5
-11 -9 -75 -9 -142 -1 -178 -33 -163 354 -163 302 0 316 1 335 20 18 18 20 33
20 165 0 80 -2 145 -3 145 -2 0 -10 -18 -17 -40z"/>
<path d="M7152 3223 c2 -9 9 -18 17 -21 8 -3 11 0 7 7 -4 6 -2 11 3 11 6 0 11
-4 11 -10 0 -17 14 -11 28 10 11 19 10 20 -29 20 -32 0 -40 -3 -37 -17z"/>
<path d="M7247 3233 c-14 -13 -6 -33 13 -33 12 0 20 7 21 18 0 14 2 14 9 -3 8
-19 9 -19 9 3 1 17 -5 22 -22 22 -13 0 -27 -3 -30 -7z"/>
<path d="M7317 3234 c-14 -14 -7 -34 12 -34 12 0 18 6 17 17 -3 19 -18 27 -29
17z"/>
<path d="M9768 3215 c-4 -4 -4 -13 -2 -20 3 -7 1 -16 -4 -19 -5 -3 -9 2 -8 11
0 10 -7 19 -19 21 -19 3 -19 2 -2 -12 18 -14 18 -14 0 -18 -16 -3 -15 -5 3
-10 30 -8 46 5 42 32 -1 12 -6 19 -10 15z"/>
<path d="M6203 3203 c-7 -3 -13 -12 -13 -21 0 -14 2 -14 9 -3 6 9 10 10 12 2
5 -13 39 -4 39 10 0 14 -20 11 -21 -3 0 -8 -3 -6 -7 3 -4 9 -13 14 -19 12z"/>
<path d="M6260 3188 c0 -10 5 -18 10 -18 6 0 10 6 10 13 0 7 3 8 8 2 13 -18
59 -17 66 1 5 13 1 16 -24 12 -16 -3 -30 -2 -30 2 0 3 -9 6 -20 6 -13 0 -20
-7 -20 -18z"/>
<path d="M9800 3193 c0 -7 9 -13 20 -13 11 0 20 6 20 14 0 9 -9 14 -20 13 -11
-1 -20 -7 -20 -14z"/>
<path d="M9855 3200 c-3 -5 -4 -14 0 -19 3 -5 -9 -12 -27 -14 -27 -3 -24 -4
13 -5 44 -2 46 -1 41 23 -5 26 -16 32 -27 15z"/>
<path d="M10029 3193 c-11 -15 -11 -16 1 -5 17 14 76 16 85 2 3 -5 11 -10 18
-10 6 0 2 7 -9 15 -27 20 -79 19 -95 -2z"/>
<path d="M4970 3187 c0 -7 5 -18 12 -25 9 -9 9 -18 -1 -38 -11 -24 -10 -26 3
-15 22 19 29 47 16 71 -12 22 -30 27 -30 7z"/>
<path d="M6160 3185 c0 -8 5 -15 10 -15 6 0 10 7 10 15 0 8 -4 15 -10 15 -5 0
-10 -7 -10 -15z"/>
<path d="M6370 3185 c0 -18 16 -20 23 -2 4 10 6 10 6 0 1 -7 8 -13 16 -13 29
0 15 25 -15 27 -21 2 -30 -2 -30 -12z"/>
<path d="M8204 3189 c-4 -8 -3 -10 4 -5 16 10 16 -26 0 -42 -9 -9 -5 -9 15 0
32 15 33 20 8 42 -14 13 -21 14 -27 5z"/>
<path d="M7925 3166 c0 -20 5 -24 32 -24 25 0 30 3 25 16 -3 10 -7 12 -10 4
-3 -9 -7 -8 -17 1 -7 7 -11 15 -8 20 2 4 -2 7 -9 7 -7 0 -13 -11 -13 -24z"/>
<path d="M8056 3183 c-4 -4 -19 -9 -34 -11 -33 -4 -33 -4 -21 -22 8 -13 12
-12 25 5 11 14 14 15 12 5 -3 -16 2 -20 27 -20 8 0 15 8 16 18 0 14 2 14 9 -3
l9 -20 1 20 c1 15 3 17 8 5 4 -8 14 -15 22 -15 8 0 21 7 28 15 12 13 13 13 8
-2 -4 -15 -2 -16 14 -6 10 7 16 16 14 20 -6 10 -43 6 -62 -5 -7 -5 -12 -5 -11
0 3 20 -2 25 -15 14 -10 -8 -16 -9 -21 -1 -7 12 -19 13 -29 3z m11 -25 c-3 -8
-6 -5 -6 6 -1 11 2 17 5 13 3 -3 4 -12 1 -19z"/>
<path d="M8250 3183 c0 -5 5 -15 10 -23 8 -12 10 -11 10 8 0 12 -4 22 -10 22
-5 0 -10 -3 -10 -7z"/>
<path d="M8400 3180 c-8 -5 -18 -6 -22 -4 -4 3 -8 1 -8 -5 0 -5 6 -12 13 -14
10 -4 10 -6 0 -6 -10 -1 -13 -28 -13 -101 0 -151 -27 -140 351 -140 195 0 318
4 330 10 20 11 26 45 9 55 -6 4 -7 11 -4 17 4 7 2 8 -4 4 -6 -4 -9 -13 -6 -21
4 -9 -4 -19 -20 -26 -14 -7 -26 -16 -26 -21 0 -4 -71 -8 -157 -8 -156 0 -158
0 -220 31 -52 26 -63 36 -63 56 0 20 -4 23 -21 18 -23 -8 -43 12 -60 57 -9 23
-15 27 -37 22 -15 -3 -23 -2 -17 3 15 12 19 47 4 37 -8 -5 -11 -2 -7 8 9 22
-5 39 -22 28z m13 -25 c-3 -9 -8 -14 -10 -11 -3 3 -2 9 2 15 9 16 15 13 8 -4z
m52 -65 c3 -5 -1 -10 -10 -10 -9 0 -13 5 -10 10 3 6 8 10 10 10 2 0 7 -4 10
-10z"/>
<path d="M10640 3180 c0 -5 9 -10 20 -10 11 0 20 5 20 10 0 6 -9 10 -20 10
-11 0 -20 -4 -20 -10z"/>
<path d="M8454 3172 c-7 -4 -8 -15 -3 -27 7 -19 8 -19 8 3 1 15 5 21 13 16 7
-4 8 -3 4 4 -8 14 -8 14 -22 4z"/>
<path d="M8930 3161 c0 -13 6 -19 19 -18 15 1 17 4 7 19 -14 24 -26 23 -26 -1z"/>
<path d="M8960 3173 c0 -10 28 -32 34 -26 11 11 6 21 -14 26 -11 3 -20 3 -20
0z"/>
<path d="M9012 3160 c0 -14 2 -19 5 -12 2 6 2 18 0 25 -3 6 -5 1 -5 -13z"/>
<path d="M9052 3169 c-14 -5 -22 -16 -20 -26 5 -26 28 -28 28 -1 0 18 2 20 10
8 8 -12 10 -11 10 8 0 12 -1 22 -2 21 -2 0 -13 -4 -26 -10z m-5 -31 c-3 -8 -6
-5 -6 6 -1 11 2 17 5 13 3 -3 4 -12 1 -19z"/>
<path d="M10065 3170 c-11 -17 5 -32 21 -19 7 6 11 15 8 20 -7 12 -21 11 -29
-1z"/>
<path d="M7582 3145 c0 -16 2 -22 5 -12 2 9 2 23 0 30 -3 6 -5 -1 -5 -18z"/>
<path d="M8491 3154 c-1 -16 5 -21 24 -21 21 0 23 2 14 18 -5 11 -12 19 -15
19 -3 0 -3 -4 1 -9 3 -5 1 -12 -4 -15 -5 -4 -12 2 -14 11 -4 15 -5 14 -6 -3z"/>
<path d="M8602 3150 c0 -14 2 -19 5 -12 2 6 2 18 0 25 -3 6 -5 1 -5 -13z"/>
<path d="M10183 3095 c0 -44 2 -61 4 -37 2 23 2 59 0 80 -2 20 -4 1 -4 -43z"/>
<path d="M7631 3144 c0 -11 3 -14 6 -6 3 7 2 16 -1 19 -3 4 -6 -2 -5 -13z"/>
<path d="M8542 3148 c3 -7 12 -14 21 -16 12 -2 15 1 11 12 -7 19 -38 22 -32 4z"/>
<path d="M8650 3149 c0 -5 -4 -7 -10 -4 -5 3 -10 1 -10 -4 0 -6 7 -11 15 -11
8 0 15 7 15 15 0 8 -2 15 -5 15 -3 0 -5 -5 -5 -11z"/>
<path d="M10018 3153 c6 -2 18 -2 25 0 6 3 1 5 -13 5 -14 0 -19 -2 -12 -5z"/>
<path d="M10118 3153 c6 -2 18 -2 25 0 6 3 1 5 -13 5 -14 0 -19 -2 -12 -5z"/>
<path d="M7120 3115 c0 -14 5 -25 10 -25 6 0 10 11 10 25 0 14 -4 25 -10 25
-5 0 -10 -11 -10 -25z"/>
<path d="M8236 3125 c6 -15 -5 -19 -36 -15 -12 1 -12 -1 2 -12 16 -12 14 -15
-18 -38 -20 -14 -53 -39 -73 -56 -58 -50 -137 -83 -211 -87 -36 -2 24 -4 133
-5 243 -2 237 -5 237 121 0 56 -3 77 -10 67 -6 -9 -10 -10 -10 -3 0 6 5 15 10
18 13 8 3 25 -15 25 -9 0 -12 -6 -9 -15z"/>
<path d="M5274 3121 c15 -6 10 -10 -25 -20 -60 -18 -152 -66 -221 -114 -57
-39 -58 -41 -58 -88 0 -27 4 -49 9 -49 5 0 30 10 57 22 40 18 73 23 174 26 69
2 129 8 133 12 5 4 2 19 -7 32 -9 14 -13 28 -9 31 3 4 -4 18 -17 32 -19 21
-21 25 -7 25 22 0 22 26 0 40 -13 8 -14 13 -5 16 28 12 4 45 -31 43 -7 0 -4
-4 7 -8z m20 -60 c4 -5 -13 -12 -36 -16 -84 -14 -282 -105 -265 -122 3 -3 19
4 35 16 79 56 227 93 266 66 19 -14 18 -15 -23 -15 -56 0 -149 -24 -226 -59
-48 -22 -62 -25 -62 -14 0 16 81 80 136 108 80 41 162 57 175 36z m20 -110
c16 -18 13 -18 -101 -23 -85 -4 -133 -11 -170 -26 -29 -11 -53 -18 -53 -16 0
8 97 51 140 62 40 10 63 14 146 20 11 1 28 -6 38 -17z"/>
<path d="M6167 3123 c-4 -3 -7 -13 -7 -20 0 -15 31 -14 42 2 5 6 8 4 8 -5 0
-13 1 -13 10 0 6 10 10 11 10 3 0 -7 5 -13 10 -13 6 0 10 6 10 14 0 17 -33 27
-51 15 -8 -4 -16 -4 -19 2 -4 5 -9 6 -13 2z"/>
<path d="M6260 3108 c0 -10 5 -18 10 -18 6 0 10 6 10 13 0 7 3 8 8 2 11 -16
60 -14 67 3 4 11 -1 13 -25 10 -16 -3 -30 -2 -30 2 0 3 -9 6 -20 6 -13 0 -20
-7 -20 -18z"/>
<path d="M7155 3122 c-11 -11 -4 -32 10 -32 8 0 15 6 15 13 0 8 4 7 10 -3 9
-13 11 -13 20 0 5 8 10 18 10 22 0 8 -57 8 -65 0z"/>
<path d="M10005 3121 c-3 -5 -2 -12 3 -15 5 -3 9 1 9 9 0 17 -3 19 -12 6z"/>
<path d="M10118 3123 c7 -3 16 -2 19 1 4 3 -2 6 -13 5 -11 0 -14 -3 -6 -6z"/>
<path d="M10615 3070 c0 -64 3 -66 59 -60 11 1 15 -3 12 -9 -4 -6 -14 -11 -22
-11 -10 0 -12 -5 -8 -12 5 -9 2 -8 -9 1 -10 8 -20 11 -24 7 -3 -3 -15 1 -25
11 -10 9 -18 12 -19 7 -1 -5 -7 9 -15 31 l-14 40 5 -35 c3 -19 6 -41 7 -47 1
-7 4 -13 8 -13 4 0 7 -7 7 -16 0 -15 -1 -15 -12 0 -7 8 -15 12 -20 8 -4 -4 -4
3 -1 15 4 12 2 24 -5 29 -7 4 -10 3 -7 -2 4 -5 -5 -29 -18 -54 -17 -34 -23
-40 -24 -23 0 21 -1 22 -37 7 -48 -21 -106 -24 -168 -12 -27 6 -60 11 -73 10
-18 0 -20 3 -11 14 7 9 7 14 1 14 -16 0 -24 -33 -10 -43 9 -6 8 -7 -5 -3 -10
3 -21 6 -23 6 -3 0 -2 5 1 10 3 6 1 10 -4 10 -16 0 -13 21 7 43 17 20 17 20
-8 5 -14 -9 -36 -19 -50 -22 -25 -6 -25 -6 -2 5 32 17 27 32 -8 24 -20 -4 -30
-3 -30 5 0 7 6 10 13 7 28 -11 40 9 30 49 -7 33 -13 39 -38 42 -29 3 -30 2
-30 -40 0 -24 5 -46 10 -50 6 -5 3 -8 -7 -8 -9 0 -20 5 -23 10 -4 6 -11 8 -16
5 -5 -3 -6 1 -3 9 4 9 1 16 -6 16 -21 0 -7 -110 15 -126 15 -11 85 -14 330
-14 331 0 336 1 350 49 6 20 5 23 -11 17 -17 -5 -17 -5 -3 7 12 9 16 28 15 77
l-1 65 -40 3 -40 3 0 -61z m65 30 c-6 -11 -17 -20 -24 -20 -9 0 -12 7 -9 20 3
11 14 20 25 20 16 0 17 -3 8 -20z m-588 -15 c0 -5 -5 -11 -11 -13 -6 -2 -11 4
-11 13 0 9 5 15 11 13 6 -2 11 -8 11 -13z m593 -26 c7 -10 -24 -53 -32 -45 -2
2 -6 15 -9 30 -3 21 0 26 15 26 11 0 23 -5 26 -11z m-585 -14 c0 -8 -7 -15
-15 -15 -8 0 -15 7 -15 15 0 8 7 15 15 15 8 0 15 -7 15 -15z m-35 -66 c11 -16
1 -19 -13 -3 -7 8 -8 14 -3 14 5 0 13 -5 16 -11z m82 -42 c0 -8 -6 -14 -13
-14 -7 0 -10 6 -7 14 3 7 8 13 12 13 4 0 8 -6 8 -13z m88 -7 c3 -5 2 -10 -4
-10 -5 0 -13 5 -16 10 -3 6 -2 10 4 10 5 0 13 -4 16 -10z"/>
<path d="M6110 3105 c0 -17 2 -18 24 -9 23 9 20 24 -4 24 -11 0 -20 -7 -20
-15z"/>
<path d="M6370 3111 c0 -15 59 -19 64 -4 4 9 -5 13 -29 13 -19 0 -35 -4 -35
-9z"/>
<path d="M5410 3085 c0 -1 6 -8 14 -14 10 -8 16 -8 24 1 8 10 4 13 -14 14 -13
1 -24 1 -24 -1z"/>
<path d="M9208 3008 c-40 -14 -37 -67 5 -89 17 -10 19 -9 13 7 -6 18 -5 18 8
2 7 -10 24 -18 37 -18 22 0 22 0 3 16 -16 13 -16 15 -1 10 13 -4 17 0 17 19 0
16 6 25 15 25 29 0 15 17 -24 28 -21 7 -40 12 -42 11 -2 0 -16 -5 -31 -11z
m49 -19 c-11 -7 -23 -7 -28 -2 -5 5 3 9 19 11 24 1 25 0 9 -9z m-17 -29 c0 -5
-4 -10 -10 -10 -5 0 -10 5 -10 10 0 6 5 10 10 10 6 0 10 -4 10 -10z m35 0 c-3
-5 -11 -10 -16 -10 -6 0 -7 5 -4 10 3 6 11 10 16 10 6 0 7 -4 4 -10z"/>
<path d="M7585 2961 c5 -16 4 -21 -4 -17 -16 10 -13 0 5 -18 12 -12 34 -16 97
-14 l82 1 -63 6 c-51 5 -68 11 -93 36 -30 27 -31 28 -24 6z"/>
<path d="M9363 2963 c56 -4 64 -10 58 -45 0 -5 4 -8 9 -8 11 0 12 6 4 38 -6
20 -12 22 -68 20 l-61 -2 58 -3z"/>
<path d="M9801 2951 c-6 -10 -21 -18 -36 -18 -13 0 -22 3 -19 8 9 15 -6 10
-23 -6 -14 -14 -17 -14 -30 2 -8 10 -12 12 -8 5 5 -10 -7 -11 -56 -7 -66 5
-103 -1 -94 -15 7 -11 315 -9 315 2 0 5 4 7 9 3 18 -10 24 17 8 33 -15 14 -17
14 -24 -4 -4 -10 -16 -20 -25 -20 -14 -1 -16 2 -7 17 5 11 7 19 5 19 -3 0 -10
-8 -15 -19z m-214 -27 c-3 -3 -12 -4 -19 -1 -8 3 -5 6 6 6 11 1 17 -2 13 -5z"/>
<path d="M9318 2936 c-23 -17 -23 -22 5 -23 12 0 16 1 9 4 -10 4 -10 8 -1 19
14 17 9 17 -13 0z"/>
<path d="M5302 2241 c-176 -61 -226 -280 -94 -412 46 -46 120 -79 177 -79 81
0 187 65 225 140 69 136 -4 311 -149 354 -69 20 -93 20 -159 -3z m175 -43
c152 -76 163 -283 20 -375 -36 -23 -53 -28 -113 -28 -60 0 -76 4 -112 28 -118
78 -136 234 -37 332 67 68 160 84 242 43z"/>
<path d="M5364 2135 c-4 -9 -2 -21 4 -27 15 -15 44 -1 40 19 -4 23 -36 29 -44
8z"/>
<path d="M5320 2045 c0 -9 9 -15 25 -15 23 0 24 -2 27 -82 3 -70 6 -83 21 -86
15 -3 17 7 17 97 l0 101 -45 0 c-33 0 -45 -4 -45 -15z"/>
<path d="M9336 2244 c-9 -8 -16 -29 -16 -45 0 -29 0 -29 -60 -29 -46 0 -60 -3
-60 -15 0 -7 8 -18 17 -24 14 -7 19 -37 30 -173 12 -155 14 -164 38 -185 24
-21 37 -23 130 -23 93 0 106 2 129 23 25 21 27 31 39 186 11 134 16 165 30
173 9 5 17 16 17 23 0 12 -14 15 -60 15 -60 0 -60 0 -60 29 0 47 -22 61 -95
61 -44 0 -68 -5 -79 -16z m134 -49 c0 -24 -3 -25 -55 -25 -52 0 -55 1 -55 25
0 24 3 25 55 25 52 0 55 -1 55 -25z m86 -107 c-3 -24 -8 -92 -12 -153 -4 -60
-11 -118 -16 -127 -7 -15 -24 -18 -113 -18 -89 0 -106 3 -113 18 -5 9 -12 67
-16 127 -4 61 -9 129 -12 153 l-6 42 147 0 147 0 -6 -42z"/>
<path d="M9356 2033 c-3 -3 -6 -39 -6 -80 0 -58 3 -73 15 -73 12 0 15 15 15
74 0 69 -8 95 -24 79z"/>
<path d="M9457 2034 c-4 -4 -7 -41 -7 -81 0 -55 3 -74 13 -71 7 3 13 29 15 73
3 64 -5 94 -21 79z"/>
<path d="M3312 2097 c-127 -127 -134 -136 -147 -193 -8 -32 -14 -74 -15 -91 0
-29 3 -33 28 -33 15 1 56 7 91 14 63 14 65 15 197 147 119 119 134 137 134
168 0 48 -73 121 -121 121 -31 0 -49 -15 -167 -133z m217 59 c35 -36 41 -47
33 -62 -6 -11 -59 -67 -119 -127 l-109 -107 -52 53 -52 53 118 117 c66 64 123
117 128 117 6 0 29 -20 53 -44z m-247 -317 c-4 -4 -27 -10 -51 -14 l-43 -7 7
43 c4 24 10 48 12 52 3 5 23 -8 44 -29 21 -21 36 -41 31 -45z"/>
<path d="M1204 2206 c-73 -32 -108 -150 -65 -219 26 -42 163 -174 196 -189 13
-6 35 -8 49 -4 33 8 190 157 210 200 63 133 -68 275 -191 206 l-40 -22 -34 21
c-39 24 -80 26 -125 7z m101 -40 c19 -8 35 -19 35 -24 0 -21 30 -19 56 3 38
33 76 40 113 20 55 -28 76 -97 46 -154 -16 -33 -173 -181 -190 -181 -17 0
-174 148 -190 181 -29 55 -9 125 43 153 34 19 45 19 87 2z"/>
<path d="M7471 2201 c-12 -12 -21 -30 -21 -40 0 -30 -134 -104 -183 -102 -49
2 -67 -12 -67 -54 0 -42 18 -56 67 -54 57 3 178 -70 187 -111 7 -38 41 -55 79
-41 35 13 45 53 22 87 -14 22 -22 25 -53 21 -30 -4 -51 3 -114 40 -43 25 -78
48 -78 51 1 16 19 31 85 69 56 32 77 39 106 36 30 -4 40 -1 53 18 29 42 14 82
-36 94 -19 5 -32 1 -47 -14z"/>
</g>
</svg>
