<svg xmlns="http://www.w3.org/2000/svg" xmlns:xlink="http://www.w3.org/1999/xlink" viewBox="0 0 110.8 54.7"><defs><style>.cls-1{fill:none;}.cls-2{clip-path:url(#clip-path);}.cls-3{fill:#fff;}</style><clipPath id="clip-path"><rect class="cls-1" x="-80.1" y="-79.8" width="271" height="216.8"/></clipPath></defs><g id="Layer_1" data-name="Layer 1"><g id="Group_96" data-name="Group 96"><g id="Group_94" data-name="Group 94"><g class="cls-2"><g id="Group_93" data-name="Group 93"><g id="Group_92" data-name="Group 92"><g class="cls-2"><g id="Group_91" data-name="Group 91"><path id="Path_14" data-name="Path 14" d="M55.4,42.9H22.2a16.6,16.6,0,0,1-3.2-.3l-3.2-.8A21.2,21.2,0,0,1,10.7,39a21.1,21.1,0,0,1-2.3-1.9l-2-2.4a18.9,18.9,0,0,1-1.9-3,28.1,28.1,0,0,1-1.6-4.9l-.3-2.3V21.7a17.6,17.6,0,0,1,.7-4,16.3,16.3,0,0,1,1.1-3.1A15.9,15.9,0,0,1,7,10.5L9.1,8.2a21.1,21.1,0,0,1,3.5-2.6,21.5,21.5,0,0,1,7-2.4L22.3,3H88.5a16.6,16.6,0,0,1,3.2.3,16.8,16.8,0,0,1,3.2.9A16.7,16.7,0,0,1,100,6.9l2.3,1.9,2,2.4a14.4,14.4,0,0,1,1.9,3.1,19.4,19.4,0,0,1,1.6,4.8l.3,2.3a26.1,26.1,0,0,1,0,2.8,18.5,18.5,0,0,1-.7,4.1,12.8,12.8,0,0,1-1.1,3.1,17.7,17.7,0,0,1-2.6,4.1,15.8,15.8,0,0,1-2.2,2.3,16.6,16.6,0,0,1-3.4,2.5A17.1,17.1,0,0,1,94.2,42l-3,.7-2.8.2h-33M54.1,28.2l1.2.5a5,5,0,0,0,2.1.1,5.6,5.6,0,0,0,4-2.5,7.1,7.1,0,0,0,.8-4.3,4.4,4.4,0,0,0-4.9-4,4.1,4.1,0,0,0-2.9,1.5l-.3.3a10.9,10.9,0,0,1,.1-1.8h-.9l-2.7.9h-.2c0,.2-.1.4.1.5l1,.6c.2,0,.2.2.2.4V31.2c0,.8-.2,1-.9,1.2h-.5v.8h5.2v-.9h-.8a.9.9,0,0,1-.6-.9V28.2m24.4.6H79l3.4-.6a.3.3,0,0,0,.1-.2v-.7h-.6c-.7,0-.9-.3-.9-1V19.3a6.2,6.2,0,0,1,.1-1.3l-4,.5v.9h.7c.6.2.8.4.8,1v5.4c0,.1,0,.1-.1.2a3.9,3.9,0,0,1-2.5,1,1.5,1.5,0,0,1-1.8-1.2.9.9,0,0,1-.1-.5c0-2.1.1-4.3.1-6.5V18l-4,.5v.9h.6c.7.1,1,.4,1,1.1v5.7A2.7,2.7,0,0,0,74,28.7a4.2,4.2,0,0,0,4.2-1.3l.4-.4c0,.6-.1,1.2-.1,1.8m13-7.5V19a.2.2,0,0,0-.2-.2,6.7,6.7,0,0,0-4.8-.6A2.9,2.9,0,0,0,84.3,21a2.6,2.6,0,0,0,1.9,2.9l2.1.7,1.1.4a1,1,0,0,1,.7.7,1.5,1.5,0,0,1-.9,1.8,2.6,2.6,0,0,1-1.5.2,2.6,2.6,0,0,1-2.2-1.4l-.3-.9v-.2h-.9v.4a12.1,12.1,0,0,0,.1,1.9c-.1.2.1.4.3.5a6.8,6.8,0,0,0,5.4.5,3.1,3.1,0,0,0,.4-5.7l-1.2-.5L87,21.7a1.1,1.1,0,0,1-.7-1.3,1.2,1.2,0,0,1,.9-1.1h.5a2.3,2.3,0,0,1,2.7,1.7.8.8,0,0,0,.1.4Zm-69.9-3h-.7l-2.3.9-.2.2a.1.1,0,0,0,.1.1c0,.1,0,.1.1.2l1.2.4a.2.2,0,0,1,.2.2V27a.8.8,0,0,1-.6.8l-.6.2c-.5.1-.5.1-.4.6h4.7v-.5l-.9-.2a1,1,0,0,1-.7-.9V21.2c0-.1,0-.2.1-.2A5.3,5.3,0,0,1,25,19.5a2,2,0,0,1,2.3,2V27a.9.9,0,0,1-.6.8L26,28c-.4.1-.4.1-.4.6h4.8v-.5l-.8-.2a.8.8,0,0,1-.8-1h0V22.6a9.7,9.7,0,0,0-.1-1.7A2.6,2.6,0,0,0,27,18.5a5,5,0,0,0-2.1-.2A5.3,5.3,0,0,0,21.8,20l-.3.2c0-.6.1-1.3.1-1.9m47.5,9.5h-.4c-.9-.1-1.1-.4-1.1-1.2V14.1c0-.4.1-.8.1-1.3h-.9l-2.7.8c-.2.1-.3.1-.2.3s-.1.3.1.4l1.1.5c.1,0,.2.1.1.2V26.7a.8.8,0,0,1-.7,1h-.7v.8h5.3ZM41.2,26c-.5-.2-.5-.2-.8.1a4,4,0,0,1-4,1.4,3.7,3.7,0,0,1-3-3.2c-.1-.5-.1-1-.2-1.5h7.9a2.7,2.7,0,0,0,0-.9,3.5,3.5,0,0,0-2.5-3.4l-1.5-.2a4.5,4.5,0,0,0-4.6,2.8,8,8,0,0,0-.6,3,4.7,4.7,0,0,0,1.9,3.8,5.4,5.4,0,0,0,5.5.4A3.9,3.9,0,0,0,41.2,26M49,27.4a3.2,3.2,0,0,1-1.6.4,1.8,1.8,0,0,1-1.8-1.4V19.3h3.1v-.9H45.6V16.3c-.4,0-.4,0-.6.3a7,7,0,0,1-2.2,2,.7.7,0,0,0-.2.7h1.5v7a2.2,2.2,0,0,0,1.4,2.3,3.2,3.2,0,0,0,3.4-.5c.3-.3.3-.3.1-.7m49-14a2.9,2.9,0,1,0-5.7,0,2.9,2.9,0,0,0,5.7,0h0"/><path id="Path_15" data-name="Path 15" d="M14.3,52.3A3.2,3.2,0,0,1,11,49.1a3.2,3.2,0,0,1,3.2-3.2A3.1,3.1,0,0,1,17.4,49h0a3.1,3.1,0,0,1-3,3.2h-.1M16.4,49a2.2,2.2,0,0,0-2-2.3l-1,.2a2.2,2.2,0,0,0-1.3,2.4,2.3,2.3,0,0,0,2.3,2.1h.5A2.2,2.2,0,0,0,16.4,49"/><path id="Path_16" data-name="Path 16" d="M101,52.3a3.2,3.2,0,0,1-3.2-3.2,3.1,3.1,0,0,1,3.1-3.2,3.1,3.1,0,0,1,3.3,3.1h0a3.2,3.2,0,0,1-3,3.2H101m0-5.6a2.4,2.4,0,1,0,2.2,2.5h0a2.2,2.2,0,0,0-2.1-2.4H101"/><path id="Path_17" data-name="Path 17" d="M72.5,52.1V46h2.7a1.3,1.3,0,0,1,1.3,1.5v.2a1.4,1.4,0,0,1-.8,1,1,1,0,0,1,.5.4,1.5,1.5,0,0,1,.2,2.2l-.4.3a2.5,2.5,0,0,1-.9.4H72.5m1-.9h1.4a.9.9,0,0,0,.2-1.8H75a3.8,3.8,0,0,0-1.5,0Zm0-4.3v1.6h1.4a.8.8,0,0,0,.6-.9.7.7,0,0,0-.7-.6,5.7,5.7,0,0,0-1.3,0"/><path id="Path_18" data-name="Path 18" d="M59.7,48.9a1.5,1.5,0,0,1,1,2,1.7,1.7,0,0,1-1,1l-.9.2h-2c-.2,0-.3,0-.3-.2V46.3c0-.3.1-.3.3-.3h2.7a1.6,1.6,0,0,1,1,1.9,1.6,1.6,0,0,1-.6.8h-.2m-2.2,2.4h1.4a.9.9,0,0,0,.9-.8.8.8,0,0,0-.7-1H57.5Zm0-2.8h1.7a.7.7,0,0,0,.4-.7c-.1-.4-.2-.7-.6-.7H57.5Z"/><path id="Path_19" data-name="Path 19" d="M45.7,52.1V46.3A.3.3,0,0,1,46,46h2.5A2.6,2.6,0,0,1,51,48.7a3,3,0,0,1-2.6,3.4H45.7m1-.9a6.1,6.1,0,0,0,1.9-.1,2.3,2.3,0,0,0,1.5-1.9,2.1,2.1,0,0,0-1.2-2.1,5.5,5.5,0,0,0-2.2-.2Z"/><path id="Path_20" data-name="Path 20" d="M29.2,49.4l1.7,2.7H29.8a.2.2,0,0,1-.2-.2l-1.2-2.2a.4.4,0,0,0-.5-.2h-.5v2.4c0,.1,0,.2-.2.2s-.7,0-.7-.7V46.3c0-.2,0-.3.3-.3h2.6a1.5,1.5,0,0,1,1.2,1.6,1.6,1.6,0,0,1-1.2,1.6h-.2m-1.8-.7h1.5a.8.8,0,0,0,.7-.8h0a.8.8,0,0,0-.6-.9H27.4v1.8"/><path id="Path_21" data-name="Path 21" d="M90.1,52.1h-.9a.2.2,0,0,1-.2-.2,25.3,25.3,0,0,1-1.3-2.2c-.1-.2-.2-.3-.4-.2h-.5v2.6H86l-.2-.2h0V46.3c0-.3.1-.3.3-.3h2.8a1.6,1.6,0,0,1,1,1.7,1.5,1.5,0,0,1-1.1,1.5h-.3l.9,1.3.8,1.3h-.1m-3.3-3.4,1.6-.2a.7.7,0,0,0,.5-1,1,1,0,0,0-.5-.6H86.8Z"/><path id="Path_22" data-name="Path 22" d="M96,46.9H93v1.6h2.5a.3.3,0,0,1,.3.3c0,.6,0,.6-.7.6H93v1.8h2.9a.3.3,0,0,1,.3.3c0,.6,0,.6-.7.6H92.3c-.2,0-.3,0-.3-.3V46.3a.3.3,0,0,1,.3-.3h3.4c.3,0,.3.1.3.3v.6"/><path id="Path_23" data-name="Path 23" d="M40.6,51.2h2.9a.3.3,0,0,1,.3.3c0,.6,0,.6-.6.6H39.9c-.2,0-.2-.1-.2-.3V46.3c0-.2,0-.3.2-.3h3.5c.2,0,.2,0,.2.3v.6h-3v1.6h2.6c.2,0,.2.1.2.3s0,.6-.6.6H40.6Z"/><path id="Path_24" data-name="Path 24" d="M20.3,46v3.6a2.9,2.9,0,0,0,.2.9,1.4,1.4,0,0,0,1.3.9,1.4,1.4,0,0,0,1.3-1,1.7,1.7,0,0,0,.1-.7V46.3c0-.2,0-.3.3-.3s.6,0,.6.7V50a2.2,2.2,0,0,1-2,2.2,2.2,2.2,0,0,1-2.6-1.7,1.9,1.9,0,0,1-.1-.8V46.3c0-.2,0-.3.3-.3h.6"/><path id="Path_25" data-name="Path 25" d="M78.8,48.1V46.2c0-.1,0-.2.2-.2s.7,0,.7.7v3a.7.7,0,0,0,.1.5,1.4,1.4,0,0,0,1.4,1.2,1.3,1.3,0,0,0,1.3-1.3.9.9,0,0,0,.1-.5V46.3c0-.2,0-.3.2-.3s.7,0,.7.7v3.1a2.1,2.1,0,0,1-1.6,2.3,2.3,2.3,0,0,1-3-1.4,1.9,1.9,0,0,1-.1-.8V48.2"/><path id="Path_26" data-name="Path 26" d="M5.2,51.4l.6-.5q.2-.3.3,0a1.6,1.6,0,0,0,1.6.4,1,1,0,0,0,.5-.4.6.6,0,0,0-.1-.9.1.1,0,0,0-.1-.1l-1-.4-.5-.2a1.8,1.8,0,0,1-1.1-1.9,1.9,1.9,0,0,1,1.5-1.5,2.6,2.6,0,0,1,1.5.1,1.5,1.5,0,0,1,.9.6l-.6.6H8.4A1.2,1.2,0,0,0,7,46.8a.9.9,0,0,0-.6.7.7.7,0,0,0,.4.8l1.1.4.9.5a1.7,1.7,0,0,1,.1,2.4,2.5,2.5,0,0,1-3.6-.2H5.2"/><path id="Path_27" data-name="Path 27" d="M37.8,51.1a3.1,3.1,0,0,1-3.4,1A3.2,3.2,0,0,1,32.3,49a3.1,3.1,0,0,1,2.2-3,2.7,2.7,0,0,1,3.1.9l-.6.5h-.2a2.2,2.2,0,0,0-2.9.1,1.6,1.6,0,0,0-.5,1.1,2.3,2.3,0,0,0,.2,1.8,2.1,2.1,0,0,0,2.7.8l.6-.4c.1-.1.1-.1.3,0l.6.4"/><path id="Path_28" data-name="Path 28" d="M67.5,46a.4.4,0,0,0-.1.3c-.7,1-1.4,2-2,3a.7.7,0,0,0-.1.5,6.7,6.7,0,0,0,0,2,.3.3,0,0,1-.3.3h-.5a.2.2,0,0,1-.2-.2V49.7a.8.8,0,0,0-.1-.4l-2-3c0-.1-.1-.2-.1-.3h1.1a2.5,2.5,0,0,1,.4.7l1.2,1.9,1.4-2.3a.6.6,0,0,1,.6-.3h.7"/><path id="Path_29" data-name="Path 29" class="cls-3" d="M54.1,28.2v3.2a.9.9,0,0,0,.6.9h.8v.9H50.3v-.9h.5c.7-.1.9-.3.9-1.1V20.6c0-.2,0-.4-.2-.4l-1-.6c-.2-.1-.1-.3-.1-.5l.2-.2,2.7-.8h.9a10.9,10.9,0,0,0-.1,1.8l.3-.3a4.4,4.4,0,0,1,6.3-.5,4.8,4.8,0,0,1,1.5,3,7.1,7.1,0,0,1-.8,4.3,5.6,5.6,0,0,1-4,2.5,5,5,0,0,1-2.1-.1l-1.2-.5m0-4.9h0v2.2a1.9,1.9,0,0,0,1.6,2h.9a2.8,2.8,0,0,0,2.9-1.8l.3-1.5a6.3,6.3,0,0,0-.5-3,2.4,2.4,0,0,0-2-1.5,3.6,3.6,0,0,0-3,.8.4.4,0,0,0-.2.4v2.3"/><path id="Path_30" data-name="Path 30" class="cls-3" d="M78.5,28.8c0-.6.1-1.2.1-1.8l-.4.4A4.2,4.2,0,0,1,74,28.7a2.7,2.7,0,0,1-2.2-2.4V20.6c0-.7-.2-1-1-1.1h-.6v-.9l4-.5v.9c0,2.2-.1,4.4-.1,6.5a1.7,1.7,0,0,0,1.5,1.8H76a3.9,3.9,0,0,0,2.5-1c.1-.1.1-.1.1-.2V20.5a.8.8,0,0,0-.7-1h-.8v-.9l4-.5a6.2,6.2,0,0,0-.1,1.3v2.9c-.1,1.3,0,2.7,0,4s.2.9.9,1h.6V28a.3.3,0,0,1-.1.2l-3.4.6h-.5"/><path id="Path_31" data-name="Path 31" class="cls-3" d="M91.5,21.3h-1a.8.8,0,0,1-.1-.4,2.3,2.3,0,0,0-2.7-1.7h-.5a1.2,1.2,0,0,0-.9,1.1,1.1,1.1,0,0,0,.7,1.3l2.2.6,1.2.5A3.1,3.1,0,0,1,91.8,27,3,3,0,0,1,90,28.5a6.8,6.8,0,0,1-5.4-.5c-.2-.1-.4-.3-.3-.5s-.1-1.3-.1-1.9v-.4h.9v.2l.3.9a2.6,2.6,0,0,0,2.2,1.4,2.5,2.5,0,0,0,1.5-.2,1.4,1.4,0,0,0,.9-1.8,1.1,1.1,0,0,0-.6-.7l-1.2-.4-2.1-.7A2.7,2.7,0,0,1,84.3,21a2.9,2.9,0,0,1,2.2-2.8,6.7,6.7,0,0,1,4.8.6.2.2,0,0,1,.2.2v2.3"/><path id="Path_32" data-name="Path 32" class="cls-3" d="M21.6,18.3c0,.6-.1,1.2-.1,1.9l.3-.2a5.3,5.3,0,0,1,3.1-1.7,3.8,3.8,0,0,1,2.1.2,2.6,2.6,0,0,1,1.7,2.4,9.7,9.7,0,0,1,.1,1.7v4.3a.8.8,0,0,0,.7,1h.1l.8.2v.5H25.6c0-.5,0-.5.4-.6l.7-.2a.8.8,0,0,0,.6-.8V21.5c0-1.3-.9-2-2.3-2A5.3,5.3,0,0,0,21.6,21v6a1,1,0,0,0,.7.9l1,.2v.5H18.4c-.1-.5-.1-.5.4-.6l.7-.2A.8.8,0,0,0,20,27V20.3c0-.1,0-.2-.2-.2l-1.2-.4c0-.1-.1-.1-.1-.2a.2.2,0,0,1,.1-.3h0l2.3-.9h.7"/><path id="Path_33" data-name="Path 33" class="cls-3" d="M69.1,27.8v.8H63.8v-.8h.6a1.1,1.1,0,0,0,.9-1h-.1c.1-3.9.1-7.7.1-11.6a.2.2,0,0,0-.2-.2L64,14.4c-.2-.1-.1-.3-.1-.4s.1-.2.2-.3l2.7-.8h.9a5.3,5.3,0,0,1-.1,1.3V26.4c0,.9.2,1.2,1.1,1.3h.4"/><path id="Path_34" data-name="Path 34" class="cls-3" d="M41.2,26a3.9,3.9,0,0,1-1.9,2.3,5.4,5.4,0,0,1-5.5-.4,4.7,4.7,0,0,1-1.9-3.8,8,8,0,0,1,.6-3,4.5,4.5,0,0,1,4.6-2.8l1.5.2a3.5,3.5,0,0,1,2.5,3.4v.9H33.2c.1.5.1,1,.2,1.5a3.7,3.7,0,0,0,3,3.2,3.8,3.8,0,0,0,4-1.4c.3-.3.3-.3.8-.1m-1.7-4.1a2.4,2.4,0,0,0-1.4-2.3,3.2,3.2,0,0,0-2.7-.1,3.3,3.3,0,0,0-2,2.4Z"/><path id="Path_35" data-name="Path 35" class="cls-3" d="M49,27.4c.2.4.2.4-.1.7a3.2,3.2,0,0,1-3.4.5,2.2,2.2,0,0,1-1.4-2.2V19.3H42.6a.7.7,0,0,1,.2-.7,7,7,0,0,0,2.2-2c.2-.3.2-.3.5-.3v2.1h3.2v.9H45.6v7.1a1.8,1.8,0,0,0,1.8,1.4,3.2,3.2,0,0,0,1.6-.4"/><path id="Path_36" data-name="Path 36" class="cls-3" d="M98,13.4a2.9,2.9,0,1,1-2.9-2.9h0A2.9,2.9,0,0,1,98,13.4m-2.9,2.3a2.2,2.2,0,0,0,2.3-2.3,2.3,2.3,0,0,0-2.3-2.3h0a2.3,2.3,0,1,0,0,4.6h0"/><path id="Path_37" data-name="Path 37" d="M54.1,23.3V21a.4.4,0,0,1,.2-.4,3.6,3.6,0,0,1,3-.8,2.4,2.4,0,0,1,2,1.6,4.9,4.9,0,0,1,.5,2.9,8,8,0,0,1-.3,1.5,3,3,0,0,1-2.9,1.9l-.9-.2a1.9,1.9,0,0,1-1.6-2V23.3Z"/><path id="Path_38" data-name="Path 38" d="M39.5,21.9H33.4a3.3,3.3,0,0,1,2-2.4,3.2,3.2,0,0,1,2.7.1,2.3,2.3,0,0,1,1.4,2.3"/><path id="Path_39" data-name="Path 39" d="M95.1,15.7a2.3,2.3,0,0,1-2.3-2.3,2.3,2.3,0,0,1,4.6,0h0a2.3,2.3,0,0,1-2.3,2.3m.6-2.1c.5-.1.7-.3.7-.8a.8.8,0,0,0-.6-1H94V15h.7V13.7a.4.4,0,0,1,.5.2h0a5.6,5.6,0,0,0,.5.8.6.6,0,0,0,.8.3l-.8-1.4"/><path id="Path_40" data-name="Path 40" class="cls-3" d="M95.7,13.6l.8,1.4a.6.6,0,0,1-.8-.3,5.6,5.6,0,0,1-.5-.8c0-.2-.3-.3-.5-.2h0V15H94V11.7h1.9a.9.9,0,0,1,.6,1,.9.9,0,0,1-.8.8m-1-1.3v.9h.8c.2,0,.4-.2.3-.4h0c0-.2-.1-.4-.3-.4h-.8"/><path id="Path_41" data-name="Path 41" d="M94.7,12.3h.7a.4.4,0,0,1,.4.4h0c.1.2-.1.4-.3.4h-.8Z"/></g></g></g></g></g></g></g></g></svg>