<svg xmlns="http://www.w3.org/2000/svg" xmlns:xlink="http://www.w3.org/1999/xlink" width="56" height="56" viewBox="0 0 56 56">
  <defs>
    <clipPath id="clip-wash_icon">
      <rect width="56" height="56"/>
    </clipPath>
  </defs>
  <g id="wash_icon" clip-path="url(#clip-wash_icon)">
    <g id="icon" transform="translate(0 5)">
      <path id="Path_111" data-name="Path 111" d="M59.936,18.382a1.276,1.276,0,0,0-1.569,1.188l-1.255,6.457a7.845,7.845,0,0,1-5.4-2.152,10.158,10.158,0,0,0-6.9-2.672,9.9,9.9,0,0,0-6.9,2.672,7.683,7.683,0,0,1-5.46,2.152c-2.7,0-3.954-1.039-5.46-2.152a10.157,10.157,0,0,0-6.9-2.672,10.028,10.028,0,0,0-6.9,2.672,8.137,8.137,0,0,1-4.267,2.078L7.66,19.644a1.4,1.4,0,0,0-1.569-1.188,1.669,1.669,0,0,0-1,1.856l8.66,43.124a3.378,3.378,0,0,0,3.138,2.895H49.268a3.326,3.326,0,0,0,3.138-2.895l8.66-43.2A1.847,1.847,0,0,0,59.936,18.382ZM49.707,62.4c-.063.3-.314.223-.565.223H16.7c-.251,0-.5.074-.565-.223L9.418,28.848A10.98,10.98,0,0,0,14.564,26.4a7.683,7.683,0,0,1,5.46-2.153c2.7,0,3.954,1.039,5.46,2.227,1.632,1.262,3.452,2.746,6.9,2.746a10.028,10.028,0,0,0,6.9-2.672,7.683,7.683,0,0,1,5.46-2.152c2.7,0,3.954,1.039,5.46,2.152a10,10,0,0,0,6.276,2.524Z" transform="translate(-5.066 -18.331)"/>
      <circle id="Ellipse_39" data-name="Ellipse 39" cx="2.758" cy="2.758" r="2.758" transform="translate(25.12 25.095)"/>
    </g>
  </g>
</svg>
