<svg xmlns="http://www.w3.org/2000/svg" xmlns:xlink="http://www.w3.org/1999/xlink" viewBox="0 0 60.4 76.8"><defs><style>.cls-1{fill:none;}.cls-2{clip-path:url(#clip-path);}.cls-3{clip-path:url(#clip-path-2);}.cls-4{fill:#db5f3c;}.cls-5{fill:#f1d2a4;}.cls-6{fill:#5f3c18;}</style><clipPath id="clip-path"><rect class="cls-1" x="-103.4" y="30" width="271" height="216.8"/></clipPath><clipPath id="clip-path-2"><rect class="cls-1" x="-57.6" y="-29.4" width="175.6" height="135.68"/></clipPath></defs><g id="Layer_1" data-name="Layer 1"><g id="Group_97" data-name="Group 97"><g id="Group_89" data-name="Group 89"><g class="cls-3"><g id="Group_88" data-name="Group 88"><g id="Group_87" data-name="Group 87"><g class="cls-3"><g id="Group_86" data-name="Group 86"><path id="Path_2" data-name="Path 2" class="cls-4" d="M30.2,73.9c-14.9,0-27-15.9-27-35.5S15.3,2.9,30.2,2.9s27,15.9,27,35.5-12.1,35.5-27,35.5m0-68.4C16.8,5.5,5.9,20.3,5.9,38.4S16.8,71.3,30.2,71.3,54.5,56.5,54.5,38.4,43.6,5.5,30.2,5.5"/><path id="Path_3" data-name="Path 3" class="cls-5" d="M30.2,5.5C16.8,5.5,5.9,20.3,5.9,38.4S16.8,71.3,30.2,71.3,54.5,56.5,54.5,38.4,43.6,5.5,30.2,5.5"/><path id="Path_4" data-name="Path 4" class="cls-6" d="M20.2,61.2l2-2.1.4,2.9,1.6-2.3,1.1.5L22,64.6h0l-.4-3.4-2.4,2.5h0V58.2l1.2.3Z"/><path id="Path_5" data-name="Path 5" class="cls-6" d="M26.2,65.3l.4-5.1,2.8.2.2,1.1H27.8v.8H29v1.1H27.6v1h2l-.4,1.1Z"/><path id="Path_6" data-name="Path 6" class="cls-6" d="M33.4,60.1l3.3,4.7-1.3.4-.6-1-1.9.2-.4,1.1H31.2l2.2-5.3Zm-.3,3.3h1.3l-.8-1.2Z"/><path id="Path_7" data-name="Path 7" class="cls-6" d="M37.1,59.6l1.4-.5c1.1-.4,2-.3,2.4.8a1.3,1.3,0,0,1-.4,1.5l2,1.4-1.1.8-2.2-1.8h0l.7,2.1-1.2.5Zm2,1.9c.5-.1.9-.4.7-1s-.7-.5-1.2-.3Z"/><path id="Path_8" data-name="Path 8" class="cls-6" d="M19.4,16.3l.2-2.9,2.1,2-.2-2.7,1.2-.3.2,5.4h0l-2.4-2.3-.3,3.4h0l-3.6-4.2,1.1-.6Z"/><path id="Path_9" data-name="Path 9" class="cls-6" d="M30.2,13.9a2.7,2.7,0,1,1-3.1-2.3h.1a2.6,2.6,0,0,1,3,2.3m-4.2.5a1.6,1.6,0,0,0,1.7,1.2,1.5,1.5,0,0,0,1.2-1.7,1.5,1.5,0,0,0-1.6-1.2A1.6,1.6,0,0,0,26,14.4"/><path id="Path_10" data-name="Path 10" class="cls-6" d="M32.5,11.6l1.4.2c1.2.1,2,.7,1.8,1.8a1.3,1.3,0,0,1-1,1.2l1.1,2.1-1.3.2-1.1-2.6h0L33,16.7H31.8Zm.9,2.6c.5.1,1,0,1.1-.6s-.4-.8-.9-.8Z"/><path id="Path_11" data-name="Path 11" class="cls-6" d="M41.2,19.3l-2-3.9-1,2.5-1.3-.4,2-4.8h0l2,3.8L42,14l1.2.4-2,4.9Z"/><path id="Path_12" data-name="Path 12" class="cls-6" d="M30.6,22.9c1.3,0,3.1-.2,3.8-.8v1.6c.1.6-1.7,1.2-3.9,1.2Zm-4.7.8c-.1.6,1.7,1.2,3.9,1.2v-2a7.4,7.4,0,0,1-3.8-.8Zm-.8.1-1.9.4a4.9,4.9,0,0,0-3.4,2.6,63.3,63.3,0,0,0-5.2,11.6c-.6,1.5-.4,7.7-.4,9.3s.1,6.4,1,6.4h3.4c.9,0,1-4.8,1-6.4a38.1,38.1,0,0,1,.4-5.9,11.9,11.9,0,0,1,1.1-2.6V50.8c0,1,.1,2.3.5,2.3h8.2V25.7c-1.7,0-3.7-.3-4.4-1.1a1.1,1.1,0,0,1-.3-.8m8.8-2.4c-.2-.2-1.4-.7-3.7-.7s-3.5.5-3.7.7,1.4.7,3.7.7,3.5-.5,3.7-.7m11.9,17a63.3,63.3,0,0,0-5.2-11.6,4.9,4.9,0,0,0-3.4-2.6l-1.9-.4a1.1,1.1,0,0,1-.3.8c-.7.8-2.7,1.1-4.4,1.1v4.4h6.2v7.6l-3.4,1.2-2.8-1.2V53.1h8.2c.4,0,.5-1.3.5-2.3V39.2a11.9,11.9,0,0,1,1.1,2.6,38.1,38.1,0,0,1,.4,5.9c0,1.6.1,6.4,1,6.4h3.4c.9,0,1-4.8,1-6.4s.2-7.8-.4-9.3M33.5,32.2h2.2v-1H33.5Z"/><path id="Path_13" data-name="Path 13" class="cls-6" d="M50.9,66.5A1.1,1.1,0,0,1,52,67.7a1.2,1.2,0,0,1-1.2,1.2,1.3,1.3,0,0,1-1.2-1.2,1.2,1.2,0,0,1,1.3-1.2h0m0,2.2a1.1,1.1,0,0,0,1-1,1.1,1.1,0,0,0-1-1.1,1.1,1.1,0,0,0-1.1,1.1h0a1.1,1.1,0,0,0,1.1,1M50.4,67h.5c.2,0,.5.1.5.4a.3.3,0,0,1-.3.3l.3.6h-.3l-.3-.5h-.2v.5h-.2Zm.4.6c.2,0,.3-.1.3-.2s-.1-.2-.2-.2h-.3v.4Z"/></g></g></g></g></g></g></g></g></svg>