<svg xmlns="http://www.w3.org/2000/svg" xmlns:xlink="http://www.w3.org/1999/xlink" viewBox="0 0 825 515.8"><defs><style>.cls-1,.cls-27,.cls-40,.cls-43{fill:none;}.cls-2{fill:#ffc902;}.cls-3{fill:#ffcd05;opacity:0.5;}.cls-19,.cls-4{fill:#6582db;}.cls-4{opacity:0.8;}.cls-5{fill:#7c6bb0;}.cls-6{fill:#a0509f;}.cls-12,.cls-17,.cls-20,.cls-36,.cls-37,.cls-38,.cls-39,.cls-41,.cls-42,.cls-45,.cls-7{opacity:0.3;}.cls-8{fill:url(#linear-gradient);}.cls-9{fill:#5f9e7a;}.cls-10{fill:#fff;}.cls-11{fill:#3a614b;}.cls-13{fill:url(#linear-gradient-2);}.cls-14{fill:#3c57ab;}.cls-15{clip-path:url(#clip-path);}.cls-16{fill:url(#linear-gradient-3);}.cls-17{fill:url(#linear-gradient-4);}.cls-18{fill:#595959;}.cls-20{fill:url(#linear-gradient-5);}.cls-21{opacity:0.4;}.cls-22{fill:#ff6344;}.cls-23{fill:#ff927d;}.cls-24{fill:#594000;}.cls-25{fill:#ffb700;}.cls-26{fill:#c48d00;}.cls-27{stroke:#7697ff;stroke-width:0.41px;}.cls-27,.cls-40,.cls-43{stroke-miterlimit:10;}.cls-28{fill:#a1b8ff;}.cls-29{fill:url(#linear-gradient-6);}.cls-30{fill:#ffdb82;}.cls-31{fill:#a33f2c;}.cls-32{fill:#333745;}.cls-33{fill:#c2c2c2;}.cls-34{fill:#52586e;}.cls-35{fill:#414657;}.cls-36{fill:url(#linear-gradient-7);}.cls-37{fill:url(#linear-gradient-8);}.cls-38{fill:url(#linear-gradient-9);}.cls-39{fill:url(#linear-gradient-10);}.cls-40{stroke:#ffdb82;stroke-width:1.45px;}.cls-41{fill:url(#linear-gradient-11);}.cls-42{fill:url(#linear-gradient-12);}.cls-43{stroke:#333745;stroke-width:0.94px;}.cls-44{fill:#4b7d61;}.cls-45{fill:url(#linear-gradient-13);}</style><linearGradient id="linear-gradient" x1="574.54" y1="188.44" x2="574.54" y2="239.69" gradientUnits="userSpaceOnUse"><stop offset="0"/><stop offset="1" stop-opacity="0"/></linearGradient><linearGradient id="linear-gradient-2" x1="549.06" y1="234.06" x2="549.06" y2="326.99" gradientTransform="translate(736.6 -306.8) rotate(80.6)" gradientUnits="userSpaceOnUse"><stop offset="0" stop-color="#a1b8ff"/><stop offset="1" stop-color="#fff"/></linearGradient><clipPath id="clip-path"><path class="cls-1" d="M668.6,180H654.8a3.1,3.1,0,0,0-2.9,2.2l-.4,1.6a3.2,3.2,0,0,1-3.1,2.4H625.5a3.1,3.1,0,0,1-3-2.4l-.5-1.6a2.9,2.9,0,0,0-2.8-2.2H605.4a11.7,11.7,0,0,0-11.8,11.7V326.1a11.7,11.7,0,0,0,11.8,11.7h63.2a11.7,11.7,0,0,0,11.8-11.7V191.7A11.7,11.7,0,0,0,668.6,180Z"/></clipPath><linearGradient id="linear-gradient-3" x1="636.99" y1="363.4" x2="636.99" y2="285.12" gradientTransform="matrix(1, 0, 0, 1, 0, 0)" xlink:href="#linear-gradient-2"/><linearGradient id="linear-gradient-4" x1="636.99" y1="312.79" x2="636.99" y2="335.19" xlink:href="#linear-gradient"/><linearGradient id="linear-gradient-5" x1="636.99" y1="208.01" x2="636.99" y2="232.35" xlink:href="#linear-gradient"/><linearGradient id="linear-gradient-6" x1="556.12" y1="159.04" x2="556.12" y2="220.37" xlink:href="#linear-gradient"/><linearGradient id="linear-gradient-7" x1="482.3" y1="207.43" x2="488.24" y2="213.19" xlink:href="#linear-gradient"/><linearGradient id="linear-gradient-8" x1="478.86" y1="232.51" x2="487.97" y2="260.18" xlink:href="#linear-gradient"/><linearGradient id="linear-gradient-9" x1="454.43" y1="265.92" x2="448.88" y2="330.07" xlink:href="#linear-gradient"/><linearGradient id="linear-gradient-10" x1="527.56" y1="179.77" x2="487.38" y2="217.81" gradientTransform="translate(78.4 -109.3) rotate(16.4)" xlink:href="#linear-gradient"/><linearGradient id="linear-gradient-11" x1="478.74" y1="147.89" x2="478.74" y2="184.21" xlink:href="#linear-gradient"/><linearGradient id="linear-gradient-12" x1="698.78" y1="345.7" x2="745.71" y2="345.7" gradientTransform="translate(17.9 -27.8)" xlink:href="#linear-gradient"/><linearGradient id="linear-gradient-13" x1="678.53" y1="317.25" x2="683.65" y2="317.25" xlink:href="#linear-gradient"/></defs><title>theme2</title><g id="Layer_4" data-name="Layer 4"><path class="cls-2" d="M592,2.8c-128.6,2-257.8,101.6-250.3,172.5,4.1,39.3,47.8,46.9,52.1,100.4,3.9,48.7-29.9,74.7-15.1,100.9,13.3,23.6,53.2,24.6,84.9,25,43.4.6,167.3,2.3,201.3-63.5,37.2-71.8-67.5-156.4-27.4-218.5C668,72.3,750.8,87.2,753.2,64.5S676,1.4,592,2.8Z"/><circle class="cls-2" cx="333" cy="35.1" r="30.4"/><circle class="cls-3" cx="650.7" cy="326.1" r="171.8"/></g><g id="OBJECTS"><path class="cls-4" d="M731.4,290.2h-9.1v-4.4c0-4-3.6-7.2-8-7.2l-1.7.2h-.2l-2-.2c-4.4,0-7.9,3.2-7.9,7.2v4.4h-9.3l-3.3,51.9h44.8Zm-9.9-4.4v4.4h-3.2v-4.4a7.3,7.3,0,0,0-4.4-6.5h.4C718.3,279.3,721.5,282.2,721.5,285.8Zm-10.1-5.9,1-.3a6.7,6.7,0,0,1,5.2,6.2v4.4H707.1v-4.4A6.6,6.6,0,0,1,711.4,279.9Zm-8.2,5.9c0-3.6,3.2-6.5,7.2-6.5h.3l-.8.5h0a6.9,6.9,0,0,0-3.5,5.9v4.4h-3.2Z"/><path class="cls-5" d="M715,141.6a22.1,22.1,0,0,1,6.7,2.3,18,18,0,0,1,4.9,3.5,12.4,12.4,0,0,1,2.9,4.1,10.7,10.7,0,0,1,1.2,4,1.5,1.5,0,0,1-.6,1.5,2,2,0,0,1-1.5.6h-5.5a3.7,3.7,0,0,1-2-.5,5.8,5.8,0,0,1-1.2-1.4,10.8,10.8,0,0,0-3.6-3.4c-1.5-.9-3.9-1.4-7-1.4a16.1,16.1,0,0,0-3.9.4,10.2,10.2,0,0,0-3.2,1.3,6.1,6.1,0,0,0-2.2,2,4.5,4.5,0,0,0-.8,2.6,4.9,4.9,0,0,0,.9,3,6.9,6.9,0,0,0,2.8,1.9,22,22,0,0,0,4.9,1.5l7.3,1.7a48.3,48.3,0,0,1,8,2.4,18.4,18.4,0,0,1,5.3,3.3,10.2,10.2,0,0,1,3,4.4,17,17,0,0,1,.9,5.7,13.9,13.9,0,0,1-1.2,5.7,14.5,14.5,0,0,1-3.4,4.8,18.6,18.6,0,0,1-5.4,3.5,27,27,0,0,1-7.3,2v5.3a2,2,0,0,1-.6,1.5,2.4,2.4,0,0,1-1.5.6h-6.4a2.1,2.1,0,0,1-2.1-2.1v-5.3a28,28,0,0,1-6.6-1.9,20.1,20.1,0,0,1-5.4-3.1,14,14,0,0,1-3.7-4.4,11,11,0,0,1-1.6-5.4,1.4,1.4,0,0,1,.6-1.5,2,2,0,0,1,1.5-.6h5.5a3.5,3.5,0,0,1,2,.4,3.3,3.3,0,0,1,1.2,1.4,23.9,23.9,0,0,0,1.3,2.1,7.9,7.9,0,0,0,2.2,1.8,13.3,13.3,0,0,0,3.3,1.3,22.4,22.4,0,0,0,4.9.5,23.2,23.2,0,0,0,4.6-.4,13.1,13.1,0,0,0,3.8-1.1,9.7,9.7,0,0,0,2.7-2.1,4.4,4.4,0,0,0,1-3,3.9,3.9,0,0,0-1.1-2.8,8.4,8.4,0,0,0-3.3-1.9c-1.5-.5-3.3-1-5.5-1.5l-7.6-1.8a46.8,46.8,0,0,1-6.9-2.2,15.5,15.5,0,0,1-4.8-3.2,10.9,10.9,0,0,1-2.9-4.4,18.2,18.2,0,0,1-.9-6.1,14.7,14.7,0,0,1,1.1-5.6,16.7,16.7,0,0,1,3.3-4.7,16.4,16.4,0,0,1,5-3.4,24.5,24.5,0,0,1,6.3-2v-5.3a2,2,0,0,1,.6-1.5,1.8,1.8,0,0,1,1.5-.7h6.4a2.1,2.1,0,0,1,1.5.7,2,2,0,0,1,.6,1.5Z"/><path class="cls-6" d="M607.5,113a12.3,12.3,0,0,1,2.9.9l2.1,1.5a10.2,10.2,0,0,1,1.3,1.8,12.1,12.1,0,0,1,.5,1.8.7.7,0,0,1-.3.6.9.9,0,0,1-.7.3H611l-.9-.2-.5-.6a4.6,4.6,0,0,0-1.6-1.5,5.9,5.9,0,0,0-3-.6,4.7,4.7,0,0,0-1.7.2l-1.4.5a2,2,0,0,0-.9.9,2.1,2.1,0,0,0-.4,1.1,2.5,2.5,0,0,0,.4,1.3,3.6,3.6,0,0,0,1.2.8,9.5,9.5,0,0,0,2.2.7l3.1.7a21.4,21.4,0,0,1,3.5,1,7.6,7.6,0,0,1,2.3,1.5,3.5,3.5,0,0,1,1.2,1.9,6.1,6.1,0,0,1,.4,2.4,5.3,5.3,0,0,1-.5,2.5,6,6,0,0,1-1.4,2.1,9.7,9.7,0,0,1-2.4,1.5,14,14,0,0,1-3.1.9v2.3a.9.9,0,0,1-.3.6.9.9,0,0,1-.7.3h-2.7a.9.9,0,0,1-.7-.3,1.4,1.4,0,0,1-.2-.6V137l-2.9-.8a10,10,0,0,1-2.3-1.4,7,7,0,0,1-1.6-1.9,4.8,4.8,0,0,1-.7-2.4,1.4,1.4,0,0,1,.2-.6,1.1,1.1,0,0,1,.7-.3h2.4l.9.2.5.6a4.1,4.1,0,0,0,.5.9,3.9,3.9,0,0,0,1,.8l1.4.6,2.1.2,2-.2a4.8,4.8,0,0,0,1.7-.5,3.1,3.1,0,0,0,1.1-.9,1.7,1.7,0,0,0,.5-1.3,1.7,1.7,0,0,0-.5-1.2,3.7,3.7,0,0,0-1.4-.8l-2.4-.6-3.3-.8-3-1a10.7,10.7,0,0,1-2.1-1.3,5.1,5.1,0,0,1-1.2-2,6.8,6.8,0,0,1-.4-2.6,4.7,4.7,0,0,1,.5-2.4,5.6,5.6,0,0,1,1.4-2,8,8,0,0,1,2.1-1.5,13.1,13.1,0,0,1,2.8-.9v-2.3a1.1,1.1,0,0,1,.2-.6.9.9,0,0,1,.7-.3h2.7a.9.9,0,0,1,.7.3.7.7,0,0,1,.3.6Z"/><g class="cls-7"><rect class="cls-8" x="550.1" y="199.6" width="48.9" height="28.31" rx="3.7"/></g><rect class="cls-9" x="551.7" y="197.9" width="48.9" height="28.31" rx="3.7"/><g class="cls-7"><path class="cls-10" d="M574.6,213.9H556.4a.7.7,0,0,1-.7-.6h0a.7.7,0,0,1,.7-.7h18.2a.7.7,0,0,1,.7.7h0A.7.7,0,0,1,574.6,213.9Z"/></g><g class="cls-7"><path class="cls-10" d="M564.4,218h-8a.7.7,0,0,1-.7-.7h0a.7.7,0,0,1,.7-.7h8a.7.7,0,0,1,.7.7h0A.7.7,0,0,1,564.4,218Z"/></g><g class="cls-7"><path class="cls-10" d="M591.9,218h-8a.7.7,0,0,1-.7-.7h0a.7.7,0,0,1,.7-.7h8a.7.7,0,0,1,.7.7h0A.7.7,0,0,1,591.9,218Z"/></g><path class="cls-11" d="M596.9,197.9H555.4a3.8,3.8,0,0,0-3.7,3.7v7.9h48.9v-7.9A3.8,3.8,0,0,0,596.9,197.9Z"/><path class="cls-12" d="M596.9,197.9h-9.7v28.3h9.7a3.8,3.8,0,0,0,3.7-3.7V201.6A3.8,3.8,0,0,0,596.9,197.9Z"/><circle class="cls-13" cx="549.1" cy="280.5" r="46.5" transform="matrix(0.16, -0.99, 0.99, 0.16, 183.04, 776.71)"/><rect class="cls-14" x="590" y="176.3" width="94" height="165.21" rx="15.3"/><g class="cls-15"><path class="cls-10" d="M668.6,180H654.8a3.1,3.1,0,0,0-2.9,2.2l-.4,1.6a3.2,3.2,0,0,1-3.1,2.4H625.5a3.1,3.1,0,0,1-3-2.4l-.5-1.6a2.9,2.9,0,0,0-2.8-2.2H605.4a11.7,11.7,0,0,0-11.8,11.7V326.1a11.7,11.7,0,0,0,11.8,11.7h63.2a11.7,11.7,0,0,0,11.8-11.7V191.7A11.7,11.7,0,0,0,668.6,180Z"/><path class="cls-16" d="M668.6,180H654.8a3.1,3.1,0,0,0-2.9,2.2l-.4,1.6a3.2,3.2,0,0,1-3.1,2.4H625.5a3.1,3.1,0,0,1-3-2.4l-.5-1.6a2.9,2.9,0,0,0-2.8-2.2H605.4a11.7,11.7,0,0,0-11.8,11.7V326.1a11.7,11.7,0,0,0,11.8,11.7h63.2a11.7,11.7,0,0,0,11.8-11.7V191.7A11.7,11.7,0,0,0,668.6,180Z"/><path class="cls-17" d="M621.3,316.3h31.4a6.7,6.7,0,0,1,6.6,6.6h0a6.6,6.6,0,0,1-6.6,6.6H621.3a6.6,6.6,0,0,1-6.6-6.6h0A6.7,6.7,0,0,1,621.3,316.3Z"/><rect class="cls-18" x="620.8" y="220.5" width="2.1" height="14.06"/><rect class="cls-18" x="651" y="220.5" width="2.1" height="14.06"/><g class="cls-7"><rect x="620.8" y="225.8" width="2.1" height="5.78"/><rect x="651" y="225.8" width="2.1" height="5.78"/></g><rect class="cls-14" x="614.6" y="228" width="44.7" height="15.29" rx="2.8"/><rect class="cls-19" x="614.6" y="228" width="44.7" height="14.2" rx="2.7"/><path class="cls-14" d="M624.6,232.2h1.2l.9.5a1.3,1.3,0,0,1,.6.7.9.9,0,0,1,.3.7h-2.3l-.3-.2h-1.3a.5.5,0,0,0,0,.6h.3l.6.2.9.2,1,.3.7.4.4.6a2.4,2.4,0,0,1,.2.8,1.7,1.7,0,0,1-.3,1,1.9,1.9,0,0,1-.6.7l-1,.4-1.3.2-1.2-.2-1-.5a1.3,1.3,0,0,1-.6-.7,1.1,1.1,0,0,1-.3-.7c0-.1,0-.2.1-.2h1.7a.1.1,0,0,1,.1.1h.2l.2.2.3.2h1.4c.3-.1.4-.2.4-.4s-.1-.2-.1-.3h-.4l-.7-.2-1-.2a2.7,2.7,0,0,1-1.5-.8,2,2,0,0,1-.5-1.4,3.1,3.1,0,0,1,.2-.8,1.9,1.9,0,0,1,.6-.7l.9-.5Z"/><path class="cls-14" d="M635.5,232.3h.2v7H634v-2.7h-2.2v2.5c0,.1-.1.1-.1.2h-1.7v-7h1.7V235h2.2v-2.7h1.5Z"/><path class="cls-14" d="M638,234.9a4.3,4.3,0,0,1,.2-1.1l.6-.8a2.1,2.1,0,0,1,1-.6,2.7,2.7,0,0,1,1.3-.2,3.2,3.2,0,0,1,1.4.2,1.8,1.8,0,0,1,.9.6,2.7,2.7,0,0,1,.7.8,4.3,4.3,0,0,1,.2,1.1v1.8a4.3,4.3,0,0,1-.2,1.1l-.7.9-.9.5a3.2,3.2,0,0,1-1.4.3,2.8,2.8,0,0,1-1.3-.3l-1-.5-.6-.9a4.3,4.3,0,0,1-.2-1.1v-1.8Zm4.4,1.8v-.4a1.3,1.3,0,0,0,0-1V235a.7.7,0,0,0-.1-.5.5.5,0,0,0-.2-.4l-.4-.2h-1.1a.7.7,0,0,0-.6.6.7.7,0,0,0-.1.5.4.4,0,0,0-.1.3v1a.8.8,0,0,0,.1.4,1.1,1.1,0,0,0,.3.8,1.2,1.2,0,0,0,.9.3,1.3,1.3,0,0,0,1-.3A1.1,1.1,0,0,0,642.4,236.7Z"/><path class="cls-14" d="M649.7,232.3h1.1a1.9,1.9,0,0,1,.9.5,2,2,0,0,1,.6.7,3,3,0,0,1,.2,1,3.6,3.6,0,0,1-.2,1.1,2,2,0,0,1-.6.7,1.9,1.9,0,0,1-.9.5h-2.4v2.1c0,.1-.1.1-.1.2h-1.7v-7h3.1Zm-1.3,3.1h1.2a.8.8,0,0,0,.7-.2.7.7,0,0,0,0-1.2l-.7-.2h-1.2Z"/><path class="cls-10" d="M624.6,231.4l1.2.2.9.5a1.3,1.3,0,0,1,.6.7.9.9,0,0,1,.3.6v.2h-2.2l-.3-.2h-1.3a.4.4,0,0,0-.1.3c0,.1,0,.2.1.2l.3.2.6.2.9.2,1,.3.7.4.4.6a1.9,1.9,0,0,1,.2.8,1.7,1.7,0,0,1-.3,1,1.2,1.2,0,0,1-.6.6l-1,.5h-2.5l-1-.5a1.3,1.3,0,0,1-.6-.7,1.1,1.1,0,0,1-.3-.8h2.1c0,.1.1.1.2.2h1.7c.3-.1.4-.2.4-.4v-.3l-.4-.2h-.7l-1-.2a2.7,2.7,0,0,1-1.5-.8,2,2,0,0,1-.5-1.4,2.4,2.4,0,0,1,.2-.8,1.3,1.3,0,0,1,.6-.7,1.9,1.9,0,0,1,.9-.5Z"/><path class="cls-10" d="M635.5,231.5h.2c.1.1.1.1.1.2v6.8H634v-2.7h-2.2v2.7h-1.7v-6.8c0-.1,0-.1.1-.2h1.7c0,.1.1.1.1.2v2.5h2.2v-2.5c0-.1,0-.1.1-.2h1.5Z"/><path class="cls-10" d="M638,234.2a4.3,4.3,0,0,1,.2-1.1l.6-.9,1-.5a2.8,2.8,0,0,1,1.3-.3,3.2,3.2,0,0,1,1.4.3l.9.5.7.9a4.3,4.3,0,0,1,.2,1.1V236a4.3,4.3,0,0,1-.2,1.1,2.7,2.7,0,0,1-.7.8,1.8,1.8,0,0,1-.9.6,3.2,3.2,0,0,1-1.4.2,2.7,2.7,0,0,1-1.3-.2,2.1,2.1,0,0,1-1-.6l-.6-.8a4.3,4.3,0,0,1-.2-1.1v-1.8Zm4.4,1.7v-.4a.6.6,0,0,0,.1-.4.9.9,0,0,0-.1-.5v-.4a.6.6,0,0,0-.1-.4.5.5,0,0,0-.2-.4l-.4-.2h-1.1a.7.7,0,0,0-.6.6.6.6,0,0,0-.1.4.8.8,0,0,0-.1.4v.9c0,.2,0,.3.1.4a1.1,1.1,0,0,0,1.2,1.2,1.3,1.3,0,0,0,1-.3A1.2,1.2,0,0,0,642.4,235.9Z"/><path class="cls-10" d="M649.7,231.5l1.1.2a1.9,1.9,0,0,1,.9.4,2.4,2.4,0,0,1,.6.8,3,3,0,0,1,.2,1,3.6,3.6,0,0,1-.2,1.1,2,2,0,0,1-.6.7,1.9,1.9,0,0,1-.9.4l-1.1.2h-1.3v2.3h-1.7v-6.8c0-.1,0-.1.1-.2h3.1Zm-1.3,3.2h1.2a.8.8,0,0,0,.7-.2.7.7,0,0,0,0-1.2l-.7-.2h-1.2Z"/><path class="cls-20" d="M593.6,206.5v10.8a8.7,8.7,0,0,0,17.4,0,8.7,8.7,0,1,0,17.3,0A8.7,8.7,0,0,0,637,226h0a8.7,8.7,0,0,0,8.7-8.7,8.7,8.7,0,1,0,17.3,0,8.7,8.7,0,1,0,17.4,0V206.5Z"/><path class="cls-21" d="M643.5,183.4h-13a.6.6,0,0,1-.6-.6h0a.6.6,0,0,1,.6-.6h13a.6.6,0,0,1,.6.6h0A.6.6,0,0,1,643.5,183.4Z"/><path class="cls-21" d="M627.9,182.8a1,1,0,1,1-2,0,1,1,0,0,1,2,0Z"/><path class="cls-22" d="M602.3,222.7h0a8.7,8.7,0,0,1-8.7-8.7V171.3H611V214A8.7,8.7,0,0,1,602.3,222.7Z"/><path class="cls-12" d="M593.6,209.9V214a8.7,8.7,0,0,0,17.4,0v-4.1Z"/><path class="cls-23" d="M619.7,222.7h0A8.7,8.7,0,0,1,611,214V171.3h17.3V214A8.7,8.7,0,0,1,619.7,222.7Z"/><path class="cls-12" d="M611,209.9V214a8.7,8.7,0,1,0,17.3,0v-4.1Z"/><path class="cls-22" d="M637,222.7h0a8.7,8.7,0,0,1-8.7-8.7V171.3h17.4V214A8.7,8.7,0,0,1,637,222.7Z"/><path class="cls-12" d="M628.3,209.9V214a8.7,8.7,0,0,0,17.4,0v-4.1Z"/><path class="cls-23" d="M654.3,222.7h0a8.6,8.6,0,0,1-8.6-8.7V171.3H663V214A8.7,8.7,0,0,1,654.3,222.7Z"/><path class="cls-12" d="M645.7,209.9V214a8.7,8.7,0,1,0,17.3,0v-4.1Z"/><path class="cls-22" d="M671.7,222.7h0A8.7,8.7,0,0,1,663,214V171.3h17.4V214A8.7,8.7,0,0,1,671.7,222.7Z"/><path class="cls-12" d="M663,209.9V214a8.7,8.7,0,1,0,17.4,0v-4.1Z"/><path class="cls-22" d="M643.5,254.2a6.5,6.5,0,1,1-13,0h-.4v18.4h13.8V254.2Z"/><path class="cls-23" d="M652.9,273.4s-10.6-6-5.4-19.2h-4c0,8.9-2.9,11.9-6.5,11.9s-6.5-3-6.5-11.9h-4c5.2,13.2-5.4,19.2-5.4,19.2,1.7,12.5.1,25.4-1,32a159.1,159.1,0,0,0,33.8,0C652.8,298.8,651.2,285.9,652.9,273.4Z"/><circle class="cls-22" cx="637" cy="271.8" r="1.2"/><circle class="cls-22" cx="637" cy="279.1" r="1.2"/><circle class="cls-22" cx="637" cy="286.4" r="1.2"/><path class="cls-22" d="M638.2,293.7a1.2,1.2,0,0,1-1.2,1.2,1.2,1.2,0,0,1-1.2-1.2,1.2,1.2,0,0,1,1.2-1.2A1.3,1.3,0,0,1,638.2,293.7Z"/><path class="cls-24" d="M592.3,256.1a21.4,21.4,0,0,1-7.9-1.2h0v8h15.8v-8h0A21.4,21.4,0,0,1,592.3,256.1Z"/><path class="cls-25" d="M600.2,254.9c-.4,3-3.8,5.4-7.9,5.4s-7.5-2.4-7.9-5.4a41,41,0,0,0-17,8.6l6.3,10.6,3.3-2.3,1.2,33.5h28.2l1.2-33.5,3.3,2.3,6.3-10.6A41,41,0,0,0,600.2,254.9Z"/><polygon class="cls-26" points="577.7 291 606.9 291 606.9 290 577.6 290 577.7 291"/><polygon class="cls-26" points="606.7 296.6 577.9 296.6 577.9 297.6 606.7 297.6 606.7 296.6"/><polygon class="cls-26" points="577.4 283.5 577.5 284.5 607.1 284.5 607.2 283.5 577.4 283.5"/><polygon class="cls-26" points="577.2 277.2 607.4 277.2 607.4 276.2 577.2 276.2 577.2 277.2"/><path class="cls-19" d="M689.9,254.4H663.4l-1.3,50.9h8.5c0-8.1,1.6-36.4,6-36.4s6,28.3,6,36.4h8.5Z"/><line class="cls-27" x1="665.1" y1="254.4" x2="664" y2="305.3"/><line class="cls-27" x1="688.1" y1="254.4" x2="689.2" y2="305.3"/><path class="cls-28" d="M682.6,305.3h8.5V301h-8.5C682.6,302.7,682.6,304.2,682.6,305.3Z"/><path class="cls-28" d="M670.7,301h-8.5v4.3h8.5C670.6,304.2,670.6,302.7,670.7,301Z"/><path class="cls-14" d="M668.3,254.4h-4.9l-.3,9.3C666.9,262.3,668,256.5,668.3,254.4Z"/><path class="cls-14" d="M684.9,254.4h5l.2,9.3C686.3,262.3,685.2,256.5,684.9,254.4Z"/><line class="cls-27" x1="676.6" y1="254.4" x2="676.6" y2="269"/><path class="cls-27" d="M678.8,254.4v5.8a5.2,5.2,0,0,1-2.2,4.2h0"/><path class="cls-19" d="M621.3,314.9h31.4a6.6,6.6,0,0,1,6.6,6.6h0a6.7,6.7,0,0,1-6.6,6.6H621.3a6.7,6.7,0,0,1-6.6-6.6h0A6.6,6.6,0,0,1,621.3,314.9Z"/><path class="cls-10" d="M628.3,324a.1.1,0,0,1-.1-.1h-.1v-4.7c0-.1,0-.1.1-.1a.1.1,0,0,1,.1-.1h3.2a1,1,0,0,1,.5.4l.3.5c0,.2.1.3.1.5s0,.3-.1.4,0,.2-.1.2a.3.3,0,0,1-.1.2H632l.4.5c0,.2.1.4.1.6a1.3,1.3,0,0,1-.1.6l-.3.5a.9.9,0,0,1-.5.3l-.8.2Zm2.7-3.6a.4.4,0,0,0-.1-.3h-1.4v.9h1.1l.3-.2C631,320.7,631,320.6,631,320.4Zm-1.5,2.5h1.2l.3-.2a.5.5,0,0,0,0-.6h-1.5Z"/><path class="cls-10" d="M638.9,318.9c.1,0,.1,0,.1.1s.1,0,.1.1V322a2.9,2.9,0,0,1-.2.9,2.1,2.1,0,0,1-.4.6l-.7.4-.9.2-.9-.2-.7-.4-.5-.6a2.8,2.8,0,0,1-.1-.9v-2.9H636V322a.8.8,0,0,0,.2.6.9.9,0,0,0,.7.3,1.1,1.1,0,0,0,.9-.9v-2.9h0a.1.1,0,0,1,.1-.1Z"/><path class="cls-10" d="M644.2,323.8h-.1a.1.1,0,0,1-.1.1h-1a.1.1,0,0,1-.1-.1h-.1v-1.6l-1.7-3h0c0-.1,0-.1.1-.1s0-.1.1-.1h1.3l.9,1.8.9-1.8a.1.1,0,0,1,.1-.1c0-.1.1-.1.2-.1h1c.1,0,.1,0,.1.1s.1,0,.1.1h-.1l-1.6,3Z"/></g><path class="cls-12" d="M645.3,183.2H628.6a.8.8,0,0,1-.7-.7h0a.8.8,0,0,1,.7-.7h16.7a.7.7,0,0,1,.7.7h0A.7.7,0,0,1,645.3,183.2Z"/><g class="cls-7"><rect class="cls-29" x="529.1" y="171.5" width="54" height="31.27" rx="4.1"/></g><rect class="cls-19" x="530.4" y="169.9" width="54" height="31.27" rx="4.1"/><rect class="cls-14" x="530.4" y="177.9" width="54" height="6.95"/><path class="cls-28" d="M554.9,189.7H534.7a.7.7,0,0,1-.7-.8h0a.7.7,0,0,1,.7-.7h20.2a.7.7,0,0,1,.7.7h0A.7.7,0,0,1,554.9,189.7Z"/><path class="cls-28" d="M546.4,193.6H534.7a.7.7,0,0,1-.7-.7h0a.8.8,0,0,1,.7-.8h11.7a.8.8,0,0,1,.7.8h0A.7.7,0,0,1,546.4,193.6Z"/><path class="cls-28" d="M554.9,174.8H534.7a.7.7,0,0,1-.7-.7h0a.7.7,0,0,1,.7-.8h20.2a.7.7,0,0,1,.7.8h0A.7.7,0,0,1,554.9,174.8Z"/><circle class="cls-30" cx="571" cy="193.6" r="4.1"/><circle class="cls-30" cx="576.8" cy="193.6" r="4.1"/><path class="cls-26" d="M572.6,193.6a3.9,3.9,0,0,0,1.3,2.9,3.8,3.8,0,0,0,1.2-2.9,4.1,4.1,0,0,0-1.2-3A4.2,4.2,0,0,0,572.6,193.6Z"/><path class="cls-10" d="M560.6,264.7c-.2,0-.4-.1-.4-.3v-6.5c0-3.6-3.2-6.5-7.2-6.5s-7.2,2.9-7.2,6.5v6.5c0,.2-.2.3-.4.3a.3.3,0,0,1-.3-.3v-6.5c0-4,3.5-7.2,7.9-7.2s7.9,3.2,7.9,7.2v6.5A.3.3,0,0,1,560.6,264.7Z"/><polygon class="cls-31" points="567.7 262.3 563.9 262.3 534.2 262.3 531.3 309.8 570.6 309.8 567.7 262.3"/><polygon class="cls-22" points="566.8 309.8 531.3 309.8 534.2 262.3 563.9 262.3 566.8 309.8"/><ellipse class="cls-32" cx="541.5" cy="264.4" rx="0.9" ry="0.8"/><ellipse class="cls-32" cx="556.6" cy="264.4" rx="0.9" ry="0.8"/><path class="cls-33" d="M552.2,250.7a9.1,9.1,0,0,0-3.7,1.3H550a7.3,7.3,0,0,1,3-.6h.7Z"/><path class="cls-10" d="M556.6,264.7a.3.3,0,0,1-.3-.3v-6.5c0-3.6-3.3-6.5-7.2-6.5s-7.2,2.9-7.2,6.5v6.5c0,.2-.2.3-.4.3s-.4-.1-.4-.3v-6.5c0-4,3.6-7.2,8-7.2s7.9,3.2,7.9,7.2v6.5C557,264.6,556.8,264.7,556.6,264.7Z"/><path class="cls-32" d="M492.2,198.6c2.4,5.1.4,8-1.1,11.1s-3.4,5.5-2.4,10.8-1,13.8-8.5,17.6-14.5,16.5-17.6,9.3l2.6-22.3,17.9-25.9Z"/><path class="cls-23" d="M479.9,218.5h0a3.4,3.4,0,0,1,4.7,1.8l7.3,17.6,17.4,9.9a3.2,3.2,0,0,1,1,1l2.5,3.4a.7.7,0,0,1-.4,1l-2.7.3a2,2,0,0,1-2.1-1.3l-.9-2.4-15.8-5.7a8.2,8.2,0,0,1-4.9-4.4L478.3,223A3.4,3.4,0,0,1,479.9,218.5Z"/><path class="cls-12" d="M479.9,218.5h0a3.4,3.4,0,0,1,4.7,1.8l7.3,17.6,17.4,9.9a3.2,3.2,0,0,1,1,1l2.5,3.4a.7.7,0,0,1-.4,1l-2.7.3a2,2,0,0,1-2.1-1.3l-.9-2.4-15.8-5.7a8.2,8.2,0,0,1-4.9-4.4L478.3,223A3.4,3.4,0,0,1,479.9,218.5Z"/><path class="cls-10" d="M529,337.7a3.9,3.9,0,0,1-7.7,0,3.9,3.9,0,1,1,7.7,0Z"/><path class="cls-10" d="M577.3,337.7a3.9,3.9,0,0,1-3.9,3.8,3.9,3.9,0,0,1,0-7.7A3.9,3.9,0,0,1,577.3,337.7Z"/><path class="cls-14" d="M574.9,337.7a1.5,1.5,0,0,1-1.5,1.4,1.4,1.4,0,0,1-1.4-1.4,1.5,1.5,0,0,1,1.4-1.5A1.5,1.5,0,0,1,574.9,337.7Z"/><path class="cls-14" d="M526.6,337.7a1.4,1.4,0,0,1-1.4,1.4,1.5,1.5,0,0,1-1.5-1.4,1.5,1.5,0,0,1,1.5-1.5A1.5,1.5,0,0,1,526.6,337.7Z"/><path class="cls-32" d="M517.8,264.4l10.3,46.2h47.3V279.9Zm1.6,1.7,29.5,8H521.2Zm31.7,8.5,20.3,5.5H522.5l-1.2-5.5Zm23.1,6.2v5.3H523.9l-1.2-5.4h51.5Zm-47.5,18h47.5v5.4H527.9Zm-.1-.6-1.2-5.5h48.8v5.5Zm-1.4-6-1.2-5.5h50.2v5.5Zm3.9,17.2-1-4.6h46.1v4.6Z"/><path class="cls-34" d="M571.6,328.5a13.3,13.3,0,0,0-9-7.8l-32.2-8.1-12.8-57.4a7,7,0,0,0-6.8-5.5H494.9v2.5h15.9a4.4,4.4,0,0,1,4.4,3.5l13,57.9-3.6,20.1,2.4.4,3.4-19L562,323a11.2,11.2,0,0,1,7.4,6.5l2,4.9,2.2-.9Z"/><rect class="cls-14" x="494.3" y="249.4" width="16.3" height="3.04" rx="0.3"/><path class="cls-35" d="M530.2,337.7h-2.4a2.7,2.7,0,1,0-5.3,0h-2.4a5.1,5.1,0,1,1,10.1,0Z"/><path class="cls-35" d="M578.5,337.7h-2.4a2.7,2.7,0,1,0-5.3,0h-2.4a5,5,0,0,1,5-5.1A5.1,5.1,0,0,1,578.5,337.7Z"/><path class="cls-23" d="M495.5,315.2s-2.3,17.9.5,20.2,9,3.4,9.1,4.9-17.7,1.7-18.7-.3,2.5-4.5,2.7-10.1a146.5,146.5,0,0,0-.4-14.7Z"/><path class="cls-23" d="M450.7,314.2s-11.2,14.2-10,17.6,6,7.5,5.2,8.9-16-7.7-15.8-9.9,4.5-2.6,7.6-7.3,7.2-12.8,7.2-12.8Z"/><path class="cls-12" d="M444.9,310.7s-1.1,2.2-2.7,5a17.9,17.9,0,0,0,5,3.1c1.9-2.7,3.5-4.6,3.5-4.6Z"/><path class="cls-12" d="M495.5,315.2h-6.8s.2,2.9.4,6.4a42.1,42.1,0,0,0,5.9-1.1C495.2,317.5,495.5,315.2,495.5,315.2Z"/><path class="cls-22" d="M483.2,216.4l4,8c1.2,2.6-.2,7.2-2,8.8a16,16,0,0,0-4.6,9.7H466.2s.4-12.3,1.7-16.8,10.9-10.7,10.9-10.7Z"/><path class="cls-23" d="M490.4,199.6l1.5,5.3h-1.2s0,4.1-1.4,4.9-3.6.4-4.5,1.9a17.7,17.7,0,0,0-1.6,4.7,7.5,7.5,0,0,1-4.4-1S481.4,201.4,490.4,199.6Z"/><path class="cls-36" d="M483.5,205l-.2-.4a31.9,31.9,0,0,0-2.9,5.4l3.6,3.5a9.8,9.8,0,0,1,.8-1.8c.9-1.5,2.4-.7,4.5-1.9A5.5,5.5,0,0,1,483.5,205Z"/><path class="cls-14" d="M466.2,242.9h14.4s.9.2,1.8,5.8,4.1,17.4,9.2,25.8c8.7,14.2,4.7,41.5,4.7,41.5s-9.5,3.4-19.4,1-23.3,4-33.4-6.9c0,0,8.3-16.1,10.4-26.7S457.9,251.3,466.2,242.9Z"/><path class="cls-37" d="M482.4,248.7c-.9-5.6-1.8-5.8-1.8-5.8a16.4,16.4,0,0,1,3.7-8.8l-8.5-14.6-1.8,3.2s.7,23.1,10,33C483.3,252.9,482.7,250.5,482.4,248.7Z"/><path class="cls-23" d="M476.6,218.5h0a3.4,3.4,0,0,1,4.7,1.8l7.4,17.6,17.4,9.9,1,1,2.4,3.4a.6.6,0,0,1-.4,1l-2.6.3a2,2,0,0,1-2.2-1.3l-.9-2.4-15.8-5.7a8,8,0,0,1-4.8-4.4L475,223A3.4,3.4,0,0,1,476.6,218.5Z"/><path class="cls-35" d="M492.2,198.6s-3,5.3-6.7,7.5-5,9.7-7.7,14.7-8.2,8.8-9.5,16-3.4,9.3-5.7,10.6a16.4,16.4,0,0,1-1.1-9.3c.9-5.4-1.7-8.8-1.1-13s6.2-7.9,8.7-11.5c3.8-5.6,3.9-13.3,9.7-17.1S490.4,195.7,492.2,198.6Z"/><path class="cls-14" d="M496.1,335.5l-2.3,2.2-6.2-1.9c-.8,1.9-1.7,3.1-1.2,4.2s18.8,1.9,18.7.3S498.9,337.7,496.1,335.5Z"/><path class="cls-14" d="M438.1,333l-4.1-5.7c-2,1.4-3.7,2.1-3.9,3.5s15.1,11.2,15.8,9.9-3.8-5.4-5.1-8.7Z"/><path class="cls-38" d="M443.5,310.1a19.1,19.1,0,0,0,11.7,6.2c7.4-18,0-41.1,0-41.1-.5,3.1-.9,5.9-1.3,8.2C451.8,294,443.5,310.1,443.5,310.1Z"/><path class="cls-39" d="M523.2,235.2a15.8,15.8,0,1,0-22.7-9l-6.1,5.3,8.9-.2A15.8,15.8,0,0,0,523.2,235.2Z"/><path class="cls-10" d="M522.3,233.9a15.4,15.4,0,1,0-14.8-27.1,15.3,15.3,0,0,0-7.2,18.3l-5.9,6.4,8.6-1.4A15.5,15.5,0,0,0,522.3,233.9Z"/><path class="cls-22" d="M518,209.8a2.5,2.5,0,1,1-4.9,0h-.2v6.9h5.2v-6.9Z"/><path class="cls-23" d="M521.5,217s-4-2.2-2-7.2H518c0,3.3-1.1,4.4-2.5,4.4s-2.4-1.1-2.4-4.4h-1.5c1.9,5-2.1,7.2-2.1,7.2a41.1,41.1,0,0,1-.3,12,62.6,62.6,0,0,0,6.3.4c2.2,0,4.3-.2,6.4-.4A44.2,44.2,0,0,1,521.5,217Z"/><path class="cls-10" d="M525.3,176.1H512.7a.8.8,0,0,1-.8-.7h0a.8.8,0,0,1,.8-.7h12.6a.8.8,0,0,1,.8.7h0A.8.8,0,0,1,525.3,176.1Z"/><path class="cls-10" d="M525.3,183h-14a.7.7,0,0,1-.7-.7h0a.8.8,0,0,1,.7-.8h14a.9.9,0,0,1,.8.8h0A.8.8,0,0,1,525.3,183Z"/><path class="cls-10" d="M525.3,189.9h-16a.8.8,0,0,1-.7-.8h0a.7.7,0,0,1,.7-.7h16a.8.8,0,0,1,.8.7h0A.9.9,0,0,1,525.3,189.9Z"/><path class="cls-10" d="M525.3,196.7H506.7a.7.7,0,0,1-.7-.7h0a.7.7,0,0,1,.7-.7h18.6a.8.8,0,0,1,.8.7h0A.8.8,0,0,1,525.3,196.7Z"/><line class="cls-40" x1="545.6" y1="206.1" x2="535.5" y2="206.1"/><line class="cls-40" x1="545.6" y1="211" x2="535.5" y2="211"/><line class="cls-40" x1="545.6" y1="216" x2="535.5" y2="216"/><line class="cls-40" x1="545.6" y1="220.9" x2="535.5" y2="220.9"/><circle class="cls-41" cx="478.7" cy="160.7" r="14.6"/><circle class="cls-22" cx="480" cy="159.4" r="14.6" transform="translate(215.2 590.4) rotate(-76.8)"/><path class="cls-10" d="M486,152.5c-3.5-1.4-6,2.1-6,2.1s-2.5-3.5-5.9-2.1-3.5,6.7-2,9,7.9,6.3,7.9,6.3,5.7-2.7,8-6.3S490.3,154.1,486,152.5Z"/><rect class="cls-42" x="716.7" y="306" width="46.9" height="23.97" rx="3.2" transform="translate(-50.1 162) rotate(-12.1)"/><rect class="cls-22" x="718.2" y="303.9" width="46.9" height="23.97" rx="3.2" transform="translate(-49.7 162.2) rotate(-12.1)"/><path class="cls-10" d="M725.9,315.6a2,2,0,0,1,1.1,0l1,.2.8.5c.1.2.3.4.3.6v.2H729l-1.3.2h-2.1c-.1.1-.2.1-.2.2a.4.4,0,0,0-.1.3l.2.2h2.9c.3.1.5.1.7.3a1.2,1.2,0,0,1,.5.5.9.9,0,0,1,.3.7,1.7,1.7,0,0,1,0,1,3.5,3.5,0,0,1-.5.8l-.8.6-1.2.4h-1.2l-1.1-.3a1.8,1.8,0,0,1-.7-.5,1,1,0,0,1-.4-.7h0a.1.1,0,0,1,.1-.1l1.3-.3h.4c0,.1.1.1.2.2h1.1a1.1,1.1,0,0,0,.8-.3c.2-.1.3-.2.3-.4s-.1-.2-.2-.2h-2.1a2.5,2.5,0,0,1-1.6-.4,1.5,1.5,0,0,1-.7-1.2,1.1,1.1,0,0,1,0-.8,2,2,0,0,1,.4-.8,1.9,1.9,0,0,1,.8-.7Z"/><path class="cls-10" d="M734.1,314a.2.2,0,0,1,.3,0l.2.2,3.4,5.6c0,.1.1.1.1.2a.1.1,0,0,1-.1.1h-.1l-1.2.3h-.3v-.2l-.5-.7-2.6.5v1.1h-.3l-1.2.3h-.2c0-.1-.1-.1-.1-.2h0l.8-6.6c.1-.1.1-.1.1-.2l.3-.2Zm-.7,4.5,1.6-.3-1.3-2.2Z"/><path class="cls-10" d="M744.1,317.3h.2c0,.1.1.1.1.2l.2,1v.2l-.2.2-4.5.9h-.2v-.2l-1.4-6.3a.3.3,0,0,1,.1-.2h.1l1.3-.2a.1.1,0,0,1,.2,0c.1,0,.1.1.1.2l1.1,4.9Z"/><path class="cls-10" d="M750.7,315.9h.2c.1,0,.1.1.1.2l.3,1v.2h-.1l-4.6,1h-.2l-.2-.2-1.3-6.3v-.2h.2l4.5-.9h.2c.1,0,.1.1.1.2l.3,1c0,.1,0,.1-.1.2h-.1l-3,.6.2,1.1,2.8-.6h.2c0,.1.1.1.1.2l.2,1v.2h-.2l-2.8.6.3,1.1Z"/><path class="cls-10" d="M754.7,310.9a2.2,2.2,0,0,1,.1.8.4.4,0,0,1,0,.5.7.7,0,0,1-.1.5l-.4.4-.7.3h-.7l-.5-.2-.4-.4c-.1-.1-.1-.3-.2-.5s-.1-.2-.1-.3a.6.6,0,0,0-.1-.4V311l.2-.5.4-.4.7-.2h.7l.5.2.4.3Zm2.2-1.6c0-.1,0-.1.1-.2h.2l.8-.2h.2l-3.4,7.3a.3.3,0,0,1-.1.2h-.2l-.8.2h-.2a.1.1,0,0,1-.1-.1h0Zm-4,2.7c.1.2.1.3.2.4h.3l.3-.2v-.4c0-.2-.1-.5-.1-.7s-.1-.3-.2-.3h-.3c-.2,0-.3.1-.3.2v.4C752.8,311.6,752.9,311.8,752.9,312Zm7,1.4c.1.2.1.5.2.7v.6c-.1.1-.1.3-.2.5s-.3.2-.4.4l-.7.2h-.6l-.6-.2-.3-.3-.3-.5c0-.2,0-.3-.1-.4V314a.4.4,0,0,1,0-.5.8.8,0,0,1,.2-.5.8.8,0,0,1,.4-.4l.6-.3h.7l.5.2.4.4A.8.8,0,0,1,759.9,313.4Zm-1.8,1.1c.1.1.1.3.2.3h.3c.2,0,.3-.1.3-.2s.1-.2,0-.4a1.3,1.3,0,0,0-.1-.6c-.1-.2-.1-.3-.2-.4h-.3l-.3.2v.4C758,314,758.1,314.3,758.1,314.5Z"/><line class="cls-43" x1="402.4" y1="342.5" x2="696.4" y2="342.5"/><path class="cls-18" d="M690.5,330.6c-.2,0-.3-.2-.3-.4v-6.4c0-3.6-3.2-6.5-7.2-6.5s-7.2,2.9-7.2,6.5v6.4a.4.4,0,0,1-.4.4c-.2,0-.3-.2-.3-.4v-6.4c0-4,3.5-7.2,7.9-7.2s7.9,3.2,7.9,7.2v6.4A.4.4,0,0,1,690.5,330.6Z"/><polygon class="cls-11" points="700 328.2 695.7 328.2 661.9 328.2 658.6 363.5 703.3 363.5 700 328.2"/><polygon class="cls-44" points="699 363.5 658.6 363.5 661.9 328.2 695.7 328.2 699 363.5"/><ellipse class="cls-32" cx="671.5" cy="330.2" rx="0.9" ry="0.8"/><ellipse class="cls-32" cx="686.6" cy="330.2" rx="0.9" ry="0.8"/><path class="cls-45" d="M682.1,316.6a10.9,10.9,0,0,0-3.6,1.2H680a7.3,7.3,0,0,1,3-.6h.6Z"/><path class="cls-18" d="M686.6,330.6c-.2,0-.3-.2-.3-.4v-6.4c0-3.6-3.3-6.5-7.3-6.5s-7.2,2.9-7.2,6.5v6.4c0,.2-.1.4-.3.4a.4.4,0,0,1-.4-.4v-6.4c0-4,3.6-7.2,7.9-7.2s8,3.2,8,7.2v6.4A.4.4,0,0,1,686.6,330.6Z"/><line class="cls-43" x1="646.9" y1="363.5" x2="717.5" y2="363.5"/></g></svg>