<svg xmlns="http://www.w3.org/2000/svg" xmlns:xlink="http://www.w3.org/1999/xlink" viewBox="0 0 825 515.8"><defs><style>.cls-1,.cls-27,.cls-40,.cls-43{fill:none;}.cls-2,.cls-3{fill:#ffc902;}.cls-2{opacity:0.3;}.cls-4{fill:#ffcd05;opacity:0.5;}.cls-5{fill:#6582db;}.cls-6{fill:#7c6bb0;}.cls-7{fill:#a0509f;}.cls-13,.cls-18,.cls-20,.cls-36,.cls-37,.cls-38,.cls-39,.cls-41,.cls-42,.cls-45,.cls-8{opacity:0.3;}.cls-9{fill:url(#linear-gradient);}.cls-10{fill:#5f9e7a;}.cls-11{fill:#fff;}.cls-12{fill:#3a614b;}.cls-14{fill:#2db671;}.cls-15{fill:#3c57ab;}.cls-16{clip-path:url(#clip-path);}.cls-17{fill:url(#linear-gradient-2);}.cls-18{fill:url(#linear-gradient-3);}.cls-19{fill:#595959;}.cls-20{fill:url(#linear-gradient-4);}.cls-21{opacity:0.4;}.cls-22{fill:#ff6344;}.cls-23{fill:#ff927d;}.cls-24{fill:#594000;}.cls-25{fill:#ffb700;}.cls-26{fill:#c48d00;}.cls-27{stroke:#7697ff;stroke-width:0.41px;}.cls-27,.cls-40,.cls-43{stroke-miterlimit:10;}.cls-28{fill:#a1b8ff;}.cls-29{fill:url(#linear-gradient-5);}.cls-30{fill:#ffdb82;}.cls-31{fill:#a33f2c;}.cls-32{fill:#333745;}.cls-33{fill:#c2c2c2;}.cls-34{fill:#52586e;}.cls-35{fill:#414657;}.cls-36{fill:url(#linear-gradient-6);}.cls-37{fill:url(#linear-gradient-7);}.cls-38{fill:url(#linear-gradient-8);}.cls-39{fill:url(#linear-gradient-9);}.cls-40{stroke:#ffdb82;stroke-width:1.45px;}.cls-41{fill:url(#linear-gradient-10);}.cls-42{fill:url(#linear-gradient-11);}.cls-43{stroke:#333745;stroke-width:0.94px;}.cls-44{fill:#4b7d61;}.cls-45{fill:url(#linear-gradient-12);}</style><linearGradient id="linear-gradient" x1="514.54" y1="218.44" x2="514.54" y2="269.69" gradientUnits="userSpaceOnUse"><stop offset="0"/><stop offset="1" stop-opacity="0"/></linearGradient><clipPath id="clip-path"><path class="cls-1" d="M608.6,210H594.8a3.1,3.1,0,0,0-2.9,2.2l-.4,1.6a3.2,3.2,0,0,1-3.1,2.4H565.5a3.1,3.1,0,0,1-3-2.4l-.5-1.6a2.9,2.9,0,0,0-2.8-2.2H545.4a11.7,11.7,0,0,0-11.8,11.7V356.1a11.7,11.7,0,0,0,11.8,11.7h63.2a11.7,11.7,0,0,0,11.8-11.7V221.7A11.7,11.7,0,0,0,608.6,210Z"/></clipPath><linearGradient id="linear-gradient-2" x1="576.99" y1="393.4" x2="576.99" y2="315.12" gradientUnits="userSpaceOnUse"><stop offset="0" stop-color="#a1b8ff"/><stop offset="1" stop-color="#fff"/></linearGradient><linearGradient id="linear-gradient-3" x1="576.99" y1="342.79" x2="576.99" y2="365.19" xlink:href="#linear-gradient"/><linearGradient id="linear-gradient-4" x1="576.99" y1="238.01" x2="576.99" y2="262.35" xlink:href="#linear-gradient"/><linearGradient id="linear-gradient-5" x1="496.12" y1="189.04" x2="496.12" y2="250.37" xlink:href="#linear-gradient"/><linearGradient id="linear-gradient-6" x1="422.3" y1="237.43" x2="428.24" y2="243.19" xlink:href="#linear-gradient"/><linearGradient id="linear-gradient-7" x1="418.86" y1="262.51" x2="427.97" y2="290.18" xlink:href="#linear-gradient"/><linearGradient id="linear-gradient-8" x1="394.43" y1="295.92" x2="388.88" y2="360.07" xlink:href="#linear-gradient"/><linearGradient id="linear-gradient-9" x1="478.47" y1="225.48" x2="438.28" y2="263.52" gradientTransform="translate(78.4 -109.3) rotate(16.4)" xlink:href="#linear-gradient"/><linearGradient id="linear-gradient-10" x1="418.74" y1="177.89" x2="418.74" y2="214.21" xlink:href="#linear-gradient"/><linearGradient id="linear-gradient-11" x1="600.23" y1="288.49" x2="647.16" y2="288.49" gradientTransform="translate(8.1 -5.9)" xlink:href="#linear-gradient"/><linearGradient id="linear-gradient-12" x1="618.53" y1="337.25" x2="623.65" y2="337.25" xlink:href="#linear-gradient"/></defs><title>theme1</title><g id="Layer_4" data-name="Layer 4"><circle class="cls-2" cx="615.4" cy="110.5" r="108.7"/><path class="cls-3" d="M500.3,58.7C368.7,61.4,235.9,162,243.1,233c4,39.3,48.7,46.7,52.7,100.2,3.7,48.8-31,75-16.1,101.1,13.4,23.6,54.3,24.4,86.8,24.6,44.4.4,171.1,1.3,206.3-64.8,38.5-72.2-68.1-156.3-26.7-218.7,31.5-47.6,116.1-33.2,118.7-55.9S586.2,56.8,500.3,58.7Z"/><circle class="cls-3" cx="270.1" cy="68.1" r="30.4"/><circle class="cls-4" cx="642.7" cy="333.1" r="180.6"/></g><g id="OBJECTS"><path class="cls-5" d="M672.3,323.1h-9.1v-4.4c0-3.9-3.5-7.2-7.9-7.2l-1.7.2h-.3a6.3,6.3,0,0,0-1.9-.3c-4.4,0-8,3.3-8,7.2v4.4h-9.2L630.9,375h44.7Zm-9.8-4.4v4.4h-3.2v-4.4a7,7,0,0,0-4.5-6.4h.5C659.3,312.2,662.5,315.2,662.5,318.7Zm-10.2-5.9,1-.3a6.7,6.7,0,0,1,5.3,6.2v4.4H648.1v-4.4A6.5,6.5,0,0,1,652.3,312.8Zm-8.1,5.9c0-3.5,3.2-6.5,7.2-6.5h.2l-.8.4h0a7.2,7.2,0,0,0-3.4,5.9v4.4h-3.2Z"/><path class="cls-6" d="M655.6,182.1a22.7,22.7,0,0,1,6.8,2.3,19.6,19.6,0,0,1,4.8,3.4,14.8,14.8,0,0,1,3,4.2,10.7,10.7,0,0,1,1.2,4,2,2,0,0,1-.6,1.5,2.5,2.5,0,0,1-1.6.6h-5.4a3.4,3.4,0,0,1-2-.5,4.1,4.1,0,0,1-1.2-1.4,10.8,10.8,0,0,0-3.6-3.4c-1.6-1-4-1.4-7.1-1.4a17.2,17.2,0,0,0-3.9.4,13.3,13.3,0,0,0-3.2,1.2,8.1,8.1,0,0,0-2.1,2,4.3,4.3,0,0,0-.8,2.7,5,5,0,0,0,.8,2.9,6.1,6.1,0,0,0,2.8,2,21.4,21.4,0,0,0,5,1.5l7.3,1.7a39.2,39.2,0,0,1,7.9,2.4,17.7,17.7,0,0,1,5.4,3.3,10.9,10.9,0,0,1,2.9,4.4,16.6,16.6,0,0,1,.9,5.7,15.6,15.6,0,0,1-1.1,5.7,16.1,16.1,0,0,1-3.4,4.8,19.2,19.2,0,0,1-5.5,3.5,29.9,29.9,0,0,1-7.3,2v5.3a2.1,2.1,0,0,1-2.1,2.1h-6.3a2.1,2.1,0,0,1-2.1-2.1v-5.3a28.8,28.8,0,0,1-6.7-1.9,23.8,23.8,0,0,1-5.4-3.1,17.3,17.3,0,0,1-3.7-4.4,13.6,13.6,0,0,1-1.6-5.4,2.1,2.1,0,0,1,.6-1.6,2.4,2.4,0,0,1,1.6-.5h5.4a4.1,4.1,0,0,1,2.1.4,4.2,4.2,0,0,1,1.2,1.4,12,12,0,0,0,1.3,2.1,9.8,9.8,0,0,0,2.1,1.8,17.5,17.5,0,0,0,3.3,1.3,23.4,23.4,0,0,0,5,.5,21.5,21.5,0,0,0,4.5-.4,11.2,11.2,0,0,0,3.9-1.2,6.7,6.7,0,0,0,2.6-2,4.4,4.4,0,0,0,1.1-3,3.8,3.8,0,0,0-1.1-2.8,8.4,8.4,0,0,0-3.4-1.9c-1.5-.5-3.3-1-5.5-1.5l-7.6-1.8a41.9,41.9,0,0,1-6.8-2.2,16,16,0,0,1-4.9-3.2,11.4,11.4,0,0,1-2.8-4.4,15.9,15.9,0,0,1-1-6.1,13.1,13.1,0,0,1,1.2-5.6,17,17,0,0,1,3.2-4.7,17.7,17.7,0,0,1,5-3.4,25.2,25.2,0,0,1,6.4-2v-5.4a2,2,0,0,1,.6-1.4,1.8,1.8,0,0,1,1.5-.7h6.3a1.8,1.8,0,0,1,1.5.7,2,2,0,0,1,.6,1.4Z"/><path class="cls-7" d="M539.3,171.9a8.3,8.3,0,0,1,2.9,1,8,8,0,0,1,2.1,1.5,4.6,4.6,0,0,1,1.3,1.8,6.4,6.4,0,0,1,.5,1.7.9.9,0,0,1-.3.7l-.6.2h-2.4l-.9-.2c-.2-.1-.3-.3-.5-.6a3.6,3.6,0,0,0-1.5-1.5,6.3,6.3,0,0,0-3.1-.6l-1.7.2-1.4.5a3.8,3.8,0,0,0-.9.9,2,2,0,0,0-.3,1.1,2.3,2.3,0,0,0,.3,1.3l1.2.9,2.2.6,3.1.7a20.8,20.8,0,0,1,3.5,1.1,7.4,7.4,0,0,1,2.3,1.4,5,5,0,0,1,1.3,1.9,9.3,9.3,0,0,1,.4,2.5,6,6,0,0,1-.5,2.4,8,8,0,0,1-1.5,2.1,8.2,8.2,0,0,1-2.4,1.5,14,14,0,0,1-3.1.9v2.3a.7.7,0,0,1-.3.6.9.9,0,0,1-.6.3h-2.8a.9.9,0,0,1-.6-.3.7.7,0,0,1-.3-.6v-2.3a13.8,13.8,0,0,1-2.9-.8,10.9,10.9,0,0,1-2.3-1.4,5.8,5.8,0,0,1-1.6-1.9,6.2,6.2,0,0,1-.7-2.3.9.9,0,0,1,.3-.7l.6-.2h2.4c.4,0,.7,0,.9.2a1,1,0,0,1,.5.6,2.4,2.4,0,0,0,.6.9,2.2,2.2,0,0,0,.9.7,3,3,0,0,0,1.4.6l2.2.2h1.9a6.9,6.9,0,0,0,1.7-.5,3.5,3.5,0,0,0,1.1-.9,2.1,2.1,0,0,0,.5-1.3,1.7,1.7,0,0,0-.5-1.2,3.8,3.8,0,0,0-1.4-.9l-2.4-.6-3.3-.8a21.3,21.3,0,0,1-3-.9,11,11,0,0,1-2.1-1.4,7.6,7.6,0,0,1-1.2-1.9,7.3,7.3,0,0,1-.4-2.7,6.9,6.9,0,0,1,.5-2.4,6.6,6.6,0,0,1,1.4-2,7.1,7.1,0,0,1,2.2-1.5,10.7,10.7,0,0,1,2.7-.9v-2.3a1.1,1.1,0,0,1,.9-.9h2.8a1.1,1.1,0,0,1,.9.9Z"/><g class="cls-8"><rect class="cls-9" x="490.1" y="229.6" width="48.9" height="28.31" rx="3.7"/></g><rect class="cls-10" x="491.7" y="227.9" width="48.9" height="28.31" rx="3.7"/><g class="cls-8"><path class="cls-11" d="M514.6,243.9H496.4a.7.7,0,0,1-.7-.6h0a.7.7,0,0,1,.7-.7h18.2a.7.7,0,0,1,.7.7h0A.7.7,0,0,1,514.6,243.9Z"/></g><g class="cls-8"><path class="cls-11" d="M504.4,248h-8a.7.7,0,0,1-.7-.7h0a.7.7,0,0,1,.7-.7h8a.7.7,0,0,1,.7.7h0A.7.7,0,0,1,504.4,248Z"/></g><g class="cls-8"><path class="cls-11" d="M531.9,248h-8a.7.7,0,0,1-.7-.7h0a.7.7,0,0,1,.7-.7h8a.7.7,0,0,1,.7.7h0A.7.7,0,0,1,531.9,248Z"/></g><path class="cls-12" d="M536.9,227.9H495.4a3.8,3.8,0,0,0-3.7,3.7v7.9h48.9v-7.9A3.8,3.8,0,0,0,536.9,227.9Z"/><path class="cls-13" d="M536.9,227.9h-9.7v28.3h9.7a3.8,3.8,0,0,0,3.7-3.7V231.6A3.8,3.8,0,0,0,536.9,227.9Z"/><circle class="cls-14" cx="489.1" cy="310.5" r="46.5" transform="matrix(0.16, -0.99, 0.99, 0.16, 103.19, 742.63)"/><rect class="cls-15" x="530" y="206.3" width="94" height="165.21" rx="15.3"/><g class="cls-16"><path class="cls-11" d="M608.6,210H594.8a3.1,3.1,0,0,0-2.9,2.2l-.4,1.6a3.2,3.2,0,0,1-3.1,2.4H565.5a3.1,3.1,0,0,1-3-2.4l-.5-1.6a2.9,2.9,0,0,0-2.8-2.2H545.4a11.7,11.7,0,0,0-11.8,11.7V356.1a11.7,11.7,0,0,0,11.8,11.7h63.2a11.7,11.7,0,0,0,11.8-11.7V221.7A11.7,11.7,0,0,0,608.6,210Z"/><path class="cls-17" d="M608.6,210H594.8a3.1,3.1,0,0,0-2.9,2.2l-.4,1.6a3.2,3.2,0,0,1-3.1,2.4H565.5a3.1,3.1,0,0,1-3-2.4l-.5-1.6a2.9,2.9,0,0,0-2.8-2.2H545.4a11.7,11.7,0,0,0-11.8,11.7V356.1a11.7,11.7,0,0,0,11.8,11.7h63.2a11.7,11.7,0,0,0,11.8-11.7V221.7A11.7,11.7,0,0,0,608.6,210Z"/><path class="cls-18" d="M561.3,346.3h31.4a6.7,6.7,0,0,1,6.6,6.6h0a6.6,6.6,0,0,1-6.6,6.6H561.3a6.6,6.6,0,0,1-6.6-6.6h0A6.7,6.7,0,0,1,561.3,346.3Z"/><rect class="cls-19" x="560.8" y="250.5" width="2.1" height="14.06"/><rect class="cls-19" x="591" y="250.5" width="2.1" height="14.06"/><g class="cls-8"><rect x="560.8" y="255.8" width="2.1" height="5.78"/><rect x="591" y="255.8" width="2.1" height="5.78"/></g><rect class="cls-15" x="554.6" y="258" width="44.7" height="15.29" rx="2.8"/><rect class="cls-5" x="554.6" y="258" width="44.7" height="14.2" rx="2.7"/><path class="cls-15" d="M564.6,262.2h1.2l.9.5a1.3,1.3,0,0,1,.6.7.9.9,0,0,1,.3.7h-2.3l-.3-.2h-1.3a.5.5,0,0,0,0,.6h.3l.6.2.9.2,1,.3.7.4.4.6a2.4,2.4,0,0,1,.2.8,1.7,1.7,0,0,1-.3,1,1.9,1.9,0,0,1-.6.7l-1,.4-1.3.2-1.2-.2-1-.5a1.3,1.3,0,0,1-.6-.7,1.1,1.1,0,0,1-.3-.7c0-.1,0-.2.1-.2h1.7a.1.1,0,0,1,.1.1h.2c0,.1.1.1.2.2l.3.2h1.4c.3-.1.4-.2.4-.4s-.1-.2-.1-.3h-.4l-.7-.2-1-.2a2.7,2.7,0,0,1-1.5-.8,2,2,0,0,1-.5-1.4,3.1,3.1,0,0,1,.2-.8,1.9,1.9,0,0,1,.6-.7l.9-.5Z"/><path class="cls-15" d="M575.5,262.3h.2a.3.3,0,0,1,.1.2v6.8H574v-2.7h-2.2v2.5c0,.1-.1.1-.1.2h-1.7v-6.8a.3.3,0,0,1,.1-.2h1.7V265h2.2v-2.5a.3.3,0,0,1,.1-.2h1.5Z"/><path class="cls-15" d="M578,264.9a4.3,4.3,0,0,1,.2-1.1l.6-.8a2.1,2.1,0,0,1,1-.6,2.7,2.7,0,0,1,1.3-.2,3.2,3.2,0,0,1,1.4.2,1.8,1.8,0,0,1,.9.6,2.7,2.7,0,0,1,.7.8,4.3,4.3,0,0,1,.2,1.1v1.8a4.3,4.3,0,0,1-.2,1.1l-.7.9-.9.5a3.2,3.2,0,0,1-1.4.3,2.8,2.8,0,0,1-1.3-.3,3.1,3.1,0,0,1-1-.5l-.6-.9a4.3,4.3,0,0,1-.2-1.1v-1.8Zm4.4,1.8v-.4a1.3,1.3,0,0,0,0-1V265a.7.7,0,0,0-.1-.5.5.5,0,0,0-.2-.4l-.4-.2h-1.1a.7.7,0,0,0-.6.6.7.7,0,0,0-.1.5.4.4,0,0,0-.1.3v1a.8.8,0,0,0,.1.4,1.1,1.1,0,0,0,.3.8,1.2,1.2,0,0,0,.9.3,1.3,1.3,0,0,0,1-.3A1.1,1.1,0,0,0,582.4,266.7Z"/><path class="cls-15" d="M589.7,262.3h1.1a1.9,1.9,0,0,1,.9.5,2,2,0,0,1,.6.7,3,3,0,0,1,.2,1,3.6,3.6,0,0,1-.2,1.1,2,2,0,0,1-.6.7,1.9,1.9,0,0,1-.9.5h-2.4v2.1c0,.1-.1.1-.1.2h-1.7v-6.8a.3.3,0,0,1,.1-.2h3.1Zm-1.3,3.1h1.2a.8.8,0,0,0,.7-.2.8.8,0,0,0,0-1.2l-.7-.2h-1.2Z"/><path class="cls-11" d="M564.6,261.4l1.2.2.9.5a1.3,1.3,0,0,1,.6.7.9.9,0,0,1,.3.6.3.3,0,0,1-.1.2h-1.9a.1.1,0,0,0-.1-.1h-.2l-.3-.2h-1.3a.4.4,0,0,0-.1.3c0,.1,0,.2.1.2l.3.2.6.2.9.2,1,.3.7.4.4.6a1.9,1.9,0,0,1,.2.8,1.7,1.7,0,0,1-.3,1,1.2,1.2,0,0,1-.6.6l-1,.5h-2.5l-1-.5a1.3,1.3,0,0,1-.6-.7,1.1,1.1,0,0,1-.3-.8.1.1,0,0,1,.1-.1.1.1,0,0,1,.1-.1h1.6a.1.1,0,0,1,.1.1h.2c0,.1.1.1.2.2h1.7c.3-.1.4-.2.4-.4s-.1-.2-.1-.3l-.4-.2h-.7l-1-.2a2.7,2.7,0,0,1-1.5-.8,2,2,0,0,1-.5-1.4,2.4,2.4,0,0,1,.2-.8,1.3,1.3,0,0,1,.6-.7,1.9,1.9,0,0,1,.9-.5Z"/><path class="cls-11" d="M575.5,261.5h.2c.1.1.1.1.1.2v6.6a.3.3,0,0,1-.1.2H574a.3.3,0,0,1-.1-.2v-2.5h-2.2v2.5a.3.3,0,0,0-.1.2h-1.7a.3.3,0,0,1-.1-.2v-6.6c0-.1,0-.1.1-.2h1.7c0,.1.1.1.1.2v2.5h2.2v-2.5c0-.1,0-.1.1-.2h1.5Z"/><path class="cls-11" d="M578,264.2a4.3,4.3,0,0,1,.2-1.1l.6-.9,1-.5a2.8,2.8,0,0,1,1.3-.3,3.2,3.2,0,0,1,1.4.3l.9.5.7.9a4.3,4.3,0,0,1,.2,1.1V266a4.3,4.3,0,0,1-.2,1.1,2.7,2.7,0,0,1-.7.8,1.8,1.8,0,0,1-.9.6,3.2,3.2,0,0,1-1.4.2,2.7,2.7,0,0,1-1.3-.2,2.1,2.1,0,0,1-1-.6l-.6-.8a4.3,4.3,0,0,1-.2-1.1v-1.8Zm4.4,1.7v-.4a.6.6,0,0,0,.1-.4.9.9,0,0,0-.1-.5v-.4a.6.6,0,0,0-.1-.4.5.5,0,0,0-.2-.4l-.4-.2h-1.1a.7.7,0,0,0-.6.6.6.6,0,0,0-.1.4.8.8,0,0,0-.1.4v.9c0,.2,0,.3.1.4a1.1,1.1,0,0,0,1.2,1.2,1.3,1.3,0,0,0,1-.3A1.2,1.2,0,0,0,582.4,265.9Z"/><path class="cls-11" d="M589.7,261.5l1.1.2a1.9,1.9,0,0,1,.9.4,2.4,2.4,0,0,1,.6.8,3,3,0,0,1,.2,1,3.6,3.6,0,0,1-.2,1.1,2,2,0,0,1-.6.7,1.9,1.9,0,0,1-.9.4l-1.1.2h-1.3v2.1a.3.3,0,0,0-.1.2h-1.7a.3.3,0,0,1-.1-.2v-6.6c0-.1,0-.1.1-.2h3.1Zm-1.3,3.2h1.2a.8.8,0,0,0,.7-.2.7.7,0,0,0,0-1.2l-.7-.2h-1.2Z"/><path class="cls-20" d="M533.6,236.5v10.8a8.7,8.7,0,0,0,17.4,0,8.7,8.7,0,1,0,17.3,0A8.7,8.7,0,0,0,577,256h0a8.7,8.7,0,0,0,8.7-8.7,8.7,8.7,0,1,0,17.3,0,8.7,8.7,0,1,0,17.4,0V236.5Z"/><path class="cls-21" d="M583.5,213.4h-13a.6.6,0,0,1-.6-.6h0a.6.6,0,0,1,.6-.6h13a.6.6,0,0,1,.6.6h0A.6.6,0,0,1,583.5,213.4Z"/><path class="cls-21" d="M567.9,212.8a1,1,0,1,1-2,0,1,1,0,0,1,2,0Z"/><path class="cls-22" d="M542.3,252.7h0a8.7,8.7,0,0,1-8.7-8.7V201.3H551V244A8.7,8.7,0,0,1,542.3,252.7Z"/><path class="cls-13" d="M533.6,239.9V244a8.7,8.7,0,0,0,17.4,0v-4.1Z"/><path class="cls-23" d="M559.7,252.7h0A8.7,8.7,0,0,1,551,244V201.3h17.3V244A8.7,8.7,0,0,1,559.7,252.7Z"/><path class="cls-13" d="M551,239.9V244a8.7,8.7,0,1,0,17.3,0v-4.1Z"/><path class="cls-22" d="M577,252.7h0a8.7,8.7,0,0,1-8.7-8.7V201.3h17.4V244A8.7,8.7,0,0,1,577,252.7Z"/><path class="cls-13" d="M568.3,239.9V244a8.7,8.7,0,0,0,17.4,0v-4.1Z"/><path class="cls-23" d="M594.3,252.7h0a8.6,8.6,0,0,1-8.6-8.7V201.3H603V244A8.7,8.7,0,0,1,594.3,252.7Z"/><path class="cls-13" d="M585.7,239.9V244a8.7,8.7,0,1,0,17.3,0v-4.1Z"/><path class="cls-22" d="M611.7,252.7h0A8.7,8.7,0,0,1,603,244V201.3h17.4V244A8.7,8.7,0,0,1,611.7,252.7Z"/><path class="cls-13" d="M603,239.9V244a8.7,8.7,0,1,0,17.4,0v-4.1Z"/><path class="cls-22" d="M583.5,284.2a6.5,6.5,0,1,1-13,0h-.4v18.4h13.8V284.2Z"/><path class="cls-23" d="M592.9,303.4s-10.6-6-5.4-19.2h-4c0,8.9-2.9,11.9-6.5,11.9s-6.5-3-6.5-11.9h-4c5.2,13.2-5.4,19.2-5.4,19.2,1.7,12.5.1,25.4-1,32a159.1,159.1,0,0,0,33.8,0C592.8,328.8,591.2,315.9,592.9,303.4Z"/><circle class="cls-22" cx="577" cy="301.8" r="1.2"/><circle class="cls-22" cx="577" cy="309.1" r="1.2"/><circle class="cls-22" cx="577" cy="316.4" r="1.2"/><path class="cls-22" d="M578.2,323.7a1.2,1.2,0,0,1-1.2,1.2,1.2,1.2,0,0,1-1.2-1.2,1.2,1.2,0,0,1,1.2-1.2A1.3,1.3,0,0,1,578.2,323.7Z"/><path class="cls-24" d="M532.3,286.1a21.4,21.4,0,0,1-7.9-1.2h0v8h15.8v-8h0A21.4,21.4,0,0,1,532.3,286.1Z"/><path class="cls-25" d="M540.2,284.9c-.4,3-3.8,5.4-7.9,5.4s-7.5-2.4-7.9-5.4a41,41,0,0,0-17,8.6l6.3,10.6,3.3-2.3,1.2,33.5h28.2l1.2-33.5,3.3,2.3,6.3-10.6A41,41,0,0,0,540.2,284.9Z"/><polygon class="cls-26" points="517.7 321 546.9 321 546.9 320 517.6 320 517.7 321"/><polygon class="cls-26" points="546.7 326.6 517.9 326.6 517.9 327.6 546.7 327.6 546.7 326.6"/><polygon class="cls-26" points="517.4 313.5 517.5 314.5 547.1 314.5 547.2 313.5 517.4 313.5"/><polygon class="cls-26" points="517.2 307.2 547.4 307.2 547.4 306.2 517.2 306.2 517.2 307.2"/><path class="cls-5" d="M629.9,284.4H603.4l-1.3,50.9h8.5c0-8.1,1.6-36.4,6-36.4s6,28.3,6,36.4h8.5Z"/><line class="cls-27" x1="605.1" y1="284.4" x2="604" y2="335.3"/><line class="cls-27" x1="628.1" y1="284.4" x2="629.2" y2="335.3"/><path class="cls-28" d="M622.6,335.3h8.5V331h-8.5C622.6,332.7,622.6,334.2,622.6,335.3Z"/><path class="cls-28" d="M610.7,331h-8.5v4.3h8.5C610.6,334.2,610.6,332.7,610.7,331Z"/><path class="cls-15" d="M608.3,284.4h-4.9l-.3,9.3C606.9,292.3,608,286.5,608.3,284.4Z"/><path class="cls-15" d="M624.9,284.4h5l.2,9.3C626.3,292.3,625.2,286.5,624.9,284.4Z"/><line class="cls-27" x1="616.6" y1="284.4" x2="616.6" y2="299"/><path class="cls-27" d="M618.8,284.4v5.8a5.2,5.2,0,0,1-2.2,4.2h0"/><path class="cls-5" d="M561.3,344.9h31.4a6.6,6.6,0,0,1,6.6,6.6h0a6.7,6.7,0,0,1-6.6,6.6H561.3a6.7,6.7,0,0,1-6.6-6.6h0A6.6,6.6,0,0,1,561.3,344.9Z"/><path class="cls-11" d="M568.3,354a.1.1,0,0,1-.1-.1h-.1v-4.7c0-.1,0-.1.1-.1a.1.1,0,0,1,.1-.1h3.2a1,1,0,0,1,.5.4l.3.5c0,.2.1.3.1.5s0,.3-.1.4,0,.2-.1.2a.3.3,0,0,1-.1.2H572l.4.5c0,.2.1.4.1.6a1.3,1.3,0,0,1-.1.6l-.3.5a.9.9,0,0,1-.5.3l-.8.2Zm2.7-3.6a.4.4,0,0,0-.1-.3h-1.4v.9h1.1l.3-.2C571,350.7,571,350.6,571,350.4Zm-1.5,2.5h1.2l.3-.2a.5.5,0,0,0,0-.6h-1.5Z"/><path class="cls-11" d="M578.9,348.9c.1,0,.1,0,.1.1s.1,0,.1.1V352a2.9,2.9,0,0,1-.2.9,2.1,2.1,0,0,1-.4.6l-.7.4-.9.2-.9-.2-.7-.4-.5-.6a2.8,2.8,0,0,1-.1-.9v-2.9H576V352a.8.8,0,0,0,.2.6.9.9,0,0,0,.7.3,1.1,1.1,0,0,0,.9-.9v-2.9h0a.1.1,0,0,1,.1-.1Z"/><path class="cls-11" d="M584.2,353.8h-.1a.1.1,0,0,1-.1.1h-1a.1.1,0,0,1-.1-.1h-.1v-1.6l-1.7-3h0c0-.1,0-.1.1-.1s0-.1.1-.1h1.3l.9,1.8.9-1.8a.1.1,0,0,1,.1-.1c0-.1.1-.1.2-.1h1c.1,0,.1,0,.1.1s.1,0,.1.1h-.1l-1.6,3Z"/></g><path class="cls-13" d="M585.3,213.2H568.6a.8.8,0,0,1-.7-.7h0a.8.8,0,0,1,.7-.7h16.7a.7.7,0,0,1,.7.7h0A.7.7,0,0,1,585.3,213.2Z"/><g class="cls-8"><rect class="cls-29" x="469.1" y="201.5" width="54" height="31.27" rx="4.1"/></g><rect class="cls-5" x="470.4" y="199.9" width="54" height="31.27" rx="4.1"/><rect class="cls-15" x="470.4" y="207.9" width="54" height="6.95"/><path class="cls-28" d="M494.9,219.7H474.7a.7.7,0,0,1-.7-.8h0a.7.7,0,0,1,.7-.7h20.2a.7.7,0,0,1,.7.7h0A.7.7,0,0,1,494.9,219.7Z"/><path class="cls-28" d="M486.4,223.6H474.7a.7.7,0,0,1-.7-.7h0a.8.8,0,0,1,.7-.8h11.7a.8.8,0,0,1,.7.8h0A.7.7,0,0,1,486.4,223.6Z"/><path class="cls-28" d="M494.9,204.8H474.7a.7.7,0,0,1-.7-.7h0a.7.7,0,0,1,.7-.8h20.2a.7.7,0,0,1,.7.8h0A.7.7,0,0,1,494.9,204.8Z"/><circle class="cls-30" cx="511" cy="223.6" r="4.1"/><circle class="cls-30" cx="516.8" cy="223.6" r="4.1"/><path class="cls-26" d="M512.6,223.6a3.9,3.9,0,0,0,1.3,2.9,3.8,3.8,0,0,0,1.2-2.9,4.1,4.1,0,0,0-1.2-3A4.2,4.2,0,0,0,512.6,223.6Z"/><path class="cls-11" d="M500.6,294.7c-.2,0-.4-.1-.4-.3v-6.5c0-3.6-3.2-6.5-7.2-6.5s-7.2,2.9-7.2,6.5v6.5c0,.2-.2.3-.4.3a.3.3,0,0,1-.3-.3v-6.5c0-4,3.5-7.2,7.9-7.2s7.9,3.2,7.9,7.2v6.5A.3.3,0,0,1,500.6,294.7Z"/><polygon class="cls-31" points="507.7 292.3 503.9 292.3 474.2 292.3 471.3 339.8 510.6 339.8 507.7 292.3"/><polygon class="cls-22" points="506.8 339.8 471.3 339.8 474.2 292.3 503.9 292.3 506.8 339.8"/><ellipse class="cls-32" cx="481.5" cy="294.4" rx="0.9" ry="0.8"/><ellipse class="cls-32" cx="496.6" cy="294.4" rx="0.9" ry="0.8"/><path class="cls-33" d="M492.2,280.7a9.1,9.1,0,0,0-3.7,1.3H490a7.3,7.3,0,0,1,3-.6h.7Z"/><path class="cls-11" d="M496.6,294.7a.3.3,0,0,1-.3-.3v-6.5c0-3.6-3.3-6.5-7.2-6.5s-7.2,2.9-7.2,6.5v6.5c0,.2-.2.3-.4.3s-.4-.1-.4-.3v-6.5c0-4,3.6-7.2,8-7.2s7.9,3.2,7.9,7.2v6.5C497,294.6,496.8,294.7,496.6,294.7Z"/><path class="cls-32" d="M432.2,228.6c2.4,5.1.4,8-1.1,11.1s-3.4,5.5-2.4,10.8-1,13.8-8.5,17.6-14.5,16.5-17.6,9.3l2.6-22.3,17.9-25.9Z"/><path class="cls-23" d="M419.9,248.5h0a3.4,3.4,0,0,1,4.7,1.8l7.3,17.6,17.4,9.9a3.2,3.2,0,0,1,1,1l2.5,3.4a.7.7,0,0,1-.4,1l-2.7.3a2,2,0,0,1-2.1-1.3l-.9-2.4-15.8-5.7a8.2,8.2,0,0,1-4.9-4.4L418.3,253A3.4,3.4,0,0,1,419.9,248.5Z"/><path class="cls-13" d="M419.9,248.5h0a3.4,3.4,0,0,1,4.7,1.8l7.3,17.6,17.4,9.9a3.2,3.2,0,0,1,1,1l2.5,3.4a.7.7,0,0,1-.4,1l-2.7.3a2,2,0,0,1-2.1-1.3l-.9-2.4-15.8-5.7a8.2,8.2,0,0,1-4.9-4.4L418.3,253A3.4,3.4,0,0,1,419.9,248.5Z"/><path class="cls-11" d="M469,367.7a3.9,3.9,0,0,1-7.7,0,3.9,3.9,0,1,1,7.7,0Z"/><path class="cls-11" d="M517.3,367.7a3.9,3.9,0,0,1-3.9,3.8,3.9,3.9,0,0,1,0-7.7A3.9,3.9,0,0,1,517.3,367.7Z"/><path class="cls-15" d="M514.9,367.7a1.5,1.5,0,0,1-1.5,1.4,1.4,1.4,0,0,1-1.4-1.4,1.5,1.5,0,0,1,1.4-1.5A1.5,1.5,0,0,1,514.9,367.7Z"/><path class="cls-15" d="M466.6,367.7a1.4,1.4,0,0,1-1.4,1.4,1.5,1.5,0,0,1-1.5-1.4,1.5,1.5,0,0,1,1.5-1.5A1.5,1.5,0,0,1,466.6,367.7Z"/><path class="cls-32" d="M457.8,294.4l10.3,46.2h47.3V309.9Zm1.6,1.7,29.5,8H461.2Zm31.7,8.5,20.3,5.5H462.5l-1.2-5.5Zm23.1,6.2v5.3H463.9l-1.2-5.4h51.5Zm-47.5,18h47.5v5.4H467.9Zm-.1-.6-1.2-5.5h48.8v5.5Zm-1.4-6-1.2-5.5h50.2v5.5Zm3.9,17.2-1-4.6h46.1v4.6Z"/><path class="cls-34" d="M511.6,358.5a13.3,13.3,0,0,0-9-7.8l-32.2-8.1-12.8-57.4a7,7,0,0,0-6.8-5.5H434.9v2.5h15.9a4.4,4.4,0,0,1,4.4,3.5l13,57.9-3.6,20.1,2.4.4,3.4-19L502,353a11.2,11.2,0,0,1,7.4,6.5l2,4.9,2.2-.9Z"/><rect class="cls-15" x="434.3" y="279.4" width="16.3" height="3.04" rx="0.3"/><path class="cls-35" d="M470.2,367.7h-2.4a2.7,2.7,0,1,0-5.3,0h-2.4a5.1,5.1,0,1,1,10.1,0Z"/><path class="cls-35" d="M518.5,367.7h-2.4a2.7,2.7,0,1,0-5.3,0h-2.4a5,5,0,0,1,5-5.1A5.1,5.1,0,0,1,518.5,367.7Z"/><path class="cls-23" d="M435.5,345.2s-2.3,17.9.5,20.2,9,3.4,9.1,4.9-17.7,1.7-18.7-.3,2.5-4.5,2.7-10.1a146.5,146.5,0,0,0-.4-14.7Z"/><path class="cls-23" d="M390.7,344.2s-11.2,14.2-10,17.6,6,7.5,5.2,8.9-16-7.7-15.8-9.9,4.5-2.6,7.6-7.3,7.2-12.8,7.2-12.8Z"/><path class="cls-13" d="M384.9,340.7s-1.1,2.2-2.7,5a17.9,17.9,0,0,0,5,3.1c1.9-2.7,3.5-4.6,3.5-4.6Z"/><path class="cls-13" d="M435.5,345.2h-6.8s.2,2.9.4,6.4a42.1,42.1,0,0,0,5.9-1.1C435.2,347.5,435.5,345.2,435.5,345.2Z"/><path class="cls-22" d="M423.2,246.4l4,8c1.2,2.6-.2,7.2-2,8.8a16,16,0,0,0-4.6,9.7H406.2s.4-12.3,1.7-16.8,10.9-10.7,10.9-10.7Z"/><path class="cls-23" d="M430.4,229.6l1.5,5.3h-1.2s0,4.1-1.4,4.9-3.6.4-4.5,1.9a17.7,17.7,0,0,0-1.6,4.7,7.5,7.5,0,0,1-4.4-1S421.4,231.4,430.4,229.6Z"/><path class="cls-36" d="M423.5,235l-.2-.4a31.9,31.9,0,0,0-2.9,5.4l3.6,3.5a9.8,9.8,0,0,1,.8-1.8c.9-1.5,2.4-.7,4.5-1.9A5.5,5.5,0,0,1,423.5,235Z"/><path class="cls-15" d="M406.2,272.9h14.4s.9.2,1.8,5.8,4.1,17.4,9.2,25.8c8.7,14.2,4.7,41.5,4.7,41.5s-9.5,3.4-19.4,1-23.3,4-33.4-6.9c0,0,8.3-16.1,10.4-26.7S397.9,281.3,406.2,272.9Z"/><path class="cls-37" d="M422.4,278.7c-.9-5.6-1.8-5.8-1.8-5.8a16.4,16.4,0,0,1,3.7-8.8l-8.5-14.6-1.8,3.2s.7,23.1,10,33C423.3,282.9,422.7,280.5,422.4,278.7Z"/><path class="cls-23" d="M416.6,248.5h0a3.4,3.4,0,0,1,4.7,1.8l7.4,17.6,17.4,9.9a4.7,4.7,0,0,1,1,1l2.4,3.4a.6.6,0,0,1-.4,1l-2.6.3a2,2,0,0,1-2.2-1.3l-.9-2.4-15.8-5.7a8,8,0,0,1-4.8-4.4L415,253A3.4,3.4,0,0,1,416.6,248.5Z"/><path class="cls-35" d="M432.2,228.6s-3,5.3-6.7,7.5-5,9.7-7.7,14.7-8.2,8.8-9.5,16-3.4,9.3-5.7,10.6a16.4,16.4,0,0,1-1.1-9.3c.9-5.4-1.7-8.8-1.1-13s6.2-7.9,8.7-11.5c3.8-5.6,3.9-13.3,9.7-17.1S430.4,225.7,432.2,228.6Z"/><path class="cls-15" d="M436.1,365.5l-2.3,2.2-6.2-1.9c-.8,1.9-1.7,3.1-1.2,4.2s18.8,1.9,18.7.3S438.9,367.7,436.1,365.5Z"/><path class="cls-15" d="M378.1,363l-4.1-5.7c-2,1.4-3.7,2.1-3.9,3.5s15.1,11.2,15.8,9.9-3.8-5.4-5.1-8.7Z"/><path class="cls-38" d="M383.5,340.1a19.1,19.1,0,0,0,11.7,6.2c7.4-18,0-41.1,0-41.1-.5,3.1-.9,5.9-1.3,8.2C391.8,324,383.5,340.1,383.5,340.1Z"/><path class="cls-39" d="M463.2,265.2a15.8,15.8,0,1,0-22.7-9l-6.1,5.3,8.9-.2A15.8,15.8,0,0,0,463.2,265.2Z"/><path class="cls-11" d="M462.3,263.9a15.4,15.4,0,1,0-14.8-27.1,15.3,15.3,0,0,0-7.2,18.3l-5.9,6.4,8.6-1.4A15.5,15.5,0,0,0,462.3,263.9Z"/><path class="cls-22" d="M458,239.8a2.5,2.5,0,1,1-4.9,0h-.2v6.9h5.2v-6.9Z"/><path class="cls-23" d="M461.5,247s-4-2.2-2-7.2H458c0,3.3-1.1,4.4-2.5,4.4s-2.4-1.1-2.4-4.4h-1.5c1.9,5-2.1,7.2-2.1,7.2a41.1,41.1,0,0,1-.3,12,62.6,62.6,0,0,0,6.3.4c2.2,0,4.3-.2,6.4-.4A44.2,44.2,0,0,1,461.5,247Z"/><path class="cls-11" d="M465.3,206.1H452.7a.8.8,0,0,1-.8-.7h0a.8.8,0,0,1,.8-.7h12.6a.8.8,0,0,1,.8.7h0A.8.8,0,0,1,465.3,206.1Z"/><path class="cls-11" d="M465.3,213h-14a.7.7,0,0,1-.7-.7h0a.8.8,0,0,1,.7-.8h14a.9.9,0,0,1,.8.8h0A.8.8,0,0,1,465.3,213Z"/><path class="cls-11" d="M465.3,219.9h-16a.8.8,0,0,1-.7-.8h0a.7.7,0,0,1,.7-.7h16a.8.8,0,0,1,.8.7h0A.9.9,0,0,1,465.3,219.9Z"/><path class="cls-11" d="M465.3,226.7H446.7a.7.7,0,0,1-.7-.7h0a.7.7,0,0,1,.7-.7h18.6a.8.8,0,0,1,.8.7h0A.8.8,0,0,1,465.3,226.7Z"/><line class="cls-40" x1="485.6" y1="236.1" x2="475.5" y2="236.1"/><line class="cls-40" x1="485.6" y1="241" x2="475.5" y2="241"/><line class="cls-40" x1="485.6" y1="246" x2="475.5" y2="246"/><line class="cls-40" x1="485.6" y1="250.9" x2="475.5" y2="250.9"/><circle class="cls-41" cx="418.7" cy="190.7" r="14.6"/><circle class="cls-22" cx="420" cy="189.4" r="14.6" transform="translate(139.7 555.1) rotate(-76.8)"/><path class="cls-11" d="M426,182.5c-3.5-1.4-6,2.1-6,2.1s-2.5-3.5-5.9-2.1-3.5,6.7-2,9,7.9,6.3,7.9,6.3,5.7-2.7,8-6.3S430.3,184.1,426,182.5Z"/><rect class="cls-42" x="608.4" y="270.6" width="46.9" height="23.97" rx="3.2" transform="translate(-45.2 138.5) rotate(-12.1)"/><rect class="cls-22" x="609.8" y="268.6" width="46.9" height="23.97" rx="3.2" transform="translate(-44.7 138.8) rotate(-12.1)"/><path class="cls-11" d="M617.5,280.3h1.2l1,.3a1.8,1.8,0,0,1,.7.5,2.1,2.1,0,0,1,.4.6v.2h-.1l-1.3.2h-.4c0-.1,0-.1-.1-.1h-1.6l-.2.2v.3c0,.1.1.1.1.2H620a1.1,1.1,0,0,1,.8.3,1.2,1.2,0,0,1,.5.5l.3.7a3.3,3.3,0,0,1,0,1l-.5.7a3.1,3.1,0,0,1-.9.7l-1.2.4h-1.2l-1-.3-.8-.5a1.6,1.6,0,0,1-.4-.7v-.2h.1l1.3-.3h.4c0,.1,0,.1.1.1l.2.2h.9a1,1,0,0,0,.8-.3.4.4,0,0,0,.3-.4c0-.1-.1-.2-.2-.3h-2a2.4,2.4,0,0,1-1.6-.4,1.7,1.7,0,0,1-.8-1.2v-.8a2,2,0,0,1,.4-.8,2.7,2.7,0,0,1,.8-.7Z"/><path class="cls-11" d="M625.7,278.6h.4v.2l3.5,5.6v.2h-.1l-1.3.3H628c0-.1-.1-.1-.1-.2l-.4-.7-2.6.5v.9a.3.3,0,0,1-.1.2h-.2l-1.3.3a.1.1,0,0,1-.1-.1H623l.8-6.6c0-.1,0-.2.1-.2s.1-.2.3-.2Zm-.6,4.6,1.5-.3-1.2-2.2Z"/><path class="cls-11" d="M635.7,282h.2v.2l.2,1a.1.1,0,0,1,0,.2c0,.1-.1.1-.2.1l-4.5,1h-.2c0-.1-.1-.1-.1-.2l-1.3-6.3v-.2h.2l1.3-.3h.3l1,5Z"/><path class="cls-11" d="M642.4,280.6c.1-.1.1,0,.2,0a.3.3,0,0,1,.1.2l.2,1v.2h-.2l-4.6,1h-.2c0-.1-.1-.1-.1-.2l-1.3-6.3c-.1,0,0-.1,0-.2h.2l4.5-1h.3l.2,1.1v.2h-.2l-3,.6.3,1.1,2.7-.6h.2v.2l.3,1c0,.1,0,.2-.1.2a.1.1,0,0,1-.1.1l-2.8.6.2,1.1Z"/><path class="cls-11" d="M646.3,275.6a2.4,2.4,0,0,1,.2.8v.5a.8.8,0,0,1-.2.5.8.8,0,0,1-.4.4l-.6.3h-.7l-.5-.2a.8.8,0,0,1-.4-.4.8.8,0,0,1-.2-.5.4.4,0,0,1-.1-.3.8.8,0,0,1-.1-.4v-.6c0-.2.1-.3.2-.5l.4-.4.6-.2h.7l.5.2.4.4C646.2,275.3,646.3,275.4,646.3,275.6Zm2.2-1.6a.3.3,0,0,1,.1-.2h.2l.8-.2c.1,0,.2,0,.2.1h.1l-3.5,7.3v.2h-1c0,.1-.1.1-.1,0s-.1,0-.1-.1h0Zm-3.9,2.7a.5.5,0,0,0,.2.4h.3c.1,0,.2,0,.2-.1a.6.6,0,0,0,.1-.4,6.4,6.4,0,0,0-.2-.7c0-.1-.1-.3-.2-.3s-.1-.1-.3-.1a.2.2,0,0,0-.2.2c-.1.1-.1.2-.1.4S644.5,276.5,644.6,276.7Zm7,1.4c0,.2.1.5.1.7v.6a1.7,1.7,0,0,1-.2.5l-.4.3c-.1.2-.4.2-.6.3s-.5.1-.7,0l-.5-.2-.4-.3a1.4,1.4,0,0,1-.2-.6.4.4,0,0,1-.1-.3c0-.1-.1-.3-.1-.4v-.6a1.7,1.7,0,0,1,.2-.5l.4-.3c.2-.2.4-.2.6-.3s.5-.1.7,0l.6.2.3.3Zm-1.8,1.1c0,.1.1.2.2.3s.2.1.3.1l.3-.2V279a2.5,2.5,0,0,0-.2-.7c0-.1-.1-.2-.1-.3h-.4c-.1.1-.2.1-.2.2s-.1.2,0,.4A2,2,0,0,0,649.8,279.2Z"/><line class="cls-43" x1="342.4" y1="371.5" x2="636.4" y2="371.5"/><path class="cls-19" d="M630.5,350.6c-.2,0-.3-.2-.3-.4v-6.4c0-3.6-3.2-6.5-7.2-6.5s-7.2,2.9-7.2,6.5v6.4a.4.4,0,0,1-.4.4c-.2,0-.3-.2-.3-.4v-6.4c0-4,3.5-7.2,7.9-7.2s7.9,3.2,7.9,7.2v6.4A.4.4,0,0,1,630.5,350.6Z"/><polygon class="cls-12" points="640 348.2 635.7 348.2 601.9 348.2 598.6 383.5 643.3 383.5 640 348.2"/><polygon class="cls-44" points="639 383.5 598.6 383.5 601.9 348.2 635.7 348.2 639 383.5"/><ellipse class="cls-32" cx="611.5" cy="350.2" rx="0.9" ry="0.8"/><ellipse class="cls-32" cx="626.6" cy="350.2" rx="0.9" ry="0.8"/><path class="cls-45" d="M622.1,336.6a10.9,10.9,0,0,0-3.6,1.2H620a7.3,7.3,0,0,1,3-.6h.6Z"/><path class="cls-19" d="M626.6,350.6c-.2,0-.3-.2-.3-.4v-6.4c0-3.6-3.3-6.5-7.3-6.5s-7.2,2.9-7.2,6.5v6.4c0,.2-.1.4-.3.4a.4.4,0,0,1-.4-.4v-6.4c0-4,3.6-7.2,7.9-7.2s8,3.2,8,7.2v6.4A.4.4,0,0,1,626.6,350.6Z"/><line class="cls-43" x1="586.9" y1="383.5" x2="657.5" y2="383.5"/></g></svg>