<svg xmlns="http://www.w3.org/2000/svg" xmlns:xlink="http://www.w3.org/1999/xlink" viewBox="0 0 825 427.5"><defs><style>.cls-1,.cls-27,.cls-40,.cls-43{fill:none;}.cls-2{fill:#ffc902;}.cls-3{fill:#ffcd05;opacity:0.5;}.cls-19,.cls-4{fill:#6582db;}.cls-4{opacity:0.8;}.cls-5{fill:#7c6bb0;}.cls-6{fill:#a0509f;}.cls-12,.cls-17,.cls-20,.cls-36,.cls-37,.cls-38,.cls-39,.cls-41,.cls-42,.cls-45,.cls-7{opacity:0.3;}.cls-8{fill:url(#linear-gradient);}.cls-9{fill:#5f9e7a;}.cls-10{fill:#fff;}.cls-11{fill:#3a614b;}.cls-13{fill:url(#linear-gradient-2);}.cls-14{fill:#3c57ab;}.cls-15{clip-path:url(#clip-path);}.cls-16{fill:url(#linear-gradient-3);}.cls-17{fill:url(#linear-gradient-4);}.cls-18{fill:#595959;}.cls-20{fill:url(#linear-gradient-5);}.cls-21{opacity:0.4;}.cls-22{fill:#ff6344;}.cls-23{fill:#ff927d;}.cls-24{fill:#594000;}.cls-25{fill:#ffb700;}.cls-26{fill:#c48d00;}.cls-27{stroke:#7697ff;stroke-width:0.41px;}.cls-27,.cls-40,.cls-43{stroke-miterlimit:10;}.cls-28{fill:#a1b8ff;}.cls-29{fill:url(#linear-gradient-6);}.cls-30{fill:#ffdb82;}.cls-31{fill:#a33f2c;}.cls-32{fill:#333745;}.cls-33{fill:#c2c2c2;}.cls-34{fill:#52586e;}.cls-35{fill:#414657;}.cls-36{fill:url(#linear-gradient-7);}.cls-37{fill:url(#linear-gradient-8);}.cls-38{fill:url(#linear-gradient-9);}.cls-39{fill:url(#linear-gradient-10);}.cls-40{stroke:#ffdb82;stroke-width:1.45px;}.cls-41{fill:url(#linear-gradient-11);}.cls-42{fill:url(#linear-gradient-12);}.cls-43{stroke:#333745;stroke-width:0.94px;}.cls-44{fill:#4b7d61;}.cls-45{fill:url(#linear-gradient-13);}</style><linearGradient id="linear-gradient" x1="574.54" y1="199.28" x2="574.54" y2="250.53" gradientUnits="userSpaceOnUse"><stop offset="0"/><stop offset="1" stop-opacity="0"/></linearGradient><linearGradient id="linear-gradient-2" x1="549.06" y1="244.9" x2="549.06" y2="337.83" gradientTransform="translate(747.3 -297.8) rotate(80.6)" gradientUnits="userSpaceOnUse"><stop offset="0" stop-color="#a1b8ff"/><stop offset="1" stop-color="#fff"/></linearGradient><clipPath id="clip-path"><path class="cls-1" d="M668.6,190.8H654.8a3.1,3.1,0,0,0-2.9,2.2l-.4,1.6a3.2,3.2,0,0,1-3.1,2.4H625.5a3.1,3.1,0,0,1-3-2.4L622,193a2.9,2.9,0,0,0-2.8-2.2H605.4a11.8,11.8,0,0,0-11.8,11.8V336.9a11.8,11.8,0,0,0,11.8,11.8h63.2a11.8,11.8,0,0,0,11.8-11.8V202.6A11.8,11.8,0,0,0,668.6,190.8Z"/></clipPath><linearGradient id="linear-gradient-3" x1="636.99" y1="374.24" x2="636.99" y2="295.95" gradientTransform="matrix(1, 0, 0, 1, 0, 0)" xlink:href="#linear-gradient-2"/><linearGradient id="linear-gradient-4" x1="636.99" y1="323.62" x2="636.99" y2="346.03" xlink:href="#linear-gradient"/><linearGradient id="linear-gradient-5" x1="636.99" y1="218.85" x2="636.99" y2="243.18" xlink:href="#linear-gradient"/><linearGradient id="linear-gradient-6" x1="556.12" y1="169.88" x2="556.12" y2="231.2" xlink:href="#linear-gradient"/><linearGradient id="linear-gradient-7" x1="482.3" y1="218.27" x2="488.24" y2="224.03" xlink:href="#linear-gradient"/><linearGradient id="linear-gradient-8" x1="478.86" y1="243.35" x2="487.97" y2="271.02" xlink:href="#linear-gradient"/><linearGradient id="linear-gradient-9" x1="454.43" y1="276.76" x2="448.88" y2="340.91" xlink:href="#linear-gradient"/><linearGradient id="linear-gradient-10" x1="527.56" y1="190.6" x2="487.38" y2="228.65" gradientTransform="translate(81.4 -108.9) rotate(16.4)" xlink:href="#linear-gradient"/><linearGradient id="linear-gradient-11" x1="478.74" y1="158.72" x2="478.74" y2="195.04" xlink:href="#linear-gradient"/><linearGradient id="linear-gradient-12" x1="698.78" y1="356.53" x2="745.71" y2="356.53" gradientTransform="translate(17.9 -27.8)" xlink:href="#linear-gradient"/><linearGradient id="linear-gradient-13" x1="678.53" y1="328.09" x2="683.65" y2="328.09" xlink:href="#linear-gradient"/></defs><title>theme3</title><g id="Layer_4" data-name="Layer 4"><path class="cls-2" d="M596.3,29.7C468,33.1,338.1,130,344.7,197.8c3.7,37.6,47.2,44.4,50.9,95.6,3.4,46.7-30.6,71.9-16.2,96.8,13,22.5,52.8,23.1,84.4,23.1,43.3.1,166.8.4,201.5-63.1,37.8-69.2-65.6-149.1-25-209,31-45.7,113.3-32.3,116-54.1S680,27.6,596.3,29.7Z"/><circle class="cls-2" cx="322.2" cy="101" r="30.4"/><circle class="cls-3" cx="649" cy="253.6" r="171.8"/></g><g id="OBJECTS"><path class="cls-4" d="M731.4,301h-9.1v-4.3c0-4-3.6-7.3-8-7.3l-1.7.2h-.2a6.9,6.9,0,0,0-2-.3c-4.4,0-7.9,3.3-7.9,7.3V301h-9.3l-3.3,51.9h44.8Zm-9.9-4.3V301h-3.2v-4.3a7.2,7.2,0,0,0-4.4-6.5h.4C718.3,290.2,721.5,293.1,721.5,296.7Zm-10.1-6,1-.3a6.7,6.7,0,0,1,5.2,6.3V301H707.1v-4.3A6.7,6.7,0,0,1,711.4,290.7Zm-8.2,6c0-3.6,3.2-6.5,7.2-6.5h.4a.1.1,0,0,0-.1.1l-.8.4h0a7.1,7.1,0,0,0-3.5,6V301h-3.2Z"/><path class="cls-5" d="M715,152.5a22,22,0,0,1,6.7,2.2,20.5,20.5,0,0,1,4.9,3.5,13.4,13.4,0,0,1,2.9,4.1,11.3,11.3,0,0,1,1.2,4,1.6,1.6,0,0,1-.6,1.6,2.5,2.5,0,0,1-1.5.5h-5.5a3,3,0,0,1-2-.5,7.7,7.7,0,0,1-1.2-1.3,9.9,9.9,0,0,0-3.6-3.4c-1.5-1-3.9-1.5-7-1.5a23.4,23.4,0,0,0-3.9.4,10.2,10.2,0,0,0-3.2,1.3,6.1,6.1,0,0,0-2.2,2,5,5,0,0,0-.8,2.7,4.6,4.6,0,0,0,.9,2.9,6.9,6.9,0,0,0,2.8,1.9,28.2,28.2,0,0,0,4.9,1.6l7.3,1.6a48.3,48.3,0,0,1,8,2.4,18.4,18.4,0,0,1,5.3,3.3,11.5,11.5,0,0,1,3,4.4,17,17,0,0,1,.9,5.7,14,14,0,0,1-1.2,5.8,15.2,15.2,0,0,1-3.4,4.7,21.2,21.2,0,0,1-5.4,3.6,31.2,31.2,0,0,1-7.3,1.9v5.3a2,2,0,0,1-.6,1.5,2.6,2.6,0,0,1-1.5.7h-6.4a2.1,2.1,0,0,1-1.5-.7,2,2,0,0,1-.6-1.5v-5.3a33.6,33.6,0,0,1-6.6-1.8,20.3,20.3,0,0,1-5.4-3.2,14.9,14.9,0,0,1-3.7-4.3,11.7,11.7,0,0,1-1.6-5.5,1.5,1.5,0,0,1,.6-1.5,2,2,0,0,1,1.5-.6h5.5a3.4,3.4,0,0,1,2,.5,3.3,3.3,0,0,1,1.2,1.4l1.3,2a7.9,7.9,0,0,0,2.2,1.8,10.3,10.3,0,0,0,3.3,1.3,22.4,22.4,0,0,0,4.9.5,34.4,34.4,0,0,0,4.6-.3A17,17,0,0,0,718,197a9.5,9.5,0,0,0,2.7-2,4.8,4.8,0,0,0,1-3.1,4.1,4.1,0,0,0-1.1-2.8,9.9,9.9,0,0,0-3.3-1.9,39.6,39.6,0,0,0-5.5-1.4l-7.6-1.8a46.4,46.4,0,0,1-6.9-2.3,13.9,13.9,0,0,1-4.8-3.2,10.9,10.9,0,0,1-2.9-4.4,18,18,0,0,1-.9-6,13.4,13.4,0,0,1,4.4-10.3,16.6,16.6,0,0,1,5-3.5,24.5,24.5,0,0,1,6.3-2V147a2.1,2.1,0,0,1,2.1-2.1h6.4a2.4,2.4,0,0,1,1.5.6,2,2,0,0,1,.6,1.5Z"/><path class="cls-6" d="M607.5,123.8a9.1,9.1,0,0,1,2.9,1,8,8,0,0,1,2.1,1.5,5.9,5.9,0,0,1,1.3,1.8,15.4,15.4,0,0,1,.5,1.7.9.9,0,0,1-.3.7l-.7.2H611l-.9-.2a1,1,0,0,1-.5-.6,4.6,4.6,0,0,0-1.6-1.5,5.9,5.9,0,0,0-3-.6l-1.7.2-1.4.5-.9.9a2.1,2.1,0,0,0-.4,1.1,2.2,2.2,0,0,0,.4,1.3l1.2.9,2.2.6,3.1.7a20.8,20.8,0,0,1,3.5,1.1,7.4,7.4,0,0,1,2.3,1.4,3.9,3.9,0,0,1,1.2,1.9,6.6,6.6,0,0,1,.4,2.5,4.7,4.7,0,0,1-.5,2.4,6,6,0,0,1-1.4,2.1,9.7,9.7,0,0,1-2.4,1.5,14,14,0,0,1-3.1.9v2.3a.7.7,0,0,1-.3.6.9.9,0,0,1-.7.3h-2.7a.9.9,0,0,1-.7-.3,1.1,1.1,0,0,1-.2-.6v-2.3a13.8,13.8,0,0,1-2.9-.8,7.4,7.4,0,0,1-2.3-1.4,5.8,5.8,0,0,1-1.6-1.9,4.8,4.8,0,0,1-.7-2.3,1.4,1.4,0,0,1,.2-.7l.7-.2h2.4c.4,0,.7,0,.9.2s.3.3.5.6a4.1,4.1,0,0,0,.5.9l1,.7a2.6,2.6,0,0,0,1.4.6l2.1.2h2l1.7-.5,1.1-.9a2.1,2.1,0,0,0,.5-1.3,1.7,1.7,0,0,0-.5-1.2,3.8,3.8,0,0,0-1.4-.9l-2.4-.6-3.3-.8a17.9,17.9,0,0,1-3-.9,11,11,0,0,1-2.1-1.4,5.5,5.5,0,0,1-1.2-1.9,7.3,7.3,0,0,1-.4-2.7,5.2,5.2,0,0,1,.5-2.4,6.6,6.6,0,0,1,1.4-2,8,8,0,0,1,2.1-1.5,13.1,13.1,0,0,1,2.8-.9v-2.3a1.4,1.4,0,0,1,.2-.6.9.9,0,0,1,.7-.3h2.7a.9.9,0,0,1,.7.3.9.9,0,0,1,.3.6Z"/><g class="cls-7"><rect class="cls-8" x="550.1" y="210.5" width="48.9" height="28.31" rx="3.7"/></g><rect class="cls-9" x="551.7" y="208.7" width="48.9" height="28.31" rx="3.7"/><g class="cls-7"><path class="cls-10" d="M574.6,224.8H556.4a.7.7,0,0,1-.7-.7h0a.7.7,0,0,1,.7-.7h18.2a.7.7,0,0,1,.7.7h0A.7.7,0,0,1,574.6,224.8Z"/></g><g class="cls-7"><path class="cls-10" d="M564.4,228.8h-8a.7.7,0,0,1-.7-.7h0a.7.7,0,0,1,.7-.6h8a.7.7,0,0,1,.7.6h0A.7.7,0,0,1,564.4,228.8Z"/></g><g class="cls-7"><path class="cls-10" d="M591.9,228.8h-8a.7.7,0,0,1-.7-.7h0a.7.7,0,0,1,.7-.6h8a.7.7,0,0,1,.7.6h0A.7.7,0,0,1,591.9,228.8Z"/></g><path class="cls-11" d="M596.9,208.7H555.4a3.8,3.8,0,0,0-3.7,3.8v7.8h48.9v-7.8A3.8,3.8,0,0,0,596.9,208.7Z"/><path class="cls-12" d="M596.9,208.7h-9.7V237h9.7a3.7,3.7,0,0,0,3.7-3.7V212.5A3.8,3.8,0,0,0,596.9,208.7Z"/><circle class="cls-13" cx="549.1" cy="291.4" r="46.5" transform="matrix(0.16, -0.99, 0.99, 0.16, 172.35, 785.78)"/><rect class="cls-14" x="590" y="187.1" width="94" height="165.21" rx="15.3"/><g class="cls-15"><path class="cls-10" d="M668.6,190.8H654.8a3.1,3.1,0,0,0-2.9,2.2l-.4,1.6a3.2,3.2,0,0,1-3.1,2.4H625.5a3.1,3.1,0,0,1-3-2.4L622,193a2.9,2.9,0,0,0-2.8-2.2H605.4a11.8,11.8,0,0,0-11.8,11.8V336.9a11.8,11.8,0,0,0,11.8,11.8h63.2a11.8,11.8,0,0,0,11.8-11.8V202.6A11.8,11.8,0,0,0,668.6,190.8Z"/><path class="cls-16" d="M668.6,190.8H654.8a3.1,3.1,0,0,0-2.9,2.2l-.4,1.6a3.2,3.2,0,0,1-3.1,2.4H625.5a3.1,3.1,0,0,1-3-2.4L622,193a2.9,2.9,0,0,0-2.8-2.2H605.4a11.8,11.8,0,0,0-11.8,11.8V336.9a11.8,11.8,0,0,0,11.8,11.8h63.2a11.8,11.8,0,0,0,11.8-11.8V202.6A11.8,11.8,0,0,0,668.6,190.8Z"/><path class="cls-17" d="M621.3,327.1h31.4a6.7,6.7,0,0,1,6.6,6.6h0a6.7,6.7,0,0,1-6.6,6.7H621.3a6.7,6.7,0,0,1-6.6-6.7h0A6.7,6.7,0,0,1,621.3,327.1Z"/><rect class="cls-18" x="620.8" y="231.3" width="2.1" height="14.06"/><rect class="cls-18" x="651" y="231.3" width="2.1" height="14.06"/><g class="cls-7"><rect x="620.8" y="236.6" width="2.1" height="5.78"/><rect x="651" y="236.6" width="2.1" height="5.78"/></g><rect class="cls-14" x="614.6" y="238.8" width="44.7" height="15.29" rx="2.8"/><rect class="cls-19" x="614.6" y="238.8" width="44.7" height="14.2" rx="2.7"/><path class="cls-14" d="M624.6,243l1.2.2.9.5a1.7,1.7,0,0,1,.6.6,1.3,1.3,0,0,1,.3.7h-2.1l-.2-.2h-1.4l-.2.2c-.1,0-.1.1-.1.2a.4.4,0,0,0,.1.3l.3.2h.6l.9.2,1,.3.7.4a1.6,1.6,0,0,1,.4.7,1.9,1.9,0,0,1,.2.8,1.6,1.6,0,0,1-.3.9,1.3,1.3,0,0,1-.6.7l-1,.4-1.3.2-1.2-.2-1-.5-.6-.6a1.3,1.3,0,0,1-.3-.8V248h2a.2.2,0,0,0,.2.2l.3.2h1.4a.5.5,0,0,0,.4-.5v-.2l-.4-.2-.7-.2-1-.2a2.6,2.6,0,0,1-1.5-.7,2.2,2.2,0,0,1-.5-1.4,1.9,1.9,0,0,1,.2-.8,1.3,1.3,0,0,1,.6-.7,1.9,1.9,0,0,1,.9-.5Z"/><path class="cls-14" d="M635.5,243.1h.2c.1,0,.1.1.1.2v6.5c0,.1,0,.2-.1.2H634c-.1,0-.1-.1-.1-.2v-2.5h-2.2v2.7h-1.7c-.1,0-.1-.1-.1-.2v-6.5c0-.1,0-.2.1-.2h1.7v2.6h2.2v-2.4c0-.1,0-.2.1-.2h1.5Z"/><path class="cls-14" d="M638,245.7a3.6,3.6,0,0,1,.2-1,3.5,3.5,0,0,1,.6-.9l1-.6,1.3-.2,1.4.2.9.6a2.2,2.2,0,0,1,.7.9,3.6,3.6,0,0,1,.2,1v1.8a3.6,3.6,0,0,1-.2,1.1l-.7.9-.9.6-1.4.2-1.3-.2-1-.6-.6-.9a3.6,3.6,0,0,1-.2-1.1v-1.8Zm4.4,1.8v-.4a.9.9,0,0,0,.1-.5.6.6,0,0,0-.1-.4v-.4a.9.9,0,0,0-.1-.5c0-.1-.1-.2-.2-.3l-.4-.3h-1.1l-.4.3c-.1.1-.2.2-.2.3a.9.9,0,0,0-.1.5c-.1.1-.1.2-.1.4v.9a.6.6,0,0,0,.1.4,1.1,1.1,0,0,0,.3.8,1,1,0,0,0,.9.4,1.1,1.1,0,0,0,1-.4A1.1,1.1,0,0,0,642.4,247.5Z"/><path class="cls-14" d="M649.7,243.1h1.1a1.9,1.9,0,0,1,.9.5,2,2,0,0,1,.6.7,3.6,3.6,0,0,1,.2,1.1,3,3,0,0,1-.2,1,2.4,2.4,0,0,1-.6.8l-.9.4h-2.4v2.3h-1.7c-.1,0-.1-.1-.1-.2v-6.5c0-.1,0-.2.1-.2h3.1Zm-1.3,3.2h1.2l.7-.2a.7.7,0,0,0,0-1.2.8.8,0,0,0-.7-.2h-1.2Z"/><path class="cls-10" d="M624.6,242.3a2.5,2.5,0,0,1,1.2.2l.9.4a1.9,1.9,0,0,1,.6.7,1.1,1.1,0,0,1,.3.7h-1.8l-.2-.2h-1.7a.2.2,0,0,0-.2.2c-.1,0-.1.1-.1.2a.4.4,0,0,0,.1.3l.3.2h.6l.9.2,1,.3.7.4.4.6a2.4,2.4,0,0,1,.2.9,1.6,1.6,0,0,1-.3.9,1.3,1.3,0,0,1-.6.7l-1,.4-1.3.2-1.2-.2-1-.5a1.3,1.3,0,0,1-.6-.7,1.1,1.1,0,0,1-.3-.7v-.2h2l.2.2.3.2h.5l.9-.2a.4.4,0,0,0,.4-.4v-.2l-.4-.2-.7-.2-1-.2a2.6,2.6,0,0,1-1.5-.7,2.4,2.4,0,0,1-.5-1.4,2.9,2.9,0,0,1,.2-.9,2.2,2.2,0,0,1,1.5-1.1A2.2,2.2,0,0,1,624.6,242.3Z"/><path class="cls-10" d="M635.5,242.4h.2c.1,0,.1.1.1.2v6.5c0,.1,0,.1-.1.2H634c-.1-.1-.1-.1-.1-.2v-2.5h-2.2v2.5c0,.1-.1.1-.1.2h-1.7c-.1-.1-.1-.1-.1-.2v-6.5c0-.1,0-.2.1-.2h1.7v2.6h2.2v-2.4c0-.1,0-.2.1-.2h1.5Z"/><path class="cls-10" d="M638,245a3,3,0,0,1,.2-1,3.5,3.5,0,0,1,.6-.9,2.1,2.1,0,0,1,1-.6l1.3-.2,1.4.2a1.8,1.8,0,0,1,.9.6,2.2,2.2,0,0,1,.7.9,3,3,0,0,1,.2,1v1.8a3.6,3.6,0,0,1-.2,1.1l-.7.9-.9.6-1.4.2-1.3-.2-1-.6-.6-.9a3.6,3.6,0,0,1-.2-1.1V245Zm4.4,1.8v-.4a.9.9,0,0,0,.1-.5.6.6,0,0,0-.1-.4v-.4a.9.9,0,0,0-.1-.5.8.8,0,0,0-.2-.4l-.4-.2h-1.1l-.4.2-.2.4a.9.9,0,0,0-.1.5c-.1.1-.1.2-.1.4v.9a.6.6,0,0,0,.1.4,1.1,1.1,0,0,0,.3.8,1.3,1.3,0,0,0,.9.4,1.3,1.3,0,0,0,1-.4A1.1,1.1,0,0,0,642.4,246.8Z"/><path class="cls-10" d="M649.7,242.4h1.1a1.9,1.9,0,0,1,.9.5,2,2,0,0,1,.6.7,3.6,3.6,0,0,1,.2,1.1,3.6,3.6,0,0,1-.2,1,2,2,0,0,1-.6.7,1.9,1.9,0,0,1-.9.5h-2.4v2.1c0,.1-.1.1-.1.2h-1.7c-.1-.1-.1-.1-.1-.2v-6.5c0-.1,0-.2.1-.2h3.1Zm-1.3,3.2h1.2l.7-.2a.9.9,0,0,0,.3-.6.9.9,0,0,0-.3-.7h-1.9Z"/><path class="cls-20" d="M593.6,217.3v10.9a8.7,8.7,0,0,0,17.4,0,8.7,8.7,0,0,0,17.3,0,8.6,8.6,0,0,0,8.7,8.6h0a8.6,8.6,0,0,0,8.7-8.6,8.7,8.7,0,0,0,17.3,0,8.7,8.7,0,0,0,17.4,0V217.3Z"/><path class="cls-21" d="M643.5,194.3h-13a.6.6,0,0,1-.6-.6h0a.6.6,0,0,1,.6-.6h13a.6.6,0,0,1,.6.6h0A.6.6,0,0,1,643.5,194.3Z"/><path class="cls-21" d="M627.9,193.7a1,1,0,0,1-2,0,1,1,0,1,1,2,0Z"/><path class="cls-22" d="M602.3,233.5h0a8.7,8.7,0,0,1-8.7-8.6V182.1H611v42.8A8.7,8.7,0,0,1,602.3,233.5Z"/><path class="cls-12" d="M593.6,220.8v4.1a8.7,8.7,0,0,0,17.4,0v-4.1Z"/><path class="cls-23" d="M619.7,233.5h0a8.7,8.7,0,0,1-8.7-8.6V182.1h17.3v42.8A8.7,8.7,0,0,1,619.7,233.5Z"/><path class="cls-12" d="M611,220.8v4.1a8.7,8.7,0,0,0,17.3,0v-4.1Z"/><path class="cls-22" d="M637,233.5h0a8.7,8.7,0,0,1-8.7-8.6V182.1h17.4v42.8A8.7,8.7,0,0,1,637,233.5Z"/><path class="cls-12" d="M628.3,220.8v4.1a8.7,8.7,0,0,0,17.4,0v-4.1Z"/><path class="cls-23" d="M654.3,233.5h0a8.6,8.6,0,0,1-8.6-8.6V182.1H663v42.8A8.7,8.7,0,0,1,654.3,233.5Z"/><path class="cls-12" d="M645.7,220.8v4.1a8.7,8.7,0,0,0,17.3,0v-4.1Z"/><path class="cls-22" d="M671.7,233.5h0a8.7,8.7,0,0,1-8.7-8.6V182.1h17.4v42.8A8.7,8.7,0,0,1,671.7,233.5Z"/><path class="cls-12" d="M663,220.8v4.1a8.7,8.7,0,0,0,17.4,0v-4.1Z"/><path class="cls-22" d="M643.5,265.1a6.5,6.5,0,1,1-13,0h-.4v18.3h13.8V265.1Z"/><path class="cls-23" d="M652.9,284.3s-10.6-6-5.4-19.2h-4c0,8.9-2.9,11.8-6.5,11.8s-6.5-2.9-6.5-11.8h-4c5.2,13.2-5.4,19.2-5.4,19.2,1.7,12.4.1,25.4-1,32,5.4.5,11.1.8,16.9.8s11.5-.3,16.9-.8C652.8,309.7,651.2,296.7,652.9,284.3Z"/><circle class="cls-22" cx="637" cy="282.6" r="1.2"/><circle class="cls-22" cx="637" cy="289.9" r="1.2"/><circle class="cls-22" cx="637" cy="297.2" r="1.2"/><path class="cls-22" d="M638.2,304.6a1.2,1.2,0,0,1-1.2,1.1,1.1,1.1,0,0,1-1.2-1.1,1.2,1.2,0,0,1,1.2-1.2A1.2,1.2,0,0,1,638.2,304.6Z"/><path class="cls-24" d="M592.3,267c-3.4,0-6.4-.5-7.9-1.3h0v8h15.8v-8h0C598.7,266.5,595.7,267,592.3,267Z"/><path class="cls-25" d="M600.2,265.7c-.4,3.1-3.8,5.5-7.9,5.5s-7.5-2.4-7.9-5.5a40.5,40.5,0,0,0-17,8.7l6.3,10.5,3.3-2.3,1.2,33.5h28.2l1.2-33.5,3.3,2.3,6.3-10.5A40.5,40.5,0,0,0,600.2,265.7Z"/><polygon class="cls-26" points="577.7 301.8 606.9 301.8 606.9 300.8 577.6 300.8 577.7 301.8"/><polygon class="cls-26" points="606.7 307.5 577.9 307.5 577.9 308.5 606.7 308.5 606.7 307.5"/><polygon class="cls-26" points="577.4 294.3 577.5 295.3 607.1 295.3 607.2 294.3 577.4 294.3"/><polygon class="cls-26" points="577.2 288 607.4 288 607.4 287 577.2 287 577.2 288"/><path class="cls-19" d="M689.9,265.2H663.4l-1.3,50.9h8.5c0-8.1,1.6-36.3,6-36.3s6,28.2,6,36.3h8.5Z"/><line class="cls-27" x1="665.1" y1="265.2" x2="664" y2="316.1"/><line class="cls-27" x1="688.1" y1="265.2" x2="689.2" y2="316.1"/><path class="cls-28" d="M682.6,316.1h8.5v-4.3h-8.5C682.6,313.5,682.6,315,682.6,316.1Z"/><path class="cls-28" d="M670.7,311.8h-8.5v4.3h8.5C670.6,315,670.6,313.5,670.7,311.8Z"/><path class="cls-14" d="M668.3,265.2h-4.9l-.3,9.4C666.9,273.1,668,267.4,668.3,265.2Z"/><path class="cls-14" d="M684.9,265.2h5l.2,9.4C686.3,273.1,685.2,267.4,684.9,265.2Z"/><line class="cls-27" x1="676.6" y1="265.2" x2="676.6" y2="279.9"/><path class="cls-27" d="M678.8,265.2V271a5.2,5.2,0,0,1-2.2,4.2h0"/><path class="cls-19" d="M621.3,325.7h31.4a6.7,6.7,0,0,1,6.6,6.6h0a6.6,6.6,0,0,1-6.6,6.6H621.3a6.6,6.6,0,0,1-6.6-6.6h0A6.7,6.7,0,0,1,621.3,325.7Z"/><path class="cls-10" d="M628.3,334.8h-.1v-4.9h2.6l.8.2.5.3.3.5a4.3,4.3,0,0,0,.1.5c0,.2,0,.3-.1.4a.4.4,0,0,1-.1.3c0,.1-.1.1-.1.2H632c.2.1.3.3.4.4s.1.4.1.6a1.3,1.3,0,0,1-.1.6l-.3.5a1,1,0,0,1-.5.4h-3.3Zm2.7-3.5a.4.4,0,0,0-.1-.3h-1.4v.8h1.4A.4.4,0,0,0,631,331.3Zm-1.5,2.4H631c.1-.1.1-.2.1-.4a.4.4,0,0,0-.1-.3h-1.5Z"/><path class="cls-10" d="M638.9,329.7a.1.1,0,0,1,.1.1h.1v2.9a2,2,0,0,1-.2.9,1.6,1.6,0,0,1-.4.7l-.7.4H636l-.7-.4a1.8,1.8,0,0,1-.5-.7,2.2,2.2,0,0,1-.1-.9v-2.9H636v2.9a1.4,1.4,0,0,0,.2.7l.7.2a.8.8,0,0,0,.6-.2.9.9,0,0,0,.3-.7v-2.9h1.1Z"/><path class="cls-10" d="M644.2,334.6c0,.1-.1.1-.1.2h-1.2v-1.7l-1.7-3.1h.1a.1.1,0,0,1,.1-.1h1.3l.9,1.8.9-1.8h1.3a.1.1,0,0,1,.1.1h.1a.1.1,0,0,1-.1.1l-1.6,3.1Z"/></g><path class="cls-12" d="M645.3,194H628.6c-.3,0-.7-.3-.7-.6h0a.8.8,0,0,1,.7-.7h16.7a.7.7,0,0,1,.7.7h0A.7.7,0,0,1,645.3,194Z"/><g class="cls-7"><rect class="cls-29" x="529.1" y="182.4" width="54" height="31.27" rx="4.1"/></g><rect class="cls-19" x="530.4" y="180.7" width="54" height="31.27" rx="4.1"/><rect class="cls-14" x="530.4" y="188.7" width="54" height="6.95"/><path class="cls-28" d="M554.9,200.5H534.7a.7.7,0,0,1-.7-.7h0a.8.8,0,0,1,.7-.8h20.2a.8.8,0,0,1,.7.8h0A.7.7,0,0,1,554.9,200.5Z"/><path class="cls-28" d="M546.4,204.5H534.7a.8.8,0,0,1-.7-.8h0a.7.7,0,0,1,.7-.7h11.7a.7.7,0,0,1,.7.7h0A.8.8,0,0,1,546.4,204.5Z"/><path class="cls-28" d="M554.9,185.6H534.7a.7.7,0,0,1-.7-.7h0a.8.8,0,0,1,.7-.8h20.2a.8.8,0,0,1,.7.8h0A.7.7,0,0,1,554.9,185.6Z"/><circle class="cls-30" cx="571" cy="204.4" r="4.1"/><circle class="cls-30" cx="576.8" cy="204.4" r="4.1"/><path class="cls-26" d="M572.6,204.4a3.9,3.9,0,0,0,1.3,2.9,3.8,3.8,0,0,0,1.2-2.9,4.1,4.1,0,0,0-1.2-3A4.2,4.2,0,0,0,572.6,204.4Z"/><path class="cls-10" d="M560.6,275.6a.4.4,0,0,1-.4-.4v-6.4c0-3.6-3.2-6.5-7.2-6.5s-7.2,2.9-7.2,6.5v6.4a.4.4,0,0,1-.4.4c-.2,0-.3-.2-.3-.4v-6.4c0-4,3.5-7.3,7.9-7.3s7.9,3.3,7.9,7.3v6.4C560.9,275.4,560.8,275.6,560.6,275.6Z"/><polygon class="cls-31" points="567.7 273.1 563.9 273.1 534.2 273.1 531.3 320.6 570.6 320.6 567.7 273.1"/><polygon class="cls-22" points="566.8 320.6 531.3 320.6 534.2 273.1 563.9 273.1 566.8 320.6"/><ellipse class="cls-32" cx="541.5" cy="275.2" rx="0.9" ry="0.8"/><ellipse class="cls-32" cx="556.6" cy="275.2" rx="0.9" ry="0.8"/><path class="cls-33" d="M552.2,261.6a7.7,7.7,0,0,0-3.7,1.2H550a9.4,9.4,0,0,1,3-.5h.7Z"/><path class="cls-10" d="M556.6,275.6c-.2,0-.3-.2-.3-.4v-6.4c0-3.6-3.3-6.5-7.2-6.5s-7.2,2.9-7.2,6.5v6.4a.4.4,0,0,1-.8,0v-6.4c0-4,3.6-7.3,8-7.3s7.9,3.3,7.9,7.3v6.4A.4.4,0,0,1,556.6,275.6Z"/><path class="cls-32" d="M492.2,209.4c2.4,5.1.4,8-1.1,11.2s-3.4,5.4-2.4,10.8-1,13.7-8.5,17.5-14.5,16.6-17.6,9.3l2.6-22.3,17.9-25.8Z"/><path class="cls-23" d="M479.9,229.3h0a3.5,3.5,0,0,1,4.7,1.8l7.3,17.7,17.4,9.9a2.2,2.2,0,0,1,1,.9l2.5,3.4a.7.7,0,0,1-.4,1l-2.7.3a1.9,1.9,0,0,1-2.1-1.3l-.9-2.4L490.9,255a8.7,8.7,0,0,1-4.9-4.5l-7.7-16.6A3.5,3.5,0,0,1,479.9,229.3Z"/><path class="cls-12" d="M479.9,229.3h0a3.5,3.5,0,0,1,4.7,1.8l7.3,17.7,17.4,9.9a2.2,2.2,0,0,1,1,.9l2.5,3.4a.7.7,0,0,1-.4,1l-2.7.3a1.9,1.9,0,0,1-2.1-1.3l-.9-2.4L490.9,255a8.7,8.7,0,0,1-4.9-4.5l-7.7-16.6A3.5,3.5,0,0,1,479.9,229.3Z"/><path class="cls-10" d="M529,348.5a3.9,3.9,0,1,1-3.8-3.8A3.8,3.8,0,0,1,529,348.5Z"/><path class="cls-10" d="M577.3,348.5a3.9,3.9,0,0,1-3.9,3.8,3.8,3.8,0,1,1,0-7.6A3.9,3.9,0,0,1,577.3,348.5Z"/><path class="cls-14" d="M574.9,348.5a1.5,1.5,0,0,1-1.5,1.4,1.4,1.4,0,0,1,0-2.8A1.5,1.5,0,0,1,574.9,348.5Z"/><path class="cls-14" d="M526.6,348.5a1.4,1.4,0,0,1-1.4,1.4,1.4,1.4,0,1,1,0-2.8A1.4,1.4,0,0,1,526.6,348.5Z"/><path class="cls-32" d="M517.8,275.2l10.3,46.2h47.3V290.8Zm1.6,1.7,29.5,8H521.2Zm31.7,8.6,20.3,5.4H522.5l-1.2-5.4Zm23.1,6.2V297H523.9l-1.2-5.5h50.8Zm-47.5,17.9h47.5v5.5H527.9Zm-.1-.6-1.2-5.4h48.8V309Zm-1.4-6-1.2-5.5h50.2V303Zm3.9,17.2-1-4.6h46.1v4.6Z"/><path class="cls-34" d="M571.6,339.4a13.4,13.4,0,0,0-9-7.9l-32.2-8.1L517.6,266a6.9,6.9,0,0,0-6.8-5.4H494.9V263h15.9a4.5,4.5,0,0,1,4.4,3.6l13,57.9-3.6,20,2.4.4,3.4-19,31.6,8a10.8,10.8,0,0,1,7.4,6.4l2,4.9,2.2-.9Z"/><rect class="cls-14" x="494.3" y="260.3" width="16.3" height="3.04" rx="0.3"/><path class="cls-35" d="M530.2,348.5h-2.4a2.7,2.7,0,0,0-5.3,0h-2.4a5.1,5.1,0,0,1,10.1,0Z"/><path class="cls-35" d="M578.5,348.5h-2.4a2.7,2.7,0,0,0-5.3,0h-2.4a5,5,0,0,1,5-5A5,5,0,0,1,578.5,348.5Z"/><path class="cls-23" d="M495.5,326s-2.3,18,.5,20.2,9,3.5,9.1,5-17.7,1.7-18.7-.3,2.5-4.6,2.7-10.2a146.5,146.5,0,0,0-.4-14.7Z"/><path class="cls-23" d="M450.7,325s-11.2,14.2-10,17.6,6,7.6,5.2,8.9-16-7.7-15.8-9.9,4.5-2.6,7.6-7.3,7.2-12.8,7.2-12.8Z"/><path class="cls-12" d="M444.9,321.5s-1.1,2.3-2.7,5.1a20.1,20.1,0,0,0,5,3c1.9-2.6,3.5-4.6,3.5-4.6Z"/><path class="cls-12" d="M495.5,326h-6.8s.2,2.9.4,6.5a40.1,40.1,0,0,0,5.9-1.2C495.2,328.3,495.5,326,495.5,326Z"/><path class="cls-22" d="M483.2,227.3l4,7.9c1.2,2.7-.2,7.3-2,8.9a16,16,0,0,0-4.6,9.7H466.2s.4-12.4,1.7-16.9,10.9-10.7,10.9-10.7Z"/><path class="cls-23" d="M490.4,210.5l1.5,5.3h-1.2s0,4-1.4,4.8-3.6.4-4.5,2a16.6,16.6,0,0,0-1.6,4.7,7.1,7.1,0,0,1-4.4-1.1S481.4,212.3,490.4,210.5Z"/><path class="cls-36" d="M483.5,215.8l-.2-.3a25.8,25.8,0,0,0-2.9,5.4l3.6,3.4a8.9,8.9,0,0,1,.8-1.7c.9-1.6,2.4-.8,4.5-2A5.5,5.5,0,0,1,483.5,215.8Z"/><path class="cls-14" d="M466.2,253.8h14.4s.9.2,1.8,5.7,4.1,17.4,9.2,25.8c8.7,14.2,4.7,41.5,4.7,41.5s-9.5,3.4-19.4,1-23.3,4.1-33.4-6.9c0,0,8.3-16.1,10.4-26.6S457.9,262.1,466.2,253.8Z"/><path class="cls-37" d="M482.4,259.5c-.9-5.5-1.8-5.7-1.8-5.7a16.7,16.7,0,0,1,3.7-8.9l-8.5-14.5-1.8,3.1s.7,23.1,10,33C483.3,263.8,482.7,261.3,482.4,259.5Z"/><path class="cls-23" d="M476.6,229.3h0a3.5,3.5,0,0,1,4.7,1.8l7.4,17.7,17.4,9.9a2.8,2.8,0,0,1,1,.9l2.4,3.4a.6.6,0,0,1-.4,1l-2.6.3a1.9,1.9,0,0,1-2.2-1.3l-.9-2.4L487.6,255a8.5,8.5,0,0,1-4.8-4.5L475,233.9A3.6,3.6,0,0,1,476.6,229.3Z"/><path class="cls-35" d="M492.2,209.4s-3,5.3-6.7,7.5-5,9.7-7.7,14.8-8.2,8.8-9.5,15.9-3.4,9.4-5.7,10.6a16.4,16.4,0,0,1-1.1-9.3c.9-5.3-1.7-8.7-1.1-13s6.2-7.9,8.7-11.5c3.8-5.5,3.9-13.2,9.7-17.1S490.4,206.5,492.2,209.4Z"/><path class="cls-14" d="M496.1,346.3l-2.3,2.2-6.2-1.9c-.8,1.9-1.7,3.2-1.2,4.3s18.8,1.8,18.7.3S498.9,348.5,496.1,346.3Z"/><path class="cls-14" d="M438.1,343.9l-4.1-5.8c-2,1.5-3.7,2.2-3.9,3.5s15.1,11.2,15.8,9.9-3.8-5.3-5.1-8.7Z"/><path class="cls-38" d="M443.5,320.9a19.8,19.8,0,0,0,11.7,6.3c7.4-18.1,0-41.2,0-41.2-.5,3.1-.9,6-1.3,8.3C451.8,304.8,443.5,320.9,443.5,320.9Z"/><path class="cls-39" d="M523.2,246.1a15.9,15.9,0,1,0-22.7-9.1l-6.1,5.4,8.9-.2A15.9,15.9,0,0,0,523.2,246.1Z"/><path class="cls-10" d="M522.3,244.7a15.4,15.4,0,1,0-22-8.8l-5.9,6.5,8.6-1.5A15.3,15.3,0,0,0,522.3,244.7Z"/><path class="cls-22" d="M518,220.6a2.5,2.5,0,1,1-4.9,0h-.2v6.9h5.2v-6.9Z"/><path class="cls-23" d="M521.5,227.8s-4-2.2-2-7.2H518c0,3.4-1.1,4.5-2.5,4.5s-2.4-1.1-2.4-4.5h-1.5c1.9,5-2.1,7.2-2.1,7.2a41.8,41.8,0,0,1-.3,12.1q3,.3,6.3.3c2.2,0,4.3-.1,6.4-.3A45,45,0,0,1,521.5,227.8Z"/><path class="cls-10" d="M525.3,187H512.7a.9.9,0,0,1-.8-.8h0a.8.8,0,0,1,.8-.7h12.6a.8.8,0,0,1,.8.7h0A.9.9,0,0,1,525.3,187Z"/><path class="cls-10" d="M525.3,193.8h-14a.7.7,0,0,1-.7-.7h0a.7.7,0,0,1,.7-.7h14a.8.8,0,0,1,.8.7h0A.8.8,0,0,1,525.3,193.8Z"/><path class="cls-10" d="M525.3,200.7h-16a.7.7,0,0,1-.7-.7h0a.8.8,0,0,1,.7-.8h16a.9.9,0,0,1,.8.8h0A.8.8,0,0,1,525.3,200.7Z"/><path class="cls-10" d="M525.3,207.6H506.7a.8.8,0,0,1-.7-.8h0a.7.7,0,0,1,.7-.7h18.6a.8.8,0,0,1,.8.7h0A.9.9,0,0,1,525.3,207.6Z"/><line class="cls-40" x1="545.6" y1="216.9" x2="535.5" y2="216.9"/><line class="cls-40" x1="545.6" y1="221.9" x2="535.5" y2="221.9"/><line class="cls-40" x1="545.6" y1="226.8" x2="535.5" y2="226.8"/><line class="cls-40" x1="545.6" y1="231.7" x2="535.5" y2="231.7"/><circle class="cls-41" cx="478.7" cy="171.5" r="14.6"/><circle class="cls-22" cx="480" cy="170.3" r="14.6" transform="translate(204.7 598.7) rotate(-76.8)"/><path class="cls-10" d="M486,163.3c-3.5-1.3-6,2.1-6,2.1s-2.5-3.4-5.9-2.1-3.5,6.7-2,9,7.9,6.3,7.9,6.3,5.7-2.7,8-6.3S490.3,164.9,486,163.3Z"/><rect class="cls-42" x="716.7" y="316.8" width="46.9" height="23.97" rx="3.2" transform="translate(-52.4 162.2) rotate(-12.1)"/><rect class="cls-22" x="718.2" y="314.7" width="46.9" height="23.97" rx="3.2" transform="translate(-52 162.5) rotate(-12.1)"/><path class="cls-10" d="M725.9,326.5a2.2,2.2,0,0,1,1.1-.1,1.7,1.7,0,0,1,1,.3l.8.5c.1.2.3.4.3.6H729l-1.3.3h-.2c-.1,0-.2,0-.2-.1h-1.7l-.2.2a.4.4,0,0,0-.1.3c.1.1.1.2.2.2h2.9l.7.3.5.5a1.1,1.1,0,0,1,.3.8,1.4,1.4,0,0,1,0,.9,2.2,2.2,0,0,1-.5.8l-.8.6-1.2.4h-1.2a2,2,0,0,1-1.1-.3,1.8,1.8,0,0,1-.7-.5c-.2-.2-.4-.4-.4-.6v-.2h.1l1.3-.3h1.7l.8-.3a.5.5,0,0,0,.3-.5c-.1-.1-.1-.2-.2-.2h-2.1a3.4,3.4,0,0,1-1.6-.4,1.9,1.9,0,0,1-.7-1.3,1.1,1.1,0,0,1,0-.8,3,3,0,0,1,.4-.8l.8-.6A1.8,1.8,0,0,1,725.9,326.5Z"/><path class="cls-10" d="M734.1,324.8h.3c.1.1.1.2.2.2l3.4,5.7h.1v.2a.1.1,0,0,1-.1.1l-1.2.2h-.3a.1.1,0,0,1-.1-.1l-.5-.8-2.6.6v1l-.3.2-1.2.2h-.3v-.2l.8-6.6c.1,0,.1-.1.1-.2l.3-.2Zm-.7,4.6,1.6-.4-1.3-2.1Z"/><path class="cls-10" d="M744.1,328.1h.3l.2,1.1v.2h-.2l-4.5.9h-.2c-.1,0-.1-.1-.1-.2l-1.4-6.2c0-.1,0-.2.1-.2a.1.1,0,0,1,.1-.1l1.3-.3h.2c.1.1.1.1.1.2l1.1,5Z"/><path class="cls-10" d="M750.7,326.7h.2v.2l.3,1c0,.1,0,.2-.1.2s-.1.1-.1.2l-4.6.9a.1.1,0,0,1-.2,0l-.2-.2-1.3-6.2v-.2h.2l4.5-1h.2v.2l.3,1c0,.1,0,.2-.1.2a.1.1,0,0,1-.1.1l-3,.7.2,1,2.8-.6h.3l.2,1.1v.2h-.2l-2.8.6.3,1.1Z"/><path class="cls-10" d="M754.7,321.8a1.7,1.7,0,0,1,.1.7.6.6,0,0,1,0,.6.9.9,0,0,1-.1.5l-.4.4-.7.2a.9.9,0,0,1-.7,0h-.5l-.4-.4-.2-.5c0-.2-.1-.3-.1-.4a.8.8,0,0,0-.1-.4v-.5c.1-.2.1-.4.2-.5l.4-.4.7-.3h.7l.5.2.4.4C754.6,321.4,754.6,321.6,754.7,321.8Zm2.2-1.7c0-.1,0-.1.1-.2h.2l.8-.2h.2l-3.4,7.4h-.3l-.8.2h-.3Zm-4,2.8c.1.1.1.3.2.3h.3c.2,0,.3-.1.3-.2v-.4c0-.2-.1-.4-.1-.6l-.2-.4h-.3c-.2.1-.3.1-.3.2v.4C752.8,322.5,752.9,322.7,752.9,322.9Zm7,1.3a6.4,6.4,0,0,0,.2.7v.6l-.2.5-.4.4-.7.2h-.6l-.6-.2-.3-.4-.3-.5a.6.6,0,0,0-.1-.4v-.3a.6.6,0,0,1,0-.6.8.8,0,0,1,.2-.5.8.8,0,0,1,.4-.4.8.8,0,0,1,.6-.2h.7l.5.2a.8.8,0,0,1,.4.4A.8.8,0,0,1,759.9,324.2Zm-1.8,1.1.2.4c.1,0,.2.1.3,0s.3-.1.3-.2.1-.2,0-.4a1.3,1.3,0,0,0-.1-.6c-.1-.2-.1-.3-.2-.4s-.2-.1-.3,0l-.3.2v.4C758,324.9,758.1,325.1,758.1,325.3Z"/><line class="cls-43" x1="402.4" y1="353.3" x2="696.4" y2="353.3"/><path class="cls-18" d="M690.5,341.4a.3.3,0,0,1-.3-.3v-6.5c0-3.5-3.2-6.5-7.2-6.5s-7.2,3-7.2,6.5v6.5c0,.2-.2.3-.4.3a.3.3,0,0,1-.3-.3v-6.5c0-3.9,3.5-7.2,7.9-7.2s7.9,3.3,7.9,7.2v6.5C690.9,341.3,690.7,341.4,690.5,341.4Z"/><polygon class="cls-11" points="700 339 695.7 339 661.9 339 658.6 374.4 703.3 374.4 700 339"/><polygon class="cls-44" points="699 374.4 658.6 374.4 661.9 339 695.7 339 699 374.4"/><ellipse class="cls-32" cx="671.5" cy="341.1" rx="0.9" ry="0.8"/><ellipse class="cls-32" cx="686.6" cy="341.1" rx="0.9" ry="0.8"/><path class="cls-45" d="M682.1,327.5a7.7,7.7,0,0,0-3.6,1.2H680a7.3,7.3,0,0,1,3-.6h.6A5.2,5.2,0,0,0,682.1,327.5Z"/><path class="cls-18" d="M686.6,341.4a.3.3,0,0,1-.3-.3v-6.5c0-3.5-3.3-6.5-7.3-6.5s-7.2,3-7.2,6.5v6.5a.3.3,0,0,1-.3.3c-.2,0-.4-.1-.4-.3v-6.5c0-3.9,3.6-7.2,7.9-7.2s8,3.3,8,7.2v6.5C687,341.3,686.8,341.4,686.6,341.4Z"/><line class="cls-43" x1="646.9" y1="374.4" x2="717.5" y2="374.4"/></g></svg>